<svg height="512pt" viewBox="0 0 512.00079 512" width="512pt" xmlns="http://www.w3.org/2000/svg"><path d="m472.640625 119.511719c11.71875-17.464844 9.859375-41.402344-5.566406-56.832031-14.285157-14.285157-35.859375-16.933594-52.839844-7.953126-47.335937-37.300781-106.125-56.617187-166.855469-54.578124-65.09375 2.179687-126.316406 28.757812-172.394531 74.835937-46.082031 46.078125-72.65625 107.300781-74.839844 172.394531-2.035156 60.738282 17.28125 119.523438 54.582031 166.855469-8.980468 16.980469-6.328124 38.558594 7.953126 52.839844 8.769531 8.769531 20.285156 13.152343 31.804687 13.152343 8.742187 0 17.488281-2.527343 25.027344-7.585937 40.769531 25.710937 88.273437 39.359375 136.589843 39.359375 7.085938 0 14.195313-.292969 21.296876-.886719 60.175781-5.019531 116.867187-31.328125 159.625-74.089843 42.789062-42.789063 69.105468-99.519532 74.101562-159.742188 4.601562-55.496094-9.023438-111.054688-38.484375-157.769531zm-37.371094-40c3.835938 0 7.667969 1.460937 10.589844 4.382812 5.835937 5.835938 5.84375 15.324219.015625 21.152344s-15.320312 5.824219-21.15625-.011719c-5.835938-5.835937-5.839844-15.328125-.011719-21.15625 2.910157-2.910156 6.734375-4.367187 10.5625-4.367187zm-330.222656 366.363281c-5.828125 5.828125-15.316406 5.820312-21.152344-.011719-5.835937-5.835937-5.84375-15.328125-.015625-21.15625 2.910156-2.910156 6.738282-4.367187 10.566406-4.367187 3.832032 0 7.667969 1.460937 10.589844 4.382812 5.832032 5.832032 5.839844 15.324219.011719 21.152344zm376.179687-171.074219c-4.410156 53.15625-27.640624 103.234375-65.417968 141.007813-37.746094 37.75-87.789063 60.980468-140.902344 65.410156-48.285156 4.023438-96.609375-7.5625-137.460938-32.75 4.683594-15.386719.949219-32.8125-11.199218-44.960938-13.316406-13.316406-32.976563-16.519531-49.335938-9.613281-32.011718-41.464843-48.550781-92.644531-46.78125-145.507812 1.925782-57.460938 25.386719-111.511719 66.066406-152.1875 40.679688-40.679688 94.726563-64.140625 152.1875-66.066407 52.871094-1.769531 104.046876 14.769532 145.507813 46.777344-6.90625 16.363282-3.703125 36.019532 9.613281 49.339844 8.773438 8.769531 20.289063 13.152344 31.804688 13.152344 4.4375 0 8.878906-.652344 13.160156-1.953125 25.167969 40.820312 36.757812 89.105469 32.757812 137.351562zm0 0"/><path d="m171.808594 109.589844c-7.070313-4.644532-15.523438-7.347656-24.597656-7.347656-24.785157 0-44.949219 20.175781-44.949219 44.96875 0 9.070312 2.699219 17.519531 7.332031 24.589843-37.742188 65.507813-27.167969 149.421875 27.011719 203.601563 32.597656 32.601562 75.960937 49.414062 119.605469 49.414062 28.886718 0 57.894531-7.371094 83.984374-22.398437 7.074219 4.640625 15.527344 7.34375 24.597657 7.34375 24.785156 0 44.949219-20.171875 44.949219-44.96875 0-9.066407-2.695313-17.515625-7.332032-24.589844 37.746094-65.503906 27.171875-149.417969-27.007812-203.597656-54.179688-54.179688-138.089844-64.753907-203.59375-27.015625zm-24.597656 22.652344c8.242187 0 14.949218 6.714843 14.949218 14.96875 0 8.253906-6.707031 14.96875-14.949218 14.96875-8.242188 0-14.949219-6.714844-14.949219-14.96875 0-8.253907 6.707031-14.96875 14.949219-14.96875zm217.582031 247.519531c-8.242188 0-14.945313-6.714844-14.945313-14.964844 0-8.253906 6.707032-14.96875 14.945313-14.96875 8.246093 0 14.949219 6.714844 14.949219 14.96875 0 8.25-6.707032 14.964844-14.949219 14.964844zm13.484375-57.867188c-4.257813-1.34375-8.789063-2.066406-13.484375-2.066406-24.785157 0-44.949219 20.171875-44.949219 44.964844 0 4.695312.722656 9.21875 2.0625 13.476562-53.34375 28.808594-120.441406 19.5625-164.089844-24.082031-43.640625-43.640625-52.886718-110.730469-24.089844-164.074219 4.257813 1.34375 8.789063 2.066407 13.484376 2.066407 24.785156 0 44.949218-20.171876 44.949218-44.96875 0-4.691407-.722656-9.21875-2.0625-13.472657 53.34375-28.808593 120.441406-19.566406 164.089844 24.082031 43.640625 43.640626 52.886719 110.730469 24.089844 164.074219zm0 0"/><path d="m304.910156 241.003906h-33.90625v-33.9375c0-8.285156-6.71875-15-15-15-8.285156 0-15 6.714844-15 15v33.9375h-33.90625c-8.285156 0-15 6.714844-15 15s6.714844 15 15 15h33.90625v33.9375c0 8.285156 6.714844 15 15 15 8.28125 0 15-6.714844 15-15v-33.9375h33.90625c8.28125 0 15-6.714844 15-15s-6.714844-15-15-15zm0 0"/></svg>