<?xml version="1.0" encoding="iso-8859-1"?>
<!-- Generator: Adobe Illustrator 21.0.0, SVG Export Plug-In . SVG Version: 6.00 Build 0)  -->
<svg xmlns="http://www.w3.org/2000/svg" xmlns:xlink="http://www.w3.org/1999/xlink" version="1.1" id="Capa_1" x="0px" y="0px" viewBox="0 0 511.592 511.592" style="enable-background:new 0 0 511.592 511.592;" xml:space="preserve" width="512" height="512">
<g>
	<path d="M236.502,229.469c-25.156,0-45.622,20.466-45.622,45.623s20.466,45.622,45.622,45.622s45.622-20.466,45.622-45.622   S261.658,229.469,236.502,229.469z M236.502,290.714c-8.614,0-15.622-7.008-15.622-15.622s7.008-15.623,15.622-15.623   s15.622,7.008,15.622,15.623S245.116,290.714,236.502,290.714z"/>
	<path d="M236.502,158.018c-64.555,0-117.074,52.519-117.074,117.074c0,64.554,52.519,117.073,117.074,117.073   s117.074-52.519,117.074-117.073C353.576,210.537,301.056,158.018,236.502,158.018z M236.502,362.165   c-48.013,0-87.074-39.061-87.074-87.073c0-48.013,39.061-87.074,87.074-87.074s87.074,39.061,87.074,87.074   C323.576,323.104,284.514,362.165,236.502,362.165z"/>
	<path d="M511.567,259.769c-3.715-67.691-32.221-131.431-80.267-179.478C383.254,32.243,319.514,3.737,251.823,0.022   c-4.12-0.224-8.141,1.251-11.134,4.084c-2.993,2.833-4.688,6.772-4.688,10.893v23.598c-130.177,0.272-236,106.255-236,236.494   c0,130.407,106.093,236.5,236.5,236.5c130.24,0,236.222-105.823,236.494-236h23.594c4.121,0,8.06-1.695,10.894-4.688   C510.316,267.91,511.793,263.884,511.567,259.769z M236.502,481.592c-113.865,0-206.5-92.635-206.5-206.5   c0-113.698,92.365-206.222,206-206.494v35.61c0,7.799,5.977,14.297,13.749,14.948c76.289,6.388,136.298,66.397,142.687,142.688   c0.651,7.771,7.149,13.748,14.948,13.748h35.611C442.724,389.227,350.2,481.592,236.502,481.592z M420.66,245.591   c-6.167-38.581-24.439-74.515-52.291-102.367c-27.853-27.853-63.787-46.125-102.368-52.292V31.351   c112.331,13.379,200.857,101.907,214.237,214.24H420.66z"/>
</g>















</svg>
