<svg height="512pt" viewBox="0 0 512 512.001" width="512pt" xmlns="http://www.w3.org/2000/svg"><path d="m449.511719 135.191406c10.121093-16.03125 8.203125-37.539062-5.75-51.5-7.839844-7.839844-18.253907-12.160156-29.335938-12.164062h-.015625c-6.492187 0-12.761718 1.484375-18.414062 4.289062-42.011719-32.78125-94.023438-49.734375-147.738282-47.9375-57.988281 1.945313-112.527343 25.628906-153.574218 66.691406-41.046875 41.058594-64.71875 95.617188-66.664063 153.621094-1.800781 53.746094 15.15625 105.78125 47.9375 147.804688-7.664062 15.511718-5.042969 34.859375 7.851563 47.757812 7.835937 7.839844 18.25 12.15625 29.332031 12.160156h.015625c7.964844 0 15.585938-2.230468 22.152344-6.394531 36.105468 22.523438 78.054687 34.472657 120.71875 34.472657 6.3125 0 12.644531-.261719 18.96875-.789063 53.605468-4.472656 104.105468-27.921875 142.199218-66.023437 38.113282-38.132813 61.554688-88.683594 66.003907-142.347657 4.070312-49.078125-7.855469-98.210937-33.6875-139.640625zm-35.097657-33.664062h.003907c3.066406 0 5.949219 1.199218 8.121093 3.371094 4.484376 4.484374 4.492188 11.78125.015626 16.257812-2.164063 2.167969-5.042969 3.359375-8.105469 3.359375h-.003907c-3.070312-.003906-5.953124-1.199219-8.125-3.371094-4.484374-4.488281-4.488281-11.78125-.011718-16.257812 2.164062-2.167969 5.042968-3.359375 8.105468-3.359375zm-293.152343 321.03125c-2.164063 2.164062-5.042969 3.355468-8.105469 3.355468h-.003906c-3.066406 0-5.953125-1.195312-8.125-3.367187-4.480469-4.488281-4.488282-11.78125-.011719-16.261719 2.167969-2.164062 5.042969-3.355468 8.105469-3.355468h.003906c3.070312 0 5.953125 1.199218 8.125 3.371093 4.484375 4.484375 4.488281 11.777344.011719 16.257813zm332.039062-150.203125c-3.863281 46.597656-24.21875 90.5-57.324219 123.617187-33.078124 33.089844-76.929687 53.453125-123.472656 57.335938-41.859375 3.492187-83.769531-6.417969-119.332031-28.023438 3.734375-13.871094.167969-29.320312-10.703125-40.195312-7.835938-7.835938-18.253906-12.15625-29.332031-12.160156h-.015625c-5.191406 0-10.234375.949218-14.9375 2.761718-27.511719-36.160156-41.710938-80.601562-40.175782-126.496094 1.6875-50.375 22.25-97.757812 57.898438-133.417968 35.644531-35.65625 83.007812-56.226563 133.359375-57.914063 45.878906-1.527343 90.316406 12.671875 126.460937 40.207031-5.699218 14.84375-2.574218 32.332032 9.371094 44.28125 7.839844 7.839844 18.253906 12.160157 29.335938 12.164063h.015625c3.714843 0 7.355469-.488281 10.847656-1.429687 21.566406 35.546874 31.472656 77.421874 28.003906 119.269531zm0 0"/><path d="m255.941406 104.832031c-83.257812 0-150.996094 67.757813-150.996094 151.042969s67.738282 151.042969 150.996094 151.042969c26.273438 0 51.746094-6.730469 74.351563-19.554688 6.34375 3.941407 13.820312 6.21875 21.816406 6.21875 22.871094 0 41.476563-18.617187 41.476563-41.5 0-8-2.273438-15.476562-6.207032-21.820312 12.824219-22.617188 19.554688-48.109375 19.554688-74.386719 0-83.285156-67.734375-151.042969-150.992188-151.042969zm96.171875 258.75c-6.328125 0-11.472656-5.160156-11.472656-11.5 0-6.339843 5.144531-11.5 11.472656-11.5 6.324219 0 11.472657 5.160157 11.472657 11.5 0 6.339844-5.148438 11.5-11.472657 11.5zm11.019531-51.511719c-3.507812-.972656-7.207031-1.488281-11.023437-1.488281-22.867187 0-41.472656 18.617188-41.472656 41.5 0 3.816407.515625 7.515625 1.484375 11.027344-17.246094 9.066406-36.429688 13.808594-56.179688 13.808594-66.714844 0-120.992187-54.300781-120.992187-121.042969s54.277343-121.042969 120.992187-121.042969c66.710938 0 120.988282 54.300781 120.988282 121.042969 0 19.75-4.738282 38.941406-13.796876 56.195312zm0 0"/><path d="m44.992188 90.011719c12.019531 0 23.3125-4.679688 31.808593-13.175781 17.535157-17.542969 17.527344-46.09375-.015625-63.644532-8.5-8.503906-19.796875-13.18749975-31.816406-13.191406h-.015625c-12.015625 0-23.3125 4.679688-31.804687 13.179688-17.535157 17.539062-17.53125 46.089843.015624 63.640624 8.496094 8.5 19.796876 13.1875 31.816407 13.191407zm-10.625-55.625c2.828124-2.828125 6.585937-4.386719 10.585937-4.386719h.007813c4.003906 0 7.769531 1.5625 10.605468 4.398438 5.855469 5.855468 5.859375 15.378906.015625 21.226562-2.828125 2.828125-6.589843 4.386719-10.589843 4.386719h-.003907c-4.003906 0-7.769531-1.566407-10.605469-4.398438-5.855468-5.859375-5.859374-15.378906-.015624-21.226562zm0 0"/><path d="m498.839844 435.179688c-8.5-8.5-19.800782-13.1875-31.816406-13.191407h-.015626c-12.019531 0-23.3125 4.683594-31.808593 13.179688-17.535157 17.542969-17.527344 46.089843.015625 63.640625 8.5 8.503906 19.800781 13.1875 31.816406 13.191406h.015625c12.015625 0 23.3125-4.679688 31.804687-13.175781 17.535157-17.542969 17.53125-46.09375-.011718-63.644531zm-21.207032 42.433593c-2.828124 2.828125-6.585937 4.386719-10.585937 4.386719h-.007813c-4.003906 0-7.769531-1.5625-10.605468-4.398438-5.851563-5.855468-5.859375-15.378906-.015625-21.226562 2.828125-2.828125 6.589843-4.386719 10.589843-4.386719h.003907c4.003906 0 7.773437 1.566407 10.605469 4.402344 5.855468 5.855469 5.859374 15.375.015624 21.222656zm0 0"/><path d="m255.941406 184.027344c-39.585937 0-71.789062 32.230468-71.789062 71.847656s32.203125 71.847656 71.789062 71.847656c39.582032 0 71.789063-32.230468 71.789063-71.847656s-32.207031-71.847656-71.789063-71.847656zm0 113.695312c-23.042968 0-41.789062-18.773437-41.789062-41.847656s18.746094-41.847656 41.789062-41.847656c23.039063 0 41.785156 18.773437 41.785156 41.847656s-18.746093 41.847656-41.785156 41.847656zm0 0"/></svg>