<svg height="496pt" viewBox="0 -24 496 496" width="496pt" xmlns="http://www.w3.org/2000/svg"><path d="m232.015625 268.839844c-28.953125-16.808594-67.113281-16.785156-96-.015625-14.625 8.40625-26.792969 20.574219-35.175781 35.167969-8.398438 14.480468-12.839844 31.078124-12.839844 48.007812s4.441406 33.527344 12.824219 47.992188c8.40625 14.617187 20.566406 26.785156 35.167969 35.167968 14.472656 8.398438 31.070312 12.839844 48.007812 12.839844s33.535156-4.441406 47.984375-12.824219c14.625-8.40625 26.792969-20.574219 35.175781-35.167969 8.398438-14.480468 12.839844-31.078124 12.839844-48.007812s-4.441406-33.527344-12.824219-47.992188c-8.398437-14.609374-20.566406-26.777343-35.160156-35.167968zm-1.34375 148.023437-7.742187-13.421875-13.859376 8 7.730469 13.398438c-7.839843 3.488281-16.226562 5.640625-24.800781 6.464844v-15.304688h-16v15.304688c-8.566406-.824219-16.953125-2.984376-24.800781-6.464844l7.730469-13.390625-13.859376-8-7.742187 13.421875c-7.015625-5.039063-13.144531-11.167969-18.191406-18.191406l13.421875-7.742188-8-13.859375-13.421875 7.746094c-3.527344-7.832031-5.753907-16.191407-6.617188-24.816407h15.480469v-16h-15.480469c.855469-8.617187 3.089844-16.976562 6.617188-24.816406l13.421875 7.746094 8-13.859375-13.421875-7.742187c5.03125-7.015626 11.167969-13.144532 18.191406-18.191407l7.742187 13.421875 13.859376-8-7.746094-13.421875c7.824218-3.527343 16.191406-5.753906 24.816406-6.617187v15.472656h16v-15.480469c8.617188.855469 16.976562 3.089844 24.816406 6.617188l-7.746094 13.421875 13.859376 8 7.742187-13.421875c7.015625 5.039062 13.144531 11.167969 18.191406 18.191406l-13.421875 7.742187 8 13.859376 13.421875-7.746094c3.527344 7.832031 5.753907 16.191406 6.617188 24.816406h-15.480469v16h15.480469c-.855469 8.617188-3.089844 16.976562-6.617188 24.816406l-13.421875-7.746094-8 13.859376 13.421875 7.742187c-5.03125 7.015625-11.167969 13.144531-18.191406 18.191406zm0 0"/><path d="m184 312c-22.054688 0-40 17.945312-40 40s17.945312 40 40 40 40-17.945312 40-40-17.945312-40-40-40zm0 64c-13.230469 0-24-10.769531-24-24s10.769531-24 24-24 24 10.769531 24 24-10.769531 24-24 24zm0 0"/><path d="m176 344h16v16h-16zm0 0"/><path d="m493.601562 279.839844c0-9.550782-5.480468-17.855469-13.601562-21.703125v-19.578125c0-9.246094-1.792969-18.320313-5.296875-26.902344-9.375-23.335938-30.589844-40.273438-55.367187-44.191406l-84.945313-13.585938-13.125-39.382812 53.007813-36.28125c28.984374-19.765625 62.78125-30.214844 97.726562-30.214844v-16c-38.167969 0-75.089844 11.40625-106.769531 33l-100.6875 68.9375-120.550781-114.210938c-13.34375-12.71875-30.929688-19.726562-49.511719-19.726562h-94.480469v376h72v-24c0-10.105469 1.359375-20.160156 4.03125-29.871094 13.351562-48.351562 57.753906-82.128906 107.96875-82.128906 7.414062 0 14.855469.726562 22.105469 2.167969 41.519531 8.359375 75.34375 40.183593 86.167969 81.113281 2.480468 9.207031 3.726562 18.871094 3.726562 28.71875v24h184c8.824219 0 16-7.175781 16-16.238281zm-31.570312-55.839844c1.3125 4.742188 1.96875 9.625 1.96875 14.558594v15.855468l-72-13.085937v-17.328125zm-145.445312-72.96875-39.472657-6.3125 30.421875-20.824219zm-222.105469-135.03125c14.457031 0 28.128906 5.441406 38.496093 15.328125l118.894532 112.671875h-25.214844l-29.410156-22.054688-78.238282-78.242187c-7.433593-7.4375-17.742187-11.703125-28.289062-11.703125h-74.71875v-16zm25.519531 116c0 1.34375.136719 2.679688.328125 4h-104.328125v-88h74.71875c6.335938 0 12.519531 2.558594 16.984375 7.015625l48.984375 48.984375h-8.6875c-15.441406 0-28 12.558594-28 28zm28-12h24.6875l13.65625 13.65625 13.734375 10.34375h-52.078125c-3.183594 0-6.28125-1.273438-8.496094-3.496094-.328125-.328125-.664062-.6875-1.121094-1.328125-1.542968-2.03125-2.382812-4.582031-2.382812-7.175781 0-6.617188 5.382812-12 12-12zm-92 240h-40v-32h42.304688c-1.503907 7.902344-2.304688 15.9375-2.304688 24zm6.496094-48h-46.496094v-160h112.40625c5.179688 5.070312 12.289062 8 19.59375 8h67.808594c-.871094 22.550781-5.457032 44.503906-13.625 65.433594-6.03125-.847656-12.105469-1.433594-18.183594-1.433594-55.328125 0-104.359375 35.910156-121.503906 88zm155.609375-83.398438c8.253906-21.992187 12.855469-44.992187 13.695312-68.601562h39.574219l145.449219 23.265625c15.640625 2.476563 29.464843 11.636719 38.007812 24.734375h-78.832031v46.671875l94.792969 17.230469c3.941406.609375 6.816406 3.945312 6.816406 8.167968l.949219 31.929688h-173c-13.3125-40.382812-46.46875-72-87.453125-83.398438zm93.894531 131.398438v-8c0-8.144531-.777344-16.175781-2.265625-24h169.304687l.960938 32zm0 0"/></svg>