<?xml version="1.0" encoding="iso-8859-1"?>
<!-- Generator: Adobe Illustrator 21.0.0, SVG Export Plug-In . SVG Version: 6.00 Build 0)  -->
<svg xmlns="http://www.w3.org/2000/svg" xmlns:xlink="http://www.w3.org/1999/xlink" version="1.1" id="Capa_1" x="0px" y="0px" viewBox="0 0 512 512" style="enable-background:new 0 0 512 512;" xml:space="preserve" width="512" height="512">
<g>
	<path d="M496.497,195.004c0-4.922-2.415-9.531-6.462-12.333L230.039,2.667C227.53,0.931,224.552,0,221.501,0h-191   c-3.979,0-7.794,1.581-10.606,4.394C17.081,7.207,15.501,11.022,15.501,15l0.004,482c0,8.284,6.716,15,15,15h280.996   c8.284,0,15-6.716,15-15c0-85.466,69.532-154.999,154.998-155c3.979,0,7.794-1.581,10.606-4.394   c2.813-2.813,4.394-6.628,4.394-10.607L496.497,195.004z M297.104,482H45.505l0-60h266.89   C304.115,440.595,298.813,460.798,297.104,482z M329.272,392H45.504L45.501,30h171.314l249.682,172.863l0.002,109.739   C409.665,317.185,360.01,347.573,329.272,392z"/>
	<path d="M377.466,177.623l-167.992-115C206.978,60.914,204.024,60,201,60H90.501c-8.284,0-15,6.716-15,15v114.998   c0,8.284,6.716,15,15,15L368.993,205c6.576,0,12.385-4.283,14.329-10.565C385.267,188.153,382.893,181.337,377.466,177.623z    M105.501,174.998V90h90.856l124.169,85L105.501,174.998z"/>
	<path d="M138.501,251h-48c-8.284,0-15,6.716-15,15s6.716,15,15,15h48c8.284,0,15-6.716,15-15S146.785,251,138.501,251z"/>
</g>















</svg>
