<svg height="512pt" viewBox="-14 0 512 512" width="512pt" xmlns="http://www.w3.org/2000/svg"><path d="m87.523438 393.695312c-8.285157 0-15 6.71875-15 15v31.875c0 8.285157 6.714843 15 15 15 8.285156 0 15-6.714843 15-15v-31.875c0-8.28125-6.714844-15-15-15zm0 0"/><path d="m448.585938 353.75v-148.789062c0-113.015626-92.226563-204.960938-205.589844-204.960938-113.359375 0-205.585938 91.945312-205.585938 204.960938v148.078124c-22.601562 15.816407-37.410156 42.011719-37.410156 71.59375 0 48.175782 39.261719 87.367188 87.523438 87.367188 48.257812 0 87.523437-39.191406 87.523437-87.367188 0-29.554687-14.78125-55.730468-37.351563-71.546874v-148.125c0-57.847657 47.238282-104.90625 105.300782-104.90625 58.066406 0 105.300781 47.058593 105.300781 104.90625v147.4375c-23.128906 15.738281-38.34375 42.246093-38.34375 72.234374 0 48.175782 39.261719 87.367188 87.523437 87.367188 48.257813 0 87.519532-39.191406 87.519532-87.367188.003906-29.144531-14.367188-55.003906-36.410156-70.882812zm-361.0625 128.25c-31.71875 0-57.523438-25.734375-57.523438-57.367188 0-31.628906 25.804688-57.363281 57.523438-57.363281s57.523437 25.734375 57.523437 57.363281c0 31.632813-25.804687 57.367188-57.523437 57.367188zm20.171874-277.039062v134.648437c-6.476562-1.53125-13.230468-2.339844-20.171874-2.339844-6.917969 0-13.652344.804688-20.113282 2.328125v-134.636718c0-91.441407 70.765625-166.722657 160.585938-174.328126v40.246094c-67.570313 7.464844-120.300782 64.75-120.300782 134.082032zm150.300782-134.082032v-40.246094c89.828125 7.605469 160.589844 82.886719 160.589844 174.328126v134.875c-6.765626-1.675782-13.832032-2.566407-21.109376-2.566407-6.585937 0-13.003906.726563-19.175781 2.113281v-134.421874c0-69.332032-52.730469-126.617188-120.304687-134.082032zm139.480468 411.121094c-31.71875 0-57.523437-25.734375-57.523437-57.367188 0-31.628906 25.804687-57.363281 57.523437-57.363281s57.523438 25.734375 57.523438 57.363281c0 31.632813-25.804688 57.367188-57.523438 57.367188zm0 0"/><path d="m378.445312 393.695312c-8.285156 0-15 6.71875-15 15v31.875c0 8.285157 6.714844 15 15 15 8.285157 0 15-6.714843 15-15v-31.875c0-8.28125-6.714843-15-15-15zm0 0"/><path d="m418.507812 393.695312c-8.28125 0-15 6.71875-15 15v31.875c0 8.285157 6.71875 15 15 15 8.285157 0 15-6.714843 15-15v-31.875c0-8.28125-6.714843-15-15-15zm0 0"/></svg>