<?xml version="1.0" encoding="iso-8859-1"?>
<!-- Generator: Adobe Illustrator 21.0.0, SVG Export Plug-In . SVG Version: 6.00 Build 0)  -->
<svg xmlns="http://www.w3.org/2000/svg" xmlns:xlink="http://www.w3.org/1999/xlink" version="1.1" id="Capa_1" x="0px" y="0px" viewBox="0 0 512 512" style="enable-background:new 0 0 512 512;" xml:space="preserve" width="512" height="512">
<g>
	<path d="M497,191c8.284,0,15-6.716,15-15v-60c0-8.284-6.716-15-15-15h-15V86c0-24.813-20.187-45-45-45s-45,20.187-45,45v15h-30V56   c0-8.284-6.716-15-15-15H165c-8.284,0-15,6.716-15,15v45h-30V86c0-24.813-20.187-45-45-45S30,61.187,30,86v15H15   c-8.284,0-15,6.716-15,15v60c0,8.284,6.716,15,15,15h15v190H15c-8.284,0-15,6.716-15,15v60c0,8.284,6.716,15,15,15h482   c8.284,0,15-6.716,15-15v-60c0-8.284-6.716-15-15-15h-15V191H497z M422,86c0-8.271,6.729-15,15-15s15,6.729,15,15v15h-30V86z    M180,71h152v30H180V71z M60,86c0-8.271,6.729-15,15-15s15,6.729,15,15v15H60V86z M30,131h452v30H30V131z M482,441H30v-30h452V441z    M452,381H60V191h392V381z"/>
	<path d="M206.141,284.738c2.322,5.605,7.791,9.26,13.858,9.26h35.789l-31.332,31.332c-5.858,5.858-5.858,15.355,0,21.213   c2.929,2.929,6.768,4.394,10.606,4.394s7.678-1.464,10.606-4.394l56.938-56.938c4.29-4.29,5.573-10.742,3.252-16.347   c-2.322-5.605-7.791-9.26-13.858-9.26h-35.789l17.392-17.392c5.858-5.858,5.858-15.355,0-21.213   c-5.857-5.858-15.355-5.858-21.213,0l-42.998,42.998C205.103,272.682,203.819,279.133,206.141,284.738z"/>
</g>















</svg>
