<?xml version="1.0" encoding="iso-8859-1"?>
<!-- Generator: Adobe Illustrator 21.0.0, SVG Export Plug-In . SVG Version: 6.00 Build 0)  -->
<svg xmlns="http://www.w3.org/2000/svg" xmlns:xlink="http://www.w3.org/1999/xlink" version="1.1" id="Capa_1" x="0px" y="0px" viewBox="0 0 512 512" style="enable-background:new 0 0 512 512;" xml:space="preserve" width="512" height="512">
<g>
	<path style="fill-rule:evenodd;clip-rule:evenodd;" d="M256,0C114.841,0,0,114.841,0,256s114.841,256,256,256s256-114.841,256-256   S397.159,0,256,0z M387.812,439.467l1.167-4.354c2.144-8.002-2.604-16.227-10.606-18.371c-8.005-2.145-16.228,2.605-18.371,10.607   l-9.029,33.696c-22.475,10.452-46.938,17.32-72.659,19.853l3.292-3.292c5.858-5.858,5.858-15.355,0-21.213   c-5.857-5.858-15.355-5.858-21.213,0l-24.685,24.685c-25.744-2.302-50.263-8.924-72.812-19.159l4.476-1.199   c8.002-2.144,12.75-10.369,10.606-18.371c-2.144-8.001-10.368-12.753-18.371-10.606l-33.623,9.009   c-20.62-14.554-38.702-32.468-53.451-52.939l4.353,1.166c1.301,0.349,2.606,0.515,3.892,0.515c6.623,0,12.684-4.42,14.479-11.122   c2.144-8.002-2.604-16.227-10.606-18.371l-33.696-9.029c-10.452-22.475-17.32-46.937-19.853-72.658l3.292,3.292   C37.322,284.536,41.16,286,45,286c3.838,0,7.678-1.465,10.606-4.394c5.858-5.857,5.858-15.355,0-21.213l-24.685-24.685   c2.302-25.744,8.924-50.263,19.159-72.812l1.199,4.476c1.796,6.702,7.856,11.122,14.479,11.122c1.285,0,2.591-0.167,3.892-0.515   c8.002-2.144,12.75-10.369,10.606-18.371l-9.009-33.624c14.554-20.62,32.468-38.702,52.939-53.451l-1.166,4.353   c-2.144,8.002,2.604,16.227,10.606,18.371c1.301,0.349,2.606,0.515,3.892,0.515c6.623,0,12.684-4.42,14.479-11.122l9.028-33.696   c22.475-10.452,46.938-17.321,72.659-19.853l-3.292,3.292c-5.858,5.858-5.858,15.355,0,21.213C233.322,58.536,237.161,60,241,60   s7.678-1.464,10.606-4.394l24.685-24.685c25.744,2.302,50.263,8.924,72.812,19.159l-4.476,1.199   c-8.002,2.144-12.75,10.369-10.606,18.371c1.796,6.702,7.856,11.122,14.479,11.122c1.285,0,2.591-0.167,3.892-0.515l33.624-9.01   c20.62,14.554,38.702,32.469,53.451,52.94l-4.353-1.167c-8.005-2.147-16.228,2.604-18.371,10.606   c-2.144,8.002,2.604,16.227,10.606,18.371l33.697,9.029c10.452,22.475,17.32,46.938,19.853,72.659l-3.293-3.293   c-5.857-5.858-15.355-5.858-21.213,0c-5.858,5.858-5.858,15.355,0,21.213l24.686,24.685c-2.302,25.744-8.924,50.263-19.159,72.812   l-1.2-4.477c-2.144-8.001-10.368-12.752-18.371-10.606c-8.002,2.144-12.75,10.369-10.606,18.371l9.01,33.624   C426.198,406.636,408.283,424.718,387.812,439.467z"/>
	<path style="fill-rule:evenodd;clip-rule:evenodd;" d="M256,211c-24.813,0-45,20.187-45,45s20.187,45,45,45s45-20.187,45-45   S280.813,211,256,211z M256,271c-8.271,0-15-6.729-15-15s6.729-15,15-15s15,6.729,15,15S264.271,271,256,271z"/>
	<path style="fill-rule:evenodd;clip-rule:evenodd;" d="M256,90c-91.533,0-166,74.467-166,166s74.467,166,166,166   s166-74.467,166-166S347.533,90,256,90z M256,392c-74.991,0-136-61.009-136-136s61.009-136,136-136s136,61.009,136,136   S330.991,392,256,392z"/>
	<path style="fill-rule:evenodd;clip-rule:evenodd;" d="M256,181c8.262,0,15-6.738,15-15s-6.738-15-15-15c-8.262,0-15,6.738-15,15   S247.738,181,256,181z"/>
	<circle style="fill-rule:evenodd;clip-rule:evenodd;" cx="346" cy="256" r="15"/>
	<circle style="fill-rule:evenodd;clip-rule:evenodd;" cx="256" cy="346" r="15"/>
	<circle style="fill-rule:evenodd;clip-rule:evenodd;" cx="166" cy="256" r="15"/>
	
		<ellipse transform="matrix(0.7071 -0.7071 0.7071 0.7071 -42.3995 282.3592)" style="fill-rule:evenodd;clip-rule:evenodd;" cx="319.639" cy="192.36" rx="15" ry="15"/>
	
		<ellipse transform="matrix(0.7071 -0.7071 0.7071 0.7071 -132.3992 319.6407)" style="fill-rule:evenodd;clip-rule:evenodd;" cx="319.639" cy="319.64" rx="15" ry="15"/>
	
		<ellipse transform="matrix(0.7071 -0.7071 0.7071 0.7071 -169.6789 229.6415)" style="fill-rule:evenodd;clip-rule:evenodd;" cx="192.36" cy="319.64" rx="15" ry="15"/>
	
		<ellipse transform="matrix(0.7071 -0.7071 0.7071 0.7071 -79.6784 192.3602)" style="fill-rule:evenodd;clip-rule:evenodd;" cx="192.36" cy="192.36" rx="15" ry="15"/>
</g>















</svg>
