<svg height="512pt" viewBox="0 0 512 512" width="512pt" xmlns="http://www.w3.org/2000/svg"><path d="m437.019531 74.980469c-48.351562-48.351563-112.640625-74.980469-181.019531-74.980469s-132.667969 26.628906-181.019531 74.980469c-48.351563 48.351562-74.980469 112.640625-74.980469 181.019531s26.628906 132.667969 74.980469 181.019531c48.351562 48.351563 112.640625 74.980469 181.019531 74.980469s132.667969-26.628906 181.019531-74.980469c48.351563-48.351562 74.980469-112.640625 74.980469-181.019531s-26.628906-132.667969-74.980469-181.019531zm-21.214843 340.824219c-42.683594 42.6875-99.4375 66.195312-159.804688 66.195312s-117.121094-23.507812-159.804688-66.195312c-42.6875-42.683594-66.195312-99.4375-66.195312-159.804688s23.507812-117.121094 66.195312-159.804688c42.683594-42.6875 99.4375-66.195312 159.804688-66.195312s117.121094 23.507812 159.804688 66.195312c42.6875 42.683594 66.195312 99.4375 66.195312 159.804688s-23.507812 117.121094-66.195312 159.804688zm0 0"/><path d="m256 57.230469c-109.601562 0-198.769531 89.167969-198.769531 198.769531s89.167969 198.769531 198.769531 198.769531 198.769531-89.167969 198.769531-198.769531-89.167969-198.769531-198.769531-198.769531zm168.109375 183.769531h-47.492187c-6.804688-55.050781-50.566407-98.8125-105.617188-105.617188v-47.492187c81.117188 7.175781 145.933594 71.992187 153.109375 153.109375zm-168.109375 106.539062c-50.476562 0-91.539062-41.0625-91.539062-91.539062s41.0625-91.539062 91.539062-91.539062 91.539062 41.0625 91.539062 91.539062-41.0625 91.539062-91.539062 91.539062zm-15-259.648437v47.492187c-55.050781 6.804688-98.8125 50.566407-105.617188 105.617188h-47.492187c7.175781-81.117188 71.992187-145.933594 153.109375-153.109375zm-153.109375 183.109375h47.492187c6.804688 55.050781 50.566407 98.8125 105.617188 105.617188v47.492187c-81.117188-7.175781-145.933594-71.992187-153.109375-153.109375zm183.109375 153.109375v-47.492187c55.050781-6.804688 98.8125-50.566407 105.617188-105.617188h47.492187c-7.175781 81.117188-71.992187 145.933594-153.109375 153.109375zm0 0"/><path d="m305.492188 241h-98.984376c-8.28125 0-15 6.714844-15 15s6.71875 15 15 15h98.984376c8.285156 0 15-6.714844 15-15s-6.714844-15-15-15zm0 0"/></svg>