<?xml version="1.0" encoding="iso-8859-1"?>
<!-- Generator: Adobe Illustrator 21.0.0, SVG Export Plug-In . SVG Version: 6.00 Build 0)  -->
<svg xmlns="http://www.w3.org/2000/svg" xmlns:xlink="http://www.w3.org/1999/xlink" version="1.1" id="Capa_1" x="0px" y="0px" viewBox="0 0 512 512" style="enable-background:new 0 0 512 512;" xml:space="preserve" width="512" height="512">
<path d="M497,135h-15v-30h15c8.284,0,15-6.716,15-15s-6.716-15-15-15h-15v0c0-33.084-26.916-60-60-60s-60,26.916-60,60v0h-16.454  c-8.284,0-15,6.716-15,15s6.716,15,15,15H362v30h-16.454c-8.284,0-15,6.716-15,15s6.716,15,15,15H362v52.037  c-0.25-0.012-0.497-0.038-0.75-0.038H268V45c0-24.813-20.187-45-45-45H45C20.187,0,0,20.187,0,45v422c0,24.813,20.187,45,45,45h178  c24.813,0,45-20.187,45-45V307h199c8.284,0,15-6.716,15-15v0v0V165h15c8.284,0,15-6.716,15-15S505.284,135,497,135z M392,75  c0-16.542,13.458-30,30-30s30,13.458,30,30v0L392,75L392,75z M392,105.001h60v30h-60V105.001z M149,30v452h-30V30H149z M30,467  v-16.506l24.606-24.605c5.858-5.857,5.858-15.355,0-21.213s-15.355-5.858-21.213,0L30,408.068v-42.074l24.606-24.606  c5.858-5.858,5.858-15.355,0-21.213c-5.857-5.858-15.355-5.858-21.213,0L30,323.568v-42.075l24.606-24.606  c5.858-5.858,5.858-15.355,0-21.213c-5.857-5.858-15.355-5.858-21.213,0L30,239.068v-42.074l24.606-24.606  c5.858-5.858,5.858-15.355,0-21.213c-5.857-5.858-15.355-5.858-21.213,0L30,154.568v-41.574l24.606-24.605  c5.858-5.857,5.858-15.355,0-21.213c-5.858-5.857-15.355-5.858-21.213,0L30,70.568V45c0-8.271,6.729-15,15-15h44v452H45  C36.729,482,30,475.271,30,467z M223,482h-44V30h44c8.271,0,15,6.729,15,15v16.506l-24.606,24.606  c-5.858,5.858-5.858,15.355,0,21.213c2.929,2.929,6.768,4.394,10.606,4.394s7.678-1.464,10.606-4.394l3.394-3.394v41.574  l-24.606,24.606c-5.858,5.858-5.858,15.355,0,21.213c2.929,2.929,6.768,4.394,10.606,4.394s7.678-1.464,10.606-4.394l3.394-3.394  v42.074l-24.606,24.606c-5.858,5.858-5.858,15.355,0,21.213c2.929,2.929,6.768,4.394,10.606,4.394s7.678-1.464,10.606-4.394  l3.394-3.394V292v22.506l-24.606,24.606c-5.858,5.857-5.858,15.355,0,21.213c2.929,2.929,6.767,4.394,10.606,4.394  c3.838,0,7.678-1.465,10.606-4.394l3.394-3.394v42.074l-24.606,24.606c-5.858,5.858-5.858,15.355,0,21.213  c2.929,2.929,6.768,4.394,10.606,4.394s7.678-1.464,10.606-4.394l3.394-3.394V467C238,475.271,231.271,482,223,482z M268,247h93.25  c0.253,0,0.5-0.026,0.75-0.038V277h-94V247z M452,277h-60V165h60V277z"/>















</svg>
