<?xml version="1.0" encoding="iso-8859-1"?>
<!-- Generator: Adobe Illustrator 21.0.0, SVG Export Plug-In . SVG Version: 6.00 Build 0)  -->
<svg xmlns="http://www.w3.org/2000/svg" xmlns:xlink="http://www.w3.org/1999/xlink" version="1.1" id="Capa_1" x="0px" y="0px" viewBox="0 0 512 512" style="enable-background:new 0 0 512 512;" xml:space="preserve" width="512" height="512">
<g>
	<path d="M452.083,171.89v-42c0-5.559-3.074-10.662-7.988-13.26c-4.914-2.599-10.863-2.266-15.457,0.864L334,181.966V158.91   c0-8.284-6.716-15-15-15h-76.999v-30H257.5c8.284,0,15-6.716,15-15s-6.716-15-15-15H136.501c-8.284,0-15,6.716-15,15   s6.716,15,15,15h15.5v30H15c-8.284,0-15,6.716-15,15v82.5c0,3.978,1.58,7.793,4.394,10.606l55.608,55.607v13.286   c0,8.284,6.716,15,15,15H319c4.516,0,8.973-2.125,11.795-5.654c0.014-0.018,0.028-0.036,0.042-0.053l118.004-149   C450.94,178.553,452.083,175.271,452.083,171.89z M60.002,265.198L30,235.197V173.91h30.002V265.198z M212.001,113.911v30h-30v-30   H212.001z M304,305.91H90.002v-132H304V305.91z M422.083,166.67L334,277.889v-59.623l88.083-60.007V166.67z"/>
	<path d="M491.416,300.227c-5.375-12.21-11.003-23.501-15.848-31.793c-6.264-10.721-12.78-20.344-23.568-20.344   s-17.305,9.623-23.568,20.344c-4.845,8.291-10.474,19.582-15.849,31.793c-6.188,14.06-20.584,48.818-20.584,67.864   c0,33.084,26.916,60,60.001,60c33.084,0,60-26.916,60-60C512,349.044,497.605,314.287,491.416,300.227z M452,398.09   c-16.543,0-30.001-13.458-30.001-30c0-6.559,4.804-24.553,15.537-49.968c5.369-12.716,10.438-23.061,14.464-30.436   c4.026,7.375,9.094,17.72,14.464,30.436C477.196,343.538,482,361.532,482,368.09C482,384.632,468.542,398.09,452,398.09z"/>
</g>















</svg>
