<svg height="511pt" viewBox="-133 1 511 511.999" width="511pt" xmlns="http://www.w3.org/2000/svg"><path d="m210.832031 305.152344.34375-217.386719c0-48.394531-39.554687-87.765625-88.175781-87.765625-48.617188 0-88.171875 39.371094-88.171875 87.789062l.046875 30.972657h-9.855469c-8.28125 0-15 6.714843-15 15 0 8.285156 6.71875 15 15 15h9.902344l.046875 30h-9.949219c-8.28125 0-15 6.714843-15 15 0 8.285156 6.71875 15 15 15h9.996094l.050781 30h-10.046875c-8.285156 0-15 6.714843-15 15 0 8.285156 6.714844 15 15 15h10.09375l.054688 36.386719c-22.386719 22.871093-34.667969 52.890624-34.667969 84.964843 0 32.761719 12.878906 63.507813 36.265625 86.570313 23.136719 22.816406 53.691406 35.316406 86.214844 35.316406.589843 0 1.179687-.003906 1.769531-.011719 31.933594-.445312 62.046875-13.160156 84.792969-35.796875 22.765625-22.664062 35.535156-52.660156 35.945312-84.472656.417969-32.203125-12.167969-63.527344-34.65625-86.566406zm4.660157 86.179687c-.640626 49.300781-41.535157 89.96875-91.160157 90.660157-25.097656.363281-48.707031-9.121094-66.5-26.667969-17.625-17.382813-27.332031-40.539063-27.332031-65.210938 0-25.136719 10.027344-48.605469 28.230469-66.082031 4.101562-3.933594 6.449219-9.429688 6.445312-15.074219l-.0625-40.195312h10.003907c8.285156 0 15-6.71875 15-15 0-8.285157-6.714844-15-15-15h-10.050782l-.050781-30h10.101563c8.285156 0 15-6.71875 15-15 0-8.285157-6.714844-15-15-15h-10.148438l-.046875-30h10.195313c8.285156 0 15-6.71875 15-15 0-8.285157-6.714844-15-15-15h-10.242188l-.046875-30.996094c0-31.851563 26.09375-57.765625 58.171875-57.765625s58.175781 25.914062 58.175781 57.742188l-.351562 221.222656c-.003907 5.636718 2.34375 11.125 6.441406 15.0625l.003906.003906c18.53125 17.789062 28.554688 41.691406 28.222657 67.300781zm0 0"/><path d="m138 329.378906v-241.382812c0-8.28125-6.714844-15-15-15s-15 6.71875-15 15v241.382812c-28.136719 6.773438-49.105469 32.148438-49.105469 62.335938 0 35.347656 28.757813 64.101562 64.105469 64.101562s64.105469-28.757812 64.105469-64.101562c0-30.1875-20.96875-55.566406-49.105469-62.335938zm-15 96.4375c-18.804688 0-34.105469-15.296875-34.105469-34.101562 0-18.808594 15.300781-34.105469 34.105469-34.105469s34.105469 15.296875 34.105469 34.105469c0 18.804687-15.300781 34.101562-34.105469 34.101562zm0 0"/></svg>