<?xml version="1.0" encoding="iso-8859-1"?>
<!-- Generator: Adobe Illustrator 21.0.0, SVG Export Plug-In . SVG Version: 6.00 Build 0)  -->
<svg xmlns="http://www.w3.org/2000/svg" xmlns:xlink="http://www.w3.org/1999/xlink" version="1.1" id="Capa_1" x="0px" y="0px" viewBox="0 0 512 512" style="enable-background:new 0 0 512 512;" xml:space="preserve" width="512" height="512">
<g>
	<ellipse transform="matrix(0.7071 -0.7071 0.7071 0.7071 -81.7979 197.4446)" cx="197.435" cy="197.46" rx="15" ry="15"/>
	<path d="M481.246,332.779c-28.84-28.841-71.683-38.152-109.522-24.669l-89.436-89.437l12.001-12.001l27.482,5.496   c4.915,0.984,10.001-0.556,13.548-4.102l33.941-33.941c2.813-2.813,4.394-6.628,4.394-10.606c0-3.978-1.58-7.793-4.394-10.606   L220.768,4.418c-5.857-5.858-15.355-5.858-21.213,0L4.394,199.58c-5.858,5.858-5.858,15.355,0,21.213l148.493,148.494   c2.813,2.813,6.628,4.394,10.606,4.394s7.794-1.581,10.606-4.394l33.94-33.941c3.546-3.546,5.086-8.63,4.103-13.547l-5.496-27.484   l12.002-12.002l89.437,89.438c-13.479,37.834-4.17,80.682,24.669,109.521c20.47,20.47,47.357,30.705,74.246,30.705   s53.776-10.235,74.246-30.705C501.078,461.439,512,435.072,512,407.025S501.078,352.611,481.246,332.779z M210.161,36.238   l21.214,21.213L57.427,231.4l-21.214-21.214L210.161,36.238z M163.493,337.466L78.64,252.613L252.588,78.665l84.854,84.854   l-17.659,17.658L292.3,175.68c-4.922-0.981-10.002,0.557-13.548,4.103l-98.994,98.995c-3.546,3.546-5.086,8.63-4.103,13.547   l5.495,27.484L163.493,337.466z M460.033,460.058c-29.243,29.242-76.823,29.243-106.066,0   c-22.438-22.439-28.33-56.746-14.658-85.368c2.74-5.736,1.566-12.577-2.929-17.072L239.862,261.1l21.214-21.213l96.518,96.519   c4.494,4.495,11.336,5.667,17.071,2.929c28.623-13.674,62.93-7.782,85.369,14.658c14.166,14.166,21.967,33,21.967,53.034   C482,427.058,474.199,445.893,460.033,460.058z"/>
	<path d="M375.181,375.205L375.181,375.205c-17.546,17.546-17.546,46.095,0,63.64c8.772,8.773,20.296,13.159,31.819,13.159   s23.047-4.386,31.819-13.159c17.546-17.545,17.546-46.094,0-63.64C421.275,357.661,392.726,357.661,375.181,375.205z    M417.607,417.632c-5.848,5.848-15.365,5.848-21.213,0c-5.849-5.849-5.849-15.365,0-21.214v0c5.85-5.849,15.365-5.848,21.213,0   C423.455,402.267,423.455,411.783,417.607,417.632z"/>
</g>















</svg>
