<?xml version="1.0" encoding="iso-8859-1"?>
<!-- Generator: Adobe Illustrator 21.0.0, SVG Export Plug-In . SVG Version: 6.00 Build 0)  -->
<svg xmlns="http://www.w3.org/2000/svg" xmlns:xlink="http://www.w3.org/1999/xlink" version="1.1" id="Capa_1" x="0px" y="0px" viewBox="0 0 512.001 512.001" style="enable-background:new 0 0 512.001 512.001;" xml:space="preserve" width="512" height="512">
<g>
	<path style="fill-rule:evenodd;clip-rule:evenodd;" d="M458.87,417.203C493.333,372.645,512,318.28,512,261   c0-68.38-26.628-132.667-74.98-181.019C388.668,31.629,324.381,5,256,5c-68.38,0-132.667,26.629-181.019,74.981   C26.629,128.333,0.001,192.621,0.001,261c0,57.28,18.667,111.645,53.13,156.203C23.419,419.684,0,444.659,0,475v17   c0,8.284,6.716,15,15,15h482.001c8.284,0,15-6.716,15-15v-17C512.001,444.659,488.582,419.684,458.87,417.203z M482.001,477H30v-2   c0-15.439,12.561-28,28-28h28.189c6.076,0,11.552-3.666,13.868-9.284c2.315-5.618,1.013-12.078-3.298-16.359   c-9.003-8.941-17.147-18.51-24.418-28.596l4.546,1.218c1.301,0.349,2.606,0.515,3.892,0.515c6.623,0,12.684-4.42,14.479-11.121   c2.144-8.002-2.604-16.227-10.606-18.371l-33.864-9.074c-10.548-22.763-17.237-47.241-19.706-72.634l3.312,3.312   C37.323,289.536,41.162,291,45,291s7.678-1.464,10.606-4.394c5.858-5.858,5.858-15.355,0-21.213l-24.685-24.685   c2.302-25.744,8.924-50.263,19.159-72.813l1.199,4.476c1.796,6.702,7.856,11.122,14.479,11.122c1.285,0,2.591-0.167,3.892-0.515   c8.002-2.144,12.75-10.369,10.606-18.371l-9.009-33.624c14.554-20.62,32.468-38.702,52.939-53.451l-1.166,4.353   c-2.144,8.002,2.604,16.227,10.606,18.371c1.301,0.349,2.606,0.515,3.892,0.515c6.623,0,12.684-4.42,14.479-11.122l9.029-33.697   c22.475-10.452,46.938-17.32,72.659-19.853l-3.292,3.292c-5.858,5.858-5.858,15.355,0,21.213c2.929,2.929,6.768,4.394,10.606,4.394   s7.678-1.464,10.606-4.394l24.685-24.685c25.744,2.302,50.263,8.924,72.812,19.159l-4.476,1.199   c-8.002,2.144-12.751,10.369-10.607,18.371c1.795,6.702,7.856,11.122,14.479,11.122c1.285,0,2.591-0.167,3.892-0.515l33.624-9.009   c20.62,14.554,38.702,32.468,53.451,52.939l-4.353-1.166c-8.005-2.146-16.228,2.604-18.371,10.606   c-2.144,8.002,2.604,16.227,10.606,18.371l33.696,9.029c10.452,22.475,17.32,46.938,19.853,72.659l-3.292-3.292   c-5.857-5.858-15.355-5.858-21.213,0c-5.858,5.858-5.858,15.355,0,21.213l24.697,24.697c-2.254,25.492-8.738,50.091-19.121,72.984   l-1.249-4.66c-2.144-8.001-10.368-12.752-18.371-10.606c-8.002,2.144-12.75,10.369-10.606,18.371l9.056,33.796   c-7.552,10.669-16.085,20.763-25.557,30.169c-4.312,4.282-5.614,10.742-3.298,16.359S419.736,447,425.812,447h28.189   c15.439,0,28,12.561,28,28V477z"/>
	<path style="fill-rule:evenodd;clip-rule:evenodd;" d="M256.001,216c-24.813,0-45,20.187-45,45c0,24.813,20.187,45,45,45   s45-20.187,45-45C301.001,236.187,280.814,216,256.001,216z M256.001,276c-8.271,0-15-6.729-15-15s6.729-15,15-15s15,6.729,15,15   S264.272,276,256.001,276z"/>
	<path style="fill-rule:evenodd;clip-rule:evenodd;" d="M256.001,95c-91.533,0-166,74.467-166,166c0,91.533,74.467,166,166,166   s166-74.467,166-166C422.001,169.468,347.534,95,256.001,95z M256.001,397c-74.991,0-136-61.009-136-136   c0-74.99,61.009-136,136-136s136,61.009,136,136C392.001,335.991,330.992,397,256.001,397z"/>
	<path style="fill-rule:evenodd;clip-rule:evenodd;" d="M256.001,186.001c8.262,0,15-6.738,15-15s-6.738-15-15-15   c-8.262,0-15,6.738-15,15S247.739,186.001,256.001,186.001z"/>
	<circle style="fill-rule:evenodd;clip-rule:evenodd;" cx="346.001" cy="261.001" r="15"/>
	<circle style="fill-rule:evenodd;clip-rule:evenodd;" cx="256.001" cy="351.001" r="15"/>
	<circle style="fill-rule:evenodd;clip-rule:evenodd;" cx="166.001" cy="261.001" r="15"/>
	
		<ellipse transform="matrix(0.7071 -0.7071 0.7071 0.7071 -45.9348 283.8255)" style="fill-rule:evenodd;clip-rule:evenodd;" cx="319.64" cy="197.361" rx="15" ry="15"/>
	
		<ellipse transform="matrix(0.7071 -0.7071 0.7071 0.7071 -135.9348 321.1047)" style="fill-rule:evenodd;clip-rule:evenodd;" cx="319.64" cy="324.64" rx="15" ry="15"/>
	
		<ellipse transform="matrix(0.7071 -0.7071 0.7071 0.7071 -173.2138 231.1036)" style="fill-rule:evenodd;clip-rule:evenodd;" cx="192.361" cy="324.64" rx="15" ry="15"/>
	
		<ellipse transform="matrix(0.7071 -0.7071 0.7071 0.7071 -83.214 193.8247)" style="fill-rule:evenodd;clip-rule:evenodd;" cx="192.361" cy="197.361" rx="15" ry="15"/>
</g>















</svg>
