<svg height="496pt" viewBox="-16 0 496 496.04764" width="496pt" xmlns="http://www.w3.org/2000/svg"><path d="m96.023438 368.046875h16v16h-16zm0 0"/><path d="m447.390625 59.984375-145.304687-58.152344c-14.125-5.242187-28.949219 1.824219-34.125 14.839844l-10.152344 25.320313c-1.183594 3.183593-1.785156 6.398437-1.785156 9.574218 0 5.273438 1.648437 10.386719 4.542968 14.707032l-23.390625 53.773437h-10.335937l-23.375-53.75c2.910156-4.328125 4.558594-9.449219 4.558594-14.730469 0-3.167968-.601563-6.390625-1.855469-9.78125l-10.070313-25.097656c-5.195312-13.054688-19.355468-20.382812-34.328125-14.792969l-145.097656 58.082031c-10.113281 4.015626-16.6484375 13.65625-16.6484375 24.550782 0 3.167968.6015625 6.390625 1.8554685 9.785156l10.074219 25.09375c3.796875 9.554688 12.621094 15.832031 22.765625 16.511719l73.105469 168.128906h-19.800781c-13.230469 0-24 10.769531-24 24 0 6.488281 2.535156 12.519531 6.992187 16.863281 1.488281 1.53125 3.191406 2.730469 4.984375 3.785156-7.230469 7.464844-11.734375 17.601563-11.734375 28.792969 0 3.101563.328125 6.054688.988281 9.007813l24.355469 109.550781h252.726563l34.726562-144.734375c31.273438-4.273438 54.960938-30.945312 54.960938-63.265625 0-27.414063-17.496094-51.414063-42.617188-60.269531l39.921875-91.859375c10.144531-.679688 18.976563-6.957031 22.769531-16.488281l10.148438-25.316407c1.175781-3.195312 1.777344-6.410156 1.777344-9.585937 0-10.894532-6.535157-20.535156-16.632813-24.542969zm-186.886719 46.574219 24.414063 10.296875 6.21875-14.742188-24.25-10.234375 6.707031-15.398437 139.796875 55.949219-7.78125 17.914062-99.609375-41.921875-6.199219 14.753906 99.429688 41.839844-7.855469 18.070313-95.464844-40.160157c-.597656-12.703125-11.039062-22.878906-23.886718-22.878906h-17.390626zm-84.328125 210.679687c8.945313-13.269531 23.839844-21.191406 39.847657-21.191406 16.007812 0 30.90625 7.921875 39.847656 21.191406 5.335937 7.898438 8.152344 17.167969 8.152344 26.808594s-2.816407 18.914063-8.152344 26.808594c-8.941406 13.273437-23.839844 21.191406-39.847656 21.191406-26.472657 0-48-21.527344-48-48 0-9.640625 2.816406-18.910156 8.152343-26.808594zm15.847657-37.191406c-9.367188 0-17.65625-5.253906-21.664063-13.785156-.34375-.710938-.503906-1.476563-.777344-2.214844h92.953125c-3.289062 9.335937-12.078125 16-22.503906 16zm-84.847657-17.617187 30.800781-12.933594c2.710938 6.304687 8.09375 11.128906 14.679688 13.273437.152344.871094.296875 1.75.503906 2.605469l-37.777344 15.929688zm164.847657-126.382813c4.410156 0 8 3.59375 8 8v40h-72c-13.230469 0-24 10.769531-24 24 0 6.488281 2.535156 12.519531 6.992187 16.863281 4.488281 4.601563 10.519531 7.136719 17.007813 7.136719h72v8c0 4.410156-3.589844 8-8 8h-112c-4.40625 0-8-3.589844-8-8v-40.480469c0-3.742187.855468-7.40625 2.511718-10.664062l19.753906-39.582032c4.0625-8.066406 12.503907-13.273437 21.496094-13.273437zm34.089843 168h-40.234375c-3.277344-4.085937-7-7.703125-11.09375-10.824219 10.964844-4.320312 19.414063-13.335937 23.0625-24.390625l26.710938 11.238281c-.34375 2.632813-.535156 5.28125-.535156 7.976563 0 5.472656.753906 10.808594 2.089843 16zm-26.089843-88h-72c-2.136719 0-4.105469-.816406-5.695313-2.445313-1.488281-1.449218-2.304687-3.417968-2.304687-5.554687 0-4.40625 3.59375-8 8-8h72zm-139.769532-34.34375c-2.101562 4.136719-3.445312 8.703125-3.964844 13.402344l-49.371093 20.734375-7.855469-18.070313 67.320312-28.347656zm-4.230468 30.863281v20.410156l-35.222657 14.792969-7.503906-17.257812zm139.183593 107.480469h37.511719c3.671875 6.3125 8.34375 11.9375 13.882812 16.617187l-12.074218 31.382813h-39.320313c3.074219-7.574219 4.816407-15.65625 4.816407-24s-1.742188-16.421875-4.816407-24zm33.472657-55.597656-19.175782-8.066407c4.015625-4.296874 6.519532-10.015624 6.519532-16.335937v-3.222656l23.367187 9.855469c-4.511719 5.296874-8.144531 11.28125-10.710937 17.769531zm24.046874-29.511719-36.703124-15.480469v-20.402343l61.433593 25.855468c-8.921875 1.464844-17.226562 4.984375-24.730469 10.027344zm44.417969-19.097656-81.121093-34.144532v-21.359374l88.976562 37.441406zm-181.359375-95.792969c-14.984375 0-29.035156 8.664063-35.808594 22.128906l-2.625 5.265625-84.671874 35.644532-7.855469-18.0625 138.726562-58.464844 5.871094 13.488281zm-168.976562-6.582031-10-24.921875c-.511719-1.375-.785156-2.765625-.785156-4.015625 0-4.304688 2.578124-8.105469 6.578124-9.695313l144.925782-58c6.128906-2.273437 11.664062.632813 13.710937 5.800781l10 24.917969c.511719 1.375.785157 2.769531.785157 4.015625 0 2.90625-1.167969 5.609375-3.34375 7.640625-.878907.839844-2.039063 1.578125-3.214844 2.054688l-20.480469 8.160156 5.917969 14.859375 19.570312-7.792969 6.734375 15.488281-138.765625 58.382813-7.785156-17.910156 104.335938-41.769531-5.945313-14.847657-108.625 43.472657c-.628906.246093-1.308594.429687-1.613281.503906-5.039063.695312-10.128906-1.632813-12-6.34375zm94.953125 182.519531 38.246093-16.128906c4.449219 6.054687 10.414063 10.632812 17.289063 13.335937-4.105469 3.128906-7.839844 6.753906-11.128906 10.855469h-40.902344zm207.949219 184.0625h-227.269532l-21.578125-97.039063c-.40625-1.808593-.609375-3.617187-.609375-5.519531 0-14.023437 11.417969-25.441406 25.441406-25.441406 10.320313 0 19.535157 6.136719 23.496094 15.640625l33.496094 80.359375h46.808594c3.3125 9.289063 12.113281 16 22.527344 16 13.230468 0 24-10.765625 24-24 0-.992187-.175782-1.941406-.296876-2.902344l27.875-13.9375-7.160156-14.3125-27.808594 13.90625c-4.3125-4.160156-10.152343-6.753906-16.609374-6.753906-10.414063 0-19.214844 6.710937-22.527344 16h-36.144532l-29.382812-70.519531c-6.449219-15.480469-21.464844-25.480469-38.265625-25.480469h-17.679687c-2.136719 0-4.105469-.816406-5.695313-2.445313-1.488281-1.449218-2.304687-3.417968-2.304687-5.554687 0-4.40625 3.59375-8 8-8h68.816406c-3.070313 7.578125-4.816406 15.65625-4.816406 24 0 35.289063 28.710937 64 64 64 19.535156 0 37.761718-8.925781 49.855468-24h59.640625l38.441407-99.96875c.949218-2.445313 3.238281-4.03125 5.824218-4.03125 3.4375 0 6.238282 2.800781 6.238282 6.320313 0 .289062-.03125.785156-.175782 1.410156zm-105.6875-40c0-4.40625 3.59375-8 8-8 4.410156 0 8 3.59375 8 8 0 4.410156-3.589844 8-8 8-4.40625 0-8-3.589844-8-8zm192-152c0 21.992187-14.632813 40.464844-34.847657 46.089844l10.246094-42.707031c.402344-1.742188.601563-3.445313.601563-5.140626 0-12.265624-9.976563-22.242187-22.238282-22.242187-9.21875 0-17.351562 5.578125-20.753906 14.25l-16.230469 42.222656c-3.28125-3.527343-6.089843-7.496093-8.183593-11.886719-3.050782-6.457031-4.59375-13.386718-4.59375-20.585937 0-3.792969.449218-7.464844 1.382812-11.277344 2.496094-10.515625 8.539062-19.921875 17.097656-26.523437 8.441406-6.671875 18.648438-10.199219 29.519532-10.199219 3.257812 0 6.199218.289063 9.136718.898437 22.519532 4.316407 38.863282 24.132813 38.863282 47.101563zm31.296874-199.695313-10.089843 25.144532c-1.582031 3.976562-5.382813 6.550781-9.6875 6.550781-.75 0-1.558594-.136719-1.878907-.167969-.726562-.144531-1.410156-.335937-1.945312-.535156l-145.078125-58.0625c-1.226563-.496094-2.386719-1.234375-3.273437-2.074219l-.039063-.039062c-2.136719-1.992188-3.304687-4.695313-3.304687-7.601563 0-1.246094.273437-2.640625.703124-3.824218l10.089844-25.140626c1.582032-3.976562 5.382813-6.554687 9.6875-6.554687 1.246094 0 2.640625.273437 3.832032.703125l145.136718 58.089844c3.976563 1.582031 6.550782 5.382812 6.550782 9.6875 0 1.25-.273438 2.640625-.703126 3.824218zm0 0"/><path d="m232.023438 344.046875c0 2.335937-.527344 4.585937-1.625 6.890625l14.457031 6.863281c2.105469-4.433593 3.167969-9.058593 3.167969-13.753906 0-17.648437-14.351563-32-32-32-4.695313 0-9.320313 1.066406-13.75 3.167969l6.863281 14.457031c11.007812-5.242187 22.886719 3.214844 22.886719 14.375zm0 0"/><path d="m216.023438 376.046875c4.695312 0 9.320312-1.0625 13.753906-3.167969l-6.867188-14.457031c-11.007812 5.234375-22.886718-3.222656-22.886718-14.375 0-2.335937.527343-4.582031 1.625-6.886719l-14.457032-6.863281c-2.105468 4.429687-3.167968 9.054687-3.167968 13.75 0 17.648437 14.351562 32 32 32zm0 0"/><path d="m248.023438 152.046875h16v16h-16zm0 0"/><path d="m216.023438 152.046875h16v16h-16zm0 0"/><path d="m184.023438 152.046875h16v16h-16zm0 0"/></svg>
