<?xml version="1.0" encoding="iso-8859-1"?>
<!-- Generator: Adobe Illustrator 21.0.0, SVG Export Plug-In . SVG Version: 6.00 Build 0)  -->
<svg xmlns="http://www.w3.org/2000/svg" xmlns:xlink="http://www.w3.org/1999/xlink" version="1.1" id="Capa_1" x="0px" y="0px" viewBox="0 0 512 512" style="enable-background:new 0 0 512 512;" xml:space="preserve" width="512" height="512">
<g>
	<path d="M437.019,74.981C388.667,26.629,324.38,0,256,0S123.333,26.629,74.981,74.981C26.629,123.333,0,187.62,0,256   s26.629,132.667,74.981,181.019C123.333,485.371,187.62,512,256,512s132.667-26.629,181.019-74.981   C485.371,388.667,512,324.38,512,256S485.371,123.333,437.019,74.981z M256,482C131.383,482,30,380.617,30,256S131.383,30,256,30   s226,101.383,226,226S380.617,482,256,482z"/>
	<path d="M76.475,241h13.231c31.273,0,58.984-8.645,84.715-26.428C195.176,200.227,224.91,192,256,192s60.824,8.227,81.579,22.572   C363.31,232.355,391.02,241,422.293,241c0,0,13.226,0,13.231,0c9.102,0,16.286-8.481,14.798-17.455   c-7.546-45.493-31.096-87.144-66.311-117.281C348.398,75.786,302.936,59,256,59s-92.398,16.786-128.012,47.264   c-35.215,30.137-58.765,71.789-66.311,117.281C60.183,232.553,67.359,241,76.475,241z M256,89   c75.976,0,141.001,50.287,160.851,121.894c-22.99-0.906-42.889-7.645-62.214-21.001C328.612,171.906,293.582,162,256,162   s-72.612,9.906-98.636,27.893c-19.328,13.358-39.223,20.096-62.215,21.001C114.999,139.287,180.024,89,256,89z"/>
	<path d="M435.525,271h-60.217c-6.879,0-12.877,4.68-14.55,11.353c-5.524,22.038-18.263,42.217-35.871,56.819   c-29.641,24.581-47.828,57.17-52.596,94.245c-0.607,4.723,1.063,9.453,4.501,12.746c3.401,3.258,8.287,4.751,12.927,3.949   c82.38-14.22,146.921-79.185,160.603-161.657c0.721-4.348-0.506-8.793-3.356-12.155C444.116,272.938,439.932,271,435.525,271z    M307.078,415.046c6.77-20.319,19.143-38.007,36.96-52.782c19.426-16.11,34.215-37.553,42.435-61.265h30.389   C401.8,355.083,360.336,397.998,307.078,415.046z"/>
	<path d="M187.112,339.172c-17.608-14.603-30.347-34.781-35.871-56.819c-1.672-6.673-7.67-11.353-14.55-11.353H76.475   c-4.407,0-8.592,1.938-11.442,5.3c-2.85,3.361-4.077,7.807-3.356,12.155c13.682,82.474,78.223,147.439,160.602,161.657   c4.651,0.804,9.519-0.684,12.927-3.949c3.438-3.293,5.109-8.023,4.501-12.746C234.94,396.342,216.753,363.752,187.112,339.172z    M95.139,301h30.389c8.219,23.712,23.008,45.154,42.435,61.265c17.817,14.775,30.19,32.463,36.96,52.782   C151.665,397.999,110.2,355.084,95.139,301z"/>
	<path d="M333,259.5c0-26.509-33.103-46.5-77-46.5s-77,19.991-77,46.5s33.103,46.5,77,46.5S333,286.009,333,259.5z M256,276   c-30.84,0-47-12.259-47-16.5s16.16-16.5,47-16.5s47,12.259,47,16.5S286.84,276,256,276z"/>
</g>















</svg>
