<svg height="496pt" viewBox="0 0 496 496" width="496pt" xmlns="http://www.w3.org/2000/svg"><path d="m344 128c17.648438 0 32-14.351562 32-32v-1.359375c0-5.824219-1.59375-11.511719-4.574219-16.433594l-27.425781-45.773437-27.398438 45.734375c-3.007812 4.960937-4.601562 10.65625-4.601562 16.472656v1.359375c0 17.648438 14.351562 32 32 32zm-16-33.359375c0-2.847656.808594-5.753906 2.296875-8.207031l13.703125-22.867188 13.726562 22.90625c1.464844 2.414063 2.273438 5.320313 2.273438 8.167969v1.359375c0 8.824219-7.175781 16-16 16s-16-7.175781-16-16zm0 0"/><path d="m480 32h-72.214844c-15.074218-20.046875-38.519531-32-63.785156-32-25.273438 0-48.71875 11.953125-63.785156 32h-264.214844c-8.824219 0-16 7.175781-16 16v80c0 8.824219 7.175781 16 16 16v312h73.472656c3.3125 9.289062 12.113282 16 22.527344 16h41.136719c3.574219 13.761719 15.992187 24 30.863281 24s27.289062-10.238281 30.863281-24h90.273438c3.574219 13.761719 15.992187 24 30.863281 24s27.289062-10.238281 30.863281-24h17.136719c10.414062 0 19.214844-6.710938 22.527344-16h65.472656v-312h8c8.824219 0 16-7.175781 16-16v-80c0-8.824219-7.175781-16-16-16zm0 48h-56c0-11.136719-2.414062-21.960938-6.824219-32h62.824219zm-189.191406-35.550781c11.902344-17.816407 31.785156-28.449219 53.191406-28.449219s41.289062 10.632812 53.191406 28.449219l.007813.007812c7.066406 10.527344 10.800781 22.816407 10.800781 35.542969 0 2.320312-.144531 4.640625-.433594 7.0625-1.789062 16.609375-10.308594 32.167969-23.40625 42.722656-11.296875 9.167969-25.550781 14.214844-40.160156 14.214844s-28.863281-5.046875-40.183594-14.230469c-13.074218-10.53125-21.59375-26.097656-23.390625-42.816406-.28125-2.3125-.425781-4.632813-.425781-6.953125 0-12.726562 3.734375-25.015625 10.808594-35.550781zm-274.808594 83.550781v-32h249.671875c2.367187 11.601562 7.40625 22.542969 14.503906 32zm254.824219-80c-4.410157 10.039062-6.824219 20.863281-6.824219 32h-248v-32zm-46.824219 272h-9.039062c-2.394532 0-4.714844.480469-6.960938 1.175781v-73.175781l16 12zm-32 13.480469-34.65625 37.144531c-1.015625 1.09375-2.367188 1.886719-3.839844 2.246094l-47.34375 11.832031c-10.6875 2.648437-18.160156 12.226563-18.160156 23.296875v32h-24v-248h128zm-8 146.519531c-8.824219 0-16-7.175781-16-16s7.175781-16 16-16c4.664062 0 8.113281 1.992188 10.175781 3.664062l2.03125-2.519531.191407-.054687-2.140626 2.652344c3.644532 2.945312 5.742188 7.410156 5.742188 12.257812 0 8.824219-7.175781 16-16 16zm144-99.761719c0 1.3125-.046875 2.53125-.089844 3.761719h-116.597656l16-16h100.6875zm-22.902344 75.761719h-90.1875c-1.398437-5.480469-4.285156-10.375-8.300781-14.367188l-.023437-.121093-.328126-.328125c-4.035156-13.296875-6.089843-27.136719-6.210937-41.183594h126.386719c-1.890625 13.945312-5.753906 27.488281-11.671875 40.359375-4.683594 4.191406-8.089844 9.59375-9.664063 15.640625zm30.902344 24c-8.824219 0-16-7.175781-16-16 0-5 2.359375-9.753906 6.359375-12.753906 2.761719-2.09375 6.183594-3.246094 9.640625-3.246094 8.824219 0 16 7.175781 16 16s-7.175781 16-16 16zm48-24h-17.136719c-3.574219-13.761719-15.992187-24-30.863281-24-.257812 0-.511719.054688-.777344.0625 4.371094-12.726562 7.175782-25.878906 8.167969-39.238281.417969-3.929688.609375-8.046875.609375-12.585938v-12.238281c0-8.824219-7.175781-16-16-16h-107.3125l-36.6875 36.6875v10.03125c0 11.371094 1.265625 22.601562 3.585938 33.59375-1.195313-.136719-2.386719-.3125-3.585938-.3125-14.871094 0-27.289062 10.238281-30.863281 24h-41.136719c-4.414062 0-8-3.59375-8-8v-24.046875c17.121094-.136719 34.113281-2.914063 50.511719-8.351563l-5.03125-15.1875c-14.785157 4.90625-30.082031 7.410157-45.472657 7.546876.023438-3.671876 2.480469-6.832032 6.007813-7.703126l47.3125-11.832031c4.496094-1.097656 8.550781-3.472656 11.726563-6.875l40.097656-42.984375c1.503906-1.628906 3.625-2.566406 5.808594-2.566406h124.847656c13.175781 18.855469 20.191406 40.878906 20.191406 64v8h32v16h-24v16h24v8c0 4.40625-3.585938 8-8 8zm40-16h-16v-54.160156c0-6.167969-2.3125-12.015625-6.472656-16.414063l-38.941406-41.738281c-4.523438-4.886719-10.914063-7.6875-17.546876-7.6875h-49.039062v-128h128zm-32-48h-16.238281c-.722657-11.761719-3.089844-23.199219-6.90625-34.152344l21.015625 22.519532c1.367187 1.464843 2.128906 3.410156 2.128906 5.472656zm64 48h-16v-248c0-8.824219-7.175781-16-16-16h-128c-8.824219 0-16 7.175781-16 16v128h-40v-68l-32-24v-36c0-8.824219-7.175781-16-16-16h-128c-8.824219 0-16 7.175781-16 16v248h-16v-296h264.167969c13.726562 10.304688 30.574219 16 47.832031 16 17.273438 0 34.121094-5.703125 47.832031-16h64.167969zm-48.175781-312c7.113281-9.472656 12.152343-20.425781 14.511719-32h57.664062v32zm0 0"/><path d="m216 416h32v16h-32zm0 0"/><path d="m176 208h-96v64h96zm-16 48h-64v-32h64zm0 0"/><path d="m88 288h16v16h-16zm0 0"/><path d="m120 288h16v16h-16zm0 0"/><path d="m152 288h16v16h-16zm0 0"/><path d="m408 208h-96v64h96zm-16 48h-64v-32h64zm0 0"/><path d="m320 288h16v16h-16zm0 0"/><path d="m352 288h16v16h-16zm0 0"/><path d="m384 288h16v16h-16zm0 0"/></svg>