<svg height="511pt" viewBox="-65 0 511 511.998" width="511pt" xmlns="http://www.w3.org/2000/svg"><path d="m297.40625 102.261719c0-56.386719-45.847656-102.261719-102.203125-102.261719s-102.207031 45.875-102.207031 102.261719c0 51.289062 37.933594 93.878906 87.207031 101.160156v257.691406l-23.992187-26.949219c-5.507813-6.1875-14.988282-6.738281-21.175782-1.226562-6.1875 5.507812-6.738281 14.988281-1.230468 21.175781l44.972656 50.515625c4.125 4.632813 10.03125 7.3125 16.226562 7.367188h.199219.011719.191406c6.195312-.054688 12.097656-2.734375 16.222656-7.367188l44.972656-50.515625c5.507813-6.1875 4.957032-15.667969-1.230468-21.175781-6.1875-5.511719-15.667969-4.960938-21.175782 1.226562l-23.992187 26.949219v-257.691406c49.269531-7.28125 87.203125-49.871094 87.203125-101.160156zm-174.410156 0c0-39.847657 32.390625-72.261719 72.207031-72.261719s72.207031 32.414062 72.207031 72.261719c0 34.699219-24.566406 63.761719-57.207031 70.691406v-48.140625c0-8.285156-6.714844-15-15-15s-15 6.714844-15 15v48.140625c-32.640625-6.929687-57.207031-35.992187-57.207031-70.691406zm0 0"/><path d="m315.652344 380.621094c-8.285156 0-15 6.71875-15 15v83.5c0 8.285156 6.714844 15 15 15 8.28125 0 15-6.714844 15-15v-83.5c0-8.28125-6.71875-15-15-15zm0 0"/><path d="m315.652344 307.5c-8.285156 0-15 6.714844-15 15v23.398438c0 8.285156 6.714844 15 15 15 8.28125 0 15-6.714844 15-15v-23.398438c0-8.285156-6.71875-15-15-15zm0 0"/><path d="m365.5 192.363281c-8.285156 0-15 6.71875-15 15v204.441407c0 8.285156 6.714844 15 15 15 8.28125 0 15-6.714844 15-15v-204.441407c0-8.28125-6.71875-15-15-15zm0 0"/><path d="m301.738281 214.316406c0-8.285156-6.714843-15-15-15-8.285156 0-15 6.714844-15 15v23.398438c0 8.285156 6.714844 15 15 15 8.285157 0 15-6.714844 15-15zm0 0"/><path d="m152.191406 257.75v-23.398438c0-8.285156-6.714844-15-15-15-8.28125 0-15 6.714844-15 15v23.398438c0 8.285156 6.71875 15 15 15 8.285156 0 15-6.714844 15-15zm0 0"/><path d="m15.5 79.894531c-8.285156 0-15 6.714844-15 15v162.855469c0 8.285156 6.714844 15 15 15 8.28125 0 15-6.714844 15-15v-162.855469c0-8.285156-6.71875-15-15-15zm0 0"/><path d="m65.347656 225.136719c-8.285156 0-15 6.714843-15 15v126.511719c0 8.285156 6.714844 15 15 15s15-6.714844 15-15v-126.511719c0-8.285157-6.714844-15-15-15zm0 0"/><path d="m65.347656 152.015625c-8.285156 0-15 6.714844-15 15v23.398437c0 8.28125 6.714844 15 15 15s15-6.71875 15-15v-23.398437c0-8.285156-6.714844-15-15-15zm0 0"/></svg>