<svg height="512pt" viewBox="0 0 512.00013 512" width="512pt" xmlns="http://www.w3.org/2000/svg"><path d="m454.695312 57.386719c-37.011718-37.007813-86.21875-57.386719-138.5625-57.386719s-101.550781 20.378906-138.5625 57.386719c-37.011718 37.003906-57.394531 86.203125-57.394531 138.539062 0 28.015625 5.839844 55.132813 16.945313 79.960938l-116.644532 116.625c-27.300781 27.296875-27.300781 71.714843 0 99.015625 13.652344 13.648437 31.585938 20.472656 49.515626 20.472656 17.933593 0 35.867187-6.824219 49.519531-20.472656l116.644531-116.625c24.832031 11.105468 51.957031 16.945312 79.976562 16.945312 52.34375 0 101.554688-20.378906 138.566407-57.386718 76.402343-76.390626 76.402343-200.683594-.003907-277.074219zm-356.40625 412.925781c-7.558593 7.554688-17.605468 11.71875-28.296874 11.71875-10.6875 0-20.738282-4.164062-28.296876-11.71875-7.558593-7.558594-11.722656-17.605469-11.722656-28.292969s4.164063-20.734375 11.722656-28.292969l110.449219-110.429687c7.308594 11.105469 15.804688 21.546875 25.425781 31.164063 9.617188 9.617187 20.0625 18.113281 31.171876 25.421874zm335.191407-157.0625c-31.347657 31.335938-73.019531 48.59375-117.347657 48.59375-44.328124 0-86-17.257812-117.34375-48.59375-31.34375-31.339844-48.605468-73.007812-48.605468-117.324219 0-44.320312 17.261718-85.988281 48.605468-117.324219 31.34375-31.339843 73.015626-48.597656 117.34375-48.597656 44.328126 0 86 17.257813 117.347657 48.597656 64.703125 64.691407 64.703125 169.953126 0 234.648438zm0 0"/><path d="m387.480469 124.589844c-27.195313-27.1875-67.742188-36.347656-103.683594-24.242188-8-6.546875-17.929687-10.109375-28.40625-10.113281h-.015625c-12.007812 0-23.296875 4.675781-31.785156 13.164063-8.492188 8.488281-13.167969 19.78125-13.164063 31.792968.003907 10.472656 3.566407 20.402344 10.109375 28.402344-12.121094 35.945312-2.984375 76.429688 24.25 103.664062 19.300782 19.296876 45.253906 29.503907 71.535156 29.503907 10.808594 0 21.671876-1.726563 32.148438-5.257813 8.003906 6.542969 17.933594 10.101563 28.40625 10.105469h.015625c12.007813 0 23.296875-4.671875 31.785156-13.160156 16.441407-16.4375 17.457031-42.546875 3.054688-60.191407 12.121093-35.949218 2.988281-76.4375-24.25-103.667968zm-142.671875.023437c2.820312-2.820312 6.574218-4.375 10.566406-4.375h.007812c3.996094 0 7.757813 1.558594 10.585938 4.386719 5.835938 5.835938 5.84375 15.328125.015625 21.15625-2.824219 2.820312-6.574219 4.375-10.570313 4.375h-.003906c-3.996094 0-7.757812-1.558594-10.585937-4.386719-2.832031-2.832031-4.390625-6.589843-4.390625-10.585937s1.550781-7.75 4.375-10.570313zm21.195312 121.429688c-17.585937-17.582031-24.429687-43.027344-18.820312-66.632813 2.683594.492188 5.429687.746094 8.21875.746094h.011718c12.011719 0 23.300782-4.671875 31.785157-13.160156 10.859375-10.855469 14.988281-25.933594 12.394531-40 23.617188-5.609375 49.105469 1.246094 66.667969 18.808594 17.585937 17.582031 24.433593 43.023437 18.824219 66.632812-2.6875-.496094-5.433594-.746094-8.21875-.746094h-.015626c-12.007812 0-23.296874 4.671875-31.785156 13.160156-10.859375 10.859376-14.988281 25.933594-12.390625 40.003907-23.617187 5.621093-49.078125-1.222657-66.671875-18.8125zm121.453125 21.191406c-2.820312 2.820313-6.574219 4.375-10.566406 4.375h-.003906c-4 0-7.761719-1.558594-10.589844-4.386719-5.835937-5.835937-5.84375-15.328125-.015625-21.15625 2.824219-2.824218 6.574219-4.375 10.570312-4.375h.003907c3.996093 0 7.757812 1.558594 10.585937 4.386719 5.839844 5.839844 5.84375 15.328125.015625 21.15625zm0 0"/></svg>