<svg height="496pt" viewBox="-24 0 496 496" width="496pt" xmlns="http://www.w3.org/2000/svg"><path d="m440 282.222656v-20.542968c0-5.007813-1.183594-9.96875-3.398438-14.289063l-49.378906-98.976563.160156-.359374c3.023438-6.789063 4.617188-14.269532 4.617188-21.65625 0-5.167969-.703125-10.152344-2.0625-14.671876l-20.800781-72.964843c-6.550781-22.824219-27.671875-38.761719-51.375-38.761719h-187.523438c-23.695312 0-44.824219 15.9375-51.375 38.769531l-20.757812 72.847657c-1.402344 4.628906-2.105469 9.605468-2.105469 14.78125 0 7.386718 1.59375 14.867187 4.59375 21.601562l.183594.414062-49.335938 98.898438c-2.257812 4.398438-3.441406 9.359375-3.441406 14.367188v20.542968c-4.761719 2.777344-8 7.882813-8 13.777344v48c0 5.894531 3.238281 11 8 13.777344v18.222656c0 37 28.054688 67.535156 64 71.527344v24.472656c0 13.230469 10.769531 24 24 24h32c13.230469 0 24-10.769531 24-24v-24h144v24c0 13.230469 10.769531 24 24 24h32c13.230469 0 24-10.769531 24-24v-24.472656c35.945312-3.992188 64-34.527344 64-71.527344v-18.222656c4.761719-2.777344 8-7.882813 8-13.777344v-48c0-5.894531-3.238281-11-8-13.777344zm-8 29.777344h-16v16h16v16h-57.960938l4.554688-16h21.40625v-16h-16.855469l4.550781-16h44.304688zm-416 32v-16h16v-16h-16v-16h44.273438l4.558593 16h-16.832031v16h21.390625l4.5625 16zm79.375-130.832031c3.367188 1.761719 7.105469 2.832031 11.023438 2.832031h235.203124c3.917969 0 7.664063-1.0625 11.023438-2.824219l20.144531 45.273438c2.109375 4.75 3.230469 10 3.230469 15.152343 0 3.605469-.480469 7.03125-1.398438 10.101563l-11 38.585937c-4.472656-6.425781-11.722656-10.289062-19.601562-10.289062v-8c0-14.808594-8.175781-27.609375-20.167969-34.527344 2.703125-3.914062 4.167969-8.5625 4.167969-13.472656 0-13.230469-10.769531-24-24-24h-16c-6.488281 0-12.527344 2.527344-16.863281 6.992188-4.601563 4.488281-7.136719 10.519531-7.136719 17.007812 0 4.992188 1.535156 9.632812 4.160156 13.480469-11.984375 6.910156-20.160156 19.71875-20.160156 34.519531v8h-48v-8c0-14.808594-8.175781-27.609375-20.167969-34.527344 2.703125-3.914062 4.167969-8.5625 4.167969-13.472656 0-13.230469-10.769531-24-24-24h-16c-6.488281 0-12.527344 2.527344-16.863281 6.992188-4.601563 4.488281-7.136719 10.519531-7.136719 17.007812 0 4.992188 1.535156 9.632812 4.160156 13.480469-11.984375 6.910156-20.160156 19.71875-20.160156 34.519531v8.070312c-7.847656.1875-15.070312 4.089844-19.367188 10.601563l-.074218.105469-10.757813-37.792969-.375-1.207031c-.945312-3.144532-1.425781-6.570313-1.425781-10.175782 0-5.160156 1.121094-10.402343 3.230469-15.152343zm184.625 42.832031c0-2.136719.816406-4.105469 2.449219-5.703125 1.445312-1.472656 3.414062-2.296875 5.550781-2.296875h16c4.40625 0 8 3.585938 8 8 0 2.136719-.816406 4.105469-2.449219 5.703125-1.445312 1.472656-3.414062 2.296875-5.550781 2.296875h-16c-4.40625 0-8-3.585938-8-8zm8 24h16c13.230469 0 24 10.769531 24 24v8h-64v-8c0-13.230469 10.769531-24 24-24zm-152-24c0-2.136719.816406-4.105469 2.449219-5.703125 1.445312-1.472656 3.414062-2.296875 5.550781-2.296875h16c4.40625 0 8 3.585938 8 8 0 2.136719-.816406 4.105469-2.449219 5.703125-1.445312 1.472656-3.414062 2.296875-5.550781 2.296875h-16c-4.40625 0-8-3.585938-8-8zm8 24h16c13.230469 0 24 10.769531 24 24v8h-64v-8c0-13.230469 10.769531-24 24-24zm-46.039062 51.519531c1.453124-2.199219 3.917968-3.519531 6.597656-3.519531h239.441406c2.671875 0 5.152344 1.320312 6.625 3.550781l7.238281 10.839844-4.121093 14.441406c-4.574219 16-19.382813 27.167969-35.980469 27.167969h-187.523438c-16.597656 0-31.398437-11.167969-35.980469-27.152344l-3.953124-13.871094zm324.359374-76.910156c1.09375 2.144531 1.679688 4.582031 1.679688 7.070313v18.320312h-32.449219c.257813-2.097656.449219-4.214844.449219-6.398438 0-7.386718-1.59375-14.867187-4.617188-21.648437l-23.09375-51.914063 14.511719-32.671874zm-159.769531-238.609375-5.34375 32h-66.421875l-5.34375-32zm-189.09375 100.121094 20.789063-72.953125c4.585937-16 19.394531-27.167969 35.992187-27.167969h38.984375l2.664063 16h-39.648438c-10.765625 0-20.285156 7.246094-23.160156 17.648438l-19.199219 70.335937c-1.542968 5.710937-.949218 11.757813 1.6875 17.039063l16.882813 33.664062c4.09375 8.207031 12.328125 13.3125 21.472656 13.3125h150.078125v-16h-150.078125c-3.050781 0-5.792969-1.710938-7.167969-4.472656l-16.882812-33.671875c-.886719-1.777344-1.078125-3.742188-.550782-5.671875l19.191407-70.304688c.960937-3.453125 4.136719-5.878906 7.726562-5.878906h42.3125l2.664063 16h93.578125l2.664062-16h42.3125c3.589844 0 6.765625 2.425781 7.71875 5.863281l19.191407 70.304688c.527343 1.945312.335937 3.910156-.542969 5.679687l-16.890625 33.695313c-1.382813 2.746093-4.117188 4.457031-7.167969 4.457031h-22.078125v16h22.078125c9.152344 0 17.378906-5.105469 21.472656-13.296875l16.890625-33.6875c2.628906-5.273437 3.230469-11.320313 1.679688-17.046875l-19.210938-70.335938c-2.863281-10.386718-12.382812-17.632812-23.148437-17.632812h-39.648438l2.664063-16h38.984375c16.597656 0 31.398437 11.167969 35.980469 27.160156l20.832031 73.070313c.945312 3.136719 1.425781 6.5625 1.425781 10.167969 0 5.160156-1.121094 10.402343-3.257812 15.195312l-23.6875 53.351562-.582032 1.046876c-1.394531 2.472656-4.023437 4.007812-6.871094 4.007812h-235.203124c-2.839844 0-5.476563-1.535156-6.871094-4.007812l-24.296875-54.449219c-2.109375-4.742188-3.230469-9.992188-3.230469-15.144531 0-3.605469.480469-7.03125 1.457031-10.277344zm-47.738281 138.40625 43.480469-87.160156 14.511719 32.664062-23.09375 51.914062c-3.023438 6.789063-4.617188 14.269532-4.617188 21.65625 0 2.175782.191406 4.292969.449219 6.398438h-32.449219v-18.320312c0-2.488282.585938-4.925782 1.71875-7.152344zm110.28125 217.472656c0 4.414062-3.59375 8-8 8h-32c-4.40625 0-8-3.585938-8-8v-24h48zm216 8h-32c-4.40625 0-8-3.585938-8-8v-24h48v24c0 4.414062-3.59375 8-8 8zm16-48h-288c-30.878906 0-56-25.128906-56-56v-16h54.511719l.351562 1.238281c6.550781 22.824219 27.671875 38.761719 51.375 38.761719h187.523438c23.695312 0 44.824219-15.9375 51.375-38.777344l.351562-1.222656h54.511719v16c0 30.871094-25.121094 56-56 56zm0 0"/><path d="m186.339844 138.34375 64-64 11.316406 11.3125-64.003906 64zm0 0"/><path d="m242.34375 130.339844 32-32 11.3125 11.316406-32 32zm0 0"/><path d="m162.34375 114.339844 32-32 11.3125 11.316406-32 32zm0 0"/></svg>