<svg height="512pt" viewBox="0 0 512 512" width="512pt" xmlns="http://www.w3.org/2000/svg"><path d="m507.574219 244.050781c-5.875-5.839843-15.375-5.8125-21.214844.0625-6.332031 6.371094-14.746094 9.878907-23.6875 9.878907-8.945313 0-17.359375-3.507813-23.691406-9.878907-12.058594-12.128906-28.023438-18.8125-44.949219-18.8125-6.53125 0-12.914062 1-18.980469 2.921875v-53.707031c0-20.601563-16.761719-37.363281-37.359375-37.363281h-66.691406v-86.273438l23.992188 26.941406c2.964843 3.328126 7.078124 5.023438 11.207031 5.023438 3.550781 0 7.113281-1.253906 9.972656-3.796875 6.1875-5.511719 6.734375-14.992187 1.226563-21.179687l-44.976563-50.5c-4.125-4.632813-10.027344-7.3085942-16.222656-7.367188-.066407 0-.132813 0-.199219 0-.070312 0-.132812 0-.199219 0-6.195312.0585938-12.101562 2.734375-16.226562 7.367188l-44.972657 50.5c-5.507812 6.1875-4.960937 15.667968 1.226563 21.179687 6.1875 5.507813 15.667969 4.957031 21.179687-1.226563l23.992188-26.941406v86.273438h-66.691406c-20.601563 0-37.359375 16.761718-37.359375 37.363281v54.238281c-5.761719-1.699218-11.800781-2.574218-17.972657-2.574218-16.992187 0-32.960937 6.648437-44.964843 18.726562-.074219.074219-.148438.148438-.21875.222656-.085938.082032-.171875.160156-.253907.242188-13.378906 12.949218-35.3125 13.195312-47.902343.535156-5.839844-5.875-15.335938-5.902344-21.210938-.0625-5.875 5.839844-5.902343 15.335938-.0625 21.210938 12.132813 12.207031 28.269531 18.304687 44.542969 18.304687 16.335938 0 32.808594-6.144531 45.5-18.4375.144531-.136719.285156-.277344.421875-.421875.15625-.144531.308594-.292969.457031-.445312 6.335938-6.371094 14.746094-9.878907 23.691406-9.878907 6.460938 0 12.644532 1.832031 17.972657 5.253907v76.402343c0 20.601563 16.757812 37.359375 37.359375 37.359375h66.691406v85.929688l-23.996094-26.941406c-5.507812-6.1875-14.988281-6.734376-21.175781-1.226563-6.1875 5.511719-6.734375 14.992187-1.226563 21.179687l44.972657 50.5c4.125 4.632813 10.027343 7.308594 16.222656 7.367188h.203125.199219c6.195312-.058594 12.097656-2.734375 16.222656-7.367188l44.972656-50.5c5.511719-6.1875 4.960938-15.667968-1.226562-21.179687-6.1875-5.507813-15.667969-4.957031-21.175781 1.226563l-23.992188 26.941406v-85.925782h66.6875c20.601562 0 37.363281-16.761718 37.363281-37.363281v-76.445312c5.539063-3.953125 12.109375-6.085938 18.980469-6.085938 8.878906 0 17.285156 3.539063 23.675781 9.964844 12.003907 12.078125 27.972657 18.726563 44.964844 18.726563 16.988281 0 32.957031-6.648438 44.964844-18.726563 5.839843-5.875 5.8125-15.371094-.0625-21.214844zm-333.265625-76.898437h66.691406v14.226562c0 8.285156 6.714844 15 15 15 8.28125 0 15-6.714844 15-15v-14.226562h66.6875c4.058594 0 7.363281 3.300781 7.363281 7.363281v73.136719c-5.617187 4.007812-12.308593 6.167968-19.328125 6.167968-8.945312 0-17.359375-3.507812-23.691406-9.878906-11.703125-11.769531-27.46875-18.253906-44.402344-18.253906-17.289062 0-34.167968 7.003906-46.308594 19.21875-.007812.003906-.015624.011719-.019531.019531-12.0625 12.109375-31.238281 13.019531-44.355469 2.660157v-73.070313c0-4.0625 3.304688-7.363281 7.363282-7.363281zm163.382812 178.042968h-66.691406v-14.992187c0-8.285156-6.71875-15-15-15-8.285156 0-15 6.714844-15 15v14.992187h-66.691406c-4.058594 0-7.359375-3.304687-7.359375-7.363281v-56.558593c6.683593 2.292968 13.679687 3.4375 20.675781 3.4375 16.304688 0 32.613281-6.226563 44.972656-18.652344.003906-.007813.011719-.015625.019532-.019532 6.546874-6.578124 15.664062-10.351562 25.015624-10.351562 8.882813 0 17.097657 3.339844 23.125 9.40625 12.007813 12.078125 27.976563 18.726562 44.964844 18.726562 6.660156 0 13.160156-1.019531 19.328125-2.988281v57.003907c0 4.054687-3.300781 7.359374-7.359375 7.359374zm0 0"/></svg>