<svg height="496pt" viewBox="0 -52 496 496" width="496pt" xmlns="http://www.w3.org/2000/svg"><path d="m469.753906 212.519531-65.304687-11.839843-36.289063-46.902344c-1.695312-2.53125-3.726562-4.746094-5.878906-6.777344 3.71875-11.257812 5.71875-22.976562 5.71875-35 0-61.761719-50.238281-112-112-112s-112 50.238281-112 112c0 13.367188 2.457031 26.328125 7.03125 38.664062l-55.351562 54.414063c-2.3125 2.265625-5.3125 3.832031-8.398438 4.410156l-61.042969 11.039063c-15.199219 2.785156-26.238281 16.015625-26.238281 31.472656v60c0 17.648438 14.351562 32 32 32h40.640625c3.902344 27.089844 27.207031 48 55.359375 48s51.457031-20.910156 55.359375-48h137.28125c3.902344 27.089844 27.207031 48 55.359375 48s51.457031-20.910156 55.359375-48h32.640625c17.648438 0 32-14.351562 32-32v-68c0-15.457031-11.039062-28.6875-26.246094-31.480469zm-213.753906-196.519531c52.9375 0 96 43.0625 96 96 0 11.992188-2.183594 23.664062-6.503906 34.734375-4.070313 10.609375-10.054688 20.355469-17.808594 29.007813-18.136719 20.496093-44.261719 32.257812-71.6875 32.257812-29.167969 0-56.414062-13.03125-74.734375-35.742188-5.570313-6.90625-10.144531-14.53125-13.578125-22.65625l-.015625-.042968c-5.097656-11.847656-7.671875-24.480469-7.671875-37.558594 0-52.9375 43.0625-96 96-96zm-77.449219 296h61.449219v16h-56.632812c-.800782-5.574219-2.40625-10.96875-4.816407-16zm-11.535156-16c-8.382813-8.246094-19.160156-13.585938-30.769531-15.3125 1.074218-19.757812 6.496094-39.128906 15.832031-56.6875h87.921875v72zm8.601563-106.160156c6.847656 7.089844 14.480468 13.175781 22.765624 18.160156h-36.304687c.386719-.535156.730469-1.070312 1.121094-1.601562zm80.382812 34.160156h96v32.070312c-13.199219.570313-25.945312 4.785157-37.039062 12.257813-10.433594 7.039063-18.703126 16.527344-24.167969 27.671875h-34.792969zm57.519531-16c6.945313-4.167969 13.417969-9.121094 19.351563-14.753906l11.097656 14.753906zm-284.414062 28.273438 24.671875-4.464844-1.296875 5.144531c-1.992188 8.023437-7.878907 14.398437-15.71875 17.054687l-20.761719 6.902344v-8.910156c0-7.726562 5.511719-14.34375 13.105469-15.726562zm-13.105469 75.726562v-34.222656l25.847656-8.59375c13.074219-4.429688 22.839844-15.03125 26.152344-28.335938l3.070312-12.160156 19.121094-3.457031c6.199219-1.167969 12.128906-4.253907 16.703125-8.726563l51.160157-50.328125c2.113281 3.832031 4.433593 7.542969 6.992187 11.113281l-14.671875 19.550782c-3.75 5.0625-7.117188 10.167968-10.023438 15.167968-12.0625 20.992188-18.917968 44.566407-20.09375 68.59375-24.585937 3.429688-44.066406 22.847657-47.609374 47.398438h-40.648438c-8.824219 0-16-7.175781-16-16zm112 64c-22.054688 0-40-17.945312-40-40s17.945312-40 40-40c11.382812 0 22.199219 4.847656 29.753906 13.375 6.605469 7.289062 10.246094 16.753906 10.246094 26.625 0 22.054688-17.945312 40-40 40zm248 0c-22.054688 0-40-17.945312-40-40s17.945312-40 40-40 40 17.945312 40 40-17.945312 40-40 40zm16-104c0-2.136719.824219-4.113281 2.457031-5.703125 1.429688-1.472656 3.40625-2.296875 5.542969-2.296875h16c4.414062 0 8 3.585938 8 8 0 2.136719-.824219 4.113281-2.457031 5.703125-1.429688 1.472656-3.40625 2.296875-5.542969 2.296875h-16c-4.414062 0-8-3.585938-8-8zm72 56h-32.640625c-1.792969-12.449219-7.65625-23.59375-16.246094-32h.886719c6.496094 0 12.527344-2.527344 16.855469-6.984375 4.617187-4.488281 7.144531-10.519531 7.144531-17.015625 0-13.230469-10.769531-24-24-24h-16c-6.496094 0-12.527344 2.527344-16.855469 6.984375-4.617187 4.488281-7.144531 10.519531-7.144531 17.015625 0 2.847656.585938 5.542969 1.496094 8.070312-.503906-.007812-.992188-.070312-1.496094-.070312-28.152344 0-51.457031 20.910156-55.359375 48h-64.640625v-16h45.433594l2.007812-5.046875c4.09375-10.320313 11.175782-19.089844 20.480469-25.359375 9.292969-6.273438 20.085937-9.59375 31.199219-9.59375h12.878906v-58.671875l-24.144531-32.097656c4.449219-5.589844 8.328125-11.527344 11.578125-17.796875l40.117187 51.886718 71.335938 12.945313c7.601562 1.390625 13.113281 8.007813 13.113281 15.734375v4h-24v16h24v16h-24v16h24v16c0 8.824219-7.175781 16-16 16zm0 0"/><path d="m128 312c-13.230469 0-24 10.769531-24 24s10.769531 24 24 24 24-10.769531 24-24-10.769531-24-24-24zm0 32c-4.414062 0-8-3.585938-8-8s3.585938-8 8-8 8 3.585938 8 8-3.585938 8-8 8zm0 0"/><path d="m376 312c-13.230469 0-24 10.769531-24 24s10.769531 24 24 24 24-10.769531 24-24-10.769531-24-24-24zm0 32c-4.414062 0-8-3.585938-8-8s3.585938-8 8-8 8 3.585938 8 8-3.585938 8-8 8zm0 0"/><path d="m216 184h80c8.824219 0 16-7.175781 16-16v-64c0-8.824219-7.175781-16-16-16v-16c0-10.585938-4.144531-20.625-11.742188-28.335938-7.632812-7.519531-17.671874-11.664062-28.257812-11.664062-22.054688 0-40 17.945312-40 40v16c-8.824219 0-16 7.175781-16 16v64c0 8.824219 7.175781 16 16 16zm16-112c0-13.230469 10.769531-24 24-24 6.359375 0 12.40625 2.503906 16.945312 6.976562 4.550782 4.617188 7.054688 10.664063 7.054688 17.023438v16h-48zm-16 32h80v64h-32v-24h-16v24h-32zm0 0"/><path d="m248 112h16v16h-16zm0 0"/><path d="m192 240h32v16h-32zm0 0"/><path d="m304 240h32v16h-32zm0 0"/></svg>