<?xml version="1.0" encoding="iso-8859-1"?>
<!-- Generator: Adobe Illustrator 21.0.0, SVG Export Plug-In . SVG Version: 6.00 Build 0)  -->
<svg xmlns="http://www.w3.org/2000/svg" xmlns:xlink="http://www.w3.org/1999/xlink" version="1.1" id="Capa_1" x="0px" y="0px" viewBox="0 0 510.692 510.692" style="enable-background:new 0 0 510.692 510.692;" xml:space="preserve" width="512" height="512">
<g>
	<path d="M461.346,370.027c0.033-22.809-11.931-42.845-31.246-53.64c-6.49-12.314-38.619-73.408-38.619-73.408   c-10.962-20.843-31.379-33.287-54.616-33.287H178.564c-23.221,0-43.631,12.43-54.598,33.251   c-6.405,12.159-36.183,68.294-39.808,75.172c-18.561,11.01-29.75,30.433-29.784,52.746l-0.027,102.348   c0,20.668,16.815,37.483,37.483,37.483h45.034c20.668,0,37.483-16.815,37.483-37.483v-22.517h167v22.517   c0,20.668,16.815,37.483,37.483,37.483h45.034c20.668,0,37.483-16.815,37.483-37.483L461.346,370.027z M116.272,420.692   c-8.553,0-16.603-3.344-22.666-9.416c-5.984-5.993-9.273-13.904-9.26-22.274l0.027-18.096c0.02-13.457,7.526-24.463,20.078-29.44   c34.149-13.542,91.507-21.626,153.433-21.626c23.962,0,107.908,4.986,152.046,20.251c13.229,4.576,21.436,16.03,21.416,29.893   l-0.028,19.04c-0.025,17.462-14.347,31.669-31.926,31.669H116.272z M150.509,256.924c5.853-11.112,15.817-17.232,28.055-17.232   h158.301c12.069,0,22.298,6.288,28.064,17.251c0,0,22.731,43.228,24.516,46.62c-52.064-11.122-118.163-13.724-131.561-13.724   c-49.026,0-95.797,4.971-131.944,13.701C127.646,300.343,144.108,269.077,150.509,256.924z M144.347,473.209   c0,4.057-3.427,7.483-7.483,7.483H91.83c-4.056,0-7.483-3.427-7.483-7.483v-31.349c9.547,5.757,20.502,8.832,31.926,8.832h28.074   V473.209z M423.863,480.692H378.83c-4.056,0-7.483-3.427-7.483-7.483v-22.517h28.046c11.68,0,22.617-3.246,31.954-8.878v31.395   C431.347,477.266,427.92,480.692,423.863,480.692z"/>
	<path d="M481.089,105h-28.163c-8.271,0-15-6.729-15-15c0-8.271,6.729-15,15-15h28.163c5.061,0,9.781-2.552,12.552-6.787   s3.22-9.582,1.193-14.219C480.501,21.194,448.119,0,412.335,0c-32.396,0-62.005,17.372-77.956,45H176.313   c-15.951-27.628-45.56-45-77.956-45C62.573,0,30.191,21.194,15.858,53.994c-2.026,4.637-1.578,9.984,1.193,14.219   S24.542,75,29.604,75h28.163c8.271,0,15,6.729,15,15c0,8.271-6.729,15-15,15H29.604c-5.061,0-9.781,2.552-12.552,6.787   s-3.22,9.582-1.193,14.219C30.191,158.807,62.574,180,98.357,180c32.396,0,62.004-17.372,77.956-45H334.38   c15.951,27.628,45.56,45,77.956,45c35.783,0,68.166-21.194,82.499-53.994c2.026-4.638,1.578-9.984-1.193-14.219   S486.15,105,481.089,105z M412.335,150c-23.858,0-45.45-14.133-55.008-36.006c-2.387-5.463-7.783-8.994-13.745-8.994H167.11   c-5.962,0-11.358,3.531-13.745,8.994C143.807,135.867,122.215,150,98.357,150c-14.916,0-28.944-5.523-39.702-15.009   c24.405-0.475,44.112-20.475,44.112-44.991c0-24.517-19.708-44.517-44.112-44.992C69.412,35.523,83.441,30,98.357,30   c23.859,0,45.451,14.133,55.008,36.006C155.752,71.469,161.148,75,167.11,75h176.472c5.962,0,11.358-3.531,13.745-8.994   C366.885,44.133,388.477,30,412.335,30c14.916,0,28.945,5.523,39.703,15.009C427.633,45.484,407.926,65.484,407.926,90   c0,24.517,19.707,44.517,44.112,44.992C441.28,144.478,427.251,150,412.335,150z"/>
	<path d="M129.347,360.741c-8.262,0-15,6.738-15,15c0,8.262,6.738,15,15,15c8.262,0,15-6.738,15-15   C144.347,367.479,137.609,360.741,129.347,360.741z"/>
	<path d="M386.347,360.692c-8.262,0-15,6.738-15,15s6.738,15,15,15c8.262,0,15-6.738,15-15S394.609,360.692,386.347,360.692z"/>
	<path d="M326.346,360.691h-137c-8.284,0-15,6.716-15,15s6.716,15,15,15h137c8.284,0,15-6.716,15-15S334.63,360.691,326.346,360.691   z"/>
</g>















</svg>
