<svg height="496pt" viewBox="0 -24 496 496" width="496pt" xmlns="http://www.w3.org/2000/svg"><path d="m276.257812 107.664062c-7.632812-7.519531-17.671874-11.664062-28.257812-11.664062s-20.625 4.144531-28.257812 11.664062l11.234374 11.390626c9.230469-9.09375 24.816407-9.09375 34.046876 0zm0 0"/><path d="m298.910156 85.039062c-13.664062-13.566406-31.742187-21.039062-50.910156-21.039062s-37.246094 7.472656-50.910156 21.039062l11.261718 11.359376c10.65625-10.574219 24.738282-16.398438 39.648438-16.398438s28.992188 5.824219 39.648438 16.398438zm0 0"/><path d="m321.558594 62.40625c-19.703125-19.605469-45.824219-30.40625-73.558594-30.40625s-53.855469 10.800781-73.558594 30.40625l11.277344 11.347656c16.6875-16.609375 38.800781-25.753906 62.28125-25.753906s45.59375 9.144531 62.28125 25.753906zm0 0"/><path d="m248 16c32.097656 0 62.207031 12.496094 84.816406 35.167969l11.328125-11.296875c-25.625-25.703125-59.761719-39.871094-96.144531-39.871094s-70.519531 14.167969-96.144531 39.871094l11.328125 11.296875c22.609375-22.671875 52.71875-35.167969 84.816406-35.167969zm0 0"/><path d="m240 128h16v16h-16zm0 0"/><path d="m480 160h-464c-8.824219 0-16 7.175781-16 16v16c0 8.824219 7.175781 16 16 16h1.472656c-.898437 2.511719-1.472656 5.183594-1.472656 8v208c0 13.230469 10.769531 24 24 24h416c13.230469 0 24-10.769531 24-24v-208c0-2.816406-.574219-5.488281-1.472656-8h1.472656c8.824219 0 16-7.175781 16-16v-16c0-8.824219-7.175781-16-16-16zm0 32h-64v16h40c4.414062 0 8 3.585938 8 8v208c0 4.414062-3.585938 8-8 8h-416c-4.414062 0-8-3.585938-8-8v-208c0-4.414062 3.585938-8 8-8h360v-16h-384v-16h464zm0 0"/><path d="m120 280c-22.054688 0-40 17.945312-40 40s17.945312 40 40 40 40-17.945312 40-40-17.945312-40-40-40zm0 64c-13.230469 0-24-10.769531-24-24 0-10.414062 6.710938-19.214844 16-22.527344v22.527344h16v-22.527344c9.289062 3.3125 16 12.113282 16 22.527344 0 13.230469-10.769531 24-24 24zm0 0"/><path d="m176 240v96c0 8.824219 7.175781 16 16 16h240c8.824219 0 16-7.175781 16-16v-96c0-8.824219-7.175781-16-16-16h-240c-8.824219 0-16 7.175781-16 16zm256 96h-16v-80h-16v80h-16v-24h-16v24h-16v-48h-16v48h-16v-80h-16v80h-16v-32h-16v32h-16v-80h-16v80h-16v-48h-16v48h-16v-96h240zm0 0"/><path d="m48 264h16v16h-16zm0 0"/><path d="m48 296h16v16h-16zm0 0"/><path d="m48 328h16v16h-16zm0 0"/><path d="m48 360h16v16h-16zm0 0"/><path d="m224 368h-16c-8.824219 0-16 7.175781-16 16v16c0 8.824219 7.175781 16 16 16h16c8.824219 0 16-7.175781 16-16v-16c0-8.824219-7.175781-16-16-16zm-.023438 32h-15.976562v-16h16zm0 0"/><path d="m288 368h-16c-8.824219 0-16 7.175781-16 16v16c0 8.824219 7.175781 16 16 16h16c8.824219 0 16-7.175781 16-16v-16c0-8.824219-7.175781-16-16-16zm-.023438 32h-15.976562v-16h16zm0 0"/><path d="m352 368h-16c-8.824219 0-16 7.175781-16 16v16c0 8.824219 7.175781 16 16 16h16c8.824219 0 16-7.175781 16-16v-16c0-8.824219-7.175781-16-16-16zm-.023438 32h-15.976562v-16h16zm0 0"/><path d="m416 368h-16c-8.824219 0-16 7.175781-16 16v16c0 8.824219 7.175781 16 16 16h16c8.824219 0 16-7.175781 16-16v-16c0-8.824219-7.175781-16-16-16zm-.023438 32h-15.976562v-16h16zm0 0"/><path d="m144 224h16v16h-16zm0 0"/><path d="m48 224h80v16h-80zm0 0"/></svg>