<svg height="512pt" viewBox="0 -25 512 512" width="512pt" xmlns="http://www.w3.org/2000/svg"><path d="m474.1875 374.101562v-299.480468h22.8125c8.285156 0 15-6.714844 15-15 0-8.28125-6.714844-15-15-15h-22.8125v-29.621094c0-8.285156-6.714844-15-15-15-8.28125 0-15 6.714844-15 15v29.621094h-366.367188v-29.621094c0-8.285156-6.714843-15-15-15-8.285156 0-15 6.714844-15 15v29.621094h-32.820312c-8.285156 0-15 6.71875-15 15 0 8.285156 6.714844 15 15 15h32.820312v297.554687c-26.785156 2.5-47.820312 25.109375-47.820312 52.539063v.179687c0 20.460938 16.644531 37.105469 37.105469 37.105469h437.789062c20.460938 0 37.105469-16.644531 37.105469-37.105469v-.179687c0-23.90625-15.976562-44.148438-37.8125-50.613282zm-105.570312-108.148437c8.273437 0 15 6.726563 15 14.992187 0 8.265626-6.726563 14.992188-15 14.992188-8.273438 0-15.003907-6.726562-15.003907-14.992188 0-8.265624 6.730469-14.992187 15.003907-14.992187zm-112.617188-.011719c8.273438 0 15.003906 6.726563 15.003906 14.992188s-6.730468 14.992187-15.003906 14.992187-15.003906-6.726562-15.003906-14.992187 6.730468-14.992188 15.003906-14.992188zm-100.019531-191.320312-23.519531 143.027344c-21.050782 3.75-37.082032 22.1875-37.082032 44.292968 0 24.808594 20.1875 44.992188 45 44.992188s45.003906-20.183594 45.003906-44.992188c0-16.953125-9.429687-31.746094-23.320312-39.414062l24.320312-147.90625h54.617188v163.890625c-17.460938 6.191406-30.003906 22.871093-30.003906 42.421875 0 24.808594 20.191406 44.992187 45.003906 44.992187s45.003906-20.183593 45.003906-44.992187c0-19.550782-12.542968-36.230469-30.003906-42.421875v-163.890625h82.617188v163.902344c-17.460938 6.191406-30.003907 22.871093-30.003907 42.421874 0 24.808594 20.191407 44.992188 45.003907 44.992188s45-20.183594 45-44.992188c0-19.550781-12.539063-36.230468-30-42.421874v-163.902344h60.570312v297.320312h-366.367188v-297.320312zm-.597657 187.320312c0 8.265625-6.730468 14.992188-15.003906 14.992188-8.269531 0-15-6.726563-15-14.992188s6.726563-14.992187 15-14.992187c8.273438 0 15.003906 6.726562 15.003906 14.992187zm326.617188 162.953125c0 3.917969-3.1875 7.105469-7.105469 7.105469h-437.789062c-3.917969 0-7.105469-3.1875-7.105469-7.105469v-.179687c0-12.558594 10.214844-22.773438 22.769531-22.773438h406.460938c12.554687 0 22.769531 10.214844 22.769531 22.773438zm0 0"/></svg>