<?xml version="1.0" encoding="iso-8859-1"?>
<!-- Generator: Adobe Illustrator 21.0.0, SVG Export Plug-In . SVG Version: 6.00 Build 0)  -->
<svg xmlns="http://www.w3.org/2000/svg" xmlns:xlink="http://www.w3.org/1999/xlink" version="1.1" id="Capa_1" x="0px" y="0px" viewBox="0 0 513.014 513.014" style="enable-background:new 0 0 513.014 513.014;" xml:space="preserve" width="512" height="512">
<g>
	<path d="M175.446,127.799c-8.262,0-15,6.738-15,15c0,8.262,6.738,15,15,15c8.262,0,15-6.738,15-15   C190.446,134.537,183.707,127.799,175.446,127.799z"/>
	<path d="M337.445,127.799c-8.262,0-15,6.738-15,15c0,8.262,6.738,15,15,15s15-6.738,15-15   C352.445,134.537,345.707,127.799,337.445,127.799z"/>
	<path d="M277.443,127.799h-41.998c-8.284,0-15,6.716-15,15s6.716,15,15,15h41.998c8.284,0,15-6.716,15-15   S285.728,127.799,277.443,127.799z"/>
	<path d="M488.007,360.013h-15V15.016c0-8.284-6.716-15-15-15s-15,6.716-15,15v232.997h-30.894c0.505-2.453,0.771-4.992,0.771-7.593   l0.123-112.16c0.008-16.779-7.93-31.713-21.028-40.907c-5.894-11.243-31.025-59.304-31.025-59.304   c-8.902-16.929-25.496-27.035-44.389-27.035H197.433c-18.878,0-35.467,10.096-44.373,27.006   c-3.807,7.227-23.306,44.272-31.337,59.529c-13.593,9.169-21.686,24.219-21.695,41.357l-0.021,111.515   c0,2.6,0.266,5.14,0.771,7.593H70.007V15c0-8.284-6.716-15-15-15s-15,6.716-15,15v345.013h-15c-8.284,0-15,6.716-15,15v123.001   c0,8.284,6.716,15,15,15h60c8.284,0,15-6.716,15-15V375.013c0-8.284-6.716-15-15-15h-15v-82l112.846,0   c20.729,0,37.593-16.864,37.593-37.593v-22.62h72v22.62c0,20.729,16.864,37.593,37.593,37.593l112.969,0v82h-15   c-8.284,0-15,6.716-15,15v123.001c0,8.284,6.716,15,15,15h60c8.284,0,15-6.716,15-15V375.013   C503.007,366.729,496.291,360.013,488.007,360.013z M70.007,483.014h-30v-93.001h30V483.014z M330.038,248.013   c-4.116,0-7.593-3.477-7.593-7.593v-22.62h40.315c7.153,0,13.957-1.512,20.123-4.217v26.838c0,4.113-3.471,7.588-7.583,7.593   L330.038,248.013z M179.603,42c3.731-7.085,10.063-10.987,17.83-10.987h119.133c7.772,0,14.106,3.906,17.836,10.999   c0,0,9.683,18.454,16.529,31.521c-38.56-7.563-84.702-9.376-94.395-9.376c-34.132,0-66.868,3.209-93.275,8.91   C170.092,60.075,177.283,46.403,179.603,42z M130.007,240.419v-26.872c6.296,2.778,13.148,4.252,20.226,4.252h40.213v22.62   c0,4.116-3.477,7.593-7.593,7.593l-45.262,0C133.478,248.007,130.007,244.533,130.007,240.419z M150.232,187.799   c-5.383,0-10.459-2.11-14.293-5.941c-3.828-3.825-5.936-8.884-5.933-14.245l0.021-38.693c0.005-8.563,4.763-15.569,12.729-18.739   c25.213-10.035,67.747-16.025,113.779-16.025c17.825,0,80.22,3.705,112.897,15.048c8.377,2.908,13.579,10.204,13.574,19.039   l-0.021,39.405c-0.006,11.111-9.078,20.151-20.225,20.151H150.232z M473.007,483.014h-30v-93.001h30V483.014z"/>
</g>















</svg>
