<svg height="496pt" viewBox="-18 0 496 496" width="496pt" xmlns="http://www.w3.org/2000/svg"><path d="m206.71875 304h2.5625c10.285156 0 20.007812-4 27.453125-11.34375 7.265625-7.367188 11.265625-17.089844 11.265625-27.375 0-7.707031-2.230469-15.136719-6.472656-21.488281l-33.527344-50.191407-33.535156 50.207032c-4.234375 6.34375-6.464844 13.765625-6.464844 21.472656 0 21.351562 17.367188 38.71875 38.71875 38.71875zm-18.941406-51.320312 20.222656-30.28125 20.222656 30.273437c2.464844 3.710937 3.777344 8.070313 3.777344 12.609375 0 6.054688-2.359375 11.78125-6.574219 16.0625-4.363281 4.296875-10.089843 6.65625-16.144531 6.65625h-2.5625c-12.527344 0-22.71875-10.191406-22.71875-22.71875 0-4.539062 1.3125-8.898438 3.777344-12.601562zm0 0"/><path d="m288 160h-160c-8.824219 0-16 7.175781-16 16v144c0 8.824219 7.175781 16 16 16h160c8.824219 0 16-7.175781 16-16v-144c0-8.824219-7.175781-16-16-16zm-.023438 160h-159.976562v-144h160zm0 0"/><path d="m123.28125 112h132.71875c13.230469 0 24-10.769531 24-24v-16c0-13.230469-10.769531-24-24-24h-115.3125l-31.0625 31.0625c-3.578125 3.578125-5.625 8.554688-5.625 13.65625 0 10.632812 8.648438 19.28125 19.28125 19.28125zm-2.34375-21.625 26.375-26.375h108.6875c4.40625 0 8 3.59375 8 8v16c0 4.40625-3.59375 8-8 8h-132.71875c-1.808594 0-3.28125-1.472656-3.28125-3.28125 0-.894531.34375-1.742188.9375-2.34375zm0 0"/><path d="m424 139.3125 35.3125-35.3125-83.3125-83.3125-35.3125 35.3125 16 16-20.6875 20.6875-.984375-.984375c-4.457031-4.464844-7.015625-10.648437-7.015625-16.984375v-50.71875c0-13.230469-10.769531-24-24-24h-170.71875c-10.546875 0-20.855469 4.265625-28.296875 11.703125l-4.984375 4.984375-8.664062-8.664062c-10.34375-10.351563-28.328126-10.351563-38.671876 0l-44.640624 44.640624c-5.175782 5.167969-8.023438 12.039063-8.023438 19.335938s2.847656 14.167969 8.023438 19.335938l8.664062 8.664062-4.984375 4.984375c-6.070313 6.070313-9.925781 13.71875-11.078125 21.757813-.417969 2.167968-.625 4.371093-.625 6.539062v322.71875c0 22.054688 17.945312 40 40 40h274.71875c10.546875 0 20.855469-4.265625 28.296875-11.703125l61.28125-61.28125c.550781-.542969 1.199219-1.214844 1.597656-1.695313 6.511719-7.320312 10.105469-16.769531 10.105469-26.601562v-205.4375c0-2.234375-.199219-4.488281-.574219-6.527344-1.296875-8.160156-5.242187-15.890625-11.128906-21.769531l-16.984375-16.984375 20.6875-20.6875zm-48-96 60.6875 60.6875-12.6875 12.6875-60.6875-60.6875zm-242.71875-27.3125h170.71875c4.40625 0 8 3.59375 8 8v50.71875c0 10.546875 4.265625 20.855469 11.703125 28.296875l41.984375 41.984375-10.910156 6.792969c-11 6.933593-17.984375 18.816406-18.617188 31.09375-.136718.914062-.160156 1.953125-.160156 2.875v222.238281h-11.054688l-24-48h-185.890624l-24 48h-11.054688v-222.238281c0-.921875-.023438-1.960938-.089844-2.195313-.695312-12.957031-7.679687-24.832031-18.703125-31.789062l-43.503906-27.167969c1.160156-3.074219 2.914063-5.90625 5.320313-8.3125l93.28125-93.28125c4.457031-4.457031 10.640624-7.015625 16.976562-7.015625zm266.71875 176v32h-48v-32zm-48 144h48v32h-48zm0-16v-32h48v32zm0-48v-32h48v32zm-299.3125-106.671875c4.097656 2.582031 7.113281 6.367187 9.03125 10.671875h-45.71875v-33.625zm-36.6875 26.671875h47.9375l.007812 32h-47.945312zm0 48h47.953125l.007813 32h-47.960938zm0 48h47.960938l.007812 32h-47.96875zm0 48h47.976562l.007813 32h-47.984375zm0 48h47.992188l.007812 24h-48zm3.335938-303.976562c-2.152344-2.152344-3.335938-5-3.335938-8.023438s1.183594-5.871094 3.335938-8.023438l44.640624-44.640624c4.304688-4.304688 11.742188-4.304688 16.046876 0l8.664062 8.664062-60.6875 60.6875zm312.367187 392.960937c-4.464844 4.457031-10.648437 7.015625-16.984375 7.015625h-274.71875c-13.230469 0-24-10.769531-24-24v-32h184v-16h-91.054688l16-32h166.109376l16 32h-91.054688v16h164.6875zm64.207031-64.984375h-43.910156v-24h48v10.71875c0 4.738281-1.441406 9.296875-4.089844 13.28125zm.019532-232h-41.65625c1.917968-4.304688 4.925781-8.078125 8.992187-10.648438l14.03125-8.734374 15.679687 15.679687c1.128907 1.117187 2.078126 2.382813 2.953126 3.703125zm-19.929688-43.3125-28.6875-28.6875 20.6875-20.6875 28.6875 28.6875zm0 0"/><path d="m112 128h88v16h-88zm0 0"/><path d="m216 128h88v16h-88zm0 0"/></svg>