<svg height="512pt" viewBox="0 -21 512 512" width="512pt" xmlns="http://www.w3.org/2000/svg"><path d="m134.042969 117.121094v-47.160156c0-21.347657-17.390625-38.71875-38.765625-38.71875h-43.011719l5.660156-5.027344c6.191407-5.503906 6.753907-14.984375 1.25-21.175782-5.503906-6.195312-14.984375-6.753906-21.179687-1.25l-31.496094 27.992188c-4.082031 3.625-6.4414062 8.816406-6.5 14.265625v.167969.027344.199218c.0585938 5.453125 2.417969 10.640625 6.496094 14.265625l31.5 27.992188c2.859375 2.539062 6.417968 3.785156 9.960937 3.785156 4.136719 0 8.253907-1.699219 11.21875-5.035156 5.503907-6.191407 4.941407-15.671875-1.25-21.175781l-5.660156-5.03125h43.011719c4.832031 0 8.765625 3.910156 8.765625 8.71875v47.160156c-58.585938 7.386718-104.042969 57.433594-104.042969 117.878906 0 60.449219 45.457031 110.496094 104.042969 117.882812v47.160157c0 4.804687-3.933594 8.714843-8.765625 8.714843h-43.011719l5.660156-5.03125c6.191407-5.5 6.753907-14.984374 1.25-21.175781-5.503906-6.191406-14.984375-6.75-21.179687-1.246093l-31.496094 27.988281c-4.082031 3.628906-6.4414062 8.816406-6.5 14.265625v.199218.03125.167969c.0585938 5.449219 2.417969 10.640625 6.496094 14.265625l31.5 27.992188c2.859375 2.539062 6.417968 3.789062 9.960937 3.789062 4.136719 0 8.253907-1.703125 11.21875-5.039062 5.503907-6.191406 4.941407-15.671875-1.25-21.175782l-5.660156-5.03125h43.011719c21.375 0 38.765625-17.367187 38.765625-38.714843v-47.160157c58.585937-7.386718 104.046875-57.433593 104.046875-117.882812 0-60.445312-45.460938-110.492188-104.046875-117.878906zm-15 206.699218c-49.097657 0-89.042969-39.84375-89.042969-88.820312 0-48.972656 39.945312-88.816406 89.042969-88.816406 49.101562 0 89.046875 39.84375 89.046875 88.816406 0 48.976562-39.945313 88.820312-89.046875 88.820312zm0 0"/><path d="m159.230469 220h-25.1875v-25.125c0-8.285156-6.714844-15-15-15-8.285157 0-15 6.714844-15 15v25.125h-25.1875c-8.28125 0-15 6.71875-15 15 0 8.285156 6.71875 15 15 15h25.1875v25.128906c0 8.28125 6.71875 15 15 15 8.285156 0 15-6.71875 15-15v-25.128906h25.1875c8.285156 0 15-6.714844 15-15 0-8.28125-6.714844-15-15-15zm0 0"/><path d="m377.953125 194.875v25.125h-25.183594c-8.285156 0-15 6.71875-15 15 0 8.285156 6.714844 15 15 15h25.183594v25.128906c0 8.28125 6.71875 15 15 15 8.285156 0 15-6.71875 15-15v-25.128906h25.1875c8.285156 0 15-6.714844 15-15 0-8.28125-6.714844-15-15-15h-25.1875v-25.125c0-8.285156-6.714844-15-15-15-8.28125 0-15 6.714844-15 15zm0 0"/><path d="m452.824219 87.449219c2.964843 3.335937 7.082031 5.039062 11.21875 5.039062 3.542969 0 7.101562-1.25 9.957031-3.789062l31.5-27.992188c4.082031-3.625 6.441406-8.8125 6.5-14.261719 0-.066406 0-.132812 0-.203124 0-.007813 0-.019532 0-.027344 0-.058594 0-.113282 0-.167969-.058594-5.453125-2.417969-10.640625-6.496094-14.265625l-31.503906-27.992188c-6.191406-5.507812-15.675781-4.945312-21.175781 1.25-5.503907 6.191407-4.941407 15.671876 1.25 21.175782l5.660156 5.027344h-43.011719c-21.378906 0-38.769531 17.371093-38.769531 38.71875v47.160156c-58.585937 7.382812-104.042969 57.433594-104.042969 117.878906 0 60.449219 45.457032 110.496094 104.042969 117.882812v47.160157c0 21.347656 17.390625 38.714843 38.769531 38.714843h43.011719l-5.660156 5.03125c-6.191407 5.503907-6.753907 14.984376-1.25 21.175782 2.964843 3.335937 7.082031 5.035156 11.21875 5.035156 3.542969 0 7.101562-1.246094 9.957031-3.785156l31.5-27.992188c4.082031-3.625 6.441406-8.816406 6.5-14.265625 0-.054687 0-.113281 0-.167969 0-.011718 0-.019531 0-.03125 0-.066406 0-.132812 0-.199218-.058594-5.449219-2.417969-10.636719-6.496094-14.261719l-31.503906-27.992187c-6.191406-5.503907-15.675781-4.945313-21.175781 1.246093-5.503907 6.195313-4.941407 15.675781 1.25 21.179688l5.660156 5.027343h-43.011719c-4.835937 0-8.769531-3.910156-8.769531-8.714843v-47.160157c58.589844-7.386718 104.046875-57.433593 104.046875-117.882812 0-60.445312-45.457031-110.496094-104.046875-117.878906v-47.160156c0-4.808594 3.9375-8.71875 8.769531-8.71875h43.011719l-5.660156 5.03125c-6.191407 5.503906-6.753907 14.984374-1.25 21.175781zm29.175781 147.550781c0 48.976562-39.945312 88.820312-89.046875 88.820312-49.097656 0-89.042969-39.84375-89.042969-88.820312 0-48.972656 39.945313-88.816406 89.042969-88.816406 49.101563 0 89.046875 39.84375 89.046875 88.816406zm0 0"/></svg>