<svg height="496pt" viewBox="0 -24 496 496" width="496pt" xmlns="http://www.w3.org/2000/svg"><path d="m354.078125 0c-18.933594 0-36.804687 7.289062-50.316406 20.519531l-94.050781 92.089844-140.382813 27.519531c-11.832031 3.238282-22.089844 10.632813-28.808594 20.710938-1.464843 2.136718-2.6875 4.464844-3.785156 6.878906-7.269531 1.496094-12.734375 7.953125-12.734375 15.5625v16.71875c0 5.894531 3.238281 11 8 13.777344v40.335937l-16 32v25.886719c-8.824219 0-16 7.175781-16 16v32c0 8.824219 7.175781 16 16 16h120v-24c0-9.894531 1.257812-19.59375 3.726562-28.816406 6.433594-24.144532 21.027344-45.726563 41.074219-60.785156 21.015625-15.78125 46.136719-23.453126 72.65625-22.246094 47.246094 2.230468 88.167969 35.320312 101.824219 82.335937 3.132812 10.695313 4.71875 21.757813 4.71875 32.871094v20.640625h136v-376zm-281.09375 155.6875 112.359375-22.007812-30.910156 26.496093-97.839844 6.121094c4.453125-5.113281 10.207031-8.898437 16.390625-10.609375zm-32.984375 44.3125-.296875-16.65625 107.074219-6.65625c-4.496094 10.984375-13.945313 19.273438-25.640625 22.175781-3.066407.761719-6.144531 1.136719-9.136719 1.136719zm80 152v8h-104v-32h106.222656c-1.480468 7.816406-2.222656 15.847656-2.222656 24zm-88-40v-16h56v-16h-51.054688l8-16h110.214844c-4.71875 4.984375-9.007812 10.34375-12.863281 16h-38.296875v16h28.96875c-2.535156 5.183594-4.777344 10.511719-6.59375 16zm222.207031-87.832031c-29.328125-1.382813-57.128906 6.921875-80.679687 23.832031h-125.527344v-32h64c4.273438 0 8.625-.535156 12.976562-1.601562 19.253907-4.789063 34.207032-19.742188 39.023438-39.015626l.742188-2.976562 52.464843-44.964844.28125-.058594 97.472657-95.429687c10.496093-10.289063 24.390624-15.953125 39.117187-15.953125h125.921875v24h-122.320312c-10.886719 0-21.433594 4.519531-28.902344 12.390625l-86.882813 90.960937-.910156 1.152344c-2.207031 3.382813-3.375 7.25-3.375 11.175782 0 11.199218 9.117187 20.320312 20.320313 20.320312h222.070312v136h-111.351562c-17.222657-50.335938-62.417969-85.367188-114.441407-87.832031zm225.792969-168.167969v104h-222.078125c-2.386719 0-4.320313-1.9375-4.320313-4.320312 0-.648438.167969-1.296876.488282-1.925782l86.269531-90.328125c4.480469-4.722656 10.800781-7.425781 17.320313-7.425781zm-104 304v-4.640625c0-9.199219-.984375-18.367187-2.871094-27.359375h106.871094v32zm0 0"/><path d="m296.015625 268.839844c-28.945313-16.808594-67.113281-16.785156-96-.015625-14.617187 8.40625-26.785156 20.566406-35.167969 35.160156-8.40625 14.472656-12.847656 31.078125-12.847656 48.015625s4.441406 33.542969 12.824219 47.992188c8.40625 14.617187 20.566406 26.785156 35.160156 35.167968 14.472656 8.398438 31.078125 12.839844 48.015625 12.839844s33.542969-4.441406 47.992188-12.824219c14.617187-8.40625 26.785156-20.566406 35.167968-35.160156 8.398438-14.472656 12.839844-31.078125 12.839844-48.015625s-4.441406-33.542969-12.824219-47.992188c-8.40625-14.617187-20.566406-26.777343-35.160156-35.167968zm-1.34375 148.023437-7.742187-13.421875-13.859376 8 7.730469 13.398438c-7.839843 3.488281-16.226562 5.640625-24.800781 6.464844v-15.304688h-16v15.304688c-8.566406-.824219-16.953125-2.984376-24.800781-6.464844l7.730469-13.390625-13.859376-8-7.742187 13.414062c-7.015625-5.039062-13.144531-11.167969-18.191406-18.183593l13.421875-7.742188-8-13.859375-13.421875 7.746094c-3.527344-7.824219-5.753907-16.191407-6.617188-24.816407h15.480469v-16h-15.480469c.855469-8.617187 3.089844-16.976562 6.617188-24.816406l13.414062 7.746094 8-13.859375-13.421875-7.742187c5.039063-7.015626 11.167969-13.144532 18.183594-18.191407l7.742188 13.421875 13.855468-8-7.742187-13.421875c7.824219-3.527343 16.191406-5.753906 24.816406-6.617187v15.472656h16v-15.480469c8.617187.855469 16.976563 3.089844 24.816406 6.617188l-7.746093 13.414062 13.855468 8 7.746094-13.421875c7.015625 5.039063 13.144531 11.167969 18.191406 18.183594l-13.421875 7.742188 8 13.855468 13.421875-7.742187c3.527344 7.824219 5.753906 16.191406 6.617188 24.816406h-15.464844v16h15.480469c-.855469 8.617187-3.089844 16.976563-6.617188 24.816406l-13.414062-7.746093-8 13.855468 13.414062 7.746094c-5.039062 7.03125-11.167969 13.160156-18.191406 18.207031zm0 0"/><path d="m248 312c-22.054688 0-40 17.945312-40 40s17.945312 40 40 40 40-17.945312 40-40-17.945312-40-40-40zm0 64c-13.230469 0-24-10.769531-24-24s10.769531-24 24-24 24 10.769531 24 24-10.769531 24-24 24zm0 0"/><path d="m240 344h16v16h-16zm0 0"/><path d="m384 256h48c6.488281 0 12.519531-2.535156 16.863281-6.992188 4.601563-4.488281 7.136719-10.519531 7.136719-17.007812 0-13.230469-10.769531-24-24-24h-48c-6.488281 0-12.519531 2.535156-16.863281 6.992188-4.601563 4.488281-7.136719 10.519531-7.136719 17.007812 0 13.230469 10.769531 24 24 24zm-5.550781-29.695312c1.445312-1.488282 3.414062-2.304688 5.550781-2.304688h48c4.40625 0 8 3.59375 8 8 0 2.136719-.816406 4.105469-2.449219 5.695312-1.445312 1.488282-3.414062 2.304688-5.550781 2.304688h-48c-4.40625 0-8-3.59375-8-8 0-2.136719.816406-4.105469 2.449219-5.695312zm0 0"/></svg>