<?xml version="1.0" encoding="iso-8859-1"?>
<!-- Generator: Adobe Illustrator 21.0.0, SVG Export Plug-In . SVG Version: 6.00 Build 0)  -->
<svg xmlns="http://www.w3.org/2000/svg" xmlns:xlink="http://www.w3.org/1999/xlink" version="1.1" id="Capa_1" x="0px" y="0px" viewBox="0 0 512.008 512.008" style="enable-background:new 0 0 512.008 512.008;" xml:space="preserve" width="512" height="512">
<g>
	<path d="M496.987,362.041H355.338c-8.15-49.839-51.506-87.996-103.614-87.996s-95.465,38.157-103.614,87.996H30v-19.998   c0-12.877,1.959-25.305,5.591-37.002h49.647c34.738,0,63-28.262,63-63v-24.815c2.24-0.12,348.77-0.185,348.77-0.185   c8.284,0,15-6.716,15-15s-6.716-15-15-15H290.083L402.086,75.038H497c8.284,0,15-6.716,15-15s-6.716-15-15-15H395.873   c-3.978,0-7.793,1.581-10.606,4.394L255.708,178.99L109.079,32.361c-5.857-5.858-15.355-5.858-21.213,0   c-5.858,5.858-5.858,15.355,0,21.213l133.467,133.467h-66.33C69.534,187.041,0,256.574,0,342.043v34.998c0,8.284,6.716,15,15,15   h132.53c6.423,51.785,50.699,92,104.194,92s97.771-40.215,104.193-92h141.069c8.284,0,15-6.716,15-15   S505.271,362.041,496.987,362.041z M118.238,222.561v19.48c0,18.196-14.804,33-33,33h-35.72   C65.314,250.26,89.595,231.392,118.238,222.561z M251.724,454.041c-41.354,0-74.998-33.644-74.998-74.998   s33.644-74.998,74.998-74.998s74.998,33.644,74.998,74.998S293.078,454.041,251.724,454.041z"/>
	<path d="M251.724,332.812c-25.492,0-46.231,20.739-46.231,46.23s20.739,46.231,46.231,46.231s46.23-20.739,46.23-46.231   S277.216,332.812,251.724,332.812z M251.724,395.274c-8.95,0-16.231-7.281-16.231-16.231s7.281-16.23,16.231-16.23   s16.23,7.281,16.23,16.23S260.674,395.274,251.724,395.274z"/>
</g>















</svg>
