<svg height="512pt" viewBox="0 0 512 512.00025" width="512pt" xmlns="http://www.w3.org/2000/svg"><path d="m489.789062 58.929688-90.796874-52.871094c-13.875-8.078125-31.109376-8.078125-44.984376 0l-98.007812 57.070312-98.007812-57.070312c-13.875-8.078125-31.109376-8.078125-44.984376 0l-90.796874 52.871094c-13.699219 7.980468-22.210938 22.785156-22.210938 38.636718v106.175782c0 15.855468 8.511719 30.660156 22.210938 38.640624l98.289062 57.234376v114.816406c0 15.855468 8.511719 30.660156 22.210938 38.636718l90.796874 52.871094c6.9375 4.039063 14.714844 6.058594 22.492188 6.058594s15.558594-2.019531 22.492188-6.058594l90.796874-52.871094c13.699219-7.976562 22.210938-22.78125 22.210938-38.636718v-114.820313l98.289062-57.230469c13.699219-7.980468 22.210938-22.785156 22.210938-38.640624v-106.175782c0-15.851562-8.511719-30.65625-22.210938-38.636718zm-459.789062 144.8125v-106.175782c0-5.214844 2.800781-10.082031 7.304688-12.707031l90.796874-52.871094c2.28125-1.328125 4.839844-1.992187 7.398438-1.992187s5.117188.664062 7.398438 1.992187l98.101562 57.125v123.082031l-105.5 61.433594-98.195312-57.175781c-4.503907-2.625-7.304688-7.496094-7.304688-12.710937zm331.5 210.691406c0 5.214844-2.800781 10.082031-7.304688 12.707031l-90.796874 52.871094c-4.5625 2.660156-10.234376 2.65625-14.796876 0l-90.796874-52.871094c-4.503907-2.625-7.304688-7.492187-7.304688-12.707031v-114.628906l105.5-61.433594 105.5 61.433594zm120.5-210.691406c0 5.214843-2.800781 10.085937-7.304688 12.710937l-98.195312 57.175781-105.5-61.433594v-123.082031l98.101562-57.125c4.5625-2.65625 10.234376-2.65625 14.796876 0l90.796874 52.871094c4.503907 2.625 7.304688 7.492187 7.304688 12.707031zm0 0"/><path d="m183.058594 150.65625c0-26.359375-21.335938-47.800781-47.558594-47.800781s-47.558594 21.441406-47.558594 47.800781 21.335938 47.800781 47.558594 47.800781 47.558594-21.445312 47.558594-47.800781zm-65.117188 0c0-9.8125 7.875-17.796875 17.558594-17.796875s17.558594 7.984375 17.558594 17.796875-7.875 17.796875-17.558594 17.796875-17.558594-7.984375-17.558594-17.796875zm0 0"/><path d="m376.5 102.855469c-26.222656 0-47.558594 21.441406-47.558594 47.800781s21.335938 47.800781 47.558594 47.800781 47.558594-21.445312 47.558594-47.800781-21.335938-47.800781-47.558594-47.800781zm0 65.597656c-9.683594 0-17.558594-7.984375-17.558594-17.796875s7.875-17.796875 17.558594-17.796875 17.558594 7.984375 17.558594 17.796875-7.875 17.796875-17.558594 17.796875zm0 0"/><path d="m208.441406 361.34375c0 26.359375 21.335938 47.800781 47.558594 47.800781s47.558594-21.441406 47.558594-47.800781-21.332032-47.800781-47.558594-47.800781-47.558594 21.445312-47.558594 47.800781zm65.117188 0c0 9.8125-7.875 17.796875-17.558594 17.796875s-17.558594-7.980469-17.558594-17.796875c0-9.8125 7.875-17.796875 17.558594-17.796875s17.558594 7.984375 17.558594 17.796875zm0 0"/></svg>