<svg height="496pt" viewBox="-15 0 495 496" width="496pt" xmlns="http://www.w3.org/2000/svg"><path d="m296.5 192c-19.167969 0-37.246094 7.472656-50.960938 21.089844-13.566406 13.664062-21.039062 31.742187-21.039062 50.910156s7.472656 37.246094 21.089844 50.960938c13.664062 13.566406 31.742187 21.039062 50.910156 21.039062s37.246094-7.472656 50.960938-21.089844c13.566406-13.664062 21.039062-31.742187 21.039062-50.910156s-7.472656-37.246094-21.089844-50.960938c-13.664062-13.566406-31.742187-21.039062-50.910156-21.039062zm22.550781 64c-.277343-.785156-.582031-1.550781-.941406-2.296875l23.207031-23.207031c5.625 7.527344 9.222656 16.238281 10.550782 25.503906zm-45.101562 16c.277343.785156.582031 1.550781.941406 2.296875l-23.207031 23.207031c-5.625-7.527344-9.222656-16.238281-10.550782-25.503906zm16.847656-2.457031c-1.472656-1.429688-2.296875-3.40625-2.296875-5.542969s.824219-4.113281 2.457031-5.703125c1.429688-1.472656 3.40625-2.296875 5.542969-2.296875s4.113281.824219 5.703125 2.457031c1.472656 1.429688 2.296875 3.40625 2.296875 5.542969s-.824219 4.113281-2.457031 5.703125c-2.871094 2.953125-8.054688 3.113281-11.246094-.160156zm15.886719-27.039063c-.71875-.320312-1.441406-.609375-2.183594-.855468v-33.015626c9.273438 1.328126 17.992188 4.925782 25.503906 10.542969zm-18.183594-.878906c-.753906.246094-1.480469.535156-2.207031.855469l-23.296875-23.296875c7.527344-5.625 16.238281-9.222656 25.503906-10.550782zm-2.289062 43.976562c.746093.359376 1.503906.664063 2.289062.941407v32.824219c-9.273438-1.328126-17.992188-4.925782-25.503906-10.542969zm18.289062.949219c.785156-.277343 1.550781-.582031 2.296875-.941406l23.207031 23.207031c-7.527344 5.625-16.238281 9.222656-25.503906 10.550782zm-52.824219-56.054687 23.222657 23.222656c-.359376.746094-.664063 1.503906-.941407 2.289062h-32.824219c1.328126-9.28125 4.925782-18 10.542969-25.511718zm89.648438 67.007812-23.222657-23.214844c.359376-.746093.664063-1.503906.941407-2.289062h32.824219c-1.328126 9.273438-4.925782 17.992188-10.542969 25.503906zm0 0"/><path d="m160.5 232h-64v48h64zm-16 32h-32v-16h32zm0 0"/><path d="m424.5 216c22.054688 0 40-17.945312 40-40v-24c0-8.824219-7.175781-16-16-16h-56.441406l-5.109375-59.375c-1.539063-18.722656-16.242188-33.59375-34.457031-36.105469v-16.519531c0-6.496094-2.527344-12.527344-6.984376-16.855469-4.480468-4.617187-10.511718-7.144531-17.007812-7.144531-13.230469 0-24 10.769531-24 24v16h-144v-16c0-6.496094-2.527344-12.527344-6.984375-16.855469-4.488281-4.617187-10.519531-7.144531-17.015625-7.144531-13.230469 0-24 10.769531-24 24v16.519531c-18.214844 2.511719-32.910156 17.382813-34.449219 36.074219l-5.085937 59.40625h-56.464844c-8.824219 0-16 7.175781-16 16v24c0 22.054688 17.945312 40 40 40h25.601562l-4.1875 48.777344c-34.949218 5.132812-61.414062 35.167968-61.414062 71.222656v16h16v112c0 17.648438 14.351562 32 32 32h48c17.648438 0 32-14.351562 32-32v-56h208v56c0 17.648438 14.351562 32 32 32h48c17.648438 0 32-14.351562 32-32v-112h16v-24c0-32.585938-24.496094-59.503906-56.023438-63.449219 0-.183593.023438-.367187.023438-.550781 0-15.367188-3.152344-30.289062-9.238281-44.414062l-.3125-3.585938zm24-64v24c0 13.230469-10.769531 24-24 24h-26.929688l-4.125-48zm-51.503906 137.945312-7.527344-1.929687c-10.871094 42.382813-49.105469 71.984375-92.96875 71.984375-18.359375 0-36.167969-5.199219-51.566406-15.078125-16.480469-10.433594-29.632813-26.050781-37.042969-43.992187-4.902344-11.800782-7.390625-24.226563-7.390625-36.929688 0-18.359375 5.199219-36.167969 15.070312-51.550781 17.691407-27.832031 47.9375-44.449219 80.929688-44.449219 21.488281 0 41.816406 6.96875 58.792969 20.175781 12.390625 9.558594 22.351562 22.167969 28.792969 36.449219 5.582031 12.488281 8.414062 25.734375 8.414062 39.375 0 2.472656-.070312 4.863281-.296875 7.382812-.457031 5.824219-1.367187 11.378907-2.71875 16.496094l7.734375 2.050782zm-245.96875 54.054688c-3.3125-9.289062-12.113282-16-22.527344-16s-19.214844 6.710938-22.527344 16h-32.855468c-.058594-.359375-.160157-.703125-.203126-1.070312-.277343-2.242188-.414062-4.617188-.414062-6.929688l-.015625-3.992188 26.679687-20.007812h96.207032c5.664062 12.03125 13.359375 22.816406 22.785156 32zm-14.527344 8c0 4.414062-3.585938 8-8 8s-8-3.585938-8-8 3.585938-8 8-8 8 3.585938 8 8zm68.199219-152h-91.136719l13.976562-112 210.097657.015625 11.910156 77.34375c-16.199219-8.785156-34.238281-13.359375-53.046875-13.359375-36.9375 0-70.894531 17.886719-91.800781 48zm115.800781-176c0-4.414062 3.585938-8 8-8 2.136719 0 4.113281.824219 5.703125 2.457031 1.472656 1.429688 2.296875 3.40625 2.296875 5.542969v16h-16zm-184-8c2.136719 0 4.113281.824219 5.703125 2.457031 1.472656 1.429688 2.296875 3.40625 2.296875 5.542969v16h-16v-16c0-4.414062 3.585938-8 8-8zm-42.496094 61.9375c1-12.304688 11.480469-21.9375 23.855469-21.9375h229.28125c12.375 0 22.847656 9.632812 23.863281 21.96875l9.6875 112.527344c-4.015625-4.59375-8.351562-8.863282-13.0625-12.734375l-14.167968-92.105469c-1.136719-7.914062-7.800782-13.65625-15.839844-13.65625h-210.082032c-8.070312 0-14.886718 6.054688-15.855468 14.046875l-16.246094 129.953125h99.933594c-7.109375 14.910156-10.871094 31.257812-10.871094 48 0 10.902344 1.601562 21.625 4.695312 32h-95.359374l-19.839844 14.878906zm-53.503906 122.0625c-13.230469 0-24-10.769531-24-24v-24h55.089844l-4.113282 48zm20 81.359375-4 46.640625v8h-40c0-26.679688 18.640625-49.070312 44-54.640625zm-2.183594 70.640625c.152344.679688.261719 1.273438.441406 2.007812 3.832032 14.808594 12.398438 27.953126 24.015626 37.519532l-10.273438 6.855468-40-26.664062v-19.71875zm54.183594 67.71875-40 26.664062-40-26.664062v-28.765625l40 26.671875 25.03125-16.6875c4.792969 2.300781 9.785156 4.109375 14.96875 5.292969zm-16 60.28125h-48c-8.824219 0-16-7.175781-16-16v-25.046875l40 26.671875 40-26.671875v25.046875c0 8.824219-7.175781 16-16 16zm32-88c-2.3125 0-4.6875-.136719-6.9375-.414062-7.320312-.90625-14.246094-3.210938-20.671875-6.882813-10.039063-5.640625-18.0625-14.390625-22.976563-24.703125h28.066407c3.3125 9.289062 12.113281 16 22.527343 16 10.417969 0 19.214844-6.710938 22.527344-16h87.984375c17.320313 10.441406 37.105469 16 57.488281 16 39.824219 0 75.59375-20.976562 95.511719-53.574219l.480469 5.574219v8c0 2.3125-.136719 4.6875-.414062 6.929688-2.1875 17.453124-12.65625 33.078124-28.042969 41.804687-6.359375 3.640625-13.285157 5.945313-20.613281 6.851563-2.242188.277343-4.617188.414062-6.929688.414062zm304 27.71875-40 26.664062-40-26.664062v-13.503906c5.191406-1.175782 10.183594-2.992188 14.96875-5.285156l25.03125 16.6875 40-26.671876zm-16 60.28125h-48c-8.824219 0-16-7.175781-16-16v-25.046875l40 26.671875 40-26.671875v25.046875c0 8.824219-7.175781 16-16 16zm16-108.28125-40 26.664062-10.351562-6.902343c12.230468-10.105469 20.9375-23.984375 24.496093-39.480469h25.855469zm16-43.71875v8h-40l-.03125-8.6875-3.207031-36.800781c.796875-3.222657 1.4375-6.566407 1.941406-9.992188 23.296875 3.28125 41.296875 23.296875 41.296875 47.480469zm0 0"/><path d="m130.839844 138.34375 39.996094-39.996094 11.316406 11.3125-40 40zm0 0"/><path d="m146.839844 178.34375 64-64 11.316406 11.3125-64.003906 64zm0 0"/></svg>