<?xml version="1.0" encoding="iso-8859-1"?>
<!-- Generator: Adobe Illustrator 21.0.0, SVG Export Plug-In . SVG Version: 6.00 Build 0)  -->
<svg xmlns="http://www.w3.org/2000/svg" xmlns:xlink="http://www.w3.org/1999/xlink" version="1.1" id="Capa_1" x="0px" y="0px" viewBox="0 0 512 512" style="enable-background:new 0 0 512 512;" xml:space="preserve" width="512" height="512">
<path d="M430.997,89h-27.562L319.485,4.433C316.669,1.596,312.837,0,308.84,0H122.604c-3.949,0-7.738,1.557-10.545,4.333  c0,0-97.643,96.588-97.999,97.029C5.41,109.561,0,121.14,0,133.964v54.072c0,24.782,20.171,44.945,44.971,44.963  c2.035,11.081,7.217,21.069,14.592,29.001H33.958c-8.284,0-15,6.716-15,15s6.716,15,15,15h77.238  c0.324,0.223,114.762,66.327,114.762,66.327L115.673,422H33.917c-8.284,0-15,6.716-15,15v60c0,8.284,6.716,15,15,15H478  c8.284,0,15-6.716,15-15v-60c0-8.284-6.716-15-15-15h-81.756l-110.285-63.673c0,0,114.438-66.104,114.762-66.327h77.238  c8.284,0,15-6.716,15-15s-6.716-15-15-15h-33.861c7.376-7.932,12.557-17.92,14.592-29H497c8.284,0,15-6.716,15-15v-47.997  C512,125.338,475.662,89,430.997,89z M361.163,89H217.499V30h85.096L361.163,89z M128.767,30h58.732v59H69.087L128.767,30z   M102.081,194.409c15.484,0,28.081,12.597,28.081,28.08c0,15.484-12.597,28.081-28.081,28.081S74,237.973,74,222.489  C74,207.005,86.597,194.409,102.081,194.409z M463,482H48.917v-30H463V482z M336.244,422H175.673l80.286-46.353L336.244,422z   M255.958,341.007L171.076,292h169.764L255.958,341.007z M144.598,262c7.376-7.932,12.557-17.92,14.592-29h185.281  c2.035,11.08,7.216,21.068,14.592,29H144.598z M373.5,222.489c0-15.483,12.597-28.08,28.08-28.08  c15.484,0,28.081,12.597,28.081,28.08c0,15.484-12.597,28.081-28.081,28.081C386.097,250.57,373.5,237.973,373.5,222.489z M482,203  h-25.713c-8.028-22.467-29.516-38.591-54.707-38.591c-25.191,0-46.678,16.125-54.706,38.591H156.787  c-8.028-22.467-29.516-38.591-54.707-38.591S55.402,180.533,47.374,203h-2.371C36.73,203,30,196.287,30,188.036v-54.072  C30,125.713,36.73,119,45.003,119h385.994C459.12,119,482,141.88,482,170.003V203z"/>















</svg>
