<svg height="496pt" viewBox="0 0 496 496" width="496pt" xmlns="http://www.w3.org/2000/svg"><path d="m144 416c-13.230469 0-24 10.769531-24 24s10.769531 24 24 24 24-10.769531 24-24-10.769531-24-24-24zm0 32c-4.40625 0-8-3.59375-8-8s3.59375-8 8-8 8 3.59375 8 8-3.59375 8-8 8zm0 0"/><path d="m352 416c-13.230469 0-24 10.769531-24 24s10.769531 24 24 24 24-10.769531 24-24-10.769531-24-24-24zm0 32c-4.40625 0-8-3.59375-8-8s3.59375-8 8-8 8 3.59375 8 8-3.59375 8-8 8zm0 0"/><path d="m452.871094 223.894531c-10.472656-14.957031-27.605469-23.894531-45.832032-23.894531h-203.117187c-14.984375 0-29.066406 5.832031-39.65625 16.425781l-64.113281 64.101563-66.753906 11.105468c-17.839844 2.976563-31.503907 17.625-33.214844 35.742188-.0937502 1.242188-.183594 2.488281-.183594 3.746094v76.878906c0 22.054688 17.945312 40 40 40h48.640625c3.902344 27.097656 27.207031 48 55.359375 48s51.457031-20.902344 55.359375-48h97.28125c3.902344 27.097656 27.207031 48 55.359375 48s51.457031-20.902344 55.359375-48h32.640625c23.785156 0 44.984375-15.015625 52.710938-37.257812 2.183593-5.964844 3.289062-12.277344 3.289062-18.742188v-88.878906c0-11.488282-3.480469-22.585938-10.089844-32.113282zm-13.101563 9.175781 33.015625 47.089844c4.71875 6.808594 7.214844 14.742188 7.214844 22.960938v.878906h-32.175781c-1.296875-29.761719-9.847657-58.839844-24.878907-84.609375 6.65625 2.90625 12.535157 7.554687 16.824219 13.679687zm-235.847656-17.070312h198.527344l6.261719 10.703125c15.234374 25.824219 23.289062 55.320313 23.289062 85.296875v8h48v16h-32c-8.824219 0-16 7.175781-16 16v16c0 8.824219 7.175781 16 16 16h32v8c0 2.71875-.359375 5.375-.910156 8h-88.082032c-10.351562-10.175781-24.328124-16-39.007812-16-14.703125 0-28.703125 5.839844-39.015625 16h-55.167969c13.335938-10.960938 24.808594-24.222656 33.71875-39.3125 7.511719-12.792969 12.890625-26.464844 16.296875-40.6875h35.121094c16.488281 0 32.640625-6.679688 44.292969-18.34375 11.65625-11.65625 18.347656-27.800781 18.347656-44.296875 0-6.847656-2.671875-13.230469-7.394531-17.824219-4.734375-4.863281-11.109375-7.535156-17.960938-7.535156h-208.925781l4.261719-4.265625c7.570312-7.566406 17.632812-11.734375 28.347656-11.734375zm276.078125 136v16h-32v-16zm-375.078125 48h-88.921875v-32.472656c19.542969-2.214844 37.671875-12.4375 49.601562-28.328125l4.191407-5.582031 27.136719-21.714844c.039062.335937.046874.691406.09375 1.027344 1.542968 13.230468 4.886718 26 9.914062 37.894531 5.308594 12.847656 12.398438 24.6875 21.246094 35.535156-8.71875 2.570313-16.710938 7.214844-23.261719 13.640625zm-88.921875-64h31.046875c-8.460937 8.230469-19.367187 13.640625-31.046875 15.351562zm296-88h68.238281c2.496094 0 4.816407.960938 6.664063 2.847656 1.746094 1.695313 2.707031 4.007813 2.707031 6.503906 0 12.28125-4.976563 24.304688-13.65625 32.984376-8.6875 8.6875-20.714844 13.664062-32.992187 13.664062h-32.257813c.769531-6.183594 1.296875-12.351562 1.296875-18.398438zm-16 37.601562c0 6.039063-.574219 12.207032-1.433594 18.398438h-128.039062c.898437-2.511719 1.472656-5.183594 1.472656-8 0-6.488281-2.535156-12.519531-6.992188-16.863281-4.488281-4.601563-10.519531-7.136719-17.007812-7.136719h-12.6875l24-24h140.6875zm-183.734375 18.398438c-.167969-2.65625-.265625-5.328125-.265625-8 0-2.136719.816406-4.105469 2.449219-5.695312 1.445312-1.488282 3.414062-2.304688 5.550781-2.304688h24c2.136719 0 4.105469.816406 5.695312 2.449219 1.488282 1.445312 2.304688 3.414062 2.304688 5.550781 0 4.40625-3.59375 8-8 8zm35.40625 80.191406c-11.070313-11.480468-19.847656-24.726562-25.976563-39.542968-3.320312-7.847657-5.800781-16.105469-7.414062-24.648438h177.125c-3.070312 11.335938-7.613281 22.273438-13.652344 32.566406-11.699218 19.792969-28.273437 36.128906-47.953125 47.433594h-46.792969c-9.480468-9.320312-22.007812-14.929688-35.335937-15.808594zm46.878906 31.808594h29.449219v16h-24.632812c-.808594-5.574219-2.40625-10.96875-4.816407-16zm45.449219 0h61.457031c-2.410156 5.039062-4.015625 10.433594-4.824219 16h-56.632812zm-203.96875-108.59375 51.632812-8.582031-26.464843 21.175781h-42.40625c3.398437-6.511719 9.664062-11.328125 17.238281-12.59375zm-18.558594 108.59375h75.925782c-2.390626 5.039062-3.972657 10.433594-4.773438 16h-48.625c-10.414062 0-19.214844-6.710938-22.527344-16zm126.527344 64c-22.054688 0-40-17.945312-40-40 0-9.679688 3.472656-18.976562 9.808594-26.199219 7.589844-8.777343 18.597656-13.800781 30.191406-13.800781 11.375 0 22.199219 4.847656 29.753906 13.367188 6.605469 7.296874 10.246094 16.761718 10.246094 26.632812 0 22.054688-17.945312 40-40 40zm208 0c-22.054688 0-40-17.945312-40-40 0-9.871094 3.640625-19.335938 10.3125-26.695312 7.488281-8.457032 18.3125-13.304688 29.6875-13.304688s22.199219 4.847656 29.753906 13.367188c6.605469 7.296874 10.246094 16.761718 10.246094 26.632812 0 22.054688-17.945312 40-40 40zm88-48h-32.632812c-.808594-5.574219-2.414063-10.96875-4.816407-16h69.425781c-7.375 9.871094-19.144531 16-31.976562 16zm0 0"/><path d="m216 336h40v16h-40zm0 0"/><path d="m112 224c45.34375 0 85.929688-27.054688 103.367188-68.886719 5.730468-13.570312 8.632812-28.074219 8.632812-43.113281 0-29.886719-11.65625-58.007812-32.824219-79.175781s-49.289062-32.824219-79.175781-32.824219-58.007812 11.65625-79.175781 32.824219-32.824219 49.289062-32.824219 79.175781c0 14.832031 2.894531 29.320312 8.617188 43.078125 17.453124 41.867187 58.039062 68.921875 103.382812 68.921875zm0-16c-34.695312 0-66.097656-18.511719-83.089844-48h60.5625c3.3125 9.289062 12.113282 16 22.527344 16s19.214844-6.710938 22.527344-16h60.5625c-17 29.488281-48.394532 48-83.089844 48zm0-64c4.40625 0 8 3.59375 8 8s-3.59375 8-8 8-8-3.59375-8-8 3.59375-8 8-8zm95.609375-40h-15.609375v16h15.609375c-.671875 8.265625-2.449219 16.28125-5.210937 24h-67.878907c-2.414062-6.777344-7.75-12.113281-14.527343-14.527344v-57.472656h-16v57.472656c-6.777344 2.414063-12.113282 7.75-14.527344 14.527344h-67.847656c-2.761719-7.792969-4.539063-15.808594-5.226563-24h15.609375v-16h-15.609375c1.640625-19.953125 9.394531-38.648438 22.371094-53.9375l11.03125 11.035156 11.3125-11.3125-11.042969-11.03125c15.289062-12.96875 33.984375-20.722656 53.9375-22.363281v15.609375h16v-15.609375c19.953125 1.640625 38.648438 9.394531 53.9375 22.371094l-11.035156 11.03125 11.3125 11.3125 11.03125-11.035157c12.96875 15.28125 20.722656 33.976563 22.363281 53.929688zm0 0"/><path d="m304 126.550781-64 10.664063v46.785156h64zm-16 41.449219h-32v-17.222656l32-5.335938zm0 0"/><path d="m400 92.457031-80 30v61.542969h80zm-16 75.542969h-48v-34.457031l48-18zm0 0"/><path d="m416 91.054688v92.945312h80v-132.945312zm64 76.945312h-48v-67.054688l48-24zm0 0"/></svg>