<svg height="512pt" viewBox="0 0 512.001 512" width="512pt" xmlns="http://www.w3.org/2000/svg"><path d="m481.832031 206.109375-38.257812-6.382813c-2.582031-8.667968-5.734375-17.097656-9.417969-25.1875l24.554688-30.445312c11.160156-13.753906 10.710937-33.378906-1.082032-46.679688l-19.007812-21.390624c-11.8125-13.253907-31.25-16.011719-46.183594-6.574219l-32.652344 20.527343c-14.683594-9.160156-30.511718-16.300781-47.226562-21.296874l-6.40625-38.496094c-2.882813-17.488282-17.855469-30.183594-35.597656-30.183594h-28.617188c-17.789062 0-32.75 12.714844-35.5625 30.148438l-6.449219 38.550781c-12.65625 3.800781-24.910156 8.890625-36.582031 15.203125l-31-22.121094c-14.398438-10.289062-33.949219-8.679688-46.496094 3.84375l-20.226562 20.242188c-12.515625 12.546874-14.117188 32.101562-3.816406 46.476562l22.195312 31.089844c-6.207031 11.515625-11.242188 23.640625-15.027344 36.195312l-38.796875 6.476563c-17.484375 2.886719-30.175781 17.859375-30.175781 35.597656v28.59375c0 17.742187 12.691406 32.710937 30.148438 35.59375l38.800781 6.480469c2.789062 9.359375 6.199219 18.367187 10.195312 26.914062l-24.351562 30.160156c-11.144531 13.761719-10.6875 33.382813 1.089843 46.652344l18.984376 21.386719c11.789062 13.25 31.226562 16.015625 46.195312 6.582031l33.335938-20.941406c14.121093 8.605469 29.378906 15.371094 45.527343 20.191406l6.433594 38.449219c2.828125 17.519531 17.789063 30.234375 35.578125 30.234375h28.617188c17.742187 0 32.714843-12.691406 35.59375-30.15625l6.421874-38.535156c12.425782-3.730469 24.472657-8.714844 35.964844-14.875l32.617188 23.292968c14.410156 10.351563 33.976562 8.734376 46.511718-3.824218l20.226563-20.230469c12.570313-12.570313 14.15625-32.140625 3.824219-46.46875l-23.222656-32.558594c6.261718-11.609375 11.316406-23.792969 15.089843-36.363281l38.234375-6.386719c17.492188-2.878906 30.183594-17.851562 30.183594-35.597656v-28.617187c-.023438-17.726563-12.710938-32.679688-30.167969-35.570313zm.167969 64.1875c0 2.992187-2.128906 5.515625-5.089844 6.003906l-45.914062 7.667969c-6.964844 1.160156-12.59375 6.335938-14.347656 13.191406-3.855469 15.105469-9.878907 29.617188-17.886719 43.125-3.613281 6.082032-3.292969 13.722656.808593 19.472656l27.765626 38.929688c1.726562 2.394531 1.449218 5.664062-.660157 7.773438l-20.238281 20.238281c-2.105469 2.109375-5.382812 2.390625-7.816406.640625l-38.945313-27.816406c-5.730469-4.089844-13.359375-4.417969-19.429687-.839844-13.429688 7.914062-27.832032 13.871094-42.808594 17.699218-6.847656 1.753907-12.023438 7.382813-13.183594 14.347657l-7.703125 46.210937c-.484375 2.933594-3.003906 5.0625-5.996093 5.0625h-28.617188c-2.9375 0-5.496094-2.15625-5.972656-5.101562l-7.726563-46.175782c-1.160156-6.957031-6.332031-12.585937-13.183593-14.34375-18.34375-4.691406-35.398438-12.253906-50.683594-22.472656-3-2.003906-6.464844-3.007812-9.929688-3.007812-3.289062 0-6.582031.90625-9.476562 2.722656l-39.875 25.050781c-2.523438 1.589844-5.8125 1.117188-7.800782-1.121093l-18.972656-21.371094c-1.992187-2.242188-2.078125-5.550782-.195312-7.878906l29.261718-36.238282c4.453126-5.523437 5.207032-13.164062 1.917969-19.460937-5.667969-10.84375-10.183593-22.746094-13.425781-35.382813-1.757812-6.835937-7.382812-12.003906-14.335938-13.164062l-46.476562-7.761719c-2.933594-.484375-5.0625-3.007813-5.0625-5.996094v-28.597656c0-2.988281 2.128906-5.511719 5.089844-6l46.453125-7.757813c6.945312-1.160156 12.570312-6.324218 14.328125-13.152343 3.90625-15.140625 9.917968-29.613281 17.863281-43.007813 3.605469-6.078125 3.289063-13.71875-.816406-19.472656l-26.710938-37.414062c-1.738281-2.425782-1.464843-5.722657.644531-7.832032l20.203126-20.21875c2.117187-2.113281 5.421874-2.390625 7.855468-.652344l37.316406 26.632813c5.753907 4.109375 13.402344 4.425781 19.484376.808594 13.566406-8.0625 28.148437-14.125 43.339843-18.011719 6.847657-1.75 12.023438-7.378906 13.1875-14.335938l7.738281-46.277343c.460938-2.855469 3.023438-5.007813 5.960938-5.007813h28.617188c2.988281 0 5.511718 2.128906 6 5.082032l7.683593 46.179687c1.160157 6.964844 6.335938 12.597656 13.1875 14.347656 18.792969 4.804688 36.34375 12.722657 52.164063 23.53125 5.871094 4.011719 13.546875 4.160157 19.5625.382813l39.277344-24.695313c2.507812-1.585937 5.789062-1.101562 7.78125 1.136719l18.980468 21.359375c1.996094 2.253906 2.09375 5.558594.195313 7.894531l-29.410157 36.472656c-4.398437 5.449219-5.1875 13.015626-2.015624 19.269532 5.375 10.59375 9.640624 21.992187 12.671874 33.886718 1.75 6.851563 7.382813 12.027344 14.34375 13.1875l45.917969 7.660157.03125.007812c2.933594.480469 5.070313 3.011719 5.074219 5.996094zm0 0"/><path d="m327.328125 184.671875c-27.183594-27.183594-67.710937-36.328125-103.644531-24.230469-17.644532-14.414062-43.761719-13.402344-60.203125 3.039063-16.441407 16.4375-17.453125 42.554687-3.042969 60.199219-12.117188 35.945312-2.996094 76.421874 24.234375 103.648437 19.292969 19.296875 45.238281 29.503906 71.511719 29.503906 10.804687 0 21.667968-1.730469 32.144531-5.261719 8 6.546876 17.925781 10.105469 28.398437 10.109376h.015626c12.003906 0 23.289062-4.671876 31.777343-13.160157 16.4375-16.441406 17.453125-42.554687 3.042969-60.199219 12.117188-35.941406 2.996094-76.421874-24.234375-103.648437zm-142.636719.023437c2.914063-2.914062 6.738282-4.367187 10.566406-4.367187 3.832032 0 7.667969 1.457031 10.589844 4.378906 5.835938 5.835938 5.839844 15.328125.011719 21.15625-2.820313 2.820313-6.570313 4.375-10.5625 4.371094h-.003906c-3.996094 0-7.757813-1.558594-10.585938-4.386719-5.835937-5.835937-5.84375-15.324218-.015625-21.152344zm21.191406 121.421876c-17.582031-17.585938-24.421874-43.03125-18.808593-66.640626 2.683593.496094 5.421875.757813 8.207031.757813h.015625c12.007813 0 23.292969-4.671875 31.777344-13.160156 10.855469-10.855469 14.976562-25.925781 12.382812-39.996094 23.613281-5.613281 49.097657 1.246094 66.660157 18.804687 17.582031 17.585938 24.421874 43.03125 18.808593 66.636719-2.679687-.492187-5.421875-.753906-8.207031-.757812-.003906 0-.011719 0-.015625 0-12.003906 0-23.289063 4.675781-31.777344 13.164062-10.855469 10.855469-14.976562 25.925781-12.382812 39.992188-23.613281 5.625-49.070313-1.210938-66.660157-18.800781zm121.425782 21.191406c-2.824219 2.820312-6.574219 4.371094-10.566406 4.371094h-.003907c-3.996093 0-7.757812-1.558594-10.585937-4.386719-5.835938-5.835938-5.839844-15.324219-.011719-21.152344 2.820313-2.820313 6.570313-4.375 10.5625-4.375h.003906c3.996094 0 7.757813 1.558594 10.585938 4.386719 5.835937 5.835937 5.84375 15.324218.015625 21.15625zm0 0"/></svg>