<?xml version="1.0" encoding="iso-8859-1"?>
<!-- Generator: Adobe Illustrator 21.0.0, SVG Export Plug-In . SVG Version: 6.00 Build 0)  -->
<svg xmlns="http://www.w3.org/2000/svg" xmlns:xlink="http://www.w3.org/1999/xlink" version="1.1" id="Capa_1" x="0px" y="0px" viewBox="0 0 512 512" style="enable-background:new 0 0 512 512;" xml:space="preserve" width="512" height="512">
<g>
	<path d="M507.606,94.396L417.604,4.394C414.791,1.581,410.976,0,406.997,0H105.003c-3.979,0-7.794,1.581-10.606,4.394L4.394,94.396   C1.58,97.209,0,101.024,0,105.002v92.001c0,8.284,6.716,15,15,15h16V497c0,8.284,6.716,15,15,15h420c8.284,0,15-6.716,15-15   V212.004h16c8.284,0,15-6.716,15-15v-92.001C512,101.024,510.42,97.209,507.606,94.396z M391,362H121v-30h270V362z M121,392h270v30   H121V392z M391,302H121v-30h270V302z M121,482v-30h270v30H121z M451,482h-30V257c0-8.284-6.716-15-15-15H106   c-8.284,0-15,6.716-15,15v225H61V212.004h390V482z M482,182.004H30v-70.788L111.216,30h289.568L482,111.216V182.004z"/>
	<path d="M344.977,121c0,0-13.999,0-14.001,0c-3.515,0-6.947-1.353-9.522-3.745c-2.569-2.386-4.179-5.704-4.441-9.202   c-0.289-3.862,0.18-7.706,2.416-10.959c1.961-2.852,4.965-4.924,8.336-5.718c1.052-0.248,2.131-0.372,3.212-0.372h13.997   c8.284,0,15-6.716,15-15s-6.716-15-15-15h-13.997c-19.367,0-35.84,12.582-41.705,29.998h-66.542   c-5.864-17.415-22.337-29.998-41.704-29.998h-13.997c-8.284,0-15,6.716-15,15s6.716,15,15,15c0,0,13.993,0,13.997,0   c7.183,0,13.372,5.691,13.956,12.855c0.31,3.803-0.135,7.632-2.285,10.868c-1.916,2.884-4.89,5.004-8.25,5.85   c-1.117,0.282-2.269,0.423-3.421,0.423h-14.001c-8.284,0-15,6.716-15,15s6.716,15,15,15h14.001   c19.368,0,35.84-12.582,41.705-29.998h66.542C295.135,138.417,311.608,151,330.976,151h14.001c8.284,0,15-6.716,15-15   S353.261,121,344.977,121z"/>
</g>















</svg>
