<?xml version="1.0" encoding="iso-8859-1"?>
<!-- Generator: Adobe Illustrator 21.0.0, SVG Export Plug-In . SVG Version: 6.00 Build 0)  -->
<svg xmlns="http://www.w3.org/2000/svg" xmlns:xlink="http://www.w3.org/1999/xlink" version="1.1" id="Capa_1" x="0px" y="0px" viewBox="0 0 512.004 512.004" style="enable-background:new 0 0 512.004 512.004;" xml:space="preserve" width="512" height="512">
<path d="M456.074,363.727l-126.072-33.154v-51.563c23.877-20.734,39-51.299,39-85.331l0.005-118.676  C369.007,33.646,335.361,0,294.004,0h-76.001C176.646,0,143,33.646,143,75.003l0.001,118.676c0,34.032,15.123,64.597,39,85.331  v51.563L55.93,363.727c-33.452,8.798-55.927,37.947-55.927,72.536v60.741c0,8.284,6.716,15,15,15s15-6.716,15-15v-60.741  c0-20.754,13.486-38.244,33.557-43.522l6.442-1.694v105.947c0,8.284,6.716,15,15,15s15-6.716,15-15V383.157l30-7.889V443  c0,8.284,6.716,15,15,15c0.68,0,221.578,0,222,0c8.284,0,15-6.716,15-15v-67.733l30,7.889v113.841c0,8.284,6.716,15,15,15  s15-6.716,15-15V391.046l6.442,1.694c20.071,5.278,33.557,22.769,33.557,43.522v60.741c0,8.284,6.716,15,15,15s15-6.716,15-15  v-60.741C512.001,401.674,489.526,372.524,456.074,363.727z M173,75.003C173,50.188,193.188,30,218.003,30h76.001  c24.814,0,45.002,20.188,45.002,45.003v18.721c-29.886-9.476-56.68-13.953-83.025-13.953c-26.339,0-53.119,4.475-82.981,13.947  V75.003z M331.859,122.93c-1.962,3.361-15.1,25.888-18.479,31.686c-15.223-7.61-34.916-14.821-57.403-14.821  c-0.005,0-0.011,0-0.017,0c-22.474,0.004-42.156,7.216-57.37,14.825c-2.289-3.922-15.702-26.92-18.478-31.684  c27.672-8.948,52.124-13.165,75.87-13.165C279.724,109.771,304.176,113.984,331.859,122.93z M173.002,193.679v-23.391  c3.228,5.533,5.799,9.939,7.035,12.052c2.011,3.441,5.31,5.94,9.166,6.945c3.763,0.98,7.973,0.424,11.39-1.587  c13.06-7.685,33.008-17.9,55.382-17.904c22.383,0,42.346,10.219,55.415,17.906c3.439,2.021,7.54,2.593,11.4,1.582  c3.859-1.009,7.158-3.515,9.166-6.961c2.346-4.027,4.696-8.056,7.045-12.086v23.443c0,45.767-37.233,83-83,83  S173.002,239.445,173.002,193.679z M300.002,297.759v43.509c-11.878,11.457-27.794,17.958-44.421,17.958  c-16.305,0-31.803-6.178-43.579-17.145v-44.322c13.53,5.741,28.401,8.919,44,8.919C271.601,306.679,286.472,303.501,300.002,297.759  z M352.002,428h-192v-60.622l27.584-7.254c17.698,18.56,42.163,29.102,67.996,29.102c25.802,0,50.457-10.636,68.162-29.28  l28.259,7.432V428z"/>















</svg>
