<?xml version="1.0" encoding="iso-8859-1"?>
<!-- Generator: Adobe Illustrator 21.0.0, SVG Export Plug-In . SVG Version: 6.00 Build 0)  -->
<svg xmlns="http://www.w3.org/2000/svg" xmlns:xlink="http://www.w3.org/1999/xlink" version="1.1" id="Capa_1" x="0px" y="0px" viewBox="0 0 512 512" style="enable-background:new 0 0 512 512;" xml:space="preserve" width="512" height="512">
<path d="M512,125c0-59-48-107-107-107c-59,0-107,48-107,107c0,53.909,40.077,98.627,92,105.943v82.054  C390,337.812,369.812,358,344.997,358H268V45c0-24.813-20.187-45-45-45H45C20.187,0,0,20.187,0,45v422c0,24.813,20.187,45,45,45h178  c24.813,0,45-20.187,45-45v-79h76.997C386.354,388,420,354.354,420,312.997v-82.054C471.923,223.627,512,178.909,512,125z M149,30  v452h-30V30H149z M30,467v-16.506l24.606-24.606c5.858-5.857,5.858-15.355,0-21.213c-5.857-5.857-15.355-5.857-21.213,0L30,408.068  v-42.074l24.606-24.606c5.858-5.857,5.858-15.355,0-21.213c-5.857-5.857-15.355-5.857-21.213,0L30,323.568v-42.074l24.606-24.606  c5.858-5.857,5.858-15.355,0-21.213c-5.857-5.857-15.355-5.857-21.213,0L30,239.068v-42.074l24.606-24.606  c5.858-5.857,5.858-15.355,0-21.213c-5.857-5.857-15.355-5.857-21.213,0L30,154.568v-41.574l24.606-24.606  c5.858-5.857,5.858-15.355,0-21.213c-5.857-5.857-15.355-5.857-21.213,0L30,70.568V45c0-8.271,6.729-15,15-15h44v452H45  C36.729,482,30,475.271,30,467z M223,482h-44V30h44c8.271,0,15,6.729,15,15v16.506l-24.606,24.606  c-5.858,5.857-5.858,15.355,0,21.213c2.929,2.929,6.768,4.394,10.606,4.394s7.678-1.465,10.606-4.394l3.394-3.394v41.574  l-24.606,24.606c-5.858,5.857-5.858,15.355,0,21.213c2.929,2.929,6.768,4.394,10.606,4.394s7.678-1.465,10.606-4.394l3.394-3.394  v42.074l-24.606,24.606c-5.858,5.857-5.858,15.355,0,21.213c2.929,2.929,6.768,4.394,10.606,4.394s7.678-1.465,10.606-4.394  l3.394-3.394v42.074l-24.606,24.606c-5.858,5.857-5.858,15.355,0,21.213c2.929,2.929,6.768,4.394,10.606,4.394  s7.678-1.465,10.606-4.394l3.394-3.394v42.074l-24.606,24.606c-5.858,5.857-5.858,15.355,0,21.213  c2.929,2.929,6.768,4.394,10.606,4.394s7.678-1.465,10.606-4.394l3.394-3.394V467C238,475.271,231.271,482,223,482z M405,48  c42.458,0,77,34.542,77,77c0,5.843-0.676,11.527-1.915,17.001h-46.436l22.749-22.75c5.858-5.857,5.858-15.355,0-21.213  c-5.857-5.857-15.355-5.857-21.213,0c0,0-43.618,43.661-43.876,43.963h-61.394C328.676,136.527,328,130.843,328,125  C328,82.542,362.542,48,405,48z M405,202c-24.771,0-46.833-11.771-60.928-29.999h121.856C451.834,190.229,429.772,202,405,202z"/>















</svg>
