<svg height="496pt" viewBox="-112 0 496 496" width="496pt" xmlns="http://www.w3.org/2000/svg"><path d="m256 448h-3.71875l-64-96h-12.28125v-24h24v16h16v-41.136719c13.769531-3.574219 24-15.992187 24-30.863281 0-16.617188-12.769531-30.152344-28.992188-31.695312l18.703126-18.703126c3.167968 1.519532 6.640624 2.398438 10.289062 2.398438 13.230469 0 24-10.769531 24-24s-10.769531-24-24-24-24 10.769531-24 24c0 3.664062.886719 7.144531 2.390625 10.296875l-37.703125 37.703125h-.457031c-6.0625-8.679688-10.839844-18.089844-14.230469-28.136719 26.390625-7.375 49.527344-24.304687 64.328125-47.535156 11.558594-17.96875 17.671875-38.824219 17.671875-60.328125 0-8.296875-.871094-16.414062-2.585938-24.113281-6.308593-28.789063-24.207031-54.382813-49.085937-70.214844-17.960937-11.558594-38.824219-17.671875-60.328125-17.671875-8.273438 0-16.398438.871094-24.113281 2.585938-28.789063 6.308593-54.390625 24.214843-70.214844 49.085937-11.558594 17.96875-17.671875 38.824219-17.671875 60.328125 0 8.433594.902344 16.574219 2.65625 24.089844 6.207031 28.710937 24.085938 54.316406 49 70.230468 9.359375 6.054688 19.511719 10.558594 30.335938 13.574219-3.390626 10.035157-8.167969 19.433594-14.222657 28.105469h-.457031l-37.710938-37.710938c1.519532-3.167968 2.398438-6.640624 2.398438-10.289062 0-13.230469-10.769531-24-24-24s-24 10.769531-24 24 10.769531 24 24 24c3.664062 0 7.144531-.886719 10.296875-2.390625l18.695313 18.695313c-16.222657 1.542968-28.992188 15.078124-28.992188 31.695312 0 14.871094 10.230469 27.289062 24 30.863281v41.136719h16v-16h24v24h-12.28125l-64 96h-3.71875c-8.824219 0-16 7.175781-16 16v16c0 8.824219 7.175781 16 16 16h240c8.824219 0 16-7.175781 16-16v-16c0-8.824219-7.175781-16-16-16zm-54.945312-48 32 48h-89.054688v-48zm-25.054688-88v-16h11.097656c3.710938 3.273438 8.085938 5.648438 12.902344 6.878906v9.121094zm-81.144531-32c.671875-2.601562 1.144531-5.265625 1.144531-8 0-2.753906-.464844-5.40625-1.136719-8h82.273438c-.671875 2.59375-1.136719 5.246094-1.136719 8 0 2.734375.472656 5.398438 1.144531 8zm65.144531 16v16h-48v-16zm64-24c0 8.824219-7.175781 16-16 16-4.601562 0-8.902344-1.910156-11.902344-5.367188-2.640625-2.914062-4.097656-6.695312-4.097656-10.632812 0-4.257812 1.664062-8.273438 4.695312-11.304688s7.046876-4.695312 11.304688-4.695312c8.824219 0 16 7.175781 16 16zm16-80c4.414062 0 8 3.59375 8 8s-3.585938 8-8 8c-2.136719 0-4.105469-.816406-5.703125-2.449219-1.472656-1.445312-2.296875-3.414062-2.296875-5.550781 0-4.40625 3.585938-8 8-8zm-151.441406-86.832031c1.753906-12.726563 8.386718-23.929688 18.722656-31.574219 8.351562-6.273438 18.277344-9.59375 28.71875-9.59375 2.558594 0 4.617188.160156 6.832031.566406 12.71875 1.753906 23.910157 8.378906 31.566407 18.730469 6.28125 8.335937 9.601562 18.253906 9.601562 28.703125 0 2.585938-.160156 4.625-.558594 6.832031-1.738281 12.550781-8.539062 24.046875-18.730468 31.582031-1.488282 1.121094-3.109376 2-4.710938 2.9375v-1.351562c0-6.488281-2.527344-12.527344-6.992188-16.863281-4.488281-4.601563-10.519531-7.136719-17.007812-7.136719-13.230469 0-24 10.769531-24 24v1.398438c-5.550781-3.230469-10.535156-7.4375-14.40625-12.613282-6.273438-8.335937-9.59375-18.289062-9.59375-28.785156 0-2.585938.160156-4.625.558594-6.832031zm7.210937 56.335937c4.917969 3.992188 10.367188 7.230469 16.230469 9.625v12.871094c0 6.886719-.847656 13.6875-2.097656 20.40625-7.328125-2.078125-14.308594-5.0625-20.933594-8.832031zm32.230469-9.503906c0-4.40625 3.585938-8 8-8 2.136719 0 4.105469.816406 5.703125 2.449219 1.472656 1.445312 2.296875 3.414062 2.296875 5.550781v8h-16zm34.089844 52.367188c-1.242188-6.703126-2.089844-13.496094-2.089844-20.367188v-12.6875c3.785156-1.535156 7.390625-3.464844 10.808594-5.703125l38.878906 7.75c-12.34375 14.832031-28.96875 25.703125-47.597656 31.007813zm57.535156-45.328126-33.992188-6.773437c6.375-7.859375 10.824219-17.144531 12.847657-26.960937l33.0625-22.039063c.25 2.871094.457031 5.773437.457031 8.734375 0 16.601562-4.289062 32.734375-12.375 47.039062zm8.742188-72.902343-28.894532 19.261719c-1.03125-10.039063-4.394531-19.527344-9.90625-27.984376l7.800782-39.09375c14.863281 12.382813 25.769531 29.152344 31 47.816407zm-45.328126-57.761719-6.765624 33.9375c-7.832032-6.402344-17.042969-10.792969-26.984376-12.800781l-22.03125-33.046875c2.886719-.257813 5.789063-.464844 8.742188-.464844 16.609375 0 32.734375 4.28125 47.039062 12.375zm-72.902343-8.75 19.269531 28.894531c-10.03125 1.03125-19.519531 4.390625-27.992188 9.90625l-39.09375-7.792969c12.382813-14.863281 29.152344-25.769531 47.816407-31.007812zm-57.761719 45.335938 33.9375 6.765624c-6.402344 7.832032-10.792969 17.050782-12.800781 26.984376l-33.039063 22.066406c-.265625-2.882813-.472656-5.785156-.472656-8.777344 0-16.601562 4.289062-32.726562 12.375-47.039062zm-8.695312 72.863281 28.839843-19.230469c1.023438 10.0625 4.382813 19.566406 9.894531 28.039062l-7.78125 39.023438c-14.878906-12.410156-25.753906-29.167969-30.953124-47.832031zm80.214843 78.351562c2.722657-10.457031 4.105469-21.28125 4.105469-32.175781v-8h16v8c0 10.894531 1.382812 21.71875 4.105469 32.175781 2.933593 11.265625 7.40625 21.886719 13.152343 31.824219h-50.515624c5.753906-9.9375 10.21875-20.558594 13.152343-31.824219zm-99.894531-16.175781c0-4.40625 3.585938-8 8-8s8 3.59375 8 8c0 2.136719-.824219 4.105469-2.449219 5.695312-1.445312 1.488282-3.414062 2.304688-5.550781 2.304688-4.414062 0-8-3.59375-8-8zm24 72c0-8.824219 7.175781-16 16-16 4.257812 0 8.273438 1.664062 11.304688 4.695312s4.695312 7.046876 4.695312 11.304688c0 3.9375-1.457031 7.71875-4.183594 10.742188-2.914062 3.347656-7.214844 5.257812-11.816406 5.257812-8.824219 0-16-7.175781-16-16zm24 40v-9.113281c4.839844-1.238281 9.230469-3.621094 12.921875-6.886719h11.078125v16zm40 16h48v24h-48zm-19.71875 40h87.4375l10.664062 16h-108.765624zm-21.335938 32h57.054688v48h-89.054688zm185.054688 80h-240v-16h240zm0 0"/><path d="m96 416h16v16h-16zm0 0"/><path d="m160 416h16v16h-16zm0 0"/></svg>