<svg height="512pt" viewBox="0 0 512 512" width="512pt" xmlns="http://www.w3.org/2000/svg"><path d="m334.226562 263.515625c-.953124-7.125-4.6875-13.453125-10.507812-17.824219l-.5625-.417968-39.984375-24.558594 7.148437-29.144532c4.285157-10.640624.835938-23.042968-8.636718-30.144531l-.398438-.289062c-10.378906-7.265625-24.144531-5.960938-32.84375 3.066406l-63.042968 63.042969c-5.433594 5.121094-8.242188 12.476562-7.722657 20.25l.097657.988281c.953124 7.121094 4.6875 13.453125 10.507812 17.820313l.5625.421874 39.984375 24.554688-7.148437 29.144531c-4.285157 10.644531-.835938 23.046875 8.636718 30.152344l.398438.289063c4.496094 3.144531 9.625 4.683593 14.703125 4.683593 6.644531 0 13.207031-2.636719 18.136719-7.75l63.046874-63.046875c5.433594-5.121094 8.242188-12.472656 7.722657-20.25zm-80.335937 51.519531 5.683594-23.164062c2.160156-8.792969-1.574219-17.878906-9.285157-22.613282l-39.941406-24.53125 47.761719-47.761718-5.683594 23.164062c-2.15625 8.789063 1.574219 17.878906 9.289063 22.613282l39.941406 24.53125zm0 0"/><path d="m441.117188 185.117188h-3.394532c-.074218 0-.195312-.097657-.261718-.273438-3.984376-10.144531-8.835938-19.972656-14.476563-29.335938 9.683594-17.140624 7.230469-39.335937-7.359375-53.925781-14.128906-14.128906-35.390625-16.875-52.285156-8.242187-11.375-7.519532-23.507813-13.824219-36.1875-18.800782-.175782-.070312-.269532-.1875-.269532-.265624v-3.390626c0-39.085937-31.796874-70.882812-70.882812-70.882812s-70.882812 31.796875-70.882812 70.882812v3.394532c0 .074218-.097657.195312-.273438.261718-50.34375 19.757813-90.546875 59.960938-110.304688 110.308594-.066406.175782-.1875.269532-.261718.269532h-3.394532c-39.082031 0-70.882812 31.796874-70.882812 70.882812s31.800781 70.882812 70.882812 70.882812h3.394532c.078125 0 .195312.097657.265625.269532 4.492187 11.457031 10.085937 22.488281 16.679687 32.910156-9.15625 17.023438-6.558594 38.757812 7.804688 53.121094 8.769531 8.769531 20.285156 13.152344 31.804687 13.152344 7.367188 0 14.734375-1.796876 21.382813-5.386719 10.339844 6.519531 21.277344 12.054687 32.632812 16.511719.175782.066406.269532.1875.269532.261718v3.394532c0 39.082031 31.796874 70.882812 70.882812 70.882812s70.882812-31.800781 70.882812-70.882812v-3.394532c0-.074218.097657-.195312.273438-.261718 50.34375-19.757813 90.546875-59.960938 110.304688-110.308594.066406-.175782.1875-.269532.265624-.269532h3.390626c39.082031 0 70.882812-31.796874 70.882812-70.882812s-31.800781-70.882812-70.882812-70.882812zm-57.296876-66.703126c3.835938 0 7.671876 1.460938 10.59375 4.382813 5.835938 5.835937 5.839844 15.324219.011719 21.152344s-15.316406 5.820312-21.152343-.011719c-5.835938-5.835938-5.84375-15.328125-.015626-21.15625 2.914063-2.910156 6.738282-4.367188 10.5625-4.367188zm-263.582031 273.554688c-5.835937-5.835938-5.839843-15.324219-.011719-21.152344 2.910157-2.914062 6.734376-4.367187 10.5625-4.367187 3.832032 0 7.667969 1.460937 10.589844 4.378906 5.835938 5.835937 5.84375 15.328125.015625 21.15625-5.832031 5.828125-15.320312 5.820313-21.15625-.015625zm320.878907-95.085938h-3.394532c-12.519531 0-23.585937 7.582032-28.191406 19.3125-16.714844 42.605469-50.734375 76.621094-93.332031 93.335938-11.734375 4.605469-19.316407 15.667969-19.316407 28.191406v3.394532c0 22.542968-18.339843 40.882812-40.882812 40.882812s-40.882812-18.339844-40.882812-40.882812v-3.394532c0-12.523437-7.582032-23.589844-19.3125-28.191406-8.039063-3.152344-15.832032-6.949219-23.289063-11.335938 6.496094-16.207031 3.1875-35.464843-9.921875-48.578124-13.132812-13.132813-32.429688-16.433594-48.652344-9.898438-4.445312-7.53125-8.289062-15.402344-11.472656-23.523438-4.605469-11.730468-15.671875-19.3125-28.191406-19.3125h-3.394532c-22.542968 0-40.882812-18.339843-40.882812-40.882812s18.339844-40.882812 40.882812-40.882812h3.394532c12.523437 0 23.589844-7.582032 28.191406-19.3125 16.714844-42.601563 50.734375-76.621094 93.332031-93.335938 11.734375-4.605469 19.316407-15.667969 19.316407-28.191406v-3.394532c0-22.542968 18.339843-40.882812 40.882812-40.882812s40.882812 18.339844 40.882812 40.882812v3.394532c0 12.523437 7.582032 23.589844 19.3125 28.191406 9.148438 3.585938 17.957032 7.996094 26.324219 13.167969-7.003906 16.394531-3.824219 36.148437 9.539063 49.511719 8.769531 8.773437 20.285156 13.15625 31.804687 13.15625 5.421875 0 10.847657-.972657 15.980469-2.917969 3.699219 6.582031 6.941406 13.410156 9.6875 20.414062 4.605469 11.734375 15.667969 19.316407 28.191406 19.316407h3.394532c22.542968 0 40.882812 18.339843 40.882812 40.882812s-18.339844 40.882812-40.882812 40.882812zm0 0"/><path d="m118.851562 241h-49.304687c-8.28125 0-15 6.714844-15 15s6.71875 15 15 15h49.304687c8.285157 0 15-6.714844 15-15s-6.714843-15-15-15zm0 0"/><path d="m442.453125 241h-49.304687c-8.285157 0-15 6.714844-15 15s6.714843 15 15 15h49.304687c8.28125 0 15-6.714844 15-15s-6.71875-15-15-15zm0 0"/><path d="m256 378.148438c-8.285156 0-15 6.714843-15 15v49.304687c0 8.28125 6.714844 15 15 15s15-6.71875 15-15v-49.304687c0-8.285157-6.714844-15-15-15zm0 0"/><path d="m256 133.851562c8.285156 0 15-6.714843 15-15v-49.304687c0-8.28125-6.714844-15-15-15s-15 6.71875-15 15v49.304687c0 8.285157 6.714844 15 15 15zm0 0"/></svg>