<?xml version="1.0" encoding="iso-8859-1"?>
<!-- Generator: Adobe Illustrator 21.0.0, SVG Export Plug-In . SVG Version: 6.00 Build 0)  -->
<svg xmlns="http://www.w3.org/2000/svg" xmlns:xlink="http://www.w3.org/1999/xlink" version="1.1" id="Capa_1" x="0px" y="0px" viewBox="0 0 512 512" style="enable-background:new 0 0 512 512;" xml:space="preserve" width="512" height="512">
<path d="M376,150h30c24.813,0,45-20.187,45-45V45c0-24.813-20.187-45-45-45h-30c-24.813,0-45,20.187-45,45v15h-32.78  c-6.349-17.162-22.878-29.43-42.22-29.43S220.129,42.838,213.78,60H181V45c0-24.813-20.187-45-45-45h-30C81.187,0,61,20.187,61,45  v60c0,24.813,20.187,45,45,45h30c24.813,0,45-20.187,45-45V90h32.387c4.426,13.035,14.667,23.402,27.625,27.994v277.152  c-12.58,4.458-22.607,14.353-27.232,26.854H181v-15c0-24.813-20.187-45-45-45h-30c-24.813,0-45,20.187-45,45v60  c0,24.813,20.187,45,45,45h30c24.813,0,45-20.187,45-45v-15h32.387c6.029,17.755,22.847,30.57,42.613,30.57  s36.584-12.816,42.613-30.57H331v15c0,24.813,20.187,45,45,45h30c24.813,0,45-20.187,45-45v-60c0-24.813-20.187-45-45-45h-30  c-24.813,0-45,20.187-45,45v15h-32.78c-4.622-12.493-14.64-22.384-27.208-26.846V117.986c12.948-4.596,23.178-14.959,27.602-27.986  H331v15C331,129.813,351.187,150,376,150z M151,105c0,8.271-6.729,15-15,15h-30c-8.271,0-15-6.729-15-15V45c0-8.271,6.729-15,15-15  h30c8.271,0,15,6.729,15,15V105z M151,467c0,8.271-6.729,15-15,15h-30c-8.271,0-15-6.729-15-15v-60c0-8.271,6.729-15,15-15h30  c8.271,0,15,6.729,15,15V467z M361,407c0-8.271,6.729-15,15-15h30c8.271,0,15,6.729,15,15v60c0,8.271-6.729,15-15,15h-30  c-8.271,0-15-6.729-15-15V407z M256,60.57c8.271,0,15,6.729,15,15s-6.729,15-15,15s-15-6.729-15-15S247.729,60.57,256,60.57z   M256,452.57c-8.271,0-15-6.729-15-15s6.729-15,15-15s15,6.729,15,15S264.271,452.57,256,452.57z M361,45c0-8.271,6.729-15,15-15h30  c8.271,0,15,6.729,15,15v60c0,8.271-6.729,15-15,15h-30c-8.271,0-15-6.729-15-15V45z"/>















</svg>
