<svg height="512pt" viewBox="0 -29 512.00017 512" width="512pt" xmlns="http://www.w3.org/2000/svg"><path d="m256 235.347656c23.777344 0 44.363281-8.511718 61.1875-25.308594 16.835938-16.804687 25.367188-37.367187 25.367188-61.117187 0-16.605469-4.601563-32.230469-13.683594-46.441406l-.164063-.253907c-.496093-.742187-2.199219-3.210937-8.890625-12.847656-5.132812-7.390625-9.78125-14.328125-13.808594-20.609375-3.851562-6-8.277343-13.914062-13.15625-23.519531-4.671874-9.203125-8.222656-17.769531-10.558593-25.476562-1.730469-6.203126-5.457031-11.347657-10.785157-14.886719-4.867187-3.242188-10.085937-4.886719-15.507812-4.886719-5.46875 0-10.699219 1.667969-15.546875 4.957031-5.171875 3.507813-8.871094 8.574219-10.691406 14.636719-2.34375 7.765625-5.917969 16.394531-10.617188 25.652344-4.867187 9.59375-9.292969 17.507812-13.15625 23.523437-4.023437 6.277344-8.671875 13.210938-13.808593 20.609375-7.054688 10.160156-8.453126 12.199219-8.890626 12.851563l-.25.386719c-9.019531 14.453124-13.59375 30.035156-13.59375 46.304687 0 23.753906 8.535157 44.316406 25.367188 61.117187 16.824219 16.796876 37.410156 25.308594 61.1875 25.308594zm-47.640625-116.636718c.546875-.808594 2.523437-3.671876 8.460937-12.21875 5.34375-7.695313 10.195313-14.9375 14.417969-21.523438 4.402344-6.863281 9.332031-15.65625 14.65625-26.140625 4.078125-8.03125 7.460938-15.761719 10.101563-23.085937 2.636718 7.3125 6.019531 15.046874 10.105468 23.089843 5.332032 10.5 10.261719 19.292969 14.652344 26.136719 4.226563 6.589844 9.078125 13.832031 14.421875 21.519531 2.09375 3.019531 7.550781 10.882813 8.503907 12.289063 5.972656 9.394531 8.875 19.257812 8.875 30.144531 0 15.714844-5.417969 28.757813-16.5625 39.886719-11.152344 11.128906-24.234376 16.542968-39.996094 16.542968-15.757813 0-28.839844-5.414062-39.992188-16.542968-11.144531-11.125-16.5625-24.171875-16.5625-39.886719.003906-10.640625 2.917969-20.523437 8.917969-30.210937zm0 0"/><path d="m507.753906 301.542969c-5.777344-5.9375-15.273437-6.070313-21.210937-.292969-38.316407 37.265625-100.664063 37.265625-138.980469 0-49.847656-48.484375-130.960938-48.484375-180.808594 0-38.921875 37.851562-103.628906 38.882812-141.296875 2.25-5.9375-5.777344-15.433593-5.644531-21.210937.296875-5.773438 5.9375-5.644532 15.433594.296875 21.210937 23.5 22.855469 55.074219 35.351563 89.179687 35.347657 34.625-.660157 69.710938-14.027344 93.945313-37.601563 38.316406-37.261718 100.664062-37.265625 138.980469 0 49.847656 48.484375 130.960937 48.484375 180.808593 0 5.941407-5.777344 6.070313-15.273437.296875-21.210937zm0 0"/><path d="m93.722656 454.992188c-.890625.019531.882813 0 0 0zm0 0"/><path d="m507.753906 396.179688c-5.777344-5.9375-15.273437-6.070313-21.210937-.292969-38.316407 37.261719-100.664063 37.261719-138.980469 0-49.847656-48.484375-130.960938-48.484375-180.808594 0-38.921875 37.851562-103.628906 38.882812-141.296875 2.25-5.9375-5.777344-15.433593-5.644531-21.210937.292969-5.773438 5.9375-5.644532 15.4375.296875 21.210937 23.5 22.859375 55.074219 35.355469 89.179687 35.351563 34.625-.660157 69.710938-14.027344 93.945313-37.601563 38.316406-37.261719 100.664062-37.265625 138.980469 0 49.847656 48.484375 130.960937 48.484375 180.808593 0 5.941407-5.777344 6.070313-15.273437.296875-21.210937zm0 0"/><path d="m74.449219 172.464844c8.28125 0 15-6.714844 15-15v-124.722656c0-8.28125-6.71875-15-15-15-8.285157 0-15 6.71875-15 15v124.722656c0 8.285156 6.714843 15 15 15zm0 0"/><path d="m124.296875 255.863281c8.285156 0 15-6.714843 15-15v-96.886719c0-8.285156-6.714844-15-15-15s-15 6.714844-15 15v96.886719c0 8.285157 6.714844 15 15 15zm0 0"/><path d="m124.296875 120.894531c8.285156 0 15-6.714843 15-15v-17.917969c0-8.285156-6.714844-15-15-15s-15 6.714844-15 15v17.917969c0 8.285157 6.714844 15 15 15zm0 0"/><path d="m377.582031 269.875c8.285157 0 15-6.714844 15-15v-124.722656c0-8.28125-6.714843-15-15-15-8.285156 0-15 6.71875-15 15v124.722656c0 8.285156 6.714844 15 15 15zm0 0"/><path d="m427.429688 158.640625c8.285156 0 15-6.714844 15-15v-96.886719c0-8.285156-6.714844-15-15-15-8.285157 0-15 6.714844-15 15v96.886719c0 8.285156 6.714843 15 15 15zm0 0"/><path d="m427.429688 214.640625c8.285156 0 15-6.714844 15-15v-17.917969c0-8.285156-6.714844-15-15-15-8.285157 0-15 6.714844-15 15v17.917969c0 8.285156 6.714843 15 15 15zm0 0"/></svg>