<?xml version="1.0" encoding="iso-8859-1"?>
<!-- Generator: Adobe Illustrator 21.0.0, SVG Export Plug-In . SVG Version: 6.00 Build 0)  -->
<svg xmlns="http://www.w3.org/2000/svg" xmlns:xlink="http://www.w3.org/1999/xlink" version="1.1" id="Capa_1" x="0px" y="0px" viewBox="0 0 512 512" style="enable-background:new 0 0 512 512;" xml:space="preserve" width="512" height="512">
<g>
	<path d="M497,106h-45c0-8.284-6.716-15-15-15c0,0-182.231,0.015-182.347,0.018C164.272,91.723,90.959,165.456,90.959,256   c0,15.594,2.176,30.69,6.238,45H75c-8.284,0-15,6.716-15,15H15c-8.284,0-15,6.716-15,15v60c0,8.284,6.716,15,15,15h45   c0,8.284,6.716,15,15,15c0,0,184.718-0.029,185.074-0.054c89.087-2.192,160.883-75.341,160.883-164.946   c0-15.594-2.176-30.69-6.238-45H437c8.284,0,15-6.716,15-15h45c8.284,0,15-6.716,15-15v-60C512,112.716,505.284,106,497,106z    M30,376v-30h30v30H30z M90,331h19c0.004,0,0.008,0,0.011,0c12.293,23.988,30.294,44.585,52.192,60H90V331z M255.958,390.998   c-74.439,0-134.999-60.56-134.999-134.998s60.56-134.999,134.999-134.999S390.957,181.562,390.957,256   S330.397,390.998,255.958,390.998z M402.905,181c-12.293-23.988-30.293-44.584-52.191-60H422v60H402.905z M482,166h-30v-30h30V166z   "/>
	<path d="M255.958,168c-48.523,0-88,39.477-88,88s39.477,88,88,88c48.523,0,88-39.477,88-88S304.481,168,255.958,168z    M286.135,206.488l-30.177,30.177l-30.176-30.176c8.797-5.382,19.13-8.489,30.177-8.489   C267.005,198,277.338,201.107,286.135,206.488z M205.069,228.202l29.676,29.676l-28.298,28.298   c-5.382-8.797-8.488-19.13-8.488-30.176C197.958,245.934,200.54,236.461,205.069,228.202z M228.16,306.889l27.798-27.798   l27.798,27.798c-8.259,4.53-17.732,7.111-27.798,7.111C245.892,314,236.419,311.419,228.16,306.889z M305.47,286.177   l-28.299-28.299l29.676-29.676c4.53,8.259,7.111,17.732,7.111,27.798C313.958,267.046,310.851,277.379,305.47,286.177z"/>
</g>















</svg>
