<svg height="512pt" viewBox="0 0 512 512.001" width="512pt" xmlns="http://www.w3.org/2000/svg"><path d="m476.613281 69.027344c-6.320312-39.085938-40.300781-69.027344-81.140625-69.027344-40.203125 0-73.757812 29.011719-80.828125 67.199219h-13.644531v-36.074219c0-8.285156-6.714844-15-15-15s-15 6.714844-15 15v105.769531c0 8.285157 6.714844 15 15 15s15-6.714843 15-15v-39.695312h13.644531c7.070313 38.1875 40.625 67.195312 80.828125 67.195312 38.652344 0 71.15625-26.816406 79.890625-62.824219 4.054688 3.417969 6.636719 8.535157 6.636719 14.242188v291.367188c0 11.039062-8.980469 20.023437-20.023438 20.023437h-43.128906v-16.945313c0-20.871093-16.980468-37.851562-37.851562-37.851562h-249.988282c-20.875 0-37.855468 16.980469-37.855468 37.851562v19.457032h-43.128906c-11.039063 0-20.023438-8.984375-20.023438-20.023438v-293.878906c0-5.425781 2.332031-10.316406 6.046875-13.71875 8.917969 35.742188 41.296875 62.300781 79.765625 62.300781 40.203125 0 73.753906-29.011719 80.824219-67.195312h14.363281v19.695312c0 8.28125 6.714844 15 15 15s15-6.71875 15-15v-65.769531c0-8.285156-6.714844-15-15-15s-15 6.714844-15 15v16.074219h-14.363281c-7.070313-38.1875-40.621094-67.199219-80.824219-67.199219-40.921875 0-74.949219 30.054688-81.179688 69.246094-20.011718 6.019531-34.632812 24.617187-34.632812 46.566406v293.878906c0 27.582032 22.441406 50.023438 50.023438 50.023438h43.128906v14.433594c0 20.871093 16.980468 37.851562 37.855468 37.851562h249.988282c20.871094 0 37.851562-16.980469 37.851562-37.851562v-16.945313h43.128906c27.582032 0 50.023438-22.4375 50.023438-50.019531v-291.371094c0-22.222656-14.988281-41.011719-35.386719-46.785156zm-81.140625 65.367187c-28.78125 0-52.199218-23.414062-52.199218-52.195312s23.417968-52.199219 52.199218-52.199219 52.195313 23.417969 52.195313 52.199219-23.414063 52.195312-52.195313 52.195312zm-279.660156-104.394531c28.78125 0 52.195312 23.414062 52.195312 52.199219 0 28.78125-23.414062 52.195312-52.195312 52.195312s-52.199219-23.414062-52.199219-52.195312c0-28.785157 23.417969-52.199219 52.199219-52.199219zm273.035156 444.148438c0 4.328124-3.523437 7.851562-7.851562 7.851562h-249.988282c-4.332031 0-7.855468-3.523438-7.855468-7.851562v-63.890626c0-4.328124 3.523437-7.851562 7.855468-7.851562h249.988282c4.328125 0 7.851562 3.519531 7.851562 7.851562zm0 0"/><path d="m91.417969 97.199219h9.394531v9.371093c0 8.285157 6.714844 15 15 15 8.28125 0 15-6.714843 15-15v-9.371093h9.390625c8.285156 0 15-6.71875 15-15 0-8.285157-6.714844-15-15-15h-9.390625v-9.375c0-8.285157-6.71875-15-15-15-8.285156 0-15 6.714843-15 15v9.375h-9.394531c-8.28125 0-15 6.714843-15 15 0 8.28125 6.71875 15 15 15zm0 0"/><path d="m419.863281 67.199219h-48.785156c-8.28125 0-15 6.714843-15 15 0 8.28125 6.71875 15 15 15h48.785156c8.285157 0 15-6.71875 15-15 0-8.285157-6.714843-15-15-15zm0 0"/></svg>