<?xml version="1.0" encoding="iso-8859-1"?>
<!-- Generator: Adobe Illustrator 21.0.0, SVG Export Plug-In . SVG Version: 6.00 Build 0)  -->
<svg xmlns="http://www.w3.org/2000/svg" xmlns:xlink="http://www.w3.org/1999/xlink" version="1.1" id="Capa_1" x="0px" y="0px" viewBox="0 0 512 512" style="enable-background:new 0 0 512 512;" xml:space="preserve" width="512" height="512">
<path d="M344.242,120c12.746,0,24.151-5.848,31.677-15h79.331c24.813,0,45-20.187,45-45s-20.187-45-45-45h-79.331  c-7.526-9.152-18.931-15-31.677-15h-38c-12.746,0-24.151,5.848-31.677,15h-79.332c-24.813,0-45,20.187-45,45s20.187,45,45,45h79.332  c7.526,9.152,18.931,15,31.677,15h4v52H261.25c-8.284,0-15,6.716-15,15v205h-6.016c-8.284,0-15,6.716-15,15v15H122.253  c-24.814,0-45.002-20.188-45.002-45.003V267.774c3.048-0.517,5.888-1.953,8.103-4.168l22.003-22.003  c2.813-2.813,4.394-6.628,4.394-10.606V183c0-8.284-6.716-15-15-15h-70c-8.284,0-15,6.716-15,15v47.997  c0,3.979,1.58,7.794,4.394,10.606l22.003,22.003c2.456,2.457,5.678,3.973,9.104,4.317v109.073c0,41.356,33.646,75.003,75.002,75.003  h102.981v30h-26.001c-8.284,0-15,6.716-15,15s6.716,15,15,15H451.25c8.284,0,15-6.716,15-15s-6.716-15-15-15h-26v-75  c0-8.284-6.716-15-15-15h-6.016V187c0-8.284-6.716-15-15-15h-48.992v-52H344.242z M385.242,45h70.008c8.271,0,15,6.729,15,15  s-6.729,15-15,15h-70.008V45z M265.242,75h-70.009c-8.271,0-15-6.729-15-15s6.729-15,15-15h70.009V75z M68.534,238H54.966  L41.75,224.784V198h40v26.784L68.534,238z M395.25,422v60H255.234v-60H395.25z M374.234,202v190H276.25V202H374.234z M295.242,79V41  c0-6.065,4.935-11,11-11h38c6.065,0,11,4.935,11,11v38c0,6.065-4.935,11-11,11h-38C300.177,90,295.242,85.065,295.242,79z"/>















</svg>
