<svg height="512pt" viewBox="0 0 512 512" width="512pt" xmlns="http://www.w3.org/2000/svg"><path d="m497 427.3125h-33.539062v-67c0-8.285156-6.71875-15-15-15-8.285157 0-15 6.714844-15 15v67h-320.386719c-3.683594 0-7.203125-.707031-10.4375-1.988281l330.824219-325.953125v14.9375c0 8.285156 6.714843 15 15 15 8.28125 0 15-6.714844 15-15v-50.769532c0-8.28125-6.71875-15-15-15-.097657 0-.195313 0-.296876.003907-.113281-.003907-.226562-.003907-.34375-.003907h-53c-8.285156 0-15 6.714844-15 15 0 8.285157 6.714844 15 15 15h17.039063l-327.105469 322.289063c-.042968-.628906-.066406-1.265625-.066406-1.90625v-320.382813h38c8.285156 0 15-6.714843 15-15 0-8.285156-6.714844-15-15-15h-38v-33.539062c0-8.285156-6.714844-15-15-15-8.28125 0-15 6.714844-15 15v33.539062h-39.6875c-8.285156 0-15 6.71875-15 15 0 8.285157 6.714844 15 15 15h39.6875v74.441407h-39.6875c-8.285156 0-15 6.714843-15 15 0 8.285156 6.714844 15 15 15h39.6875v79.214843h-39.6875c-8.285156 0-15 6.714844-15 15 0 8.28125 6.714844 15 15 15h39.6875v74.441407h-39.6875c-8.285156 0-15 6.714843-15 15 0 8.28125 6.714844 15 15 15h39.6875v2.285156c0 32.195313 26.195312 58.386719 58.386719 58.386719h2.289062v39.691406c0 8.285156 6.714844 15 15 15 8.285157 0 15-6.714844 15-15v-39.6875h74.441407v39.6875c0 8.285156 6.714843 15 15 15 8.285156 0 15-6.714844 15-15v-39.6875h79.214843v39.6875c0 8.285156 6.714844 15 15 15 8.285157 0 15-6.714844 15-15v-39.6875h74.441407v39.6875c0 8.285156 6.714843 15 15 15 8.28125 0 15-6.714844 15-15v-39.6875h33.539062c8.285156 0 15-6.71875 15-15 0-8.285156-6.714844-15-15-15zm0 0"/><path d="m213.398438 78.539062h90.710937c8.285156 0 15-6.714843 15-15 0-8.285156-6.714844-15-15-15h-90.710937c-8.285157 0-15 6.714844-15 15 0 8.285157 6.714843 15 15 15zm0 0"/><path d="m448.460938 181.3125c-8.285157 0-15 6.714844-15 15v82c0 8.28125 6.714843 15 15 15 8.28125 0 15-6.71875 15-15v-82c0-8.285156-6.71875-15-15-15zm0 0"/></svg>