<svg height="512pt" viewBox="-26 0 512 512" width="512pt" xmlns="http://www.w3.org/2000/svg"><path d="m188.140625 0h-161.28125c-14.8125 0-26.859375 12.109375-26.859375 26.996094v47.769531c0 14.71875 11.777344 26.722656 26.355469 26.992187v327.257813c0 22.296875 9.117187 44.058594 25.007812 59.710937 15.273438 15.039063 35.171875 23.273438 56.15625 23.273438.410157 0 .828125-.003906 1.238281-.011719 21.414063-.328125 41.496094-9 56.546876-24.414062 15.050781-15.417969 23.339843-35.835938 23.339843-57.496094v-328.320313c14.578125-.269531 26.355469-12.277343 26.355469-26.992187v-47.769531c0-14.886719-12.046875-26.996094-26.859375-26.996094zm-131.785156 101.761719h102.289062v49.113281l-8.792969 1.988281c-10.890624 2.460938-22.429687 1.128907-32.496093-3.757812-15.316407-7.4375-32.945313-9.773438-49.640625-6.570313l-11.359375 2.175782zm51.941406 380.230469c-13.34375.21875-26.082031-4.992188-35.882813-14.644532-10.203124-10.046875-16.058593-24.019531-16.058593-38.332031v-253.757813l17.003906-3.261718c10.539063-2.019532 21.21875-.601563 30.890625 4.09375 10.863281 5.277344 22.804688 7.976562 34.78125 7.976562 5.84375 0 11.699219-.644531 17.4375-1.941406l2.175781-.492188v248.445313c0 28.199219-22.585937 51.488281-50.347656 51.914063zm76.703125-410.230469h-155v-41.761719h155zm0 0"/><path d="m433.140625 0h-161.28125c-14.8125 0-26.859375 12.109375-26.859375 26.996094v47.769531c0 14.71875 11.777344 26.722656 26.355469 26.992187v327.257813c0 22.296875 9.117187 44.058594 25.007812 59.710937 15.273438 15.039063 35.171875 23.273438 56.15625 23.273438.410157 0 .828125-.003906 1.238281-.011719 21.414063-.328125 41.496094-9 56.546876-24.414062 15.050781-15.417969 23.339843-35.835938 23.339843-57.496094v-328.320313c14.578125-.269531 26.355469-12.277343 26.355469-26.992187v-47.769531c0-14.886719-12.046875-26.996094-26.859375-26.996094zm-131.785156 101.761719h102.289062v89.113281l-8.792969 1.988281c-10.890624 2.460938-22.429687 1.128907-32.496093-3.757812-15.316407-7.4375-32.945313-9.773438-49.640625-6.570313l-11.359375 2.175782zm51.941406 380.230469c-13.332031.21875-26.082031-4.992188-35.882813-14.644532-10.203124-10.046875-16.058593-24.019531-16.058593-38.332031v-213.757813l17.003906-3.261718c10.539063-2.019532 21.21875-.601563 30.890625 4.09375 10.863281 5.277344 22.804688 7.976562 34.78125 7.976562 5.84375 0 11.699219-.644531 17.4375-1.941406l2.175781-.492188v208.445313c0 28.199219-22.585937 51.488281-50.347656 51.914063zm76.703125-410.230469h-155v-41.761719h155zm0 0"/></svg>