<svg height="512pt" viewBox="0 0 512 512" width="512pt" xmlns="http://www.w3.org/2000/svg"><path d="m470 427.957031c-5.847656 0-11.414062 1.203125-16.476562 3.371094l-34.148438-38.066406c7.878906-10.960938 12.527344-24.398438 12.527344-38.902344 0-31.652344-22.132813-58.230469-51.726563-65.058594v-74.117187c29.59375-6.828125 51.726563-33.40625 51.726563-65.0625 0-13.613282-4.09375-26.289063-11.117188-36.859375l32.3125-32.765625c5.167969 2.28125 10.878906 3.546875 16.878906 3.546875 23.160157 0 42-18.851563 42-42.023438 0-23.167969-18.839843-42.019531-42-42.019531-23.160156 0-42 18.851562-42 42.019531 0 6.203125 1.347657 12.097657 3.769532 17.402344l-32.722656 33.183594c-9.929688-5.871094-21.503907-9.242188-33.847657-9.242188-31.644531 0-58.210937 22.144531-65.03125 51.757813h-88.082031c-6.820312-29.609375-33.390625-51.757813-65.03125-51.757813-12.253906 0-23.746094 3.320313-33.628906 9.113281l-32.992188-33.136718c2.371094-5.261719 3.691406-11.089844 3.691406-17.222656 0-23.167969-18.84375-42.0195318-42.003906-42.0195318-23.15625 0-41.9999998 18.8515628-41.9999998 42.0195318 0 23.171874 18.8437498 42.023437 41.9999998 42.023437 6.074219 0 11.847656-1.296875 17.0625-3.625l32.402344 32.542969c-7.109375 10.609375-11.257812 23.363281-11.257812 37.066406 0 31.652344 22.132812 58.230469 51.730468 65.058594v74.117187c-29.597656 6.828125-51.730468 33.40625-51.730468 65.058594 0 14.585937 4.699218 28.089844 12.660156 39.085937l-35.132813 37.613282c-4.886719-2-10.234375-3.097656-15.828125-3.097656-23.160156-.003907-42.003906 18.847656-42.003906 42.019531 0 23.167969 18.84375 42.019531 42 42.019531 23.160156 0 42.003906-18.851562 42.003906-42.019531 0-6.609375-1.535156-12.863281-4.261718-18.433594l35.808593-38.335937c9.382813 5.046874 20.105469 7.910156 31.480469 7.910156 31.640625 0 58.207031-22.148438 65.03125-51.761719h88.082031c6.820313 29.613281 33.386719 51.761719 65.027344 51.761719 11.464844 0 22.261719-2.90625 31.695313-8.023438l35.078124 39.101563c-2.535156 5.402343-3.949218 11.429687-3.949218 17.78125 0 23.167969 18.84375 42.019531 42 42.019531 23.160156 0 42.003906-18.851562 42.003906-42.019531 0-23.171875-18.84375-42.023438-42-42.023438zm-169.855469-88.597656h-88.082031c-5.710938-24.785156-25.253906-44.34375-50.03125-50.058594v-74.117187c24.777344-5.71875 44.320312-25.273438 50.03125-50.0625h88.082031c5.710938 24.789062 25.253907 44.34375 50.03125 50.0625v74.117187c-24.777343 5.714844-44.320312 25.273438-50.03125 50.058594zm169.832031-309.359375c6.617188 0 12 5.394531 12 12.019531 0 6.628907-5.382812 12.023438-12 12.023438-6.617187 0-12-5.394531-12-12.023438-.003906-6.625 5.382813-12.019531 12-12.019531zm-104.800781 83.363281c20.25 0 36.726563 16.488281 36.726563 36.757813 0 20.273437-16.476563 36.761718-36.726563 36.761718-20.253906 0-36.730469-16.488281-36.730469-36.761718 0-20.269532 16.476563-36.757813 36.730469-36.757813zm-335.078125-71.246093c0-6.628907 5.382813-12.019532 12-12.019532 6.621094 0 12.003906 5.394532 12.003906 12.019532 0 6.628906-5.386718 12.023437-12.003906 12.023437-6.617187 0-12-5.394531-12-12.023437zm80.207032 108.003906c0-20.269532 16.476562-36.757813 36.726562-36.757813 20.253906 0 36.730469 16.488281 36.730469 36.757813 0 20.273437-16.476563 36.761718-36.730469 36.761718-20.25 0-36.726562-16.488281-36.726562-36.761718zm-68.304688 331.878906c-6.617188 0-12-5.394531-12-12.019531 0-6.628907 5.382812-12.023438 12-12.023438 3.125 0 5.976562 1.203125 8.113281 3.171875.027344.023438.054688.050782.082031.078125.019532.015625.035157.03125.054688.046875 2.308594 2.191406 3.753906 5.292969 3.753906 8.726563 0 6.625-5.386718 12.019531-12.003906 12.019531zm105.03125-90.878906c-20.25 0-36.726562-16.492188-36.726562-36.761719s16.476562-36.757813 36.726562-36.757813c20.253906 0 36.730469 16.488282 36.730469 36.757813s-16.476563 36.761719-36.730469 36.761719zm181.414062-36.761719c0-20.269531 16.476563-36.757813 36.730469-36.757813 20.25 0 36.726563 16.488282 36.726563 36.757813s-16.476563 36.761719-36.726563 36.761719c-20.253906 0-36.730469-16.492188-36.730469-36.761719zm141.554688 127.640625c-6.617188 0-12.003906-5.394531-12.003906-12.019531 0-3.121094 1.195312-5.96875 3.148437-8.109375.273438-.25.53125-.511719.78125-.78125 2.132813-1.945313 4.96875-3.132813 8.074219-3.132813 6.617188 0 12 5.394531 12 12.019531 0 6.628907-5.382812 12.023438-12 12.023438zm0 0"/></svg>