<?xml version="1.0" encoding="iso-8859-1"?>
<!-- Generator: Adobe Illustrator 21.0.0, SVG Export Plug-In . SVG Version: 6.00 Build 0)  -->
<svg xmlns="http://www.w3.org/2000/svg" xmlns:xlink="http://www.w3.org/1999/xlink" version="1.1" id="Capa_1" x="0px" y="0px" viewBox="0 0 512 512" style="enable-background:new 0 0 512 512;" xml:space="preserve" width="512" height="512">
<g>
	<path d="M497,366.913h-88.85c9.392-12.508,14.964-28.041,14.964-44.851v-44.149H497c8.284,0,15-6.716,15-15c0-8.284-6.716-15-15-15   h-73.886V189.94c0-21.245-8.971-41.529-24.613-55.649c-15.642-14.121-36.737-20.974-57.869-18.812   c-60.938,6.248-144.394,14.804-212.83,36.48c-38.631,12.235-67.677,26.996-88.797,45.125C13.124,219.301,0,246.249,0,277.18   c0,66.021,53.712,119.733,119.733,119.733H497c8.284,0,15-6.716,15-15S505.284,366.913,497,366.913z M119.733,366.913   C70.254,366.913,30,326.659,30,277.18c0-42.241,34.955-73.846,106.861-96.621c65.5-20.746,173.389-34.063,211.65-35.484   c11.111-0.413,21.588,3.992,29.887,11.483c9.489,8.567,14.715,20.422,14.715,33.382v132.123c0,24.73-20.12,44.851-44.851,44.851   H119.733z"/>
	<path d="M258.109,234.377l-28.715,28.715c-5.858,5.857-5.858,15.355,0,21.213c2.929,2.93,6.767,4.394,10.606,4.394   c3.838,0,7.678-1.465,10.606-4.394l28.715-28.715c5.858-5.857,5.858-15.355,0-21.213   C273.464,228.519,263.967,228.519,258.109,234.377z"/>
	<path d="M296.319,197.112l-4.994,4.994c-5.858,5.858-5.857,15.356,0.001,21.214c2.929,2.929,6.767,4.393,10.606,4.393   s7.678-1.465,10.607-4.394l4.994-4.994c5.858-5.858,5.857-15.356-0.001-21.214S302.177,191.254,296.319,197.112z"/>
	<path d="M225.97,202.792c-5.858-5.859-15.355-5.857-21.213,0l-84.897,84.896c-5.858,5.857-5.858,15.355,0,21.213   c2.929,2.93,6.767,4.394,10.606,4.394c3.838,0,7.678-1.465,10.606-4.394l84.897-84.896   C231.828,218.148,231.828,208.65,225.97,202.792z"/>
</g>















</svg>
