<svg height="512pt" viewBox="0 0 512.00147 512" width="512pt" xmlns="http://www.w3.org/2000/svg"><path d="m510.558594 251.269531c-2.910156-10.804687-9.84375-19.816406-19.523438-25.378906-9.652344-5.542969-20.878906-6.992187-31.609375-4.074219l-302.265625 82.078125c1.234375-4.742187 1.894532-9.71875 1.894532-14.84375 0-32.300781-26.164063-58.578125-58.328126-58.578125-32.160156 0-58.328124 26.277344-58.328124 58.578125 0 16.132813 6.53125 30.765625 17.074218 41.371094l-28.683594 7.785156c-22.164062 6.019531-35.328124 29.003907-29.34375 51.238281 4.898438 18.199219 21.4375 30.910157 40.21875 30.910157 3.675782 0 7.347657-.492188 10.910157-1.460938l130.074219-35.320312-17.039063 98.425781h-17.375c-8.28125 0-15 6.714844-15 15s6.71875 15 15 15h215.535156c8.28125 0 15-6.714844 15-15s-6.71875-15-15-15h-17.375l-23.628906-136.472656 158.445313-43.027344c22.167968-6.015625 35.332031-29 29.347656-51.230469zm-409.828125 9.199219c15.617187 0 28.324219 12.820312 28.324219 28.582031 0 15.757813-12.707032 28.578125-28.324219 28.578125-15.621094 0-28.328125-12.820312-28.328125-28.578125 0-15.761719 12.707031-28.582031 28.328125-28.582031zm215.214843 221.53125h-119.890624l18.542968-107.101562 79.089844-21.476563zm157.40625-208.449219-428.640624 116.394531c-1.003907.269532-2.027344.410157-3.042969.410157-5.246094 0-9.871094-3.582031-11.253907-8.710938-1.691406-6.292969 2-12.792969 8.238282-14.484375l428.636718-116.394531c1.007813-.273437 2.03125-.410156 3.046876-.410156 2 0 3.972656.523437 5.757812 1.546875 2.722656 1.5625 4.671875 4.105468 5.496094 7.160156 1.691406 6.296875-2 12.792969-8.238282 14.488281zm0 0"/><path d="m387.09375 117.160156c32.160156 0 58.328125-26.277344 58.328125-58.578125s-26.164063-58.582031-58.328125-58.582031c-32.160156 0-58.328125 26.28125-58.328125 58.582031s26.167969 58.578125 58.328125 58.578125zm0-87.160156c15.617188 0 28.328125 12.820312 28.328125 28.582031 0 15.757813-12.710937 28.578125-28.328125 28.578125-15.621094 0-28.328125-12.820312-28.328125-28.578125 0-15.761719 12.707031-28.582031 28.328125-28.582031zm0 0"/><path d="m100.730469 197.773438c8.28125 0 15-6.714844 15-15v-43.492188c0-8.285156-6.71875-15-15-15-8.285157 0-15 6.714844-15 15v43.492188c0 8.285156 6.714843 15 15 15zm0 0"/><path d="m150.730469 218.773438c8.28125 0 15-6.714844 15-15v-43.492188c0-8.285156-6.71875-15-15-15-8.285157 0-15 6.714844-15 15v43.492188c0 8.285156 6.714843 15 15 15zm0 0"/><path d="m50.726562 218.773438c8.285157 0 15-6.714844 15-15v-43.492188c0-8.285156-6.714843-15-15-15-8.28125 0-15 6.714844-15 15v43.492188c0 8.285156 6.71875 15 15 15zm0 0"/><path d="m372.09375 159.996094v43.496094c0 8.285156 6.714844 15 15 15s15-6.714844 15-15v-43.496094c0-8.28125-6.714844-15-15-15s-15 6.71875-15 15zm0 0"/><path d="m337.09375 197.492188c8.285156 0 15-6.714844 15-15v-43.496094c0-8.28125-6.714844-15-15-15s-15 6.71875-15 15v43.496094c0 8.285156 6.714844 15 15 15zm0 0"/><path d="m422.09375 138.996094v43.496094c0 8.285156 6.714844 15 15 15s15-6.714844 15-15v-43.496094c0-8.28125-6.714844-15-15-15s-15 6.71875-15 15zm0 0"/></svg>