<?xml version="1.0" encoding="iso-8859-1"?>
<!-- Generator: Adobe Illustrator 21.0.0, SVG Export Plug-In . SVG Version: 6.00 Build 0)  -->
<svg xmlns="http://www.w3.org/2000/svg" xmlns:xlink="http://www.w3.org/1999/xlink" version="1.1" id="Capa_1" x="0px" y="0px" viewBox="0 0 512.011 512.011" style="enable-background:new 0 0 512.011 512.011;" xml:space="preserve" width="512" height="512">
<path d="M475.419,429.512l-57.528-99.501c9.684-9.764,15.677-23.194,15.677-38v-72.008c0-8.284-6.716-15-15-15h-130v-27.005h8.896  c34.796,0,63.104-28.309,63.104-63.105V30h9c8.284,0,15-6.716,15-15s-6.716-15-15-15h-192c-8.284,0-15,6.716-15,15s6.716,15,15,15h9  v84.892c0,34.797,28.309,63.105,63.105,63.105h8.895v27.005h-108v-5.005c0-8.284-6.716-15-15-15h-60c-8.284,0-15,6.716-15,15v35h-15  c-8.284,0-15,6.716-15,15s6.716,15,15,15h15v35c0,8.284,6.716,15,15,15h60c8.284,0,15-6.716,15-15v-4.995h40.082  c1.557,28.389,25.144,51.004,53.913,51.004h44.08l82.858,143.514c8.326,14.421,23.482,22.491,39.047,22.491  c7.628,0,15.355-1.939,22.424-6.021l25.981-15C480.441,478.583,487.83,451.008,475.419,429.512z M216.568,114.892V30h114v84.892  c0,18.255-14.851,33.105-33.104,33.105h-47.79C231.419,147.997,216.568,133.146,216.568,114.892z M120.568,284.997h-30v-70h30  V284.997z M220.568,292.01v-12.008c0-8.284-6.716-15-15-15h-55v-30h253v57.008c0,13.231-10.764,23.996-23.995,23.996h-135.01  C231.332,316.006,220.568,305.241,220.568,292.01z M443.953,465.01l-25.981,15c-7.165,4.135-16.354,1.672-20.49-5.49  l-74.198-128.514h56.289c4.165,0,8.215-0.49,12.112-1.387l57.758,99.9C453.579,451.683,451.116,460.874,443.953,465.01z"/>















</svg>
