<svg height="512pt" viewBox="0 0 512 512" width="512pt" xmlns="http://www.w3.org/2000/svg"><path d="m436.101562 160.621094h-46.433593v-145.621094c0-8.285156-6.714844-15-15-15-8.285157 0-15 6.714844-15 15v42.96875h-22.128907c-7.433593 0-14.332031 3.695312-18.457031 9.886719l-21.238281 31.878906-62.933594-80.769531c-3.390625-4.347656-8.496094-6.9375-14.007812-7.097656-5.507813-.183594-10.761719 2.117187-14.398438 6.257812l-35.050781 39.84375h-19.121094v-42.96875c0-8.285156-6.714843-15-15-15-8.285156 0-15 6.714844-15 15v145.621094h-46.433593c-41.851563 0-75.898438 34.050781-75.898438 75.898437v199.582031c0 41.847657 34.050781 75.898438 75.898438 75.898438h360.203124c41.851563 0 75.898438-34.050781 75.898438-75.898438v-199.582031c0-41.847656-34.050781-75.898437-75.898438-75.898437zm-283.769531-72.652344h22.65625c6.375 0 12.445313-2.742188 16.65625-7.53125l28.175781-32.027344 64.199219 82.394532c3.496094 4.484374 8.894531 7.109374 14.558594 7.109374.230469 0 .457031-.003906.683594-.011718 5.90625-.222656 11.394531-3.289063 14.671875-8.210938l27.796875-41.722656h17.9375v72.652344h-207.335938zm329.667969 348.132812c0 25.308594-20.589844 45.898438-45.898438 45.898438h-360.203124c-25.308594 0-45.898438-20.589844-45.898438-45.898438v-199.582031c0-25.308593 20.589844-45.898437 45.898438-45.898437h360.203124c25.308594 0 45.898438 20.589844 45.898438 45.898437zm0 0"/><path d="m432.222656 271.199219h-352.445312c-10.949219 0-19.863282 8.910156-19.863282 19.863281v141.171875c0 10.949219 8.914063 19.863281 19.863282 19.863281h352.441406c10.953125 0 19.863281-8.914062 19.863281-19.863281v-141.171875c.003907-10.953125-8.910156-19.863281-19.859375-19.863281zm-191.484375 142.539062c.054688-.035156.109375-.070312.164063-.105469 4.351562-2.84375 9.535156-4.492187 15.097656-4.492187 9.84375 0 18.507812 5.171875 23.445312 12.957031h-46.890624c2.113281-3.332031 4.90625-6.183594 8.183593-8.359375zm181.347657 8.359375h-110.253907c-6.609375-24.710937-29.136719-42.957031-55.832031-42.957031-8.105469 0-15.824219 1.679687-22.828125 4.710937l-81.617187-50.496093c-7.046876-4.359375-16.289063-2.179688-20.648438 4.863281-4.359375 7.046875-2.183594 16.289062 4.863281 20.648438l72.851563 45.074218c-3.800782 5.445313-6.691406 11.570313-8.453125 18.15625h-110.253907v-120.898437h332.171876zm0 0"/><path d="m232.597656 244.980469h46.804688c8.285156 0 15-6.714844 15-15 0-8.28125-6.714844-15-15-15h-46.804688c-8.285156 0-15 6.71875-15 15 0 8.285156 6.714844 15 15 15zm0 0"/><path d="m113.929688 244.980469h46.804687c8.285156 0 15-6.714844 15-15 0-8.28125-6.714844-15-15-15h-46.804687c-8.285157 0-15 6.71875-15 15 0 8.285156 6.714843 15 15 15zm0 0"/><path d="m351.265625 244.980469h46.804687c8.285157 0 15-6.714844 15-15 0-8.28125-6.714843-15-15-15h-46.804687c-8.285156 0-15 6.71875-15 15 0 8.285156 6.714844 15 15 15zm0 0"/></svg>