<?xml version="1.0" encoding="iso-8859-1"?>
<!-- Generator: Adobe Illustrator 21.0.0, SVG Export Plug-In . SVG Version: 6.00 Build 0)  -->
<svg xmlns="http://www.w3.org/2000/svg" xmlns:xlink="http://www.w3.org/1999/xlink" version="1.1" id="Capa_1" x="0px" y="0px" viewBox="0 0 512 512" style="enable-background:new 0 0 512 512;" xml:space="preserve" width="512" height="512">
<g>
	<path d="M76.492,227.432c-8.467,0-15.373,6.906-15.373,15.373c0,8.468,6.906,15.373,15.373,15.373   c8.467,0,15.373-6.906,15.373-15.373C91.865,234.337,84.959,227.432,76.492,227.432z"/>
	<path d="M371,157c-2.526,0-5.035,0.07-7.529,0.202c-9.205-17.606-26.343-50.287-26.343-50.287C325.96,85.679,305.158,73,281.483,73   H119.247c-23.657,0-44.452,12.665-55.626,33.879c-6.564,12.461-43.111,80.532-46.73,87.375   C6.192,205.6,0.052,220.894,0.028,237.805L0,342.696c0,20.977,17.065,38.042,38.042,38.042h46.153   c20.977,0,38.042-17.065,38.042-38.042v-23.45H231.6C241.875,386.95,300.472,439,371,439c77.748,0,141-63.252,141-141   S448.748,157,371,157z M90.164,120.86C96.143,109.51,106.743,103,119.247,103h162.236c12.514,0,23.117,6.517,29.093,17.879   c0,0,14.243,27.118,21.785,41.504c-4.537,1.294-8.98,2.813-13.319,4.539c-49.184-9.476-106.241-11.781-118.504-11.781   c-51.478,0-100.431,5.799-136.906,15.885C66.191,166.313,83.603,133.314,90.164,120.86z M92.237,342.696   c0,4.359-3.683,8.042-8.042,8.042H38.042c-4.359,0-8.042-3.683-8.042-8.042v-32.239c9.357,5.725,20.06,8.789,31.18,8.789h31.058   V342.696z M61.18,289.246c-7.999,0-15.62-3.221-21.46-9.069c-6.28-6.289-9.731-14.735-9.719-23.782l0.027-18.546   c0.02-14.047,7.423-25.484,19.804-30.597c33.526-13.846,89.865-22.111,150.706-22.111c13.312,0,45.46,1.635,78.723,5.874   c-12.117,10.405-22.456,22.824-30.484,36.739H137.993c-8.284,0-15,6.716-15,15s6.716,15,15,15h97.869   c-3.006,10.075-4.912,20.618-5.582,31.492H61.18z M371,409c-61.206,0-111-49.794-111-111s49.794-111,111-111s111,49.794,111,111   S432.206,409,371,409z"/>
</g>
<g>
	<path d="M421.124,363.124c-3.839,0-7.678-1.465-10.606-4.394l-50.124-50.124C357.58,305.794,356,301.979,356,298v-70.815   c0-8.284,6.716-15,15-15s15,6.716,15,15v64.603l45.73,45.73c5.858,5.857,5.858,15.355,0,21.213   C428.802,361.659,424.963,363.124,421.124,363.124z"/>
</g>















</svg>
