<svg id="Capa_1" enable-background="new 0 0 512 512" height="512" viewBox="0 0 512 512" width="512" xmlns="http://www.w3.org/2000/svg"><g><path d="m187.143 275.429c-46.238 0-83.856 37.618-83.856 83.857s37.618 83.857 83.856 83.857c46.239 0 83.857-37.618 83.857-83.857s-37.618-83.857-83.857-83.857zm0 137.714c-29.696 0-53.856-24.16-53.856-53.857s24.16-53.857 53.856-53.857c29.697 0 53.857 24.16 53.857 53.857s-24.16 53.857-53.857 53.857z"/><path d="m393.714 68.857c-27.255 0-49.428 22.174-49.428 49.429s22.173 49.429 49.428 49.429 49.429-22.174 49.429-49.429-22.174-49.429-49.429-49.429zm0 68.857c-10.713 0-19.428-8.716-19.428-19.429s8.715-19.429 19.428-19.429 19.429 8.716 19.429 19.429-8.716 19.429-19.429 19.429z"/><path d="m393.714 0h-309.857c-46.239 0-83.857 37.618-83.857 83.857 0 6.742 34.442 276.465 34.442 276.465.56 83.731 68.84 151.678 152.701 151.678 56.022 0 105.086-30.328 131.661-75.422l.02.013 163.969-240.568c18.177-20.804 29.207-48.005 29.207-77.737 0-65.223-53.062-118.286-118.286-118.286zm-309.857 30c29.696 0 53.856 24.16 53.856 53.857s-24.16 53.857-53.856 53.857c-29.697 0-53.857-24.16-53.857-53.857s24.16-53.857 53.857-53.857zm103.286 452c-67.665 0-122.714-55.049-122.714-122.714s55.049-122.714 122.714-122.714 122.715 55.049 122.715 122.714-55.05 122.714-122.715 122.714zm152.563-129.313c-3.469-81.157-70.568-146.116-152.563-146.116-56.368 0-105.697 30.701-132.155 76.257l-16.025-128.198c12.991 8.27 28.386 13.084 44.894 13.084 46.238 0 83.856-37.618 83.856-83.857 0-20.489-7.397-39.276-19.647-53.857h167.018c-24.316 21.68-39.656 53.222-39.656 88.286 0 65.223 53.063 118.286 118.285 118.286 9.396 0 18.538-1.107 27.308-3.188zm54.008-146.116c-48.681 0-88.285-39.605-88.285-88.286s39.604-88.285 88.285-88.285c48.682 0 88.286 39.605 88.286 88.286s-39.604 88.285-88.286 88.285z"/><path d="m68.857 68.857h30v30h-30z"/></g></svg>