<svg id="Layer_1" enable-background="new 0 0 512 512" height="512" viewBox="0 0 512 512" width="512" xmlns="http://www.w3.org/2000/svg"><g><path d="m450.634 102.371c-37.543-42.71-88.504-71.086-144.168-80.467-8.967-13.208-24.105-21.904-41.237-21.904-15.592 0-29.527 7.206-38.667 18.457h-226.562v90.131h74.557c-36.227 44.065-56.1 99.362-56.1 156.641 0 65.915 25.669 127.885 72.277 174.494 46.61 46.608 108.579 72.277 174.495 72.277 59.468 0 116.66-21.536 161.209-59.948l5.304 59.948h70.385l9.873-111.579v-135.192c0-60.002-21.793-117.839-61.366-162.858zm-22.532 19.807c34.756 39.54 53.898 90.343 53.898 143.051v119.53h-30.131v-119.53c0-43.19-15.156-85.334-42.676-118.666-24.445-29.608-57.527-51.031-94.156-61.214v-31.13c43.563 10.26 83.153 33.931 113.065 67.959zm-66.364 143.051c0 53.216-43.294 96.51-96.51 96.51s-96.51-43.294-96.51-96.51c0-40.794 25.681-76.891 63.433-90.664 8.804 7.837 20.391 12.611 33.077 12.611s24.273-4.774 33.077-12.611c37.753 13.772 63.433 49.87 63.433 90.664zm-145.068-116.813c-46.63 19.387-77.952 65.234-77.952 116.812 0 69.758 56.752 126.51 126.51 126.51s126.51-56.752 126.51-126.51c0-51.578-31.322-97.426-77.952-116.812.809-3.557 1.25-7.251 1.25-11.049v-20.657c62.891 21.141 106.832 80.856 106.832 148.518 0 86.372-70.269 156.641-156.641 156.641s-156.641-70.269-156.641-156.641c0-67.627 43.952-127.371 106.832-148.517v20.656c.002 3.798.443 7.493 1.252 11.049zm28.75-98.607c0-10.923 8.886-19.809 19.809-19.809s19.809 8.886 19.809 19.809v87.559c0 10.923-8.886 19.809-19.809 19.809s-19.809-8.886-19.809-19.809zm-215.42-1.352h117.263c-15.468 8.43-30.049 18.519-43.466 30.131h-73.797zm235.229 433.543c-57.901 0-112.338-22.548-153.28-63.491-40.943-40.942-63.491-95.379-63.491-153.28 0-52.708 19.141-103.51 53.897-143.05 29.911-34.029 69.503-57.7 113.065-67.96v31.128c-36.674 10.195-69.794 31.665-94.245 61.324-27.463 33.314-42.587 75.419-42.587 118.559 0 102.914 83.727 186.641 186.641 186.641 65.568 0 123.34-33.991 156.641-85.273v33.825l1.185 13.394c-40.901 43.407-98.054 68.183-157.826 68.183zm193.976 0-5.95-67.241h27.359l-5.95 67.241z"/></g></svg>