<?xml version="1.0" encoding="iso-8859-1"?>
<!-- Generator: Adobe Illustrator 19.0.0, SVG Export Plug-In . SVG Version: 6.00 Build 0)  -->
<svg version="1.1" id="Capa_1" xmlns="http://www.w3.org/2000/svg" xmlns:xlink="http://www.w3.org/1999/xlink" x="0px" y="0px"
	 viewBox="0 0 511.99 511.99" style="enable-background:new 0 0 511.99 511.99;" xml:space="preserve">
<g>
	<g>
		<path d="M374.661,180.287c-15.921-22.064-27.992-46.086-36.018-71.62h13.352V0h-192v108.667h13.262
			c-8.073,25.514-20.215,49.679-36.234,72.044c-18.994,26.522-28.389,57.864-27.167,90.637c1.403,37.649,17.18,72.924,44.423,99.325
			c27.231,26.391,62.98,41.07,100.663,41.337c0.355,0.002,0.709,0.003,1.063,0.003c38.875,0,75.428-15.057,103.032-42.467
			c27.858-27.662,43.201-64.518,43.201-103.776C402.238,234.848,392.702,205.288,374.661,180.287z M189.995,30h132v48.667h-132V30z
			 M337.898,348.258c-21.942,21.789-50.995,33.757-81.899,33.755c-0.279,0-0.565-0.001-0.846-0.003
			c-62.344-0.44-112.998-49.539-115.318-111.78c-0.972-26.068,6.49-50.984,21.578-72.052c19.75-27.574,34.235-57.636,43.149-89.512
			h102.794c8.878,31.964,23.306,61.913,42.977,89.175c14.331,19.858,21.905,43.348,21.905,67.928
			C372.238,296.975,360.043,326.27,337.898,348.258z"/>
	</g>
</g>
<g>
	<g>
		<rect x="240.805" y="448.51" width="30" height="63.48"/>
	</g>
</g>
<g>
	<g>
		<rect x="382.878" y="397.339" transform="matrix(0.7491 -0.6625 0.6625 0.7491 -184.421 371.2522)" width="30" height="63.482"/>
	</g>
</g>
<g>
	<g>
		<rect x="448.684" y="270.887" transform="matrix(0.1223 -0.9925 0.9925 0.1223 106.6206 725.8188)" width="30" height="63.48"/>
	</g>
</g>
<g>
	<g>
		<rect x="82.394" y="414.094" transform="matrix(0.6625 -0.7491 0.7491 0.6625 -282.9023 230.323)" width="63.482" height="30"/>
	</g>
</g>
<g>
	<g>
		<rect x="16.566" y="287.603" transform="matrix(0.9925 -0.1223 0.1223 0.9925 -36.6455 8.1794)" width="63.48" height="30"/>
	</g>
</g>
<g>
</g>
<g>
</g>
<g>
</g>
<g>
</g>
<g>
</g>
<g>
</g>
<g>
</g>
<g>
</g>
<g>
</g>
<g>
</g>
<g>
</g>
<g>
</g>
<g>
</g>
<g>
</g>
<g>
</g>
</svg>
