<svg id="Capa_1" enable-background="new 0 0 512 512" height="512" viewBox="0 0 512 512" width="512" xmlns="http://www.w3.org/2000/svg"><g><path d="m422 0v30h-332v-30h-90v271h90v-30h332v30h90v-271zm-362 241h-30v-211h30zm30-181h135.287l-38.832 49.813 73.541 55.33-15.44 45.857h-154.556zm186.211 151 19.126-56.809-66.459-50.004 34.448-44.187h158.674v151zm205.789 30h-30v-211h30z"/><path d="m264.612 346.605c0-14.32-5.577-27.783-15.703-37.909l-37.909-37.909-37.909 37.909c-10.126 10.126-15.703 23.589-15.703 37.909 0 29.562 24.05 53.612 53.612 53.612s53.612-24.05 53.612-53.612zm-53.612 23.613c-13.02 0-23.612-10.593-23.612-23.612 0-6.307 2.456-12.236 6.916-16.696l16.696-16.697 16.696 16.696c4.459 4.46 6.916 10.39 6.916 16.696 0 13.02-10.592 23.613-23.612 23.613z"/><path d="m301 382.569-37.909 37.909c-10.126 10.126-15.703 23.589-15.703 37.909 0 29.562 24.05 53.612 53.612 53.612s53.612-24.051 53.612-53.612c0-14.32-5.577-27.783-15.703-37.909zm0 99.431c-13.02 0-23.612-10.593-23.612-23.612 0-6.307 2.456-12.236 6.916-16.696l16.696-16.697 16.696 16.696c4.459 4.46 6.916 10.39 6.916 16.696 0 13.02-10.592 23.613-23.612 23.613z"/></g></svg>