<svg height="512pt" viewBox="0 -22 512 512" width="512pt" xmlns="http://www.w3.org/2000/svg"><path d="m512 30h-90v-30h-76c-19.554688 0-36.226562 12.539062-42.421875 30h-95.15625c-6.195313-17.460938-22.867187-30-42.421875-30h-76v30h-90v180h90v30h76c19.554688 0 36.226562-12.539062 42.421875-30h95.15625c6.195313 17.460938 22.867187 30 42.421875 30h76v-30h90zm-241 30h30v120h-30zm-30 120h-30v-120h30zm-211 0v-120h60v120zm151 15c0 8.269531-6.730469 15-15 15h-46v-180h46c8.269531 0 15 6.730469 15 15zm211 15h-46c-8.269531 0-15-6.730469-15-15v-150c0-8.269531 6.730469-15 15-15h46zm90-30h-60v-120h60zm0 0"/><path d="m256 246.472656-64.570312 104.453125c-7.476563 12.027344-11.429688 25.882813-11.429688 40.074219 0 41.90625 34.09375 76 76 76s76-34.09375 76-76c0-14.191406-3.949219-28.046875-11.40625-40.042969zm0 190.527344c-25.363281 0-46-20.636719-46-46 0-8.585938 2.386719-16.96875 6.925781-24.269531l39.074219-63.203125 39.09375 63.234375c4.519531 7.269531 6.90625 15.648437 6.90625 24.238281 0 25.363281-20.636719 46-46 46zm0 0"/></svg>