<?xml version="1.0" encoding="iso-8859-1"?>
<!-- Generator: Adobe Illustrator 19.0.0, SVG Export Plug-In . SVG Version: 6.00 Build 0)  -->
<svg version="1.1" id="Capa_1" xmlns="http://www.w3.org/2000/svg" xmlns:xlink="http://www.w3.org/1999/xlink" x="0px" y="0px"
	 viewBox="0 0 512 512" style="enable-background:new 0 0 512 512;" xml:space="preserve">
<g>
	<g>
		<path d="M122,54V0H20v54H0v388.676L61.236,512h19.528L142,442.676V54H122z M50,30h42v24H50V30z M30,138h26v258.008
			C51.896,394.704,47.53,394,43,394c-4.53,0-8.896,0.704-13,2.008V138z M71,477.739l-40.116-45.414
			C32.767,427.462,37.481,424,43,424c7.168,0,13,5.832,13,13h30c0-7.168,5.832-13,13-13c5.519,0,10.233,3.462,12.116,8.324
			L71,477.739z M112,396.008c-4.104-1.304-8.47-2.008-13-2.008c-4.53,0-8.896,0.704-13,2.008V138h26V396.008z M112,108H30V84h82V108
			z"/>
	</g>
</g>
<g>
	<g>
		<path d="M309,30h-4.035C295.845,12.21,277.327,0,256,0c-30.327,0-55,24.673-55,55v206h11v174h10.751L212,458.765v13.991
			L247.319,512h17.36L300,472.756v-13.835L289.748,435H300V261h11V60.087C323.853,61.11,334,71.889,334,85v171h30V85
			C364,54.673,339.327,30,309,30z M256,476.799l-12.798-14.22L255.678,435h1.431l11.778,27.481L256,476.799z M270,405h-28V261h28
			V405z M281,231h-50V55c0-13.785,11.215-25,25-25c13.785,0,25,11.215,25,25V231z"/>
	</g>
</g>
<g>
	<g>
		<path d="M512,233.976l-28.268-206.05C481.692,11.998,468.068,0,452,0c-16.067,0-29.69,11.997-31.731,27.922L392,233.976v42.054
			l19.866,144.031L399.926,512h104.148l-11.94-91.939L512,276.03V233.976z M434.074,482l6.104-47h23.645l6.104,47H434.074z
			 M482,273.971L463.927,405h-23.854L422,273.971V270h60V273.971z M482,240h-60v-3.976l28-204.101l0.023-0.179
			C450.148,30.75,450.998,30,452,30s1.852,0.75,1.976,1.745L482,236.024V240z"/>
	</g>
</g>
<g>
</g>
<g>
</g>
<g>
</g>
<g>
</g>
<g>
</g>
<g>
</g>
<g>
</g>
<g>
</g>
<g>
</g>
<g>
</g>
<g>
</g>
<g>
</g>
<g>
</g>
<g>
</g>
<g>
</g>
</svg>
