<svg id="Capa_1" enable-background="new 0 0 512 512" height="512" viewBox="0 0 512 512" width="512" xmlns="http://www.w3.org/2000/svg"><g><path d="m437.02 74.98c-48.353-48.351-112.64-74.98-181.02-74.98s-132.667 26.629-181.02 74.98c-48.351 48.353-74.98 112.64-74.98 181.02 0 45.002 11.853 89.274 34.275 128.029l7.505 12.971.399-.23c21.505 32.594 50.297 60.046 84.012 79.92 39.191 23.1 84.078 35.31 129.809 35.31s90.618-12.21 129.809-35.311c33.716-19.874 62.507-47.326 84.012-79.92l.399.23 7.505-12.971c22.422-38.754 34.275-83.026 34.275-128.028 0-68.38-26.629-132.667-74.98-181.02zm6.69 166.02c-1.854-23.407-8.007-45.621-17.667-65.854l32.716-18.889c12.773 25.86 20.739 54.497 22.73 84.743zm.014-110.703-32.728 18.895c-13.014-18.827-29.362-35.175-48.189-48.189l18.895-32.728c24.479 16.445 45.578 37.544 62.022 62.022zm-268.578-44.341-18.889-32.716c25.86-12.773 54.497-20.739 84.743-22.73v37.78c-23.407 1.853-45.621 8.007-65.854 17.666zm95.854-55.446c30.246 1.992 58.883 9.957 84.743 22.73l-18.889 32.716c-20.233-9.659-42.447-15.813-65.854-17.666zm-140.703 37.766 18.895 32.728c-18.827 13.014-35.175 29.362-48.189 48.189l-32.728-18.895c16.445-24.479 37.544-45.578 62.022-62.022zm-62.007 172.724h-37.78c1.992-30.246 9.957-58.883 22.73-84.743l32.716 18.889c-9.659 20.233-15.812 42.447-17.666 65.854zm-37.773 30h37.781c1.824 22.874 7.796 45.231 17.615 65.879l-32.739 18.902c-13.002-26.42-20.698-55.27-22.657-84.781zm225.483 211c-75.399 0-146.041-38.059-187.804-100.251l58.198-33.6-7.52-12.996c-13.857-23.947-21.182-51.318-21.182-79.153 0-87.292 71.017-158.308 158.308-158.308s158.308 71.016 158.308 158.308c0 27.835-7.324 55.206-21.182 79.153l-7.52 12.996 58.198 33.6c-41.763 62.192-112.405 100.251-187.804 100.251zm202.826-126.219-32.739-18.902c9.818-20.648 15.79-43.005 17.615-65.879h37.781c-1.959 29.511-9.655 58.361-22.657 84.781z"/><path d="m232.208 295.524c7.725 4.393 16.268 6.633 24.919 6.633 4.499 0 9.029-.606 13.485-1.832 13.023-3.581 23.873-12.02 30.55-23.761 13.783-24.238 5.277-55.17-18.96-68.954-19.699-11.202-43.82-7.68-59.564 7.044l-62.535-35.561-14.83 26.078 62.534 35.561c-4.605 21.059 4.702 43.589 24.401 54.792zm7.118-54.123c3.786-6.658 10.753-10.397 17.914-10.397 3.442 0 6.932.865 10.132 2.685 9.858 5.606 13.317 18.188 7.712 28.046-2.716 4.775-7.129 8.208-12.426 9.664-5.296 1.458-10.845.763-15.62-1.953s-8.208-7.128-9.664-12.426c-1.457-5.297-.764-10.844 1.952-15.619z"/><path d="m179 424h154v-89.5h-154zm30-59.5h94v29.5h-94z"/></g></svg>