<svg id="Capa_1" enable-background="new 0 0 512 512" height="512" viewBox="0 0 512 512" width="512" xmlns="http://www.w3.org/2000/svg"><g><path d="m271.856 200.988v-52.653h57.741v-64.41h-30.105v34.305h-27.636v-34.305h-30.105v34.305h-27.636v-34.305h-30.105v117.063h30.105v-52.653h27.636v52.653z"/><path d="m299.492 171.074h30.105v29.914h-30.105z"/><path d="m429.81 481.895v-21.151c0-21.188-17.238-38.426-38.426-38.426h-82.764v-136.924c55.451-21.239 94.931-75.014 94.931-137.844 0-81.359-66.192-147.55-147.551-147.55s-147.551 66.191-147.551 147.55c0 62.83 39.48 116.605 94.931 137.844v136.924h-82.764c-21.188 0-38.426 17.238-38.426 38.426v21.151h-35.868v30.105h419.356v-30.105zm-291.256-334.345c0-64.76 52.686-117.445 117.446-117.445s117.446 52.686 117.446 117.445-52.686 117.445-117.446 117.445-117.446-52.685-117.446-117.445zm94.932 145.835c7.342 1.129 14.861 1.716 22.514 1.716s15.172-.587 22.514-1.716v128.933h-45.028zm-121.19 167.359c0-4.588 3.733-8.321 8.321-8.321h270.767c4.588 0 8.321 3.733 8.321 8.321v21.151h-287.409z"/></g></svg>