<?xml version="1.0" encoding="iso-8859-1"?>
<!-- Generator: Adobe Illustrator 19.0.0, SVG Export Plug-In . SVG Version: 6.00 Build 0)  -->
<svg version="1.1" id="Capa_1" xmlns="http://www.w3.org/2000/svg" xmlns:xlink="http://www.w3.org/1999/xlink" x="0px" y="0px"
	 viewBox="0 0 512 512" style="enable-background:new 0 0 512 512;" xml:space="preserve">
<path style="fill:#FFC66C;" d="M298.517,57.031H89.483C67.677,57.031,50,74.708,50,96.514v150.454h288V96.514
	C338,74.708,320.323,57.031,298.517,57.031z"/>
<rect x="52.701" y="115.03" style="fill:#ADE5FF;" width="285.3" height="131.94"/>
<path style="fill:#FFC66C;" d="M324.617,246.969H64.914c-23.278,0-42.149,18.871-42.149,42.149v103.914h344V289.117
	C366.765,265.839,347.895,246.969,324.617,246.969z"/>
<g>
	<circle style="fill:#FFFFFF;" cx="297.99" cy="315.22" r="22"/>
	<circle style="fill:#FFFFFF;" cx="91.54" cy="315.22" r="22"/>
</g>
<g>
	<path style="fill:#898998;" d="M63.048,454.969L63.048,454.969c-13.255,0-24-10.745-24-24v-37.938h48v37.938
		C87.048,444.224,76.303,454.969,63.048,454.969z"/>
	<path style="fill:#898998;" d="M326.482,454.969L326.482,454.969c-13.255,0-24-10.745-24-24v-37.938h48v37.938
		C350.482,444.224,339.737,454.969,326.482,454.969z"/>
</g>
<circle style="fill:#FF5D5D;" cx="450" cy="109.03" r="52"/>
<path d="M362.281,153.842H348V96.514c0-27.285-22.198-49.483-49.483-49.483H89.483C62.198,47.031,40,69.229,40,96.514v57.328H25.719
	C11.537,153.842,0,165.379,0,179.561v51.689c0,13.587,10.592,24.74,23.953,25.651c-6.997,8.876-11.187,20.063-11.187,32.216v103.914
	c0,5.523,4.478,10,10,10h6.282v27.938c0,18.748,15.252,34,34,34s34-15.252,34-34v-27.938h195.435v27.938c0,18.748,15.252,34,34,34
	s34-15.252,34-34v-27.938h6.283c5.522,0,10-4.477,10-10V289.117c0-12.216-4.233-23.455-11.295-32.353
	c12.681-1.576,22.53-12.413,22.53-25.514v-51.689C388,165.379,376.463,153.842,362.281,153.842z M32.766,383.031v-93.914
	c0-17.727,14.422-32.148,32.148-32.148h259.702c17.728,0,32.149,14.422,32.149,32.148v93.914H32.766z M129.962,182.469
	c1.953,1.953,4.512,2.929,7.071,2.929s5.118-0.976,7.071-2.929l57.438-57.438h70.85L160.454,236.969H60v-73.127v-38.811h113.257
	l-43.295,43.295C126.057,172.231,126.057,178.563,129.962,182.469z M328,163.842v73.127H188.739l111.938-111.938H328V163.842z
	 M89.483,67.031h209.033c16.257,0,29.483,13.226,29.483,29.483v8.517H60v-8.517C60,80.257,73.227,67.031,89.483,67.031z M20,231.25
	v-51.689c0-3.153,2.565-5.719,5.719-5.719H40v63.127H25.719C22.565,236.969,20,234.403,20,231.25z M77.048,430.969
	c0,7.72-6.28,14-14,14s-14-6.28-14-14v-27.938h28V430.969z M340.482,430.969c0,7.72-6.28,14-14,14s-14-6.28-14-14v-27.938h28
	V430.969z M368,231.25c0,3.153-2.565,5.719-5.719,5.719H348v-63.127h14.281c3.153,0,5.719,2.565,5.719,5.719V231.25z"/>
<path d="M108.21,194.22c-2.63,0-5.21,1.07-7.07,2.93s-2.93,4.44-2.93,7.07s1.069,5.21,2.93,7.07c1.86,1.86,4.44,2.93,7.07,2.93
	c2.64,0,5.21-1.07,7.069-2.93c1.87-1.86,2.931-4.44,2.931-7.07s-1.061-5.21-2.931-7.07C113.42,195.29,110.84,194.22,108.21,194.22z"
	/>
<path d="M297.994,283.219c-17.645,0-32,14.355-32,32s14.355,32,32,32s32-14.355,32-32S315.639,283.219,297.994,283.219z
	 M297.994,327.219c-6.617,0-12-5.383-12-12s5.383-12,12-12s12,5.383,12,12S304.611,327.219,297.994,327.219z"/>
<path d="M235,327.219h-80.322c-5.522,0-10,4.477-10,10s4.478,10,10,10H235c5.522,0,10-4.477,10-10S240.522,327.219,235,327.219z"/>
<path d="M235,283.219h-80.322c-5.522,0-10,4.477-10,10s4.478,10,10,10H235c5.522,0,10-4.477,10-10S240.522,283.219,235,283.219z"/>
<path d="M178.382,96.409h31.158c5.522,0,10-4.477,10-10c0-5.523-4.478-10-10-10h-31.158c-5.522,0-10,4.477-10,10
	C168.382,91.932,172.859,96.409,178.382,96.409z"/>
<path d="M450,171.031c34.187,0,62-27.813,62-62s-27.813-62-62-62s-62,27.813-62,62S415.813,171.031,450,171.031z M450,67.031
	c23.159,0,42,18.841,42,42s-18.841,42-42,42s-42-18.841-42-42S426.841,67.031,450,67.031z"/>
<path d="M442.93,198.33c-1.86,1.87-2.93,4.44-2.93,7.08c0,2.63,1.069,5.2,2.93,7.07c1.86,1.86,4.44,2.93,7.07,2.93
	s5.21-1.07,7.069-2.93c1.86-1.87,2.931-4.44,2.931-7.07c0-2.64-1.07-5.21-2.931-7.08c-1.859-1.86-4.439-2.92-7.069-2.92
	S444.79,196.47,442.93,198.33z"/>
<path d="M490,444.969h-30V245.031c0-5.523-4.478-10-10-10s-10,4.477-10,10v199.938h-30c-5.522,0-10,4.477-10,10s4.478,10,10,10h80
	c5.522,0,10-4.477,10-10S495.522,444.969,490,444.969z"/>
<path d="M91.536,283.219c-17.645,0-32,14.355-32,32s14.355,32,32,32s32-14.355,32-32S109.181,283.219,91.536,283.219z
	 M91.536,327.219c-6.617,0-12-5.383-12-12s5.383-12,12-12s12,5.383,12,12S98.153,327.219,91.536,327.219z"/>
<g>
</g>
<g>
</g>
<g>
</g>
<g>
</g>
<g>
</g>
<g>
</g>
<g>
</g>
<g>
</g>
<g>
</g>
<g>
</g>
<g>
</g>
<g>
</g>
<g>
</g>
<g>
</g>
<g>
</g>
</svg>
