<?xml version="1.0" encoding="iso-8859-1"?>
<!-- Generator: Adobe Illustrator 19.0.0, SVG Export Plug-In . SVG Version: 6.00 Build 0)  -->
<svg version="1.1" id="Capa_1" xmlns="http://www.w3.org/2000/svg" xmlns:xlink="http://www.w3.org/1999/xlink" x="0px" y="0px"
	 viewBox="0 0 511.999 511.999" style="enable-background:new 0 0 511.999 511.999;" xml:space="preserve">
<path style="fill:#ECEFF0;" d="M190.948,502H323.25c11.417,0,20.672-9.255,20.672-20.672v-74.937v-29.975v-75.971V270.47V194.5
	v-29.975v-6.719c0-11.417-9.255-20.672-20.672-20.672h-21.706h-88.891h-21.706c-11.417,0-20.672,9.255-20.672,20.672v323.521
	C170.275,492.745,179.531,502,190.948,502z M257.099,164.525c23.405,0,42.378,18.973,42.378,42.378s-18.973,42.378-42.378,42.378
	s-42.378-18.973-42.378-42.378C214.721,183.499,233.694,164.525,257.099,164.525z M257.099,277.189
	c23.405,0,42.378,18.973,42.378,42.378s-18.973,42.378-42.378,42.378s-42.378-18.973-42.378-42.378
	C214.721,296.162,233.694,277.189,257.099,277.189z M257.099,389.853c23.405,0,42.378,18.973,42.378,42.378
	s-18.973,42.378-42.378,42.378s-42.378-18.973-42.378-42.378S233.694,389.853,257.099,389.853z"/>
<path style="fill:#BDC2C6;" d="M301.543,116.462c0-5.138-4.165-9.302-9.303-9.302h-7.752h-54.781h-7.752
	c-5.138,0-9.302,4.165-9.302,9.302v20.672h88.891v-20.672H301.543z"/>
<path style="fill:#3D96D2;" d="M284.49,101.942c0-15.127-12.263-27.391-27.391-27.391l0,0c-15.127,0-27.391,12.263-27.391,27.391
	v5.217h54.781v-5.217H284.49z"/>
<circle style="fill:#EC6575;" cx="257.098" cy="206.9" r="42.38"/>
<circle style="fill:#FFC766;" cx="257.098" cy="319.57" r="42.38"/>
<circle style="fill:#28B898;" cx="257.098" cy="432.23" r="42.38"/>
<g>
	<path style="fill:#3D96D2;" d="M371.236,194.5c11.392,0,21.13-8.202,23.065-19.429c0.95-5.509-3.293-10.546-8.883-10.546h-41.496
		V194.5H371.236z"/>
	<path style="fill:#3D96D2;" d="M371.236,300.445c11.392,0,21.13-8.202,23.065-19.429c0.95-5.509-3.293-10.546-8.883-10.546h-41.496
		v29.975H371.236z"/>
	<path style="fill:#3D96D2;" d="M371.236,406.391c11.392,0,21.13-8.202,23.065-19.429l0,0c0.95-5.509-3.293-10.546-8.883-10.546
		h-41.496v29.975H371.236z"/>
	<path style="fill:#3D96D2;" d="M140.76,194.5h29.314v-29.975h-43.496c-5.591,0-9.833,5.036-8.883,10.546
		C119.63,186.298,129.368,194.5,140.76,194.5z"/>
	<path style="fill:#3D96D2;" d="M140.76,300.445h29.314V270.47h-43.496c-5.591,0-9.833,5.036-8.883,10.546
		C119.63,292.243,129.368,300.445,140.76,300.445z"/>
	<path style="fill:#3D96D2;" d="M117.694,386.962c1.936,11.227,11.673,19.429,23.065,19.429h29.314v-29.975h-43.495
		C120.987,376.416,116.745,381.452,117.694,386.962L117.694,386.962z"/>
</g>
<path d="M257.099,259.282c28.881,0,52.378-23.497,52.378-52.378s-23.497-52.378-52.378-52.378s-52.378,23.497-52.378,52.378
	S228.217,259.282,257.099,259.282z M257.099,174.525c17.854,0,32.378,14.525,32.378,32.378c0,17.854-14.525,32.378-32.378,32.378
	s-32.378-14.525-32.378-32.378C224.721,189.05,239.246,174.525,257.099,174.525z"/>
<path d="M257.099,371.945c24.79,0,46.374-17.607,51.321-41.866c1.104-5.412-2.389-10.693-7.8-11.797
	c-5.408-1.105-10.693,2.389-11.797,7.8c-3.057,14.986-16.398,25.863-31.725,25.863c-17.853,0-32.378-14.525-32.378-32.378
	c0-17.854,14.525-32.378,32.378-32.378c2.1,0,4.198,0.201,6.241,0.599c0.542,0.105,1.08,0.225,1.612,0.357
	c5.359,1.328,10.784-1.936,12.115-7.296s-1.936-10.784-7.296-12.115c-0.872-0.216-1.752-0.411-2.611-0.578
	c-3.294-0.642-6.679-0.967-10.06-0.967c-28.881,0-52.378,23.497-52.378,52.378S228.217,371.945,257.099,371.945z"/>
<path d="M257.099,484.609c28.881,0,52.378-23.497,52.378-52.378s-23.497-52.378-52.378-52.378s-52.378,23.497-52.378,52.378
	S228.217,484.609,257.099,484.609z M257.099,399.853c17.854,0,32.378,14.525,32.378,32.378c0,17.854-14.525,32.378-32.378,32.378
	s-32.378-14.525-32.378-32.378C224.721,414.378,239.246,399.853,257.099,399.853z"/>
<path d="M126.578,366.416c-5.621,0-10.921,2.465-14.542,6.764s-5.15,9.941-4.195,15.481c2.77,16.067,16.615,27.729,32.92,27.729
	h19.516v64.937c0,16.913,13.76,30.672,30.672,30.672H323.25c16.913,0,30.672-13.76,30.672-30.672V416.39h17.314
	c16.305,0,30.15-11.662,32.92-27.73c0.955-5.539-0.574-11.182-4.195-15.48s-8.922-6.764-14.542-6.764h-31.496v-55.971h17.314
	c16.305,0,30.15-11.662,32.92-27.73c0.955-5.54-0.574-11.182-4.195-15.48s-8.922-6.764-14.542-6.764h-31.496V204.5h17.314
	c16.305,0,30.15-11.662,32.92-27.73c0.955-5.54-0.574-11.182-4.195-15.48s-8.922-6.764-14.542-6.764h-31.674
	c-1.643-15.375-14.691-27.391-30.495-27.391h-11.706v-10.672c0-9.987-7.625-18.226-17.359-19.204
	c-1.892-15.062-12.771-27.358-27.087-31.338V10c0-5.523-4.477-10-10-10c-5.523,0-10,4.477-10,10v55.921
	c-14.316,3.98-25.195,16.276-27.087,31.338c-9.734,0.978-17.359,9.217-17.359,19.204v10.672h-11.707
	c-15.804,0-28.852,12.016-30.495,27.391h-33.875c-5.621,0-10.921,2.465-14.542,6.764s-5.15,9.941-4.195,15.481
	c2.77,16.067,16.615,27.729,32.92,27.729h19.516v55.971h-33.699c-5.621,0-10.921,2.465-14.542,6.764s-5.15,9.941-4.195,15.481
	c2.77,16.067,16.615,27.729,32.92,27.729h19.516v55.971L126.578,366.416L126.578,366.416z M158.074,396.391H140.76
	c-6.146,0-11.421-4.13-12.96-9.975h30.274V396.391z M353.922,174.525h30.274c-1.539,5.845-6.814,9.975-12.96,9.975h-17.314V174.525z
	 M158.074,184.5H140.76c-6.146,0-11.422-4.129-12.96-9.975h30.274V184.5z M158.074,290.445H140.76
	c-6.146,0-11.422-4.129-12.96-9.975h30.274V290.445z M384.197,386.416c-1.539,5.845-6.814,9.975-12.96,9.975h-17.314v-9.975H384.197
	z M384.197,280.471c-1.539,5.845-6.814,9.975-12.96,9.975h-17.314v-9.975H384.197z M257.099,84.552
	c7.931,0,14.639,5.337,16.722,12.608h-33.445C242.459,89.889,249.168,84.552,257.099,84.552z M284.49,117.16h7.055v9.975h-68.891
	v-9.975h7.055H284.49z M180.275,157.807c0-5.885,4.788-10.672,10.672-10.672h21.706h88.891h21.706
	c5.885,0,10.672,4.788,10.672,10.672v6.719V194.5v75.971v29.975v75.971v29.975v74.937c0,5.885-4.788,10.672-10.672,10.672H190.948
	c-5.885,0-10.672-4.788-10.672-10.672V157.807H180.275z"/>
<path d="M286.589,288.875l-0.479,0.431c-4.107,3.693-4.443,10.016-0.75,14.123c1.975,2.196,4.702,3.314,7.44,3.314
	c2.382,0,4.772-0.846,6.683-2.563l0.479-0.431c4.107-3.693,4.443-10.016,0.75-14.123
	C297.018,285.518,290.695,285.182,286.589,288.875z"/>
<g>
</g>
<g>
</g>
<g>
</g>
<g>
</g>
<g>
</g>
<g>
</g>
<g>
</g>
<g>
</g>
<g>
</g>
<g>
</g>
<g>
</g>
<g>
</g>
<g>
</g>
<g>
</g>
<g>
</g>
</svg>
