<?xml version="1.0" encoding="iso-8859-1"?>
<!-- Generator: Adobe Illustrator 19.0.0, SVG Export Plug-In . SVG Version: 6.00 Build 0)  -->
<svg version="1.1" id="Capa_1" xmlns="http://www.w3.org/2000/svg" xmlns:xlink="http://www.w3.org/1999/xlink" x="0px" y="0px"
	 viewBox="0 0 512 512" style="enable-background:new 0 0 512 512;" xml:space="preserve">
<g>
	<g>
		<rect id="SVGCleanerId_0" x="64" y="373" style="fill:#898998;" width="384" height="60"/>
	</g>
	<g>
		<rect id="SVGCleanerId_0_1_" x="64" y="373" style="fill:#898998;" width="384" height="60"/>
	</g>
	<path style="fill:#898998;" d="M108.088,502L108.088,502c-15.464,0-28-12.536-28-28v-41h56v41
		C136.088,489.464,123.552,502,108.088,502z"/>
	<path style="fill:#898998;" d="M404,502L404,502c-15.464,0-28-12.536-28-28v-41h56v41C432,489.464,419.464,502,404,502z"/>
	<path style="fill:#898998;" d="M482,232L482,232c-11.046,0-20-8.954-20-20v-64c0-11.046,8.954-20,20-20l0,0
		c11.046,0,20,8.954,20,20v64C502,223.046,493.046,232,482,232z"/>
	<path style="fill:#898998;" d="M30,232L30,232c11.046,0,20-8.954,20-20v-64c0-11.046-8.954-20-20-20l0,0c-11.046,0-20,8.954-20,20
		v64C10,223.046,18.954,232,30,232z"/>
</g>
<path style="fill:#ADE5FF;" d="M375,10H137.088c-31.48,0-57,25.52-57,57v189H432V67C432,35.52,406.48,10,375,10z"/>
<path style="fill:#FFC66C;" d="M375,10H137.088c-31.48,0-57,25.52-57,57v7.063H432V67C432,35.52,406.48,10,375,10z"/>
<g>
	<rect id="SVGCleanerId_0_2_" x="64" y="373" style="fill:#FFB954;" width="384" height="60"/>
</g>
<path style="fill:#FFC66C;" d="M424.088,256H88c-13.255,0-24,10.745-24,24v93h384.088v-93C448.088,266.745,437.343,256,424.088,256z
	"/>
<g>
	<circle style="fill:#FFFFFF;" cx="140.09" cy="314.5" r="20"/>
	<circle style="fill:#FFFFFF;" cx="372" cy="314.5" r="20"/>
</g>
<rect x="204.13" y="294.5" style="fill:#FF5D5D;" width="104" height="40"/>
<path d="M492,119.72v-18.439c0-20.522-16.696-37.219-37.219-37.219h-12.856C440.381,28.477,410.959,0,375,0H137.088
	c-35.959,0-65.381,28.477-66.925,64.063H57.219C36.696,64.063,20,80.759,20,101.281v18.439C8.361,123.848,0,134.964,0,148v64
	c0,16.542,13.458,30,30,30s30-13.458,30-30v-64c0-13.036-8.361-24.152-20-28.28v-18.439c0-9.495,7.724-17.219,17.219-17.219h12.869
	v167.056C60.439,257.125,54,267.822,54,280v153c0,5.523,4.477,10,10,10h6.088v31c0,20.953,17.047,38,38,38s38-17.047,38-38v-31H366
	v31c0,20.953,17.047,38,38,38s38-17.047,38-38v-31h6c5.523,0,10-4.477,10-10l0.088-153c0-12.178-6.439-22.875-16.088-28.881V84.063
	h12.781c9.495,0,17.219,7.724,17.219,17.219v18.439c-11.639,4.128-20,15.243-20,28.28v64c0,16.542,13.458,30,30,30s30-13.458,30-30
	v-64C512,134.964,503.639,123.848,492,119.72z M40,212c0,5.514-4.486,10-10,10s-10-4.486-10-10v-64c0-5.514,4.486-10,10-10
	s10,4.486,10,10V212z M438.088,280v83H296.333c-5.523,0-10,4.477-10,10s4.477,10,10,10H438v40H74v-40h137c5.523,0,10-4.477,10-10
	s-4.477-10-10-10H74v-83c0-7.72,6.28-14,14-14h336.088C431.808,266,438.088,272.28,438.088,280z M90.088,84.063h95.875l-63.45,63.45
	c-3.905,3.905-3.905,10.237,0,14.143c1.953,1.953,4.512,2.929,7.071,2.929c2.559,0,5.119-0.976,7.071-2.929l77.593-77.593h31.756
	v21.918L105.984,246H90.088V84.063z M358.649,84.063l-38.293,38.293c-3.905,3.905-3.905,10.237,0,14.143
	c1.953,1.953,4.512,2.929,7.071,2.929s5.119-0.976,7.071-2.929l52.436-52.436H422v18.633c-0.085,0.079-0.175,0.15-0.258,0.233
	L278.671,246h-12.667V84.063H358.649z M134.27,246l111.734-111.734V246H134.27z M306.956,246L422,130.956V246H306.956z M137.088,20
	H375c24.929,0,45.376,19.511,46.899,44.063H90.189C91.712,39.511,112.159,20,137.088,20z M126.088,474c0,9.925-8.075,18-18,18
	s-18-8.075-18-18v-31h36V474z M422,474c0,9.925-8.075,18-18,18s-18-8.075-18-18v-31h36V474z M492,212c0,5.514-4.486,10-10,10
	s-10-4.486-10-10v-64c0-5.514,4.486-10,10-10s10,4.486,10,10V212z"/>
<path d="M298.14,168.72c2.63,0,5.21-1.07,7.07-2.93c1.86-1.87,2.93-4.44,2.93-7.07c0-2.64-1.07-5.21-2.93-7.07
	c-1.86-1.87-4.44-2.93-7.07-2.93s-5.21,1.06-7.07,2.93c-1.86,1.85-2.93,4.43-2.93,7.07c0,2.63,1.07,5.21,2.93,7.07
	C292.93,167.65,295.51,168.72,298.14,168.72z"/>
<path d="M256,363c-2.63,0-5.21,1.07-7.07,2.93S246,370.37,246,373s1.07,5.21,2.93,7.07c1.86,1.86,4.44,2.93,7.07,2.93
	s5.21-1.07,7.07-2.93S266,375.63,266,373s-1.07-5.21-2.93-7.07C261.21,364.07,258.63,363,256,363z"/>
<path d="M140.088,284.5c-16.542,0-30,13.458-30,30s13.458,30,30,30s30-13.458,30-30S156.63,284.5,140.088,284.5z M140.088,324.5
	c-5.514,0-10-4.486-10-10s4.486-10,10-10s10,4.486,10,10S145.602,324.5,140.088,324.5z"/>
<path d="M372,344.5c16.542,0,30-13.458,30-30s-13.458-30-30-30s-30,13.458-30,30S355.458,344.5,372,344.5z M372,304.5
	c5.514,0,10,4.486,10,10s-4.486,10-10,10s-10-4.486-10-10S366.486,304.5,372,304.5z"/>
<path d="M204.127,284.5c-5.523,0-10,4.477-10,10v40c0,5.523,4.477,10,10,10h104c5.523,0,10-4.477,10-10v-40c0-5.523-4.477-10-10-10
	H204.127z M298.127,324.5h-84v-20h84V324.5z"/>
<path d="M238.5,53h35c5.523,0,10-4.477,10-10s-4.477-10-10-10h-35c-5.523,0-10,4.477-10,10S232.977,53,238.5,53z"/>
<g>
</g>
<g>
</g>
<g>
</g>
<g>
</g>
<g>
</g>
<g>
</g>
<g>
</g>
<g>
</g>
<g>
</g>
<g>
</g>
<g>
</g>
<g>
</g>
<g>
</g>
<g>
</g>
<g>
</g>
</svg>
