<svg xmlns="http://www.w3.org/2000/svg" xmlns:xlink="http://www.w3.org/1999/xlink" version="1.1" x="0px" y="0px" viewBox="0 0 64 80" enable-background="new 0 0 64 64" xml:space="preserve"><g><path d="M11.176,11.69c-0.173,0.269-0.306,0.555-0.41,0.895c0.145-0.247,0.27-0.461,0.395-0.674   c0.011,0.005,0.021,0.011,0.031,0.016c-0.013,0.058-0.025,0.116-0.038,0.174c-0.003,0.011-0.005,0.022-0.008,0.033   c-0.355,1.564-0.445,3.176-0.29,4.772l0.327,3.366c0.032,0.331,0.052,0.662,0.075,0.994c0.109,1.638,0.803,3.185,2.102,4.701   c0.037,0.043,0.072,0.104,0.088,0.156c0.456,1.437,1.126,2.597,2.05,3.546c1.388,1.427,3.036,2.181,4.769,2.182h0.003   c1.725,0,3.366-0.748,4.747-2.165c0.885-0.907,1.54-2.016,2.005-3.39c0.051-0.152,0.149-0.321,0.266-0.464   c1.345-1.633,2.004-3.295,2.001-5.061c0-0.122,0-0.245,0.002-0.367l0.026-6.113c-0.03-0.203-0.06-0.408-0.09-0.617   c0.032,0.083,0.063,0.163,0.094,0.241c0.056,0.141,0.109,0.276,0.157,0.412c0.075,0.208,0.139,0.419,0.207,0.63   c0.005-0.04-0.001-0.076-0.008-0.112c-0.137-0.662-0.299-1.315-0.591-1.929c-0.023-0.048-0.045-0.097-0.066-0.145   c-0.001-0.001-0.001-0.002-0.001-0.002c-0.04-0.09-0.077-0.18-0.11-0.272c-0.097-0.262-0.192-0.524-0.288-0.787   c-0.072-0.199-0.145-0.399-0.217-0.598c-0.014-0.036-0.027-0.072-0.04-0.108c0.014-0.008,0.029-0.016,0.044-0.024   c0.246,0.389,0.493,0.777,0.739,1.166c-0.038-0.131-0.084-0.26-0.137-0.387c-0.223-0.542-0.511-1.04-0.945-1.445   c-0.091-0.084-0.174-0.178-0.242-0.281c-0.438-0.653-0.965-1.206-1.685-1.543c-0.021-0.011-0.042-0.02-0.063-0.029   c-0.331-0.147-0.665-0.286-0.998-0.429c-0.084-0.035-0.167-0.072-0.25-0.108c0.169,0.014,0.336,0.032,0.501,0.057   c0.942,0.14,1.832,0.456,2.695,0.865c-0.034-0.035-0.071-0.06-0.109-0.086c-1.037-0.7-2.195-1.051-3.424-1.196   c-0.048-0.005-0.095-0.011-0.143-0.015c-0.413-0.04-0.829-0.054-1.224-0.212c-0.154-0.062-0.32-0.095-0.482-0.137   c-0.187-0.048-0.374-0.094-0.561-0.14c-0.045-0.011-0.09-0.022-0.135-0.033c0.002-0.023,0.002-0.016,0.005-0.039h2.128   C24.06,6.948,24.04,6.935,24.02,6.932c-0.926-0.134-1.854-0.233-2.79-0.149c-0.321,0.029-0.637,0.043-0.957-0.001   c-0.14-0.02-0.284-0.025-0.426-0.037c-0.001-0.024-0.001-0.017-0.002-0.041c0.695-0.13,1.389-0.259,2.124-0.396   c-0.737,0.018-1.432,0.066-2.118,0.189c-0.383,0.068-0.758,0.191-1.144,0.241c-0.55,0.072-1.107,0.1-1.664,0.147   C18.144,6.361,19.322,6.134,20.522,6c-0.226,0.006-0.451-0.004-0.676,0.008c-0.831,0.043-1.656,0.141-2.462,0.361   c-0.668,0.183-1.301,0.438-1.847,0.88c-0.103,0.084-0.229,0.142-0.343,0.211c-0.011-0.017-0.023-0.035-0.035-0.053   c0.25-0.181,0.492-0.377,0.754-0.541c0.267-0.167,0.548-0.313,0.833-0.447c0.275-0.13,0.563-0.233,0.845-0.348   c-0.559,0.142-1.098,0.339-1.616,0.593c-1.028,0.505-1.802,1.347-2.69,2.035c-0.002,0.002-0.003,0.004-0.005,0.006   c-0.058,0.093-0.12,0.183-0.171,0.281c-0.075,0.143-0.132,0.297-0.217,0.433c-0.038,0.062-0.122,0.105-0.194,0.135   c-0.146,0.06-0.302,0.094-0.445,0.158c-0.766,0.343-1.217,0.943-1.408,1.75c0.183-0.367,0.416-0.696,0.755-0.994   c-0.092,0.316-0.168,0.597-0.257,0.873C11.302,11.466,11.245,11.582,11.176,11.69z M13.032,20.338l0.008-0.1   c0.007-0.086,0.016-0.205,0.029-0.281c0.428-0.143,0.681-0.553,0.696-1.132c0.01-0.412,0.013-0.828,0.017-1.23   c0.004-0.449,0.008-0.907,0.021-1.363c0-0.765,0.621-1.381,1.381-1.381c0.014,0,0.027,0,0.041,0.001l0.693,0.02   c0.571-0.047,1.147-0.041,1.722-0.048c0.514-0.007,1.028-0.002,1.542-0.002h1.515c0.551,0,1.103,0.002,1.654-0.001   c0.407-0.002,0.815-0.008,1.222-0.01c0.352-0.002,0.705-0.001,1.057-0.002c0.343-0.001,0.681-0.007,1.018,0.096   c0.389,0.118,0.68,0.348,0.847,0.707c0.108,0.23,0.158,0.488,0.232,0.726c0.004-0.005,0.008-0.01,0.012-0.014   c0.011,0.392,0.011,0.791,0.01,1.202c-0.001,0.358-0.002,0.727,0.006,1.095c0.002,0.098,0.002,0.197,0.001,0.303v0.207   c0,0.412,0.295,0.766,0.7,0.839c0.016,0.076,0.027,0.183,0.032,0.226c0.167,1.577-0.33,3.012-1.567,4.513   c-0.255,0.31-0.454,0.663-0.576,1.021c-0.378,1.117-0.9,2.007-1.596,2.721c-1.04,1.067-2.244,1.631-3.48,1.631h-0.002   c-1.243-0.001-2.453-0.57-3.5-1.647c-0.726-0.747-1.26-1.678-1.631-2.846c-0.088-0.277-0.241-0.551-0.431-0.773   C13.431,23.33,12.9,21.907,13.032,20.338z"/><path d="M39.719,54.5c0.059,0.813-0.003,0.922-0.754,1.205c-1.962,0.738-4.004,1.149-6.068,1.452   c-4.191,0.616-8.413,0.792-14.291,0.843c-1.74-0.105-5.125-0.249-8.499-0.531c-2.684-0.224-5.344-0.671-7.918-1.516   c-0.283-0.092-0.562-0.196-0.839-0.303c-0.585-0.226-0.661-0.335-0.628-0.968l1.015-9.935c0.651-5.378,3.77-8.36,8.964-9.431   c1.18-0.244,2.766-2.019,3.442-3.464c0.287,0.251,0.582,0.482,0.885,0.694l-0.525-0.425c1.695,1.367,3.65,2.086,5.723,2.092   c2.073-0.006,4.028-0.725,5.723-2.092l0.36-0.268c0.676,1.445,2.262,3.22,3.442,3.464c5.193,1.071,8.313,4.053,8.964,9.431   L39.719,54.5z"/><path d="M63.269,47.798c-0.1-1.385-0.423-9.074-0.972-10.346c-0.723-1.674-1.658-3.196-3.286-4.145   c-0.73-0.425-1.49-0.811-2.268-1.143c-1.177-0.503-2.365-0.98-3.551-1.464c1.333-0.042,2.628-0.358,3.614-0.731   c-0.084-0.034-0.145-0.062-0.208-0.085c-1.112-0.404-2.027-1.061-2.63-2.098c-0.277-0.477-0.469-0.974-0.594-1.485h0.542   c0.504,0.026,0.724-0.189,0.903-0.62c0.909-2.181,1.143-4.444,0.853-6.77c-0.343-2.753-1.203-5.291-2.914-7.443   c-0.048-0.072-0.098-0.144-0.15-0.214c-0.394-0.538-0.84-0.995-1.331-1.383c-0.833-0.788-1.763-1.453-2.931-1.615   c-0.6-0.083-1.208-0.136-1.819-0.164c-0.051-0.008-0.103-0.016-0.154-0.025c-0.52,0-1.04,0-1.56,0   c-0.016,0.004-0.033,0.008-0.049,0.013c-0.332,0.01-0.663,0.026-0.992,0.049c-1.477,0.105-2.712,0.773-3.788,1.703   c-0.558,0.42-1.043,0.907-1.435,1.48c-1.809,2.201-2.703,4.812-3.047,7.651c-0.285,2.351-0.054,4.641,0.927,6.819   c0.094,0.207,0.359,0.485,0.54,0.481h0.897c-0.47,1.708-1.5,2.968-3.269,3.637c-0.05,0.019-0.098,0.047-0.227,0.109   c1.254,0.39,2.479,0.681,3.662,0.7c-1.619,0.674-3.244,1.336-4.851,2.038c-0.392,0.171-0.751,0.378-1.095,0.601   c5.289,1.667,8.431,5.467,9.111,11.098l0.659,6.401c0.902,0.049,1.687,0.089,2.263,0.124c5.331-0.046,9.161-0.206,12.963-0.765   c1.871-0.275,3.724-0.647,5.503-1.317C63.266,48.634,63.322,48.536,63.269,47.798z M39.509,30.573   c0.903-0.193,1.776-0.601,2.613-1.313c0.661,0.373,1.276,0.746,1.913,1.076c1.022,0.53,2.066,0.537,3.096,0.018   c0.577-0.291,1.137-0.617,1.712-0.932c0.898,0.742,1.992,1.109,3.117,1.232C44.673,37.634,39.509,30.573,39.509,30.573z    M52.663,21.081c-0.562,3.049-2.254,5.794-4.779,7.593c-0.082,0.058-0.165,0.116-0.248,0.173c-1.418,0.965-2.62,0.756-4.118-0.033   c-6.047-3.186-4.28-12.212-4.28-12.212c0.074-0.669,0.198-1.3,0.357-1.89c0.11-0.41,0.482-0.705,0.906-0.688   c0.003,0,0.006,0,0.009,0c1.467,0.064,2.928-0.033,4.365-0.359c0.478-0.109,0.938-0.244,1.378-0.409   c0.302,0.227,0.615,0.445,0.935,0.657c0.833,0.551,1.682,1.1,2.42,1.763c0.745,0.667,1.362,1.477,2.038,2.227   c0.251-1.444-0.974-2.22-1.609-3.275c0.896,0.567,1.636,1.23,2.139,2.049l0.191,0.341c0.293,0.579,0.474,1.233,0.516,1.981   c0.01,0.178,0.013,0.354,0.011,0.53C52.899,19.733,52.794,20.371,52.663,21.081z"/></g><text x="0" y="79" fill="#000000" font-size="5px" font-weight="bold" font-family="'Helvetica Neue', Helvetica, Arial-Unicode, Arial, Sans-serif">Created by Arafat Uddin</text><text x="0" y="84" fill="#000000" font-size="5px" font-weight="bold" font-family="'Helvetica Neue', Helvetica, Arial-Unicode, Arial, Sans-serif">from the Noun Project</text></svg>