<svg xmlns="http://www.w3.org/2000/svg" xmlns:xlink="http://www.w3.org/1999/xlink" version="1.1" viewBox="0 0 96 96" x="0px" y="0px"><path d="M21.332 86.904c-0.564 0-1.124-0.24-1.52-0.7-0.72-0.84-0.62-2.1 0.22-2.82 2.816-2.412 6.812-3.684 11.556-3.684h3.456l4.54-6.216c0.652-0.892 1.904-1.092 2.796-0.432 0.892 0.648 1.084 1.912 0.436 2.792l-5.14 7.036c-0.376 0.516-0.976 0.82-1.616 0.82h-4.472c-3.776 0-6.872 0.94-8.952 2.724-0.38 0.328-0.844 0.48-1.304 0.48z" fill="#000000"/><path d="M75.072 87.196c-0.5 0-1-0.184-1.384-0.556-2.016-1.924-5.152-2.94-9.064-2.94h-4.472c-0.632 0-1.224-0.296-1.596-0.8l-5.264-7.036c-0.664-0.888-0.48-2.14 0.404-2.8 0.888-0.664 2.14-0.476 2.8 0.412l4.664 6.236h3.468c4.96 0 9.052 1.404 11.828 4.052 0.796 0.76 0.828 2.032 0.064 2.828-0.4 0.396-0.928 0.604-1.448 0.604z" fill="#000000"/><path d="M47.984 77.868c-9.428 0-17.524-11.86-17.752-21.756-4.212-9.984-1.372-18.996-0.644-20.98 0.076-6.060 2.080-11.568 14.848-11.724 8.144-4.848 16.496-3.836 20.488 1.944 2.068 2.996 2.624 6.76 1.548 10.212 0.876 3.252 3.86 15.812-0.752 20.976-0.456 9.816-8.448 21.328-17.736 21.328zM54.72 24.22c-2.664 0-5.584 0.968-8.664 2.888-0.316 0.196-0.68 0.292-1.056 0.292-11.416 0-11.416 4.116-11.416 8.096 0 0.26-0.052 0.524-0.152 0.764-0.036 0.084-3.596 9 0.624 18.604 0.112 0.252 0.168 0.528 0.168 0.804 0 8.84 7.072 18.188 13.756 18.188s13.752-9.348 13.752-18.188c0-0.592 0.26-1.16 0.724-1.54 3.184-2.64 1.372-13.328-0.004-18.088-0.12-0.416-0.1-0.86 0.052-1.252 0.904-2.392 0.576-5.064-0.876-7.164-1.52-2.196-3.968-3.404-6.908-3.404z" fill="#000000"/><path d="M48 96c-26.468 0-48-21.532-48-48s21.532-48 48-48 48 21.532 48 48-21.532 48-48 48zM48 4c-24.26 0-44 19.744-44 44s19.74 44 44 44c24.256 0 44-19.744 44-44s-19.744-44-44-44z" fill="#000000"/><!--<text x="0" y="111" fill="#000000" font-size="5px" font-weight="bold" font-family="'Helvetica Neue', Helvetica, Arial-Unicode, Arial, Sans-serif">Created by iconsmind.com</text><text x="0" y="116" fill="#000000" font-size="5px" font-weight="bold" font-family="'Helvetica Neue', Helvetica, Arial-Unicode, Arial, Sans-serif">from the Noun Project</text>--></svg>
