<svg xmlns="http://www.w3.org/2000/svg" data-name="Layer 1" viewBox="0 0 100 100" x="0px" y="0px"><title>Artboard 3</title><path d="M99.22,75.25V84H.78V74.74a6.55,6.55,0,0,1,2.37-5.06A106.19,106.19,0,0,1,20.21,58.44c.39.91,4.17,9.6,6.58,13.27a.2.2,0,0,0,.36,0c.49-1.47,2.38-6.57,5.25-6.22a.19.19,0,0,0,.16-.34c-2.17-1.73-7.67-6.18-9.76-8.66V50.5a15.05,15.05,0,0,1-1.87-5.13c-.72-.06-1.66-1.06-2.68-4.65-1.31-4.62-.08-5.54,1.11-5.53-.63-2.7-2.23-12.08,4.75-16.34A3.75,3.75,0,0,1,22.78,16s8,.9,11.81.11,8,2.23,8.65,5.14c0,0,7.81,0,4.78,13.95,1.22-.05,2.55.79,1.2,5.53-1,3.59-2,4.6-2.68,4.65a15,15,0,0,1-1.87,5.13v5.94c-2.1,2.48-7.59,6.94-9.77,8.66a.19.19,0,0,0,.16.34c2.87-.35,4.76,4.74,5.25,6.22a.2.2,0,0,0,.36,0c2.41-3.67,6.19-12.36,6.58-13.27A111.84,111.84,0,0,1,59,65.62a28.38,28.38,0,0,0,3.7-1.53l.22-.13a2.19,2.19,0,0,0,1-1.84V58.39c-9.87.09-12.78-4.14-12.78-4.14s5.64-.09,5.29-15S62.89,21.93,65.45,21c7.45-2.83,11.19,1.67,11.19,1.67,8.64-.8,11,8.64,10,19.38s4.84,12.42,4.84,12.42c-4.05,4.14-12.6,3.88-12.6,3.88v1h0v2.85a2.19,2.19,0,0,0,1,1.84l.26.16c3,1.57,9.16,3.2,9.28,3.26a32.56,32.56,0,0,1,5.85,2.21A7,7,0,0,1,99.22,75.25Z"/></svg>
