<svg xmlns="http://www.w3.org/2000/svg" xmlns:xlink="http://www.w3.org/1999/xlink" version="1.1" x="0px" y="0px" viewBox="0 0 100 125" style="enable-background:new 0 0 100 100;" xml:space="preserve"><path d="M50,1.4C23.2,1.4,1.4,23.2,1.4,50S23.2,98.6,50,98.6S98.6,76.8,98.6,50S76.8,1.4,50,1.4z M20.1,83.1  c0-3.6,1.3-10.1,10.3-12.5c1.5-0.2,13.5-2.3,14.2-10.9c0.2-1.1,0.1-3.6-3-8.6c-4.6-6.7-7.4-17.7-3.7-24.6c2.1-4,6.2-6,12.1-6  s9.9,2,12.1,6c3.7,6.9,0.8,17.9-3.7,24.7c-3.1,4.9-3.2,7.4-3,8.5c0.8,8.6,12.8,10.6,14.3,10.9c5.2,1.4,8.5,4.3,9.8,8.6  c0.4,1.4,0.5,2.8,0.5,3.9C71.9,90.3,61.4,94.6,50,94.6C38.5,94.6,28,90.2,20.1,83.1z M83.5,79.4c-0.9-4.7-4-10.4-13-12.7  c-0.1,0-0.2,0-0.2,0c-0.1,0-10.4-1.6-10.9-7.3c0-0.1,0-0.2,0-0.2c0-0.2,0.1-1.9,2.4-5.6c5.3-7.9,8.4-20.4,3.9-28.8  c-2-3.7-6.3-8.2-15.7-8.2s-13.7,4.5-15.7,8.2c-4.5,8.4-1.4,20.9,3.9,28.7c2.4,3.8,2.4,5.4,2.4,5.6c0,0.1,0,0.2,0,0.2  c-0.4,5.7-10.8,7.3-10.9,7.3c-0.1,0-0.2,0-0.2,0c-9,2.4-12.1,8-13,12.7C9.6,71.5,5.4,61.2,5.4,50c0-24.6,20-44.6,44.6-44.6  s44.6,20,44.6,44.6C94.6,61.2,90.4,71.5,83.5,79.4z"/><text x="0" y="115" fill="#000000" font-size="5px" font-weight="bold" font-family="'Helvetica Neue', Helvetica, Arial-Unicode, Arial, Sans-serif">Created by Aneeque Ahmed</text><text x="0" y="120" fill="#000000" font-size="5px" font-weight="bold" font-family="'Helvetica Neue', Helvetica, Arial-Unicode, Arial, Sans-serif">from the Noun Project</text></svg>