<?xml version="1.0" encoding="iso-8859-1"?>
<!-- Generator: Adobe Illustrator 21.0.0, SVG Export Plug-In . SVG Version: 6.00 Build 0)  -->
<svg xmlns="http://www.w3.org/2000/svg" xmlns:xlink="http://www.w3.org/1999/xlink" version="1.1" id="Capa_1" x="0px" y="0px" viewBox="0 0 511.886 511.886" style="enable-background:new 0 0 511.886 511.886;" xml:space="preserve" width="512" height="512">
<g>
	<path d="M457.2,56.012L405.582,4.394C402.769,1.581,398.953,0,394.975,0s-7.793,1.581-10.606,4.394L349.53,39.232l-15.03-15.03   c-2.813-2.813-6.628-4.394-10.606-4.394c-0.001,0-0.003,0-0.005,0L95.351,19.886C70.505,19.895,50.292,40.11,50.292,64.95v401.871   c0,12.004,4.698,23.312,13.228,31.841c8.528,8.528,19.83,13.223,31.829,13.223c0.003,0,0.008,0,0.011,0l303.723-0.077   c24.847-0.006,45.061-20.222,45.061-45.064V140.059c0-3.978-1.581-7.793-4.394-10.606l-17.389-17.389L457.2,77.225   C463.058,71.367,463.058,61.87,457.2,56.012z M414.144,466.745c0,8.304-6.759,15.062-15.068,15.064l-303.723,0.077   c-3.986,0.001-7.758-1.575-10.62-4.437c-2.863-2.863-4.44-6.637-4.44-10.627V64.95c0-8.304,6.76-15.062,15.069-15.064   l222.322-0.075l96.461,96.461V466.745z M401.149,90.851l-30.406-30.405l24.232-24.232l30.405,30.405L401.149,90.851z"/>
	<path d="M295.288,76.809H125.285c-8.284,0-15,6.716-15,15v60c0,8.284,6.716,15,15,15h230.003c6.067,0,11.537-3.655,13.858-9.26   c2.321-5.605,1.038-12.057-3.252-16.347l-60-60C303.081,78.39,299.266,76.809,295.288,76.809z M140.285,136.809v-30h148.79l30,30   H140.285z"/>
	<path d="M364.891,241.916c5.858-5.858,5.858-15.355,0-21.213c-5.857-5.858-15.355-5.858-21.213,0l-40.106,40.106H191.498   l-40.106-40.106c-5.857-5.858-15.355-5.858-21.213,0c-5.858,5.858-5.858,15.355,0,21.213l39.107,39.107v87.073l-39.107,39.107   c-5.858,5.858-5.858,15.355,0,21.213c2.929,2.929,6.768,4.394,10.606,4.394s7.678-1.464,10.606-4.394l40.606-40.606h110.074   l40.606,40.606c2.929,2.929,6.768,4.394,10.606,4.394s7.678-1.464,10.606-4.394c5.858-5.858,5.858-15.355,0-21.213l-38.606-38.606   v-87.074L364.891,241.916z M295.167,357.809h-95.882v-66.846c0.057-0.051,0.114-0.102,0.171-0.154h95.829v66.893   C295.244,357.736,295.207,357.775,295.167,357.809z"/>
</g>















</svg>
