<svg height="512pt" viewBox="-16 0 512 512" width="512pt" xmlns="http://www.w3.org/2000/svg"><path d="m279.269531 60h-108.539062l-30 60h-20.730469v91h30v30h30v-30h90v30h30v-30h30v-91h-20.730469zm-90 30h71.460938l15 30h-101.460938zm110.730469 91h-150v-31h150zm0 0"/><path d="m480 60c0-33.085938-26.914062-60-60-60h-285c-41.355469 0-75 33.644531-75 75v347h-60v15c0 41.355469 33.644531 75 75 75h255c33.085938 0 60-26.914062 60-60v-362h90zm-405 422c-19.554688 0-36.238281-12.539062-42.429688-30h237.429688c0 10.921875 2.933594 21.171875 8.050781 30zm285-30c0 16.542969-13.457031 30-30 30-16.539062 0-30-13.457031-30-30v-30h-128.785156l64.390625-64.394531-21.210938-21.210938-49.394531 49.390625-19.394531-19.390625-21.210938 21.210938 34.390625 34.394531h-68.785156v-347c0-24.8125 20.1875-45.199219 45-45.199219h233.070312c-5.121093 8.832031-8.070312 19.273438-8.070312 30.199219zm30-392c0-16.542969 13.457031-30 30-30s30 13.457031 30 30zm0 0"/><path d="m165 294.785156-19.394531-19.390625-21.210938 21.210938 40.605469 40.609375 70.605469-70.609375-21.210938-21.210938zm0 0"/><path d="m240 362h90v30h-90zm0 0"/><path d="m240 271h90v30h-90zm0 0"/></svg>