<svg height="511pt" viewBox="0 0 511 511.99993" width="511pt" xmlns="http://www.w3.org/2000/svg"><path d="m73.644531 375.195312c-17.546875 17.546876-17.546875 46.101563 0 63.652344 17.546875 17.546875 46.105469 17.546875 63.652344 0 17.550781-17.550781 17.550781-46.105468 0-63.652344-17.550781-17.550781-46.105469-17.546874-63.652344 0zm42.433594 42.433594c-5.847656 5.851563-15.367187 5.851563-21.214844 0-5.851562-5.847656-5.851562-15.367187 0-21.214844 5.847657-5.851562 15.367188-5.851562 21.214844 0 5.851563 5.847657 5.851563 15.367188 0 21.214844zm0 0"/><path d="m490.523438 383.941406-125.445313-125.441406-23.023437 23.023438c-2.175782-4.546876-5.132813-8.742188-8.800782-12.414063l-13.109375-13.109375 52.101563-52.101562c37.859375 13.464843 80.710937 4.15625 109.527344-24.660157 31.382812-31.382812 39.628906-79.410156 20.515624-119.515625l-9.132812-19.167968-49.421875 49.421874h-21.21875v-21.21875l49.421875-49.421874-19.171875-9.136719c-40.101563-19.109375-88.128906-10.863281-119.511719 20.519531-28.816406 28.8125-38.125 71.664062-24.660156 109.527344l-73.320312 73.316406-119.589844-119.585938 23.132812-23.132812-99.011718-70.726562-39.191407 39.191406 70.722657 99.015625 23.132812-23.132813 119.589844 119.589844-73.320313 73.320312c-37.863281-13.464843-80.714843-4.15625-109.527343 24.660157-40.949219 40.945312-40.949219 107.574219 0 148.519531 19.808593 19.808594 46.179687 30.71875 74.257812 30.71875 28.082031 0 54.453125-10.910156 74.261719-30.71875 28.816406-28.816406 38.125-71.667969 24.660156-109.53125l52.101563-52.101562 13.109374 13.109374c3.671876 3.671876 7.867188 6.625 12.414063 8.804688l-23.023437 23.023438 125.441406 125.441406c14.171875 14.167968 33.007812 21.972656 53.046875 21.972656 20.035156 0 38.875-7.804688 53.042969-21.972656 14.167968-14.167969 21.96875-33.007813 21.96875-53.042969s-7.800782-38.875-21.96875-53.042969zm-450.71875-341.386718 3.242187-3.246094 49.507813 35.363281-17.390626 17.390625zm304.578124 104.335937-4.558593-9.566406c-13.65625-28.660157-7.769531-62.972657 14.644531-85.390625 16.941406-16.941406 40.675781-24.441406 63.636719-21.199219l-25.59375 25.59375v63.652344h63.652343l25.589844-25.59375c3.242188 22.953125-4.257812 46.695312-21.199218 63.636719-22.414063 22.414062-56.730469 28.300781-85.386719 14.644531l-9.566407-4.558594-87.890624 87.890625-21.21875-21.21875zm-171.222656 227.785156c13.65625 28.65625 7.769532 62.972657-14.644531 85.386719-29.265625 29.265625-76.824219 29.265625-106.089844 0-29.246093-29.246094-29.246093-76.835938 0-106.085938 14.363281-14.359374 33.605469-21.9375 53.121094-21.9375 19.160156 0 30.875 6.625 41.835937 11.851563l87.894532-87.890625 21.214844 21.214844-87.890626 87.890625zm117.65625-63.132812-13.109375-13.109375 21.21875-21.21875 13.109375 13.109375c5.863282 5.863281 5.863282 15.355469 0 21.21875-5.863281 5.863281-15.351562 5.863281-21.21875 0zm178.488282 157.269531c-8.5 8.5-19.800782 13.179688-31.824219 13.179688-12.023438 0-23.324219-4.679688-31.824219-13.179688l-104.230469-104.226562 21.21875-21.214844 93.617188 93.617187 21.21875-21.21875-93.617188-93.617187 21.214844-21.21875 104.226563 104.226562c8.5 8.5 13.183593 19.804688 13.183593 31.828125 0 12.019531-4.683593 23.324219-13.183593 31.824219zm0 0"/></svg>