<svg height="512pt" viewBox="-16 0 512 512" width="512pt" xmlns="http://www.w3.org/2000/svg"><path d="m388.984375 150.023438c-7.300781-50.824219-51.125-90.015626-103.9375-90.015626h-45.007813v-60.007812h-240.039062v240.039062h30.003906v201.949219l75.011719 70.011719 81.597656-76.15625-30.375-30.378906 30.003907-30.003906-30.003907-30.003907 30.003907-30.007812-36.21875-36.21875v-39.191407h15.003906c41.359375 0 75.011718-33.652343 75.011718-75.011718v-75.011719h45.007813c36.222656 0 66.53125 25.8125 73.5 60.007813h-88.503906v300.046874h210.035156v-300.046874zm-245.175781 165.425781-30.003906 30.007812 30.003906 30.003907-30.003906 30.003906 29.632812 29.632812-38.421875 35.859375-45.007813-42.007812v-188.910157h60.011719v51.621094zm66.226562-150.421875c0 24.816406-20.191406 45.007812-45.007812 45.007812h-135.023438v-180.03125h180.03125zm150.023438 135.019531h30.003906v30.007813h-30.003906zm30.003906-30.003906h-30.003906v-30.003907h30.003906zm0-60.007813h-30.003906v-30.007812h30.003906zm60.007812 210.03125h-150.023437v-240.039062h30.007813v180.03125h90.011718v-180.03125h30.003906zm0 0"/><path d="m60.007812 60.007812h120.019532v30.007813h-120.019532zm0 0"/><path d="m60.007812 150.023438h30.007813v30.003906h-30.007813zm0 0"/></svg>