<svg height="496pt" viewBox="0 -40 496 496" width="496pt" xmlns="http://www.w3.org/2000/svg"><path d="m352 336c-13.230469 0-24 10.769531-24 24s10.769531 24 24 24 24-10.769531 24-24-10.769531-24-24-24zm0 32c-4.40625 0-8-3.585938-8-8s3.59375-8 8-8 8 3.585938 8 8-3.59375 8-8 8zm0 0"/><path d="m120 336c-13.230469 0-24 10.769531-24 24s10.769531 24 24 24 24-10.769531 24-24-10.769531-24-24-24zm0 32c-4.40625 0-8-3.585938-8-8s3.59375-8 8-8 8 3.585938 8 8-3.59375 8-8 8zm0 0"/><path d="m472 256h-1.449219c-1.175781-3.335938-3.007812-6.390625-5.535156-8.855469-4.488281-4.617187-10.527344-7.144531-17.015625-7.144531h-12.976562l-4.488282-3.953125c-3.855468-3.367187-7.878906-6.632813-11.976562-9.726563-24.367188-18.3125-52.78125-31.167968-82.566406-37.59375v-59.503906l-22.183594-3.710937c-3.089844-10.640625-7.328125-20.878907-12.648438-30.566407l13.039063-18.289062-54.855469-54.855469-18.304688 13.039063c-9.6875-5.328125-19.933593-9.558594-30.566406-12.648438l-3.695312-22.191406h-77.546875l-3.710938 22.183594c-10.632812 3.089844-20.878906 7.320312-30.566406 12.648437l-18.304687-13.039062-54.855469 54.855469 13.039062 18.289062c-5.320312 9.6875-9.558593 19.925781-12.648437 30.566406l-22.183594 3.71875v77.546875l22.183594 3.710938c3.089844 10.640625 7.328125 20.878906 12.648437 30.566406l-13.039062 18.289063 13.925781 13.929687-17.214844 4.054687c-10.71875 2.511719-18.503906 12.3125-18.503906 23.320313v51.359375c0 13.230469 10.769531 24 24 24h42.433594c6.933594 23.535156 28.4375 40 53.566406 40 25.175781 0 46.710938-16.527344 53.585938-40h124.847656c6.933594 23.535156 28.4375 40 53.566406 40 25.175781 0 46.710938-16.527344 53.585938-40h66.414062c13.230469 0 24-10.769531 24-24v-72c0-13.230469-10.769531-24-24-24zm8 24v48h-40v-11.121094c0-1.566406.472656-3.117187 1.375-4.453125l26.914062-40.425781h3.710938c4.40625 0 8 3.585938 8 8zm-60.007812-31.921875 8.984374 7.921875h19.023438c2.136719 0 4.105469.824219 5.695312 2.449219 1 .976562 1.695313 2.183593 2.046876 3.519531l-27.621094 41.503906c-2.695313 3.933594-4.121094 8.566406-4.121094 13.40625v11.121094h-26.222656c-8.847656-12.671875-22.546875-21.167969-37.777344-23.382812v-49.59375c17.808594-3.527344 35.257812-8.007813 52.046875-13.390626 2.679687 2.101563 5.367187 4.199219 7.945313 6.445313zm-113.769532 79.921875h-140.582031c-5.5625-7.945312-12.992187-14.230469-21.640625-18.328125v-12.953125c0-11.558594 3.382812-22.964844 9.671875-32.71875h114.40625c25.167969 0 50.648437-2.152344 75.921875-6.175781v46.792969c-15.257812 2.214843-28.96875 10.726562-37.777344 23.382812zm-194.34375-72.65625c-29.976562-19.265625-47.878906-51.632812-47.878906-87.34375 0-57.34375 46.65625-104 104-104s104 46.65625 104 104c0 5.824219-.625 11.617188-1.574219 17.328125-5.648437.558594-11.226562 1.328125-16.746093 2.359375 1.480468-6.472656 2.320312-13.039062 2.320312-19.6875 0-48.519531-39.480469-88-88-88-20.191406 0-39.96875 7.0625-55.695312 19.871094l10.109374 12.410156c13.066407-10.648438 28.824219-16.28125 45.585938-16.28125 39.695312 0 72 32.296875 72 72 0 8.105469-1.441406 16.113281-4.097656 23.785156-8.09375 2.191406-16.308594 4.871094-24.550782 8.253906-22.070312 9.105469-42.175781 21.960938-59.894531 37.921876-32.335937-7.535157-55.457031-36.351563-55.457031-69.960938 0-16.753906 5.632812-32.511719 16.28125-45.585938l-12.410156-10.109374c-12.816406 15.734374-19.871094 35.519531-19.871094 55.695312 0 36.785156 22.664062 68.886719 55.519531 81.777344zm214.226563-52.351562c24.574219 4.414062 48.269531 13.710937 69.429687 26.992187-14.597656 4.238281-29.65625 7.808594-44.949218 10.617187-27.386719 4.902344-55.144532 7.398438-82.507813 7.398438h-37.550781c.898437-2.511719 1.472656-5.183594 1.472656-8 0-6.488281-2.535156-12.519531-6.992188-16.855469-3.183593-3.273437-7.175781-5.441406-11.535156-6.457031 1.335938-.582031 2.605469-1.289062 3.960938-1.847656 8.941406-3.671875 17.878906-6.617188 26.679687-8.785156 10.984375-2.886719 22.390625-4.75 34.078125-5.519532 4.25-.367187 8.738282-.535156 13.730469-.535156 11.527344 0 23.03125 1.007812 34.183594 2.992188zm-143.648438 34.71875c7.902344-3.734376 16.734375-5.710938 25.542969-5.710938 2.136719 0 4.105469.824219 5.695312 2.449219 1.488282 1.445312 2.304688 3.414062 2.304688 5.550781 0 4.414062-3.59375 8-8 8h-40.894531c4.527343-4.167969 9.734375-7.671875 15.351562-10.289062zm-139.777343 19.898437 11.183593-15.699219-2.671875-4.484375c-6.664062-11.1875-11.671875-23.28125-14.878906-35.953125l-1.28125-5.074218-19.03125-3.175782v-50.453125l19.03125-3.175781 1.28125-5.074219c3.207031-12.671875 8.214844-24.765625 14.878906-35.953125l2.671875-4.488281-11.183593-15.695313 35.703124-35.703124 15.707032 11.175781 4.476562-2.671875c11.195313-6.671875 23.289063-11.679688 35.945313-14.871094l5.0625-1.28125 3.203125-19.03125h50.453125l3.183593 19.039062 5.066407 1.28125c12.664062 3.191407 24.75 8.199219 35.945312 14.871094l4.476563 2.671875 15.707031-11.175781 35.703125 35.703125-11.183594 15.699219 2.671875 4.484375c6.664063 11.1875 11.671875 23.28125 14.878907 35.953125l1.28125 5.074218 19.039062 3.175782v43.285156c-9.265625-1.238281-18.640625-2.0625-28.078125-2.0625-1.785156 0-3.441406.054688-5.121094.097656.710938-5.335937 1.199219-10.707031 1.199219-16.097656 0-66.167969-53.832031-120-120-120s-120 53.832031-120 120c0 36.246094 15.929688 69.558594 43.28125 92.191406l-37.242188 8.769532zm-20.519532 35.292969 112.121094-26.398438c-4.097656 9.496094-6.28125 19.800782-6.28125 30.214844v7.96875c-2.640625-.382812-5.296875-.6875-8-.6875-18.351562 0-35.449219 9.160156-45.777344 24h-58.222656v-27.359375c0-3.648437 2.585938-6.90625 6.160156-7.738281zm1.839844 67.097656c-4.40625 0-8-3.585938-8-8v-8h50.40625c-1.542969 5.152344-2.40625 10.519531-2.40625 16zm135.390625 6.617188c-3.207031 19.34375-19.765625 33.382812-39.390625 33.382812s-36.183594-14.039062-39.414062-33.550781c-.394532-2.058594-.585938-4.234375-.585938-6.449219 0-7.191406 1.808594-13.902344 5.414062-20.007812 7.089844-12.335938 20.347657-19.992188 34.585938-19.992188 4.585938 0 9.046875.785156 13.367188 2.351562 8.914062 3.113282 16.449218 9.375 21.226562 17.648438l.039062.070312c3.558594 6.027344 5.367188 12.738282 5.367188 19.929688 0 2.214844-.191406 4.390625-.609375 6.617188zm16.609375-6.617188c0-5.480469-.863281-10.847656-2.40625-16h124.8125c-1.542969 5.152344-2.40625 10.519531-2.40625 16zm215.390625 6.617188c-3.207031 19.34375-19.765625 33.382812-39.390625 33.382812s-36.183594-14.039062-39.414062-33.550781c-.394532-2.058594-.585938-4.234375-.585938-6.449219 0-7.191406 1.808594-13.902344 5.414062-20.007812 7.089844-12.335938 20.347657-19.992188 34.585938-19.992188s27.496094 7.65625 34.585938 19.992188l.046874.078124c3.558594 6.027344 5.367188 12.738282 5.367188 19.929688 0 2.214844-.191406 4.390625-.609375 6.617188zm80.609375-6.617188h-64c0-5.480469-.871094-10.847656-2.40625-16h74.40625v8c0 4.414062-3.59375 8-8 8zm0 0"/><path d="m280 280h32v16h-32zm0 0"/><path d="m480 160h16v16h-16zm0 0"/><path d="m392 160h72v16h-72zm0 0"/><path d="m448 128h16v16h-16zm0 0"/><path d="m360 128h72v16h-72zm0 0"/><path d="m416 96h16v16h-16zm0 0"/><path d="m328 96h72v16h-72zm0 0"/></svg>