<?xml version="1.0" encoding="iso-8859-1"?>
<!-- Generator: Adobe Illustrator 21.0.0, SVG Export Plug-In . SVG Version: 6.00 Build 0)  -->
<svg xmlns="http://www.w3.org/2000/svg" xmlns:xlink="http://www.w3.org/1999/xlink" version="1.1" id="Capa_1" x="0px" y="0px" viewBox="0 0 512 512" style="enable-background:new 0 0 512 512;" xml:space="preserve" width="512" height="512">
<g>
	<path d="M416.106,280.394L261.5,125.787V15c0-8.284-6.716-15-15-15h-140c-8.284,0-15,6.716-15,15v451.999   c0,24.814,20.187,45.001,45,45.001h239c24.813,0,45-20.187,45-45V291C420.5,287.022,418.92,283.207,416.106,280.394z M231.5,30   v30.053h-110V30H231.5z M390.5,467c0,8.271-6.729,15-15,15h-239c-8.271,0-15-6.729-15-15.001V90.053h110V132   c0,3.978,1.581,7.793,4.394,10.606L390.5,297.213V467z"/>
	<path d="M216.583,301.089C210.395,315.149,196,349.907,196,368.953c0,33.084,26.916,60,60,60c33.084,0,60-26.916,60-60   c0-19.046-14.395-53.804-20.584-67.863c-5.375-12.211-11.003-23.502-15.848-31.793c-6.264-10.721-12.78-20.344-23.568-20.344   s-17.304,9.623-23.568,20.344C227.587,277.587,221.958,288.878,216.583,301.089z M256,288.549   c4.026,7.375,9.094,17.72,14.464,30.436C281.196,344.4,286,362.394,286,368.953c0,16.542-13.458,30-30,30   c-16.542,0-30-13.458-30-30c0-6.559,4.804-24.553,15.537-49.968C246.906,306.269,251.974,295.925,256,288.549z"/>
</g>















</svg>
