<?xml version="1.0" encoding="iso-8859-1"?>
<!-- Generator: Adobe Illustrator 19.0.0, SVG Export Plug-In . SVG Version: 6.00 Build 0)  -->
<svg version="1.1" id="Capa_1" xmlns="http://www.w3.org/2000/svg" xmlns:xlink="http://www.w3.org/1999/xlink" x="0px" y="0px"
	 viewBox="0 0 512.001 512.001" style="enable-background:new 0 0 512.001 512.001;" xml:space="preserve">
<g>
	<g>
		<path d="M461.319,103.042c-3.304-4.426-9.572-5.332-13.995-2.028c-4.426,3.305-5.333,9.571-2.028,13.996
			c19.937,26.695,33.357,56.61,40.438,87.643c-32.026-38.755-83.914-58.218-135.3-47.182c-24.705-23.22-57.935-37.47-94.434-37.47
			c-5.621,0-11.163,0.346-16.61,1.003c22.106-50.457,77.369-79.762,132.723-67.931c0.442,0.094,0.881,0.147,1.32,0.182
			c8.155,4.672,16.099,9.866,23.771,15.61c4.422,3.309,10.688,2.409,13.998-2.013c3.311-4.421,2.409-10.688-2.012-13.998
			C360.376,14.311,299.811-3.539,238.667,0.584C176.922,4.75,118.79,31.171,74.98,74.981C26.629,123.333,0,187.62,0,256
			c0,68.38,26.629,132.667,74.98,181.02C123.333,485.372,187.62,512,256,512s132.667-26.629,181.02-74.98
			c43.773-43.774,70.191-101.857,74.388-163.549C515.562,212.378,497.773,151.852,461.319,103.042z M256,138
			c65.065,0,118,52.935,118,118c0,65.065-52.935,118-118,118s-118-52.935-118-118S190.935,138,256,138z M136.584,52.98
			c0.237-0.263,0.456-0.535,0.66-0.814c56.809-32.891,125.234-40.591,187.571-21.82c-49.611,8.306-92.458,43.491-108.632,93.519
			c-39.247,11.849-71.171,40.736-87.127,78.027C96.407,157.519,98.654,95.006,136.584,52.98z M20.123,256.992
			c-0.254-60.765,22.74-121.609,69-167.868c1.942-1.942,3.921-3.83,5.917-5.691c-17.684,47.148-8.656,101.917,26.613,140.977
			c-2.386,10.149-3.653,20.725-3.653,31.591c0,31.076,10.329,59.783,27.728,82.876c-54.777,6.121-107.82-27.089-125.257-80.969
			C20.369,257.594,20.252,257.289,20.123,256.992z M139.888,460.927c-0.423-0.09-0.844-0.143-1.264-0.178
			c-17.713-10.148-34.388-22.761-49.5-37.872C56.706,390.461,35.727,350.88,26.15,309.185c26.023,31.587,65.208,50.42,106.611,50.42
			c9.526,0,19.176-1.012,28.802-3.079c24.705,23.222,57.936,37.473,94.438,37.473c5.621,0,11.163-0.346,16.61-1.003
			C250.505,443.454,195.244,472.76,139.888,460.927z M375.415,459.021c-0.292,0.324-0.55,0.665-0.792,1.014
			c-57.204,33.243-125.489,40.455-187.507,21.639c49.641-8.286,92.529-43.487,108.709-93.54
			c39.243-11.85,71.164-40.736,87.118-78.025C415.592,354.482,413.345,416.995,375.415,459.021z M422.877,422.877
			c-1.944,1.944-3.923,3.832-5.918,5.694c17.685-47.148,8.658-101.919-26.612-140.979c2.386-10.149,3.653-20.725,3.653-31.591
			c0-31.076-10.328-59.782-27.728-82.875c54.78-6.12,107.821,27.088,125.257,80.969c0.044,0.137,0.099,0.268,0.148,0.402
			C491.957,315.859,468.661,377.094,422.877,422.877z"/>
	</g>
</g>
<g>
	<g>
		<path d="M437.123,75.084l-0.189-0.19c-3.899-3.91-10.232-3.918-14.142-0.018c-3.911,3.9-3.919,10.232-0.019,14.142l0.189,0.19
			c1.953,1.958,4.517,2.938,7.08,2.938c2.555,0,5.11-0.973,7.062-2.92C441.015,85.326,441.023,78.994,437.123,75.084z"/>
	</g>
</g>
<g>
	<g>
		<path d="M305.498,206.503c-13.222-13.221-30.8-20.502-49.498-20.502c-18.698,0-36.276,7.281-49.498,20.502
			c-16.122,16.123-23.391,39.171-19.443,61.656c0.955,5.44,6.143,9.076,11.579,8.12c5.439-0.955,9.075-6.139,8.12-11.579
			c-2.821-16.068,2.369-32.538,13.887-44.054c9.443-9.444,22-14.645,35.355-14.645s25.912,5.201,35.355,14.645
			c19.495,19.495,19.495,51.216,0,70.71c-12.288,12.288-29.749,17.275-46.699,13.35c-5.378-1.246-10.752,2.104-12,7.484
			c-1.246,5.38,2.104,10.752,7.484,11.999c5.333,1.236,10.699,1.841,16.014,1.841c18.327,0,36.009-7.197,49.344-20.532
			C332.79,278.206,332.79,233.796,305.498,206.503z"/>
	</g>
</g>
<g>
	<g>
		<path d="M220.8,291.51l-0.104-0.103c-0.003-0.002-0.074-0.074-0.077-0.077c-3.916-3.89-10.211-3.835-14.104,0.08
			c-3.892,3.916-3.841,10.278,0.072,14.172l0.172,0.17c1.948,1.921,4.484,2.879,7.021,2.879c2.583,0,5.164-0.995,7.121-2.979
			C224.778,301.719,224.733,295.388,220.8,291.51z"/>
	</g>
</g>
<g>
	<g>
		<path d="M324.337,177.469c-5.522,0-10,4.477-10,10v0.195c0,5.523,4.477,10,10,10c5.522,0,10-4.477,10-10v-0.195
			C334.337,181.946,329.859,177.469,324.337,177.469z"/>
	</g>
</g>
<g>
	<g>
		<path d="M324.557,314.337h-0.194c-0.009,0-0.018,0-0.026,0c-5.511,0-9.985,4.461-9.999,9.975
			c-0.014,5.522,4.452,10.011,9.975,10.025h0.194c0.009,0,0.018,0,0.026,0c5.511,0,9.985-4.461,9.999-9.975
			C334.545,318.84,330.079,314.351,324.557,314.337z"/>
	</g>
</g>
<g>
	<g>
		<path d="M187.663,314.337c-5.522,0-10,4.477-10,10v0.195c0,5.523,4.478,10,10,10c5.522,0,10-4.477,10-10v-0.195
			C197.663,318.814,193.186,314.337,187.663,314.337z"/>
	</g>
</g>
<g>
	<g>
		<path d="M187.687,177.664h-0.194c-0.009,0-0.018,0-0.026,0c-5.511,0-9.985,4.461-9.999,9.975
			c-0.013,5.522,4.453,10.011,9.975,10.025h0.194c0.009,0,0.018,0,0.026,0c5.511,0,9.985-4.461,9.999-9.975
			C197.676,182.167,193.21,177.678,187.687,177.664z"/>
	</g>
</g>
<g>
	<g>
		<path d="M359.865,248.804c-3.898-3.912-10.23-3.923-14.143-0.025l-0.138,0.137c-3.912,3.898-3.923,10.23-0.025,14.142
			c1.954,1.962,4.518,2.942,7.084,2.942c2.553,0,5.107-0.972,7.059-2.917l0.138-0.137
			C363.752,259.048,363.763,252.716,359.865,248.804z"/>
	</g>
</g>
<g>
	<g>
		<path d="M263.222,345.721l-0.138-0.137c-3.899-3.912-10.231-3.923-14.143-0.025c-3.912,3.898-3.923,10.23-0.025,14.142
			l0.138,0.138c1.954,1.96,4.519,2.941,7.084,2.941c2.554,0,5.107-0.972,7.059-2.917
			C267.109,355.965,267.12,349.633,263.222,345.721z"/>
	</g>
</g>
<g>
	<g>
		<path d="M166.442,248.941c-3.899-3.911-10.231-3.922-14.143-0.024l-0.138,0.137c-3.912,3.898-3.923,10.23-0.025,14.142
			c1.954,1.961,4.519,2.941,7.084,2.941c2.553,0,5.107-0.972,7.059-2.917l0.138-0.137
			C170.329,259.185,170.34,252.853,166.442,248.941z"/>
	</g>
</g>
<g>
	<g>
		<path d="M263.084,152.298l-0.138-0.138c-3.899-3.912-10.231-3.923-14.143-0.025s-3.923,10.23-0.025,14.142l0.138,0.139
			c1.954,1.96,4.519,2.941,7.084,2.941c2.554,0,5.107-0.972,7.059-2.917C266.971,162.542,266.982,156.21,263.084,152.298z"/>
	</g>
</g>
<g>
</g>
<g>
</g>
<g>
</g>
<g>
</g>
<g>
</g>
<g>
</g>
<g>
</g>
<g>
</g>
<g>
</g>
<g>
</g>
<g>
</g>
<g>
</g>
<g>
</g>
<g>
</g>
<g>
</g>
</svg>
