<svg height="512pt" viewBox="0 0 512 512" width="512pt" xmlns="http://www.w3.org/2000/svg"><path d="m482 122v-60h-30v-62h-91v62h-30v60h-150v-60h-30v-62h-91v62h-30v60h-30v390h512v-390zm-91-92h31v32h-31zm-30 62h91v30h-91zm-271-62h31v32h-31zm-30 62h91v30h-91zm422 60v30h-452v-30zm-312.492188 210h71.492188v60h-211v-210h229.507812zm101.492188-110.84375v50.84375h48.507812l-48.507812 80.84375v-50.84375h-48.507812zm101.492188 20.84375h-71.492188v-60h181v210h-199.507812zm-342.492188 210v-30h452v30zm0 0"/><path d="m60 362h31v30h30v-30h30v-30h-30v-30h-30v30h-31zm0 0"/><path d="m361 332h91v30h-91zm0 0"/></svg>