<svg height="512pt" viewBox="0 -61 512 512" width="512pt" xmlns="http://www.w3.org/2000/svg"><path d="m322.214844 120-60-60h-51.214844v-30h30v-30h-150v30h30v30h-60v60h-61v270h512v-270zm-150.964844 30c-10.578125 8.554688-19.847656 18.671875-27.445312 30h-52.804688v-30zm249.75 90h-30.839844c-1.152344-10.398438-3.496094-20.445312-6.882812-30h37.722656zm-171.421875 119.796875c-24.851563-1.507813-47.398437-11.695313-64.636719-27.566406 24.265625-2.71875 47.15625-14.261719 63.71875-32.839844 2.390625.394531 4.839844.609375 7.339844.609375 2.75 0 5.4375-.261719 8.050781-.734375 4.835938 21.125-.417969 43.695313-14.472656 60.53125zm-98.578125-104.796875c0-7.90625.882812-15.605469 2.546875-23.019531 14.484375 19.707031 35.9375 33.796875 60.339844 38.863281 1.839843 4.875 4.503906 9.34375 7.820312 13.246094-15.878906 14.757812-38.050781 21.5-59.660156 17.75-7.0625-14.109375-11.046875-30.015625-11.046875-46.839844zm-29.160156-15h-30.839844v-30.199219h37.722656c-3.390625 9.554688-5.730468 19.800781-6.882812 30.199219zm102.847656-85.230469c-9.816406 22.398438-11.28125 48.027344-3.457031 71.699219-3.25 3.949219-5.835938 8.464844-7.59375 13.367188-20.695313-6.375-37.597657-22.207032-45.152344-42.785157 13.203125-19.871093 32.976563-35.011719 56.203125-42.28125zm46.3125 100.230469c0 8.269531-6.730469 15-15 15s-15-6.730469-15-15 6.730469-15 15-15 15 6.730469 15 15zm-7.664062-44.394531c-2.390626-.390625-4.839844-.605469-7.335938-.605469-2.75 0-5.4375.261719-8.050781.734375-4.835938-21.125.417969-43.695313 14.472656-60.53125 24.855469 1.507813 47.402344 11.695313 64.640625 27.574219-24.265625 2.714844-47.160156 14.25-63.726562 32.828125zm-172.335938 59.394531h30.839844c1.152344 10.398438 3.496094 20.445312 6.882812 30h-37.722656zm196.3125 85.230469c9.816406-22.398438 11.28125-48.027344 3.457031-71.699219 3.25-3.949219 5.835938-8.464844 7.59375-13.371094 20.695313 6.378906 37.597657 22.207032 45.152344 42.789063-13.203125 19.871093-32.976563 35.011719-56.203125 42.28125zm10.796875-116.074219c-1.839844-4.875-4.503906-9.34375-7.816406-13.246094 15.875-14.757812 38.050781-21.496094 59.660156-17.75 7.0625 14.109375 11.046875 30.015625 11.046875 46.839844 0 7.90625-.882812 15.605469-2.546875 23.015625-14.484375-19.703125-35.941406-33.796875-60.34375-38.859375zm92.050781 30.84375h30.839844v30h-37.722656c3.390625-9.554688 5.730468-19.601562 6.882812-30zm30.839844-90h-52.804688c-7.597656-11.328125-16.867187-21.445312-27.449218-30h80.253906zm-270-150h30v30h-30zm-60 60h158.785156l30 30h-188.785156zm-61 60h31v210h-31zm61 210v-30h52.804688c7.597656 11.328125 16.867187 21.445312 27.449218 30zm277.195312-30h52.804688v30h-80.25c10.578125-8.554688 19.847656-18.671875 27.445312-30zm113.804688 30h-31v-210h31zm0 0"/></svg>