<svg height="512pt" viewBox="0 0 512 512" width="512pt" xmlns="http://www.w3.org/2000/svg"><path d="m437.019531 74.980469c-48.351562-48.351563-112.640625-74.980469-181.019531-74.980469s-132.667969 26.628906-181.019531 74.980469c-48.351563 48.351562-74.980469 112.640625-74.980469 181.019531s26.628906 132.667969 74.980469 181.019531c48.351562 48.351563 112.640625 74.980469 181.019531 74.980469s132.667969-26.628906 181.019531-74.980469c48.351563-48.351562 74.980469-112.640625 74.980469-181.019531s-26.628906-132.667969-74.980469-181.019531zm-21.214843 340.824219c-42.683594 42.6875-99.4375 66.195312-159.804688 66.195312s-117.121094-23.507812-159.804688-66.195312c-42.6875-42.683594-66.195312-99.4375-66.195312-159.804688s23.507812-117.121094 66.195312-159.804688c42.683594-42.6875 99.4375-66.195312 159.804688-66.195312s117.121094 23.507812 159.804688 66.195312c42.6875 42.683594 66.195312 99.4375 66.195312 159.804688s-23.507812 117.121094-66.195312 159.804688zm0 0"/><path d="m256 57.230469c-109.601562 0-198.769531 89.167969-198.769531 198.769531s89.167969 198.769531 198.769531 198.769531 198.769531-89.167969 198.769531-198.769531-89.167969-198.769531-198.769531-198.769531zm0 367.539062c-93.0625 0-168.769531-75.707031-168.769531-168.769531s75.707031-168.769531 168.769531-168.769531 168.769531 75.707031 168.769531 168.769531-75.707031 168.769531-168.769531 168.769531zm0 0"/><path d="m377.421875 241.160156h-78.957031c-2.15625-6.203125-5.707032-12.023437-10.65625-16.972656-4.824219-4.832031-10.554688-8.425781-16.808594-10.636719v-79.472656c0-8.285156-6.714844-15-15-15s-15 6.714844-15 15v79.460937c-6.257812 2.203126-11.992188 5.800782-16.820312 10.632813-17.535157 17.542969-17.53125 46.09375.011718 63.640625 8.5 8.503906 19.796875 13.191406 31.8125 13.191406h.015625c12.015625 0 23.3125-4.679687 31.804688-13.175781 4.863281-4.863281 8.375-10.578125 10.539062-16.667969h79.058594c8.28125 0 15-6.714844 15-15 0-8.28125-6.71875-15-15-15zm-110.816406 25.460938c-2.828125 2.828125-6.585938 4.382812-10.585938 4.382812h-.003906c-4.007813 0-7.773437-1.5625-10.609375-4.398437-5.851562-5.855469-5.855469-15.378907-.011719-21.226563 2.820313-2.820312 6.566407-4.375 10.554688-4.386718h.050781.03125c3.988281.015624 7.738281 1.574218 10.558594 4.402343h.003906c5.851562 5.855469 5.855469 15.375.011719 21.226563zm0 0"/><path d="m256 349.71875c-8.285156 0-15 6.71875-15 15v23.203125c0 8.28125 6.714844 15 15 15s15-6.71875 15-15v-23.203125c0-8.28125-6.714844-15-15-15zm0 0"/><path d="m162.082031 256c0-8.285156-6.714843-15-15-15h-23.199219c-8.28125 0-15 6.714844-15 15s6.71875 15 15 15h23.199219c8.285157 0 15-6.714844 15-15zm0 0"/><path d="m170.417969 317.6875-17.476563 17.476562c-5.855468 5.859376-5.855468 15.355469 0 21.214844 2.929688 2.929688 6.769532 4.390625 10.605469 4.390625 3.839844 0 7.679687-1.460937 10.605469-4.390625l17.476562-17.476562c5.859375-5.859375 5.859375-15.355469 0-21.214844-5.855468-5.855469-15.355468-5.855469-21.210937 0zm0 0"/><path d="m329.945312 194.375c3.839844 0 7.675782-1.464844 10.605469-4.394531l16.476563-16.476563c5.859375-5.855468 5.859375-15.355468 0-21.210937-5.855469-5.859375-15.355469-5.859375-21.214844 0l-16.472656 16.476562c-5.859375 5.855469-5.859375 15.351563 0 21.210938 2.929687 2.929687 6.765625 4.394531 10.605468 4.394531zm0 0"/><path d="m339.566406 318.355469c-5.855468-5.859375-15.355468-5.859375-21.214844 0-5.855468 5.855469-5.855468 15.355469 0 21.210937l18.476563 18.476563c2.929687 2.929687 6.769531 4.394531 10.609375 4.394531 3.835938 0 7.675781-1.464844 10.605469-4.394531 5.855469-5.859375 5.855469-15.355469 0-21.214844zm0 0"/><path d="m175.171875 153.957031c-5.859375-5.855469-15.355469-5.859375-21.214844 0s-5.859375 15.355469 0 21.214844l16.476563 16.472656c2.929687 2.929688 6.769531 4.394531 10.605468 4.394531 3.839844 0 7.679688-1.464843 10.605469-4.394531 5.859375-5.859375 5.859375-15.355469 0-21.210937zm0 0"/></svg>