<svg height="512pt" viewBox="0 0 512 512" width="512pt" xmlns="http://www.w3.org/2000/svg"><path d="m512 256c0-68.113281-26.703125-132.328125-75.1875-180.8125s-112.699219-75.1875-180.8125-75.1875h-15v61.503906c-4.992188-.332031-10.003906-.503906-15-.503906-124.617188 0-226 100.933594-226 225 0 124.390625 101.632812 226 226 226 124.066406 0 225-101.382812 225-226 0-4.996094-.171875-10.007812-.503906-15h61.503906zm-91 30c0 108.074219-87.476562 196-195 196-108.074219 0-196-87.925781-196-196 0-107.523438 87.925781-195 196-195 5 0 10.011719.195312 15 .574219v29.816406l12.503906 2.109375c69.082032 11.664062 123.332032 65.914062 134.996094 134.996094l2.109375 12.503906h29.816406c.378907 4.988281.574219 10 .574219 15zm-5.453125-45c-16.945313-71.527344-73.019531-127.601562-144.546875-144.546875v-65.960937c112.6875 7.421874 203.085938 97.820312 210.507812 210.507812zm0 0"/><path d="m226 151c-74.4375 0-135 60.5625-135 135s60.5625 135 135 135 135-60.5625 135-135-60.5625-135-135-135zm103.925781 150c-2.554687 17.761719-9.5625 34.105469-19.863281 47.847656l-20.421875-20.421875-21.214844 21.214844 20.421875 20.421875c-13.742187 10.300781-30.085937 17.308594-47.847656 19.863281v-28.925781h-30v28.925781c-17.761719-2.554687-34.105469-9.5625-47.847656-19.863281l20.421875-20.421875-21.214844-21.214844-20.421875 20.421875c-10.300781-13.742187-17.308594-30.085937-19.863281-47.847656h28.925781v-30h-28.925781c2.554687-17.761719 9.5625-34.105469 19.863281-47.847656l20.421875 20.421875 21.214844-21.214844-20.421875-20.421875c13.742187-10.300781 30.085937-17.308594 47.847656-19.863281v28.925781h30v-28.925781c17.761719 2.554687 34.105469 9.5625 47.847656 19.863281l-20.421875 20.421875 21.214844 21.214844 20.421875-20.421875c10.300781 13.742187 17.308594 30.085937 19.863281 47.847656h-28.925781v30zm0 0"/><path d="m226 241c-24.8125 0-45 20.1875-45 45s20.1875 45 45 45 45-20.1875 45-45-20.1875-45-45-45zm0 60c-8.269531 0-15-6.730469-15-15s6.730469-15 15-15 15 6.730469 15 15-6.730469 15-15 15zm0 0"/></svg>