<?xml version="1.0" encoding="iso-8859-1"?>
<!-- Generator: Adobe Illustrator 19.0.0, SVG Export Plug-In . SVG Version: 6.00 Build 0)  -->
<svg version="1.1" id="Capa_1" xmlns="http://www.w3.org/2000/svg" xmlns:xlink="http://www.w3.org/1999/xlink" x="0px" y="0px"
	 viewBox="0 0 511.999 511.999" style="enable-background:new 0 0 511.999 511.999;" xml:space="preserve">
<g>
	<g>
		<path d="M461.319,103.04c-3.305-4.425-9.569-5.332-13.996-2.028c-4.424,3.305-5.333,9.571-2.028,13.996
			c69.575,93.158,59.937,225.512-22.418,307.868c-92.016,92.016-241.738,92.016-333.754,0c-92.017-92.016-92.017-241.738,0-333.754
			c82.449-82.45,214.895-92.02,308.08-22.259c4.422,3.309,10.689,2.408,13.999-2.013c3.309-4.421,2.408-10.688-2.013-13.998
			C360.375,14.31,299.818-3.539,238.666,0.583C176.921,4.749,118.79,31.169,74.98,74.979C26.629,123.332,0,187.619,0,255.999
			s26.629,132.668,74.98,181.02c48.353,48.351,112.64,74.98,181.02,74.98s132.667-26.629,181.019-74.981
			c43.773-43.774,70.191-101.857,74.387-163.549C515.561,212.376,497.773,151.85,461.319,103.04z"/>
	</g>
</g>
<g>
	<g>
		<path d="M437.132,75.093l-0.189-0.19c-3.894-3.916-10.227-3.931-14.142-0.037c-3.916,3.895-3.932,10.227-0.037,14.142l0.189,0.19
			c1.954,1.964,4.521,2.947,7.089,2.947c2.55,0,5.102-0.97,7.053-2.91C441.011,85.34,441.027,79.008,437.132,75.093z"/>
	</g>
</g>
<g>
	<g>
		<path d="M408.735,103.264C367.938,62.467,313.696,39.999,256,39.999s-111.938,22.468-152.736,63.265
			c-36.317,36.317-58.545,84.477-62.588,135.608c-3.998,50.557,9.901,101.037,39.138,142.141c3.202,4.502,9.447,5.554,13.945,2.353
			c4.5-3.201,5.554-9.445,2.353-13.945c-55.567-78.122-46.611-184.11,21.295-252.015c76.422-76.42,200.767-76.418,277.186,0
			c76.419,76.421,76.419,200.766,0,277.186c-67.644,67.645-173.377,76.782-251.408,21.726c-4.513-3.184-10.752-2.107-13.936,2.406
			c-3.184,4.513-2.107,10.752,2.406,13.936c36.343,25.642,79.955,39.336,124.418,39.336c5.804,0,11.626-0.234,17.446-0.705
			c50.979-4.124,98.999-26.341,135.216-62.557C449.532,367.937,472,313.695,472,255.999S449.532,144.061,408.735,103.264z"/>
	</g>
</g>
<g>
	<g>
		<path d="M117.402,394.586c-0.011-0.011-0.061-0.062-0.072-0.073c-3.899-3.899-10.199-3.886-14.106,0.003
			c-3.908,3.89-3.911,10.228-0.031,14.145c0.011,0.011,0.061,0.062,0.072,0.073c1.947,1.947,4.494,2.919,7.042,2.919
			c2.553,0,5.109-0.975,7.064-2.922C121.279,404.841,121.282,398.503,117.402,394.586z"/>
	</g>
</g>
<g>
	<g>
		<path d="M256,185.999c-38.598,0-70,31.402-70,70c0,38.598,31.402,70,70,70c38.598,0,70-31.402,70-70
			C326,217.401,294.598,185.999,256,185.999z M256,305.999c-27.57,0-50-22.43-50-50s22.43-50,50-50s50,22.43,50,50
			S283.57,305.999,256,305.999z"/>
	</g>
</g>
<g>
	<g>
		<path d="M256,74.999c-39.252,0-70,21.084-70,48c0,26.916,30.748,48,70,48s70-21.084,70-48C326,96.083,295.252,74.999,256,74.999z
			 M256,150.999c-26.636,0-50-13.084-50-28c0-14.916,23.364-28,50-28s50,13.084,50,28C306,137.915,282.636,150.999,256,150.999z"/>
	</g>
</g>
<g>
	<g>
		<path d="M389,185.999c-26.916,0-48,30.748-48,70s21.084,70,48,70s48-30.748,48-70C437,216.747,415.916,185.999,389,185.999z
			 M389,305.999c-14.916,0-28-23.364-28-50c0-26.636,13.084-50,28-50s28,23.364,28,50S403.916,305.999,389,305.999z"/>
	</g>
</g>
<g>
	<g>
		<path d="M256,340.999c-39.252,0-70,21.084-70,48c0,26.916,30.748,48,70,48s70-21.084,70-48
			C326,362.083,295.252,340.999,256,340.999z M256,416.999c-26.636,0-50-13.084-50-28c0-14.916,23.364-28,50-28s50,13.084,50,28
			C306,403.915,282.636,416.999,256,416.999z"/>
	</g>
</g>
<g>
	<g>
		<path d="M123,185.999c-26.916,0-48,30.748-48,70s21.084,70,48,70s48-30.748,48-70C171,216.747,149.916,185.999,123,185.999z
			 M123,305.999c-14.916,0-28-23.364-28-50c0-26.636,13.084-50,28-50s28,23.364,28,50S137.916,305.999,123,305.999z"/>
	</g>
</g>
<g>
	<g>
		<path d="M350.064,151.686c-0.007,0-0.013,0-0.019,0c-5.515,0-9.99,4.465-10,9.982v0.268c-0.01,5.522,4.459,10.008,9.982,10.018
			c0.007,0,0.013,0,0.019,0c5.514,0,9.989-4.466,10-9.982v-0.268C360.056,156.182,355.587,151.696,350.064,151.686z"/>
	</g>
</g>
<g>
	<g>
		<path d="M350.331,340.045h-0.268c-0.007,0-0.013,0-0.019,0c-5.515,0-9.99,4.465-10,9.982c-0.01,5.522,4.459,10.008,9.982,10.018
			h0.268c0.007,0,0.013,0,0.019,0c5.515,0,9.99-4.465,10-9.982C360.323,344.541,355.854,340.055,350.331,340.045z"/>
	</g>
</g>
<g>
	<g>
		<path d="M161.973,340.044c-0.007,0-0.013,0-0.019,0c-5.515,0-9.99,4.465-10,9.982v0.268c-0.01,5.522,4.459,10.008,9.982,10.018
			c0.007,0,0.013,0,0.019,0c5.514,0,9.989-4.465,10-9.982v-0.268C171.965,344.54,167.496,340.054,161.973,340.044z"/>
	</g>
</g>
<g>
	<g>
		<path d="M161.973,151.954h-0.268c-0.007,0-0.013,0-0.019,0c-5.515,0-9.99,4.465-10,9.982c-0.01,5.522,4.459,10.008,9.982,10.018
			h0.268c0.007,0,0.013,0,0.019,0c5.514,0,9.989-4.466,10-9.982C171.965,156.45,167.496,151.964,161.973,151.954z"/>
	</g>
</g>
<g>
</g>
<g>
</g>
<g>
</g>
<g>
</g>
<g>
</g>
<g>
</g>
<g>
</g>
<g>
</g>
<g>
</g>
<g>
</g>
<g>
</g>
<g>
</g>
<g>
</g>
<g>
</g>
<g>
</g>
</svg>
