<?xml version="1.0" encoding="iso-8859-1"?>
<!-- Generator: Adobe Illustrator 19.0.0, SVG Export Plug-In . SVG Version: 6.00 Build 0)  -->
<svg version="1.1" id="Capa_1" xmlns="http://www.w3.org/2000/svg" xmlns:xlink="http://www.w3.org/1999/xlink" x="0px" y="0px"
	 viewBox="0 0 512 512" style="enable-background:new 0 0 512 512;" xml:space="preserve">
<g>
	<g>
		<path d="M468.419,235.494l-8.079-2.014l-3.39-8.179l4.352-7.24c2.359-3.926,1.75-8.952-1.479-12.2l-15.413-15.507
			c-3.246-3.264-8.301-3.89-12.244-1.521l-7.298,4.387l-8.179-3.39l-2.073-8.32c-1.109-4.456-5.111-7.583-9.703-7.583h-21.818
			c-4.592,0-8.594,3.127-9.703,7.583l-2.073,8.32l-8.179,3.39l-7.298-4.387c-3.944-2.373-8.999-1.744-12.244,1.521l-15.413,15.507
			c-3.229,3.249-3.838,8.276-1.478,12.201l4.352,7.239l-3.39,8.179l-8.079,2.014c-4.469,1.113-7.6,5.134-7.583,9.739l0.079,21.958
			c0.017,4.578,3.141,8.561,7.583,9.667l8,1.993l3.39,8.179l-4.178,6.949c-2.372,3.945-1.744,8.999,1.521,12.243l15.646,15.553
			c3.249,3.23,8.276,3.839,12.201,1.479l6.891-4.142l8.18,3.39l1.936,7.769c1.11,4.455,5.111,7.582,9.703,7.582h22.093
			c4.592,0,8.594-3.127,9.703-7.583l1.936-7.768l8.179-3.39l6.891,4.142c3.927,2.36,8.954,1.752,12.201-1.479l15.646-15.553
			c3.265-3.244,3.893-8.299,1.521-12.243l-4.177-6.949l3.39-8.179l8-1.993c4.442-1.106,7.566-5.089,7.583-9.667l0.079-21.958
			C476.019,240.628,472.888,236.608,468.419,235.494z M455.953,259.333l-5.337,1.33c-3.076,0.766-5.607,2.945-6.821,5.875
			l-7.25,17.493c-1.214,2.93-0.967,6.262,0.668,8.98l2.736,4.553l-4.563,4.536l-4.536-2.727c-2.717-1.634-6.05-1.883-8.98-0.668
			l-17.493,7.25c-2.93,1.214-5.109,3.745-5.875,6.821l-1.265,5.076h-6.465l-1.266-5.077c-0.767-3.076-2.946-5.606-5.875-6.82
			l-17.493-7.25c-2.93-1.216-6.264-0.967-8.98,0.668l-4.536,2.727l-4.563-4.535l2.737-4.554c1.635-2.718,1.882-6.051,0.668-8.98
			l-7.25-17.493c-1.214-2.93-3.745-5.109-6.821-5.875l-5.337-1.33l-0.022-6.329l5.359-1.336c3.077-0.766,5.607-2.946,6.821-5.875
			l7.25-17.493c1.214-2.93,0.967-6.262-0.668-8.98l-2.937-4.885l4.396-4.423l4.901,2.946c2.717,1.634,6.05,1.884,8.98,0.668
			l17.493-7.25c2.93-1.214,5.109-3.745,5.875-6.821l1.402-5.629h6.19l1.402,5.629c0.766,3.076,2.945,5.607,5.875,6.821l17.493,7.25
			c2.929,1.214,6.263,0.966,8.98-0.668l4.901-2.946l4.396,4.423l-2.937,4.886c-1.634,2.718-1.881,6.05-0.667,8.979l7.25,17.493
			c1.214,2.929,3.744,5.109,6.821,5.875l5.359,1.336L455.953,259.333z"/>
	</g>
</g>
<g>
	<g>
		<path d="M394.006,137.896c-23.897,0-46.152,7.148-64.755,19.407c-0.215,0.116-0.43,0.231-0.639,0.365l-148.749,95.359
			c-1.532-19.557-17.925-35.005-37.869-35.005c-1.626,0-3.225,0.114-4.798,0.313l36.405-94.945c0.036-0.094,0.06-0.189,0.092-0.283
			c4.063-10.245,6.299-21.406,6.299-33.079c0-49.624-40.372-89.996-89.996-89.996S0,40.405,0,90.028v336.984
			c0,0.957,0.143,1.879,0.394,2.756c1.749,20.397,10.394,40.308,25.969,55.883C43.908,503.196,66.954,511.968,90,511.968
			c17.88,0,35.749-5.306,51.061-15.866l115.803-50.949c5.055-2.225,7.35-8.125,5.126-13.18c-2.224-5.055-8.126-7.349-13.18-5.126
			l-77.7,34.185c9.569-19.881,11.648-42.934,5.132-64.795c-1.577-5.292-7.149-8.308-12.438-6.727
			c-5.293,1.577-8.305,7.146-6.727,12.438c7.362,24.7,0.625,51.354-17.581,69.56c-27.291,27.291-71.697,27.293-98.989,0
			c-27.292-27.292-27.292-71.699,0-98.99c17.049-17.05,41.294-24.082,64.862-18.804c5.386,1.202,10.736-2.185,11.942-7.574
			c1.206-5.39-2.185-10.735-7.574-11.942c-30.284-6.777-61.453,2.26-83.373,24.179c-2.27,2.27-4.387,4.636-6.363,7.079V146.524
			c16.512,20.418,41.753,33.499,69.997,33.499c16.437,0,31.859-4.434,45.135-12.162l-28.096,73.275
			c-1.955,4.574-3.04,9.604-3.04,14.884c0,20.952,17.046,37.998,37.998,37.998c8.292,0,15.966-2.678,22.221-7.203
			c0.005-0.003,0.011-0.005,0.016-0.009l121.565-77.933c-6.287,14.414-9.784,30.314-9.784,47.017
			c0,58.006,42.075,106.369,97.307,116.177l-51.524,22.668c-5.055,2.224-7.35,8.125-5.126,13.18
			c1.647,3.745,5.313,5.976,9.158,5.976c1.345,0,2.713-0.273,4.022-0.85c0,0,113.635-50.016,113.936-50.188
			C484.039,344.045,512,303.175,512,255.891C512,190.829,459.068,137.896,394.006,137.896z M89.996,160.025
			c-38.596,0-69.997-31.402-69.997-69.997c0-38.596,31.401-69.997,69.997-69.997s69.997,31.401,69.997,69.997
			S128.592,160.025,89.996,160.025z M141.993,274.02c-9.925,0-17.999-8.075-17.999-17.999s8.075-17.999,17.999-17.999
			s17.999,8.075,17.999,17.999S151.918,274.02,141.993,274.02z M394.006,353.886c-54.034,0-97.995-43.961-97.995-97.995
			c0-54.034,43.961-97.995,97.995-97.995c54.034,0,97.995,43.961,97.995,97.995C492.001,309.925,448.041,353.886,394.006,353.886z"
			/>
	</g>
</g>
<g>
	<g>
		<path d="M394.006,225.892c-16.541,0-29.999,13.457-29.999,29.999c0,16.541,13.457,29.999,29.999,29.999
			c16.541,0,29.999-13.457,29.999-29.999C424.004,239.349,410.547,225.892,394.006,225.892z M394.006,265.89
			c-5.514,0-10-4.486-10-10c0-5.514,4.486-10,10-10c5.514,0,10,4.486,10,10C404.005,261.404,399.519,265.89,394.006,265.89z"/>
	</g>
</g>
<g>
	<g>
		<path d="M294.125,413.872c-1.86-1.859-4.439-2.93-7.07-2.93c-2.63,0-5.21,1.07-7.069,2.93c-1.86,1.86-2.931,4.44-2.931,7.07
			c0,2.64,1.07,5.21,2.931,7.07c1.859,1.859,4.439,2.93,7.069,2.93c2.631,0,5.21-1.07,7.07-2.93c1.86-1.86,2.93-4.44,2.93-7.07
			S295.986,415.732,294.125,413.872z"/>
	</g>
</g>
<g>
	<g>
		<path d="M153.015,357.77l-0.073-0.074c-0.051-0.052-0.103-0.104-0.155-0.155c-0.28-0.275-0.573-0.53-0.877-0.766
			c-3.993-3.154-9.81-2.813-13.405,0.938c-3.821,3.987-3.687,10.317,0.301,14.138c0.061,0.06,0.124,0.12,0.186,0.177
			c1.936,1.869,4.439,2.804,6.944,2.804c2.556,0,5.111-0.974,7.063-2.921C156.908,368.011,156.916,361.68,153.015,357.77z"/>
	</g>
</g>
<g>
	<g>
		<path d="M89.996,374.015c-26.467,0-47.998,21.531-47.998,47.998c0,26.467,21.531,47.998,47.998,47.998
			c26.467,0,47.998-21.531,47.998-47.998C137.994,395.546,116.463,374.015,89.996,374.015z M89.996,450.011
			c-15.438,0-27.999-12.56-27.999-27.999c0-15.438,12.56-27.999,27.999-27.999s27.999,12.56,27.999,27.999
			C117.994,437.451,105.434,450.011,89.996,450.011z"/>
	</g>
</g>
<g>
	<g>
		<path d="M89.996,412.013h-0.179c-5.522,0-10,4.478-10,10c0,5.522,4.478,10,10,10h0.179c5.522,0,10-4.478,10-10
			C99.995,416.491,95.518,412.013,89.996,412.013z"/>
	</g>
</g>
<g>
	<g>
		<path d="M89.996,42.031c-26.467,0-47.998,21.531-47.998,47.998c0,26.467,21.531,47.998,47.998,47.998
			c26.467,0,47.998-21.531,47.998-47.998C137.994,63.562,116.463,42.031,89.996,42.031z M89.996,118.027
			c-15.438,0-27.999-12.56-27.999-27.999c0-15.438,12.56-27.999,27.999-27.999s27.999,12.56,27.999,27.999
			C117.994,105.467,105.434,118.027,89.996,118.027z"/>
	</g>
</g>
<g>
	<g>
		<path d="M89.996,80.029h-0.179c-5.522,0-10,4.478-10,10c0,5.522,4.478,10,10,10h0.179c5.522,0,10-4.478,10-10
			C99.995,84.507,95.518,80.029,89.996,80.029z"/>
	</g>
</g>
<g>
</g>
<g>
</g>
<g>
</g>
<g>
</g>
<g>
</g>
<g>
</g>
<g>
</g>
<g>
</g>
<g>
</g>
<g>
</g>
<g>
</g>
<g>
</g>
<g>
</g>
<g>
</g>
<g>
</g>
</svg>
