<?xml version="1.0" encoding="iso-8859-1"?>
<!-- Generator: Adobe Illustrator 21.0.0, SVG Export Plug-In . SVG Version: 6.00 Build 0)  -->
<svg xmlns="http://www.w3.org/2000/svg" xmlns:xlink="http://www.w3.org/1999/xlink" version="1.1" id="Capa_1" x="0px" y="0px" viewBox="0 0 512 512" style="enable-background:new 0 0 512 512;" xml:space="preserve" width="512" height="512">
<g>
	<path d="M470.3,271H41.7C18.707,271,0,289.707,0,312.7v124.6C0,460.293,18.707,479,41.7,479H470.3c22.993,0,41.7-18.707,41.7-41.7   V312.7C512,289.707,493.293,271,470.3,271z M41.7,301h28.869l-3.394,3.394c-5.858,5.858-5.858,15.355,0,21.213   c2.929,2.929,6.768,4.394,10.606,4.394s7.678-1.464,10.606-4.394L112.994,301h42.074l-3.394,3.394   c-5.858,5.858-5.858,15.355,0,21.213c2.929,2.929,6.768,4.394,10.606,4.394s7.678-1.464,10.606-4.394L197.494,301h42.075   l-3.394,3.394c-5.858,5.858-5.858,15.355,0,21.213c2.929,2.929,6.768,4.394,10.606,4.394s7.678-1.464,10.606-4.394L281.995,301   h42.074l-3.394,3.394c-5.858,5.857-5.858,15.355,0,21.213c2.929,2.929,6.767,4.394,10.606,4.394c3.838,0,7.678-1.465,10.606-4.394   L366.495,301h41.574l-3.394,3.394c-5.858,5.858-5.858,15.355,0,21.213c2.929,2.929,6.768,4.394,10.606,4.394   s7.678-1.464,10.606-4.394L450.494,301H470.3c6.451,0,11.7,5.249,11.7,11.7V360H30v-47.3C30,306.249,35.249,301,41.7,301z    M470.3,449h-28.868l3.393-3.393c5.858-5.858,5.858-15.355,0-21.213c-5.857-5.858-15.355-5.858-21.213,0L399.006,449h-41.574   l3.393-3.393c5.858-5.858,5.858-15.355,0-21.213c-5.857-5.858-15.355-5.858-21.213,0L315.006,449h-42.074l3.393-3.393   c5.858-5.858,5.858-15.355,0-21.213c-5.857-5.858-15.355-5.858-21.213,0L230.506,449h-42.074l3.393-3.393   c5.858-5.858,5.858-15.355,0-21.213c-5.857-5.858-15.355-5.858-21.213,0L146.006,449h-42.074l3.393-3.393   c5.858-5.858,5.858-15.355,0-21.213c-5.857-5.858-15.355-5.858-21.213,0L61.506,449H41.7c-6.451,0-11.7-5.249-11.7-11.7V390h452   v47.3C482,443.751,476.751,449,470.3,449z"/>
	<path d="M470.3,33H41.7C18.707,33,0,51.707,0,74.701v124.6C0,222.293,18.707,241,41.7,241H470.3c22.993,0,41.7-18.707,41.7-41.7   v-124.6C512,51.707,493.293,33,470.3,33z M41.7,63h19.806l24.606,24.606C89.041,90.536,92.88,92,96.719,92   s7.678-1.464,10.606-4.394c5.858-5.858,5.858-15.355,0-21.213L103.932,63h42.074l24.606,24.606   C173.541,90.536,177.38,92,181.219,92s7.678-1.464,10.606-4.394c5.858-5.858,5.858-15.355,0-21.213L188.432,63h42.074   l24.606,24.606C258.041,90.536,261.88,92,265.719,92s7.678-1.464,10.606-4.394c5.858-5.858,5.858-15.355,0-21.213L272.932,63   h42.074l24.606,24.606C342.541,90.536,346.38,92,350.219,92s7.678-1.464,10.606-4.394c5.858-5.858,5.858-15.355,0-21.213   L357.432,63h41.574l24.606,24.606C426.541,90.536,430.38,92,434.219,92s7.678-1.464,10.606-4.394   c5.858-5.858,5.858-15.355,0-21.213L441.432,63H470.3c6.451,0,11.7,5.249,11.7,11.7V122H30v-47.3C30,68.249,35.249,63,41.7,63z    M470.3,211h-19.806l-24.606-24.606c-5.857-5.858-15.355-5.858-21.213,0c-5.858,5.858-5.858,15.355,0,21.213l3.394,3.394h-41.574   l-24.607-24.606c-5.857-5.858-15.355-5.857-21.213,0c-5.858,5.858-5.858,15.355,0,21.213l3.394,3.394h-42.074l-24.606-24.606   c-5.857-5.858-15.355-5.858-21.213,0c-5.858,5.858-5.858,15.355,0,21.213l3.394,3.394h-42.075l-24.606-24.606   c-5.857-5.858-15.355-5.858-21.213,0c-5.858,5.858-5.858,15.355,0,21.213l3.394,3.394h-42.074l-24.606-24.606   c-5.857-5.858-15.355-5.858-21.213,0c-5.858,5.858-5.858,15.355,0,21.213L70.568,211H41.7c-6.451,0-11.7-5.249-11.7-11.7V152h452   v47.3C482,205.751,476.751,211,470.3,211z"/>
</g>















</svg>
