<svg height="512pt" viewBox="-31 0 512 512" width="512pt" xmlns="http://www.w3.org/2000/svg"><path d="m450 152v-152h-90v152h30v30h-25.8125l-55.742188 167.230469-72.839843-72.835938-21.210938 21.210938 59.085938 59.085937-95.457031-11.929687c-29.871094-3.734375-59.945313 5.550781-82.511719 25.472656-22.570313 19.921875-35.511719 48.613281-35.511719 78.714844v63.050781h390v-330h-30v-30zm-360 330v-33.050781c0-21.5 9.246094-41.996094 25.363281-56.222657 16.121094-14.234374 37.601563-20.867187 58.941407-18.195312l133.726562 16.714844 51.96875 51.96875v38.785156zm330 0h-30v-30h30zm-38.785156-60-49.054688-49.050781 53.652344-160.949219h34.1875v210zm8.785156-392h30v92h-30zm0 0"/><path d="m240 182c0-66.167969-53.832031-120-120-120s-120 53.832031-120 120 53.832031 120 120 120 120-53.832031 120-120zm-210 0c0-49.625 40.375-90 90-90s90 40.375 90 90-40.375 90-90 90-90-40.375-90-90zm0 0"/><path d="m120 122c-33.085938 0-60 26.914062-60 60h30c0-16.542969 13.457031-30 30-30zm0 0"/></svg>