<svg height="512pt" viewBox="-31 0 512 512" width="512pt" xmlns="http://www.w3.org/2000/svg"><path d="m450 190.785156-30-30v-70.785156h-90v-30h-61.507812c-6.96875-34.191406-37.273438-60-73.492188-60h-120c-41.355469 0-75 33.644531-75 75v362c0 41.355469 33.644531 75 75 75h120c36.21875 0 66.523438-25.808594 73.492188-60h61.507812v-30h90v-68.785156l30-30zm-45-2.570312 15 15v38.785156h-30v-38.785156zm-315 70.757812-60-40v-85.425781l60 41.335937zm-60-3.945312 60 40v83.945312l-60-40zm90-225.027344h30v452h-30zm120 188.972656-60 40v-84.089844l60-41.335937zm-60 76.054688 60-40v83.945312l-60 40zm90-205.027344h30v30h-30zm-30-15v22.117188l-60 41.335937v-108.453125h15c24.8125 0 45 20.1875 45 45zm-165-45h15v108.453125l-60-41.335937v-22.117188c0-24.8125 20.1875-45 45-45zm-45 407v-61.972656l60 40v66.972656h-15c-24.8125 0-45-20.1875-45-45zm165 45h-15v-66.972656l60-40v61.972656c0 24.8125-20.1875 45-45 45zm105-60h-30v-30h30zm30-30v-30h-60v-212h60v-30h60v40.785156l-30 30v132.429688l30 30v38.785156zm75-66.214844-15-15v-38.785156h30v38.785156zm0 0"/></svg>