<?xml version="1.0" encoding="iso-8859-1"?>
<!-- Generator: Adobe Illustrator 19.0.0, SVG Export Plug-In . SVG Version: 6.00 Build 0)  -->
<svg version="1.1" id="Capa_1" xmlns="http://www.w3.org/2000/svg" xmlns:xlink="http://www.w3.org/1999/xlink" x="0px" y="0px"
	 viewBox="0 0 512 512" style="enable-background:new 0 0 512 512;" xml:space="preserve">
<g>
	<g>
		<path d="M227.342,187.815c-0.093-0.045-0.179-0.098-0.273-0.141L103.47,131.755c-5.954-3.68-12.962-5.81-20.461-5.81
			c-21.525,0-39.037,17.512-39.037,39.036v185.057c0,31.981,26.019,58,58,58c14.782,0,28.282-5.566,38.536-14.703
			c0.419-0.323,0.809-0.691,1.18-1.087c3.894-3.666,7.286-7.855,10.052-12.466l87.89-109.623
			c10.125-9.156,16.498-22.387,16.498-37.081C256.127,213.089,244.333,195.811,227.342,187.815z M83.008,145.945
			c10.496,0,19.036,8.54,19.036,19.036c0,10.497-8.54,19.037-19.036,19.037c-10.497,0-19.037-8.54-19.037-19.037
			C63.971,154.485,72.511,145.945,83.008,145.945z M135.21,368.428l-8.018,10c-6.715,5.972-15.549,9.61-25.221,9.61
			c-20.953,0-38-17.047-38-38s17.047-38,38-38s38,17.047,38,38C139.971,356.706,138.239,362.975,135.21,368.428z M158.886,338.898
			c-5.211-26.669-28.745-46.86-56.915-46.86c-14.527,0-27.813,5.381-38,14.238V199.044c5.636,3.163,12.127,4.975,19.037,4.975
			c21.524,0,39.036-17.512,39.036-39.037c0-0.985-0.049-1.958-0.121-2.924l60.14,27.209c-15.446,8.518-25.936,24.961-25.936,43.812
			c0,26.752,21.12,48.662,47.561,49.938L158.886,338.898z M206.127,263.078c-16.542,0-30-13.458-30-30s13.458-30,30-30
			s30,13.458,30,30S222.669,263.078,206.127,263.078z"/>
	</g>
</g>
<g>
	<g>
		<path d="M213.2,226.01c-1.87-1.861-4.44-2.93-7.07-2.93s-5.21,1.069-7.07,2.93c-1.87,1.86-2.93,4.44-2.93,7.07
			s1.06,5.21,2.93,7.069c1.86,1.86,4.431,2.931,7.07,2.931c2.63,0,5.21-1.07,7.07-2.931c1.859-1.859,2.93-4.439,2.93-7.069
			S215.06,227.87,213.2,226.01z"/>
	</g>
</g>
<g>
	<g>
		<path d="M90.08,157.91c-1.86-1.86-4.44-2.931-7.07-2.931c-2.64,0-5.21,1.07-7.07,2.931c-1.87,1.859-2.93,4.439-2.93,7.069
			s1.06,5.21,2.93,7.07c1.86,1.861,4.44,2.93,7.07,2.93s5.2-1.069,7.07-2.93c1.859-1.86,2.93-4.44,2.93-7.07
			S91.94,159.769,90.08,157.91z"/>
	</g>
</g>
<g>
	<g>
		<path d="M109.04,342.97c-1.86-1.86-4.431-2.93-7.07-2.93c-2.63,0-5.21,1.069-7.07,2.93c-1.859,1.86-2.93,4.44-2.93,7.07
			s1.07,5.21,2.93,7.069c1.86,1.86,4.44,2.931,7.07,2.931c2.64,0,5.21-1.07,7.07-2.931c1.859-1.869,2.93-4.439,2.93-7.069
			S110.899,344.83,109.04,342.97z"/>
	</g>
</g>
<g>
	<g>
		<path d="M502,85.127h-4V61.333C498,36.888,478.112,17,453.667,17H58.333C33.888,17,14,36.888,14,61.333v23.794h-4
			c-5.522,0-10,4.478-10,10V485c0,5.522,5.292,10,10.814,10h402.498c20.751,0,38.17-14.486,42.709-33.873H502
			c5.522,0,10-4.478,10-10v-356C512,89.604,507.522,85.127,502,85.127z M492,347H292.718v-36H492V347z M492,175.976h-15.044v-18
			c0-5.523-4.477-10-10-10c-5.522,0-10,4.478-10,10v18h-40.128v-18c0-5.522-4.478-10-10-10c-5.522,0-10,4.478-10,10v18h-40.127v-18
			c0-5.522-4.478-10-10-10c-5.522,0-10,4.478-10,10v18h-25.983c-9.925,0-18-8.075-18-18c0-9.925,8.075-18,18-18H492V175.976z
			 M456.956,195.976v11.271c0,14.747-11.997,26.745-26.744,26.745h-21.825c5.312-7.584,8.441-16.804,8.441-26.745v-11.271H456.956z
			 M396.828,195.976v11.271c0,14.747-11.997,26.745-26.744,26.745H348.26c5.312-7.584,8.441-16.804,8.441-26.745v-11.271H396.828z
			 M492,119.976H310.718c-20.953,0-38,17.047-38,38.001c0,20.953,17.047,37.999,38,37.999h25.983v11.271
			c0,14.747-11.998,26.745-26.745,26.745H293c-5.522,0-10,4.478-10,10c0,5.522,4.478,10,10,10h137.212
			c25.774,0,46.744-20.97,46.744-46.745v-11.271H492V291H282.718c-5.522,0-10,4.478-10,10v56c0,5.522,4.478,10,10,10H492v74.127
			H217.5c-5.522,0-10,4.478-10,10c0,5.522,4.478,10,10,10h217.482c-3.791,8.182-12.075,13.873-21.67,13.873H20.814v-13.873H131
			c5.522,0,10-4.478,10-10c0-5.522-4.478-10-10-10H20v-336h43.57c2.671,0,5.231-1.068,7.109-2.968l32.675-33.032h58.927
			l32.535,33.019c1.88,1.907,4.445,2.981,7.123,2.981h40.728c5.522,0,10-4.478,10-10c0-5.522-4.478-10-10-10h-36.542L173.59,52.108
			c-1.88-1.907-4.445-2.981-7.123-2.981H99.181c-2.671,0-5.231,1.068-7.109,2.968L59.396,85.127H34V61.333
			C34,47.916,44.916,37,58.333,37h395.334C467.084,37,478,47.916,478,61.333v23.794H336c-5.522,0-10,4.478-10,10
			c0,5.522,4.478,10,10,10h156V119.976z"/>
	</g>
</g>
<g>
	<g>
		<path d="M180.63,444.06c-1.87-1.871-4.441-2.93-7.08-2.93c-2.63,0-5.2,1.06-7.07,2.93c-1.859,1.86-2.92,4.44-2.92,7.07
			s1.061,5.21,2.92,7.07c1.87,1.859,4.44,2.93,7.07,2.93s5.21-1.07,7.08-2.93c1.86-1.86,2.92-4.44,2.92-7.07
			C183.55,448.49,182.49,445.92,180.63,444.06z"/>
	</g>
</g>
<g>
	<g>
		<path d="M297.399,88.06c-1.859-1.87-4.43-2.93-7.069-2.93c-2.63,0-5.21,1.06-7.07,2.93c-1.86,1.86-2.93,4.431-2.93,7.07
			c0,2.63,1.069,5.21,2.93,7.07c1.86,1.86,4.44,2.93,7.07,2.93c2.64,0,5.21-1.07,7.069-2.93c1.86-1.86,2.931-4.44,2.931-7.07
			C300.33,92.49,299.26,89.92,297.399,88.06z"/>
	</g>
</g>
<g>
	<g>
		<path d="M400.833,49.127h-0.5c-5.522,0-10,4.478-10,10c0,5.522,4.478,10,10,10h0.5c5.522,0,10-4.478,10-10
			C410.833,53.605,406.355,49.127,400.833,49.127z"/>
	</g>
</g>
<g>
	<g>
		<path d="M441.333,49.127h-0.5c-5.522,0-10,4.478-10,10c0,5.522,4.478,10,10,10h0.5c5.522,0,10-4.478,10-10
			C451.333,53.605,446.855,49.127,441.333,49.127z"/>
	</g>
</g>
<g>
	<g>
		<path d="M360.333,49.127h-0.5c-5.522,0-10,4.478-10,10c0,5.522,4.478,10,10,10h0.5c5.522,0,10-4.478,10-10
			C370.333,53.605,365.855,49.127,360.333,49.127z"/>
	</g>
</g>
<g>
	<g>
		<path d="M319.833,49.127h-0.5c-5.522,0-10,4.478-10,10c0,5.522,4.478,10,10,10h0.5c5.522,0,10-4.478,10-10
			C329.833,53.605,325.355,49.127,319.833,49.127z"/>
	</g>
</g>
<g>
	<g>
		<path d="M442.718,379.5c-5.522,0-10,4.478-10,10v24.024c0,5.522,4.478,10,10,10c5.522,0,10-4.478,10-10V389.5
			C452.718,383.978,448.24,379.5,442.718,379.5z"/>
	</g>
</g>
<g>
	<g>
		<path d="M402.718,379.5c-5.522,0-10,4.478-10,10v24.024c0,5.522,4.478,10,10,10c5.522,0,10-4.478,10-10V389.5
			C412.718,383.978,408.24,379.5,402.718,379.5z"/>
	</g>
</g>
<g>
	<g>
		<path d="M362.718,379.5c-5.522,0-10,4.478-10,10v24.024c0,5.522,4.478,10,10,10c5.522,0,10-4.478,10-10V389.5
			C372.718,383.978,368.24,379.5,362.718,379.5z"/>
	</g>
</g>
<g>
	<g>
		<path d="M322.718,379.5c-5.522,0-10,4.478-10,10v24.024c0,5.522,4.478,10,10,10c5.522,0,10-4.478,10-10V389.5
			C332.718,383.978,328.24,379.5,322.718,379.5z"/>
	</g>
</g>
<g>
	<g>
		<path d="M282.718,379.5c-5.522,0-10,4.478-10,10v24.024c0,5.522,4.478,10,10,10c5.522,0,10-4.478,10-10V389.5
			C292.718,383.978,288.24,379.5,282.718,379.5z"/>
	</g>
</g>
<g>
	<g>
		<path d="M459.354,319h-0.5c-5.522,0-10,4.478-10,10c0,5.522,4.477,10,10,10h0.5c5.522,0,10-4.478,10-10
			C469.354,323.478,464.876,319,459.354,319z"/>
	</g>
</g>
<g>
	<g>
		<path d="M418.854,319h-0.5c-5.522,0-10,4.478-10,10c0,5.522,4.477,10,10,10h0.5c5.522,0,10-4.478,10-10
			C428.854,323.478,424.376,319,418.854,319z"/>
	</g>
</g>
<g>
	<g>
		<path d="M378.354,319h-0.5c-5.522,0-10,4.478-10,10c0,5.522,4.477,10,10,10h0.5c5.522,0,10-4.478,10-10
			C388.354,323.478,383.876,319,378.354,319z"/>
	</g>
</g>
<g>
</g>
<g>
</g>
<g>
</g>
<g>
</g>
<g>
</g>
<g>
</g>
<g>
</g>
<g>
</g>
<g>
</g>
<g>
</g>
<g>
</g>
<g>
</g>
<g>
</g>
<g>
</g>
<g>
</g>
</svg>
