<svg height="496pt" viewBox="-48 0 496 496" width="496pt" xmlns="http://www.w3.org/2000/svg"><path d="m360 448h-61.710938l-83.199218-52.015625 66.09375-41.320313c4.199218 3.328126 9.328125 5.335938 14.816406 5.335938 13.230469 0 24-10.769531 24-24s-10.769531-24-24-24c-5.542969 0-10.769531 2.007812-14.984375 5.390625l-65.75-40.460937 99-60.929688h45.734375c8.824219 0 16-7.175781 16-16v-16c0-8.824219-7.175781-16-16-16h-56.207031c3.535156-4.671875 6.183593-10.054688 7.390625-16h40.816406c13.230469 0 24-10.769531 24-24v-42.160156c0-11.960938-8.648438-21.945313-20.640625-23.761719l-35.390625-5.03125c-2.25-.335937-4.183594-1.503906-5.464844-3.292969l-26.375-36.929687c-7.449218-10.535157-19.640625-16.824219-32.609375-16.824219h-102.398437c-13.425782 0-25.863282 6.65625-33.304688 17.808594l-19.28125 28.960937c-1.039062 1.558594-2.574218 2.695313-4.351562 3.246094l-63.085938 18.894531c-10.226562 3.128906-17.097656 12.378906-17.097656 23.011719v36.078125c0 13.230469 10.769531 24 24 24h40.808594c1.214844 5.945312 3.855468 11.328125 7.390625 16h-48.199219c-8.824219 0-16 7.175781-16 16v16c0 8.824219 7.175781 16 16 16h45.734375l99 60.929688-65.75 40.460937c-4.214844-3.382813-9.441406-5.390625-14.984375-5.390625-13.230469 0-24 10.769531-24 24s10.769531 24 24 24c5.464844 0 10.566406-1.992188 14.785156-5.328125l66.125 41.328125-83.199218 52h-61.710938c-10.59375 0-20.632812 4.144531-28.335938 11.742188-7.519531 7.632812-11.664062 17.671874-11.664062 28.257812v8h400v-8c0-22.054688-17.945312-40-40-40zm-70.679688-116.441406.015626-.023438c1.503906-2.214844 4-3.535156 6.664062-3.535156 4.40625 0 8 3.585938 8 8s-3.59375 8-8 8c-2.710938 0-5.34375-1.480469-6.785156-3.710938-.808594-1.3125-1.214844-2.761718-1.214844-4.289062 0-1.648438.457031-3.175781 1.320312-4.441406zm-130.128906-179.558594h73.617188c1.214844 5.945312 3.855468 11.328125 7.390625 16h-88.40625c3.542969-4.671875 6.183593-10.054688 7.398437-16zm88.808594-8c0-13.230469 10.769531-24 24-24s24 10.769531 24 24-10.769531 24-24 24-24-10.769531-24-24zm-216-16v-36.078125c0-3.554687 2.328125-6.65625 5.734375-7.699219l63.121094-18.902344c5.410156-1.679687 9.90625-5.03125 13-9.679687l19.28125-28.960937c4.457031-6.6875 11.925781-10.679688 19.984375-10.679688h102.398437c7.785157 0 15.097657 3.761719 19.570313 10.089844l26.382812 36.941406c3.757813 5.296875 9.648438 8.878906 16.199219 9.847656l35.359375 5.023438c4.039062.617187 6.96875 3.953125 6.96875 7.9375v42.160156c0 4.40625-3.59375 8-8 8h-40.808594c-3.71875-18.230469-19.871094-32-39.191406-32s-35.472656 13.769531-39.191406 32h-73.617188c-3.71875-18.230469-19.871094-32-39.191406-32s-35.472656 13.769531-39.191406 32h-40.808594c-4.40625 0-8-3.59375-8-8zm64 16c0-13.230469 10.769531-24 24-24s24 10.769531 24 24-10.769531 24-24 24-24-10.769531-24-24zm-56 40h320v16h-320zm76.265625 32h167.46875l-83.734375 51.527344zm-5.394531 124.152344c-1.527344 2.367187-4.160156 3.847656-6.871094 3.847656-4.40625 0-8-3.585938-8-8s3.59375-8 8-8c2.648438 0 5.121094 1.296875 6.632812 3.488281.878907 1.367188 1.367188 2.976563 1.367188 4.511719 0 1.527344-.40625 2.976562-1.128906 4.152344zm16.511718 1.007812c.371094-1.6875.617188-3.40625.617188-5.160156 0-1.695312-.238281-3.359375-.59375-5.007812l72.59375-44.671876 72.574219 44.664063c-.335938 1.632813-.574219 3.304687-.574219 5.015625 0 1.753906.246094 3.480469.625 5.175781l-72.617188 45.382813zm72.609376 64.265625 68.121093 42.574219h-136.234375zm-182.625 74.574219c1.167968-3.320312 3.074218-6.375 5.609374-8.945312 4.617188-4.550782 10.664063-7.054688 17.023438-7.054688h320c10.433594 0 19.328125 6.6875 22.632812 16zm0 0"/><path d="m112 136h16v16h-16zm0 0"/><path d="m264 136h16v16h-16zm0 0"/><path d="m260.945312 32h-113.890624l-24 48h161.890624zm-112 32 8-16h94.109376l8 16zm0 0"/></svg>