<svg height="512pt" viewBox="0 0 512 512" width="512pt" xmlns="http://www.w3.org/2000/svg"><path d="m446.269531 60-30-60h-198.539062l-30 60h-65.730469v30h30v120h30v60h90v-60h90v60h90v-60h30v-120h30v-30zm-210-30h161.460938l19.144531 38.292969-43.414062 21.707031h-112.921876l-43.414062-21.707031zm5.730469 210h-30v-30h30zm180 0h-30v-30h30zm30-120h-30v30h30v30h-270v-30h30v-30h-30v-30h11.460938l60 30h127.078124l60-30h11.460938zm0 0"/><path d="m389.710938 371.003906-27.996094 20.996094h-3.222656c-6.96875-34.191406-37.273438-60-73.492188-60h-55.457031l-15.621094-10.414062c-45.050781-30.03125-104.9375-25.398438-144.859375 10.414062h-69.0625v150h73.183594c80.242187 19.902344 162.832031 30 245.507812 30h33.0625l150.191406-114.070312-8.945312-11.929688c-24.886719-33.179688-70.183594-39.832031-103.289062-14.996094zm-329.710938 80.996094h-30v-90h30zm281.652344 30h-22.960938c-76.953125 0-153.828125-9.015625-228.691406-26.789062v-101.679688c29.8125-26.015625 73.972656-29.1875 107.28125-6.980469l23.175781 15.449219h64.542969c19.554688 0 36.238281 12.539062 42.429688 30h-132.429688v30h176.714844l35.996094-26.996094c15.679687-11.765625 35.46875-11.730468 50.425781-1.472656zm0 0"/></svg>