<svg height="496pt" viewBox="0 0 496 496" width="496pt" xmlns="http://www.w3.org/2000/svg"><path d="m80 128c26.472656 0 48-21.527344 48-48s-21.527344-48-48-48-48 21.527344-48 48 21.527344 48 48 48zm-30.863281-40h22.863281v22.863281c-11.191406-2.902343-19.960938-11.671875-22.863281-22.863281zm38.863281 22.863281v-22.863281h22.863281c-2.902343 11.191406-11.671875 19.960938-22.863281 22.863281zm22.863281-38.863281h-22.863281v-22.863281c11.191406 2.902343 19.960938 11.671875 22.863281 22.863281zm-38.863281-22.863281v22.863281h-22.863281c2.902343-11.191406 11.671875-19.960938 22.863281-22.863281zm0 0"/><path d="m416 0c-25.625 0-49.039062 12.039062-64 32.304688v-.304688h-208v.3125c-14.984375-20.289062-38.390625-32.3125-64-32.3125-44.113281 0-80 35.886719-80 80v416h496v-416c0-44.113281-35.886719-80-80-80zm-54.238281 46.136719c11.695312-18.871094 31.972656-30.136719 54.238281-30.136719 35.289062 0 64 28.710938 64 64 0 21.40625-10.632812 41.289062-28.464844 53.199219-10.511718 7.066406-22.808594 10.800781-35.535156 10.800781-35.289062 0-64-28.710938-64-64 0-2.320312.144531-4.640625.441406-7.105469.972656-9.535156 4.09375-18.511719 9.320313-26.757812zm-193.761719 417.863281h160v8c0 2.816406.574219 5.488281 1.472656 8h-162.945312c.898437-2.511719 1.472656-5.183594 1.472656-8zm-80-16 .078125-16h319.921875l-.078125 16zm304-112h-9.527344l-5.136718-24h30.664062v16c0 4.414062-3.585938 8-8 8zm-193.984375 47.960938-11.40625-39.960938h21.390625v39.96875zm25.984375-39.960938h16v39.976562l-16-.007812zm32 0h16v39.992188l-16-.007813zm32 0h21.398438l-11.398438 40h-10zm-126.023438-16 11.023438-49.65625c.847656-3.734375 4.0625-6.34375 7.800781-6.34375h134.398438c3.738281 0 6.945312 2.609375 7.785156 6.296875l11.039063 49.703125zm188.4375 0-11.820312-53.214844c-2.523438-11.058594-12.136719-18.785156-23.394531-18.785156h-134.398438c-11.25 0-20.863281 7.726562-23.410156 18.832031l-11.816406 53.167969h-1.574219c-4.328125 0-8.601562.574219-12.71875 1.527344l12.382812-57.910156c3.976563-18.320313 20.441407-31.617188 39.136719-31.617188h130.398438c18.695312 0 35.160156 13.296875 39.136719 31.585938l12.375 57.957031c-4.152344-.96875-8.398438-1.542969-12.710938-1.542969zm-236.863281 8h-17.550781c-4.414062 0-8-3.585938-8-8v-16h30.671875zm8.433594 14.640625c.65625-.449219 1.304687-.90625 2.398437-1.464844 5.898438-3.382812 12.679688-5.175781 19.617188-5.175781h25.960938l12.703124 44.472656c2.046876 6.785156 8.351563 11.527344 15.335938 11.527344h100c6.984375 0 13.289062-4.742188 15.375-11.648438l12.664062-44.351562h25.960938c6.9375 0 13.71875 1.792969 20.046875 5.40625.664063.328125 1.3125.792969 2.023437 1.265625 11.226563 7.425781 17.929688 19.878906 17.929688 33.328125v32h-288v-32c0-13.449219 6.703125-25.902344 17.984375-33.359375zm286.015625 121.359375v-8.007812c8.832031-.039063 16-7.199219 16-15.992188v-16c0-8.792969-7.167969-15.953125-16-15.992188v-32.007812c0-11.648438-3.609375-22.761719-10.054688-32h2.054688c13.230469 0 24-10.769531 24-24v-16c0-8.824219-7.175781-16-16-16h-34.078125l-5.9375-27.777344c-5.578125-25.621094-28.609375-44.222656-54.785156-44.222656h-130.398438c-26.167969 0-49.199219 18.601562-54.785156 44.257812l-5.925781 27.742188h-34.089844c-8.824219 0-16 7.175781-16 16v16c0 13.230469 10.769531 24 24 24h2.0625c-6.453125 9.246094-10.0625 20.351562-10.0625 32v32.007812c-8.832031.039063-16 7.199219-16 15.992188v16c0 8.792969 7.167969 15.953125 16 15.992188v8.007812c0 2.816406.574219 5.488281 1.472656 8h-41.472656v-326.824219c10.039062 4.410157 20.855469 6.824219 32 6.824219 44.113281 0 80-35.886719 80-80h16v40h16v-40h16v56h16v-56h16v80h16v-80h16v56h16v-56h16v40h16v-40h16c0 44.113281 35.886719 80 80 80 11.144531 0 21.96875-2.414062 32-6.824219v326.824219h-41.472656c.898437-2.511719 1.472656-5.183594 1.472656-8zm-70.320312-408h-179.367188c-1.105469-5.527344-2.816406-10.863281-5.089844-16h189.5625c-2.289062 5.160156-4.007812 10.496094-5.105468 16zm-257.679688-48c22.265625 0 42.542969 11.265625 54.28125 30.199219 5.175781 8.175781 8.304688 17.160156 9.277344 26.695312l.015625.144531c.28125 2.320313.425781 4.640626.425781 6.960938 0 35.289062-28.710938 64-64 64-12.726562 0-25.023438-3.734375-35.550781-10.808594-17.816407-11.902344-28.449219-31.785156-28.449219-53.191406 0-35.289062 28.710938-64 64-64zm-64 111.832031c4.488281 6 9.871094 11.351563 16 15.960938v336.207031h-16zm96 352.167969c-4.414062 0-8-3.585938-8-8v-8h48v8c0 4.414062-3.585938 8-8 8zm240 0c-4.414062 0-8-3.585938-8-8v-8h48v8c0 4.414062-3.585938 8-8 8zm128 0h-16v-336.214844c6.128906-4.609375 11.511719-9.960937 16-15.960937zm0 0"/><path d="m416 128c26.472656 0 48-21.527344 48-48s-21.527344-48-48-48-48 21.527344-48 48 21.527344 48 48 48zm-30.863281-40h22.863281v22.863281c-11.191406-2.902343-19.960938-11.671875-22.863281-22.863281zm38.863281 22.863281v-22.863281h22.863281c-2.902343 11.191406-11.671875 19.960938-22.863281 22.863281zm22.863281-38.863281h-22.863281v-22.863281c11.191406 2.902343 19.960938 11.671875 22.863281 22.863281zm-38.863281-22.863281v22.863281h-22.863281c2.902343-11.191406 11.671875-19.960938 22.863281-22.863281zm0 0"/><path d="m176 136h16v16h-16zm0 0"/><path d="m208 152h16v16h-16zm0 0"/><path d="m240 176h16v16h-16zm0 0"/><path d="m272 152h16v16h-16zm0 0"/><path d="m304 136h16v16h-16zm0 0"/><path d="m144 408c13.230469 0 24-10.769531 24-24s-10.769531-24-24-24-24 10.769531-24 24 10.769531 24 24 24zm0-32c4.414062 0 8 3.585938 8 8s-3.585938 8-8 8-8-3.585938-8-8 3.585938-8 8-8zm0 0"/><path d="m352 408c13.230469 0 24-10.769531 24-24s-10.769531-24-24-24-24 10.769531-24 24 10.769531 24 24 24zm0-32c4.414062 0 8 3.585938 8 8s-3.585938 8-8 8-8-3.585938-8-8 3.585938-8 8-8zm0 0"/></svg>
