<?xml version="1.0" encoding="iso-8859-1"?>
<!-- Generator: Adobe Illustrator 19.0.0, SVG Export Plug-In . SVG Version: 6.00 Build 0)  -->
<svg version="1.1" id="Capa_1" xmlns="http://www.w3.org/2000/svg" xmlns:xlink="http://www.w3.org/1999/xlink" x="0px" y="0px"
	 viewBox="0 0 512 512" style="enable-background:new 0 0 512 512;" xml:space="preserve">
<g>
	<g>
		<path d="M295.12,317.52c-1.86-1.86-4.43-2.93-7.07-2.93c-2.63,0-5.21,1.07-7.07,2.93c-1.859,1.87-2.92,4.44-2.92,7.08
			c0,2.63,1.061,5.21,2.92,7.07c1.86,1.86,4.44,2.92,7.07,2.92c2.64,0,5.21-1.06,7.07-2.92c1.87-1.87,2.939-4.44,2.939-7.07
			S296.99,319.39,295.12,317.52z"/>
	</g>
</g>
<g>
	<g>
		<path d="M288.113,221.555l-0.745-0.745c-3.906-3.904-10.236-3.904-14.143,0c-3.905,3.905-3.905,10.237,0,14.143l0.745,0.745
			c1.953,1.952,4.512,2.929,7.071,2.929s5.118-0.977,7.072-2.929C292.018,231.793,292.018,225.461,288.113,221.555z"/>
	</g>
</g>
<g>
	<g>
		<path d="M509.079,2.936c0.974,0.974,1.941,1.94-0.007-0.008c-1.949-1.948-0.982-0.981-0.008-0.007
			c-3.907-3.897-10.231-3.895-14.135,0.007l-29.655,29.655l-5.557-5.557c-3.551-3.55-9.187-3.917-13.168-0.855l-120.056,92.343
			l-4.021-4.021c-2.736-2.736-6.807-3.65-10.454-2.339l-39.803,14.307l-4.856-4.856c-2.716-2.714-6.745-3.638-10.37-2.369
			l-58.69,20.506c-1.401,0.49-2.723,1.319-3.772,2.369L58.761,277.876c-3.905,3.905-3.905,10.237,0,14.143l8.689,8.689
			l-10.954,44.445c-0.838,3.398,0.162,6.988,2.638,9.464l15.199,15.199l-50.291,69.461c-2.881,3.979-2.445,9.462,1.028,12.936
			L35.358,462.5L2.929,494.929c-3.905,3.905-3.905,10.237,0,14.143C4.882,511.023,7.441,512,10,512s5.118-0.977,7.071-2.929
			L49.5,476.643l10.287,10.287c1.937,1.937,4.498,2.929,7.074,2.929c2.045,0,4.101-0.625,5.861-1.9l69.461-50.291l15.199,15.199
			c1.898,1.897,4.451,2.929,7.071,2.929c0.797,0,1.601-0.095,2.393-0.291l44.445-10.954l8.689,8.689
			c1.953,1.952,4.512,2.929,7.071,2.929s5.118-0.977,7.071-2.929l135.765-135.765c1.053-1.053,1.88-2.365,2.369-3.772l20.506-58.69
			c1.267-3.625,0.346-7.655-2.369-10.37l-4.856-4.856l14.307-39.803c1.311-3.644,0.398-7.716-2.339-10.454l-4.021-4.021
			l92.343-120.056c3.062-3.981,2.696-9.616-0.855-13.168l-5.557-5.557l29.655-29.655C512.974,13.168,512.976,6.842,509.079,2.936z
			 M67.901,466.758L45.242,444.1l43.413-59.961l39.207,39.207L67.901,466.758z M167.537,434.736l-90.273-90.273l6.712-27.23
			l110.792,110.792L167.537,434.736z M358.627,292.069l-37.351-37.351c-3.906-3.904-10.236-3.904-14.143,0
			c-3.905,3.905-3.905,10.237,0,14.143l41.539,41.539L227.053,432.025l-16.143-16.143l52.162-52.162
			c3.905-3.905,3.905-10.237,0-14.143c-3.906-3.904-10.236-3.904-14.143,0l-52.162,52.162L79.975,284.947l121.622-121.622
			l37.289,37.289c3.906,3.904,10.236,3.904,14.143,0c3.905-3.905,3.905-10.237,0-14.143l-33.101-33.101l37.729-13.183l4.892,4.892
			c0.002,0.002,0.005,0.006,0.007,0.008L366.91,249.441c0.003,0.003,0.007,0.006,0.01,0.009l4.89,4.89L358.627,292.069z
			 M369.905,224.152l-82.057-82.057l24.967-8.975l66.065,66.065L369.905,224.152z M379.224,171.245l-38.469-38.469l111.028-85.398
			l12.839,12.839L379.224,171.245z"/>
	</g>
</g>
<g>
</g>
<g>
</g>
<g>
</g>
<g>
</g>
<g>
</g>
<g>
</g>
<g>
</g>
<g>
</g>
<g>
</g>
<g>
</g>
<g>
</g>
<g>
</g>
<g>
</g>
<g>
</g>
<g>
</g>
</svg>
