<?xml version="1.0" encoding="iso-8859-1"?>
<!-- Generator: Adobe Illustrator 19.0.0, SVG Export Plug-In . SVG Version: 6.00 Build 0)  -->
<svg version="1.1" id="Capa_1" xmlns="http://www.w3.org/2000/svg" xmlns:xlink="http://www.w3.org/1999/xlink" x="0px" y="0px"
	 viewBox="0 0 512 512" style="enable-background:new 0 0 512 512;" xml:space="preserve">
<g>
	<g>
		<path d="M353.41,156.93c-1.87-1.86-4.44-2.93-7.08-2.93c-2.63,0-5.2,1.069-7.07,2.93c-1.86,1.86-2.93,4.43-2.93,7.07
			c0,2.63,1.07,5.21,2.93,7.069c1.87,1.861,4.45,2.931,7.07,2.931c2.63,0,5.21-1.07,7.08-2.931c1.86-1.859,2.92-4.439,2.92-7.069
			S355.27,158.79,353.41,156.93z"/>
	</g>
</g>
<g>
	<g>
		<path d="M299,338H160V174h139c5.523,0,10-4.478,10-10c0-5.522-4.477-10-10-10h-63v-28h6h33c5.523,0,10-4.478,10-10
			c0-5.522-4.477-10-10-10h-23V72c0-5.522-4.477-10-10-10h-72c-5.523,0-10,4.478-10,10v34h-22.045c-2.652,0-5.196,1.054-7.071,2.929
			l-41.955,41.955C87.054,152.76,86,155.303,86,157.955V210H10c-5.523,0-10,4.478-10,10v72c0,5.522,4.477,10,10,10h76v52.521
			c0,2.652,1.054,5.195,2.929,7.071l41.479,41.479c1.875,1.875,4.419,2.929,7.071,2.929H160v34c0,5.522,4.477,10,10,10h72
			c5.523,0,10-4.478,10-10v-34h23c5.523,0,10-4.478,10-10c0-5.522-4.477-10-10-10h-33h-6v-28h63c5.523,0,10-4.478,10-10
			C309,342.478,304.523,338,299,338z M86,282H20v-52h66V282z M216,82h16v24h-6h-10V82z M216,154h-20v-28h20V154z M180,82h16v24h-10
			h-6V82z M176,386h-6h-28.378L106,350.378v-188.28L142.097,126H170h6v28h-26c-5.523,0-10,4.478-10,10v184c0,5.522,4.477,10,10,10
			h26V386z M196,430h-16v-24h6h10V430z M196,358h20v28h-20V358z M232,430h-16v-24h10h6V430z"/>
	</g>
</g>
<g>
	<g>
		<path d="M346.333,338h-0.458c-5.523,0-10,4.478-10,10c0,5.522,4.477,10,10,10h0.458c5.523,0,10-4.478,10-10
			C356.333,342.478,351.856,338,346.333,338z"/>
	</g>
</g>
<g>
	<g>
		<path d="M502,210h-76v-46c0-5.522-4.477-10-10-10h-27c-5.523,0-10,4.478-10,10c0,5.522,4.477,10,10,10h17v164h-17
			c-5.523,0-10,4.478-10,10c0,5.522,4.477,10,10,10h27c5.523,0,10-4.478,10-10v-46h76c5.523,0,10-4.478,10-10v-72
			C512,214.478,507.523,210,502,210z M492,282h-66v-52h66V282z"/>
	</g>
</g>
<g>
	<g>
		<path d="M318,226c-16.542,0-30,13.458-30,30s13.458,30,30,30s30-13.458,30-30S334.542,226,318,226z M318,266
			c-5.514,0-10-4.486-10-10c0-5.514,4.486-10,10-10c5.514,0,10,4.486,10,10C328,261.514,323.514,266,318,266z"/>
	</g>
</g>
<g>
	<g>
		<path d="M388.66,251l-31-53.693c-1.786-3.094-5.087-5-8.66-5h-62c-3.573,0-6.874,1.906-8.66,5l-31,53.693
			c-1.787,3.094-1.787,6.906,0,10l31,53.693c1.786,3.094,5.087,5,8.66,5h62c3.573,0,6.874-1.906,8.66-5l31-53.693
			C390.447,257.906,390.447,254.094,388.66,251z M343.227,299.693h-50.453L267.547,256l25.227-43.693h50.453L368.453,256
			L343.227,299.693z"/>
	</g>
</g>
<g>
</g>
<g>
</g>
<g>
</g>
<g>
</g>
<g>
</g>
<g>
</g>
<g>
</g>
<g>
</g>
<g>
</g>
<g>
</g>
<g>
</g>
<g>
</g>
<g>
</g>
<g>
</g>
<g>
</g>
</svg>
