<svg height="511pt" viewBox="-37 1 511 511.999" width="511pt" xmlns="http://www.w3.org/2000/svg"><path d="m328.503906 0h-.398437c-21.785157 0-39.511719 17.777344-39.511719 39.632812v136.867188c0 38.441406-31.21875 69.71875-69.59375 69.71875s-69.59375-31.273438-69.59375-69.761719l-.398438-136.933593c-.082031-21.785157-17.796874-39.476563-39.511718-39.476563h-.074219c-21.746094.0429688-39.441406 17.820313-39.441406 39.628906v136.824219c0 77.210938 58.867187 140.910156 134.019531 148.464844v96.992187h-77.980469c-29.097656 0-52.769531 23.671875-52.769531 52.769531v.167969c0 20.460938 16.644531 37.105469 37.105469 37.105469h217.289062c20.457031 0 37.105469-16.648438 37.105469-37.105469v-.167969c0-29.097656-23.675781-52.769531-52.773438-52.769531h-77.976562v-96.992187c75.152344-7.554688 134.015625-71.253906 134.015625-148.464844v-136.867188c0-21.855468-17.722656-39.632812-39.511719-39.632812zm6.246094 474.726562v.167969c0 3.917969-3.191406 7.105469-7.105469 7.105469h-217.289062c-3.917969 0-7.105469-3.1875-7.105469-7.105469v-.167969c0-12.554687 10.214844-22.769531 22.769531-22.769531h185.960938c12.554687 0 22.769531 10.214844 22.769531 22.769531zm-234.769531-298.226562v-136.824219c0-5.296875 4.261719-9.621093 9.496093-9.628906h.019532c5.226562 0 9.492187 4.300781 9.511718 9.578125l.398438 136.875c0 49.882812 36.765625 91.328125 84.59375 98.59375v19.683594c-58.574219-7.414063-104.019531-57.628906-104.019531-118.277344zm238.035156 0c0 60.648438-45.445313 110.863281-104.015625 118.273438v-19.683594c47.824219-7.265625 84.59375-48.707032 84.59375-98.589844v-136.867188c0-5.3125 4.269531-9.632812 9.511719-9.632812h.398437c5.246094 0 9.511719 4.320312 9.511719 9.632812zm0 0"/><path d="m36.125 72.410156c-7.28125-7.304687-7.589844-19.339844-.671875-26.277344 5.847656-5.867187 5.832031-15.363281-.03125-21.214843-5.867187-5.847657-15.367187-5.835938-21.214844.03125-9.089843 9.117187-13.957031 21.410156-13.699219 34.613281.253907 12.902344 5.359376 24.984375 14.375 34.027344 7.039063 7.058594 7.039063 18.542968 0 25.601562-18.683593 18.738282-18.683593 49.226563 0 67.964844 2.929688 2.941406 6.777344 4.410156 10.621094 4.410156 3.832032 0 7.664063-1.460937 10.589844-4.378906 5.867188-5.847656 5.882812-15.347656.03125-21.210938-7.035156-7.0625-7.035156-18.542968 0-25.601562 18.683594-18.738281 18.683594-49.226562 0-67.964844zm0 0"/><path d="m437.492188 59.5625c.257812-13.203125-4.609376-25.496094-13.699219-34.613281-5.851563-5.867188-15.347657-5.878907-21.214844-.03125-5.867187 5.847656-5.878906 15.347656-.03125 21.214843 6.917969 6.9375 6.609375 18.972657-.671875 26.277344-18.683594 18.738282-18.683594 49.226563 0 67.964844 7.035156 7.058594 7.035156 18.542969 0 25.601562-5.851562 5.867188-5.835938 15.363282.03125 21.214844 2.925781 2.917969 6.757812 4.375 10.589844 4.375 3.84375 0 7.691406-1.46875 10.621094-4.40625 18.683593-18.738281 18.683593-49.226562 0-67.964844-7.035157-7.058593-7.035157-18.542968 0-25.601562 9.015624-9.046875 14.121093-21.128906 14.375-34.03125zm0 0"/></svg>