<svg height="512pt" viewBox="0 0 512 512" width="512pt" xmlns="http://www.w3.org/2000/svg"><path d="m384.027344 181h-256.054688l-60 90h-67.972656v30h31v150h30v61h90v-61h210v61h90v-61h30v-150h31v-30h-67.972656zm-240 30h223.945312l40 60h-5.511718l-60 30h-172.921876l-60-30h-5.511718zm-83.027344 210v-30h45c19.554688 0 36.226562 12.539062 42.421875 30zm60 61h-30v-31h30zm300 0h-30v-31h30zm-57.421875-61c6.195313-17.460938 22.867187-30 42.421875-30h45v30zm87.421875-60h-45c-36.21875 0-66.523438 25.808594-73.492188 60h-153.015624c-6.96875-34.191406-37.273438-60-73.492188-60h-45v-60h41.460938l60 30h187.078124l60-30h41.460938zm0 0"/><path d="m211 361h90v30h-90zm0 0"/><path d="m0 0h512v30h-512zm0 0"/><path d="m421 61h30v90h-30zm0 0"/><path d="m361 61h30v60h-30zm0 0"/><path d="m301 61h30v90h-30zm0 0"/><path d="m241 61h30v60h-30zm0 0"/><path d="m181 61h30v90h-30zm0 0"/><path d="m121 61h30v60h-30zm0 0"/><path d="m61 61h30v90h-30zm0 0"/></svg>