<?xml version="1.0" encoding="iso-8859-1"?>
<!-- Generator: Adobe Illustrator 19.0.0, SVG Export Plug-In . SVG Version: 6.00 Build 0)  -->
<svg version="1.1" id="Capa_1" xmlns="http://www.w3.org/2000/svg" xmlns:xlink="http://www.w3.org/1999/xlink" x="0px" y="0px"
	 viewBox="0 0 512 512" style="enable-background:new 0 0 512 512;" xml:space="preserve">
<g>
	<g>
		<path d="M502,426h-11.935V108c0-2.117-0.672-4.179-1.918-5.89l-32.065-44C454.199,55.527,451.196,54,448,54h-85.203
			c-3.196,0-6.199,1.527-8.082,4.11L325.646,98H156.731V82h4.778c15.439,0,28-12.561,28-28s-12.561-28-28-28h-108
			c-15.439,0-28,12.561-28,28c0,15.439,12.561,28,28,28h3.222v16H32.065c-5.523,0-10,4.478-10,10v318H10c-5.523,0-10,4.478-10,10v40
			c0,5.522,4.477,10,10,10h492c5.523,0,10-4.478,10-10v-40C512,430.478,507.523,426,502,426z M53.509,62c-4.411,0-8-3.589-8-8
			s3.589-8,8-8h108c4.411,0,8,3.589,8,8s-3.589,8-8,8h-14.778h-80H53.509z M136.731,82v16h-60V82H136.731z M42.065,118h129.333v236
			c0,5.522,4.477,10,10,10s10-4.478,10-10V118H431c5.523,0,10-4.478,10-10c0-5.522-4.477-10-10-10h-80.607l17.49-24h75.031
			l27.151,37.257V426H340.731V196.359c0-5.522-4.477-10-10-10s-10,4.478-10,10V426H42.065V118z M492,466H20v-20h12.065h448H492V466z
			"/>
	</g>
</g>
<g>
	<g>
		<path d="M188.47,388.93c-1.86-1.861-4.44-2.93-7.07-2.93s-5.21,1.069-7.07,2.93c-1.86,1.86-2.93,4.44-2.93,7.07
			s1.07,5.21,2.93,7.069c1.86,1.86,4.44,2.931,7.07,2.931s5.21-1.07,7.07-2.931c1.86-1.859,2.93-4.439,2.93-7.069
			S190.33,390.79,188.47,388.93z"/>
	</g>
</g>
<g>
	<g>
		<path d="M337.8,146.93c-1.86-1.86-4.43-2.93-7.07-2.93c-2.63,0-5.21,1.069-7.07,2.93c-1.86,1.86-2.93,4.44-2.93,7.07
			s1.07,5.21,2.93,7.069c1.86,1.861,4.44,2.931,7.07,2.931c2.64,0,5.21-1.07,7.07-2.931c1.86-1.859,2.93-4.439,2.93-7.069
			S339.66,148.79,337.8,146.93z"/>
	</g>
</g>
<g>
	<g>
		<path d="M295,144h-77.986c-5.523,0-10,4.478-10,10c0,5.522,4.477,10,10,10H295c5.523,0,10-4.478,10-10
			C305,148.478,300.523,144,295,144z"/>
	</g>
</g>
<g>
	<g>
		<path d="M295,184h-77.986c-5.523,0-10,4.478-10,10c0,5.522,4.477,10,10,10H295c5.523,0,10-4.478,10-10
			C305,188.478,300.523,184,295,184z"/>
	</g>
</g>
<g>
	<g>
		<path d="M295,224h-77.986c-5.523,0-10,4.478-10,10c0,5.522,4.477,10,10,10H295c5.523,0,10-4.478,10-10
			C305,228.478,300.523,224,295,224z"/>
	</g>
</g>
<g>
	<g>
		<path d="M295,264h-77.986c-5.523,0-10,4.478-10,10c0,5.522,4.477,10,10,10H295c5.523,0,10-4.478,10-10
			C305,268.478,300.523,264,295,264z"/>
	</g>
</g>
<g>
	<g>
		<path d="M295,304h-77.986c-5.523,0-10,4.478-10,10c0,5.522,4.477,10,10,10H295c5.523,0,10-4.478,10-10
			C305,308.478,300.523,304,295,304z"/>
	</g>
</g>
<g>
	<g>
		<path d="M295,344h-77.986c-5.523,0-10,4.478-10,10c0,5.522,4.477,10,10,10H295c5.523,0,10-4.478,10-10
			C305,348.478,300.523,344,295,344z"/>
	</g>
</g>
<g>
	<g>
		<path d="M295,384h-77.986c-5.523,0-10,4.478-10,10c0,5.522,4.477,10,10,10H295c5.523,0,10-4.478,10-10
			C305,388.478,300.523,384,295,384z"/>
	</g>
</g>
<g>
	<g>
		<path d="M145.725,144H67.739c-5.523,0-10,4.478-10,10c0,5.522,4.477,10,10,10h77.986c5.523,0,10-4.478,10-10
			C155.725,148.478,151.248,144,145.725,144z"/>
	</g>
</g>
<g>
	<g>
		<path d="M145.725,184H67.739c-5.523,0-10,4.478-10,10c0,5.522,4.477,10,10,10h77.986c5.523,0,10-4.478,10-10
			C155.725,188.478,151.248,184,145.725,184z"/>
	</g>
</g>
<g>
	<g>
		<path d="M145.725,224H67.739c-5.523,0-10,4.478-10,10c0,5.522,4.477,10,10,10h77.986c5.523,0,10-4.478,10-10
			C155.725,228.478,151.248,224,145.725,224z"/>
	</g>
</g>
<g>
	<g>
		<path d="M145.725,264H67.739c-5.523,0-10,4.478-10,10c0,5.522,4.477,10,10,10h77.986c5.523,0,10-4.478,10-10
			C155.725,268.478,151.248,264,145.725,264z"/>
	</g>
</g>
<g>
	<g>
		<path d="M145.725,304H67.739c-5.523,0-10,4.478-10,10c0,5.522,4.477,10,10,10h77.986c5.523,0,10-4.478,10-10
			C155.725,308.478,151.248,304,145.725,304z"/>
	</g>
</g>
<g>
	<g>
		<path d="M145.725,344H67.739c-5.523,0-10,4.478-10,10c0,5.522,4.477,10,10,10h77.986c5.523,0,10-4.478,10-10
			C155.725,348.478,151.248,344,145.725,344z"/>
	</g>
</g>
<g>
	<g>
		<path d="M145.725,384H67.739c-5.523,0-10,4.478-10,10c0,5.522,4.477,10,10,10h77.986c5.523,0,10-4.478,10-10
			C155.725,388.478,151.248,384,145.725,384z"/>
	</g>
</g>
<g>
	<g>
		<path d="M444.407,144h-77.986c-5.523,0-10,4.478-10,10c0,5.522,4.477,10,10,10h77.986c5.523,0,10-4.478,10-10
			C454.407,148.478,449.93,144,444.407,144z"/>
	</g>
</g>
<g>
	<g>
		<path d="M444.407,184h-77.986c-5.523,0-10,4.478-10,10c0,5.522,4.477,10,10,10h77.986c5.523,0,10-4.478,10-10
			C454.407,188.478,449.93,184,444.407,184z"/>
	</g>
</g>
<g>
	<g>
		<path d="M444.407,224h-77.986c-5.523,0-10,4.478-10,10c0,5.522,4.477,10,10,10h77.986c5.523,0,10-4.478,10-10
			C454.407,228.478,449.93,224,444.407,224z"/>
	</g>
</g>
<g>
	<g>
		<path d="M444.407,264h-77.986c-5.523,0-10,4.478-10,10c0,5.522,4.477,10,10,10h77.986c5.523,0,10-4.478,10-10
			C454.407,268.478,449.93,264,444.407,264z"/>
	</g>
</g>
<g>
	<g>
		<path d="M444.407,304h-77.986c-5.523,0-10,4.478-10,10c0,5.522,4.477,10,10,10h77.986c5.523,0,10-4.478,10-10
			C454.407,308.478,449.93,304,444.407,304z"/>
	</g>
</g>
<g>
	<g>
		<path d="M444.407,344h-77.986c-5.523,0-10,4.478-10,10c0,5.522,4.477,10,10,10h77.986c5.523,0,10-4.478,10-10
			C454.407,348.478,449.93,344,444.407,344z"/>
	</g>
</g>
<g>
	<g>
		<path d="M444.407,384h-77.986c-5.523,0-10,4.478-10,10c0,5.522,4.477,10,10,10h77.986c5.523,0,10-4.478,10-10
			C454.407,388.478,449.93,384,444.407,384z"/>
	</g>
</g>
<g>
</g>
<g>
</g>
<g>
</g>
<g>
</g>
<g>
</g>
<g>
</g>
<g>
</g>
<g>
</g>
<g>
</g>
<g>
</g>
<g>
</g>
<g>
</g>
<g>
</g>
<g>
</g>
<g>
</g>
</svg>
