<svg height="512pt" viewBox="0 0 512 511" width="512pt" xmlns="http://www.w3.org/2000/svg"><path d="m512 241.359375h-84.078125l-60 91h-55.460937l-56.460938 28.230469-56.460938-28.230469h-55.460937l-60-91h-84.078125v241h69.070312c10.394532 17.917969 29.769532 30 51.929688 30s41.535156-12.082031 51.929688-30h166.140624c10.394532 17.917969 29.769532 30 51.929688 30s41.535156-12.082031 51.929688-30h69.070312zm-67.921875 30h37.921875v61h-78.144531zm-376.15625 0 40.222656 61h-78.144531v-61zm53.078125 211c-16.542969 0-30-13.457031-30-30s13.457031-30 30-30 30 13.457031 30 30-13.457031 30-30 30zm60-30c0-33.082031-26.914062-60-60-60s-60 26.917969-60 60h-31v-90h162.460938l48.539062 24.273437v5.726563h-45v30h45v30zm210 30c-16.542969 0-30-13.457031-30-30s13.457031-30 30-30 30 13.457031 30 30-13.457031 30-30 30zm60-30c0-33.082031-26.914062-60-60-60s-60 26.917969-60 60h-60v-30h45v-30h-45v-5.726563l48.539062-24.273437h162.460938v90zm0 0"/><path d="m119.179688 188.816406 17.332031 6.632813c19.558593 7.492187 32.894531 25.847656 33.972656 46.765625l.957031 18.53125 17.917969-4.820313c20.226563-5.4375 41.808594 1.574219 54.976563 17.863281l11.664062 14.433594 11.664062-14.433594c13.167969-16.289062 34.75-23.300781 54.976563-17.859374l17.917969 4.816406.957031-18.53125c1.078125-20.917969 14.414063-39.273438 33.972656-46.765625l17.332031-6.632813-10.121093-15.554687c-11.421875-17.558594-11.421875-40.246094 0-57.800781l10.121093-15.554688-17.332031-6.636719c-19.558593-7.488281-32.894531-25.84375-33.972656-46.761719l-.957031-18.53125-17.917969 4.816407c-20.230469 5.4375-41.808594-1.574219-54.976563-17.863281l-11.664062-14.429688-11.664062 14.429688c-13.167969 16.289062-34.746094 23.300781-54.976563 17.863281l-17.917969-4.820313-.957031 18.53125c-1.078125 20.917969-14.414063 39.273438-33.972656 46.765625l-17.332031 6.632813 10.121093 15.554687c11.421875 17.558594 11.421875 40.246094 0 57.804688zm42.878906-74.980468c17.777344-11.296876 30.632812-28.992188 35.882812-49.386719 21.011719 1.308593 41.824219-5.453125 58.058594-18.867188 16.238281 13.417969 37.042969 20.179688 58.0625 18.867188 5.25 20.394531 18.105469 38.089843 35.882812 49.386719-7.742187 19.585937-7.742187 41.460937 0 61.046874-17.777343 11.296876-30.632812 28.992188-35.882812 49.386719-21.019531-1.308593-41.824219 5.453125-58.0625 18.867188-15.824219-13.078125-36.515625-20.207031-58.058594-18.867188-5.25-20.394531-18.105468-38.089843-35.882812-49.386719 7.742187-19.585937 7.742187-41.457031 0-61.046874zm0 0"/><path d="m241 69.359375h30v90h-30zm0 0"/><path d="m241 189.359375h30v30h-30zm0 0"/></svg>