<svg height="496pt" viewBox="0 0 496 496" width="496pt" xmlns="http://www.w3.org/2000/svg"><path d="m328 144h16v16h-16zm0 0"/><path d="m360 144h16v16h-16zm0 0"/><path d="m336 128h80c4.414062 0 8 3.585938 8 8 0 2.136719-.824219 4.113281-2.457031 5.703125-1.429688 1.472656-3.40625 2.296875-5.542969 2.296875h-24v16h24c6.496094 0 12.527344-2.527344 16.855469-6.984375 4.617187-4.488281 7.144531-10.519531 7.144531-17.015625 0-13.230469-10.769531-24-24-24h-80c-2.136719 0-4.113281-.824219-5.703125-2.457031-1.472656-1.429688-2.296875-3.40625-2.296875-5.542969 0-4.414062 3.585938-8 8-8h40c6.496094 0 12.527344-2.527344 16.855469-6.984375 4.617187-4.488281 7.144531-10.519531 7.144531-17.015625 0-13.230469-10.769531-24-24-24h-32v16h32c4.414062 0 8 3.585938 8 8 0 2.136719-.824219 4.113281-2.457031 5.703125-1.429688 1.472656-3.40625 2.296875-5.542969 2.296875h-40c-13.230469 0-24 10.769531-24 24 0 6.496094 2.527344 12.527344 6.984375 16.855469 4.488281 4.617187 10.519531 7.144531 17.015625 7.144531zm0 0"/><path d="m168.414062 133.625-9.300781-13.015625c-6.769531 4.839844-14.761719 7.390625-23.113281 7.390625-22.054688 0-40-17.945312-40-40 0-8.351562 2.550781-16.34375 7.390625-23.113281l-13.015625-9.300781c-6.789062 9.503906-10.375 20.703124-10.375 32.414062 0 30.871094 25.128906 56 56 56 11.710938 0 22.910156-3.585938 32.414062-10.375zm0 0"/><path d="m136 48c22.054688 0 40 17.945312 40 40 0 8.351562-2.550781 16.34375-7.390625 23.113281l13.015625 9.300781c6.789062-9.503906 10.375-20.703124 10.375-32.414062 0-30.871094-25.128906-56-56-56-11.710938 0-22.910156 3.585938-32.414062 10.375l9.300781 13.015625c6.769531-4.839844 14.761719-7.390625 23.113281-7.390625zm0 0"/><path d="m468.089844 162.070312c7.78125-15.460937 11.910156-32.542968 11.910156-50.070312 0-61.761719-50.238281-112-112-112-38.351562 0-73.617188 19.320312-94.328125 51.671875-11.558594 17.960937-17.671875 38.824219-17.671875 60.328125 0 14.824219 2.894531 29.3125 8.625 43.105469.703125 1.679687 1.527344 3.269531 2.3125 4.894531h-70.433594l14.910156-24.832031c8.234376-13.664063 12.585938-29.335938 12.585938-45.328125v-1.839844c0-23.496094-9.160156-45.585938-25.785156-62.214844-16.628906-16.625-38.71875-25.785156-62.214844-25.785156-48.519531 0-88 39.480469-88 88v1.839844c0 15.984375 4.351562 31.65625 12.574219 45.3125l14.921875 24.847656h-35.496094c-22.054688 0-40 17.945312-40 40v194.71875c0 10.546875 4.265625 20.855469 11.703125 28.296875l61.28125 61.28125c7.441406 7.4375 17.75 11.703125 28.296875 11.703125h293.4375c10.546875 0 20.855469-4.265625 28.296875-11.703125l61.28125-61.28125c7.4375-7.441406 11.703125-17.75 11.703125-28.296875v-194.71875c0-17.816406-11.785156-32.769531-27.910156-37.929688zm-183.144532-98.070312h43.054688v-16h-31.335938c18.054688-20.191406 43.710938-32 71.335938-32 52.9375 0 96 43.0625 96 96 0 18.359375-5.199219 36.167969-15.070312 51.550781-17.691407 27.832031-47.9375 44.449219-80.929688 44.449219s-63.238281-16.617188-80.960938-44.496094c-.71875-1.121094-1.359374-2.335937-2.039062-3.503906h27v-16h-34.382812c-3.65625-10.320312-5.617188-21.039062-5.617188-32 0-16.992188 4.496094-33.480469 12.945312-48zm-8.746093 112c20.921875 30.121094 54.871093 48 91.800781 48 36.792969 0 70.632812-17.742188 91.558594-47.640625 11.539062 1.738281 20.441406 11.625 20.441406 23.640625v24h-241.0625c-4.898438-14.519531-27.273438-25.703125-62.296875-30.910156l10.253906-17.089844zm-241.414063 64c4.4375 7.902344 14.320313 14.625 29.214844 19.777344v44.222656h-48v-64zm82.230469-10.847656c3.90625 6.6875 11.175781 10.847656 18.984375 10.847656s15.078125-4.160156 18.9375-10.761719l12.734375-21.214843c39.777344 4.800781 56.328125 16.753906 56.28125 22.679687-.359375 2.167969-3.609375 6.097656-11.609375 10.066406-10.710938 5.351563-26.929688 9.503907-45.640625 11.6875-31.757813 3.566407-67.304687 1.246094-91.902344-5.976562-20.066406-5.832031-26.265625-12.863281-26.703125-15.449219l-.097656-.871094c0-5.375 16.550781-17.328125 56.335938-22.128906zm120.207031 10.847656h2.777344v96h32v16h-112v64h-16v-64h-64v-16h64v-66.0625c5.382812-.144531 10.710938-.441406 16-.875v66.9375h64v-83.40625c6.945312-4.167969 10.953125-8.53125 13.222656-12.59375zm-61.222656 176v-48h96v48zm96-96h-16v-80h16zm-144-49.96875v49.96875h-48v-55.6875c14.296875 3.273438 30.800781 5.253906 48 5.71875zm48-2.671875c12.070312-1.773437 22.855469-4.328125 32-7.519531v60.160156h-32zm-112 52.640625v48h-48v-48zm16 48h48v48h-48zm96 64v48h-48v-48zm16 0h48v48h-48zm64 0h48v48h-48zm64 0h48v48h-48zm-32-16v-176h128v176zm144-96h48v48h-48zm0-16v-64h48v64zm-368-214.160156v-1.839844c0-39.703125 32.296875-72 72-72 19.214844 0 37.296875 7.496094 50.902344 21.097656 13.601562 13.605469 21.097656 31.6875 21.097656 50.902344v1.839844c0 13.070312-3.550781 25.886718-10.296875 37.082031l-56.527344 94.167969c-2.078125 3.527344-8.214843 3.621094-10.390625-.097656l-56.496094-94.082032c-6.738281-11.175781-10.289062-24-10.289062-37.070312zm-24 86.160156h45.105469l10.253906 17.089844c-35.03125 5.207031-57.398437 16.382812-62.296875 30.910156h-17.0625v-24c0-13.230469 10.769531-24 24-24zm44.296875 296.984375-61.28125-61.28125c-4.464844-4.464844-7.015625-10.648437-7.015625-16.984375v-10.71875h48v32c0 8.824219 7.175781 16 16 16h32v48h-10.71875c-6.335938 0-12.519531-2.550781-16.984375-7.015625zm388.6875-61.28125-61.28125 61.28125c-4.464844 4.464844-10.648437 7.015625-16.984375 7.015625h-10.71875v-48h32c8.824219 0 16-7.175781 16-16v-32h48v10.71875c0 6.335938-2.550781 12.519531-7.015625 16.984375zm0 0"/><path d="m32 272h16v16h-16zm0 0"/><path d="m32 336h16v16h-16zm0 0"/><path d="m208 448h16v16h-16zm0 0"/><path d="m144 448h16v16h-16zm0 0"/><path d="m272 448h16v16h-16zm0 0"/><path d="m336 448h16v16h-16zm0 0"/><path d="m448 272h16v16h-16zm0 0"/><path d="m448 336h16v16h-16zm0 0"/><path d="m304 319.601562h96v-47.601562h-96zm16-31.601562h64v15.601562h-64zm0 0"/><path d="m304 383.761719h96v-47.523438h-96zm16-31.523438h64v15.515625h-64zm0 0"/></svg>