<?xml version="1.0" encoding="iso-8859-1"?>
<!-- Generator: Adobe Illustrator 19.0.0, SVG Export Plug-In . SVG Version: 6.00 Build 0)  -->
<svg version="1.1" id="Capa_1" xmlns="http://www.w3.org/2000/svg" xmlns:xlink="http://www.w3.org/1999/xlink" x="0px" y="0px"
	 viewBox="0 0 512 512" style="enable-background:new 0 0 512 512;" xml:space="preserve">
<g>
	<g>
		<path d="M256,245.801c-23.159,0-42,18.841-42,42s18.841,42,42,42s42-18.841,42-42S279.159,245.801,256,245.801z M256,309.801
			c-12.131,0-22-9.869-22-22c0-12.131,9.869-22,22-22s22,9.869,22,22C278,299.932,268.131,309.801,256,309.801z"/>
	</g>
</g>
<g>
	<g>
		<path d="M437.019,74.98C388.667,26.629,324.38,0,256,0S123.333,26.629,74.981,74.98C26.628,123.333,0,187.62,0,256
			s26.628,132.667,74.981,181.02C123.333,485.371,187.62,512,256,512s132.667-26.629,181.019-74.98
			C485.372,388.667,512,324.38,512,256S485.372,123.333,437.019,74.98z M189.158,482.344
			c-52.247-15.456-96.99-48.543-127.314-92.347h52.001c41.528,0,75.313,33.785,75.313,75.313V482.344z M322.91,482.324v-17.013
			c0-41.528,33.786-75.313,75.313-75.313h51.932C419.845,433.781,375.128,466.859,322.91,482.324z M462.579,369.998h-64.356
			c-52.556,0-95.313,42.758-95.313,95.313v22C287.744,490.381,272.058,492,256,492c-16.034,0-31.697-1.614-46.841-4.676v-22.013
			c0-52.556-42.757-95.313-95.313-95.313H49.42c-12.559-22.668-21.493-47.606-26.02-74.034l169.516-33.722
			c2.883-0.573,5.368-2.386,6.793-4.957C211.065,236.815,232.634,224.1,256,224.1c23.366,0,44.935,12.716,56.291,33.185
			c1.426,2.571,3.911,4.384,6.793,4.957l169.515,33.722C484.072,322.391,475.138,347.33,462.579,369.998z M327.36,243.496
			C311.964,219.079,285.042,204.1,256,204.1c-29.043,0-55.964,14.979-71.36,39.396l-163.777,32.58C20.302,269.456,20,262.763,20,256
			C20,125.869,125.869,20,256,20s236,105.869,236,236c0,6.763-0.302,13.456-0.863,20.077L327.36,243.496z"/>
	</g>
</g>
<g>
	<g>
		<path d="M58.763,221.145c-5.484-0.666-10.473,3.219-11.149,8.7l-0.057,0.461c-0.672,5.481,3.227,10.47,8.709,11.142
			c0.413,0.051,0.823,0.075,1.229,0.075c4.979,0,9.292-3.716,9.913-8.784l0.055-0.445C68.139,226.813,64.244,221.821,58.763,221.145
			z"/>
	</g>
</g>
<g>
	<g>
		<path d="M456.502,193.381c-13.047-41.816-39.655-79.358-74.922-105.71C345.095,60.409,301.67,46,256,46
			c-90.359,0-170.38,57.515-199.122,143.117c-1.757,5.236,1.062,10.904,6.297,12.662c5.236,1.759,10.905-1.061,12.663-6.297
			C101.842,118.035,174.243,66,256,66c83.625,0,156.528,53.584,181.41,133.338c1.336,4.28,5.284,7.024,9.543,7.024
			c0.986,0,1.99-0.147,2.981-0.457C455.206,204.26,458.146,198.653,456.502,193.381z"/>
	</g>
</g>
<g>
	<g>
		<path d="M464.926,234.633c-0.492-5.5-5.354-9.575-10.85-9.07c-5.501,0.491-9.563,5.349-9.071,10.85
			c0.005,0.059,0.02,0.2,0.026,0.259c0.55,5.133,4.896,8.981,9.946,8.981c0.352,0,0.708-0.019,1.067-0.058
			C461.535,245.007,465.515,240.125,464.926,234.633z"/>
	</g>
</g>
<g>
</g>
<g>
</g>
<g>
</g>
<g>
</g>
<g>
</g>
<g>
</g>
<g>
</g>
<g>
</g>
<g>
</g>
<g>
</g>
<g>
</g>
<g>
</g>
<g>
</g>
<g>
</g>
<g>
</g>
</svg>
