<svg height="512pt" viewBox="0 0 512 512" width="512pt" xmlns="http://www.w3.org/2000/svg"><path d="m256 0c-140.769531 0-256 115.265625-256 256 0 140.769531 115.265625 256 256 256 140.769531 0 256-115.265625 256-256 0-140.769531-115.265625-256-256-256zm125.703125 443.722656-15.214844-26.347656-25.976562 15 15.230469 26.386719c-25.859376 12.769531-54.496094 20.738281-84.742188 22.726562v-30.488281h-30v30.488281c-30.246094-1.992187-58.882812-9.957031-84.742188-22.726562l15.230469-26.386719-25.976562-15-15.214844 26.347656c-24.476563-16.441406-45.578125-37.542968-62.019531-62.019531l26.347656-15.214844-15-25.980469-26.386719 15.234376c-12.769531-25.859376-20.734375-54.496094-22.726562-84.742188h30.488281v-30h-30.488281c1.992187-30.246094 9.957031-58.882812 22.726562-84.742188l26.386719 15.230469 15-25.980469-26.347656-15.210937c16.441406-24.480469 37.542968-45.578125 62.019531-62.023437l15.214844 26.351562 25.976562-15-15.230469-26.386719c25.859376-12.769531 54.496094-20.734375 84.742188-22.726562v30.488281h30v-30.488281c30.246094 1.992187 58.882812 9.957031 84.742188 22.730469l-15.230469 26.382812 25.976562 15 15.214844-26.347656c24.476563 16.441406 45.578125 37.542968 62.019531 62.019531l-26.347656 15.214844 15 25.980469 26.386719-15.234376c12.769531 25.859376 20.738281 54.496094 22.726562 84.742188h-30.488281v29.800781h30.488281c-1.992187 30.246094-9.957031 59.082031-22.726562 84.941407l-26.386719-15.230469-15 25.980469 26.347656 15.210937c-16.441406 24.476563-37.542968 45.578125-62.019531 62.019531zm0 0"/><path d="m256 91c-90.980469 0-165 74.019531-165 165s74.019531 165 165 165 165-74.019531 165-165-74.019531-165-165-165zm135 165c0 8.425781-.78125 16.671875-2.265625 24.671875l-28.074219-16.207031c.226563-2.816406.339844-5.640625.339844-8.464844s-.113281-5.648438-.339844-8.464844l28.074219-16.207031c1.484375 8 2.265625 16.246094 2.265625 24.671875zm-90-127.277344c15.769531 5.589844 30.195312 14.03125 42.664062 24.703125l-28.027343 16.183594c-4.652344-3.222656-9.539063-6.054687-14.636719-8.476563zm-90 0v32.410156c-5.097656 2.421876-9.984375 5.253907-14.636719 8.476563l-28.027343-16.183594c12.46875-10.671875 26.894531-19.113281 42.664062-24.703125zm-59.660156 135.742188-28.074219 16.207031c-1.484375-8-2.265625-16.246094-2.265625-24.671875s.78125-16.671875 2.265625-24.671875l28.074219 16.207031c-.453125 5.640625-.453125 11.289063 0 16.929688zm59.660156 118.8125c-15.769531-5.589844-30.195312-14.03125-42.664062-24.703125l28.027343-16.183594c4.652344 3.222656 9.539063 6.054687 14.636719 8.476563zm30 6.882812v-59.898437c-23.570312-8.355469-24.589844-9.476563-41.757812-24.171875l-51.882813 29.953125c-5.925781-8.019531-10.984375-16.722657-15.039063-25.957031l51.867188-29.945313c-4.644531-25.050781-4.023438-26.578125 0-48.28125l-51.867188-29.945313c4.054688-9.234374 9.113282-17.933593 15.039063-25.957031l51.882813 29.953125c19.242187-16.46875 20.738281-16.71875 41.757812-24.171875v-59.898437c4.925781-.546875 9.929688-.839844 15-.839844s10.074219.292969 15 .839844v59.898437c23.921875 8.480469 24.894531 9.738281 41.757812 24.171875l51.882813-29.953125c5.925781 8.023438 10.984375 16.722657 15.039063 25.957031l-51.867188 29.945313c4.644531 25.050781 4.023438 26.578125 0 48.28125l51.867188 29.945313c-4.054688 9.234374-9.113282 17.933593-15.039063 25.957031l-51.882813-29.953125c-19.242187 16.46875-20.738281 16.722656-41.757812 24.171875v59.898437c-4.925781.550782-9.929688.839844-15 .839844s-10.074219-.289062-15-.839844zm102.664062-31.585937c-12.46875 10.671875-26.894531 19.113281-42.664062 24.703125v-32.410156c5.097656-2.421876 9.984375-5.253907 14.636719-8.476563zm0 0"/><path d="m301 256c0-24.8125-20.1875-45-45-45s-45 20.1875-45 45 20.1875 45 45 45 45-20.1875 45-45zm-60 0c0-8.269531 6.730469-15 15-15s15 6.730469 15 15-6.730469 15-15 15-15-6.730469-15-15zm0 0"/></svg>