<svg height="512pt" viewBox="0 0 512 512" width="512pt" xmlns="http://www.w3.org/2000/svg"><path d="m505.988281 202.519531-38.988281-67.515625-38.988281 67.515625c-3.933594 6.8125-6.011719 14.585938-6.011719 22.480469 0 24.8125 20.1875 45 45 45s45-20.1875 45-45c0-7.894531-2.078125-15.667969-6.011719-22.480469zm-38.988281 37.480469c-8.269531 0-15-6.730469-15-15 0-6.644531 6.15625-14.6875 15-30.003906 14.152344 24.507812 15 24.789062 15 30.003906 0 8.269531-6.730469 15-15 15zm0 0"/><path d="m482 90v-90h-154.636719l-62.574219 62.574219-2.574218-2.574219h-262.214844v168.644531l31 60v131.355469h30v92h90v-92h15c24.8125 0 45-20.1875 45-45 0-5.46875-.980469-10.707031-2.773438-15.558594 63.773438-5.753906 114.894532-56.042968 121.933594-119.441406h.839844v-111.214844l-2.574219-2.574218 36.210938-36.210938zm-361 392h-30v-62h30zm45-92h-105v-108.644531l-31-60v-131.355469h219.785156l51.214844 51.214844v68.785156h-150v150h15c8.269531 0 15 6.730469 15 15s-6.730469 15-15 15zm55.789062-120h-40.789062v-30h33.289062zm-25.789062 60h-15v-30h79.210938l-15-60.199219h54.710937c-7.300781 50.816407-51.117187 90.199219-103.921875 90.199219zm111.210938-225.003906-21.207032-21.207032 53.789063-53.789062h112.207031v30h-99.792969zm0 0"/><path d="m151 120h30v60h-30zm0 0"/><path d="m211 120h30v60h-30zm0 0"/><path d="m91 120h30v60h-30zm0 0"/></svg>