<svg height="512pt" viewBox="0 -21 512.00079 512" width="512pt" xmlns="http://www.w3.org/2000/svg"><path d="m93.746094 94.832031c.488281 0 .980468-.003906 1.46875-.011719 34.125-.359374 66.328125-13.160156 90.671875-36.039062 38.3125-37.414062 103.324219-38.273438 141.636719-.859375 24.078124 23.070313 55.851562 35.753906 89.527343 35.753906h.578125c33.914063-.148437 65.820313-13.144531 89.839844-36.601562 5.933594-5.792969 6.058594-15.3125.273438-21.257813-5.777344-5.949218-15.277344-6.070312-21.210938-.277344-37.945312 37.054688-99.976562 37.347657-138.277344.644532-49.855468-48.683594-133.03125-48.023438-182.886718.664062-18.851563 17.714844-43.875 27.628906-70.46875 27.910156-26.679688.269532-51.34375-9.292968-69.429688-26.957031-5.933594-5.792969-15.429688-5.671875-21.210938.273438-5.78125 5.949219-5.660156 15.46875.273438 21.261719 23.472656 22.921874 55.105469 35.496093 89.214844 35.496093zm0 0"/><path d="m486.53125 160.628906c-38.308594 37.414063-100.644531 37.414063-138.957031 0-49.855469-48.6875-130.976563-48.6875-180.832031 0-38.917969 38.003906-103.613282 39.039063-141.273438 2.261719-5.933594-5.792969-15.429688-5.671875-21.210938.277344-5.78125 5.945312-5.660156 15.464843.273438 21.257812 23.5 22.949219 55.085938 35.5 89.1875 35.5.890625 0 1.78125-.007812 2.671875-.027343 34.628906-.660157 67.050781-14.0625 91.285156-37.730469 38.3125-37.414063 100.648438-37.414063 138.960938 0 49.855469 48.6875 130.976562 48.6875 180.832031 0 5.933594-5.792969 6.054688-15.3125.273438-21.261719-5.777344-5.945312-15.277344-6.070312-21.210938-.277344zm0 0"/><path d="m486.53125 285.617188c-38.308594 37.410156-100.644531 37.410156-138.957031 0-49.855469-48.6875-130.976563-48.6875-180.832031 0-38.917969 38-103.613282 39.039062-141.273438 2.257812-5.933594-5.792969-15.429688-5.667969-21.210938.277344-5.78125 5.945312-5.660156 15.464844.273438 21.257812 23.5 22.949219 55.085938 35.5 89.1875 35.5.890625 0 1.78125-.007812 2.671875-.027344 34.628906-.660156 67.050781-14.0625 91.285156-37.730468 38.3125-37.414063 100.648438-37.414063 138.960938 0 49.855469 48.6875 130.976562 48.6875 180.832031 0 5.933594-5.792969 6.054688-15.3125.273438-21.261719-5.777344-5.945313-15.277344-6.070313-21.210938-.273437zm0 0"/><path d="m486.53125 410.707031c-38.308594 37.414063-100.644531 37.410157-138.957031 0-49.855469-48.6875-130.976563-48.6875-180.832031 0-38.917969 38.003907-103.613282 39.039063-141.273438 2.261719-5.933594-5.792969-15.429688-5.671875-21.210938.273438-5.78125 5.949218-5.660156 15.464843.273438 21.261718 23.5 22.949219 55.085938 35.496094 89.191406 35.496094.886719 0 1.777344-.007812 2.667969-.023438 34.632813-.664062 67.050781-14.066406 91.289063-37.734374 38.308593-37.410157 100.644531-37.410157 138.957031 0 49.855469 48.6875 130.976562 48.6875 180.832031 0 5.933594-5.792969 6.058594-15.3125.273438-21.257813-5.777344-5.949219-15.277344-6.070313-21.210938-.277344zm0 0"/></svg>