<svg height="512pt" viewBox="-39 0 512 512" width="512pt" xmlns="http://www.w3.org/2000/svg"><path d="m433.945312 412.503906-37.9375-240.101562c-4.636718-29.347656-29.597656-50.648438-59.347656-50.648438h-119.160156c-25.359375 0-45.988281-20.578125-45.988281-45.875s20.628906-45.878906 45.988281-45.878906c16.996094 0 32.546875 9.296875 40.578125 24.261719 3.917969 7.300781 13.011719 10.042969 20.3125 6.125s10.042969-13.011719 6.121094-20.3125c-13.265625-24.71875-38.945313-40.074219-67.011719-40.074219-41.902344 0-75.988281 34.039062-75.988281 75.878906 0 17.222656 5.777343 33.125 15.5 45.875h-58.671875c-29.75 0-54.707032 21.300782-59.34375 50.644532l-37.9375 240.105468c-3.929688 24.875 3.203125 50.128906 19.570312 69.285156 16.40625 19.199219 40.3125 30.210938 65.585938 30.210938h262.570312c25.273438 0 49.179688-11.011719 65.585938-30.210938 16.367187-19.15625 23.5-44.410156 19.574218-69.285156zm-42.382812 49.796875c-10.699219 12.519531-26.289062 19.699219-42.777344 19.699219h-262.570312c-16.488282 0-32.078125-7.179688-42.777344-19.699219-10.660156-12.476562-15.304688-28.917969-12.746094-45.113281l37.9375-240.105469c2.316406-14.675781 14.8125-25.328125 29.710938-25.328125h238.320312c14.898438 0 27.394532 10.652344 29.710938 25.328125l37.9375 240.105469c2.558594 16.195312-2.085938 32.636719-12.746094 45.113281zm0 0"/><path d="m255.695312 241.472656h-76.390624c-14.6875 0-26.636719 11.9375-26.636719 26.617188v18.308594c0 8.285156 6.714843 15 15 15 8.285156 0 15-6.714844 15-15v-14.925782h19.832031v100.066406h-8.492188c-8.285156 0-15 6.714844-15 15 0 8.28125 6.714844 15 15 15h46.984376c8.285156 0 15-6.71875 15-15 0-8.285156-6.714844-15-15-15h-8.492188v-100.066406h19.832031v14.925782c0 8.285156 6.714844 15 15 15 8.285157 0 15-6.714844 15-15v-18.3125c.003907-14.675782-11.949219-26.613282-26.636719-26.613282zm0 0"/></svg>