<svg height="512pt" viewBox="-61 0 512 512" width="512pt" xmlns="http://www.w3.org/2000/svg"><path d="m345.117188 0c-24.820313 0-45.015626 20.195312-45.015626 45.015625v390.132813c0 8.273437-6.730468 15.003906-15.003906 15.003906h-20.144531l-19.546875-150.050782h24.683594v-90.03125h-32l-30.011719-210.070312h-146.066406l-30.011719 210.070312h-32v90.03125h27.832031l-26.398437 199.984376 89.238281 11.914062 27.984375-211.898438h35.949219l27.605469 211.847657 89.257812-11.757813-2.605469-20.027344h16.234375c24.820313 0 45.015625-20.195312 45.015625-45.015624v-390.132813c0-8.273437 6.730469-15.003906 15.003907-15.003906 8.273437 0 15.003906 6.730469 15.003906 15.003906v285.097656h30.011718v-285.097656c0-24.820313-20.195312-45.015625-45.015624-45.015625zm-137.339844 210.070312h-57.726563v-32.578124c17.46875-6.195313 30.011719-22.882813 30.011719-42.445313s-12.542969-36.253906-30.011719-42.445313v-62.589843h32.003907zm-87.738282 60.019532h-90.027343v-30.007813h90.027343zm-32-240.078125h32v90.027343h15.007813c8.273437 0 15.003906 6.734376 15.003906 15.007813s-6.730469 15.003906-15.003906 15.003906h-15.007813v60.019531h-57.722656zm-23.183593 448.265625-29.75-3.972656 23-174.203126h30.277343zm85.195312-238.195313h90.03125v30.007813h-90.03125zm58.035157 238.191407-23.214844-178.171876h30.273437l22.695313 174.25zm0 0"/></svg>