<?xml version="1.0" encoding="iso-8859-1"?>
<!-- Generator: Adobe Illustrator 21.0.0, SVG Export Plug-In . SVG Version: 6.00 Build 0)  -->
<svg xmlns="http://www.w3.org/2000/svg" xmlns:xlink="http://www.w3.org/1999/xlink" version="1.1" id="Capa_1" x="0px" y="0px" viewBox="0 0 512 512" style="enable-background:new 0 0 512 512;" xml:space="preserve" width="512" height="512">
<path d="M497,196.5h-46v-118h46c8.284,0,15-6.716,15-15s-6.716-15-15-15H15c-8.284,0-15,6.716-15,15s6.716,15,15,15h45v118H15  c-8.284,0-15,6.716-15,15v164c0,8.284,6.716,15,15,15h4.234c0.09,0.002,0.18,0.013,0.271,0.013c0.087,0,0.174-0.011,0.261-0.013H135  c8.284,0,15-6.716,15-15v-164c0-8.284-6.716-15-15-15H90v-118h150v118h-45c-8.284,0-15,6.716-15,15v164c0,8.284,6.716,15,15,15h120  c8.284,0,15-6.716,15-15v-164c0-8.284-6.716-15-15-15h-45v-118h151v118h-46c-8.284,0-15,6.716-15,15v237c0,8.284,6.716,15,15,15h122  c8.284,0,15-6.716,15-15v-237C512,203.216,505.284,196.5,497,196.5z M120,343.622l-34.195-35.508  c-2.817-2.926-6.701-4.584-10.764-4.595c-0.014,0-0.027,0-0.041,0c-4.047,0-7.923,1.636-10.747,4.536L30,343.233v-43.43  l44.955-46.078L120,300.283V343.622z M94.604,360.5H55.059l19.881-20.418L94.604,360.5z M59.604,226.5L30,256.844V226.5H59.604z   M120,257.138L90.358,226.5H120V257.138z M300,343.408l-34.01-35.297c-2.819-2.926-6.705-4.583-10.769-4.592  c-0.011,0-0.022,0-0.033,0c-4.052,0-7.931,1.639-10.756,4.544L210,343.485v-43.489l45.144-46.271L300,300.088V343.408z   M274.809,360.5h-39.51l19.842-20.412L274.809,360.5z M239.793,226.5L210,257.037V226.5H239.793z M300,256.943L270.546,226.5H300  V256.943z M446.914,385.354c-2.814-2.931-6.697-4.594-10.76-4.61c-0.021,0-0.04,0-0.06,0c-4.041,0-7.913,1.631-10.736,4.525  L390,421.51v-43.361l46.05-47.2L482,378.443v43.448L446.914,385.354z M451.554,433.5h-31.34l15.794-16.188L451.554,433.5z   M446.875,298.994c-2.818-2.913-6.695-4.561-10.749-4.57c-0.011,0-0.021,0-0.031,0c-4.042,0-7.913,1.631-10.736,4.525L390,335.19  V291.83l46.05-47.2L482,292.124v43.175L446.875,298.994z M482,248.979L460.252,226.5H482V248.979z M411.825,226.5L390,248.87V226.5  H411.825z"/>















</svg>
