<svg height="512pt" viewBox="0 0 512.001 512" width="512pt" xmlns="http://www.w3.org/2000/svg"><path d="m448.386719 254.453125 63.613281-63.613281-190.839844-190.839844-63.613281 63.613281 21.203125 21.203125-21.203125 21.207032-21.203125-21.207032-21.207031 21.207032 21.207031 21.203124-21.207031 21.203126-42.40625-42.410157-84.820313 84.820313 63.613282 63.613281 21.207031-21.203125 20.332031 20.332031-53.042969 54.511719c-37.804687-13.382812-80.558593-4.066406-109.320312 24.695312-19.796875 19.796876-30.699219 46.152344-30.699219 74.214844s10.902344 54.417969 30.699219 74.214844c20.460937 20.460938 47.339843 30.691406 74.214843 30.691406 26.878907 0 53.757813-10.230468 74.21875-30.691406 28.832032-28.832031 38.121094-71.730469 24.59375-109.601562l52.953126-54.417969 22.074218 22.070312-21.203125 21.207031 63.613281 63.613282 84.816407-84.820313-42.410157-42.40625 21.203126-21.207031 21.207031 21.207031 21.203125-21.207031-21.203125-21.203125 21.203125-21.203125zm-127.226563-212.042969 148.429688 148.429688-21.203125 21.203125-148.429688-148.429688zm-269.253906 417.605469c-25.867188-25.867187-28.601562-65.601563-9.539062-94.355469l21.964843 21.964844c-7.964843 16.714844-5.042969 37.363281 8.777344 51.183594 8.765625 8.769531 20.285156 13.15625 31.804687 13.15625 6.636719 0 13.269532-1.464844 19.382813-4.375l21.960937 21.960937c-29.09375 19.242188-68.753906 16.0625-94.351562-9.535156zm63.613281-42.410156c-5.847656 5.847656-15.359375 5.84375-21.207031 0-5.859375-5.859375-5.859375-15.34375 0-21.203125 5.863281-5.859375 15.34375-5.859375 21.207031 0 5.84375 5.84375 5.84375 15.359375 0 21.203125zm52.554688-52.351563 4.492187 9.425782c11.445313 24.023437 9.144532 52.027343-5.117187 73.652343l-21.949219-21.945312c7.964844-16.71875 5.042969-37.367188-8.777344-51.1875-13.820312-13.820313-34.472656-16.742188-51.1875-8.777344l-21.945312-21.949219c21.625-14.261718 49.625-16.566406 73.652344-5.117187l9.699218 4.625 67.332032-69.1875 21.199218 21.199219zm153.085937 16.425782-21.203125-21.203126 21.203125-21.207031-148.429687-148.429687-21.203125 21.203125-21.207032-21.203125 42.410157-42.40625 190.839843 190.835937zm21.207032-106.023438-106.023438-106.019531 21.203125-21.207031 106.023437 106.023437zm42.40625-42.40625-106.019532-106.023438 21.203125-21.203124 106.019531 106.019531zm0 0"/></svg>