<?xml version="1.0" encoding="iso-8859-1"?>
<!-- Generator: Adobe Illustrator 19.0.0, SVG Export Plug-In . SVG Version: 6.00 Build 0)  -->
<svg version="1.1" id="Capa_1" xmlns="http://www.w3.org/2000/svg" xmlns:xlink="http://www.w3.org/1999/xlink" x="0px" y="0px"
	 viewBox="0 0 512 512" style="enable-background:new 0 0 512 512;" xml:space="preserve">
<g>
	<g>
		<path d="M256.438,87.22h-0.373c-5.523,0-10,4.477-10,10c0,5.523,4.477,10,10,10h0.373c5.523,0,10-4.477,10-10
			C266.438,91.697,261.961,87.22,256.438,87.22z"/>
	</g>
</g>
<g>
	<g>
		<path d="M502,415.22h-11.935v-298c0-16.542-13.458-30-30-30H447V46.78c0-5.523-4.477-10-10-10h-96c-5.523,0-10,4.477-10,10v40.44
			h-31c-5.523,0-10,4.477-10,10c0,5.523,4.477,10,10,10h160.065c5.514,0,10,4.486,10,10v298H313c-5.523,0-10,4.477-10,10
			s4.477,10,10,10h179v20H20v-20h183c5.523,0,10-4.477,10-10s-4.477-10-10-10H42.065v-298c0-5.514,4.486-10,10-10H212.5
			c5.523,0,10-4.477,10-10c0-5.523-4.477-10-10-10H181V46.78c0-5.523-4.477-10-10-10H75c-5.523,0-10,4.477-10,10v40.44H52.065
			c-16.542,0-30,13.458-30,30v298H10c-5.523,0-10,4.477-10,10v40c0,5.523,4.477,10,10,10h492c5.523,0,10-4.477,10-10v-40
			C512,419.698,507.523,415.22,502,415.22z M427,87.22h-76V56.78h76V87.22z M85,56.78h76v30.44H85V56.78z"/>
	</g>
</g>
<g>
	<g>
		<path d="M263.14,418.15c-1.86-1.86-4.44-2.93-7.08-2.93c-2.63,0-5.21,1.07-7.07,2.93c-1.86,1.86-2.93,4.44-2.93,7.07
			s1.07,5.21,2.93,7.07c1.87,1.86,4.44,2.93,7.07,2.93c2.64,0,5.21-1.07,7.08-2.93c1.86-1.86,2.92-4.44,2.92-7.07
			S265,420.01,263.14,418.15z"/>
	</g>
</g>
<g>
	<g>
		<path d="M151.934,151.303H133V132.37c0-5.523-4.477-10-10-10s-10,4.477-10,10v18.933H94.066c-5.523,0-10,4.477-10,10
			s4.477,10,10,10H113v18.934c0,5.523,4.477,10,10,10s10-4.477,10-10v-18.934h18.934c5.523,0,10-4.477,10-10
			S157.457,151.303,151.934,151.303z"/>
	</g>
</g>
<g>
	<g>
		<path d="M417.934,151.303h-57.867c-5.523,0-10,4.477-10,10s4.477,10,10,10h57.867c5.523,0,10-4.477,10-10
			S423.457,151.303,417.934,151.303z"/>
	</g>
</g>
<g>
	<g>
		<path d="M348.744,243.048c-1.705-3.358-5.151-5.473-8.917-5.473h-66.286l32.528-72.162c1.395-3.094,1.125-6.686-0.717-9.537
			c-1.842-2.851-5.005-4.573-8.399-4.573h-62.068c-4.066,0-7.728,2.462-9.262,6.229L172.197,288.74
			c-1.256,3.083-0.894,6.589,0.964,9.352c1.858,2.763,4.969,4.419,8.298,4.419h71.936l-23.773,79.856
			c-1.388,4.664,0.782,9.65,5.143,11.812c1.419,0.704,2.937,1.042,4.437,1.042c3.107,0,6.142-1.45,8.078-4.1L347.9,253.476
			C350.123,250.436,350.449,246.406,348.744,243.048z M265.317,332.556l11.072-37.191c0.901-3.026,0.319-6.3-1.568-8.831
			c-1.887-2.531-4.859-4.022-8.017-4.022h-70.478l45.284-111.209h39.866l-32.528,72.162c-1.395,3.095-1.125,6.686,0.717,9.537
			c1.842,2.851,5.005,4.573,8.399,4.573h62.065L265.317,332.556z"/>
	</g>
</g>
<g>
</g>
<g>
</g>
<g>
</g>
<g>
</g>
<g>
</g>
<g>
</g>
<g>
</g>
<g>
</g>
<g>
</g>
<g>
</g>
<g>
</g>
<g>
</g>
<g>
</g>
<g>
</g>
<g>
</g>
</svg>
