<svg height="512pt" viewBox="0 -16 512 512" width="512pt" xmlns="http://www.w3.org/2000/svg"><path d="m420.324219 240c-3.101563-34.253906-16.714844-65.515625-37.582031-90.53125l21.75-21.75-21.214844-21.210938-21.746094 21.746094c-25.015625-20.863281-56.277344-34.46875-90.53125-37.570312v-30.683594h-30v30.683594c-34.253906 3.101562-65.515625 16.707031-90.53125 37.574218l-21.746094-21.75-21.214844 21.214844 21.746094 21.746094c-20.863281 25.015625-34.480468 56.277344-37.578125 90.53125h-30.675781v30h60v-15c0-70.480469 54.292969-128.507812 123.25-134.484375l-31.820312 123.210937c-.949219 3.664063-1.429688 7.457032-1.429688 11.273438 0 24.8125 20.1875 45 45 45s45-20.1875 45-45c0-3.820312-.480469-7.617188-1.429688-11.273438l-31.816406-123.210937c68.953125 5.976563 123.246094 64.003906 123.246094 134.484375v15h60v-30zm-149.324219 15c0 8.269531-6.730469 15-15 15s-15-6.730469-15-15c0-2.71875-.796875 1.144531 15-60.011719 15.859375 61.414063 15 57.347657 15 60.011719zm0 0"/><path d="m121 420h120v-90h-120zm30-60h60v30h-60zm0 0"/><path d="m271 420h120v-90h-120zm30-60h60v30h-60zm0 0"/><path d="m256 0c-141.160156 0-256 114.394531-256 255 0 87.800781 45.695312 174.992188 135.835938 225h240.328124c89.417969-49.609375 135.835938-136.390625 135.835938-225 0-140.605469-114.839844-255-256-255zm112.332031 450h-224.664062c-70.21875-40.496094-113.667969-114.859375-113.667969-195 0-124.066406 101.382812-225 226-225s226 100.933594 226 225c0 80.140625-43.449219 154.503906-113.667969 195zm0 0"/></svg>