<svg height="512pt" viewBox="0 0 512 512" width="512pt" xmlns="http://www.w3.org/2000/svg"><path d="m383.863281 128.148438c-5.859375-5.855469-15.355469-5.855469-21.214843 0l-23.621094 23.621093-23.621094-23.621093c-5.855469-5.855469-15.355469-5.855469-21.210938 0-5.859374 5.859374-5.859374 15.355468 0 21.214843l23.617188 23.617188-23.617188 23.621093c-5.859374 5.855469-5.859374 15.355469 0 21.210938 2.925782 2.929688 6.765626 4.394531 10.605469 4.394531 3.839844 0 7.679688-1.464843 10.605469-4.394531l23.621094-23.617188 23.621094 23.617188c2.929687 2.929688 6.765624 4.394531 10.605468 4.394531s7.679688-1.464843 10.609375-4.394531c5.859375-5.855469 5.859375-15.351562 0-21.210938l-23.621093-23.621093 23.621093-23.617188c5.859375-5.859375 5.859375-15.355469 0-21.214843zm0 0"/><path d="m102.863281 340.691406c-5.859375-5.859375-15.355469-5.859375-21.214843 0-5.859376 5.855469-5.859376 15.355469 0 21.210938l68.453124 68.453125c2.929688 2.925781 6.765626 4.390625 10.605469 4.390625 3.839844 0 7.679688-1.460938 10.609375-4.390625 5.855469-5.859375 5.855469-15.355469 0-21.214844zm0 0"/><path d="m243.351562 204.527344c-7.042968-7.039063-18.496093-7.039063-25.535156 0l-44.652344 44.648437c-3.410156 3.410157-5.289062 7.945313-5.289062 12.769531 0 4.824219 1.878906 9.355469 5.289062 12.765626l64.132813 64.132812c3.40625 3.410156 7.941406 5.289062 12.765625 5.289062s9.359375-1.878906 12.765625-5.289062l44.652344-44.652344c7.039062-7.039062 7.039062-18.496094 0-25.535156zm6.710938 104.65625-47.238281-47.238282 27.757812-27.757812 47.238281 47.238281zm0 0"/><path d="m157.253906 286.300781c-5.855468-5.859375-15.355468-5.859375-21.214844 0-5.855468 5.855469-5.855468 15.351563 0 21.210938l68.453126 68.453125c2.929687 2.925781 6.769531 4.390625 10.609374 4.390625 3.839844 0 7.675782-1.460938 10.605469-4.390625 5.859375-5.859375 5.859375-15.355469 0-21.214844zm0 0"/><path d="m502.042969 51.476562-41.503907-41.5c-6.433593-6.433593-14.984374-9.976562-24.082031-9.976562-9.097656 0-17.652343 3.542969-24.082031 9.976562l-25.460938 25.457032-3.941406-3.941406c-12.511718-12.511719-29.148437-19.402344-46.84375-19.402344-17.695312 0-34.328125 6.890625-46.84375 19.402344l-269.882812 269.875c-12.511719 12.511718-19.402344 29.148437-19.402344 46.84375 0 17.691406 6.890625 34.328124 19.402344 46.839843l97.550781 97.546875c12.511719 12.511719 29.148437 19.402344 46.84375 19.402344s34.332031-6.890625 46.84375-19.402344l269.878906-269.875c25.832031-25.828125 25.832031-67.855468 0-93.683594l-3.941406-3.941406 25.464844-25.460937c13.277343-13.277344 13.277343-34.882813 0-48.160157zm-42.734375 150.035157-269.882813 269.871093c-14.132812 14.132813-37.125 14.132813-51.261719 0l-97.546874-97.542968c-14.132813-14.132813-14.132813-37.125 0-51.257813l269.882812-269.875c6.847656-6.847656 15.949219-10.617187 25.628906-10.617187 9.683594 0 18.785156 3.769531 25.628906 10.617187l97.550782 97.546875c14.128906 14.132813 14.128906 37.125 0 51.257813zm21.519531-123.085938-25.464844 25.460938-47.238281-47.238281 25.464844-25.460938c.980468-.980469 2.097656-1.1875 2.863281-1.1875.769531 0 1.886719.207031 2.871094 1.1875l41.5 41.5c1.582031 1.582031 1.582031 4.15625.003906 5.738281zm0 0"/></svg>