<svg height="512pt" viewBox="0 0 512 512" width="512pt" xmlns="http://www.w3.org/2000/svg"><path d="m512 135c0-57.898438-47.101562-105-105-105s-105 47.101562-105 105c0 52.804688 39.183594 96.621094 90 103.925781v228.074219c0 8.269531-6.730469 15-15 15s-15-6.730469-15-15v-120c0-24.8125-20.1875-45-45-45h-47v-227c0-41.355469-33.644531-75-75-75h-120c-41.355469 0-75 33.644531-75 75v362c0 41.355469 33.644531 75 75 75h120c41.355469 0 75-33.644531 75-75v-105h47c8.269531 0 15 6.730469 15 15v120c0 24.8125 20.1875 45 45 45s45-20.1875 45-45v-228.074219c50.816406-7.304687 90-51.121093 90-103.925781zm-272 203.972656-60 40v-85.945312l60-40zm-150-82-60-40v-83.945312l60 40zm-60-3.945312 60 40v85.945312l-60-40zm90-223.027344h30v452h-30zm120 186.972656-60 40v-83.945312l60-40zm0-141.972656v21.972656l-60 40v-106.972656h15c24.8125 0 45 20.1875 45 45zm-165-45h15v106.972656l-60-40v-21.972656c0-24.8125 20.1875-45 45-45zm-45 407v-61.972656l60 40v66.972656h-15c-24.8125 0-45-20.1875-45-45zm165 45h-15v-66.972656l60-40v61.972656c0 24.8125-20.1875 45-45 45zm137-347c0-41.355469 33.644531-75 75-75s75 33.644531 75 75c0 16.859375-5.59375 32.4375-15.023438 44.976562-10.957031-14.5625-26.96875-24.765624-44.976562-28.453124v-61.523438h-30v61.523438c-18.007812 3.6875-34.019531 13.890624-44.976562 28.453124-9.425782-12.539062-15.023438-28.117187-15.023438-44.976562zm75 45c15.226562 0 29.171875 7.710938 37.398438 19.96875-11.015626 6.367188-23.785157 10.03125-37.398438 10.03125s-26.382812-3.664062-37.398438-10.03125c8.226563-12.257812 22.171876-19.96875 37.398438-19.96875zm0 0"/></svg>