<?xml version="1.0" encoding="iso-8859-1"?>
<!-- Generator: Adobe Illustrator 19.0.0, SVG Export Plug-In . SVG Version: 6.00 Build 0)  -->
<svg version="1.1" id="Capa_1" xmlns="http://www.w3.org/2000/svg" xmlns:xlink="http://www.w3.org/1999/xlink" x="0px" y="0px"
	 viewBox="0 0 512 512" style="enable-background:new 0 0 512 512;" xml:space="preserve">
<g>
	<g>
		<path d="M256.009,53.999c-0.02,0-0.041,0-0.062,0.001c-6.363,0.032-10.153,5.123-10.141,10.027
			c0.013,4.904,3.83,9.975,10.194,9.975c0.034,0,0.068,0,0.103-0.001c6.363-0.064,10.127-5.176,10.089-10.079
			C266.155,59.034,262.338,53.999,256.009,53.999z"/>
	</g>
</g>
<g>
	<g>
		<path d="M502,149.939h-31.512c-24.464,0-47.608-10.249-63.5-28.12c-28.515-32.065-65.608-53.875-107.271-63.07
			c-5.385-1.187-10.729,2.216-11.92,7.609c-1.191,5.393,2.217,10.729,7.609,11.92c37.523,8.282,70.939,27.934,96.637,56.832
			c19.683,22.134,48.275,34.829,78.445,34.829H492v172.127h-21.512c-30.17,0-58.763,12.695-78.445,34.829
			C357.51,415.73,307.924,438.001,256,438.001s-101.51-22.272-136.043-61.107c-19.683-22.134-48.275-34.829-78.445-34.829H20
			V169.939h21.512c30.17,0,58.763-12.695,78.445-34.829c24.821-27.914,57.01-47.281,93.086-56.01
			c5.368-1.299,8.667-6.703,7.368-12.071c-1.298-5.367-6.702-8.668-12.071-7.368c-40.056,9.691-75.786,31.186-103.328,62.158
			c-15.892,17.871-39.036,28.12-63.5,28.12H10c-5.522,0-10,4.478-10,10v192.127c0,5.522,4.478,10,10,10h31.512
			c24.464,0,47.608,10.249,63.5,28.12c38.325,43.099,93.358,67.816,150.988,67.816s112.663-24.718,150.988-67.816
			c15.892-17.871,39.036-28.12,63.5-28.12H502c5.522,0,10-4.478,10-10V159.939C512,154.417,507.522,149.939,502,149.939z"/>
	</g>
</g>
<g>
	<g>
		<path d="M256,102.002c-84.916,0-154,69.084-154,154c0,64.653,40.83,122.865,101.6,144.853c1.124,0.406,2.272,0.6,3.401,0.6
			c4.092-0.001,7.932-2.531,9.404-6.601c1.879-5.193-0.808-10.927-6.001-12.806C157.527,362.916,122,312.262,122,256.001
			c0-73.888,60.112-134,134-134s134,60.112,134,134c0,55.561-34.938,105.998-86.94,125.506c-5.171,1.94-7.79,7.705-5.851,12.876
			c1.939,5.171,7.704,7.789,12.876,5.851c29.046-10.897,53.889-30.11,71.841-55.563c18.366-26.038,28.074-56.7,28.074-88.67
			C410,171.086,340.916,102.002,256,102.002z"/>
	</g>
</g>
<g>
	<g>
		<path d="M256,174.001c-45.215,0-82,36.785-82,82c0,45.215,36.785,82,82,82c45.215,0,82-36.785,82-82
			C338,210.787,301.215,174.001,256,174.001z M256,318.001c-34.187,0-62-27.813-62-62s27.813-62,62-62s62,27.813,62,62
			C318,290.189,290.187,318.001,256,318.001z"/>
	</g>
</g>
<g>
	<g>
		<path d="M256,218.001c-20.953,0-38,17.047-38,38s17.047,38,38,38s38-17.047,38-38S276.953,218.001,256,218.001z M256,274.001
			c-9.925,0-18-8.075-18-18s8.075-18,18-18s18,8.075,18,18C274,265.927,265.925,274.001,256,274.001z"/>
	</g>
</g>
<g>
	<g>
		<path d="M371.427,248.799c-3.894-3.917-10.224-3.937-14.143-0.045l-0.154,0.153c-3.917,3.894-3.938,10.225-0.045,14.143
			c1.955,1.967,4.523,2.951,7.094,2.951c2.549,0,5.097-0.968,7.049-2.906l0.154-0.153
			C375.299,259.048,375.32,252.717,371.427,248.799z"/>
	</g>
</g>
<g>
	<g>
		<path d="M263.247,357.287l-0.153-0.154c-3.895-3.917-10.225-3.936-14.143-0.045c-3.917,3.894-3.938,10.225-0.045,14.143
			l0.153,0.154c1.955,1.967,4.523,2.951,7.094,2.951c2.549,0,5.098-0.969,7.049-2.906
			C267.119,367.535,267.14,361.204,263.247,357.287z"/>
	</g>
</g>
<g>
	<g>
		<path d="M154.915,248.953c-3.894-3.917-10.225-3.937-14.143-0.045l-0.154,0.153c-3.917,3.894-3.938,10.225-0.045,14.143
			c1.955,1.967,4.523,2.951,7.094,2.951c2.549,0,5.098-0.969,7.049-2.906l0.154-0.153
			C158.787,259.202,158.808,252.871,154.915,248.953z"/>
	</g>
</g>
<g>
	<g>
		<path d="M263.094,140.775l-0.153-0.154c-3.894-3.917-10.224-3.937-14.143-0.045c-3.917,3.894-3.938,10.225-0.045,14.143
			l0.153,0.154c1.955,1.966,4.524,2.951,7.094,2.951c2.549,0,5.098-0.969,7.049-2.906
			C266.966,151.024,266.987,144.692,263.094,140.775z"/>
	</g>
</g>
<g>
	<g>
		<path d="M332.712,322.496h-0.218c-5.522,0-10,4.478-10,10c0,5.522,4.478,10,10,10h0.218c5.522,0,10-4.478,10-10
			C342.712,326.975,338.234,322.496,332.712,322.496z"/>
	</g>
</g>
<g>
	<g>
		<path d="M179.506,322.496c-5.522,0-10,4.478-10,10v0.218c0,5.523,4.477,10,10,10c5.522,0,10-4.478,10-10v-0.218
			C189.506,326.974,185.028,322.496,179.506,322.496z"/>
	</g>
</g>
<g>
	<g>
		<path d="M179.506,169.508h-0.218c-5.522,0-10,4.478-10,10c0,5.522,4.478,10,10,10h0.218c5.522,0,10-4.478,10-10
			C189.506,173.986,185.028,169.508,179.506,169.508z"/>
	</g>
</g>
<g>
	<g>
		<path d="M332.494,169.29c-5.522,0-10,4.478-10,10v0.218c0,5.522,4.478,10,10,10c5.522,0,10-4.478,10-10v-0.218
			C342.494,173.767,338.017,169.29,332.494,169.29z"/>
	</g>
</g>
<g>
	<g>
		<path d="M256.202,390c-0.02,0-0.041,0-0.062,0.001c-6.363,0.032-10.153,5.123-10.141,10.027c0.014,4.904,3.83,9.975,10.194,9.975
			c0.034,0,0.068,0,0.103-0.001c6.363-0.064,10.127-5.176,10.089-10.079C266.348,395.035,262.531,390,256.202,390z"/>
	</g>
</g>
<g>
</g>
<g>
</g>
<g>
</g>
<g>
</g>
<g>
</g>
<g>
</g>
<g>
</g>
<g>
</g>
<g>
</g>
<g>
</g>
<g>
</g>
<g>
</g>
<g>
</g>
<g>
</g>
<g>
</g>
</svg>
