<?xml version="1.0" encoding="iso-8859-1"?>
<!-- Generator: Adobe Illustrator 21.0.0, SVG Export Plug-In . SVG Version: 6.00 Build 0)  -->
<svg xmlns="http://www.w3.org/2000/svg" xmlns:xlink="http://www.w3.org/1999/xlink" version="1.1" id="Capa_1" x="0px" y="0px" viewBox="0 0 512 512" style="enable-background:new 0 0 512 512;" xml:space="preserve" width="512" height="512">
<g>
	<path d="M507.607,63.396L448.604,4.394C445.792,1.581,441.976,0,437.998,0H74.003c-3.978,0-7.793,1.581-10.606,4.394L4.394,63.396   C1.581,66.209,0,70.024,0,74.003V75c0,0.007,0.001,0.013,0.001,0.019v361.767c0,8.284,6.716,15,15,15s15-6.716,15-15V149.94   c0.399,0.032,0.798,0.061,1.205,0.061H482v286.786c0,8.284,6.716,15,15,15s15-6.716,15-15V75v-0.998   C512,70.024,510.42,66.209,507.607,63.396z M80.216,30h351.569l30,30H50.216L80.216,30z M482,120.001H31.206   c-0.407,0-0.806,0.029-1.205,0.061V90h452V120.001z"/>
	<path d="M431.46,324.712c-2.978-5.689-41.825-80.426-41.825-80.426C378.673,223.444,358.256,211,335.019,211H176.718   c-23.22,0-43.631,12.43-54.599,33.251c-6.404,12.159-43.266,79.879-46.748,86.489c-9.756,10.99-15.321,25.478-15.344,41.429   L60,474.517C60,495.185,76.815,512,97.483,512h45.034C163.186,512,180,495.185,180,474.517V452h152v22.517   C332,495.185,348.815,512,369.483,512h45.034C435.185,512,452,495.185,452,474.517L452,371.335   C452.025,352.824,444.37,336.122,431.46,324.712z M148.663,258.233C154.516,247.12,164.48,241,176.718,241h158.301   c12.069,0,22.299,6.288,28.065,17.25c0,0,22.863,43.56,25.116,47.943c-50.854-12.238-118.79-15.046-132.162-15.046   c-49.914,0-97.406,5.585-132.951,15.311C125.518,302.064,142.262,270.384,148.663,258.233z M150,474.517   c0,4.057-3.427,7.483-7.483,7.483H97.483c-4.056,0-7.483-3.427-7.483-7.483v-30.811c9.055,5.405,19.36,8.295,30.06,8.295H150   V474.517z M120.06,422c-7.708,0-15.053-3.104-20.682-8.742c-6.059-6.068-9.389-14.218-9.376-22.949l0.026-18.096   c0.02-13.553,7.159-24.588,19.098-29.518c32.67-13.492,87.59-21.547,146.912-21.547c22.959,0,103.373,4.97,145.62,20.187   c12.567,4.527,20.361,16.006,20.342,29.958l-0.026,19.039C421.949,407.794,408.464,422,391.915,422H120.06z M422,474.517   c0,4.057-3.427,7.483-7.483,7.483h-45.034c-4.056,0-7.482-3.427-7.482-7.483V452h29.914c10.956,0,21.23-3.049,30.086-8.343V474.517   z"/>
	<path d="M135,362.049c-8.262,0-15,6.738-15,15c0,8.262,6.738,15,15,15s15-6.738,15-15C150,368.787,143.262,362.049,135,362.049z"/>
	<path d="M377,362c-8.262,0-15,6.738-15,15s6.738,15,15,15c8.262,0,15-6.738,15-15S385.262,362,377,362z"/>
	<path d="M317.006,362H195.01c-8.284,0-15,6.716-15,15s6.716,15,15,15h121.997c8.284,0,15-6.716,15-15S325.291,362,317.006,362z"/>
</g>















</svg>
