<svg height="511pt" viewBox="-17 1 511 511.999" width="511pt" xmlns="http://www.w3.org/2000/svg"><path d="m261.535156 303.988281-106.03125 106.03125-21.207031-21.207031 106.03125-106.03125zm0 0"/><path d="m433.132812 29.992188h-29.992187c-14.058594-18.691407-36.3125-29.992188-59.980469-29.992188-23.667968 0-45.921875 11.300781-59.980468 29.992188h-29.992188c-24.804688 0-44.984375 20.179687-44.984375 44.984374 0 24.804688 20.179687 44.984376 44.984375 44.984376h29.992188c4.296874 5.710937 9.363281 10.730468 14.996093 14.949218v44.398438l-38.25 38.246094-19.601562-19.601563-190.859375 190.859375 21.207031 21.203125-70.171875 70.171875 95.429688 31.8125 38.363281-38.363281 21.207031 21.207031 190.855469-190.859375-22.8125-22.8125 64.601562-64.605469v-81.65625c5.636719-4.21875 10.699219-9.238281 14.996094-14.949218h29.992187c24.804688 0 44.984376-20.179688 44.984376-44.984376 0-24.804687-20.179688-44.984374-44.984376-44.984374zm-345.304687 447.695312-31.808594-10.601562 35.859375-35.863282 21.207032 21.207032zm67.671875-25.257812-63.621094-63.617188 148.445313-148.445312 63.621093 63.617187zm202.65625-248.285157-55.820312 55.816407-21.203126-21.199219 47.03125-47.03125v-43.308594c4.890626 1.003906 9.910157 1.53125 14.996094 1.53125 5.085938 0 10.105469-.527344 14.996094-1.53125zm74.976562-114.171875h-46.664062l-4.332031 7.484375c-8.03125 13.882813-22.964844 22.503907-38.976563 22.503907-16.011718 0-30.949218-8.621094-38.976562-22.503907l-4.332032-7.484375h-46.664062c-8.265625 0-14.996094-6.726562-14.996094-14.996094 0-8.269531 6.730469-14.996093 14.996094-14.996093h46.664062l4.332032-7.484375c8.03125-13.882813 22.964844-22.503906 38.976562-22.503906 16.011719 0 30.945313 8.621093 38.976563 22.503906l4.332031 7.484375h46.664062c8.265626 0 14.992188 6.726562 14.992188 14.996093 0 8.269532-6.726562 14.996094-14.992188 14.996094zm0 0"/><path d="m328.164062 59.980469h29.992188v29.992187h-29.992188zm0 0"/></svg>