<?xml version="1.0" encoding="iso-8859-1"?>
<!-- Generator: Adobe Illustrator 21.0.0, SVG Export Plug-In . SVG Version: 6.00 Build 0)  -->
<svg xmlns="http://www.w3.org/2000/svg" xmlns:xlink="http://www.w3.org/1999/xlink" version="1.1" id="Capa_1" x="0px" y="0px" viewBox="0 0 511.934 511.934" style="enable-background:new 0 0 511.934 511.934;" xml:space="preserve" width="512" height="512">
<g>
	<path d="M331.702,230.841l-17.769,17.768l-4.394-4.393c-5.857-5.858-15.355-5.858-21.213,0c-5.858,5.858-5.858,15.355,0,21.213   l15,15c2.929,2.929,6.768,4.394,10.606,4.394s7.678-1.464,10.606-4.394l28.375-28.375c5.858-5.858,5.858-15.355,0-21.213   C347.058,224.983,337.56,224.983,331.702,230.841z"/>
	<path d="M436.994,240.635h-35.561c-8.284,0-15,6.716-15,15s6.716,15,15,15h35.561c8.284,0,15-6.716,15-15   S445.278,240.635,436.994,240.635z"/>
	<path d="M331.702,318.466l-17.769,17.768l-4.394-4.393c-5.857-5.858-15.355-5.858-21.213,0c-5.858,5.858-5.858,15.355,0,21.213   l15,15c2.929,2.929,6.768,4.394,10.606,4.394s7.678-1.464,10.606-4.394l28.375-28.375c5.858-5.858,5.858-15.355,0-21.213   C347.058,312.608,337.56,312.608,331.702,318.466z"/>
	<path d="M436.994,328.26h-35.561c-8.284,0-15,6.716-15,15s6.716,15,15,15h35.561c8.284,0,15-6.716,15-15   S445.278,328.26,436.994,328.26z"/>
	<path d="M496.934,132.948h-45v-12c0-8.284-6.716-15-15-15h-3.079c-3.217-6.826-6.441-13.374-9.663-19.501   c-13.325-25.335-38.131-40.461-66.356-40.461h-203.25c-28.204,0-53.001,15.109-66.332,40.418   c-11.377,21.598-45.957,102.557-52.211,116.789c-22.455,13.404-35.978,37.008-35.998,64.11L0,411.307c0,24.813,20.187,45,44.999,45   h60.089c24.813,0,45-20.187,45-45v-20h73.846v59.641c0,8.284,6.716,15,15,15h258c8.284,0,15-6.716,15-15v-303   C511.934,139.664,505.218,132.948,496.934,132.948z M421.934,135.948v24h-108v-24H421.934z M30.041,271.316h37.004   c22.255,0,36.759,13.72,42.375,30h-79.4L30.041,271.316z M120.088,411.307c0,8.271-6.729,15-15,15H44.999   c-8.271,0-14.999-6.729-14.999-15v-35.06c12.93,9.767,28.571,15.06,45.009,15.06h45.079V411.307z M223.934,361.307h-21.89v-75   c0-8.271,6.729-15,15-15h6.89V361.307z M223.934,241.307h-6.89c-24.813,0-45,20.187-45,45v75H75.009   c-11.981,0-23.273-4.697-31.796-13.226c-4.824-4.827-8.417-10.542-10.628-16.765h94.459c4.001,0,7.836-1.599,10.653-4.44   c2.816-2.841,4.381-6.69,4.346-10.691c-0.166-18.982-7.535-37.74-20.215-51.463c-13.946-15.093-33.401-23.405-54.783-23.405H38.127   c4.879-6.921,11.786-12.429,20.253-15.804c38.116-15.194,98.468-25.091,165.554-27.505V241.307z M223.934,147.948v20.044   c-56.417,1.99-108.746,9.168-148.584,20.313c2.271-5.305,28.652-67.427,39.447-87.919c8.168-15.506,22.67-24.399,39.789-24.399   h203.25c17.133,0,31.641,8.903,39.804,24.425c0.946,1.799,1.896,3.653,2.847,5.537H298.934c-8.284,0-15,6.716-15,15v12h-45   C230.649,132.948,223.934,139.664,223.934,147.948z M481.934,435.948h-228v-273h30v12c0,8.284,6.716,15,15,15h138   c8.284,0,15-6.716,15-15v-12h30V435.948z"/>
</g>















</svg>
