<svg height="512pt" viewBox="0 -57 512 512" width="512pt" xmlns="http://www.w3.org/2000/svg"><path d="m241 68.867188h30v90.003906h-30zm0 0"/><path d="m241 188.875h30v30.003906h-30zm0 0"/><path d="m447.871094 128.871094h-71.566406c1.429687-4.847656 3.5625-9.535156 6.40625-13.902344l10.121093-15.554688-17.332031-6.636718c-19.5625-7.492188-32.902344-25.847656-33.980469-46.769532l-.953125-18.53125-17.921875 4.820313c-20.230469 5.4375-41.808593-1.574219-54.980469-17.863281l-11.664062-14.433594-11.667969 14.429688c-13.167969 16.292968-34.746093 23.304687-54.976562 17.863281l-17.921875-4.816407-.953125 18.53125c-1.082031 20.921876-14.417969 39.277344-33.980469 46.769532l-17.332031 6.632812 10.121093 15.558594c2.84375 4.367188 4.976563 9.054688 6.40625 13.902344h-71.566406l-64.128906 270.019531h512zm-285.820313-15.527344c17.777344-11.296875 30.632813-28.992188 35.886719-49.390625 21.019531 1.3125 41.828125-5.449219 58.0625-18.867187 16.238281 13.417968 37.042969 20.175781 58.0625 18.867187 5.253906 20.398437 18.109375 38.09375 35.886719 49.390625-7.742188 19.589844-7.742188 41.464844 0 61.054688-17.777344 11.296874-30.632813 28.992187-35.886719 49.390624-21.023438-1.304687-41.828125 5.453126-58.0625 18.867188-16.222656-13.402344-37.019531-20.175781-58.0625-18.867188-5.253906-20.398437-18.109375-38.09375-35.886719-49.390624 7.742188-19.589844 7.742188-41.464844 0-61.054688zm-74.210937 45.328125h47.855468c-1.429687 4.847656-3.5625 9.535156-6.40625 13.902344l-10.121093 15.554687 17.332031 6.636719c19.5625 7.492187 32.902344 25.847656 33.980469 46.769531l.953125 18.53125 17.921875-4.820312c20.230469-5.4375 41.8125 1.574218 54.980469 17.863281l11.664062 14.433594 11.667969-14.433594c13.167969-16.289063 34.75-23.300781 54.980469-17.863281l17.917968 4.820312.957032-18.53125c1.078124-20.921875 14.417968-39.277344 33.980468-46.769531l17.328125-6.636719-10.121093-15.554687c-2.839844-4.367188-4.976563-9.054688-6.402344-13.902344h47.851562l49.878906 210.019531h-91.8125l-30.003906-30.003906h68.792969v-30.003906h-150.011719v30.003906h38.789063l30.003906 30.003906h-137.589844l-30-30.003906h68.792969v-30.003906h-150.015625v30.003906h38.792969l30 30.003906h-121.816406zm0 0"/></svg>