<?xml version="1.0" encoding="iso-8859-1"?>
<!-- Generator: Adobe Illustrator 21.0.0, SVG Export Plug-In . SVG Version: 6.00 Build 0)  -->
<svg xmlns="http://www.w3.org/2000/svg" xmlns:xlink="http://www.w3.org/1999/xlink" version="1.1" id="Capa_1" x="0px" y="0px" viewBox="0 0 512 512" style="enable-background:new 0 0 512 512;" xml:space="preserve" width="512" height="512">
<g>
	<path d="M497,0H15C6.716,0,0,6.716,0,15v372c0,8.284,6.716,15,15,15h150v21.338c-17.075,3.097-32.581,11.493-44.682,24.396   C106.969,461.967,99,480.384,99,497c0,8.284,6.716,15,15,15h284c8.284,0,15-6.716,15-15c0-32.34-25.95-66.722-65.999-73.716V402   H497c8.284,0,15-6.716,15-15V15C512,6.716,505.284,0,497,0z M482,30v282H30V30H482z M332.001,452c24.516,0,40.851,14.83,47.556,30   H132.872c6.861-14.497,22.769-30,47.127-30c8.284,0,15-6.716,15-15v-35h122.001v35C317.001,445.284,323.717,452,332.001,452z    M30,372v-30h452v30H30z"/>
	<path d="M88,249h31.631c5.258,19.016,22.703,33.024,43.37,33.024c20.666,0,38.111-14.008,43.369-33.024h93.662   c5.258,19.016,22.703,33.024,43.369,33.024s38.111-14.008,43.369-33.024H424c8.284,0,15-6.716,15-15v-8c0-47.972-39.028-87-87-87   h-18.884c-0.303-0.367-56.212-56.315-56.212-56.315c-2.813-2.813-6.628-4.394-10.606-4.394H147.752   c-3.978,0-7.793,1.581-10.606,4.394l-59.733,59.734c-3.008,3.008-4.459,6.974-4.379,10.915C73.024,153.557,73,234,73,234   C73,242.284,79.716,249,88,249z M163,252.024c-8.271,0-15-6.729-15-15s6.729-15,15-15c8.271,0,15,6.729,15,15   S171.271,252.024,163,252.024z M343.401,252.024c-8.271,0-15-6.729-15-15s6.729-15,15-15s15,6.729,15,15   S351.672,252.024,343.401,252.024z M153.966,108.292h106.119L290.793,139H123.257L153.966,108.292z M103,169h249   c29.061,0,53.111,21.86,56.572,50h-23.951c-6.964-15.864-22.815-26.976-41.22-26.976s-34.257,11.112-41.22,26.976h-97.96   c-6.964-15.864-22.815-26.976-41.22-26.976c-18.406,0-34.257,11.112-41.221,26.976H103V169z"/>
</g>















</svg>
