<svg height="512pt" viewBox="0 -74 512.00131 512" width="512pt" xmlns="http://www.w3.org/2000/svg"><path d="m491.296875 249.050781c-12.5625-13.074219-30.78125-27.617187-54.238281-43.296875 9.988281-78.394531-31.683594-157.402344-106.910156-190.496094-44.0625-19.382812-92.996094-20.328124-137.78125-2.660156-28.984376 11.433594-54 29.761719-73.3125 53.300782-27.273438-6.636719-50.171876-10.191407-68.171876-10.574219-9.789062-.214844-39.566406-.84375-48.601562 20.109375-9.335938 21.648437 9.824219 48.40625 60.289062 84.210937 4.855469 3.445313 9.9375 6.921875 15.226563 10.417969-5.03125 74.75 36.195313 148.109375 107.964844 179.679688 23.101562 10.164062 47.542969 15.257812 72.023437 15.257812 22.207032 0 44.453125-4.195312 65.757813-12.597656 25.550781-10.078125 48.019531-25.519532 66.210937-45.160156 28.59375 7.136718 54.3125 11.355468 74.4375 11.355468 11.269532 0 20.789063-1.324218 28.074219-4.199218 10.609375-4.183594 15.375-10.949219 17.503906-15.886719 9-20.871094-11.679687-42.390625-18.472656-49.460938zm-398.890625-139.292969c-3.902344 9.050782-7.019531 18.253907-9.378906 27.527344-38.875-27.121094-50.664063-43.632812-52.632813-49.539062 4.316407-1.785156 21.210938-6.085938 70.496094 4.8125-3.097656 5.542968-5.933594 11.28125-8.484375 17.199218zm220.160156 214.640626c-37.304687 14.71875-78.0625 13.929687-114.761718-2.210938-54.605469-24.019531-88.015626-77.050781-90.308594-133.539062 35.28125 20.96875 76.8125 42.144531 121.144531 61.648437 41.378906 18.203125 86.1875 35.183594 127.566406 47.65625-12.78125 11.113281-27.472656 20.066406-43.640625 26.445313zm83.40625-81.101563c-4.628906 10.738281-10.367187 20.765625-17.085937 29.957031-41.640625-11.648437-89.695313-29.179687-138.203125-50.515625-48.539063-21.351562-94-44.960937-130.816406-67.835937 2.046874-11.191406 5.378906-22.324219 10.066406-33.199219 4.519531-10.476563 11.042968-21.582031 17.550781-30.585937 16.667969-22.5625 39.261719-40.023438 65.859375-50.515626 17.746094-7 36.273438-10.492187 54.773438-10.492187 20.390624 0 40.746093 4.242187 59.988281 12.707031 76.15625 33.5 111.089843 123.433594 77.867187 200.480469zm13.890625 37.792969c5.171875-8.160156 9.734375-16.792969 13.636719-25.847656 2.539062-5.886719 4.742188-11.832032 6.625-17.824219 41.542969 29.09375 49.851562 44.523437 51.46875 48.925781-5.65625 2.539062-25.6875 5.015625-71.730469-5.253906zm0 0"/><path d="m238.398438 160.589844c26.21875 0 47.550781-21.507813 47.550781-47.941406 0-26.429688-21.332031-47.9375-47.550781-47.9375-26.214844 0-47.546876 21.507812-47.546876 47.9375 0 26.433593 21.332032 47.941406 47.546876 47.941406zm0-65.785156c9.683593 0 17.558593 8.003906 17.558593 17.847656 0 9.839844-7.875 17.847656-17.558593 17.847656-9.675782 0-17.550782-8.007812-17.550782-17.847656 0-9.84375 7.875-17.847656 17.550782-17.847656zm0 0"/></svg>