<svg height="496pt" viewBox="0 0 496 496" width="496pt" xmlns="http://www.w3.org/2000/svg"><path d="m478.34375 333.078125-64.742188-17.6875c-5.59375-1.503906-10.402343-4.976563-13.585937-9.832031l-31.878906-47.832032c-2.273438-3.328124-5.082031-6.101562-8.136719-8.589843v-49.136719c0-13.230469-10.769531-24-24-24h-112c-6.910156 0-13.503906 2.96875-18.105469 8.175781l-47.230469 54.03125c-3.59375 4.152344-5.601562 9.351563-5.847656 14.722657-.097656.101562-.191406.183593-.289062.285156l-56.121094 62.441406c-3.160156 3.464844-7.148438 5.917969-11.550781 7.113281l-67.214844 18.328125c-8.265625 2.269532-14.679687 8.765625-16.542969 16.246094-.738281 2.082031-1.097656 4.335938-1.097656 6.894531v59.761719c0 13.230469 10.769531 24 24 24h48.640625c3.902344 27.097656 27.207031 48 55.359375 48s51.457031-20.902344 55.359375-48h137.28125c3.902344 27.097656 27.207031 48 55.359375 48s51.457031-20.902344 55.359375-48h40.640625c13.230469 0 24-10.769531 24-24v-67.761719c0-10.765625-7.257812-20.285156-17.65625-23.160156zm-309.625-79.078125c0-1.902344.730469-3.800781 2.023438-5.296875l47.179687-53.96875c1.535156-1.734375 3.75-2.734375 6.078125-2.734375h112c4.40625 0 8 3.59375 8 8v152h-175.28125zm-79.671875 84.199219c7.335937-1.984375 13.96875-6.054688 19.21875-11.816407l44.445313-49.445312v91.0625h207.289062v-93.617188l26.664062 40c5.304688 8.097657 13.390626 13.945313 22.742188 16.457032l64.707031 17.671875c3.460938.960937 5.886719 4.136719 5.886719 7.726562v43.761719h-64.992188c-10.351562-10.175781-24.328124-16-39.007812-16-14.761719 0-28.769531 5.839844-39.054688 16h-169.890624c-10.40625-10.183594-24.382813-16-39.054688-16-14.703125 0-28.703125 5.839844-39.015625 16h-72.984375v-.34375c14.191406-1.207031 27.824219-5.929688 39.800781-13.886719 5.136719-3.425781 8.199219-9.167969 8.199219-15.371093 0-10.140626-8.257812-18.398438-18.398438-18.398438h-7.152343zm89.539063 77.800781h146.839843c-2.402343 5.039062-4 10.433594-4.800781 16h-137.25c-.808594-5.566406-2.398438-10.96875-4.789062-16zm-162.585938-48h29.601562c1.34375 0 2.398438 1.054688 2.398438 2.398438 0 .832031-.414062 1.625-1.0625 2.058593-9.21875 6.117188-19.679688 9.765625-30.9375 10.984375zm0 56v-8h61.457031c-2.410156 5.039062-4.015625 10.433594-4.824219 16h-48.632812c-4.40625 0-8-3.59375-8-8zm112 56c-22.054688 0-40-17.945312-40-40 0-9.871094 3.640625-19.335938 10.3125-26.695312 7.488281-8.457032 18.3125-13.304688 29.6875-13.304688 11.519531 0 22.472656 4.984375 30.089844 13.703125 6.390625 7.21875 9.910156 16.554687 9.910156 26.296875 0 22.054688-17.945312 40-40 40zm248 0c-22.054688 0-40-17.945312-40-40 0-9.808594 3.566406-19.191406 10.105469-26.503906 7.488281-8.574219 18.382812-13.496094 29.894531-13.496094 11.375 0 22.199219 4.847656 29.753906 13.367188 6.605469 7.296874 10.246094 16.761718 10.246094 26.632812 0 22.054688-17.945312 40-40 40zm96-48h-40.632812c-.808594-5.574219-2.414063-10.96875-4.816407-16h53.449219v8c0 4.40625-3.59375 8-8 8zm0 0"/><path d="m128 416c-13.230469 0-24 10.769531-24 24s10.769531 24 24 24 24-10.769531 24-24-10.769531-24-24-24zm0 32c-4.40625 0-8-3.59375-8-8s3.59375-8 8-8 8 3.59375 8 8-3.59375 8-8 8zm0 0"/><path d="m376 416c-13.230469 0-24 10.769531-24 24s10.769531 24 24 24 24-10.769531 24-24-10.769531-24-24-24zm0 32c-4.40625 0-8-3.59375-8-8s3.59375-8 8-8 8 3.59375 8 8-3.59375 8-8 8zm0 0"/><path d="m184.71875 256.992188v39.007812h143.28125v-88h-100.34375zm127.28125-32.992188v56h-111.28125v-16.992188l34.183594-39.007812zm0 0"/><path d="m280 312h48v16h-48zm0 0"/><path d="m272 160c44.113281 0 80-35.886719 80-80v-12.6875l10.34375 10.34375 11.3125-11.3125-29.65625-29.65625-29.65625 29.65625 11.3125 11.3125 10.34375-10.34375v12.6875c0 35.289062-28.710938 64-64 64s-64-28.710938-64-64 28.710938-64 64-64v-16c-44.113281 0-80 35.886719-80 80s35.886719 80 80 80zm0 0"/></svg>