<svg height="512pt" viewBox="0 0 512 512.001" width="512pt" xmlns="http://www.w3.org/2000/svg"><path d="m423.113281 239.625c50.339844-8.128906 88.886719-51.496094 88.886719-103.625 0-41.460938-34.535156-75-76-75h-15v45c0 8.269531-6.726562 15-15 15-8.269531 0-15-6.730469-15-15 0-58.449219-47.101562-106-105-106l-38.839844.03125 28.800782 26.113281c.058593.054688 5.957031 5.433594 12.007812 13.96875 11.621094 16.386719 11.972656 39.785157.855469 56.910157-16.734375 25.773437-18.621094 57.875-4.996094 83.976562h-155.855469l-60 90h-67.972656v30h31v150h30v61h90v-61h210v61h90v-61h30v-150h31v-30h-67.972656zm-109.125-126.269531c14.503907-22.339844 16.863281-50.4375 7.25-74.433594 23.640625 12.804687 39.761719 38.070313 39.761719 67.078125 0 24.8125 20.1875 45 45 45s45-20.1875 45-45v-12.441406c17.835938 6.238281 31 23.160156 31 42.441406 0 41.355469-34.09375 75-76 75h-22.917969c-30.355469 0-58.113281-16.648438-72.441406-43.445312-8.867187-16.589844-7.585937-37.359376 3.347656-54.199219zm-169.960937 97.644531h162.714844c20.414062 19 47.515624 30 76.339843 30h4.890625l20 30h-5.511718l-60 30h-172.917969l-60-30h-5.515625zm-83.027344 210v-30h45c19.554688 0 36.226562 12.539062 42.421875 30zm60 61h-30v-31h30zm300 0h-30v-31h30zm-57.417969-61c6.191407-17.460938 22.863281-30 42.417969-30h45v30zm87.417969-60h-45c-36.21875 0-66.523438 25.808594-73.492188 60h-153.015624c-6.96875-34.191406-37.273438-60-73.492188-60h-45v-60h41.460938l60 30h187.082031l60-30h41.457031zm0 0"/><path d="m211 361h90v30h-90zm0 0"/></svg>