<?xml version="1.0" encoding="iso-8859-1"?>
<!-- Generator: Adobe Illustrator 19.0.0, SVG Export Plug-In . SVG Version: 6.00 Build 0)  -->
<svg version="1.1" id="Capa_1" xmlns="http://www.w3.org/2000/svg" xmlns:xlink="http://www.w3.org/1999/xlink" x="0px" y="0px"
	 viewBox="0 0 511.999 511.999" style="enable-background:new 0 0 511.999 511.999;" xml:space="preserve">
<g>
	<g>
		<path d="M241.837,270.551l-0.246-0.245c-3.932-3.877-10.264-3.834-14.142,0.101c-3.877,3.933-3.832,10.264,0.101,14.142
			l0.084,0.085c0.002,0.002,0.045,0.045,0.046,0.047c1.949,1.964,4.506,2.943,7.065,2.943c2.547,0,5.098-0.971,7.055-2.912
			C245.72,280.822,245.725,274.472,241.837,270.551z"/>
	</g>
</g>
<g>
	<g>
		<path d="M264.843,310.319c-1.448-5.329-6.938-8.475-12.272-7.028c-5.329,1.448-8.475,6.943-7.027,12.272
			c6.575,24.196-0.34,50.225-18.047,67.931c-13.221,13.222-30.8,20.503-49.497,20.503s-36.275-7.282-49.497-20.502
			c-27.293-27.293-27.293-71.701,0-98.994c17.68-17.68,43.676-24.604,67.844-18.069c5.328,1.441,10.822-1.711,12.264-7.043
			c1.442-5.331-1.711-10.823-7.043-12.264c-31.062-8.398-64.478,0.503-87.208,23.233c-35.091,35.091-35.091,92.188,0,127.279
			c16.999,16.999,39.6,26.36,63.64,26.36s46.641-9.362,63.639-26.361C264.402,374.874,273.294,341.415,264.843,310.319z"/>
	</g>
</g>
<g>
	<g>
		<path d="M263.61,238.148c-0.007,0-0.014,0-0.021,0c-5.514,0-9.989,4.463-10,9.979v0.243c-0.011,5.524,4.457,10.01,9.98,10.021
			c0.007,0,0.014,0,0.021,0c5.513,0,9.988-4.464,10-9.979v-0.243C273.601,242.645,269.133,238.159,263.61,238.148z"/>
	</g>
</g>
<g>
	<g>
		<path d="M263.833,409.602h-0.244c-5.523,0-10,4.478-10,10c0,5.522,4.477,10,10,10h0.244c5.523,0,10-4.478,10-10
			C273.833,414.08,269.356,409.602,263.833,409.602z"/>
	</g>
</g>
<g>
	<g>
		<path d="M92.399,409.602c-0.007,0-0.014,0-0.021,0c-5.514,0-9.989,4.463-10,9.979v0.243c-0.011,5.524,4.457,10.01,9.98,10.021
			c0.007,0,0.014,0,0.021,0c5.514,0,9.989-4.464,10-9.979v-0.243C102.39,414.099,97.922,409.613,92.399,409.602z"/>
	</g>
</g>
<g>
	<g>
		<path d="M92.379,238.391h-0.244c-5.523,0-10,4.478-10,10c0,5.522,4.477,10,10,10h0.244c5.523,0,10-4.478,10-10
			C102.379,242.869,97.902,238.391,92.379,238.391z"/>
	</g>
</g>
<g>
	<g>
		<path d="M306.313,326.774c-3.894-3.917-10.226-3.935-14.142-0.04l-0.173,0.172c-3.917,3.894-3.935,10.226-0.041,14.142
			c1.954,1.966,4.522,2.949,7.091,2.949c2.55,0,5.1-0.969,7.051-2.909l0.173-0.172C310.189,337.022,310.207,330.69,306.313,326.774z
			"/>
	</g>
</g>
<g>
	<g>
		<path d="M185.247,448.182l-0.172-0.173c-3.894-3.917-10.226-3.936-14.142-0.04c-3.916,3.894-3.935,10.226-0.04,14.142l0.172,0.173
			c1.954,1.966,4.522,2.949,7.091,2.949c2.55,0,5.1-0.969,7.051-2.909C189.123,458.43,189.142,452.098,185.247,448.182z"/>
	</g>
</g>
<g>
	<g>
		<path d="M64.012,326.945c-3.894-3.917-10.226-3.936-14.142-0.04l-0.173,0.172c-3.917,3.894-3.935,10.226-0.041,14.142
			c1.954,1.966,4.522,2.949,7.091,2.949c2.55,0,5.101-0.968,7.051-2.909l0.173-0.172C67.888,337.193,67.906,330.861,64.012,326.945z
			"/>
	</g>
</g>
<g>
	<g>
		<path d="M185.075,205.882l-0.172-0.173c-3.894-3.917-10.226-3.936-14.142-0.04c-3.916,3.894-3.935,10.226-0.04,14.142l0.172,0.173
			c1.954,1.966,4.522,2.949,7.091,2.949c2.55,0,5.1-0.969,7.051-2.909C188.951,216.13,188.97,209.798,185.075,205.882z"/>
	</g>
</g>
<g>
	<g>
		<path d="M352.399,343.716l-8.698-7.25c0.013-0.834,0.02-1.654,0.02-2.467c0-0.813-0.007-1.633-0.02-2.467l8.698-7.25
			c2.556-2.13,3.884-5.39,3.546-8.7c-0.647-6.319-1.657-12.722-3.001-19.029c-0.694-3.261-2.969-5.961-6.064-7.2l-10.488-4.197
			c-0.489-1.589-1.003-3.172-1.54-4.744l6.023-9.568c1.775-2.822,2.029-6.341,0.676-9.387c-2.601-5.856-5.545-11.626-8.752-17.149
			c-1.671-2.878-4.664-4.736-7.984-4.957l-11.304-0.753c-0.948-1.344-1.918-2.677-2.905-3.992l2.77-10.956
			c0.817-3.231-0.028-6.655-2.255-9.134c-4.284-4.768-8.872-9.357-13.639-13.638c-2.478-2.227-5.903-3.069-9.133-2.256
			l-10.956,2.771c-1.314-0.986-2.646-1.955-3.992-2.904l-0.753-11.306c-0.221-3.319-2.08-6.312-4.957-7.983
			c-5.523-3.206-11.293-6.151-17.15-8.752c-3.046-1.352-6.565-1.1-9.386,0.676l-9.568,6.022c-1.574-0.537-3.157-1.051-4.744-1.54
			l-4.197-10.488c-1.239-3.095-3.94-5.37-7.201-6.064c-6.315-1.346-12.717-2.355-19.029-3.001c-3.311-0.342-6.57,0.991-8.699,3.546
			l-7.25,8.698c-1.666-0.027-3.27-0.027-4.936,0l-7.25-8.698c-2.13-2.555-5.386-3.88-8.699-3.546
			c-6.312,0.646-12.714,1.655-19.029,3.001c-3.262,0.694-5.962,2.968-7.201,6.064l-4.197,10.488
			c-1.587,0.489-3.171,1.003-4.744,1.54l-9.568-6.022c-2.821-1.776-6.34-2.029-9.386-0.676c-5.857,2.601-11.627,5.546-17.15,8.752
			c-2.877,1.67-4.736,4.664-4.957,7.983l-0.753,11.306c-1.346,0.949-2.678,1.918-3.992,2.904l-10.956-2.771
			c-3.229-0.813-6.654,0.028-9.133,2.256c-4.767,4.282-9.356,8.87-13.639,13.638c-2.226,2.479-3.072,5.904-2.255,9.134l2.77,10.956
			c-0.988,1.315-1.957,2.648-2.905,3.992l-11.304,0.753c-3.32,0.221-6.313,2.079-7.984,4.957
			c-3.206,5.523-6.151,11.293-8.752,17.149c-1.352,3.046-1.099,6.566,0.676,9.387l6.023,9.568c-0.537,1.572-1.051,3.155-1.54,4.744
			l-10.489,4.197c-3.095,1.239-5.369,3.939-6.064,7.2c-1.344,6.306-2.354,12.71-3.001,19.029c-0.338,3.309,0.99,6.57,3.546,8.7
			l8.698,7.25c-0.013,0.834-0.02,1.654-0.02,2.467c0,0.813,0.007,1.633,0.02,2.467l-8.698,7.25c-2.556,2.13-3.884,5.39-3.546,8.7
			c0.647,6.319,1.657,12.722,3.001,19.029c0.694,3.261,2.969,5.961,6.064,7.2l10.488,4.197c0.489,1.589,1.003,3.171,1.54,4.744
			l-6.023,9.568c-1.775,2.822-2.028,6.341-0.675,9.387c2.603,5.861,5.548,11.63,8.752,17.149c1.67,2.877,4.663,4.735,7.983,4.956
			l11.305,0.753c0.948,1.345,1.918,2.677,2.905,3.993l-2.77,10.956c-0.817,3.231,0.028,6.655,2.255,9.134
			c4.284,4.768,8.872,9.357,13.639,13.638c2.479,2.228,5.903,3.069,9.133,2.256l10.956-2.771c1.315,0.986,2.646,1.955,3.992,2.904
			l0.753,11.306c0.221,3.319,2.08,6.312,4.957,7.983c5.523,3.206,11.293,6.151,17.15,8.752c3.045,1.351,6.564,1.099,9.386-0.676
			l9.568-6.022c1.574,0.537,3.157,1.051,4.744,1.54l4.197,10.488c1.239,3.095,3.94,5.37,7.201,6.064
			c6.315,1.346,12.718,2.355,19.03,3.001c3.313,0.332,6.57-0.991,8.699-3.546l7.25-8.698c1.672,0.027,3.263,0.027,4.935,0
			l7.25,8.698c1.911,2.292,4.731,3.598,7.681,3.598c0.338,0,0.678-0.018,1.016-0.052c6.312-0.646,12.715-1.655,19.03-3.001
			c3.262-0.694,5.962-2.968,7.201-6.064l4.197-10.488c1.588-0.489,3.17-1.003,4.744-1.54l9.568,6.022
			c2.822,1.777,6.341,2.03,9.386,0.676c5.857-2.601,11.627-5.546,17.15-8.752c2.877-1.67,4.736-4.664,4.957-7.983l0.753-11.306
			c1.346-0.949,2.678-1.918,3.992-2.904l10.956,2.771c3.227,0.812,6.654-0.028,9.133-2.256c4.767-4.282,9.356-8.87,13.639-13.638
			c2.226-2.479,3.072-5.904,2.255-9.134l-2.77-10.956c0.988-1.316,1.957-2.648,2.905-3.993l11.305-0.753
			c3.319-0.221,6.312-2.079,7.983-4.956c3.204-5.518,6.148-11.288,8.752-17.149c1.353-3.046,1.1-6.566-0.675-9.387l-6.023-9.568
			c0.537-1.572,1.051-3.155,1.54-4.744l10.488-4.197c3.095-1.239,5.369-3.939,6.064-7.2c1.344-6.306,2.354-12.71,3.001-19.029
			C356.283,349.107,354.955,345.846,352.399,343.716z M323.724,333.997c0,2.08-0.051,4.234-0.155,6.586
			c-0.139,3.12,1.189,6.125,3.588,8.125l8.27,6.894c-0.296,2.163-0.638,4.331-1.025,6.495l-9.958,3.985
			c-2.904,1.162-5.097,3.617-5.926,6.633c-1.164,4.232-2.536,8.456-4.078,12.559c-1.101,2.927-0.769,6.201,0.897,8.847l5.718,9.085
			c-0.954,1.97-1.95,3.921-2.983,5.846l-10.737,0.716c-3.116,0.207-5.957,1.859-7.679,4.465c-2.411,3.648-5.018,7.231-7.748,10.648
			c-1.952,2.444-2.649,5.661-1.882,8.693l2.631,10.407c-1.524,1.588-3.084,3.148-4.672,4.672l-10.407-2.632
			c-3.034-0.764-6.251-0.07-8.694,1.884c-3.406,2.722-6.989,5.329-10.65,7.749c-2.605,1.723-4.255,4.562-4.463,7.677l-0.715,10.737
			c-1.926,1.033-3.878,2.029-5.847,2.983l-9.084-5.718c-2.646-1.666-5.92-1.997-8.846-0.897c-4.112,1.546-8.337,2.917-12.558,4.077
			c-3.017,0.829-5.472,3.023-6.635,5.927l-3.985,9.959c-2.164,0.387-4.333,0.729-6.495,1.025l-6.894-8.271
			c-1.905-2.285-4.722-3.598-7.681-3.598c-0.148,0-0.297,0.003-0.448,0.01c-4.733,0.211-8.439,0.211-13.171,0
			c-3.128-0.135-6.125,1.19-8.125,3.588l-6.894,8.271c-2.162-0.296-4.331-0.637-6.495-1.025l-3.985-9.959
			c-1.163-2.905-3.618-5.098-6.635-5.927c-4.221-1.16-8.446-2.531-12.558-4.077c-2.926-1.101-6.199-0.769-8.846,0.897l-9.084,5.718
			c-1.97-0.954-3.921-1.95-5.847-2.983l-0.715-10.738c-0.207-3.115-1.859-5.955-4.464-7.678c-3.657-2.417-7.24-5.024-10.648-7.747
			c-2.444-1.953-5.662-2.648-8.694-1.884l-10.407,2.632c-1.588-1.525-3.148-3.084-4.672-4.672l2.631-10.407
			c0.767-3.032,0.071-6.249-1.882-8.693c-2.73-3.417-5.337-7-7.748-10.648c-1.722-2.607-4.563-4.258-7.679-4.465l-10.737-0.716
			c-1.033-1.925-2.028-3.876-2.983-5.846l5.718-9.085c1.666-2.647,1.998-5.92,0.897-8.847c-1.543-4.104-2.915-8.329-4.077-12.558
			c-0.829-3.017-3.023-5.472-5.927-6.634l-9.959-3.985c-0.387-2.164-0.729-4.332-1.025-6.495l8.27-6.894
			c2.4-2,3.727-5.005,3.588-8.125c-0.104-2.352-0.155-4.506-0.155-6.586c0-2.08,0.051-4.234,0.155-6.586
			c0.139-3.12-1.189-6.125-3.588-8.125l-8.27-6.894c0.296-2.163,0.638-4.331,1.025-6.495l9.959-3.985
			c2.904-1.162,5.097-3.617,5.926-6.633c1.164-4.235,2.536-8.46,4.077-12.559c1.101-2.927,0.769-6.201-0.897-8.847l-5.718-9.085
			c0.955-1.969,1.951-3.921,2.984-5.847l10.737-0.715c3.116-0.207,5.957-1.859,7.679-4.465c2.411-3.648,5.018-7.231,7.748-10.648
			c1.952-2.444,2.649-5.661,1.882-8.693l-2.631-10.407c1.524-1.588,3.084-3.148,4.672-4.672l10.407,2.632
			c3.033,0.762,6.25,0.069,8.694-1.884c3.406-2.722,6.989-5.329,10.65-7.749c2.605-1.723,4.255-4.562,4.463-7.677l0.715-10.737
			c1.926-1.033,3.878-2.029,5.847-2.983l9.084,5.718c2.646,1.666,5.919,2,8.846,0.897c4.113-1.546,8.338-2.917,12.559-4.077
			c3.017-0.829,5.472-3.023,6.635-5.927l3.985-9.959c2.164-0.387,4.333-0.729,6.495-1.025l6.894,8.271
			c2,2.4,4.997,3.732,8.129,3.588c4.683-0.211,8.48-0.211,13.163,0c3.116,0.134,6.129-1.188,8.129-3.588l6.894-8.271
			c2.162,0.296,4.331,0.637,6.495,1.025l3.985,9.959c1.163,2.905,3.618,5.098,6.635,5.927c4.221,1.16,8.447,2.531,12.559,4.077
			c2.928,1.102,6.2,0.769,8.846-0.897l9.084-5.718c1.97,0.954,3.922,1.95,5.847,2.983l0.715,10.737
			c0.208,3.115,1.858,5.954,4.463,7.677c3.661,2.42,7.244,5.027,10.65,7.749c2.444,1.953,5.663,2.648,8.694,1.884l10.407-2.632
			c1.588,1.525,3.148,3.084,4.672,4.672l-2.631,10.407c-0.767,3.032-0.071,6.249,1.882,8.693c2.73,3.417,5.337,7,7.748,10.648
			c1.722,2.607,4.562,4.258,7.679,4.465l10.737,0.715c1.033,1.926,2.029,3.878,2.984,5.847l-5.718,9.085
			c-1.666,2.647-1.998,5.92-0.897,8.847c1.543,4.103,2.914,8.328,4.078,12.559c0.829,3.016,3.022,5.471,5.926,6.633l9.958,3.985
			c0.387,2.164,0.729,4.332,1.025,6.495l-8.27,6.894c-2.4,2-3.727,5.005-3.588,8.125
			C323.673,329.763,323.724,331.917,323.724,333.997z"/>
	</g>
</g>
<g>
	<g>
		<path d="M436.184,75.813C425.985,65.614,412.423,59.997,398,59.997c-14.423,0-27.984,5.617-38.184,15.816
			c-8.886,8.886-14.42,20.661-15.583,33.157c-0.511,5.499,3.532,10.371,9.031,10.883c5.496,0.511,10.371-3.531,10.883-9.031
			c0.731-7.86,4.215-15.271,9.811-20.866c6.422-6.422,14.96-9.959,24.042-9.959c9.082,0,17.621,3.537,24.042,9.959
			c6.421,6.422,9.958,14.959,9.958,24.041c0,9.082-3.536,17.619-9.958,24.041c-5.557,5.558-12.915,9.037-20.718,9.797
			c-5.496,0.536-9.518,5.427-8.982,10.923c0.503,5.168,4.855,9.031,9.941,9.031c0.324,0,0.652-0.016,0.982-0.047
			c12.402-1.209,24.094-6.736,32.919-15.561c10.199-10.2,15.816-23.76,15.816-38.184S446.383,86.012,436.184,75.813z"/>
	</g>
</g>
<g>
	<g>
		<path d="M374.146,138.221l-0.187-0.184c-3.906-3.904-10.238-3.904-14.143,0c-3.905,3.906-3.905,10.238,0,14.143l0.097,0.097
			c0.13,0.131,0.13,0.131,0.309,0.303l0.081,0.077c1.939,1.858,4.431,2.782,6.92,2.782c2.629,0,5.255-1.031,7.219-3.078
			C378.265,148.374,378.132,142.044,374.146,138.221z"/>
	</g>
</g>
<g>
	<g>
		<path d="M511.672,105.338c-0.242-3.204-2.01-6.096-4.751-7.773l-7.772-4.757c-0.779-3.728-1.765-7.418-2.951-11.039l4.366-8.029
			c1.534-2.822,1.62-6.209,0.229-9.105c-2.483-5.17-5.399-10.212-8.669-14.983c-1.813-2.647-4.786-4.263-7.993-4.345l-9.11-0.232
			c-1.28-1.429-2.595-2.82-3.936-4.161c-1.342-1.342-2.733-2.657-4.16-3.935l-0.233-9.108c-0.082-3.208-1.698-6.182-4.345-7.995
			c-4.772-3.27-9.813-6.186-14.982-8.668c-2.896-1.392-6.284-1.305-9.105,0.229l-8.03,4.366c-3.62-1.185-7.31-2.172-11.039-2.951
			l-4.756-7.772c-1.678-2.741-4.57-4.509-7.775-4.752c-5.747-0.436-11.574-0.436-17.321,0c-3.205,0.243-6.097,2.011-7.775,4.752
			l-4.756,7.772c-3.728,0.779-7.419,1.765-11.039,2.951l-8.03-4.366c-2.821-1.534-6.209-1.621-9.105-0.229
			c-5.169,2.482-10.21,5.398-14.982,8.668c-2.647,1.813-4.263,4.787-4.345,7.995l-0.233,9.108c-1.428,1.279-2.818,2.594-4.161,3.936
			c-1.34,1.341-2.656,2.731-3.935,4.16l-9.11,0.232c-3.207,0.082-6.18,1.699-7.993,4.345c-3.27,4.771-6.186,9.812-8.669,14.983
			c-1.391,2.895-1.306,6.283,0.229,9.105l4.366,8.029c-1.186,3.621-2.172,7.31-2.951,11.039l-7.772,4.757
			c-2.74,1.676-4.508,4.569-4.751,7.773c-0.436,5.747-0.436,11.575,0,17.322c0.242,3.204,2.01,6.096,4.751,7.773l7.772,4.757
			c0.779,3.728,1.766,7.419,2.951,11.039l-4.366,8.029c-1.534,2.822-1.62,6.209-0.229,9.105c2.483,5.17,5.399,10.212,8.669,14.983
			c1.813,2.647,4.786,4.263,7.993,4.345l9.11,0.232c1.28,1.429,2.595,2.82,3.936,4.161c1.342,1.342,2.733,2.657,4.16,3.935
			l0.233,9.108c0.081,3.208,1.698,6.181,4.344,7.994c4.771,3.27,9.812,6.186,14.983,8.669c2.896,1.392,6.283,1.306,9.105-0.229
			l8.03-4.366c3.621,1.185,7.31,2.172,11.039,2.951l4.756,7.772c1.678,2.741,4.57,4.509,7.775,4.752
			c2.874,0.218,5.767,0.326,8.661,0.326c2.894,0,5.788-0.109,8.661-0.326c3.205-0.243,6.097-2.011,7.775-4.752l4.756-7.772
			c3.728-0.779,7.418-1.765,11.039-2.951l8.03,4.366c2.821,1.535,6.209,1.621,9.105,0.229c5.169-2.482,10.21-5.398,14.982-8.668
			c2.647-1.813,4.263-4.787,4.345-7.995l0.233-9.108c1.427-1.279,2.818-2.593,4.16-3.935c0.001-0.001,0.001-0.001,0.001-0.001
			c1.34-1.341,2.656-2.731,3.935-4.16l9.11-0.232c3.207-0.082,6.18-1.699,7.993-4.345c3.267-4.768,6.184-9.809,8.668-14.982
			c1.391-2.895,1.306-6.284-0.229-9.106l-4.366-8.029c1.186-3.621,2.172-7.31,2.951-11.039l7.772-4.757
			c2.74-1.676,4.508-4.569,4.751-7.773C512.108,116.913,512.108,111.085,511.672,105.338z M491.977,116.131l-7.064,4.323
			c-2.487,1.522-4.186,4.054-4.652,6.933c-0.892,5.51-2.346,10.951-4.323,16.174c-1.031,2.722-0.824,5.759,0.567,8.317l3.965,7.291
			c-0.679,1.235-1.386,2.457-2.121,3.663l-8.281,0.212c-2.908,0.075-5.639,1.412-7.482,3.663c-1.781,2.174-3.679,4.272-5.64,6.234
			c-1.967,1.967-4.065,3.865-6.235,5.64c-2.252,1.842-3.59,4.575-3.664,7.484l-0.212,8.28c-1.206,0.735-2.428,1.442-3.663,2.121
			l-7.292-3.965c-2.557-1.391-5.593-1.596-8.316-0.567c-5.223,1.976-10.665,3.43-16.175,4.323c-2.878,0.465-5.41,2.164-6.932,4.651
			l-4.322,7.064c-1.422,0.031-2.846,0.031-4.268,0l-4.322-7.064c-1.522-2.487-4.054-4.185-6.932-4.651
			c-5.51-0.892-10.952-2.346-16.175-4.323c-2.723-1.03-5.759-0.825-8.316,0.567l-7.292,3.965c-1.235-0.678-2.457-1.386-3.663-2.121
			l-0.212-8.28c-0.075-2.909-1.412-5.641-3.664-7.484c-2.17-1.776-4.268-3.674-6.234-5.64c-1.962-1.961-3.86-4.058-5.641-6.234
			c-1.843-2.251-4.574-3.588-7.482-3.663l-8.281-0.212c-0.736-1.206-1.443-2.428-2.121-3.663l3.965-7.291
			c1.39-2.557,1.598-5.594,0.567-8.317c-1.977-5.222-3.431-10.664-4.323-16.175c-0.466-2.878-2.165-5.411-4.652-6.932l-7.064-4.323
			c-0.032-1.421-0.032-2.844,0-4.266l7.064-4.323c2.487-1.522,4.186-4.054,4.652-6.933c0.892-5.51,2.346-10.951,4.323-16.174
			c1.031-2.722,0.824-5.759-0.567-8.317l-3.965-7.291c0.678-1.235,1.386-2.457,2.121-3.663l8.281-0.212
			c2.908-0.075,5.639-1.412,7.482-3.663c1.782-2.175,3.68-4.273,5.64-6.233c1.967-1.967,4.065-3.866,6.235-5.641
			c2.252-1.842,3.59-4.575,3.664-7.484l0.212-8.28c1.206-0.735,2.428-1.442,3.663-2.121l7.292,3.965
			c2.557,1.39,5.594,1.596,8.317,0.567c5.221-1.976,10.663-3.43,16.174-4.323c2.878-0.465,5.41-2.164,6.932-4.651l4.322-7.064
			c1.422-0.031,2.846-0.031,4.268,0l4.322,7.064c1.522,2.487,4.054,4.185,6.932,4.651c5.51,0.892,10.952,2.346,16.174,4.323
			c2.725,1.03,5.759,0.824,8.317-0.567l7.292-3.965c1.235,0.679,2.456,1.386,3.663,2.121l0.212,8.28
			c0.075,2.909,1.412,5.641,3.664,7.484c2.17,1.776,4.268,3.674,6.234,5.64c1.962,1.961,3.86,4.058,5.641,6.234
			c1.843,2.251,4.574,3.588,7.482,3.663l8.281,0.212c0.736,1.206,1.443,2.428,2.121,3.663l-3.965,7.291
			c-1.39,2.557-1.598,5.594-0.567,8.317c1.977,5.223,3.431,10.664,4.323,16.174c0.466,2.879,2.165,5.412,4.652,6.933l7.064,4.323
			C492.009,113.287,492.009,114.709,491.977,116.131z"/>
	</g>
</g>
<g>
</g>
<g>
</g>
<g>
</g>
<g>
</g>
<g>
</g>
<g>
</g>
<g>
</g>
<g>
</g>
<g>
</g>
<g>
</g>
<g>
</g>
<g>
</g>
<g>
</g>
<g>
</g>
<g>
</g>
</svg>
