<svg height="512pt" viewBox="-51 0 512 512" width="512pt" xmlns="http://www.w3.org/2000/svg"><path d="m338.011719 0h-266.023438c-39.695312 0-71.988281 32.292969-71.988281 71.988281v368.023438c0 39.695312 32.292969 71.988281 71.988281 71.988281h266.023438c39.695312 0 71.988281-32.292969 71.988281-71.988281v-368.023438c0-39.695312-32.292969-71.988281-71.988281-71.988281zm41.988281 440.011719c0 23.152343-18.835938 41.988281-41.988281 41.988281h-266.023438c-23.152343 0-41.988281-18.835938-41.988281-41.988281v-368.023438c0-23.152343 18.835938-41.988281 41.988281-41.988281h266.023438c23.152343 0 41.988281 18.835938 41.988281 41.988281zm0 0"/><path d="m329.789062 50.222656h-249.578124c-16.691407 0-30.265626 13.578125-30.265626 30.265625v40.347657c0 10.753906 8.746094 19.5 19.496094 19.5h271.117188c10.75 0 19.496094-8.746094 19.496094-19.5v-40.347657c0-16.6875-13.574219-30.265625-30.265626-30.265625zm.265626 60.113282h-250.109376v-29.847657c0-.144531.117188-.265625.265626-.265625h249.578124c.148438 0 .265626.121094.265626.265625zm0 0"/><path d="m219.96875 267.777344h-29.9375c-15.792969 0-28.640625 12.851562-28.640625 28.644531v29.933594c0 15.792969 12.847656 28.640625 28.640625 28.640625h29.9375c15.792969 0 28.640625-12.847656 28.640625-28.640625v-29.933594c0-15.792969-12.847656-28.644531-28.640625-28.644531zm-1.359375 57.21875h-27.21875v-27.214844h27.21875zm0 0"/><path d="m108.519531 267.777344h-29.933593c-15.792969 0-28.640626 12.851562-28.640626 28.644531v29.933594c0 15.792969 12.847657 28.640625 28.640626 28.640625h29.933593c15.792969 0 28.644531-12.847656 28.644531-28.640625v-29.933594c0-15.792969-12.851562-28.644531-28.644531-28.644531zm-1.355469 57.21875h-27.21875v-27.214844h27.21875zm0 0"/><path d="m331.414062 267.777344h-29.933593c-15.792969 0-28.644531 12.851562-28.644531 28.644531v29.933594c0 15.792969 12.847656 28.640625 28.644531 28.640625h29.933593c15.792969 0 28.640626-12.847656 28.640626-28.640625v-29.933594c0-15.792969-12.847657-28.644531-28.640626-28.644531zm-1.359374 57.21875h-27.21875v-27.214844h27.21875zm0 0"/><path d="m219.96875 374.777344h-29.9375c-15.792969 0-28.640625 12.851562-28.640625 28.644531v29.933594c0 15.792969 12.847656 28.640625 28.640625 28.640625h29.9375c15.792969 0 28.640625-12.847656 28.640625-28.640625v-29.933594c0-15.792969-12.847656-28.644531-28.640625-28.644531zm-1.359375 57.21875h-27.21875v-27.214844h27.21875zm0 0"/><path d="m108.519531 374.777344h-29.933593c-15.792969 0-28.640626 12.851562-28.640626 28.644531v29.933594c0 15.792969 12.847657 28.640625 28.640626 28.640625h29.933593c15.792969 0 28.644531-12.847656 28.644531-28.640625v-29.933594c0-15.792969-12.851562-28.644531-28.644531-28.644531zm-1.355469 57.21875h-27.21875v-27.214844h27.21875zm0 0"/><path d="m331.414062 374.777344h-29.933593c-15.792969 0-28.644531 12.851562-28.644531 28.644531v29.933594c0 15.792969 12.847656 28.640625 28.644531 28.640625h29.933593c15.792969 0 28.640626-12.847656 28.640626-28.640625v-29.933594c0-15.792969-12.847657-28.644531-28.640626-28.644531zm-1.359374 57.21875h-27.21875v-27.214844h27.21875zm0 0"/><path d="m219.96875 160.777344h-29.9375c-15.792969 0-28.640625 12.851562-28.640625 28.644531v29.933594c0 15.792969 12.847656 28.640625 28.640625 28.640625h29.9375c15.792969 0 28.640625-12.847656 28.640625-28.640625v-29.933594c0-15.792969-12.847656-28.644531-28.640625-28.644531zm-1.359375 57.21875h-27.21875v-27.214844h27.21875zm0 0"/><path d="m108.519531 160.777344h-29.933593c-15.792969 0-28.640626 12.851562-28.640626 28.644531v29.933594c0 15.792969 12.847657 28.640625 28.640626 28.640625h29.933593c15.792969 0 28.644531-12.847656 28.644531-28.640625v-29.933594c0-15.792969-12.851562-28.644531-28.644531-28.644531zm-1.355469 57.21875h-27.21875v-27.214844h27.21875zm0 0"/><path d="m331.414062 160.777344h-29.933593c-15.792969 0-28.644531 12.851562-28.644531 28.644531v29.933594c0 15.792969 12.847656 28.640625 28.644531 28.640625h29.933593c15.792969 0 28.640626-12.847656 28.640626-28.640625v-29.933594c0-15.792969-12.847657-28.644531-28.640626-28.644531zm-1.359374 57.21875h-27.21875v-27.214844h27.21875zm0 0"/></svg>