<svg height="512pt" viewBox="0 0 512 512" width="512pt" xmlns="http://www.w3.org/2000/svg"><path d="m255.941406 0-255.941406 31.859375v480.140625h29.992188v-240.945312h111.703124l-14.996093 29.992187h-65.714844v29.992187h29.996094v119.976563h29.992187v60.984375h89.980469v-60.984375h89.980469v60.984375h89.976562v-60.984375h29.996094v-119.976563h29.992188v-29.992187h-65.714844l-14.996094-29.992187h111.703125v240.945312h29.992187c0-7.234375 0-476.984375 0-480.140625zm-225.949218 58.351562 225.949218-28.128906 225.949219 28.128906v122.722657h-451.898437zm150.96875 423.65625h-29.996094v-30.992187h29.996094zm179.957031 0h-29.992188v-30.992187h29.992188zm29.992187-120.972656h-29.992187v29.992188h29.992187v29.992187h-269.9375v-29.992187h29.992188v-29.992188h-29.992188v-29.996094h11.457032l59.984374 29.996094h127.054688l59.984375-29.996094h11.457031zm-35.117187-51.699218-43.40625 21.703124h-112.890625l-43.40625-21.703124 19.140625-38.28125h161.421875zm126.097656-68.273438c-16.90625 0-444.816406 0-451.898437 0v-29.996094h451.898437zm0 0"/><path d="m120.972656 151.082031h119.972656v-87.753906l-119.972656 14.996094zm29.992188-46.28125 59.988281-7.496093v23.785156h-59.988281zm0 0"/><path d="m270.941406 151.082031h119.96875v-72.757812l-119.972656-14.996094zm89.976563-46.28125v16.289063h-59.984375v-23.785156zm0 0"/></svg>