<svg height="512pt" viewBox="-31 0 512 512" width="512pt" xmlns="http://www.w3.org/2000/svg"><path d="m351.214844 392 68.785156-68.785156v-51.214844h30v-30h-36.972656l-100-150h16.972656v-30h-30v-62h-150v62h-30v30h16.972656l-100 150h-36.972656v30h30v51.214844l68.785156 68.785156h81.214844v15c0 57.898438 47.101562 105 105 105h165v-90h-165c-8.269531 0-15-6.730469-15-15v-15zm25.757812-150h-51.160156l-50-150h1.160156zm-166.972656-150v150h-54.1875l50-150zm30 0h4.1875l50 150h-54.1875zm-60-62h90v32h-90zm-6.972656 62h1.160156l-50 150h-51.160156zm216.972656 180v30h-330v-30zm-308.785156 60h287.570312l-30 30h-227.570312zm203.785156 120h135v30h-135c-41.355469 0-75-33.644531-75-75v-15h30v15c0 24.8125 20.1875 45 45 45zm0 0"/></svg>