<svg height="512pt" viewBox="0 0 512 512" width="512pt" xmlns="http://www.w3.org/2000/svg"><path d="m361 422v-90h151v-120h-271v-31.507812c34.191406-6.96875 60-37.273438 60-73.492188v-107h-150v107c0 36.21875 25.808594 66.523438 60 73.492188v31.507812h-76.832031l-134.167969 33.265625v53.46875l134.167969 33.265625h52.5625l30 60h54.269531v30h30v15c0 41.355469 33.644531 75 75 75s75-33.644531 75-75v-30c0-7.992188 7.476562-15 16-15h45v-30h-45c-11.953125 0-23.347656 4.597656-32.078125 12.945312-8.976563 8.582032-13.921875 19.964844-13.921875 32.054688v30c0 24.8125-20.1875 45-45 45s-45-20.1875-45-45v-15zm-90-392v32h-90v-32zm-90 77v-15h90v15c0 24.8125-20.1875 45-45 45s-45-20.1875-45-45zm150 285h-30v-60h30zm-180-150h240v60h-240zm331 60h-61v-60h61zm-452-33.265625 91-22.5625v51.652344l-91-22.558594zm205.269531 93.265625-15-30h50.730469v30zm0 0"/></svg>