<svg height="496pt" viewBox="-4 0 496 496" width="496pt" xmlns="http://www.w3.org/2000/svg"><path d="m432 224.007812v-24.007812c0-17.992188-6.769531-34.910156-18.710938-48h14.710938c15.441406 0 28-12.558594 28-28 0-7.503906-2.902344-14.535156-8.183594-19.816406s-12.3125-8.183594-19.816406-8.183594h-29.367188l-8.34375-49.257812c-4.59375-27.085938-28.128906-46.742188-55.96875-46.742188h-188.640624c-27.839844 0-51.375 19.65625-55.96875 46.742188l-8.335938 49.257812h-29.375c-15.441406 0-28 12.558594-28 28 0 7.503906 2.902344 14.535156 8.183594 19.816406s12.3125 8.183594 19.816406 8.183594h14.710938c-11.941407 13.105469-18.710938 30.015625-18.710938 48v24.007812c-8.832031.039063-16 7.191407-16 15.992188v16c0 8.824219 7.207031 16 16.078125 16h7.921875v24c0 13.230469 10.769531 24 24 24h48c13.230469 0 24-10.769531 24-24v-24h24c0 8.824219 7.175781 16 16 16h96c8.824219 0 16-7.175781 16-16h24v24c0 13.230469 10.769531 24 24 24h48c13.230469 0 24-10.769531 24-24v-24h7.921875c8.863281 0 16.078125-7.175781 16.078125-16v-16c0-8.800781-7.167969-15.953125-16-15.992188zm-264.59375-.007812-7.183594-14.238281c-5.375-10.953125-16.335937-17.761719-28.621094-17.761719h-66.953124c1.726562-11.886719 7.207031-22.871094 15.855468-31.425781 13.921875 4.449219 73.902344 22.121093 151.375 23.347656l.25-16c-60.121094-.945313-110.234375-12.410156-134.234375-18.960937 6.914063-3.03125 14.34375-4.839844 22.105469-4.960938h239.320312c8.054688.039062 15.703126 1.855469 22.800782 4.96875-23.96875 6.550781-74.03125 18.007812-134.25 18.953125l.25 16c77.472656-1.226563 137.445312-18.898437 151.375-23.347656 8.640625 8.539062 14.128906 19.53125 15.855468 31.417969h-62.070312c-12.289062 0-23.257812 6.808593-28.601562 17.703124l-7.144532 14.304688zm-35.804688-16c6.125 0 11.589844 3.367188 14.292969 8.878906l3.59375 7.121094h-85.488281v-16zm-2.128906-80 12.40625-73.246094c.679688-3.851562 4.210938-6.753906 8.199219-6.753906h179.203125c4.09375 0 7.542969 2.808594 8.191406 6.695312l12.414063 73.304688zm209.550782 88.800781c2.664062-5.433593 8.128906-8.800781 14.257812-8.800781h62.71875v16h-80.574219zm88.976562-104.800781c3.230469 0 6.246094 1.238281 8.503906 3.496094 2.257813 2.257812 3.496094 5.273437 3.496094 8.503906 0 6.617188-5.382812 12-12 12h-22.601562l-4.0625-24zm-322.511719-62.585938c3.28125-19.359374 20.183594-33.414062 40.191407-33.414062h188.640624c20.007813 0 36.910157 14.054688 40.191407 33.40625l14.367187 84.839844c-7.101562-3.140625-14.71875-5.109375-22.695312-5.871094l-12.925782-76.335938c-1.945312-11.605468-12.027343-20.039062-23.976562-20.039062h-179.203125c-11.832031 0-21.902344 8.390625-23.964844 20.023438l-12.945312 76.402343c-7.703125.796875-15.113281 2.773438-22.054688 5.847657zm-61.992187 83.089844c-2.257813-2.257812-3.496094-5.273437-3.496094-8.503906 0-6.617188 5.382812-12 12-12h26.664062l-4.0625 24h-22.601562c-3.230469 0-6.246094-1.238281-8.503906-3.496094zm92.503906 163.496094c0 4.40625-3.59375 8-8 8h-48c-4.40625 0-8-3.59375-8-8v-24h64zm-88-40 .078125-16h127.921875v16zm144 16v-32h96v32zm216 24c0 4.40625-3.59375 8-8 8h-48c-4.40625 0-8-3.59375-8-8v-24h64zm23.921875-40h-127.921875v-16h128zm0 0"/><path d="m240 304c-42.785156 0-80.742188 28.6875-92.328125 69.785156-2.441406 8.292969-3.671875 17.109375-3.671875 26.214844 0 2.96875.167969 5.839844.425781 8.664062 1.03125 12.296876 4.421875 24.070313 10.046875 34.976563 16.519532 32.296875 49.289063 52.359375 85.527344 52.359375s69.007812-20.0625 85.457031-52.230469c1.382813-2.585937 2.511719-5.25 3.742188-8.175781 4.511719-11.378906 6.800781-23.355469 6.800781-35.59375 0-52.9375-43.0625-96-96-96zm61.664062 112 9.128907 16h-144.058594c-2.269531-5.144531-4-10.480469-5.09375-16h54.359375v-16h-56c0-5.535156.726562-10.839844 1.800781-16h98.359375c12.65625 0 24.503906 6.039062 31.992188 16h-60.152344v16zm-61.664062 64c-25.519531 0-48.878906-12.039062-63.847656-32h127.703125c-14.960938 19.953125-38.328125 32-63.855469 32zm78.777344-66.296875-9.992188-17.519531c-9.953125-17.382813-28.578125-28.183594-48.625-28.183594h-93.40625c12.527344-28.703125 41.238282-48 73.246094-48 44.113281 0 80 35.886719 80 80 0 4.625-.449219 9.199219-1.222656 13.703125zm0 0"/><path d="m121.976562 353.335938-11.3125-11.3125-14.664062 14.664062v-20.6875h-16v20.6875l-14.664062-14.664062-11.3125 11.3125 14.664062 14.664062h-20.6875v16h20.6875l-14.664062 14.664062 11.3125 11.3125 14.664062-14.664062v20.6875h16v-20.6875l14.664062 14.664062 11.3125-11.3125-14.664062-14.664062h20.6875v-16h-20.6875zm-17.976562 16.105468v13.125l-9.441406 9.433594h-13.117188l-9.441406-9.441406v-13.117188l9.441406-9.441406h13.125zm0 0"/><path d="m417.976562 433.335938-11.3125-11.3125-14.664062 14.664062v-20.6875h-16v20.6875l-14.664062-14.664062-11.3125 11.3125 14.664062 14.664062h-20.6875v16h20.6875l-14.664062 14.664062 11.3125 11.3125 14.664062-14.664062v20.6875h16v-20.6875l14.664062 14.664062 11.3125-11.3125-14.664062-14.664062h20.6875v-16h-20.6875zm-17.976562 16.105468v13.125l-9.441406 9.433594h-13.117188l-9.441406-9.441406v-13.117188l9.441406-9.441406h13.125zm0 0"/><path d="m24 198.558594v-13.117188l10.375-10.378906-17.039062-17.039062-11.3125 11.3125 14.664062 14.664062h-20.6875v16h20.6875l-14.664062 14.664062 11.3125 11.3125 17.039062-17.039062zm0 0"/><path d="m488 192h-20.6875l14.664062-14.664062-11.3125-11.3125-17.039062 17.039062 10.375 10.378906v13.117188l-10.375 10.378906 17.039062 17.039062 11.3125-11.3125-14.664062-14.664062h20.6875zm0 0"/></svg>
