<svg height="512pt" viewBox="0 0 512 512" width="512pt" xmlns="http://www.w3.org/2000/svg"><path d="m496.953125 427.308594h-383.886719c-15.648437 0-28.382812-12.734375-28.382812-28.382813v-383.925781c0-8.285156-6.714844-15-15-15s-15 6.714844-15 15v33.539062h-39.683594c-8.285156 0-15 6.71875-15 15 0 8.285157 6.714844 15 15 15h39.683594v74.441407h-39.683594c-8.285156 0-15 6.714843-15 15 0 8.285156 6.714844 15 15 15h39.683594v79.214843h-39.683594c-8.285156 0-15 6.714844-15 15 0 8.285157 6.714844 15 15 15h39.683594v74.441407h-39.683594c-8.285156 0-15 6.714843-15 15 0 8.285156 6.714844 15 15 15h39.683594v2.289062c0 32.191407 26.191406 58.386719 58.382812 58.386719h2.285156v39.6875c0 8.285156 6.714844 15 15 15 8.285157 0 15-6.714844 15-15v-39.6875h74.429688v39.6875c0 8.285156 6.71875 15 15 15 8.285156 0 15-6.714844 15-15v-39.6875h79.207031v39.6875c0 8.285156 6.714844 15 15 15 8.28125 0 15-6.714844 15-15v-39.6875h74.429688v39.6875c0 8.285156 6.714843 15 15 15 8.285156 0 15-6.714844 15-15v-39.6875h33.535156c8.285156 0 15-6.71875 15-15 0-8.285156-6.714844-15.003906-15-15.003906zm0 0"/><path d="m156.316406 400.433594c23.164063 0 42.011719-18.847656 42.011719-42.015625 0-6.101563-1.308594-11.90625-3.660156-17.144531l34.496093-34.5c5.238282 2.351562 11.039063 3.660156 17.140626 3.660156 8.476562 0 16.371093-2.523438 22.976562-6.855469l60.710938 43.96875c-.929688 3.46875-1.425782 7.113281-1.425782 10.871094 0 23.167969 18.84375 42.015625 42.011719 42.015625 23.164063 0 42.011719-18.847656 42.011719-42.015625 0-6.101563-1.308594-11.90625-3.660156-17.144531l68.703124-68.707032-1.148437 8.136719c-1.160156 8.203125 4.550781 15.792969 12.753906 16.949219.714844.101562 1.417969.148437 2.117188.148437 7.355469 0 13.777343-5.414062 14.832031-12.902343l5.558594-39.363282c1.109375-7.863281-1.472656-15.59375-7.089844-21.210937-5.613281-5.613281-13.347656-8.199219-21.207031-7.085938l-39.359375 5.554688c-8.203125 1.160156-13.914063 8.746093-12.753906 16.949219 1.15625 8.203124 8.742187 13.917968 16.945312 12.757812l8.140625-1.148438-68.703125 68.710938c-5.238281-2.351562-11.039062-3.660156-17.140625-3.660156-8.476563 0-16.371094 2.523437-22.976563 6.855468l-60.710937-43.96875c.929687-3.46875 1.425781-7.113281 1.425781-10.871093 0-23.167969-18.84375-42.015625-42.011718-42.015625-23.164063 0-42.011719 18.847656-42.011719 42.015625 0 6.101562 1.308593 11.90625 3.660156 17.144531l-34.496094 34.5c-5.238281-2.351562-11.039062-3.660156-17.140625-3.660156-23.167968 0-42.011718 18.847656-42.011718 42.015625s18.84375 42.015625 42.011718 42.015625zm214.261719-54.03125c6.625 0 12.015625 5.390625 12.015625 12.015625 0 6.628906-5.390625 12.015625-12.015625 12.015625s-12.011719-5.386719-12.011719-12.015625c0-6.625 5.386719-12.015625 12.011719-12.015625zm-124.269531-90c6.621094 0 12.011718 5.390625 12.011718 12.015625 0 6.628906-5.390624 12.015625-12.011718 12.015625-6.625 0-12.015625-5.386719-12.015625-12.015625 0-6.625 5.390625-12.015625 12.015625-12.015625zm-89.992188 90c6.621094 0 12.011719 5.390625 12.011719 12.015625 0 6.628906-5.390625 12.015625-12.011719 12.015625-6.625 0-12.015625-5.386719-12.015625-12.015625 0-6.625 5.390625-12.015625 12.015625-12.015625zm0 0"/></svg>