<?xml version="1.0" encoding="iso-8859-1"?>
<!-- Generator: Adobe Illustrator 19.0.0, SVG Export Plug-In . SVG Version: 6.00 Build 0)  -->
<svg version="1.1" id="Capa_1" xmlns="http://www.w3.org/2000/svg" xmlns:xlink="http://www.w3.org/1999/xlink" x="0px" y="0px"
	 viewBox="0 0 512 512" style="enable-background:new 0 0 512 512;" xml:space="preserve">
<g>
	<g>
		<path d="M210.975,249.114L173.685,134.05c-1.338-4.129-5.185-6.926-9.525-6.926s-8.187,2.797-9.525,6.926l-37.288,115.063
			c-0.988,3.048-0.458,6.384,1.427,8.976c1.884,2.591,4.894,4.124,8.099,4.124h22.98c-10.447,33.995-8.746,73.169,5.107,105.476
			c13.708,31.966,13.707,71.682,0,103.65c-2.179,5.082,0.174,10.969,5.257,13.148c1.287,0.553,2.624,0.814,3.941,0.814
			c3.884,0,7.58-2.274,9.208-6.07c15.794-36.836,15.794-82.599,0-119.433c-12.853-29.974-13.654-66.761-2.404-97.584h30.49
			c3.204,0,6.214-1.533,8.099-4.124C211.432,255.498,211.963,252.162,210.975,249.114z M140.643,242.187l23.518-72.57l23.518,72.57
			H140.643z"/>
	</g>
</g>
<g>
	<g>
		<path d="M394.654,249.113L357.365,134.05c-1.338-4.129-5.185-6.926-9.525-6.926s-8.187,2.797-9.525,6.926l-37.288,115.062
			c-0.988,3.048-0.458,6.384,1.427,8.976c1.884,2.591,4.894,4.124,8.099,4.124h22.98c-10.447,33.995-8.746,73.169,5.107,105.476
			c13.708,31.966,13.707,71.682,0,103.65c-2.179,5.082,0.174,10.969,5.257,13.148c1.287,0.553,2.624,0.814,3.941,0.814
			c3.884,0,7.58-2.274,9.208-6.07c15.794-36.836,15.794-82.599,0-119.433c-12.853-29.974-13.654-66.761-2.404-97.584h30.49
			c3.204,0,6.214-1.533,8.099-4.124C395.112,255.498,395.642,252.161,394.654,249.113z M347.952,242.187c-0.043,0-23.63,0-23.63,0
			l23.518-72.57l23.518,72.57H347.952z"/>
	</g>
</g>
<g>
	<g>
		<path d="M302.814,193.773L265.525,78.71c-1.338-4.129-5.185-6.926-9.525-6.926s-8.187,2.797-9.525,6.926l-37.288,115.062
			c-0.988,3.048-0.458,6.384,1.427,8.976c1.884,2.591,4.894,4.124,8.099,4.124h22.98c-10.447,33.995-8.746,73.168,5.107,105.475
			c13.707,31.966,13.707,71.683,0,103.651c-2.179,5.082,0.174,10.969,5.257,13.148c1.287,0.553,2.624,0.814,3.941,0.814
			c3.884,0,7.58-2.274,9.208-6.07c15.794-36.835,15.794-82.6,0-119.435c-12.853-29.972-13.654-66.759-2.404-97.582h30.49v-0.001
			c3.204,0,6.214-1.533,8.099-4.124S303.802,196.821,302.814,193.773z M232.482,186.848L256,114.278l23.518,72.57H232.482z"/>
	</g>
</g>
<g>
	<g>
		<path d="M510.812,179.32C460.343,85.18,362.706,26.7,256,26.7S51.657,85.18,1.188,179.319c-2.086,3.891-1.378,8.689,1.744,11.811
			l77.698,77.698c3.909,3.909,10.25,3.909,14.16,0c3.91-3.911,3.91-10.251,0-14.161l-72.365-72.365
			C70.341,98.486,159.162,46.725,256,46.725s185.658,51.76,233.574,135.576l-72.53,72.53c-3.91,3.911-3.91,10.251,0,14.161
			c1.956,1.955,4.517,2.933,7.08,2.933c2.562,0,5.126-0.978,7.08-2.932l77.862-77.862
			C512.189,188.009,512.898,183.211,510.812,179.32z"/>
	</g>
</g>
<g>
	<g>
		<path d="M126.172,286.048c-1.862-1.863-4.446-2.934-7.079-2.934c-2.643,0-5.217,1.071-7.079,2.934
			c-1.872,1.862-2.934,4.446-2.934,7.079s1.061,5.217,2.934,7.078c1.862,1.863,4.436,2.935,7.079,2.935
			c2.633,0,5.217-1.072,7.079-2.935c1.862-1.861,2.934-4.445,2.934-7.078S128.034,287.911,126.172,286.048z"/>
	</g>
</g>
<g>
	<g>
		<path d="M399.987,286.048c-1.862-1.863-4.436-2.934-7.079-2.934c-2.633,0-5.217,1.071-7.079,2.934
			c-1.862,1.862-2.934,4.446-2.934,7.079s1.071,5.217,2.934,7.078c1.862,1.863,4.446,2.935,7.079,2.935
			c2.642,0,5.217-1.072,7.079-2.935c1.872-1.861,2.934-4.445,2.934-7.078S401.86,287.91,399.987,286.048z"/>
	</g>
</g>
<g>
</g>
<g>
</g>
<g>
</g>
<g>
</g>
<g>
</g>
<g>
</g>
<g>
</g>
<g>
</g>
<g>
</g>
<g>
</g>
<g>
</g>
<g>
</g>
<g>
</g>
<g>
</g>
<g>
</g>
</svg>
