<svg height="512pt" viewBox="0 -5 512 512" width="512pt" xmlns="http://www.w3.org/2000/svg"><path d="m301 85.605469v120h-60v-30h-30v30h-60v-60h-78.488281l-72.511719 35.660156v138.679687l72.511719 35.660157h78.488281v-60h60v30h30v-30h60v150h211v-360zm120 30v300h-30v-300zm-300 210h-41.511719l-49.488281-24.339844v-101.320313l49.488281-24.339843h41.511719zm30-60v-30h60v30zm90 0v-30h60v30zm90-150h30v300h-30zm151 300h-31v-300h31zm0 0"/><path d="m185.394531 381.210938 34.390625 34.394531h-113.785156v30h113.785156l-34.390625 34.394531 21.210938 21.210938 70.609375-70.605469-70.609375-70.605469zm0 0"/><path d="m206.605469 120-34.390625-34.394531h113.785156v-30h-113.785156l34.390625-34.394531-21.210938-21.210938-70.609375 70.605469 70.609375 70.605469zm0 0"/><path d="m61 205.605469h30v30h-30zm0 0"/><path d="m61 265.605469h30v30h-30zm0 0"/></svg>