<svg height="511pt" viewBox="0 0 511.99784 511" width="511pt" xmlns="http://www.w3.org/2000/svg"><path d="m496.953125 427.804688h-383.886719c-15.648437 0-28.382812-12.730469-28.382812-28.386719v-383.917969c0-8.285156-6.714844-15-15-15-8.28125 0-15 6.714844-15 15v33.539062h-39.683594c-8.285156 0-15 6.714844-15 15 0 8.285157 6.714844 15 15 15h39.683594v74.4375h-39.683594c-8.285156 0-15 6.71875-15 15 0 8.285157 6.714844 15 15 15h39.683594v79.214844h-39.683594c-8.285156 0-15 6.714844-15 15s6.714844 15 15 15h39.683594v74.441406h-39.683594c-8.285156 0-15 6.714844-15 15 0 8.28125 6.714844 14.996094 15 14.996094h39.683594v2.289063c0 32.195312 26.191406 58.386719 58.382812 58.386719h2.285156v39.6875c0 8.285156 6.71875 15 15 15 8.285157 0 15-6.714844 15-15v-39.6875h74.433594v39.6875c0 8.285156 6.714844 15 14.996094 15 8.285156 0 15-6.714844 15-15v-39.6875h79.207031v39.6875c0 8.285156 6.714844 15 14.996094 15 8.285156 0 15-6.714844 15-15v-39.6875h74.433594v39.6875c0 8.285156 6.714843 15 15 15 8.28125 0 15-6.714844 15-15v-39.6875h33.53125c8.285156 0 15-6.714844 15-15 0-8.28125-6.714844-15-14.996094-15zm0 0"/><path d="m156.316406 301.515625c6.101563 0 11.902344-1.308594 17.140625-3.65625l34.496094 34.496094c-2.351563 5.238281-3.660156 11.042969-3.660156 17.144531 0 23.167969 18.847656 42.015625 42.011719 42.015625 23.167968 0 42.011718-18.847656 42.011718-42.015625 0-3.757812-.496094-7.402344-1.425781-10.871094l60.710937-43.96875c6.605469 4.332032 14.5 6.855469 22.976563 6.855469 6.101563 0 11.902344-1.308594 17.140625-3.65625l68.703125 68.710937-8.136719-1.148437c-8.207031-1.160156-15.792968 4.550781-16.949218 12.753906-1.160157 8.203125 4.550781 15.792969 12.753906 16.949219l42.9375 5.8125c6.589844 0 12.871094-2.582031 17.628906-7.34375 5.617188-5.613281 8.199219-13.347656 7.089844-21.207031l-5.558594-39.363281c-1.15625-8.203126-8.75-13.917969-16.949219-12.757813-8.203125 1.160156-13.914062 8.746094-12.753906 16.949219l1.148437 8.136718-68.703124-68.707031c2.351562-5.238281 3.660156-11.039062 3.660156-17.144531 0-23.164062-18.847656-42.015625-42.015625-42.015625-23.164063 0-42.011719 18.851563-42.011719 42.015625 0 3.761719.496094 7.40625 1.429688 10.875l-60.710938 43.964844c-6.605469-4.332032-14.503906-6.855469-22.976562-6.855469-6.101563 0-11.90625 1.308594-17.140626 3.660156l-34.496093-34.5c2.347656-5.238281 3.660156-11.039062 3.660156-17.144531 0-23.164062-18.847656-42.015625-42.015625-42.015625-23.164062 0-42.011719 18.851563-42.011719 42.015625.003907 23.167969 18.847657 42.015625 42.015625 42.015625zm214.261719-54.03125c6.625 0 12.015625 5.390625 12.015625 12.015625s-5.390625 12.015625-12.015625 12.015625c-6.621094 0-12.011719-5.390625-12.011719-12.015625s5.390625-12.015625 12.011719-12.015625zm-124.273437 90c6.625 0 12.015624 5.390625 12.015624 12.015625s-5.390624 12.015625-12.015624 12.015625c-6.621094 0-12.011719-5.390625-12.011719-12.015625s5.390625-12.015625 12.011719-12.015625zm-89.988282-90c6.621094 0 12.011719 5.390625 12.011719 12.015625s-5.390625 12.015625-12.011719 12.015625c-6.625 0-12.015625-5.390625-12.015625-12.015625s5.390625-12.015625 12.015625-12.015625zm0 0"/></svg>