<?xml version="1.0" encoding="iso-8859-1"?>
<!-- Generator: Adobe Illustrator 19.0.0, SVG Export Plug-In . SVG Version: 6.00 Build 0)  -->
<svg version="1.1" id="Capa_1" xmlns="http://www.w3.org/2000/svg" xmlns:xlink="http://www.w3.org/1999/xlink" x="0px" y="0px"
	 viewBox="0 0 512 512" style="enable-background:new 0 0 512 512;" xml:space="preserve">
<g>
	<g>
		<path d="M502,0H310c-5.523,0-10,4.478-10,10v65.707H181.85l-40.779-40.778C139.196,33.054,136.652,32,134,32H82.787
			C78.288,13.655,61.713,0,42,0C18.841,0,0,18.841,0,42s18.841,42,42,42c19.713,0,36.288-13.655,40.787-32h47.07l40.778,40.778
			c1.875,1.875,4.419,2.929,7.071,2.929H300v78.96H182.714c-5.523,0-10,4.478-10,10c0,5.522,4.477,10,10,10H300v122.666h-43.121
			c-5.523,0-10,4.478-10,10c0,5.522,4.477,10,10,10H300v78.813H177.708c-2.652,0-5.196,1.054-7.071,2.929l-40.778,40.778H82.754
			C78.203,441.581,61.661,428,42,428c-23.159,0-42,18.841-42,42s18.841,42,42,42c19.765,0,36.375-13.728,40.821-32.146H134
			c2.652,0,5.196-1.054,7.071-2.929l40.779-40.778H300V502c0,5.522,4.477,10,10,10h192c5.523,0,10-4.478,10-10V10
			C512,4.478,507.523,0,502,0z M42,64c-12.131,0-22-9.869-22-22s9.869-22,22-22s22,9.869,22,22S54.131,64,42,64z M42,492
			c-12.131,0-22-9.869-22-22c0-12.131,9.869-22,22-22s22,9.869,22,22C64,482.131,54.131,492,42,492z M320,95.707h67.063v78.96H320
			V95.707z M320,194.667h67.063v122.666H320V194.667z M320,337.333h67.063v78.813H320V337.333z M492,492H320v-55.854h67.063v1.229
			c0,5.522,4.477,10,10,10s10-4.478,10-10V74.625c0-5.522-4.477-10-10-10s-10,4.478-10,10v1.082H320V20h172V492z"/>
	</g>
</g>
<g>
	<g>
		<path d="M346.178,41l-0.162-0.001c-0.021,0-0.041,0-0.062,0c-5.494,0-9.965,4.438-9.999,9.939
			c-0.033,5.523,4.417,10.028,9.94,10.061L346.056,61c0.021,0,0.041,0,0.062,0c5.494,0,9.965-4.438,9.999-9.939
			C356.15,45.539,351.7,41.034,346.178,41z"/>
	</g>
</g>
<g>
	<g>
		<path d="M466.017,41l-0.162-0.001c-0.021,0-0.041,0-0.062,0c-5.494,0-9.965,4.438-9.999,9.939
			c-0.034,5.523,4.416,10.028,9.939,10.061L465.895,61c0.021,0,0.041,0,0.062,0c5.494,0,9.965-4.438,9.999-9.939
			C475.989,45.539,471.539,41.034,466.017,41z"/>
	</g>
</g>
<g>
	<g>
		<path d="M346.177,451l-0.162-0.001c-0.021,0-0.041,0-0.062,0c-5.494,0-9.965,4.438-9.999,9.939
			c-0.033,5.522,4.417,10.027,9.939,10.061l0.162,0.001c0.021,0,0.041,0,0.062,0c5.494,0,9.965-4.438,9.999-9.939
			C356.15,455.538,351.7,451.033,346.177,451z"/>
	</g>
</g>
<g>
	<g>
		<path d="M466.017,451l-0.162-0.001c-0.021,0-0.041,0-0.062,0c-5.494,0-9.965,4.438-9.999,9.939
			c-0.034,5.523,4.416,10.028,9.939,10.061l0.162,0.001c0.021,0,0.041,0,0.062,0c5.494,0,9.965-4.438,9.999-9.939
			C475.989,455.539,471.539,451.034,466.017,451z"/>
	</g>
</g>
<g>
	<g>
		<path d="M42,142.667c-23.159,0-42,18.841-42,42s18.841,42,42,42s42-18.841,42-42S65.159,142.667,42,142.667z M42,206.667
			c-12.131,0-22-9.869-22-22s9.869-22,22-22s22,9.869,22,22S54.131,206.667,42,206.667z"/>
	</g>
</g>
<g>
	<g>
		<path d="M167.714,317.333H82.787c-4.499-18.345-21.075-32-40.787-32c-23.159,0-42,18.841-42,42s18.841,42,42,42
			c19.713,0,36.288-13.655,40.787-32h84.927c5.523,0,10-4.478,10-10C177.714,321.811,173.237,317.333,167.714,317.333z M42,349.333
			c-12.131,0-22-9.869-22-22c0-12.131,9.869-22,22-22s22,9.869,22,22C64,339.464,54.131,349.333,42,349.333z"/>
	</g>
</g>
<g>
	<g>
		<path d="M222.51,320.26c-1.86-1.86-4.44-2.93-7.07-2.93s-5.21,1.069-7.07,2.93c-1.86,1.86-2.93,4.44-2.93,7.07
			s1.07,5.21,2.93,7.069c1.86,1.87,4.44,2.931,7.07,2.931s5.21-1.06,7.07-2.931c1.86-1.859,2.93-4.439,2.93-7.069
			S224.37,322.12,222.51,320.26z"/>
	</g>
</g>
<g>
	<g>
		<path d="M138.72,177.6c-1.86-1.87-4.43-2.93-7.07-2.93c-2.63,0-5.21,1.06-7.07,2.93c-1.86,1.86-2.93,4.44-2.93,7.07
			s1.07,5.2,2.93,7.07c1.86,1.86,4.44,2.93,7.07,2.93c2.64,0,5.21-1.07,7.07-2.93c1.87-1.87,2.93-4.44,2.93-7.07
			S140.59,179.46,138.72,177.6z"/>
	</g>
</g>
<g>
</g>
<g>
</g>
<g>
</g>
<g>
</g>
<g>
</g>
<g>
</g>
<g>
</g>
<g>
</g>
<g>
</g>
<g>
</g>
<g>
</g>
<g>
</g>
<g>
</g>
<g>
</g>
<g>
</g>
</svg>
