<svg height="496pt" viewBox="0 0 496 496" width="496pt" xmlns="http://www.w3.org/2000/svg"><path d="m328 160c-13.230469 0-24 10.769531-24 24s10.769531 24 24 24 24-10.769531 24-24-10.769531-24-24-24zm0 32c-4.40625 0-8-3.59375-8-8s3.59375-8 8-8 8 3.59375 8 8-3.59375 8-8 8zm0 0"/><path d="m112 160c-13.230469 0-24 10.769531-24 24s10.769531 24 24 24 24-10.769531 24-24-10.769531-24-24-24zm0 32c-4.40625 0-8-3.59375-8-8s3.59375-8 8-8 8 3.59375 8 8-3.59375 8-8 8zm0 0"/><path d="m288 296h-16v-16h-16v32h32zm0 0"/><path d="m496 256v-16c0-8.824219-7.175781-16-16-16h-96c-8.824219 0-16 7.175781-16 16v16c0 8.824219 7.175781 16 16 16v48h-66.40625c1.542969-5.152344 2.40625-10.519531 2.40625-16 0-30.871094-25.121094-56-56-56s-56 25.128906-56 56c0 5.710938.960938 11.304688 2.632812 16.65625-10.648437 2.449219-18.632812 11.960938-18.632812 23.34375v56h-40v-48h-32v16h16v48h56v24c0 13.230469 10.769531 24 24 24h1.753906l8 32h76.492188l8-32h67.507812l8 32h76.492188l8-32h1.753906c13.230469 0 24-10.769531 24-24v-96c0-10.414062-6.710938-19.214844-16-22.527344v-49.472656c8.824219 0 16-7.175781 16-16zm-112-16h96v16h-96zm16 64h64v16h-64zm80 48h-56v16h56v16h-272v-16h200v-16h-115.296875c6.722656-4.015625 12.527344-9.464844 17.082031-16h162.214844c4.40625 0 8 3.585938 8 8zm-216-88c22.054688 0 40 17.945312 40 40 0 7.191406-1.808594 13.902344-5.414062 20.007812-7.089844 12.335938-20.347657 19.992188-34.585938 19.992188s-27.496094-7.65625-34.585938-19.992188l-.046874-.078124c-3.558594-6.027344-5.367188-12.738282-5.367188-19.929688 0-22.054688 17.945312-40 40-40zm-48 72h2.222656c4.5625 6.535156 10.378906 11.984375 17.089844 16h-27.3125v-8c0-4.414062 3.59375-8 8-8zm73.753906 144h-51.507812l-4-16h59.507812zm160 0h-51.507812l-4-16h59.507812zm22.246094-32h-256c-4.40625 0-8-3.585938-8-8v-8h200v-16h-200v-16h272v16h-56v16h56v8c0 4.414062-3.59375 8-8 8zm-8-160h-64v-16h64zm0 0"/><path d="m88 352h16v16h-16zm0 0"/><path d="m36.695312 347.304688c-3.03125-3.03125-4.695312-7.046876-4.695312-11.304688 0-8.824219 7.175781-16 16-16h104c6.488281 0 12.527344-2.527344 16.863281-6.992188 4.601563-4.488281 7.136719-10.519531 7.136719-17.007812 0-13.230469-10.769531-24-24-24h-40v16h40c4.40625 0 8 3.585938 8 8 0 2.136719-.816406 4.105469-2.449219 5.703125-1.445312 1.472656-3.414062 2.296875-5.550781 2.296875h-104c-17.648438 0-32 14.351562-32 32 0 8.527344 3.335938 16.566406 9.382812 22.617188 6.050782 6.054687 14.082032 9.382812 22.617188 9.382812h24v-16h-24c-4.265625 0-8.28125-1.664062-11.304688-4.695312zm0 0"/><path d="m80 272h16v16h-16zm0 0"/><path d="m64 288v-16h-32c-4.265625 0-8.28125-1.664062-11.304688-4.695312-3.023437-3.03125-4.695312-7.046876-4.695312-11.304688 0-8.824219 7.175781-16 16-16h80c28.152344 0 51.457031-20.902344 55.359375-48h105.28125c3.902344 27.097656 27.207031 48 55.359375 48s51.457031-20.902344 55.359375-48h40.640625c13.230469 0 24-10.769531 24-24v-59.519531c0-11.074219-7.472656-20.648438-18.144531-23.28125l-45.269531-11.296875c-2.105469-.503906-3.859376-1.871094-4.953126-3.855469l-18.328124-33.054687c-12.710938-22.824219-36.847657-36.992188-62.984376-36.992188h-130.640624c-12.40625 0-23.917969 5.609375-31.601563 15.414062l-42.652344 54.90625c-1.167969 1.519532-2.914062 2.558594-4.859375 2.925782l-68.847656 12.480468c-11.429688 2.042969-19.71875 11.976563-19.71875 23.632813v58.640625c0 13.230469 10.769531 24 24 24h32.640625c1.792969 12.457031 7.648437 23.59375 16.246094 32h-40.886719c-17.648438 0-32 14.351562-32 32 0 8.527344 3.335938 16.566406 9.382812 22.617188 6.050782 6.054687 14.082032 9.382812 22.617188 9.382812zm264-64c-22.054688 0-40-17.945312-40-40s17.945312-40 40-40c11.375 0 22.199219 4.847656 29.753906 13.367188 6.605469 7.296874 10.246094 16.761718 10.246094 26.632812 0 22.054688-17.945312 40-40 40zm96-48h-40.632812c-.808594-5.574219-2.414063-10.96875-4.816407-16h53.449219v8c0 4.40625-3.59375 8-8 8zm-332.519531-87.015625c5.855469-1.105469 11.046875-4.265625 14.597656-8.878906l42.617187-54.847657c4.609376-5.882812 11.527344-9.257812 18.984376-9.257812h130.640624c20.335938 0 39.121094 11.023438 49 28.761719l18.3125 33.023437c3.230469 5.871094 8.78125 10.125 15.144532 11.65625l45.222656 11.285156c3.535156.875 6 4.066407 6 7.753907v3.519531h-32v16h32v16h-64.992188c-10.351562-10.175781-24.328124-16-39.007812-16-28.152344 0-51.457031 20.902344-55.359375 48h-105.273437c-.808594-5.574219-2.414063-10.96875-4.816407-16h88.761719l16.421875-16.425781c20.074219-20.0625 47.867187-31.574219 76.265625-31.574219h8v-8h5.800781l-29.640625-51.792969c-7.089844-12.464843-20.382812-20.207031-34.71875-20.207031h-129.5625l-51.429687 72h188.207031c-16.488281 6.175781-31.695312 15.71875-44.242188 28.265625l-11.726562 11.734375h-93.679688c-10.351562-10.175781-24.328124-16-39.007812-16-14.703125 0-28.703125 5.839844-39.015625 16h-56.984375v-9.230469l25.238281-4.242187c12.59375-2.09375 23.503907-10.144532 29.203125-21.511719l8.71875-17.441406.136719-.382813zm238.71875-.984375h-186.65625l28.570312-40h121.328125c8.582032 0 16.558594 4.640625 20.816406 12.136719zm-307.65625 13.472656 37.144531-6.730468-3.558594 7.113281c-3.410156 6.816406-9.960937 11.632812-17.527344 12.886719l-22.601562 3.800781v-9.183594c0-3.886719 2.742188-7.207031 6.542969-7.886719zm-6.542969 66.527344v-8h45.457031c-2.410156 5.039062-4.015625 10.433594-4.824219 16h-32.632812c-4.40625 0-8-3.59375-8-8zm56 16c0-9.871094 3.640625-19.335938 10.3125-26.695312 7.488281-8.457032 18.3125-13.304688 29.6875-13.304688s22.199219 4.847656 29.753906 13.367188c6.605469 7.296874 10.246094 16.761718 10.246094 26.632812 0 22.054688-17.945312 40-40 40s-40-17.945312-40-40zm0 0"/></svg>
