<svg height="496pt" viewBox="-72 0 496 496" width="496pt" xmlns="http://www.w3.org/2000/svg"><path d="m120 168v137.359375c0 6.425781 2.503906 12.464844 7.0625 17.015625l46.5625 46.5625c1.535156 1.535156 2.375 3.558594 2.375 5.703125v73.359375c0 8.824219 7.175781 16 16 16h88c8.824219 0 16-7.175781 16-16v-280c0-13.230469-10.769531-24-24-24h-128c-13.230469 0-24 10.769531-24 24zm160 0v280h-88v-73.359375c0-6.425781-2.503906-12.464844-7.0625-17.015625l-46.5625-46.5625c-1.535156-1.535156-2.375-3.558594-2.375-5.703125v-137.359375c0-4.40625 3.585938-8 8-8h128c4.414062 0 8 3.59375 8 8zm0 0"/><path d="m328 0h-240c-10.96875 0-20.136719 7.441406-22.992188 17.503906l-65.007812 16.25v44.492188l65.007812 16.25c2.855469 10.0625 12.023438 17.503906 22.992188 17.503906h25.191406l-4.199218 3.359375c-13.34375 10.710937-20.992188 26.632813-20.992188 43.679687v172.273438l52.265625 52.261719c2.40625 2.410156 3.734375 5.625 3.734375 9.066406v2.960937c0 6.832032-5.558594 12.398438-12.800781 12.398438-4.351563 0-8.34375-2.121094-10.742188-5.777344-4.527343-6.679687-9.777343-14.621094-9.785156-14.628906l-2.367187-3.59375h-20.304688v72c0 22.054688 17.945312 40 40 40h160c22.054688 0 40-17.945312 40-40v-296.960938c0-17.046874-7.648438-32.96875-21-43.679687l-4.191406-3.359375h25.191406c13.230469 0 24-10.769531 24-24v-64c0-13.230469-10.769531-24-24-24zm-312 46.246094 48-12v43.507812l-48-12zm288 49.753906h-16v-32h8c4.414062 0 8 3.59375 8 8zm-32 0h-16v-32h16zm-32 0h-16v-32h16zm-32 0h-16v-32h16zm-32 0h-16v-32h16zm-32 0h-16v-24c0-4.40625 3.585938-8 8-8h8zm152.992188 31.839844c9.535156 7.65625 15.007812 19.023437 15.007812 31.199218v296.960938c0 13.230469-10.769531 24-24 24h-160c-13.230469 0-24-10.769531-24-24v-49.566406c1.046875 1.558594 2.121094 3.160156 3.160156 4.679687 5.296875 8.0625 14.289063 12.886719 24.441406 12.886719 15.65625 0 28.398438-12.742188 28.398438-28.398438v-2.960937c0-7.710937-2.992188-14.945313-8.425781-20.375l-47.574219-47.578125v-165.648438c0-12.167968 5.472656-23.542968 15-31.191406l19.808594-15.847656h138.382812zm39.007812-39.839844c0 4.40625-3.585938 8-8 8h-8v-24c0-13.230469-10.769531-24-24-24h-160c-13.230469 0-24 10.769531-24 24v24h-24c-4.414062 0-8-3.59375-8-8v-64c0-4.40625 3.585938-8 8-8h240c4.414062 0 8 3.59375 8 8zm0 0"/><path d="m264 176h-112v64h112zm-16 48h-80v-32h80zm0 0"/><path d="m248 256h16v16h-16zm0 0"/><path d="m216 256h16v16h-16zm0 0"/><path d="m184 256h16v16h-16zm0 0"/><path d="m152 256h16v16h-16zm0 0"/><path d="m216 432h48v-144h-48zm16-16v-16h16v16zm16-48v16h-16v-16zm-16-16v-16h16v16zm16-48v16h-16v-16zm0 0"/></svg>