<svg height="512pt" viewBox="0 0 512 512" width="512pt" xmlns="http://www.w3.org/2000/svg"><path d="m452 363.507812v-215.015624c34.191406-6.96875 60-37.273438 60-73.492188 0-41.355469-33.644531-75-75-75s-75 33.644531-75 75c0 36.21875 25.808594 66.523438 60 73.492188v92.507812h-151v-92.507812c34.191406-6.96875 60-37.273438 60-73.492188 0-41.355469-33.644531-75-75-75s-75 33.644531-75 75c0 36.21875 25.808594 66.523438 60 73.492188v92.507812h-151v-92.507812c34.191406-6.96875 60-37.273438 60-73.492188 0-41.355469-33.644531-75-75-75s-75 33.644531-75 75c0 36.21875 25.808594 66.523438 60 73.492188v122.507812h181v92.507812c-34.191406 6.96875-60 37.273438-60 73.492188 0 41.355469 33.644531 75 75 75s75-33.644531 75-75c0-36.21875-25.808594-66.523438-60-73.492188v-92.507812h151v92.507812c-34.191406 6.96875-60 37.273438-60 73.492188 0 41.355469 33.644531 75 75 75s75-33.644531 75-75c0-36.21875-25.808594-66.523438-60-73.492188zm-241-288.507812c0-24.8125 20.1875-45 45-45s45 20.1875 45 45-20.1875 45-45 45-45-20.1875-45-45zm-181 0c0-24.8125 20.1875-45 45-45s45 20.1875 45 45-20.1875 45-45 45-45-20.1875-45-45zm271 362c0 24.8125-20.1875 45-45 45s-45-20.1875-45-45 20.1875-45 45-45 45 20.1875 45 45zm91-362c0-24.8125 20.1875-45 45-45s45 20.1875 45 45-20.1875 45-45 45-45-20.1875-45-45zm45 407c-24.8125 0-45-20.1875-45-45s20.1875-45 45-45 45 20.1875 45 45-20.1875 45-45 45zm0 0"/></svg>