<svg height="512pt" viewBox="0 0 512.00035 512" width="512pt" xmlns="http://www.w3.org/2000/svg"><path d="m484.15625 351.105469-323.261719-323.261719c-27.464843-27.46875-66.824219-35.292969-102.710937-20.429688-35.890625 14.867188-58.183594 48.230469-58.183594 87.078126v323.257812c0 51.96875 42.28125 94.25 94.25 94.25h323.261719c38.84375 0 72.207031-22.292969 87.074219-58.179688 14.867187-35.890624 7.039062-75.25-20.429688-102.714843zm-7.28125 91.234375c-7.945312 19.175781-27.710938 39.664062-59.367188 39.664062h-40.65625v-27.4375c0-8.28125-6.714843-14.996094-14.996093-14.996094s-14.996094 6.714844-14.996094 14.996094v27.4375h-32.652344v-27.4375c0-8.28125-6.714843-14.996094-14.996093-14.996094s-14.996094 6.714844-14.996094 14.996094v27.4375h-32.652344v-27.4375c0-8.28125-6.714844-14.996094-14.996094-14.996094-8.285156 0-15 6.714844-15 14.996094v27.4375h-32.648437v-27.4375c0-8.28125-6.714844-14.996094-14.996094-14.996094-8.285156 0-15 6.714844-15 14.996094v27.4375h-32.648437v-27.4375c0-8.28125-6.714844-14.996094-14.996094-14.996094-8.285156 0-15 6.714844-15 14.996094v27.4375h-2.027344c-35.429688 0-64.253906-28.824218-64.253906-64.253906v-2.871094h27.4375c8.28125 0 14.996094-6.714844 14.996094-14.996094 0-8.285156-6.714844-15-14.996094-15h-27.4375v-32.648437h27.4375c8.28125 0 14.996094-6.714844 14.996094-14.996094 0-8.285156-6.714844-15-14.996094-15h-27.4375v-32.648437h27.4375c8.28125 0 14.996094-6.714844 14.996094-15 0-8.28125-6.714844-14.996094-14.996094-14.996094h-27.4375v-32.648438h27.4375c8.28125 0 14.996094-6.714843 14.996094-15 0-8.28125-6.714844-14.996093-14.996094-14.996093h-27.4375v-32.648438h27.4375c8.28125 0 14.996094-6.714843 14.996094-15 0-8.28125-6.714844-14.996093-14.996094-14.996093h-27.4375v-39.8125c0-31.65625 20.488281-51.421876 39.664062-59.367188 7.332032-3.035156 16.019532-4.988281 25.210938-4.988281 14.84375 0 30.992187 5.09375 44.816406 18.917969l323.257812 323.257812c22.382813 22.386719 21.871094 50.851562 13.929688 70.027344zm0 0"/><path d="m138.386719 144.8125c-5.179688-5.195312-12.910157-6.742188-19.6875-3.9375-6.78125 2.800781-11.160157 9.351562-11.160157 16.691406v229.824219c0 9.957031 8.101563 18.058594 18.058594 18.058594h229.191406c7.324219 0 13.875-4.371094 16.679688-11.136719 2.808594-6.765625 1.28125-14.488281-3.890625-19.675781zm-.851563 230.640625v-189.015625l188.496094 189.015625zm0 0"/></svg>