<?xml version="1.0" encoding="iso-8859-1"?>
<!-- Generator: Adobe Illustrator 19.0.0, SVG Export Plug-In . SVG Version: 6.00 Build 0)  -->
<svg version="1.1" id="Capa_1" xmlns="http://www.w3.org/2000/svg" xmlns:xlink="http://www.w3.org/1999/xlink" x="0px" y="0px"
	 viewBox="0 0 512 512" style="enable-background:new 0 0 512 512;" xml:space="preserve">
<g>
	<g>
		<path d="M330.359,266.995l-70.085-121.392c-2.762-4.783-8.876-6.422-13.66-3.66c-4.783,2.761-6.422,8.877-3.66,13.66
			l70.085,121.392c1.853,3.208,5.213,5.002,8.67,5.002c1.696,0,3.416-0.433,4.99-1.342
			C331.482,277.893,333.121,271.778,330.359,266.995z"/>
	</g>
</g>
<g>
	<g>
		<path d="M300.017,302.788l-70.086-121.392c-2.761-4.783-8.876-6.421-13.66-3.66c-4.783,2.761-6.422,8.877-3.66,13.66
			l70.086,121.392c1.853,3.208,5.213,5.002,8.67,5.002c1.696,0,3.416-0.433,4.99-1.342
			C301.14,313.686,302.779,307.571,300.017,302.788z"/>
	</g>
</g>
<g>
	<g>
		<path d="M269.674,338.581l-70.086-121.392c-2.762-4.782-8.876-6.422-13.66-3.66c-4.783,2.761-6.422,8.877-3.66,13.66
			l70.086,121.392c1.853,3.208,5.213,5.002,8.67,5.002c1.696,0,3.416-0.433,4.99-1.342
			C270.797,349.479,272.436,343.364,269.674,338.581z"/>
	</g>
</g>
<g>
	<g>
		<path d="M239.331,374.375l-70.085-121.393c-2.762-4.782-8.874-6.422-13.66-3.66c-4.783,2.761-6.422,8.877-3.66,13.66
			l70.085,121.393c1.853,3.208,5.213,5.002,8.67,5.002c1.696,0,3.415-0.433,4.99-1.342
			C240.454,385.273,242.093,379.158,239.331,374.375z"/>
	</g>
</g>
<g>
	<g>
		<path d="M208.99,410.168l-70.086-121.392c-2.761-4.782-8.876-6.422-13.66-3.66c-4.783,2.762-6.422,8.877-3.66,13.66
			l70.086,121.392c1.853,3.208,5.213,5.002,8.67,5.002c1.696,0,3.416-0.433,4.99-1.342
			C210.113,421.066,211.752,414.951,208.99,410.168z"/>
	</g>
</g>
<g>
	<g>
		<path d="M178.646,445.962l-70.085-121.393c-2.762-4.782-8.876-6.422-13.66-3.66c-4.783,2.762-6.422,8.877-3.66,13.66
			l14.883,25.779L92.83,373.643c-3.905,3.905-3.905,10.237,0,14.143c1.953,1.952,4.512,2.929,7.071,2.929s5.118-0.977,7.071-2.929
			l9.505-9.505l12.317,21.333L84.106,444.3c-1.935-3.31-4.3-6.398-7.083-9.181c-17.558-17.558-46.129-17.561-63.69,0.001
			c-17.559,17.56-17.559,46.131,0,63.689C21.84,507.315,33.15,512,45.179,512s23.339-4.685,31.845-13.19
			c8.506-8.505,13.19-19.815,13.19-31.845c0-0.161-0.01-0.32-0.012-0.48c0.016-0.015,0.032-0.028,0.048-0.043l48.896-48.896
			l22.18,38.416c1.853,3.208,5.213,5.002,8.67,5.002c1.696,0,3.416-0.433,4.99-1.342
			C179.769,456.86,181.408,450.745,178.646,445.962z M62.881,484.667C58.153,489.396,51.866,492,45.179,492
			s-12.975-2.604-17.703-7.333c-9.762-9.761-9.761-25.644,0-35.405c4.881-4.881,11.291-7.321,17.703-7.321
			c6.41,0,12.822,2.441,17.702,7.321c4.729,4.729,7.333,11.016,7.333,17.703S67.611,479.938,62.881,484.667z"/>
	</g>
</g>
<g>
	<g>
		<path d="M494.824,17.039C483.836,6.051,469.228,0,453.689,0s-30.147,6.051-41.135,17.039l-44.993,44.993
			c-3.905,3.905-3.905,10.237,0,14.142c3.906,3.906,10.236,3.906,14.143,0l44.993-44.993C433.906,23.971,443.492,20,453.689,20
			c10.197,0,19.783,3.971,26.993,11.181c14.884,14.884,14.884,39.102,0,53.986l-95.769,95.768l-64.153-64.153
			c-5.197-5.198-12.107-8.06-19.458-8.06s-14.261,2.862-19.458,8.06c-10.729,10.729-10.729,28.187,0,38.917l74.321,74.321
			c5.365,5.364,12.411,8.046,19.458,8.046s14.094-2.682,19.458-8.047c9.367-9.368,10.554-23.863,3.565-34.532l96.178-96.178
			C517.506,76.627,517.506,39.721,494.824,17.039z M380.939,215.876c-2.93,2.932-7.701,2.932-10.631,0l-74.321-74.321
			c-2.932-2.932-2.932-7.701,0-10.632c1.42-1.42,3.308-2.202,5.315-2.202c2.007,0,3.896,0.782,5.315,2.202l74.321,74.321
			C383.87,208.176,383.87,212.945,380.939,215.876z"/>
	</g>
</g>
<g>
	<g>
		<path d="M354.87,88.864c-3.906-3.905-10.236-3.905-14.143,0l-0.25,0.25c-3.905,3.905-3.905,10.237,0,14.143
			c1.954,1.953,4.513,2.929,7.072,2.929c2.56,0,5.118-0.976,7.071-2.929l0.25-0.25C358.775,99.102,358.775,92.77,354.87,88.864z"/>
	</g>
</g>
<g>
	<g>
		<path d="M83.002,397.61c-1.86-1.859-4.439-2.93-7.07-2.93c-2.63,0-5.21,1.07-7.069,2.93c-1.86,1.86-2.931,4.44-2.931,7.07
			s1.07,5.21,2.931,7.07c1.859,1.859,4.439,2.93,7.069,2.93c2.631,0,5.21-1.07,7.07-2.93s2.93-4.44,2.93-7.07
			S84.863,399.47,83.002,397.61z"/>
	</g>
</g>
<g>
	<g>
		<path d="M473.147,38.716c-10.729-10.729-28.188-10.729-38.916,0c-10.729,10.729-10.729,28.187,0,38.916
			c5.197,5.198,12.107,8.06,19.458,8.06c7.349-0.001,14.26-2.863,19.458-8.06c5.197-5.198,8.06-12.108,8.06-19.458
			C481.207,50.823,478.345,43.913,473.147,38.716z M459.003,63.489c-1.42,1.42-3.308,2.202-5.315,2.202
			c-2.007,0-3.896-0.782-5.315-2.202c-2.93-2.93-2.93-7.7,0-10.631c1.465-1.466,3.391-2.199,5.315-2.199s3.851,0.733,5.315,2.199
			c1.421,1.42,2.202,3.308,2.202,5.316S460.424,62.07,459.003,63.489z"/>
	</g>
</g>
<g>
</g>
<g>
</g>
<g>
</g>
<g>
</g>
<g>
</g>
<g>
</g>
<g>
</g>
<g>
</g>
<g>
</g>
<g>
</g>
<g>
</g>
<g>
</g>
<g>
</g>
<g>
</g>
<g>
</g>
</svg>
