<?xml version="1.0" encoding="iso-8859-1"?>
<!-- Generator: Adobe Illustrator 21.0.0, SVG Export Plug-In . SVG Version: 6.00 Build 0)  -->
<svg xmlns="http://www.w3.org/2000/svg" xmlns:xlink="http://www.w3.org/1999/xlink" version="1.1" id="Capa_1" x="0px" y="0px" viewBox="0 0 512 512" style="enable-background:new 0 0 512 512;" xml:space="preserve" width="512" height="512">
<g>
	<path d="M466.863,82.998h-73.35c-18.57-48.48-65.584-82.996-120.516-82.996h-50.995c-54.932,0-101.946,34.516-120.516,82.996H45   c-24.813,0-45,20.187-45,45v155c0,24.813,20.187,45,45,45h18v169c0,8.284,6.716,15,15,15h28.997c5.238,0,10.097-2.732,12.818-7.209   l31.003-51.003c1.427-2.348,2.182-5.043,2.182-7.791V327.998h18c24.813,0,45-20.187,45-45v-155c0-24.813-20.187-45-45-45h-36.639   c16.593-31.482,49.649-52.996,87.641-52.996h50.995c37.992,0,71.048,21.514,87.641,52.996h-53.502   c-24.889,0-45.137,20.248-45.137,45.137v260.727c0,24.889,20.248,45.137,45.137,45.137h159.727   c24.889,0,45.137-20.248,45.137-45.137V128.135C512,103.246,491.752,82.998,466.863,82.998z M123,441.794l-24.439,40.204H93v-154   h30V441.794z M171,112.998c8.271,0,15,6.729,15,15v155c0,8.271-6.729,15-15,15H45c-8.271,0-15-6.729-15-15v-155   c0-8.271,6.729-15,15-15c0,0,48.988,0,48.992,0c-0.648,0.017-0.649,7.35-0.702,8.234c-0.238,3.92-0.29,7.841-0.29,11.767   c0,8.284,6.716,15,15,15s15-6.716,15-15c0-6.716,0.216-13.357,1.301-20.001H171z M482,388.861c0,8.347-6.79,15.137-15.137,15.137   H307.137c-8.347,0-15.137-6.79-15.137-15.137V128.135c0-8.347,6.79-15.137,15.137-15.137c0,0,63.562,0,63.563,0   c1.4,0.004,1.3,17.835,1.3,19.999c0,8.284,6.716,15,15,15s15-6.716,15-15c0-6.696-0.165-13.345-0.992-19.999h65.856   c8.347,0,15.137,6.79,15.137,15.137V388.861z"/>
	<path d="M422,177.998h-70c-16.542,0-30,13.458-30,30v136c0,16.542,13.458,30,30,30h70c16.542,0,30-13.458,30-30v-136   C452,191.456,438.542,177.998,422,177.998z M422,207.998v53h-70.002l-0.001-53H422z M352,343.998l-0.001-53H422v53H352z"/>
	<path d="M60,192.997c0,8.284,6.716,15,15,15h66c8.284,0,15-6.716,15-15s-6.716-15-15-15H75C66.716,177.997,60,184.713,60,192.997z"/>
	<path d="M141,237.997H75c-8.284,0-15,6.716-15,15s6.716,15,15,15h66c8.284,0,15-6.716,15-15S149.284,237.997,141,237.997z"/>
</g>















</svg>
