<svg height="512pt" viewBox="0 0 512 512" width="512pt" xmlns="http://www.w3.org/2000/svg"><path d="m313.742188 325.511719c-8.203126-10.757813-22.832032-13.914063-34.777344-7.515625l-.222656.125c-6.753907 3.769531-14.832032 5.847656-22.742188 5.847656-7.90625 0-15.984375-2.078125-22.742188-5.851562l-.222656-.121094c-11.949218-6.398438-26.574218-3.238282-34.773437 7.507812l-44.585938 58.351563-.136719.179687c-4.601562 6.214844-6.371093 13.796875-4.90625 20.90625 1.238282 7.289063 5.570313 13.820313 12.023438 18.054688 28.179688 18.203125 61.148438 27.824218 95.34375 27.824218 34.191406 0 67.160156-9.621093 95.425781-27.878906 6.375-4.179687 10.699219-10.710937 11.941407-18 1.464843-7.109375-.308594-14.691406-4.90625-20.90625zm-57.742188 95.304687c-27.390625 0-53.789062-7.402344-76.472656-21.386718l41.242187-53.96875c10.792969 5.570312 22.921875 8.503906 35.230469 8.503906 12.3125 0 24.441406-2.933594 35.234375-8.503906l41.234375 53.96875c-22.738281 14.003906-49.109375 21.386718-76.46875 21.386718zm0 0"/><path d="m189.425781 242.820312c.214844-15.84375 8.691407-30.210937 22.683594-38.4375 11.773437-6.933593 16.570313-21.566406 11.152344-34.042968l-29.171875-67.125c-2.992188-6.851563-8.761719-12.226563-15.910156-14.78125-6.980469-2.453125-14.792969-1.96875-21.496094 1.351562-59.09375 29.648438-95.804688 88.53125-95.804688 153.667969 0 3.050781.082032 6.117187.238282 9.140625.402343 7.503906 3.964843 14.570312 9.765624 19.382812 4.902344 4.0625 11.121094 6.304688 17.519532 6.304688h.875l76.082031-8.914062c13.53125-1.617188 23.878906-13.027344 24.066406-26.546876zm-98.476562 5.058594c-.046875-1.46875-.066407-2.949218-.066407-4.425781 0-52.855469 29.398438-100.765625 76.851563-125.621094l26.960937 62.039063c-21.058593 13.320312-34.027343 35.433594-35.1875 59.976562zm0 0"/><path d="m355.332031 89.789062c-6.6875-3.367187-14.566406-3.847656-21.589843-1.328124-7.066407 2.523437-12.839844 7.898437-15.84375 14.777343l-29.160157 67.101563c-5.414062 12.472656-.621093 27.109375 11.160157 34.046875 13.980468 8.222656 22.457031 22.589843 22.675781 38.4375.1875 13.515625 10.535156 24.925781 24.101562 26.546875l76.046875 8.910156h.875c6.394532 0 12.617188-2.238281 17.515625-6.304688 5.804688-4.8125 9.363281-11.875 9.769531-19.402343.15625-3 .238282-6.070313.238282-9.121094-.003906-65.132813-36.703125-124.011719-95.789063-153.664063zm65.71875 158.089844-68.558593-8.03125c-1.164063-24.550781-14.132813-46.664062-35.1875-59.976562l26.960937-62.042969c47.480469 24.902344 76.851563 72.792969 76.851563 125.625 0 1.476563-.019532 2.957031-.066407 4.425781zm0 0"/><path d="m437.019531 74.980469c-48.351562-48.351563-112.640625-74.980469-181.019531-74.980469s-132.667969 26.628906-181.019531 74.980469c-48.351563 48.351562-74.980469 112.640625-74.980469 181.019531s26.628906 132.667969 74.980469 181.019531c48.351562 48.351563 112.640625 74.980469 181.019531 74.980469s132.667969-26.628906 181.019531-74.980469c48.351563-48.351562 74.980469-112.640625 74.980469-181.019531s-26.628906-132.667969-74.980469-181.019531zm-21.214843 340.824219c-42.683594 42.6875-99.4375 66.195312-159.804688 66.195312s-117.121094-23.507812-159.804688-66.195312c-42.6875-42.683594-66.195312-99.4375-66.195312-159.804688s23.507812-117.121094 66.195312-159.804688c42.683594-42.6875 99.4375-66.195312 159.804688-66.195312s117.121094 23.507812 159.804688 66.195312c42.6875 42.683594 66.195312 99.4375 66.195312 159.804688s-23.507812 117.121094-66.195312 159.804688zm0 0"/><path d="m208.441406 256c0 26.355469 21.335938 47.796875 47.558594 47.796875s47.558594-21.441406 47.558594-47.796875-21.335938-47.796875-47.558594-47.796875-47.558594 21.441406-47.558594 47.796875zm47.558594-17.796875c9.683594 0 17.558594 7.984375 17.558594 17.796875s-7.875 17.796875-17.558594 17.796875-17.558594-7.984375-17.558594-17.796875 7.875-17.796875 17.558594-17.796875zm0 0"/></svg>