<svg height="512pt" viewBox="-61 0 512 512" width="512pt" xmlns="http://www.w3.org/2000/svg"><path d="m105 257.003906-38.988281 67.515625c-3.933594 6.8125-6.011719 14.585938-6.011719 22.480469 0 24.8125 20.1875 45 45 45s45-20.1875 45-45c0-7.894531-2.078125-15.667969-6.011719-22.480469zm0 104.996094c-8.269531 0-15-6.730469-15-15 0-2.671875.671875-5.191406 1.992188-7.480469l13.007812-22.523437 13.007812 22.523437c1.320313 2.289063 1.992188 4.808594 1.992188 7.480469 0 8.269531-6.730469 15-15 15zm0 0"/><path d="m150 62v-62h-120v62h-30v450h390c0-11.8125 0-442.367188 0-450-10.386719 0-231.894531 0-240 0zm-90-32h60v32h-60zm-30 182h150v210h-150zm0 270v-30h180v-270h-180v-90h128.785156l201.214844 201.214844v68.785156h-60v30h60v30h-60v30h60v30zm270-291.214844-38.785156-38.785156h38.785156zm30 30v-98.785156h-98.785156l-30-30h158.785156v158.785156zm0 0"/></svg>