<svg height="512pt" viewBox="0 0 512 512" width="512pt" xmlns="http://www.w3.org/2000/svg"><path d="m512 422v-422h-512v422h181v60h-60v30h270v-30h-60v-60zm-30-392v272h-452v-272zm-452 302h181v30h90v-30h181v60h-452zm271 150h-90v-60h90zm0 0"/><path d="m421 62h30v30h-30zm0 0"/><path d="m421 152h30v30h-30zm0 0"/><path d="m421 242h30v30h-30zm0 0"/><path d="m391 92v-30h-77.433594l-90 30h-111.835937l-30 60h-20.730469v90h30v30h30v-30h90v30h30v-30h11.460938l60 30h78.539062v-30h-71.460938l-48.539062-24.269531v-35.730469h120v-30c-3.621094 0-135.628906 0-140.730469 0l-15.976562-31.953125 84.140625-28.046875zm-260.730469 30h71.460938l15 30h-101.460938zm110.730469 60v30h-150v-30zm0 0"/></svg>