<?xml version="1.0" encoding="iso-8859-1"?>
<!-- Generator: Adobe Illustrator 19.0.0, SVG Export Plug-In . SVG Version: 6.00 Build 0)  -->
<svg version="1.1" id="Capa_1" xmlns="http://www.w3.org/2000/svg" xmlns:xlink="http://www.w3.org/1999/xlink" x="0px" y="0px"
	 viewBox="0 0 512 512" style="enable-background:new 0 0 512 512;" xml:space="preserve">
<g>
	<g>
		<path d="M481.782,236.927c0.473,0.066,0.942,0.099,1.406,0.099c4.905,0,9.19-3.613,9.893-8.61l18.553-131.853
			c1.509-10.73-1.703-21.574-8.812-29.751c-7.107-8.177-17.4-12.868-28.235-12.868h-97.301c-5.524,0-10.003,4.478-10.003,10.003
			c0,5.525,4.479,10.003,10.003,10.003h97.301c5.041,0,9.829,2.183,13.136,5.987c3.308,3.804,4.801,8.849,4.1,13.84l-3.119,22.161
			H424.85h-4.1h-83.678v-3.977c0-5.525-4.479-10.003-10.003-10.003h-67.019c-3.322,0-6.429,1.649-8.288,4.403
			c-1.86,2.754-2.232,6.251-0.991,9.333l0.098,0.244h-85.437l-4.334-30.824c-0.4-2.852,0.418-5.62,2.309-7.793
			c1.89-2.174,4.516-3.371,7.397-3.371h111.62c5.524,0,10.003-4.478,10.003-10.003c0-5.525-4.479-10.003-10.003-10.003H170.802
			c-8.633,0-16.833,3.737-22.496,10.253c-5.663,6.516-8.221,15.155-7.019,23.704l5.357,38.09H70.02
			C31.411,125.989,0,157.4,0,196.009c0,38.596,31.39,69.997,69.981,70.019c0.013,0,0.026,0.002,0.039,0.002c0.001,0,0.002,0,0.003,0
			l85.078-0.023L44.009,322.898c-0.284,0.146-0.556,0.305-0.82,0.473C17.858,333.921,0,358.929,0,388.038
			c0,38.609,31.411,70.02,70.02,70.02c12.535,0,24.301-3.327,34.49-9.121c0.307-0.138,0.613-0.276,0.911-0.448l80.074-46.231
			l4.582,32.585c1.859,13.234,13.341,23.215,26.706,23.215h220.576c13.365,0,24.846-9.981,26.706-23.214l8.922-63.441
			c0.77-5.471-3.042-10.529-8.512-11.298c-5.478-0.768-10.529,3.041-11.298,8.512l-8.922,63.442
			c-0.48,3.416-3.444,5.993-6.896,5.993H216.782c-3.451,0-6.415-2.577-6.896-5.994l-13.188-93.781l30.475,52.784
			c1.661,2.878,4.643,4.742,7.957,4.976c0.236,0.018,0.472,0.025,0.706,0.025c3.061,0,5.969-1.403,7.872-3.832l69.186-88.275
			c1.369,0.405,2.758,0.763,4.172,1.052v95.033c0,5.524,4.479,10.003,10.003,10.003h67.019c3.322,0,6.429-1.649,8.288-4.402
			c1.86-2.754,2.232-6.251,0.991-9.333L361.5,292.224c1.035-0.983,2.03-2.009,2.977-3.077l82.334,47.535
			c1.575,0.909,3.295,1.342,4.991,1.342c3.457,0,6.82-1.795,8.672-5.003l33.509-58.039c1.661-2.878,1.786-6.393,0.331-9.38
			s-4.297-5.058-7.586-5.525L375.687,244.3c-0.337-1.401-0.735-2.779-1.188-4.132l82.314-47.523c2.298-1.326,3.974-3.511,4.66-6.074
			c0.687-2.563,0.327-5.293-0.999-7.59l-24.847-43.036h50.262l-12.621,89.686C472.501,231.099,476.312,236.158,481.782,236.927z
			 M376.33,264.597l92.928,13.205l-21.106,36.555L374.5,271.835C375.283,269.493,375.897,267.077,376.33,264.597z M337.073,135.942
			h60.682l-56.51,72.102c-1.369-0.405-2.758-0.763-4.172-1.052V135.942z M317.068,121.962v85.03
			c-2.466,0.502-4.866,1.186-7.187,2.038l-35.023-87.068H317.068z M70.02,246.023c-27.578,0-50.014-22.436-50.014-50.014
			s22.436-50.014,50.014-50.014s50.014,22.436,50.014,50.014C120.034,223.587,97.598,246.023,70.02,246.023z M118.971,246.012
			c12.988-12.721,21.069-30.432,21.069-50.003c0-19.579-8.086-37.295-21.083-50.014h30.501l3.774,26.839
			c0.702,4.998,4.985,8.611,9.893,8.611c0.464,0,0.934-0.033,1.405-0.099c5.471-0.769,9.282-5.828,8.512-11.298l-4.795-34.105
			h90.672l33.723,83.834c-1.034,0.984-2.029,2.009-2.977,3.077l-82.334-47.535c-4.785-2.763-10.902-1.123-13.664,3.661
			l-33.509,58.04c-1.589,2.752-1.755,6.082-0.496,8.982L118.971,246.012z M70.02,438.052c-27.578,0-50.014-22.436-50.014-50.014
			c0-27.578,22.436-50.014,50.014-50.014s50.014,22.436,50.014,50.014S97.598,438.052,70.02,438.052z M180.98,381.763l-43.543,25.14
			c1.683-6.007,2.604-12.328,2.604-18.865c0-31.269-20.606-57.81-48.949-66.774l77.437-39.656l13.985,99.447
			C181.992,381.248,181.477,381.476,180.98,381.763z M205.988,197.644l73.652,42.522c-0.783,2.342-1.397,4.757-1.83,7.238
			l-92.928-13.205L205.988,197.644z M194.399,321.922l-9.495-67.513l93.547,13.292c0.337,1.401,0.734,2.78,1.188,4.133
			l-82.314,47.523C196.181,320.019,195.189,320.893,194.399,321.922z M237.096,368.237l-21.106-36.555l73.672-42.534
			c1.651,1.862,3.436,3.601,5.344,5.199L237.096,368.237z M297.062,256c0-16.547,13.462-30.008,30.008-30.008
			s30.008,13.462,30.008,30.008s-13.462,30.008-30.008,30.008S297.062,272.547,297.062,256z M379.283,390.038h-42.21v-85.03
			c2.466-0.502,4.866-1.186,7.188-2.038L379.283,390.038z M438.15,180.319l-73.672,42.534c-1.651-1.862-3.436-3.601-5.344-5.199
			l57.91-73.89L438.15,180.319z"/>
	</g>
</g>
<g>
	<g>
		<path d="M328.106,53.943h-0.8c-5.524,0-10.003,4.478-10.003,10.003c0,5.525,4.478,10.003,10.003,10.003h0.8
			c5.524,0,10.003-4.478,10.003-10.003C338.109,58.421,333.629,53.943,328.106,53.943z"/>
	</g>
</g>
<g>
	<g>
		<path d="M70.02,354.028c-18.753,0-34.01,15.256-34.01,34.01s15.256,34.01,34.01,34.01s34.01-15.256,34.01-34.01
			S88.773,354.028,70.02,354.028z M70.02,402.041c-7.722,0-14.004-6.282-14.004-14.004c0-7.722,6.282-14.004,14.004-14.004
			s14.004,6.282,14.004,14.004C84.024,395.76,77.742,402.041,70.02,402.041z"/>
	</g>
</g>
<g>
	<g>
		<path d="M70.02,161.999c-18.753,0-34.01,15.256-34.01,34.01c0,18.753,15.256,34.01,34.01,34.01s34.01-15.256,34.01-34.01
			C104.029,177.256,88.773,161.999,70.02,161.999z M70.02,210.013c-7.722,0-14.004-6.282-14.004-14.004
			c0-7.722,6.282-14.004,14.004-14.004s14.004,6.282,14.004,14.004C84.024,203.731,77.742,210.013,70.02,210.013z"/>
	</g>
</g>
<g>
	<g>
		<path d="M327.098,245.997h-0.179c-0.01,0-0.019,0-0.028,0c-5.512,0-9.987,4.46-10.002,9.976
			c-0.015,5.525,4.451,10.015,9.976,10.03l0.179,0.001c0.01,0,0.019,0,0.028,0c5.512,0,9.987-4.46,10.002-9.976
			C337.087,250.503,332.621,246.012,327.098,245.997z"/>
	</g>
</g>
<g>
</g>
<g>
</g>
<g>
</g>
<g>
</g>
<g>
</g>
<g>
</g>
<g>
</g>
<g>
</g>
<g>
</g>
<g>
</g>
<g>
</g>
<g>
</g>
<g>
</g>
<g>
</g>
<g>
</g>
</svg>
