<svg height="512pt" viewBox="0 -64 512.001 512" width="512pt" xmlns="http://www.w3.org/2000/svg"><path d="m499.09375 122.066406c-8.085938-5.007812-18-5.46875-26.515625-1.230468-44.257813 22.015624-92 37.167968-140.886719 44.90625 15.039063-17.574219 24.140625-40.425782 24.140625-65.375 0-55.339844-44.785156-100.367188-99.832031-100.367188-55.050781 0-99.835938 45.027344-99.835938 100.367188 0 24.949218 9.101563 47.796874 24.140626 65.375-48.882813-7.742188-96.625-22.890626-140.882813-44.90625-8.515625-4.238282-18.429687-3.777344-26.515625 1.230468-8.082031 5.007813-12.90625 13.667969-12.90625 23.171875v158.007813c0 43.976562 35.804688 79.753906 79.816406 79.753906h352.371094c44.007812 0 79.8125-35.777344 79.8125-79.753906v-158.007813c0-9.503906-4.824219-18.164062-12.90625-23.171875zm-243.097656-92.066406c38.507812 0 69.835937 31.566406 69.835937 70.367188 0 38.800781-31.328125 70.371093-69.835937 70.371093-38.503906 0-69.832032-31.570312-69.832032-70.371093 0-38.800782 31.328126-70.367188 69.832032-70.367188zm.003906 171.722656c77.910156 0 155.953125-17.996094 226-52.089844v45.078126c-71.53125 31.644531-147.488281 47.679687-225.9375 47.679687h-.066406c-78.46875-.011719-154.449219-16.0625-225.996094-47.734375v-45.023438c70.046875 34.09375 148.089844 52.089844 226 52.089844zm176.183594 151.277344h-352.367188c-27.46875 0-49.816406-22.320312-49.816406-49.753906v-75.941406c71.824219 29.917968 147.734375 45.074218 225.992188 45.085937h.070312c78.234375 0 154.128906-15.140625 225.9375-45.035156v75.894531c0 27.429688-22.347656 49.75-49.816406 49.75zm0 0"/></svg>