<svg height="512pt" viewBox="0 -106 512 512" width="512pt" xmlns="http://www.w3.org/2000/svg"><path d="m407 0h-211c-57.898438 0-105 47.101562-105 105v75h-91v120h377c74.4375 0 135-60.5625 135-135v-60c0-57.898438-47.101562-105-105-105zm75 165c0 57.898438-47.101562 105-105 105h-347v-60h91v-105c0-41.355469 33.644531-75 75-75h211c41.355469 0 75 33.644531 75 75zm0 0"/><path d="m407 60h-211c-24.8125 0-45 20.1875-45 45v90c0 24.8125 20.1875 45 45 45h181c41.355469 0 75-33.644531 75-75v-60c0-24.8125-20.1875-45-45-45zm-31.210938 30-96 120h-82.578124l96-120zm-179.789062 0h58.789062l-73.789062 92.238281v-77.238281c0-8.269531 6.730469-15 15-15zm226 75c0 24.8125-20.1875 45-45 45h-58.789062l94.933593-118.667969c5.210938 2.351563 8.855469 7.585938 8.855469 13.667969zm0 0"/></svg>