<?xml version="1.0" encoding="iso-8859-1"?>
<!-- Generator: Adobe Illustrator 19.0.0, SVG Export Plug-In . SVG Version: 6.00 Build 0)  -->
<svg version="1.1" id="Capa_1" xmlns="http://www.w3.org/2000/svg" xmlns:xlink="http://www.w3.org/1999/xlink" x="0px" y="0px"
	 viewBox="0 0 512.002 512.002" style="enable-background:new 0 0 512.002 512.002;" xml:space="preserve">
<g>
	<g>
		<path d="M319.641,192.361c-35.092-35.09-92.187-35.09-127.279,0c-23.645,23.645-32.218,58.202-22.373,90.186
			c1.625,5.278,7.218,8.244,12.5,6.616c5.278-1.625,8.24-7.221,6.615-12.5c-7.661-24.884-0.993-51.767,17.4-70.159
			c27.293-27.293,71.701-27.293,98.994,0c13.222,13.221,20.503,30.799,20.503,49.497c0,18.697-7.281,36.276-20.503,49.497
			c-18.204,18.204-44.857,24.945-69.558,17.583c-5.298-1.574-10.863,1.437-12.439,6.729c-1.577,5.293,1.436,10.862,6.729,12.439
			c8.499,2.533,17.172,3.765,25.775,3.765c23.532,0,46.497-9.234,63.636-26.373c16.999-16.999,26.36-39.6,26.36-63.64
			S336.64,209.36,319.641,192.361z"/>
	</g>
</g>
<g>
	<g>
		<path d="M206.571,305.566c-0.01-0.009-0.058-0.057-0.068-0.068c-3.899-3.897-10.199-3.887-14.108,0.003
			c-3.907,3.891-3.91,10.229-0.028,14.146l0.199,0.198c1.951,1.9,4.485,2.848,7.014,2.848c2.603,0,5.201-1.004,7.153-3.012
			C210.586,315.724,210.527,309.42,206.571,305.566z"/>
	</g>
</g>
<g>
	<g>
		<path d="M423.397,150.181c-2.956-4.665-9.135-6.055-13.799-3.097c-4.666,2.955-6.053,9.133-3.098,13.799
			c44.12,69.653,33.759,162.591-24.635,220.986c-69.4,69.401-182.328,69.402-251.73,0c-69.401-69.402-69.401-182.328,0-251.73
			c59.117-59.118,149.766-69.389,220.445-24.978c4.677,2.938,10.849,1.53,13.787-3.147c2.939-4.677,1.531-10.85-3.146-13.788
			c-37.35-23.47-82.214-33.807-126.325-29.102c-44.774,4.773-87.002,24.971-118.903,56.871c-77.199,77.2-77.199,202.814,0,280.015
			c38.601,38.599,89.304,57.899,140.008,57.899c50.704,0,101.408-19.3,140.008-57.897c31.988-31.989,52.198-74.338,56.907-119.245
			C457.555,232.514,447.072,187.559,423.397,150.181z"/>
	</g>
</g>
<g>
	<g>
		<path d="M396.163,116.149l-0.121-0.121c-3.886-3.925-10.219-3.954-14.142-0.068c-3.923,3.887-3.954,10.218-0.067,14.142
			l0.188,0.189c1.953,1.953,4.511,2.929,7.071,2.929s5.118-0.976,7.071-2.928C400.068,126.386,400.068,120.054,396.163,116.149z"/>
	</g>
</g>
<g>
	<g>
		<path d="M256.001,92.002c-16.542,0-30,13.458-30,30s13.458,30,30,30s30-13.458,30-30S272.543,92.002,256.001,92.002z
			 M256.001,132.002c-5.514,0-10-4.486-10-10c0-5.514,4.486-10,10-10c5.514,0,10,4.486,10,10
			C266.001,127.516,261.515,132.002,256.001,132.002z"/>
	</g>
</g>
<g>
	<g>
		<path d="M508.403,273.797L493.95,261.75c0.051-1.967,0.075-3.872,0.075-5.748s-0.024-3.781-0.075-5.748l14.453-12.047
			c2.556-2.13,3.885-5.391,3.546-8.7c-0.93-9.086-2.382-18.294-4.316-27.37c-0.694-3.261-2.968-5.961-6.064-7.2l-17.429-6.975
			c-1.101-3.696-2.297-7.376-3.576-11.014l10.007-15.898c1.776-2.821,2.03-6.34,0.677-9.386c-3.744-8.429-7.98-16.728-12.59-24.667
			c-1.67-2.878-4.663-4.736-7.982-4.957l-18.776-1.25c-2.181-3.153-4.444-6.264-6.771-9.306l4.604-18.205
			c0.816-3.23-0.029-6.654-2.255-9.133c-6.157-6.856-12.758-13.457-19.619-19.62c-2.48-2.227-5.905-3.07-9.134-2.255l-18.206,4.603
			c-3.042-2.327-6.153-4.589-9.305-6.77l-1.251-18.777c-0.221-3.32-2.079-6.313-4.957-7.984
			c-7.943-4.611-16.242-8.847-24.667-12.588c-3.047-1.354-6.568-1.1-9.386,0.676l-15.897,10.007
			c-3.638-1.281-7.32-2.476-11.015-3.577l-6.974-17.428c-1.238-3.096-3.939-5.37-7.2-6.065c-9.08-1.935-18.288-3.386-27.371-4.316
			c-3.308-0.337-6.569,0.991-8.699,3.546l-12.046,14.453c-3.937-0.102-7.56-0.102-11.498,0L238.207,3.598
			c-2.129-2.555-5.396-3.886-8.699-3.546c-9.083,0.93-18.291,2.381-27.371,4.316c-3.261,0.694-5.962,2.969-7.2,6.065l-6.974,17.428
			c-3.696,1.101-7.377,2.297-11.015,3.577l-15.897-10.007c-2.82-1.775-6.34-2.03-9.386-0.676
			c-8.425,3.741-16.724,7.977-24.667,12.588c-2.878,1.671-4.736,4.664-4.957,7.984l-1.251,18.777
			c-3.153,2.181-6.263,4.443-9.305,6.77l-18.206-4.603c-3.231-0.817-6.655,0.028-9.134,2.255
			c-6.861,6.163-13.462,12.764-19.619,19.62c-2.226,2.479-3.071,5.903-2.255,9.133l4.602,18.206
			c-2.328,3.042-4.59,6.152-6.771,9.305l-18.776,1.25c-3.319,0.222-6.311,2.08-7.982,4.957c-4.611,7.94-8.846,16.239-12.59,24.667
			c-1.352,3.046-1.098,6.565,0.677,9.386l10.007,15.898c-1.279,3.638-2.474,7.318-3.576,11.014l-17.429,6.975
			c-3.095,1.239-5.37,3.939-6.064,7.2c-1.933,9.076-3.385,18.285-4.316,27.37c-0.339,3.309,0.99,6.57,3.546,8.7l14.454,12.048
			c-0.051,1.967-0.075,3.872-0.075,5.748s0.024,3.781,0.075,5.748L3.6,273.798c-2.556,2.13-3.885,5.39-3.546,8.7
			c0.929,9.084,2.381,18.292,4.316,27.37c0.694,3.261,2.969,5.962,6.065,7.2l17.428,6.974c1.1,3.695,2.296,7.376,3.576,11.015
			l-10.007,15.897c-1.776,2.821-2.03,6.34-0.677,9.386c3.744,8.43,7.98,16.73,12.59,24.668c1.67,2.878,4.663,4.735,7.983,4.956
			l18.775,1.251c2.181,3.153,4.444,6.263,6.771,9.305l-4.604,18.206c-0.816,3.231,0.029,6.655,2.256,9.134
			c6.16,6.857,12.761,13.458,19.618,19.618c2.481,2.228,5.907,3.069,9.134,2.256l18.206-4.604c3.042,2.328,6.153,4.59,9.305,6.771
			l1.251,18.775c0.221,3.32,2.079,6.313,4.956,7.984c7.943,4.611,16.242,8.847,24.668,12.589c3.046,1.35,6.566,1.097,9.386-0.677
			l15.897-10.007c3.639,1.28,7.321,2.475,11.015,3.576l6.974,17.428c1.238,3.095,3.939,5.371,7.2,6.065
			c9.078,1.934,18.286,3.386,27.37,4.316c3.306,0.334,6.571-0.99,8.7-3.546l12.047-14.453c3.934,0.102,7.562,0.102,11.496,0
			l12.047,14.453c1.91,2.292,4.732,3.598,7.681,3.598c0.338,0,0.679-0.018,1.02-0.053c9.084-0.929,18.292-2.381,27.37-4.316
			c3.261-0.694,5.962-2.969,7.2-6.065l6.974-17.428c3.695-1.1,7.376-2.296,11.015-3.576l15.897,10.007
			c2.819,1.775,6.338,2.028,9.386,0.677c8.426-3.742,16.725-7.978,24.668-12.589c2.877-1.671,4.735-4.664,4.956-7.984l1.251-18.775
			c3.153-2.181,6.263-4.444,9.305-6.771l18.206,4.604c3.228,0.811,6.654-0.029,9.134-2.256c6.857-6.16,13.458-12.761,19.618-19.618
			c2.227-2.48,3.072-5.904,2.256-9.134l-4.604-18.206c2.328-3.042,4.59-6.153,6.771-9.305l18.775-1.251
			c3.32-0.221,6.312-2.078,7.983-4.956c4.611-7.939,8.846-16.238,12.59-24.668c1.352-3.046,1.098-6.566-0.677-9.386l-10.007-15.897
			c1.28-3.639,2.475-7.321,3.576-11.015l17.428-6.974c3.095-1.238,5.371-3.939,6.065-7.2c1.934-9.078,3.386-18.286,4.316-27.37
			C512.288,279.188,510.959,275.927,508.403,273.797z M474.029,255.998c0,3.118-0.076,6.339-0.231,9.85
			c-0.139,3.12,1.189,6.125,3.588,8.125l14.073,11.729c-0.619,4.925-1.4,9.875-2.337,14.801l-16.957,6.786
			c-2.906,1.162-5.099,3.617-5.928,6.634c-1.739,6.324-3.791,12.648-6.102,18.794c-1.101,2.927-0.769,6.2,0.897,8.846l9.736,15.468
			c-2.127,4.515-4.403,8.973-6.803,13.332l-18.272,1.217c-3.116,0.207-5.957,1.859-7.679,4.464
			c-3.611,5.463-7.511,10.824-11.592,15.932c-1.953,2.444-2.65,5.661-1.883,8.693l4.48,17.718
			c-3.427,3.649-6.981,7.202-10.629,10.629l-17.718-4.48c-3.027-0.763-6.247-0.07-8.693,1.883
			c-5.109,4.081-10.469,7.982-15.932,11.592c-2.606,1.722-4.257,4.563-4.464,7.679l-1.217,18.271
			c-4.361,2.402-8.818,4.677-13.332,6.804l-15.468-9.736c-2.647-1.666-5.919-1.999-8.846-0.897
			c-6.147,2.311-12.47,4.364-18.794,6.102c-3.017,0.829-5.472,3.023-6.634,5.928l-6.786,16.957
			c-4.926,0.937-9.876,1.718-14.801,2.337l-11.729-14.073c-1.905-2.285-4.722-3.598-7.681-3.598c-0.147,0-0.296,0.003-0.444,0.01
			c-3.511,0.155-6.733,0.231-9.85,0.231c-3.118,0-6.339-0.076-9.85-0.231c-3.122-0.147-6.126,1.189-8.125,3.588l-11.729,14.073
			c-4.925-0.619-9.875-1.4-14.801-2.337l-6.786-16.957c-1.162-2.906-3.617-5.099-6.634-5.928
			c-6.324-1.739-12.648-3.791-18.794-6.102c-2.928-1.101-6.2-0.769-8.846,0.897l-15.468,9.736
			c-4.514-2.127-8.971-4.403-13.332-6.804l-1.217-18.271c-0.207-3.116-1.859-5.957-4.464-7.679
			c-5.463-3.611-10.824-7.511-15.932-11.592c-2.446-1.954-5.664-2.648-8.693-1.883l-17.718,4.48
			c-3.649-3.427-7.202-6.981-10.629-10.629l4.48-17.718c0.766-3.032,0.07-6.249-1.883-8.693
			c-4.081-5.109-7.982-10.469-11.592-15.932c-1.722-2.606-4.563-4.257-7.679-4.464l-18.272-1.217
			c-2.401-4.359-4.676-8.817-6.803-13.332l9.736-15.468c1.666-2.647,1.998-5.919,0.897-8.846c-2.311-6.147-4.364-12.47-6.102-18.794
			c-0.829-3.017-3.023-5.472-5.928-6.634l-16.957-6.786c-0.937-4.926-1.718-9.876-2.337-14.801l14.073-11.729
			c2.4-2,3.727-5.005,3.588-8.125c-0.155-3.511-0.231-6.733-0.231-9.85s0.076-6.339,0.231-9.85c0.139-3.12-1.189-6.125-3.588-8.125
			l-14.073-11.73c0.619-4.925,1.4-9.874,2.337-14.8l16.958-6.787c2.905-1.162,5.098-3.616,5.927-6.633
			c1.74-6.327,3.792-12.65,6.102-18.793c1.101-2.927,0.769-6.2-0.897-8.846l-9.736-15.468c2.128-4.514,4.403-8.972,6.803-13.331
			l18.273-1.217c3.115-0.207,5.956-1.859,7.678-4.464c3.611-5.463,7.511-10.824,11.592-15.932c1.953-2.444,2.65-5.661,1.883-8.693
			l-4.48-17.718c3.426-3.647,6.98-7.201,10.628-10.628l17.719,4.48c3.031,0.769,6.249,0.072,8.693-1.882
			c5.108-4.081,10.468-7.981,15.932-11.593c2.606-1.722,4.257-4.562,4.464-7.678l1.217-18.272c4.361-2.402,8.818-4.676,13.332-6.803
			l15.468,9.737c2.647,1.665,5.918,1.997,8.847,0.897c6.145-2.31,12.468-4.363,18.793-6.102c3.017-0.83,5.472-3.023,6.634-5.928
			l6.786-16.958c4.927-0.937,9.876-1.717,14.8-2.336l11.73,14.074c2,2.4,5.031,3.719,8.126,3.588
			c3.514-0.156,6.736-0.232,9.849-0.232c3.114,0,6.335,0.076,9.849,0.232c3.113,0.133,6.127-1.188,8.126-3.588l11.73-14.074
			c4.924,0.619,9.873,1.399,14.8,2.336l6.786,16.958c1.162,2.905,3.617,5.098,6.634,5.928c6.325,1.739,12.648,3.791,18.793,6.102
			c2.93,1.101,6.201,0.768,8.847-0.897l15.468-9.737c4.514,2.127,8.971,4.401,13.332,6.803l1.217,18.272
			c0.207,3.116,1.859,5.956,4.464,7.678c5.464,3.612,10.825,7.512,15.932,11.593c2.443,1.952,5.661,2.646,8.693,1.882l17.719-4.48
			c3.649,3.427,7.202,6.982,10.628,10.628l-4.48,17.718c-0.766,3.032-0.07,6.249,1.883,8.693
			c4.081,5.108,7.982,10.468,11.592,15.932c1.722,2.605,4.563,4.256,7.678,4.464l18.273,1.217c2.401,4.359,4.675,8.817,6.803,13.331
			l-9.736,15.468c-1.666,2.646-1.998,5.919-0.897,8.846c2.31,6.143,4.363,12.465,6.102,18.793c0.829,3.016,3.023,5.47,5.927,6.633
			l16.958,6.787c0.937,4.926,1.718,9.874,2.337,14.8l-14.073,11.73c-2.4,2-3.727,5.005-3.588,8.125
			C473.953,249.659,474.029,252.88,474.029,255.998z"/>
	</g>
</g>
<g>
	<g>
		<path d="M256.001,360.002c-16.542,0-30,13.458-30,30s13.458,30,30,30s30-13.458,30-30S272.543,360.002,256.001,360.002z
			 M256.001,400.002c-5.514,0-10-4.486-10-10c0-5.514,4.486-10,10-10c5.514,0,10,4.486,10,10
			C266.001,395.516,261.515,400.002,256.001,400.002z"/>
	</g>
</g>
<g>
	<g>
		<path d="M390.001,226.002c-16.542,0-30,13.458-30,30s13.458,30,30,30s30-13.458,30-30S406.543,226.002,390.001,226.002z
			 M390.001,266.002c-5.514,0-10-4.486-10-10c0-5.514,4.486-10,10-10c5.514,0,10,4.485,10,10
			C400.001,261.516,395.515,266.002,390.001,266.002z"/>
	</g>
</g>
<g>
	<g>
		<path d="M122.001,226.002c-16.542,0-30,13.458-30,30s13.458,30,30,30s30-13.458,30-30S138.543,226.002,122.001,226.002z
			 M122.001,266.002c-5.514,0-10-4.486-10-10c0-5.514,4.486-10,10-10s10,4.485,10,10
			C132.001,261.516,127.515,266.002,122.001,266.002z"/>
	</g>
</g>
<g>
	<g>
		<path d="M371.967,140.036c-11.696-11.695-30.728-11.697-42.427,0c-11.696,11.698-11.696,30.73,0,42.427
			c5.849,5.848,13.531,8.772,21.213,8.772c7.683,0,15.366-2.924,21.214-8.772C383.663,170.765,383.663,151.733,371.967,140.036z
			 M357.824,168.32c-1.888,1.889-4.399,2.929-7.07,2.929c-2.672,0-5.182-1.04-7.071-2.929c-1.889-1.889-2.929-4.4-2.929-7.071
			s1.04-5.182,2.929-7.071c1.888-1.889,4.399-2.929,7.071-2.929c2.671,0,5.182,1.04,7.07,2.929c1.889,1.889,2.93,4.4,2.93,7.071
			S359.713,166.431,357.824,168.32z"/>
	</g>
</g>
<g>
	<g>
		<path d="M182.462,329.541c-11.698-11.698-30.731-11.696-42.427,0c-11.696,11.698-11.696,30.73,0,42.427
			c5.849,5.848,13.531,8.772,21.214,8.772c7.682,0,15.365-2.924,21.213-8.772C194.158,360.27,194.158,341.238,182.462,329.541z
			 M168.319,357.825c-1.888,1.889-4.399,2.93-7.071,2.93c-2.671,0-5.181-1.042-7.07-2.93s-2.93-4.399-2.93-7.07
			c0-2.672,1.042-5.182,2.93-7.071s4.399-2.929,7.07-2.929c2.672,0,5.182,1.041,7.071,2.929c1.889,1.888,2.929,4.399,2.929,7.071
			C171.248,353.426,170.207,355.936,168.319,357.825z"/>
	</g>
</g>
<g>
	<g>
		<path d="M371.967,329.541c-11.696-11.696-30.728-11.698-42.427,0c-11.696,11.698-11.696,30.73,0,42.427
			c5.849,5.848,13.531,8.772,21.213,8.772c7.683,0,15.366-2.924,21.214-8.772C383.663,360.27,383.663,341.238,371.967,329.541z
			 M357.824,357.825c-1.888,1.889-4.399,2.93-7.07,2.93c-2.672,0-5.182-1.042-7.071-2.93s-2.929-4.399-2.929-7.07
			c0-2.672,1.041-5.182,2.929-7.071s4.399-2.929,7.071-2.929c2.671,0,5.181,1.041,7.07,2.929c1.889,1.888,2.93,4.399,2.93,7.071
			C360.754,353.426,359.712,355.936,357.824,357.825z"/>
	</g>
</g>
<g>
	<g>
		<path d="M182.462,140.036c-11.698-11.697-30.731-11.695-42.427,0c-11.696,11.698-11.696,30.73,0,42.427
			c5.849,5.848,13.531,8.772,21.214,8.772c7.682,0,15.365-2.924,21.213-8.772C194.158,170.765,194.158,151.733,182.462,140.036z
			 M168.319,168.32c-1.888,1.889-4.399,2.929-7.071,2.929c-2.671,0-5.181-1.04-7.07-2.929c-1.889-1.889-2.93-4.4-2.93-7.071
			s1.041-5.182,2.93-7.071c1.888-1.889,4.399-2.929,7.07-2.929c2.672,0,5.183,1.04,7.071,2.929c1.889,1.889,2.929,4.4,2.929,7.071
			S170.208,166.431,168.319,168.32z"/>
	</g>
</g>
<g>
</g>
<g>
</g>
<g>
</g>
<g>
</g>
<g>
</g>
<g>
</g>
<g>
</g>
<g>
</g>
<g>
</g>
<g>
</g>
<g>
</g>
<g>
</g>
<g>
</g>
<g>
</g>
<g>
</g>
</svg>
