<svg height="496pt" viewBox="0 -56 496 496" width="496pt" xmlns="http://www.w3.org/2000/svg"><path d="m96 272c22.054688 0 40-17.945312 40-40s-17.945312-40-40-40-40 17.945312-40 40 17.945312 40 40 40zm0-64c13.230469 0 24 10.769531 24 24s-10.769531 24-24 24-24-10.769531-24-24 10.769531-24 24-24zm0 0"/><path d="m400 192c-22.054688 0-40 17.945312-40 40s17.945312 40 40 40 40-17.945312 40-40-17.945312-40-40-40zm0 64c-13.230469 0-24-10.769531-24-24s10.769531-24 24-24 24 10.769531 24 24-10.769531 24-24 24zm0 0"/><path d="m64 288h64v16h-64zm0 0"/><path d="m368 288h64v16h-64zm0 0"/><path d="m448 160c12.769531 0 24.824219-4.96875 34.007812-14.054688 9.023438-9.121093 13.992188-21.175781 13.992188-33.945312 0-8.824219-7.175781-16-16-16h-61.265625l-16.832031-56.054688c-7.148438-23.898437-28.695313-39.945312-53.582032-39.945312h-200.640624c-24.886719 0-46.433594 16.046875-53.582032 39.9375l-16.832031 56.0625h-61.265625c-8.824219 0-16 7.175781-16 16 0 12.769531 4.96875 24.824219 14.054688 34.007812 9.121093 9.023438 21.175781 13.992188 33.945312 13.992188h10.046875l-1.039063 3.457031c-20.953124 16.839844-33.007812 41.605469-33.007812 68.542969v80c0 13.230469 10.769531 24 24 24h16v24c0 13.230469 10.769531 24 24 24h48c13.230469 0 24-10.769531 24-24v-24h176v24c0 13.230469 10.769531 24 24 24h48c13.230469 0 24-10.769531 24-24v-24h16c13.230469 0 24-10.769531 24-24v-80c0-26.9375-12.054688-51.703125-33.007812-68.542969l-1.039063-3.457031zm32-48c0 8.527344-3.328125 16.59375-9.304688 22.632812-6.109374 6.039063-14.175781 9.367188-22.695312 9.367188h-14.847656l-9.609375-32zm-370.574219-67.464844c5.101563-17.0625 20.476563-28.535156 38.253907-28.535156h200.640624c17.777344 0 33.152344 11.472656 38.253907 28.535156l32.042969 106.710938c-6.425782-2.75-13.191407-4.671875-20.175782-5.847656l-27.457031-95.949219c-2.863281-10.273438-12.351563-17.449219-23.0625-17.449219h-35.921875v16h35.921875c3.558594 0 6.710937 2.367188 7.664063 5.800781l25.796874 90.199219h-266.765624l25.808593-90.246094c.941407-3.386718 4.085938-5.753906 7.652344-5.753906h147.921875v-16h-147.921875c-10.710937 0-20.191406 7.175781-23.054687 17.398438l-27.457032 96c-6.972656 1.167968-13.742187 3.089843-20.175781 5.847656zm66.574219 275.464844h-16v-24c0-10.414062 6.710938-19.214844 16-22.527344zm16-48h16v48h-16zm32 0h16v48h-16zm48-112h16v32h-16zm-16 32h-92.238281c-8.992188 0-17.433594-5.214844-21.488281-13.246094l-9.34375-18.753906h123.070312zm56 64h-8v-48h16v48.910156c-2.632812-.550781-5.304688-.910156-8-.910156zm-8-64v-32h16v32zm-16 16v48h-16v-48zm-32 64h16v48h-16zm32 0h16v48h-16zm32 1.574219c1.351562.488281 2.71875.9375 4.015625 1.683593 7.390625 4.246094 11.984375 12.199219 11.984375 20.742188v24h-16zm16-113.574219h27.070312l-9.335937 18.71875c-3.496094 6.929688-10.214844 11.730469-17.742187 12.953125v-31.671875zm-288-16c-8.519531 0-16.585938-3.328125-22.632812-9.304688-6.039063-6.101562-9.367188-14.167968-9.367188-22.695312h56.457031l-9.609375 32zm-8 168v-80c0-22.824219 10.496094-43.816406 28.816406-57.609375 10.40625-7.839844 22.855469-12.695313 35.902344-14.023437 2.410156-.214844 4.800781-.367188 7.28125-.367188h3.054688l12.929687 25.921875c6.75 13.414063 20.800781 22.078125 35.777344 22.078125h92.238281v48h-72c-22.054688 0-40 17.945312-40 40v24h-96c-4.414062 0-8-3.59375-8-8zm104 48c0 4.40625-3.585938 8-8 8h-48c-4.414062 0-8-3.59375-8-8v-24h64zm272 0c0 4.40625-3.585938 8-8 8h-48c-4.414062 0-8-3.59375-8-8v-24h64zm40-128v80c0 4.40625-3.585938 8-8 8h-96v-24c0-12.632812-6.039062-24.464844-16-31.9375v-56.335938c13.527344-1.3125 25.839844-9.535156 32.039062-21.839843l12.90625-25.886719h3.054688c2.480469 0 4.871094.152344 7.183594.351562 13.144531 1.335938 25.59375 6.191407 36 14.03125 18.320312 13.800782 28.816406 34.792969 28.816406 57.617188zm0 0"/><path d="m266.339844 114.347656 47.996094-48 11.3125 11.3125-47.996094 48zm0 0"/><path d="m218.339844 114.347656 47.996094-48 11.3125 11.3125-47.996094 48zm0 0"/><path d="m170.339844 114.34375 47.996094-47.996094 11.316406 11.3125-48 48zm0 0"/></svg>