<svg height="512pt" viewBox="0 -76 512 512" width="512pt" xmlns="http://www.w3.org/2000/svg"><path d="m422 90v30h-31v-60h-90v-30h60v-30h-240v30h60v30h-51.214844l-68.785156 68.785156v21.214844h-31v-30h-30v180h30v-30h31v21.214844l68.785156 68.785156h261.214844v-60h31v30h90v-240zm-211-60h60v30h-60zm-181 210v-60h31v60zm361 30v-45h-30v105h-218.785156l-51.214844-51.214844v-137.570312l51.214844-51.214844h218.785156v90h30v-30h31v120zm91 30h-30v-180h30zm0 0"/><path d="m316.226562 221.664062s-94.917968-86.109374-94.921874-86.109374c-11.054688-10.03125-25.367188-15.554688-40.304688-15.554688-33.085938 0-60 26.914062-60 60 0 21.867188 11.90625 42.015625 31.070312 52.574219l112.230469 61.855469c6.609375 3.644531 14.113281 5.570312 21.699219 5.570312 24.8125 0 45-20.1875 45-45 0-12.667969-5.382812-24.816406-14.773438-33.335938zm-74.621093 26.003907-29.601563-16.316407c13.890625-8.417968 24.097656-22.3125 27.632813-38.664062l25.027343 22.703125c-12.023437 6.5-20.757812 18.316406-23.058593 32.277344zm-90.605469-67.667969c0-16.542969 13.457031-30 30-30 7.46875 0 14.621094 2.761719 20.144531 7.769531 6.261719 5.683594 9.855469 13.785157 9.855469 22.230469 0 16.542969-13.457031 30-30 30-16.644531 0-30-13.507812-30-30zm135 90c-8.378906 0-15-6.8125-15-15 0-8.269531 6.730469-15 15-15 8.035156 0 15 6.453125 15 15 0 8.269531-6.730469 15-15 15zm0 0"/></svg>