<svg height="512pt" viewBox="-76 0 512 512" width="512pt" xmlns="http://www.w3.org/2000/svg"><path d="m307.675781 53.105469c-33.886719-34.085938-79.210937-52.949219-127.625-53.105469h-.050781c-49.066406 0-94.71875 19.050781-128.550781 53.644531-33.175781 33.925781-51.449219 78.855469-51.449219 126.507813 0 28.738281 6.917969 57.324218 20.011719 82.667968 13.199219 25.558594 32.75 47.9375 56.519531 64.699219 8.433594 5.96875 13.46875 16.769531 13.46875 28.894531v43.941407c0 27.925781 19.148438 51.460937 45 58.144531v38.5c0 8.285156 6.714844 15 15 15 8.28125 0 15-6.714844 15-15v-36.601562h30v36.601562c0 8.285156 6.714844 15 15 15 8.28125 0 15-6.714844 15-15v-38.5c25.847656-6.679688 45-30.207031 45-58.085938l.164062-44c0-11.773437 6.585938-23.8125 17.539063-32.144531 45.945313-34.488281 72.296875-87.015625 72.296875-144.117187 0-47.980469-18.582031-93.101563-52.324219-127.046875zm-97.675781 377.292969h-60c-16.542969 0-30-13.476563-30-30.042969v-28.941407h120.109375l-.109375 28.941407c0 16.566406-13.457031 30.042969-30 30.042969zm59.617188-130.0625c-14.042969 10.683593-23.777344 25.386718-27.621094 41.078124h-46.679688v-117.199218h41.34375.191406c23.078126-.105469 41.820313-18.910156 41.820313-42.015625 0-23.167969-18.847656-42.015625-42.011719-42.015625-23.167968 0-42.015625 18.847656-42.015625 42.015625 0 4.175781.613281 8.207031 1.75 12.015625h-32.792969c1.136719-3.808594 1.75-7.839844 1.75-12.015625 0-23.167969-18.847656-42.015625-42.011718-42.015625-23.167969 0-42.015625 18.847656-42.015625 42.015625 0 23.105469 18.742187 41.910156 41.820312 42.015625h.195313 41.976562v117.199218h-46.894531c-3.378906-15.757812-12.042969-29.519531-24.578125-38.394531-19.867188-14.011719-36.179688-32.675781-47.179688-53.96875-10.902343-21.105469-16.664062-44.929687-16.664062-68.898437 0-39.765625 15.234375-77.246094 42.898438-105.53125 28.132812-28.769532 66.164062-44.613282 107.078124-44.621094 40.394532.140625 78.191407 15.855469 106.421876 44.257812 28.117187 28.28125 43.601562 65.890626 43.601562 105.894532 0 47.574218-21.980469 91.355468-60.382812 120.183594zm-44.96875-118.136719c0-6.625 5.386718-12.015625 12.011718-12.015625s12.011719 5.390625 12.011719 12.015625-5.386719 12.015625-12.011719 12.015625-12.011718-5.390625-12.011718-12.015625zm-113.320313 0c0-6.625 5.386719-12.015625 12.011719-12.015625s12.011718 5.390625 12.011718 12.015625-5.386718 12.015625-12.011718 12.015625-12.011719-5.390625-12.011719-12.015625zm0 0"/></svg>