<?xml version="1.0" encoding="iso-8859-1"?>
<!-- Generator: Adobe Illustrator 21.0.0, SVG Export Plug-In . SVG Version: 6.00 Build 0)  -->
<svg xmlns="http://www.w3.org/2000/svg" xmlns:xlink="http://www.w3.org/1999/xlink" version="1.1" id="Capa_1" x="0px" y="0px" viewBox="0 0 511.759 511.759" style="enable-background:new 0 0 511.759 511.759;" xml:space="preserve" width="512" height="512">
<path d="M507.365,13.048c-5.857-5.857-15.355-5.857-21.213,0l-20.104,20.104l-13.67-13.67c-5.857-5.857-15.355-5.857-21.213,0  c0,0-136.357,136.635-137.002,137.757c-8.261-3.324-17.175-5.076-26.372-5.076c-18.271,0.001-35.428,6.886-48.525,19.393  l-4.797-4.797c-5.857-5.857-15.355-5.857-21.213,0l-48.553,48.553c-5.858,5.857-5.858,15.355,0,21.213l22.571,22.571l-27.339,27.34  l-8.005-8.005c-5.857-5.857-15.355-5.857-21.213,0c-5.858,5.857-5.858,15.355,0,21.213l8.006,8.005l-37.946,37.947l-66.354,66.354  C5.122,421.25,0,433.639,0,446.834c0,13.196,5.122,25.585,14.422,34.885l16.991,16.991c2.929,2.929,6.768,4.394,10.606,4.394  s7.678-1.465,10.606-4.394c5.858-5.857,5.858-15.355,0-21.213l-16.992-16.992C32.001,456.872,30,452.017,30,446.834  c0-5.182,2.001-10.037,5.636-13.672l55.747-55.747l15.202,15.202L96.151,403.05c-5.858,5.857-5.858,15.355,0,21.213  c2.929,2.93,6.767,4.394,10.606,4.394c3.838,0,7.678-1.465,10.606-4.394l10.433-10.433l25.808,25.808  c2.929,2.929,6.768,4.394,10.606,4.394s7.678-1.465,10.606-4.394l37.947-37.947l8.005,8.005c2.929,2.929,6.768,4.394,10.606,4.394  s7.678-1.465,10.606-4.394c5.858-5.857,5.858-15.355,0-21.213l-8.005-8.005l27.339-27.339l22.571,22.571  c2.813,2.813,6.628,4.394,10.606,4.394c3.979,0,7.793-1.58,10.606-4.394l48.553-48.554c5.858-5.857,5.858-15.355,0-21.213  l-4.797-4.797c19.572-20.499,24.358-50.006,14.323-74.899c1.12-0.645,137.752-136.999,137.752-136.999  c5.858-5.857,5.858-15.355,0-21.213l-13.67-13.67l20.104-20.104C513.223,28.404,513.223,18.905,507.365,13.048z M164.211,407.819  l-51.616-51.616l27.34-27.34l51.616,51.616L164.211,407.819z M212.765,359.266l-51.617-51.616l27.339-27.339l51.617,51.617  L212.765,359.266z M294.494,343.891L176.523,225.919l27.339-27.34L321.834,316.55L294.494,343.891z M240.479,192.77  c7.425-6.849,17.056-10.607,27.311-10.607c10.81,0,20.931,4.169,28.501,11.738l30.22,30.221  c15.325,15.325,15.697,40.02,1.131,55.811L240.479,192.77z M346.284,201.469l-27.34-27.34L441.771,51.302l27.34,27.34  L346.284,201.469z"/>















</svg>
