<svg height="512pt" viewBox="0 0 512 512" width="512pt" xmlns="http://www.w3.org/2000/svg"><path d="m469.742188 0h-427.488282c-23.296875 0-42.253906 18.957031-42.253906 42.257812v.113282c0 18.050781 11.378906 33.496094 27.34375 39.535156v297.273438c0 22.339843 18.1875 40.515624 40.539062 40.515624h160.476563l-44.9375 69.128907c-4.515625 6.945312-2.542969 16.234375 4.402344 20.75 6.945312 4.515625 16.234375 2.542969 20.75-4.402344l32.425781-49.878906v41.226562c0 8.285157 6.714844 15 14.996094 15 8.285156 0 15-6.714843 15-15v-41.226562l32.425781 49.878906c2.871094 4.421875 7.683594 6.828125 12.589844 6.828125 2.800781 0 5.636719-.785156 8.160156-2.425781 6.945313-4.515625 8.917969-13.804688 4.402344-20.75l-44.9375-69.128907h160.472656c22.355469 0 40.542969-18.175781 40.542969-40.515624v-297.273438c15.964844-6.039062 27.34375-21.484375 27.34375-39.535156v-.113282c0-23.300781-18.953125-42.257812-42.253906-42.257812zm-439.742188 42.257812c0-6.761718 5.496094-12.257812 12.253906-12.257812h427.488282c6.757812 0 12.253906 5.496094 12.253906 12.257812v.113282c0 6.757812-5.496094 12.253906-12.253906 12.253906h-427.488282c-6.757812 0-12.253906-5.496094-12.253906-12.253906zm424.65625 336.925782c0 5.796875-4.730469 10.511718-10.542969 10.511718h-376.230469c-5.8125 0-10.539062-4.714843-10.539062-10.511718v-294.558594h397.3125zm0 0"/><path d="m94.007812 307.539062c8.28125 0 15-6.714843 15-15v-18.65625h26.59375c8.28125 0 15-6.714843 15-15 0-8.28125-6.71875-15-15-15h-26.59375v-16.527343h26.59375c8.28125 0 15-6.714844 15-15 0-8.285157-6.71875-15-15-15h-31.039062c-14.09375 0-25.558594 11.464843-25.558594 25.558593v69.625c.003906 8.285157 6.71875 15 15.003906 15zm0 0"/><path d="m251.28125 307.539062c8.285156 0 15-6.714843 15-15v-32.988281l2.4375 3.476563.371094.5c3.125 4.085937 8.0625 6.523437 13.207031 6.523437s10.082031-2.4375 13.207031-6.523437l2.808594-3.976563v32.988281c0 8.285157 6.71875 15 15 15 8.285156 0 15-6.714843 15-15v-76.046874c0-7.035157-4.476562-13.277344-11.136719-15.535157-6.664062-2.253906-14.011719-.019531-18.285156 5.566407l-16.59375 23.621093-16.222656-23.121093-.367188-.5c-4.277343-5.585938-11.625-7.824219-18.285156-5.566407-6.664063 2.257813-11.140625 8.5-11.140625 15.535157v76.046874c0 8.285157 6.714844 15 15 15zm0 0"/><path d="m401.980469 200.089844h-23.738281c-17.101563 0-31.011719 13.910156-31.011719 31.011718v61.4375c0 8.285157 6.714843 15 15 15 8.28125 0 15-6.714843 15-15v-14.371093h25.761719v14.371093c0 8.285157 6.714843 15 15 15 8.28125 0 15-6.714843 15-15v-61.4375c0-17.101562-13.914063-31.011718-31.011719-31.011718zm-24.75 48.078125v-17.066407c0-.558593.453125-1.011718 1.011719-1.011718h23.738281c.558593 0 1.011719.453125 1.011719 1.011718v17.066407zm0 0"/><path d="m183.386719 248.679688h18.316406c8.285156 0 15-6.714844 15-15 0-8.285157-6.714844-15-15-15h-18.316406c-8.285157 0-15 6.714843-15 15 0 8.285156 6.714843 15 15 15zm0 0"/><path d="m183.386719 290.484375h18.316406c8.285156 0 15-6.71875 15-15 0-8.285156-6.714844-15-15-15h-18.316406c-8.285157 0-15 6.714844-15 15 0 8.28125 6.714843 15 15 15zm0 0"/><path d="m94.007812 182.78125h41.59375c8.28125 0 15-6.714844 15-15 0-8.28125-6.71875-15-15-15h-41.59375c-8.285156 0-15 6.71875-15 15 0 8.285156 6.714844 15 15 15zm0 0"/><path d="m361.914062 182.78125h56.078126c8.28125 0 15-6.714844 15-15 0-8.28125-6.71875-15-15-15h-56.078126c-8.285156 0-15 6.71875-15 15 0 8.285156 6.714844 15 15 15zm0 0"/></svg>