<svg height="512pt" viewBox="0 -31 512 512" width="512pt" xmlns="http://www.w3.org/2000/svg"><path d="m512 280.394531-68.046875-100.394531h-22.953125v-15c0-24.8125-20.1875-45-45-45s-45 20.1875-45 45v15h-30v61.074219c-3.085938.445312-6.132812 1.019531-9.128906 1.726562l-180.71875-225.898437s0-.003906-.003906-.003906c-.484376-.605469-.984376-1.199219-1.496094-1.777344l-.011719-.011719c-8.539063-9.601563-20.800781-15.109375-33.640625-15.109375-24.8125 0-45 20.1875-45 45 0 10.179688 3.496094 20.15625 9.847656 28.097656l20.152344 25.191406v84.28125c-17.460938 6.191407-30 22.871094-30 42.429688 0 24.8125 20.1875 45 45 45s45-20.1875 45-45h-30c0 8.269531-6.730469 15-15 15s-15-6.730469-15-15 6.730469-15 15-15h15v-74.210938l130.605469 163.257813c-4.691407 9.59375-7.957031 20.003906-9.53125 30.953125h-9.859375l-30-30h-72.429688l-30 30h-69.785156v90h93.578125c6.195313 17.460938 22.867187 30 42.421875 30s36.226562-12.539062 42.421875-30h185.15625c6.195313 17.460938 22.867187 30 42.421875 30s36.226562-12.539062 42.421875-30h63.578125zm-43.289062-10.394531h-77.710938v-60h37.046875zm-107.710938-105c0-8.269531 6.730469-15 15-15s15 6.730469 15 15v15h-30zm-285-135c4.34375 0 8.328125 1.792969 11.222656 5.042969.171875.199219.34375.398437.503906.601562 1.492188 1.867188 3.273438 5.003907 3.273438 9.355469 0 8.269531-6.730469 15-15 15-4.34375 0-8.328125-1.792969-11.210938-5.03125-.175781-.199219-.351562-.40625-.515624-.613281-1.492188-1.867188-3.273438-5.003907-3.273438-9.355469 0-8.269531 6.730469-15 15-15zm14.78125 57.492188c9.777344-3.410157 18.027344-10.101563 23.421875-18.753907l148.609375 185.761719c-8.679688 5.121094-16.5625 11.453125-23.414062 18.765625zm210.21875 184.015624v58.492188h-58.492188c5.980469-29.34375 29.148438-52.511719 58.492188-58.492188zm-165 148.492188c-8.269531 0-15-6.730469-15-15s6.730469-15 15-15 15 6.730469 15 15-6.730469 15-15 15zm270 0c-8.269531 0-15-6.730469-15-15s6.730469-15 15-15 15 6.730469 15 15-6.730469 15-15 15zm42.421875-30c-6.195313-17.460938-22.867187-30-42.421875-30s-36.226562 12.539062-42.421875 30h-185.15625c-6.195313-17.460938-22.867187-30-42.421875-30s-36.226562 12.539062-42.421875 30h-63.578125v-30h52.214844l30-30h47.570312l30 30h141.214844v-150h30v90h121v30h-31v30h31v30zm0 0"/><path d="m361 30h30v60h-30zm0 0"/><path d="m446.605469 58.175781 21.210937 21.214844-42.425781 42.425781-21.210937-21.214844zm0 0"/><path d="m305.394531 58.175781 42.425781 42.425781-21.214843 21.214844-42.425781-42.425781zm0 0"/></svg>