<?xml version="1.0" encoding="iso-8859-1"?>
<!-- Generator: Adobe Illustrator 21.0.0, SVG Export Plug-In . SVG Version: 6.00 Build 0)  -->
<svg xmlns="http://www.w3.org/2000/svg" xmlns:xlink="http://www.w3.org/1999/xlink" version="1.1" id="Capa_1" x="0px" y="0px" viewBox="0 0 512 512" style="enable-background:new 0 0 512 512;" xml:space="preserve" width="512" height="512">
<path d="M497,159.5h-29.185c-2.024-21.842-20.454-39-42.815-39h-51v-15c0-24.813-20.187-45-45-45H183c-24.813,0-45,20.187-45,45v15  H87c-22.361,0-40.791,17.158-42.815,39H15c-8.284,0-15,6.716-15,15v79c0,8.284,6.716,15,15,15h15v138.011  c0,24.808,20.182,44.989,44.989,44.989h362.021c24.807,0,44.989-20.182,44.989-44.989V268.5h15c8.284,0,15-6.716,15-15v-79  C512,166.216,505.284,159.5,497,159.5z M168,105.5c0-8.271,6.729-15,15-15h146c8.271,0,15,6.729,15,15v15H168V105.5z M452,406.511  c0,8.266-6.724,14.989-14.989,14.989H74.989C66.724,421.5,60,414.776,60,406.511V268.5h30v29.011c0,8.284,6.716,15,15,15h60  c8.284,0,15-6.716,15-15V268.5h152v29.011c0,8.284,6.716,15,15,15h60c8.284,0,15-6.716,15-15V268.5h30V406.511z M120,282.511v-42h30  v42H120z M362,282.511v-42h30v42H362z M482,238.5h-60v-12.989c0-8.284-6.716-15-15-15h-60c-8.284,0-15,6.716-15,15V238.5H180  v-12.989c0-8.284-6.716-15-15-15h-60c-8.284,0-15,6.716-15,15V238.5H30v-49h29c8.284,0,15-6.716,15-15v-11c0-7.168,5.832-13,13-13  h338c7.168,0,13,5.832,13,13v11c0,8.284,6.716,15,15,15h29V238.5z"/>















</svg>
