<?xml version="1.0" encoding="iso-8859-1"?>
<!-- Generator: Adobe Illustrator 21.0.0, SVG Export Plug-In . SVG Version: 6.00 Build 0)  -->
<svg xmlns="http://www.w3.org/2000/svg" xmlns:xlink="http://www.w3.org/1999/xlink" version="1.1" id="Capa_1" x="0px" y="0px" viewBox="0 0 512.169 512.169" style="enable-background:new 0 0 512.169 512.169;" xml:space="preserve" width="512" height="512">
<path style="fill-rule:evenodd;clip-rule:evenodd;" d="M100.246,422.168c4.829-28.813,25.196-54.714,54.04-59.304  c6.343-34.728,36.834-60.695,72.8-60.695h13.998V190.169h-28.003c-8.09,0-14.682-6.404-14.988-14.419  c-4.156-32.97-7.126-66.089-11.298-99.047c-2.52-19.91,3.166-38.472,16.395-53.48c27.292-30.965,78.469-30.965,105.758,0.003  c13.229,15.013,18.914,33.576,16.391,53.486c-3.705,29.236-7.517,69.32-11.44,100.332c-0.956,7.557-7.4,13.078-14.824,13.068  l-27.991,0.057v111.999h13.997c35.966,0,66.457,25.967,72.801,60.695c28.843,4.59,49.212,30.491,54.04,59.305  c41.654,0,68.162,35.497,68.162,75.001c0,8.284-6.716,15-15,15h-418c-8.284,0-15-6.716-15-15c0-20.588,6.677-38.599,18.707-52.471  C63.901,429.581,80.315,422.168,100.246,422.168L100.246,422.168z M238.471,33.364c-9.474,4.279-17.749,13.666-20.796,23.577  c-1.529,4.975-1.949,10.342-1.231,16.012c3.537,27.95,6.647,59.562,9.872,87.215h59.519c3.212-27.643,6.322-59.315,9.857-87.207  c1.442-11.378-1.623-21.285-9.242-29.931C274.889,29.914,254.107,26.302,238.471,33.364L238.471,33.364z M185.379,362.169H326.79  c-5.954-17.621-22.612-30-41.708-30h-57.995C207.992,332.169,191.331,344.548,185.379,362.169L185.379,362.169z M130.852,422.168  h250.465c-4.005-15.336-15.886-29.999-32.229-29.999c-62.003,0-124.005,0-186.007,0  C146.738,392.169,134.857,406.833,130.852,422.168L130.852,422.168z M98.253,452.169c-17.013,0-29.871,14.081-34.289,30h384.241  c-4.417-15.92-17.276-30-34.289-30C308.695,452.169,203.474,452.169,98.253,452.169z"/>















</svg>
