<svg height="512pt" viewBox="0 -46 512 512" width="512pt" xmlns="http://www.w3.org/2000/svg"><path d="m482 30v-30s-135.089844 0-143.5 0l-74.339844 99.117188-119.789062-95.832032-18.742188 23.429688 54.371094 43.496094v49.789062c-6.808594 0-68.035156 0-75 0-57.898438 0-105 47.101562-105 105v45c0 33.085938 26.914062 60 60 60s60-26.914062 60-60v-45c0-8.269531 6.730469-15 15-15h12.703125l-30 210h245.59375l-31.785156-222.484375 83.757812-167.515625zm-272 64.210938 32.238281 25.789062h-32.238281zm53.5 55.789062 90-120h28.230469l-75 150c-3.898438 0-120.292969 0-126.730469 0v-30zm-173.5 75v45c0 16.542969-13.457031 30-30 30s-30-13.457031-30-30v-45c0-41.355469 33.644531-75 75-75h45v30h-15c-24.8125 0-45 20.1875-45 45zm212.988281-15 17.144531 120h-159.265624l17.140624-120zm-150.691406 180 4.285156-30h167.835938l4.285156 30zm0 0"/><path d="m505.984375 112.519531-38.984375-67.515625-38.988281 67.515625c-3.933594 6.8125-6.011719 14.585938-6.011719 22.480469 0 24.8125 20.1875 45 45 45s45-20.1875 45-45c0-7.894531-2.078125-15.671875-6.015625-22.480469zm-38.984375 37.480469c-8.269531 0-15-6.730469-15-15 0-2.671875.671875-5.191406 1.992188-7.480469l13.007812-22.523437 13.007812 22.523437c1.320313 2.289063 1.992188 4.804688 1.992188 7.480469 0 8.269531-6.730469 15-15 15zm0 0"/></svg>