<svg height="512pt" viewBox="0 0 512.002 512" width="512pt" xmlns="http://www.w3.org/2000/svg"><path d="m411.972656 348.226562-92.222656-92.226562 92.226562-92.222656h42.5l57.527344-57.527344-106.253906-106.25-57.523438 57.527344v42.5l-92.226562 92.222656-92.222656-92.222656v-42.5l-57.527344-57.527344-106.25 106.25 57.527344 57.527344h42.5l92.222656 92.222656-92.222656 92.226562h-42.5l-57.527344 57.523438 106.25 106.25 57.523438-57.523438v-42.5l92.226562-92.226562 92.222656 92.226562v42.5l57.527344 57.523438 106.25-106.25-57.527344-57.523438zm-33.695312-278.25 27.472656-27.476562 63.75 63.75-27.472656 27.476562h-30.054688l-33.695312-33.699218zm-335.777344 36.273438 63.75-63.75 27.472656 27.476562v30.050782l-33.695312 33.699218h-30.054688zm63.75 363.25-63.75-63.75 27.472656-27.472656h30.054688l33.695312 33.699218v30.050782zm42.5-84.996094-21.25-21.25 107.25-107.253906-107.25-107.25 21.25-21.25 107.25 107.25 107.25-107.25 21.25 21.25-107.25 107.25 107.25 107.25-21.25 21.25-107.25-107.25zm257 84.996094-27.472656-27.472656v-30.050782l33.695312-33.699218h30.054688l27.472656 27.472656zm0 0"/></svg>