<svg height="512pt" viewBox="0 0 512 512.00034" width="512pt" xmlns="http://www.w3.org/2000/svg"><path d="m469.742188 0h-427.484376c-23.300781 0-42.257812 18.957031-42.257812 42.257812v.113282c0 18.050781 11.378906 33.496094 27.34375 39.535156v297.277344c0 22.335937 18.1875 40.511718 40.542969 40.511718h160.472656l-44.933594 69.128907c-4.519531 6.945312-2.546875 16.234375 4.398438 20.75 6.945312 4.515625 16.238281 2.542969 20.75-4.402344l32.425781-49.878906v41.226562c0 8.28125 6.714844 15 15 15s15-6.71875 15-15v-41.226562l32.425781 49.878906c2.871094 4.421875 7.679688 6.828125 12.589844 6.828125 2.800781 0 5.636719-.785156 8.160156-2.425781 6.945313-4.515625 8.917969-13.808594 4.398438-20.753907l-44.933594-69.125h160.472656c22.355469 0 40.542969-18.175781 40.542969-40.515624v-297.273438c15.964844-6.039062 27.34375-21.484375 27.34375-39.535156v-.113282c0-23.300781-18.957031-42.257812-42.257812-42.257812zm-439.742188 42.257812c0-6.761718 5.5-12.257812 12.257812-12.257812h427.484376c6.761718 0 12.257812 5.496094 12.257812 12.257812v.113282c0 6.757812-5.496094 12.253906-12.257812 12.253906h-427.484376c-6.757812 0-12.257812-5.496094-12.257812-12.253906zm424.65625 336.925782c0 5.796875-4.726562 10.511718-10.542969 10.511718h-376.226562c-5.816407 0-10.542969-4.714843-10.542969-10.511718v-294.558594h397.3125zm0 0"/><path d="m256 346.75c60.429688 0 109.589844-49.160156 109.589844-109.589844 0-60.425781-49.160156-109.589844-109.589844-109.589844s-109.589844 49.164063-109.589844 109.589844c0 60.429688 49.160156 109.589844 109.589844 109.589844zm78.171875-124.589844h-63.171875v-63.171875c31.882812 6.105469 57.066406 31.292969 63.171875 63.171875zm-93.171875-63.171875v75.335938c0 9.835937 8.003906 17.835937 17.835938 17.835937h75.335937c-7.035156 36.742188-39.410156 64.59375-78.171875 64.59375-43.886719 0-79.589844-35.707031-79.589844-79.59375 0-38.757812 27.851563-71.136718 64.589844-78.171875zm0 0"/></svg>