<?xml version="1.0" encoding="iso-8859-1"?>
<!-- Generator: Adobe Illustrator 19.0.0, SVG Export Plug-In . SVG Version: 6.00 Build 0)  -->
<svg version="1.1" id="Capa_1" xmlns="http://www.w3.org/2000/svg" xmlns:xlink="http://www.w3.org/1999/xlink" x="0px" y="0px"
	 viewBox="0 0 512 512" style="enable-background:new 0 0 512 512;" xml:space="preserve">
<g>
	<g>
		<path d="M508.706,49.116L462.519,2.929C460.644,1.054,458.1,0,455.448,0H56.539c-2.652,0-5.196,1.054-7.071,2.929L2.929,49.468
			C1.054,51.343,0,53.886,0,56.539v398.923c0,2.652,1.054,5.195,2.929,7.071l46.539,46.538c1.875,1.875,4.418,2.929,7.071,2.929
			h398.909c2.652,0,5.196-1.054,7.071-2.929l46.094-46.095c2.115-1.865,3.387-4.579,3.387-7.501V56.524
			C512,53.646,510.763,50.976,508.706,49.116z M492,451.306L451.306,492H60.681L20,451.319V60.681L60.681,20h390.625L492,60.694
			V451.306z"/>
	</g>
</g>
<g>
	<g>
		<path d="M78.071,48.085c-16.542,0-30,13.458-30,30c0,16.542,13.458,30,30,30s30-13.458,30-30
			C108.071,61.543,94.613,48.085,78.071,48.085z M78.071,88.085c-5.514,0-10-4.486-10-10c0-5.514,4.486-10,10-10
			c5.514,0,10,4.486,10,10C88.071,83.599,83.585,88.085,78.071,88.085z"/>
	</g>
</g>
<g>
	<g>
		<path d="M77.906,403.264c-16.542,0-30,13.458-30,30s13.458,30,30,30s30-13.458,30-30S94.448,403.264,77.906,403.264z
			 M77.906,443.264c-5.514,0-10-4.486-10-10c0-5.514,4.486-10,10-10s10,4.486,10,10C87.906,438.778,83.42,443.264,77.906,443.264z"
			/>
	</g>
</g>
<g>
	<g>
		<path d="M434.258,48.085c-16.542,0-30,13.458-30,30c0,16.542,13.458,30,30,30s30-13.458,30-30
			C464.258,61.543,450.8,48.085,434.258,48.085z M434.258,88.085c-5.514,0-10-4.486-10-10c0-5.514,4.486-10,10-10
			c5.514,0,10,4.486,10,10C444.258,83.599,439.772,88.085,434.258,88.085z"/>
	</g>
</g>
<g>
	<g>
		<path d="M434.094,403.264c-16.542,0-30,13.458-30,30s13.458,30,30,30s30-13.458,30-30S450.636,403.264,434.094,403.264z
			 M434.094,443.264c-5.514,0-10-4.486-10-10c0-5.514,4.486-10,10-10c5.514,0,10,4.486,10,10
			C444.094,438.778,439.608,443.264,434.094,443.264z"/>
	</g>
</g>
<g>
	<g>
		<path d="M403.82,109.667l-0.734-0.739c-3.901-3.91-10.232-3.915-14.143-0.015c-3.909,3.901-3.916,10.233-0.015,14.143l0.677,0.68
			c1.956,1.976,4.531,2.966,7.108,2.966c2.542,0,5.084-0.963,7.034-2.893C407.673,119.924,407.705,113.593,403.82,109.667z"/>
	</g>
</g>
<g>
	<g>
		<path d="M436.698,152.883c-2.74-4.794-8.849-6.459-13.644-3.721c-4.795,2.74-6.461,8.849-3.721,13.644
			c41.906,73.339,29.407,166.327-30.396,226.13c-73.302,73.301-192.572,73.301-265.873,0C87.555,353.428,68,306.217,68,256
			c0-50.216,19.555-97.428,55.064-132.936c60.014-60.017,153.229-72.384,226.682-30.08c4.785,2.757,10.9,1.112,13.656-3.675
			c2.756-4.786,1.111-10.9-3.675-13.656c-81.273-46.808-184.409-33.127-250.806,33.269C69.636,148.208,48,200.441,48,256
			s21.636,107.792,60.921,147.078c40.55,40.55,93.814,60.824,147.079,60.824c53.265,0,106.529-20.274,147.078-60.824
			C469.241,336.915,483.066,234.031,436.698,152.883z"/>
	</g>
</g>
<g>
	<g>
		<path d="M411.331,287.794c-8.407-18.377-24.613-31.097-44.462-34.896l-64.064-12.26l102.293-59.059
			c2.297-1.327,3.973-3.511,4.659-6.072c0.687-2.562,0.327-5.292-0.999-7.588c-10.105-17.502-27.439-28.634-47.559-30.542
			c-20.117-1.904-39.237,5.768-52.452,21.058l-42.649,49.35V89.667c0-5.523-4.477-10-10-10c-20.209,0-38.517,9.446-50.229,25.916
			c-11.712,16.47-14.624,36.864-7.989,55.954l21.414,61.611L117,164.088c-4.781-2.761-10.898-1.123-13.66,3.66
			c-10.105,17.502-11.079,38.08-2.671,56.458s24.613,31.097,44.462,34.896l64.064,12.26l-102.294,59.059
			c-4.783,2.762-6.422,8.877-3.66,13.66c10.105,17.502,27.439,28.635,47.559,30.543c2.024,0.191,4.037,0.286,6.036,0.286
			c17.87,0,34.531-7.592,46.416-21.345l42.649-49.35v118.117c0,5.522,4.477,10,10,10c20.209,0,38.518-9.446,50.229-25.916
			s14.624-36.864,7.989-55.953l-21.413-61.611L395,347.912c1.534,0.886,3.26,1.34,5,1.34c0.866,0,1.736-0.112,2.588-0.341
			c2.562-0.687,4.746-2.362,6.072-4.659C418.765,326.75,419.739,306.172,411.331,287.794z M216.772,154.971
			c-4.482-12.896-2.516-26.673,5.396-37.798c5.923-8.329,14.344-13.999,23.931-16.323v114.462c-2.586,0.634-5.077,1.51-7.451,2.6
			L216.772,154.971z M148.891,239.458c-13.408-2.566-24.355-11.158-30.035-23.572c-4.252-9.294-4.952-19.421-2.171-28.886
			l99.131,57.233c-0.736,2.494-1.253,5.081-1.513,7.743L148.891,239.458z M188.12,340.487
			c-8.927,10.329-21.846,15.516-35.432,14.226c-10.175-0.965-19.295-5.423-26.102-12.563l99.047-57.185
			c1.819,1.918,3.814,3.665,5.964,5.215L188.12,340.487z M234.099,256.099c0-12.131,9.869-22,22-22s22,9.869,22,22s-9.87,22-22,22
			C243.968,278.099,234.099,268.23,234.099,256.099z M295.228,357.031c4.482,12.894,2.516,26.67-5.396,37.795
			c-5.923,8.33-14.343,14-23.931,16.323V296.932c2.616-0.628,5.136-1.502,7.537-2.595L295.228,357.031z M286.372,227.031
			c-1.832-1.907-3.84-3.64-6-5.176l43.508-50.344c8.927-10.329,21.842-15.517,35.432-14.225
			c10.175,0.965,19.295,5.422,26.102,12.563L286.372,227.031z M395.314,325l-98.913-57.108c0.739-2.521,1.251-5.137,1.505-7.829
			l65.203,12.478c13.409,2.567,24.356,11.159,30.035,23.573C397.395,305.408,398.095,315.535,395.314,325z"/>
	</g>
</g>
<g>
</g>
<g>
</g>
<g>
</g>
<g>
</g>
<g>
</g>
<g>
</g>
<g>
</g>
<g>
</g>
<g>
</g>
<g>
</g>
<g>
</g>
<g>
</g>
<g>
</g>
<g>
</g>
<g>
</g>
</svg>
