<?xml version="1.0" encoding="iso-8859-1"?>
<!-- Generator: Adobe Illustrator 21.0.0, SVG Export Plug-In . SVG Version: 6.00 Build 0)  -->
<svg xmlns="http://www.w3.org/2000/svg" xmlns:xlink="http://www.w3.org/1999/xlink" version="1.1" id="Capa_1" x="0px" y="0px" viewBox="0 0 511.998 511.998" style="enable-background:new 0 0 511.998 511.998;" xml:space="preserve" width="512" height="512">
<g>
	<path d="M496.998,226.384c-8.284,0-15,6.716-15,15v29.863h-36.999v-50.001c0-8.284-6.716-15-15-15H374.77l-61.108-43.243   c-2.534-1.793-5.562-2.756-8.665-2.756h-33.997v-30.5h25.5c8.284,0,15-6.716,15-15s-6.716-15-15-15h-81c-8.284,0-15,6.716-15,15   s6.716,15,15,15h25.5v30.5h-33.997c-3.104,0-6.131,0.963-8.665,2.756l-61.108,43.243H81.999c-8.284,0-15,6.716-15,15v50.001H30   v-29.863c0-8.284-6.716-15-15-15s-15,6.716-15,15v89.727c0,8.284,6.716,15,15,15s15-6.716,15-15v-29.863h36.999v50   c0,8.284,6.716,15,15,15h45v31c0,8.284,6.716,15,15,15l288,0.003c3.979,0,7.794-1.58,10.606-4.394   c2.813-2.813,4.394-6.628,4.394-10.606v-96.003h36.999v29.863c0,8.284,6.716,15,15,15s15-6.716,15-15v-89.727   C511.998,233.1,505.282,226.384,496.998,226.384z M414.999,382.25l-258-0.003v-31c0-8.284-6.716-15-15-15h-45V236.247h45   c3.104,0,6.131-0.963,8.665-2.756l61.108-43.243h88.453l61.108,43.243c2.534,1.793,5.562,2.756,8.665,2.756h45V382.25z"/>
	<path d="M291.999,277.308h-35.788l17.391-17.391c5.857-5.857,5.858-15.355,0-21.213c-5.856-5.858-15.354-5.858-21.213,0   l-42.998,42.997c-4.29,4.29-5.573,10.741-3.252,16.347c2.322,5.605,7.791,9.26,13.858,9.26h35.789l-31.332,31.333   c-5.858,5.857-5.858,15.355,0,21.213c2.929,2.929,6.768,4.394,10.606,4.394s7.678-1.465,10.606-4.394l56.938-56.939   c4.29-4.29,5.573-10.741,3.252-16.347C303.535,280.962,298.066,277.308,291.999,277.308z"/>
</g>















</svg>
