<svg height="512pt" viewBox="0 -18 512 512" width="512pt" xmlns="http://www.w3.org/2000/svg"><path d="m436.101562 54.128906h-46.433593v-39.128906c0-8.285156-6.714844-15-15-15-8.285157 0-15 6.714844-15 15v39.128906h-207.335938v-39.128906c0-8.285156-6.714843-15-15-15-8.285156 0-15 6.714844-15 15v39.128906h-46.433593c-41.851563 0-75.898438 34.050782-75.898438 75.902344v269.070312c0 41.851563 34.050781 75.898438 75.898438 75.898438h360.203124c41.851563 0 75.898438-34.050781 75.898438-75.898438v-269.070312c0-41.851562-34.050781-75.902344-75.898438-75.902344zm45.898438 344.972656c0 25.308594-20.589844 45.898438-45.898438 45.898438h-360.203124c-25.308594 0-45.898438-20.589844-45.898438-45.898438v-269.070312c0-25.3125 20.589844-45.902344 45.898438-45.902344h360.203124c25.308594 0 45.898438 20.59375 45.898438 45.902344zm0 0"/><path d="m432.222656 164.53125h-352.445312c-10.949219 0-19.863282 8.910156-19.863282 19.863281v210.933594c0 10.953125 8.914063 19.863281 19.863282 19.863281h352.441406c10.953125 0 19.863281-8.910156 19.863281-19.863281v-210.933594c.003907-10.953125-8.910156-19.863281-19.859375-19.863281zm-191.492187 212.367188c.058593-.039063.117187-.078126.179687-.121094 4.347656-2.832032 9.53125-4.476563 15.089844-4.476563 9.828125 0 18.480469 5.144531 23.421875 12.890625h-46.847656c2.109375-3.304687 4.894531-6.132812 8.15625-8.292968zm181.355469 8.292968h-110.257813c-6.613281-24.671875-29.136719-42.890625-55.828125-42.890625-8.105469 0-15.824219 1.679688-22.832031 4.710938l-81.625-50.421875c-7.046875-4.355469-16.289063-2.171875-20.644531 4.878906-4.351563 7.046875-2.167969 16.289062 4.878906 20.644531l72.824218 44.984375c-3.785156 5.425782-6.671874 11.53125-8.429687 18.09375h-110.257813v-190.660156h332.171876zm0 0"/><path d="m232.597656 138.402344h46.804688c8.285156 0 15-6.714844 15-15 0-8.28125-6.714844-15-15-15h-46.804688c-8.285156 0-15 6.71875-15 15 0 8.285156 6.714844 15 15 15zm0 0"/><path d="m113.929688 138.402344h46.804687c8.285156 0 15-6.714844 15-15 0-8.28125-6.714844-15-15-15h-46.804687c-8.285157 0-15 6.71875-15 15 0 8.285156 6.714843 15 15 15zm0 0"/><path d="m351.265625 138.402344h46.804687c8.285157 0 15-6.714844 15-15 0-8.28125-6.714843-15-15-15h-46.804687c-8.285156 0-15 6.71875-15 15 0 8.285156 6.714844 15 15 15zm0 0"/><path d="m232.378906 306.136719c8.28125 0 15-6.714844 15-15v-4.929688h17.242188v4.929688c0 8.285156 6.71875 15 15 15 8.285156 0 15-6.714844 15-15v-52.167969c0-15.769531-12.8125-28.597656-28.566406-28.597656h-20.109376c-15.753906 0-28.566406 12.828125-28.566406 28.597656v52.167969c0 8.285156 6.714844 15 15 15zm32.242188-65.765625v15.835937h-17.242188v-15.835937zm0 0"/></svg>