<svg height="512pt" viewBox="0 0 512 512" width="512pt" xmlns="http://www.w3.org/2000/svg"><path d="m256 0c-140.96875 0-256 115.050781-256 256 0 140.96875 115.050781 256 256 256 140.96875 0 256-115.050781 256-256 0-140.96875-115.050781-256-256-256zm0 482c-124.617188 0-226-101.382812-226-226s101.382812-226 226-226 226 101.382812 226 226-101.382812 226-226 226zm0 0"/><path d="m256 61c-107.523438 0-195 87.476562-195 195s87.476562 195 195 195 195-87.476562 195-195-87.476562-195-195-195zm48.023438 300h-96.046876c-6.328124-31.074219-22.410156-59.695312-46.707031-81.550781l26.253907-98.449219h136.953124l26.253907 98.449219c-24.285157 21.847656-40.378907 50.460937-46.707031 81.550781zm-212.589844-116.902344c1.617187-22.582031 7.792968-43.921875 17.617187-63.097656h47.425781l-21.238281 79.632812c-13.589843-7.75-28.359375-13.347656-43.804687-16.535156zm285.324218 16.535156-21.234374-79.632812h47.425781c9.824219 19.175781 16 40.515625 17.617187 63.097656-15.445312 3.1875-30.214844 8.785156-43.808594 16.535156zm-120.757812-169.632812c51.128906 0 96.898438 23.375 127.1875 60h-254.375c30.289062-36.625 76.058594-60 127.1875-60zm-163.894531 184.058594c56.117187 14.910156 94.03125 68.417968 88.328125 127.59375-47.707032-24.683594-81.898438-71.96875-88.328125-127.59375zm117.101562 139.171875c1.191407-7.660157 1.792969-15.433594 1.792969-23.230469h90c0 7.796875.601562 15.570312 1.792969 23.230469-14.84375 4.398437-30.542969 6.769531-46.792969 6.769531s-31.949219-2.371094-46.792969-6.769531zm122.359375-11.578125c-5.699218-59.105469 32.144532-112.664063 88.328125-127.59375-6.429687 55.625-40.621093 102.910156-88.328125 127.59375zm0 0"/><path d="m256 211c-24.8125 0-45 20.1875-45 45s20.1875 45 45 45 45-20.1875 45-45-20.1875-45-45-45zm0 60c-8.269531 0-15-6.730469-15-15s6.730469-15 15-15 15 6.730469 15 15-6.730469 15-15 15zm0 0"/></svg>