<svg height="512pt" viewBox="-31 0 512 512" width="512pt" xmlns="http://www.w3.org/2000/svg"><path d="m450 150v-150h-90v60h-92.578125c-6.195313-17.457031-22.867187-30-42.421875-30s-36.226562 12.542969-42.421875 30h-92.578125v-60h-90v150h90v-60h92.578125c4.527344 12.765625 14.65625 22.894531 27.421875 27.421875v32.578125h-30v182h30v46.898438c-21.054688 5.441406-37.664062 22.046874-43.101562 43.101562h-76.898438v-60h-90v150h90v-60h76.898438c6.675781 25.847656 30.195312 45 58.101562 45s51.425781-19.152344 58.101562-45h76.898438v60h90v-150h-90v60h-76.898438c-5.441406-21.054688-22.046874-37.664062-43.101562-43.101562v-46.898438h30v-182h-30v-32.578125c12.765625-4.527344 22.894531-14.65625 27.421875-27.421875h92.578125v60zm-390-30h-30v-90h30zm0 362h-30v-90h30zm330-90h30v90h-30zm-135 45c0 16.542969-13.457031 30-30 30s-30-13.457031-30-30 13.457031-30 30-30 30 13.457031 30 30zm-15-135h-30v-122h30zm-15-212c-8.269531 0-15-6.730469-15-15s6.730469-15 15-15 15 6.730469 15 15-6.730469 15-15 15zm165-60h30v90h-30zm0 0"/></svg>