<?xml version="1.0" encoding="iso-8859-1"?>
<!-- Generator: Adobe Illustrator 21.0.0, SVG Export Plug-In . SVG Version: 6.00 Build 0)  -->
<svg xmlns="http://www.w3.org/2000/svg" xmlns:xlink="http://www.w3.org/1999/xlink" version="1.1" id="Capa_1" x="0px" y="0px" viewBox="0 0 512 512" style="enable-background:new 0 0 512 512;" xml:space="preserve" width="512" height="512">
<g>
	<path d="M199.5,312.112V161.709c27.628-15.951,45-45.56,45-77.955c0-35.783-21.194-68.166-53.994-82.499   c-4.638-2.025-9.985-1.577-14.219,1.193C172.052,5.22,169.5,9.939,169.5,15v28.163c0,8.271-6.729,15-15,15c-8.271,0-15-6.729-15-15   V15c0-5.061-2.552-9.78-6.787-12.552c-4.236-2.771-9.582-3.219-14.219-1.193C85.693,15.588,64.5,47.971,64.5,83.754   c0,32.396,17.372,62.004,45,77.955v150.403c-36.285,17.223-60,54.104-60,94.888c0,57.897,47.103,105,105,105s105-47.103,105-105   C259.5,366.216,235.785,329.335,199.5,312.112z M154.5,482c-41.355,0-75-33.645-75-75c0-31.733,20.093-60.158,49.999-70.729   c5.993-2.119,10-7.786,10-14.143V152.507c0-5.962-3.531-11.357-8.994-13.745C108.633,129.204,94.5,107.612,94.5,83.754   c0-14.916,5.523-28.945,15.009-39.702c0.475,24.404,20.475,44.111,44.991,44.111c24.517,0,44.517-19.707,44.992-44.111   c9.486,10.757,15.009,24.786,15.009,39.702c0,23.858-14.133,45.45-36.006,55.008c-5.463,2.388-8.994,7.783-8.994,13.745v169.621   c0,6.356,4.007,12.023,10,14.143c29.906,10.572,50,38.996,50,70.729C229.5,448.355,195.855,482,154.5,482z"/>
	<path d="M154.5,362c-24.813,0-45,20.187-45,45s20.187,45,45,45c24.813,0,45-20.187,45-45S179.313,362,154.5,362z M154.5,422   c-8.271,0-15-6.729-15-15s6.729-15,15-15c8.271,0,15,6.729,15,15S162.771,422,154.5,422z"/>
	<path d="M447.5,237h-58V110h15c8.284,0,15-6.716,15-15V15c0-8.284-6.716-15-15-15h-60c-8.284,0-15,6.716-15,15v80   c0,8.284,6.716,15,15,15H359.5v127h-58c-8.284,0-15,6.716-15,15s6.716,15,15,15h13v200.001c0,24.813,20.187,44.999,45,44.999h30   c24.813,0,45-20.187,45-44.999V267h13c8.284,0,15-6.716,15-15S455.784,237,447.5,237z M359.5,30h30v50h-30V30z M404.5,467.001   c0,8.271-6.729,14.999-15,14.999h-30c-8.271,0-15-6.729-15-14.999V267h60V467.001z"/>
</g>















</svg>
