<svg height="512pt" viewBox="0 0 512 512" width="512pt" xmlns="http://www.w3.org/2000/svg"><path d="m512 152h-30v-60h-30v60h-30v210h30v120h-92v-120h30v-210h-30v-60h-30v60h-30v210h30v120h-120v-30h60v-452h-270v452h60v60h422v-150h30zm-182 30h30v150h-30zm-300 240v-392h210v392h-30v-30h-30v30h-90v-30h-30v30zm60 30h90v30h-90zm392-120h-30v-150h30zm0 0"/><path d="m210 62h-150v120h150zm-30 90h-90v-60h90zm0 0"/><path d="m81.96875 233.96875c-47.097656 47.09375-13.605469 127.996094 53.03125 127.996094 19.207031 0 38.410156-7.3125 53.03125-21.933594 29.242188-29.242188 29.242188-76.820312 0-106.0625-29.242188-29.246094-76.820312-29.246094-106.0625 0zm84.851562 21.210938c13.828126 13.828124 16.746094 34.484374 8.78125 51.207031l-59.992187-59.988281c16.8125-8.007813 37.433594-4.996094 51.210937 8.78125zm-72.421874 12.429687 59.992187 59.992187c-38.175781 18.183594-78.207031-21.753906-59.992187-59.992187zm0 0"/></svg>