<?xml version="1.0" encoding="iso-8859-1"?>
<!-- Generator: Adobe Illustrator 21.0.0, SVG Export Plug-In . SVG Version: 6.00 Build 0)  -->
<svg xmlns="http://www.w3.org/2000/svg" xmlns:xlink="http://www.w3.org/1999/xlink" version="1.1" id="Capa_1" x="0px" y="0px" viewBox="0 0 512 512" style="enable-background:new 0 0 512 512;" xml:space="preserve" width="512" height="512">
<path d="M448.621,351.568c-1.032-1.032-2.209-1.908-3.495-2.601l-52.832-28.448L327.773,256l64.52-64.521l52.832-28.448  c1.286-0.692,2.463-1.568,3.495-2.601l58.986-58.986c5.858-5.857,5.858-15.355,0-21.213L431.767,4.394  C428.954,1.58,425.139,0,421.161,0s-7.793,1.58-10.606,4.394L351.568,63.38c-1.032,1.032-1.908,2.21-2.601,3.495l-28.449,52.834  L256,184.227l-64.518-64.518l-28.449-52.834c-0.692-1.285-1.568-2.463-2.601-3.495L101.446,4.394C98.633,1.58,94.817,0,90.839,0  s-7.793,1.58-10.606,4.394L4.394,80.232c-5.858,5.857-5.858,15.355,0,21.213l58.986,58.986c1.032,1.032,2.209,1.908,3.495,2.601  l52.834,28.449L184.227,256l-64.518,64.519l-52.834,28.449c-1.286,0.692-2.463,1.568-3.495,2.601L4.394,410.555  c-5.858,5.857-5.858,15.355,0,21.213l75.839,75.839C83.046,510.42,86.861,512,90.839,512s7.793-1.58,10.606-4.394l58.986-58.986  c1.032-1.032,1.908-2.21,2.601-3.495l28.449-52.834L256,327.772l64.519,64.519l28.449,52.834c0.692,1.285,1.568,2.463,2.601,3.495  l58.986,58.986c2.813,2.813,6.628,4.394,10.606,4.394h0c3.978,0,7.793-1.581,10.606-4.394l75.839-75.839  c5.858-5.857,5.858-15.355,0-21.213L448.621,351.568z M421.161,36.213l54.626,54.626l-29.347,29.348L391.814,65.56L421.161,36.213z   M371.722,87.894l52.384,52.384l-38.149,20.541l-34.776-34.775L371.722,87.894z M332.682,149.972l29.347,29.347l-55.469,55.469  l-29.347-29.347L332.682,149.972z M160.82,126.044l-34.776,34.776l-38.149-20.542l52.384-52.384L160.82,126.044z M90.839,36.213  l29.347,29.347L65.56,120.186L36.213,90.839L90.839,36.213z M179.318,149.972l182.71,182.71l-29.346,29.347l-182.71-182.71  L179.318,149.972z M90.839,475.787l-54.626-54.626l29.347-29.347l54.626,54.626L90.839,475.787z M140.278,424.106l-52.384-52.384  l38.149-20.542l34.776,34.776L140.278,424.106z M179.318,362.028l-29.347-29.347l55.469-55.469l29.347,29.347L179.318,362.028z   M351.18,385.956l34.776-34.775l38.149,20.541l-52.384,52.384L351.18,385.956z M421.161,475.787l-29.347-29.347l54.626-54.626  l29.347,29.348L421.161,475.787z"/>















</svg>
