<svg height="512pt" viewBox="0 0 512.002 512" width="512pt" xmlns="http://www.w3.org/2000/svg"><path d="m467.304688 0h-128.15625c-11.894532 0-23.183594 4.523438-31.78125 12.734375l-32.882813 31.390625c-1.832031-.304688-3.710937-.464844-5.628906-.464844h-25.710938c-1.917969 0-3.796875.160156-5.628906.464844l-32.878906-31.390625c-8.601563-8.210937-19.890625-12.734375-31.785157-12.734375h-128.15625c-24.644531 0-44.695312 20.042969-44.695312 44.675781v352.855469c0 24.632812 20.050781 44.671875 44.695312 44.671875h48.457032v31.945313c0 20.871093 16.980468 37.851562 37.855468 37.851562h249.988282c20.871094 0 37.851562-16.980469 37.851562-37.851562v-31.945313h48.457032c24.648437 0 44.699218-20.039063 44.699218-44.671875v-352.855469c-.003906-24.632812-20.054687-44.675781-44.699218-44.675781zm-226.050782 74.085938c.566406-.269532 1.207032-.421876 1.890625-.421876h25.710938c.679687 0 1.316406.148438 1.882812.417969.164063.097657.332031.195313.503907.285157 1.152343.761718 1.902343 2.070312 1.902343 3.585937v8.765625h-34.300781l.015625-8.765625c0-1.519531.75-2.832031 1.910156-3.589844.160157-.089843.324219-.179687.484375-.277343zm-18.476562 74.53125c10.023437-7.621094 16.007812-19.148438 16.007812-30.820313l.003906-1.078125h34.355469v1.054688c0 12.132812 5.539063 23.296874 14.84375 29.875 15.078125 10.628906 23.726563 27.253906 23.726563 45.609374 0 14.769532-5.660156 28.691407-15.9375 39.191407-10.429688 10.65625-24.542969 16.527343-39.75 16.535156-15.019532-.054687-29.066406-5.886719-39.550782-16.429687-10.441406-10.492188-16.191406-24.449219-16.191406-39.296876 0-17.648437 8.171875-33.898437 22.492188-44.640624zm-99.625 325.53125v-93.890626c0-4.328124 3.523437-7.851562 7.855468-7.851562h109.992188v109.59375h-109.992188c-4.332031 0-7.855468-3.519531-7.855468-7.851562zm265.695312 0c0 4.328124-3.523437 7.851562-7.855468 7.851562h-109.992188v-109.59375h109.992188c4.332031 0 7.855468 3.523438 7.855468 7.855469zm93.152344-76.617188c0 8.089844-6.59375 14.671875-14.695312 14.671875h-48.457032v-31.941406c0-20.875-16.980468-37.855469-37.855468-37.855469h-249.984376c-20.875 0-37.855468 16.980469-37.855468 37.855469v31.941406h-48.457032c-8.101562 0-14.695312-6.582031-14.695312-14.671875v-352.855469c0-8.089843 6.59375-14.675781 14.695312-14.675781h128.15625c4.144532 0 8.074219 1.574219 11.066407 4.433594l28.875 27.566406c-2.511719 4.761719-3.9375 10.183594-3.9375 15.925781l-.070313 39.847657c0 1.832031-1.09375 4.625-4.085937 6.902343-21.871094 16.40625-34.414063 41.402344-34.414063 68.582031 0 22.832032 8.851563 44.300782 24.917969 60.457032 16.136719 16.21875 37.710937 25.195312 60.746094 25.269531h.050781c23.351562 0 45.09375-9.074219 61.214844-25.550781 15.796875-16.140625 24.5-37.511719 24.5-60.175782 0-27.828124-13.625-54.046874-36.425782-70.113281-.988281-.703125-2.144531-2.53125-2.144531-5.371093v-39.820313c0-5.757813-1.425781-11.183594-3.941406-15.953125l28.878906-27.566406c2.992188-2.859375 6.921875-4.433594 11.066407-4.433594h128.15625c8.101562 0 14.695312 6.585938 14.695312 14.675781zm0 0"/><path d="m206.53125 412.203125h-9.390625v-9.375c0-8.28125-6.714844-15-15-15s-15 6.71875-15 15v9.375h-9.390625c-8.285156 0-15 6.71875-15 15 0 8.285156 6.714844 15 15 15h9.390625v9.375c0 8.285156 6.714844 15 15 15s15-6.714844 15-15v-9.375h9.390625c8.285156 0 15-6.714844 15-15 0-8.28125-6.714844-15-15-15zm0 0"/><path d="m353.683594 412.203125h-48.78125c-8.285156 0-15 6.71875-15 15 0 8.285156 6.714844 15 15 15h48.78125c8.285156 0 15-6.714844 15-15 0-8.28125-6.714844-15-15-15zm0 0"/></svg>