<svg height="512pt" viewBox="-61 0 512 512" width="512pt" xmlns="http://www.w3.org/2000/svg"><path d="m360 212v-120h30v-30h-65.59375l-30-62h-198.8125l-30 62h-65.59375v30h30v120h30v30h-60v90h40.84375l110.054688 66.03125c-.585938 2.902344-.898438 5.898438-.898438 8.96875s.3125 6.066406.898438 8.96875l-110.054688 66.03125h-40.84375v30h390v-30h-40.84375l-110.054688-66.03125c.585938-2.902344.898438-5.898438.898438-8.96875s-.3125-6.066406-.898438-8.96875l110.054688-66.03125h40.84375v-90h-60v-30zm-245.59375-182h161.1875l19.453125 40.203125-43.585937 21.796875h-112.921876l-43.589843-21.796875zm-42.945312 62 60 30h127.078124l60-30h11.460938v30h-30v30h30v30h-68.785156l-30-30h-72.429688l-30 30h-68.785156v-30h30v-30h-30v-30zm78.539062 150v-30h90v30zm-60-30h30v30h-30zm9.15625 270 67.199219-40.320312c7.789062 6.441406 17.773437 10.320312 28.644531 10.320312s20.855469-3.878906 28.644531-10.320312l67.199219 40.320312zm80.84375-75c0-8.269531 6.730469-15 15-15s15 6.730469 15 15-6.730469 15-15 15-15-6.730469-15-15zm43.644531-34.679688c-7.789062-6.441406-17.773437-10.320312-28.644531-10.320312s-20.855469 3.878906-28.644531 10.320312l-67.199219-40.320312h191.6875zm136.355469-70.320312h-330v-30h330zm-60-60h-30v-30h30zm0 0"/></svg>