<svg height="512pt" viewBox="0 -70 512 512" width="512pt" xmlns="http://www.w3.org/2000/svg"><path d="m488.816406 29.984375h-38.960937c-26.917969 0-48.816407 21.878906-48.816407 48.769531v36.964844c0 79.855469-65.0625 144.820312-145.039062 144.820312-19.332031 0-37.796875-3.796874-54.679688-10.679687 18.410157-9.863281 30.96875-29.351563 30.96875-51.726563 0-32.304687-26.164062-58.582031-58.324218-58.582031-22.566406 0-42.179688 12.9375-51.875 31.8125-7.167969-17.140625-11.132813-35.9375-11.132813-55.644531v-36.964844c0-26.890625-21.898437-48.769531-48.8125-48.769531h-38.960937c-12.785156 0-23.183594 10.398437-23.183594 23.175781v242.253906c0 42.230469 34.394531 76.585938 76.671875 76.585938h358.65625c42.277344 0 76.671875-34.355469 76.671875-76.585938v-242.253906c0-12.777344-10.398438-23.175781-23.183594-23.175781zm-314.851562 139.566406c15.621094 0 28.324218 12.820313 28.324218 28.582031 0 15.757813-12.703124 28.578126-28.324218 28.578126s-28.328125-12.820313-28.328125-28.578126c0-15.761718 12.707031-28.582031 28.328125-28.582031zm308.035156 125.863281c0 25.6875-20.9375 46.585938-46.671875 46.585938h-358.65625c-25.734375 0-46.671875-20.898438-46.671875-46.585938v-235.429687h32.144531c10.375 0 18.8125 8.421875 18.8125 18.769531v36.964844c0 96.398438 78.523438 174.820312 175.042969 174.820312s175.039062-78.421874 175.039062-174.820312v-36.964844c0-10.351562 8.441407-18.769531 18.816407-18.769531h32.144531zm0 0"/><path d="m167.585938 86.730469c8.285156 0 15-6.71875 15-15v-17.25c21.039062 15.898437 46.773437 24.648437 73.914062 24.648437 26.710938 0 52.0625-8.476562 72.914062-23.898437v15.695312c0 8.28125 6.714844 15 15 15 8.28125 0 15-6.71875 15-15v-41.746093c0-11.632813-8.355468-21.347657-19.863281-23.097657l-38.882812-5.910156c-8.1875-1.242187-15.839844 4.386719-17.085938 12.574219-1.242187 8.191406 4.386719 15.839844 12.578125 17.085937l14.183594 2.15625c-15.515625 11.070313-34.195312 17.140625-53.84375 17.140625-19.328125 0-37.71875-5.871094-53.082031-16.605468l12.421875-1.886719c8.191406-1.246094 13.820312-8.894531 12.574218-17.082031-1.242187-8.191407-8.886718-13.8125-17.082031-12.578126l-38.886719 5.910157c-11.507812 1.75-19.859374 11.464843-19.859374 23.097656v41.746094c0 8.28125 6.714843 15 15 15zm0 0"/></svg>