<svg height="512pt" viewBox="0 0 512 512" width="512pt" xmlns="http://www.w3.org/2000/svg"><path d="m353.046875 0h-353.046875v512h365.882812l3.191407-10.722656c18.5-62.164063 69.15625-112.441406 132.203125-131.203125l10.722656-3.191407v-175.296874zm128.953125 344.808594c-31.558594 11.148437-60.605469 29.34375-84.546875 53.039062-24.082031 23.839844-42.476563 52.746094-53.636719 84.152344h-313.816406v-452h308.953125l143.046875 172.414062zm0 0"/><path d="m61 62v150h388.921875l-124.992187-150zm30 30h120v90h-120zm150 90v-90h69.878906l74.996094 90zm0 0"/><path d="m121 242c-33.085938 0-60 26.914062-60 60v30h120v-30c0-33.085938-26.914062-60-60-60zm-30 60c0-16.542969 13.457031-30 30-30s30 13.457031 30 30zm0 0"/></svg>