<svg height="512pt" viewBox="0 -76 512.01393 512" width="512pt" xmlns="http://www.w3.org/2000/svg"><path d="m265.382812.0078125h-115.335937c-82.734375 0-150.046875 67.3085935-150.046875 150.0468755 0 82.734374 67.3125 150.046874 150.046875 150.046874h115.335937l4.136719-8.335937c1.289063-2.597656 31.574219-64.5 31.574219-141.710937 0-77.214844-30.285156-139.117188-31.574219-141.714844zm-235.375 150.0468755c0-66.191407 53.851563-120.039063 120.039063-120.039063h36.257813c7.703124 18.496094 24.761718 65.621094 24.761718 120.039063 0 54.425781-17.0625 101.550781-24.757812 120.035156h-36.261719c-66.1875 0-120.039063-53.847656-120.039063-120.035156zm216.316407 120.035156h-27.714844c9.339844-25.007813 22.464844-69.199219 22.464844-120.035156 0-50.835938-13.125-95.03125-22.464844-120.039063h27.714844c7.703125 18.5 24.761719 65.625 24.761719 120.039063 0 54.417968-17.0625 101.546874-24.761719 120.035156zm0 0"/><path d="m335.9375.816406 176.054688 60.023438-9.683594 28.40625-176.054688-60.023438zm0 0"/><path d="m502.324219 179.253906-176.050781-60.023437 9.683593-28.402344 176.050781 60.023437zm0 0"/><path d="m502.328125 269.285156-176.054687-60.027344 9.683593-28.402343 176.054688 60.023437zm0 0"/><path d="m502.328125 359.3125-176.050781-60.023438 9.683594-28.402343 176.054687 60.023437zm0 0"/></svg>