<svg height="512pt" viewBox="0 0 512 512" width="512pt" xmlns="http://www.w3.org/2000/svg"><path d="m512 271h-67.972656l-58.996094-88.492188 10.382812-17.980468-34.8125-20.097656c.511719-5.574219.550782-10.894532 0-16.859376l34.8125-20.097656-45-77.945312-35.121093 20.277344c-4.554688-3.144532-9.324219-5.910157-14.292969-8.285157v-41.519531h-90v41.519531c-4.96875 2.375-9.738281 5.140625-14.289062 8.285157l-35.125-20.277344-45 77.945312 34.8125 20.097656c-.511719 5.574219-.546876 10.894532 0 16.859376l-34.8125 20.101562 10.382812 17.976562-58.996094 88.492188h-67.972656v30h31v150h30v61h90v-61h210v61h90v-61h30v-150h31zm-327.679688-159.0625-26.753906-15.449219 15-25.980469 26.992188 15.585938c19.167968-16.355469 20.539062-16.566406 41.441406-23.996094v-32.097656h30v32.097656c23.261719 8.269532 24.199219 9.285156 41.441406 23.996094l26.992188-15.582031 15 25.980469-26.753906 15.445312c4.476562 24.285156 4.472656 23.875 0 48.125l26.753906 15.449219-15 25.980469-26.992188-15.582032c-19.167968 16.351563-20.546875 16.5625-41.441406 23.992188v31.097656h-30v-31.097656c-23.269531-8.273438-24.203125-9.289063-41.441406-23.996094l-26.992188 15.582031-15-25.980469 26.753906-15.445312c-4.46875-24.222656-4.484374-23.800781 0-48.125zm-40.621093 99.554688 17.886719 30.980468 35.125-20.277344c4.550781 3.144532 9.320312 5.914063 14.289062 8.285157v40.519531h90v-40.519531c4.96875-2.375 9.738281-5.140625 14.292969-8.285157l35.121093 20.277344 17.886719-30.980468 39.671875 59.507812h-5.511718l-60 30h-172.921876l-60-30h-5.511718zm-82.699219 209.507812v-30h45c19.554688 0 36.226562 12.539062 42.421875 30zm60 61h-30v-31h30zm300 0h-30v-31h30zm-57.421875-61c6.195313-17.460938 22.867187-30 42.421875-30h45v30zm87.421875-60h-45c-36.21875 0-66.523438 25.808594-73.492188 60h-153.015624c-6.96875-34.191406-37.273438-60-73.492188-60h-45v-60h41.460938l60 30h187.078124l60-30h41.460938zm0 0"/><path d="m211 361h90v30h-90zm0 0"/><path d="m256 181c24.8125 0 45-20.1875 45-45s-20.1875-45-45-45-45 20.1875-45 45 20.1875 45 45 45zm0-60c8.269531 0 15 6.730469 15 15s-6.730469 15-15 15-15-6.730469-15-15 6.730469-15 15-15zm0 0"/></svg>