<svg height="512pt" viewBox="0 0 512 512" width="512pt" xmlns="http://www.w3.org/2000/svg"><path d="m482 0v271h-91v-30h30v-120h30v-30h-65.730469l-30-60h-198.539062l-30 60h-65.730469v30h30v120h30v30h-91v-271h-30v512h30v-39.75l112.175781-111.25h68.824219c0-26.382812 0-92.839844 0-120h90v120h68.824219l112.175781 111.25v39.75h30v-512zm-306.730469 61h161.460938l19.144531 38.292969-43.414062 21.707031h-112.921876l-43.414062-21.707031zm-42.808593 60 60 30h127.078124l60-30h11.460938v30h-30v30h30v30h-68.785156l-30-30h-72.429688l-30 30h-68.785156v-30h30v-30h-30v-30zm-102.460938 308.996094v-68.996094h69.574219zm151-98.996094h-151v-30h151zm0-60h-30v-30h30zm150-30h30v30h-30zm0 60h151v30h-151zm81.425781 60h69.574219v68.996094zm0 0"/></svg>