<?xml version="1.0" encoding="iso-8859-1"?>
<!-- Generator: Adobe Illustrator 19.0.0, SVG Export Plug-In . SVG Version: 6.00 Build 0)  -->
<svg version="1.1" id="Capa_1" xmlns="http://www.w3.org/2000/svg" xmlns:xlink="http://www.w3.org/1999/xlink" x="0px" y="0px"
	 viewBox="0 0 512 512" style="enable-background:new 0 0 512 512;" xml:space="preserve">
<g>
	<g>
		<path d="M363.986,363.987h-1.183c-5.521,0-9.999,4.476-9.999,9.999c0,5.522,4.477,9.999,9.999,9.999h1.183
			c5.521,0,9.999-4.476,9.999-9.999C373.985,368.463,369.508,363.987,363.986,363.987z"/>
	</g>
</g>
<g>
	<g>
		<path d="M502.001,283.997H377.967v-27.498l40.698,10.905c0.867,0.232,1.737,0.343,2.594,0.343c4.414,0,8.455-2.947,9.652-7.413
			c1.43-5.334-1.736-10.817-7.07-12.246l-154.529-41.406c-5.337-1.43-10.816,1.737-12.245,7.07
			c-1.43,5.334,1.736,10.817,7.07,12.246l45.873,12.291v45.707H235.97v-2c0-5.522-4.477-9.999-9.999-9.999h-29.996v-75.99
			c0-22.053-17.942-39.995-39.995-39.995H39.995C17.942,156.012,0,173.954,0,196.007v275.964c0,22.053,17.942,39.995,39.995,39.995
			H155.98c22.053,0,39.995-17.942,39.995-39.995v-75.99h29.996c5.521,0,9.999-4.476,9.999-9.999v-2h76.323
			c5.521,0,9.999-4.476,9.999-9.999c0-5.522-4.477-9.999-9.999-9.999H235.97v-59.992h256.033v59.992h-70.75
			c-5.521,0-9.999,4.476-9.999,9.999c0,5.522,4.477,9.999,9.999,9.999h80.749c5.521,0,9.999-4.476,9.999-9.999v-79.99
			C512,288.473,507.524,283.997,502.001,283.997z M39.995,491.97c-11.027,0-19.997-8.971-19.997-19.997v-7.689l27.686,27.686H39.995
			z M175.977,471.973c0,11.027-8.971,19.997-19.997,19.997h-7.689l27.686-27.686V471.973z M175.977,237.44
			c-1.52,0.462-2.952,1.291-4.153,2.493l-48.494,48.494c-3.904,3.904-3.904,10.236,0,14.141c1.953,1.953,4.511,2.929,7.07,2.929
			c2.559,0,5.117-0.976,7.07-2.929l38.507-38.508v17.938v22.183c-1.52,0.462-2.952,1.291-4.153,2.493l-48.494,48.494
			c-3.904,3.904-3.904,10.236,0,14.141c1.953,1.953,4.511,2.929,7.07,2.929c2.559,0,5.117-0.976,7.07-2.929l38.507-38.507v40.122
			c-1.52,0.462-2.952,1.291-4.153,2.493l-48.494,48.494c-3.904,3.904-3.904,10.236,0,14.141c1.953,1.953,4.511,2.929,7.07,2.929
			c2.559,0,5.117-0.976,7.07-2.929l38.507-38.508v40.122c-1.52,0.462-2.952,1.291-4.153,2.493l-48.494,48.494
			c-0.98,0.98-1.713,2.113-2.201,3.321H74.846c-0.488-1.209-1.221-2.341-2.201-3.321l-48.494-48.494
			c-1.202-1.202-2.635-2.03-4.154-2.493v-40.122l38.507,38.507c1.953,1.953,4.511,2.929,7.07,2.929s5.117-0.976,7.07-2.929
			c3.904-3.905,3.904-10.236,0-14.141l-48.494-48.494c-1.202-1.202-2.635-2.03-4.154-2.493V330.8l38.507,38.507
			c1.953,1.953,4.511,2.929,7.07,2.929s5.117-0.976,7.07-2.929c3.904-3.905,3.904-10.236,0-14.141l-48.494-48.494
			c-1.202-1.202-2.635-2.03-4.154-2.493v-40.122l38.507,38.507c1.953,1.953,4.511,2.929,7.07,2.929s5.117-0.976,7.07-2.929
			c3.904-3.905,3.904-10.236,0-14.141L24.152,239.93c-1.202-1.202-2.635-2.03-4.154-2.493v-40.122l38.507,38.507
			c1.953,1.953,4.511,2.929,7.07,2.929s5.117-0.976,7.07-2.929c3.904-3.904,3.904-10.236,0-14.141l-42.847-42.843
			c2.99-1.783,6.469-2.826,10.197-2.826H155.98v-0.001c3.727,0,7.207,1.044,10.197,2.826l-42.846,42.846
			c-3.904,3.904-3.904,10.236,0,14.141c1.953,1.953,4.511,2.929,7.07,2.929c2.559,0,5.117-0.976,7.07-2.929l38.507-38.506V237.44z
			 M215.972,293.996v79.99v2h-19.997v-83.989h19.997V293.996z M357.971,252.001v31.996h-27.963v-40.349l28.006,7.504
			C357.99,251.433,357.971,251.715,357.971,252.001z"/>
	</g>
</g>
<g>
	<g>
		<path d="M423.841,164.692l-154.529-41.406c-5.337-1.43-10.816,1.737-12.245,7.07c-1.43,5.334,1.736,10.817,7.07,12.246
			l154.529,41.406c0.867,0.232,1.737,0.343,2.594,0.343c4.414,0,8.455-2.947,9.652-7.413
			C432.34,171.604,429.175,166.122,423.841,164.692z"/>
	</g>
</g>
<g>
	<g>
		<path d="M423.841,206.39l-154.529-41.406c-5.337-1.43-10.816,1.737-12.245,7.07c-1.43,5.334,1.736,10.817,7.07,12.246
			l154.529,41.406c0.867,0.232,1.737,0.343,2.594,0.343c4.414,0,8.455-2.947,9.652-7.413
			C432.34,213.302,429.175,207.819,423.841,206.39z"/>
	</g>
</g>
<g>
	<g>
		<path d="M423.841,122.995l-45.873-12.291V60.026h26.014c16.54,0,29.996-13.456,29.996-29.996S420.522,0.034,403.982,0.034H283.997
			c-16.54,0-29.996,13.456-29.996,29.996s13.455,29.996,29.995,29.996h26.014v32.468l-40.698-10.905
			c-5.337-1.43-10.816,1.737-12.245,7.07c-1.43,5.334,1.736,10.817,7.07,12.246l154.529,41.406c0.867,0.232,1.737,0.343,2.594,0.343
			c4.414,0,8.455-2.947,9.652-7.413C432.341,129.907,429.176,124.424,423.841,122.995z M283.996,40.028
			c-5.513,0-9.999-4.485-9.999-9.999c0-5.513,4.486-9.999,9.999-9.999h119.984c5.513,0,9.999,4.485,9.999,9.999
			c0,5.513-4.485,9.999-9.999,9.999H283.996z M357.971,105.345l-27.963-7.493V60.026h27.963V105.345z"/>
	</g>
</g>
<g>
</g>
<g>
</g>
<g>
</g>
<g>
</g>
<g>
</g>
<g>
</g>
<g>
</g>
<g>
</g>
<g>
</g>
<g>
</g>
<g>
</g>
<g>
</g>
<g>
</g>
<g>
</g>
<g>
</g>
</svg>
