<svg height="511pt" viewBox="1 0 511.99916 511" width="511pt" xmlns="http://www.w3.org/2000/svg"><path d="m481.300781 179.667969c40.929688-40.933594 40.929688-107.535157 0-148.46875-40.933593-40.933594-107.539062-40.933594-148.46875 0-20.753906 20.753906-30.980469 48.105469-30.6875 75.363281l-22.339843-22.339844-63.628907 63.632813 42.421875 42.417969-21.210937 21.210937-21.210938-21.210937-21.207031 21.210937 21.207031 21.210937-21.210937 21.210938-21.207032-21.210938-21.210937 21.210938 21.210937 21.207031-21.210937 21.210938-44.851563-44.851563-91.585937 139.671875c-2.839844 3.605469-5.347656 7.472657-7.472656 11.523438-15.308594 29.203125-9.917969 64.503906 13.414062 87.835937 14.492188 14.492188 33.730469 21.957032 53.101563 21.957032 14.523437 0 29.121094-4.199219 41.835937-12.785157l144.007813-94.902343-44.820313-44.820313 21.207031-21.210937 21.210938 21.210937 21.210938-21.210937-21.210938-21.207032 21.210938-21.210937 21.207031 21.210937 21.210937-21.210937-21.210937-21.210938 21.210937-21.210937 42.421875 42.421875 63.628907-63.628907-22.335938-22.339843c.375.003906.75.011719 1.128906.011719 26.878906 0 53.769532-10.234376 74.234375-30.699219zm-380.894531 295.011719-.152344.105468c-17.796875 12.046875-41.765625 9.738282-56.992187-5.488281-13.84375-13.84375-17.164063-34.699219-8.371094-52.09375l5.5-8.386719c.101563-.121094.199219-.238281.296875-.355468l-.039062-.035157 71.910156-109.671875 101.214844 101.21875zm94.558594-135.9375-21.207032-21.210938 21.207032-21.207031 21.210937 21.207031zm42.421875-42.421876-21.210938-21.207031 21.210938-21.210937 21.207031 21.210937zm42.417969-42.417968-21.207032-21.210938 21.207032-21.207031 21.210937 21.207031zm84.839843 0-106.050781-106.050782 21.210938-21.207031 106.050781 106.046875zm-10.605469-201.492188c29.238282-29.238281 76.8125-29.242187 106.050782 0 29.238281 29.234375 29.238281 76.808594 0 106.046875-29.261719 29.265625-76.839844 29.214844-106.050782 0-29.234374-29.238281-29.234374-76.8125 0-106.046875zm0 0"/><path d="m438.878906 137.246094c17.542969-17.542969 17.542969-46.085938 0-63.628906-17.542968-17.542969-46.085937-17.542969-63.628906 0-17.542969 17.542968-17.542969 46.085937 0 63.628906 17.542969 17.542968 46.085938 17.546875 63.628906 0zm-42.417968-42.417969c5.847656-5.847656 15.359374-5.847656 21.210937 0 5.847656 5.847656 5.847656 15.363281 0 21.210937-5.847656 5.847657-15.363281 5.847657-21.210937 0-5.863282-5.863281-5.863282-15.351562 0-21.210937zm0 0"/><path d="m75.070312 458.691406-21.207031-21.207031 21.207031-21.210937 21.210938 21.210937zm0 0"/></svg>