<svg height="511pt" viewBox="-45 1 511 511.999" width="511pt" xmlns="http://www.w3.org/2000/svg"><path d="m359.335938 0h-297.671876c-33.726562 0-61.164062 27.496094-61.164062 61.296875v19.960937c0 27.746094 10.777344 53.835938 30.34375 73.457032l104.628906 104.929687c3.464844 3.472657 5.371094 8.09375 5.371094 13.011719v142.898438c0 8.90625 3.382812 17.007812 9.789062 23.441406l61.015626 61.195312c7.695312 7.714844 17.917968 11.808594 28.347656 11.808594 5.164062 0 10.378906-1.003906 15.363281-3.066406 15.066406-6.238282 24.800781-20.820313 24.800781-37.152344v-199.121094c0-4.917968 1.90625-9.542968 5.371094-13.015625l104.625-104.929687c19.566406-19.621094 30.34375-45.710938 30.34375-73.457032v-19.960937c0-33.800781-27.4375-61.296875-61.164062-61.296875zm-328.835938 61.296875c0-17.257813 13.980469-31.300781 31.164062-31.300781h297.671876c17.183593 0 31.164062 14.042968 31.164062 31.300781v19.960937c0 7.507813-1.109375 14.847657-3.246094 21.824219h-353.507812c-2.136719-6.976562-3.246094-14.316406-3.246094-21.824219zm213.382812 419.917969c-3.777343 1.566406-8.09375.699218-10.992187-2.203125l-61.003906-61.183594c-.972657-.976563-1.042969-1.507813-1.042969-2.273437v-50.15625l79.316406 79.542968v26.84375c0 4.148438-2.464844 7.851563-6.277344 9.429688zm20.402344-242.75c-9.109375 9.136718-14.125 21.28125-14.125 34.195312v129.796875l-79.316406-79.546875v-50.25c0-12.917968-5.015625-25.058594-14.125-34.195312l-104.628906-104.929688c-.148438-.152344-.300782-.300781-.449219-.453125h317.71875c-.148437.152344-.296875.304688-.445313.453125zm0 0"/></svg>