<?xml version="1.0" encoding="iso-8859-1"?>
<!-- Generator: Adobe Illustrator 21.0.0, SVG Export Plug-In . SVG Version: 6.00 Build 0)  -->
<svg xmlns="http://www.w3.org/2000/svg" xmlns:xlink="http://www.w3.org/1999/xlink" version="1.1" id="Capa_1" x="0px" y="0px" viewBox="0 0 512 512" style="enable-background:new 0 0 512 512;" xml:space="preserve" width="512" height="512">
<path d="M497,248.564h-45v-68.873c0-8.284-6.716-15-15-15s-15,6.716-15,15v8.872H164v-8.872c0-8.284-6.716-15-15-15s-15,6.716-15,15  v68.873H90V104.563c0-8.284-6.716-15-15-15H15c-8.284,0-15,6.716-15,15v189.068c0,12.001,4.689,23.298,13.204,31.809  c8.511,8.507,19.801,13.19,31.795,13.19c0.006,0,0.014,0,0.02,0c17.495-0.007,76.81-0.047,88.981-0.054v68.859  c0,8.284,6.716,15,15,15s15-6.716,15-15v-8.873h258v8.873c0,8.284,6.716,15,15,15s15-6.716,15-15v-68.872h45c8.284,0,15-6.716,15-15  v-60C512,255.28,505.284,248.564,497,248.564z M45.007,308.631c-0.003,0-0.005,0-0.007,0c-3.983,0-7.743-1.565-10.587-4.408  C31.567,301.378,30,297.617,30,293.632V119.563h30v144.001c0,8.284,6.716,15,15,15h59v30.013  C121.821,308.584,62.499,308.624,45.007,308.631z M164,368.563v-150h258v150H164z M482,308.564h-30v-30h30V308.564z"/>















</svg>
