<svg height="511.999pt" viewBox="1 1 511.999 511.999" width="511.999pt" xmlns="http://www.w3.org/2000/svg"><path d="m371.292969 89.984375h-108.523438l-29.996093 59.992187h-20.726563v89.984376h29.996094v29.996093h29.992187v-29.996093h89.988282v29.996093h29.996093v-29.996093h29.992188v-89.984376h-20.726563zm-89.988281 29.996094h71.449218l14.996094 29.996093h-101.441406zm110.714843 89.988281h-149.976562v-29.996094h149.976562zm0 0"/><path d="m317.03125 0c-107.507812 0-194.972656 87.464844-194.972656 194.96875 0 48.367188 17.710937 92.671875 46.976562 126.785156l-18.566406 18.566406-21.207031-21.210937-129.261719 129.257813 63.628906 63.632812 129.257813-129.261719-21.207031-21.207031 18.566406-18.570312c34.113281 29.269531 78.417968 46.976562 126.785156 46.976562 107.503906 0 194.96875-87.460938 194.96875-194.96875 0-107.503906-87.464844-194.96875-194.96875-194.96875zm-253.402344 469.578125-21.210937-21.207031 86.84375-86.839844 21.207031 21.207031zm253.402344-109.632813c-90.96875 0-164.976562-74.007812-164.976562-164.976562 0-90.964844 74.007812-164.972656 164.976562-164.972656 90.964844 0 164.972656 74.007812 164.972656 164.972656 0 90.96875-74.007812 164.976562-164.972656 164.976562zm0 0"/></svg>