<svg height="512pt" viewBox="0 0 512 512" width="512pt" xmlns="http://www.w3.org/2000/svg"><path d="m256 302c-41.355469 0-75 33.644531-75 75s33.644531 75 75 75 75-33.644531 75-75-33.644531-75-75-75zm0 120c-24.8125 0-45-20.1875-45-45s20.1875-45 45-45 45 20.1875 45 45-20.1875 45-45 45zm0 0"/><path d="m407 60c-24.8125 0-45 20.1875-45 45s20.1875 45 45 45 45-20.1875 45-45-20.1875-45-45-45zm0 60c-8.269531 0-15-6.730469-15-15s6.730469-15 15-15 15 6.730469 15 15-6.730469 15-15 15zm0 0"/><path d="m407 0c-6.363281 0-12.742188.578125-18.960938 1.71875l-326.578124 59.507812c-.003907 0-.007813 0-.015626.003907-35.601562 6.527343-61.445312 37.550781-61.445312 73.769531 0 11.179688 2.414062 21.949219 7.179688 32.007812v.003907l126.730468 267.582031c22.050782 46.578125 69.15625 77.40625 122.089844 77.40625 53.78125 0 102.410156-31.9375 123.886719-81.359375l123.464843-283.910156c0-.003907 0-.003907.003907-.007813 5.734375-13.207031 8.644531-27.246094 8.644531-41.722656 0-57.898438-47.101562-105-105-105zm-281.105469 79.976562 195.363281-35.597656c-12.183593 17.234375-19.257812 38.214844-19.257812 60.621094 0 57.898438 47.101562 105 105 105 13.804688 0 27.164062-2.71875 39.480469-7.726562l-60.347657 138.773437c-15.777343-57.039063-68.140624-99.046875-130.132812-99.046875-63.5 0-116.894531 44.074219-131.214844 103.234375l-64.78125-136.78125c4.886719 1.011719 9.902344 1.546875 14.996094 1.546875 41.355469 0 75-33.644531 75-75 0-21.726562-9.292969-41.3125-24.105469-55.023438zm-50.894531 10.023438c24.8125 0 45 20.1875 45 45s-20.1875 45-45 45c-24.265625 0-45-19.738281-45-45 0-24.847656 20.101562-45 45-45zm277.371094 328.679688c-16.710938 38.464843-54.539063 63.320312-96.371094 63.320312-56.78125 0-105-46.191406-105-105 0-57.898438 47.101562-105 105-105s105 47.101562 105 105c0 14.472656-2.902344 28.492188-8.625 41.667969 0 .003906-.003906.011719-.003906.011719zm123.46875-283.914063-.011719.023437c-11.9375 27.464844-38.953125 45.210938-68.828125 45.210938-41.355469 0-75-33.644531-75-75 0-36.21875 25.835938-67.246094 61.433594-73.773438 4.441406-.8125 9.007812-1.226562 13.566406-1.226562 41.355469 0 75 33.644531 75 75 0 10.339844-2.074219 20.351562-6.160156 29.765625zm0 0"/><path d="m60 120h30v30h-30zm0 0"/></svg>