<?xml version="1.0" encoding="iso-8859-1"?>
<!-- Generator: Adobe Illustrator 19.0.0, SVG Export Plug-In . SVG Version: 6.00 Build 0)  -->
<svg version="1.1" id="Capa_1" xmlns="http://www.w3.org/2000/svg" xmlns:xlink="http://www.w3.org/1999/xlink" x="0px" y="0px"
	 viewBox="0 0 512 512" style="enable-background:new 0 0 512 512;" xml:space="preserve">
<g>
	<g>
		<path d="M482,81h-93c-5.523,0-10,4.477-10,10s4.477,10,10,10h93c5.514,0,10,4.486,10,10v161.26
			c-15.683-5.38-33.779-1.829-46.271,10.663l-4.59,4.591c-7.134,7.133-18.743,7.133-25.876,0l-9.182-9.182
			c-7.233-7.234-16.851-11.217-27.08-11.217c-10.229,0-19.847,3.983-27.08,11.217l-9.182,9.182c-7.134,7.133-18.743,7.133-25.876,0
			l-9.183-9.183c-14.932-14.932-39.228-14.932-54.16,0l-9.181,9.182c-7.134,7.133-18.743,7.133-25.876,0l-9.182-9.183
			c-14.933-14.932-39.229-14.931-54.161,0l-9.182,9.183c-7.134,7.134-18.741,7.134-25.875,0l-9.182-9.183
			c-7.234-7.233-16.851-11.217-27.08-11.217c-10.23,0-19.847,3.983-27.081,11.217l-9.182,9.183
			c-3.456,3.456-8.05,5.358-12.938,5.358s-9.482-1.903-12.938-5.358L20,285.852V111c0-5.514,4.486-10,10-10h34h128h100.5
			c5.523,0,10-4.477,10-10s-4.477-10-10-10H202V37c0-5.523-4.477-10-10-10H64c-5.523,0-10,4.477-10,10v44H30
			C13.458,81,0,94.458,0,111v364c0,5.523,4.477,10,10,10h492c5.523,0,10-4.477,10-10V111C512,94.458,498.542,81,482,81z M74,47h108
			v34H74V47z M20,309.976c13.87,5.7,30.431,2.929,41.68-8.319l9.183-9.182c7.134-7.135,18.742-7.134,25.875,0l9.183,9.182
			c7.466,7.466,17.272,11.199,27.08,11.199c9.808,0,19.614-3.733,27.08-11.199l9.183-9.182c7.134-7.134,18.742-7.135,25.875,0
			l9.183,9.182c14.932,14.932,39.228,14.931,54.16,0l9.182-9.182c7.134-7.134,18.742-7.135,25.875,0l9.183,9.182
			c14.932,14.932,39.228,14.93,54.16,0l9.182-9.183c3.456-3.456,8.05-5.359,12.938-5.359s9.482,1.903,12.938,5.359l9.183,9.182
			c14.932,14.932,39.229,14.931,54.16,0l4.59-4.591c8.746-8.745,22.439-9.549,32.129-2.469v44.747
			c-4.637-1.594-9.553-2.433-14.6-2.433c-11.964,0-23.211,4.659-31.671,13.119l-4.591,4.591c-7.134,7.135-18.741,7.134-25.876,0
			l-9.182-9.181c-7.233-7.234-16.851-11.217-27.08-11.217c-10.229,0-19.847,3.983-27.08,11.217l-9.183,9.182
			c-7.134,7.135-18.741,7.134-25.876,0l-9.182-9.182c-14.931-14.932-39.227-14.932-54.16,0l-9.182,9.182
			c-7.134,7.135-18.741,7.134-25.876,0l-9.182-9.182c-14.933-14.932-39.229-14.932-54.16,0l-9.183,9.182
			c-3.456,3.456-8.05,5.359-12.938,5.359s-9.482-1.903-12.938-5.359l-9.182-9.182c-7.234-7.233-16.851-11.217-27.08-11.217
			c-10.23,0-19.847,3.983-27.08,11.217l-9.183,9.182c-3.456,3.456-8.05,5.359-12.938,5.359s-9.482-1.903-12.938-5.359L20,352.958
			V309.976z M492.001,465H20v-20.786c4.57,1.883,9.509,2.871,14.6,2.871c10.229,0,19.847-3.983,27.08-11.217l9.182-9.182
			c7.133-7.134,18.742-7.134,25.876,0l9.182,9.182c7.233,7.234,16.851,11.217,27.08,11.217s19.847-3.983,27.08-11.217l9.182-9.182
			c7.133-7.134,18.741-7.134,25.876,0l9.183,9.183c14.932,14.932,39.228,14.932,54.16,0l9.181-9.182
			c7.133-7.134,18.742-7.134,25.876,0l9.182,9.183c14.933,14.932,39.228,14.931,54.161,0l9.182-9.183
			c7.134-7.134,18.741-7.134,25.875,0l9.182,9.183c7.234,7.233,16.851,11.217,27.08,11.217c10.23,0,19.847-3.983,27.081-11.217
			l4.591-4.591c8.745-8.746,22.439-9.55,32.129-2.469V465z M492.004,406.448c-4.637-1.594-9.553-2.433-14.6-2.433
			c-11.964,0-23.211,4.659-31.671,13.119l-4.591,4.591c-7.134,7.135-18.742,7.134-25.875,0l-9.183-9.182
			c-14.932-14.932-39.228-14.932-54.159,0l-9.183,9.182c-7.133,7.135-18.741,7.136-25.875,0l-9.183-9.182
			c-14.932-14.932-39.228-14.931-54.16,0l-9.182,9.182c-7.133,7.135-18.741,7.136-25.875,0l-9.183-9.182
			c-14.932-14.932-39.228-14.93-54.16,0l-9.182,9.183c-3.456,3.456-8.05,5.359-12.938,5.359s-9.482-1.903-12.938-5.359l-9.183-9.182
			c-14.932-14.932-39.228-14.93-54.16,0l-9.182,9.183c-3.456,3.456-8.05,5.359-12.938,5.359s-9.482-1.903-12.938-5.359L20,420.065
			v-42.957c4.57,1.883,9.509,2.871,14.6,2.871c10.229,0,19.847-3.983,27.08-11.217l9.183-9.182c7.134-7.135,18.741-7.134,25.876,0
			l9.182,9.181c7.233,7.234,16.851,11.217,27.08,11.217s19.847-3.983,27.08-11.217l9.183-9.182c7.134-7.135,18.741-7.134,25.876,0
			l9.182,9.182c14.932,14.932,39.228,14.932,54.16,0l9.182-9.182c7.134-7.135,18.741-7.134,25.876,0l9.182,9.182
			c14.933,14.931,39.229,14.932,54.16,0l9.183-9.182c3.456-3.456,8.05-5.359,12.938-5.359s9.482,1.903,12.938,5.359l9.182,9.182
			c7.234,7.233,16.851,11.217,27.08,11.217c10.23,0,19.847-3.983,27.081-11.217l4.591-4.591c8.745-8.746,22.439-9.55,32.129-2.469
			V406.448z"/>
	</g>
</g>
<g>
	<g>
		<path d="M348.4,83.93c-1.86-1.86-4.43-2.93-7.07-2.93c-2.63,0-5.21,1.07-7.07,2.93s-2.93,4.44-2.93,7.07s1.07,5.21,2.93,7.07
			s4.44,2.93,7.07,2.93c2.64,0,5.21-1.07,7.07-2.93c1.87-1.86,2.93-4.44,2.93-7.07S350.27,85.79,348.4,83.93z"/>
	</g>
</g>
<g>
</g>
<g>
</g>
<g>
</g>
<g>
</g>
<g>
</g>
<g>
</g>
<g>
</g>
<g>
</g>
<g>
</g>
<g>
</g>
<g>
</g>
<g>
</g>
<g>
</g>
<g>
</g>
<g>
</g>
</svg>
