<svg height="512pt" viewBox="-41 0 511 512" width="512pt" xmlns="http://www.w3.org/2000/svg"><path d="m427.273438 10.128906c-3.933594-6.34375-10.730469-10.128906-18.183594-10.128906h-387.160156c-7.449219 0-14.25 3.785156-18.183594 10.128906-3.945313 6.367188-4.316406 14.179688-.988282 20.890625 10.605469 21.378907 16.210938 45.316407 16.210938 69.222657v342.359374c0 38.265626 30.9375 69.398438 68.960938 69.398438h255.164062c38.023438 0 68.960938-31.132812 68.960938-69.398438v-342.363281c0-23.902343 5.605468-47.839843 16.210937-69.222656 3.328125-6.710937 2.957031-14.519531-.992187-20.886719zm-31.433594 19.871094c-9.046875 22.214844-13.785156 46.242188-13.785156 70.238281v23.835938c-27.796876 22.054687-68.933594 20.488281-94.835938-4.703125-39.15625-38.082032-102.863281-38.082032-142.019531 0-26.222657 25.5-68.617188 27.890625-96.230469 6.644531v-25.777344c0-24-4.738281-48.023437-13.785156-70.238281zm-52.746094 452h-255.164062c-21.484376 0-38.964844-17.675781-38.964844-39.398438v-281.664062c13.28125 6.195312 28.042968 9.59375 43.457031 9.449219 2.09375-.019531 0 0 2.09375-.019531 27.15625-.253907 52.578125-10.992188 71.601563-29.488282 27.621093-26.863281 72.5625-26.863281 100.183593 0 31.265625 30.402344 78.179688 36.53125 115.753907 18.382813v49.738281h-102.253907c-8.285156 0-15 6.714844-15 15s6.714844 15 15 15h102.253907v30h-53.625c-8.285157 0-15 6.714844-15 15s6.714843 15 15 15h53.625v30h-102.253907c-8.285156 0-15 6.714844-15 15s6.714844 15 15 15h102.253907v30h-53.625c-8.285157 0-15 6.714844-15 15s6.714843 15 15 15h53.625v23.601562c0 21.722657-17.480469 39.398438-38.960938 39.398438zm0 0"/></svg>