<svg height="511pt" viewBox="-10 0 511 511.9995" width="511pt" xmlns="http://www.w3.org/2000/svg"><path d="m464.011719 48.472656 27.238281-27.238281-21.234375-21.234375-27.238281 27.238281-19.992188-19.988281-191.105468 148.640625-22.480469-22.480469-84.9375 84.9375 21.234375 21.238282-127.40625 127.402343 84.9375 84.9375-21.234375 21.234375c-11.734375 11.734375-30.730469 11.738282-42.46875 0-5.671875-5.671875-8.792969-13.214844-8.792969-21.234375s3.121094-15.5625 8.792969-21.234375l-21.234375-21.234375c-11.34375 11.34375-17.589844 26.425781-17.589844 42.46875s6.246094 31.125 17.589844 42.46875c23.472656 23.472657 61.464844 23.472657 84.9375 0l148.640625-148.640625 21.234375 21.234375 84.9375-84.9375-22.480469-22.480469 148.640625-191.105468zm-115.378907 54.496094 39.648438 39.648438-18.582031 23.890624-44.957031-44.957031zm-139.433593 72.910156 42.46875 42.46875-42.46875 42.46875-42.46875-42.46875zm-36.527344 91.160156v114.964844l-33.035156 33.671875v-127.402343l27.09375-27.457032zm-63.0625 51.261719v97.375l-49.050781-48.6875zm93.089844 33.671875v-54.90625l27.734375 27.453125zm70.203125-27.453125-42.46875-42.46875 42.46875-42.46875 42.46875 42.46875zm-19.824219-147.230469 47.777344-37.160156 50.265625 50.265625-37.160156 47.777344zm153.78125-58.558593-34.339844-34.339844 47.777344-37.160156 23.722656 23.722656zm0 0"/></svg>