<svg height="512pt" viewBox="-48 0 512 512" width="512pt" xmlns="http://www.w3.org/2000/svg"><path d="m256.933594 102.132812c8.480468-10.75 13.546875-24.316406 13.546875-39.046874 0-34.785157-28.253907-63.085938-62.980469-63.085938s-62.980469 28.300781-62.980469 63.085938c0 14.730468 5.066407 28.296874 13.546875 39.046874-90.628906 22.273438-158.066406 104.371094-158.066406 201.953126 0 114.644531 93.085938 207.914062 207.5 207.914062s207.5-93.269531 207.5-207.914062c0-97.582032-67.4375-179.679688-158.066406-201.953126zm-82.414063-39.046874c0-18.242188 14.792969-33.085938 32.980469-33.085938s32.980469 14.84375 32.980469 33.085938c0 18.242187-14.792969 33.082031-32.980469 33.082031s-32.980469-14.839844-32.980469-33.082031zm32.980469 418.914062c-97.875 0-177.5-79.8125-177.5-177.914062 0-98.105469 79.625-177.917969 177.5-177.917969s177.5 79.8125 177.5 177.917969c0 98.101562-79.625 177.914062-177.5 177.914062zm0 0"/><path d="m353.472656 289.355469h-5.742187c-6.964844-65.988281-59.335938-118.609375-125.132813-125.804688v-5.84375c0-8.28125-6.714844-15-15-15s-15 6.71875-15 15v5.746094c-66.132812 6.800781-118.902344 59.46875-126.011718 125.632813h-5.773438c-8.285156 0-15 6.714843-15 15 0 8.285156 6.714844 15 15 15h5.714844c6.882812 66.417968 59.757812 119.351562 126.070312 126.171874v5.742188c0 8.285156 6.71875 15 15 15 8.285156 0 15-6.714844 15-15v-5.839844c65.796875-7.199218 118.167969-59.816406 125.132813-125.804687h5.746093c8.28125 0 15-6.71875 15-15 0-8.285157-6.71875-15-15.003906-15zm-130.875 125.574219v-3.929688c0-8.285156-6.714844-15-15-15s-15 6.714844-15 15v4.050781c-49.753906-6.53125-89.277344-46.113281-95.863281-95.964843h3.992187c8.285157 0 15-6.71875 15-15 0-8.285157-6.714843-15-15-15h-3.917968c6.792968-49.601563 46.214844-88.921876 95.789062-95.429688v4.050781c0 8.285157 6.714844 15 15 15s15-6.714843 15-15v-3.929687c49.234375 6.882812 88.269532 46.152344 94.917969 95.578125h-3.957031c-8.285156 0-15 6.714843-15 15 0 8.28125 6.714844 15 15 15h3.957031c-6.648437 49.421875-45.683594 88.691406-94.917969 95.574219zm0 0"/><path d="m237.519531 241.464844-56.972656 19.960937h-.003906c-7.367188 2.585938-13.070313 8.300781-15.644531 15.675781l-19.921876 57.097657c-3.261718 9.34375-.9375 19.492187 6.0625 26.484375 4.894532 4.886718 11.320313 7.480468 17.933594 7.480468 2.839844 0 5.710938-.476562 8.507813-1.457031l56.976562-19.964843c7.371094-2.585938 13.074219-8.296876 15.648438-15.675782l19.917969-57.097656c3.261718-9.34375.9375-19.492188-6.0625-26.484375-6.988282-6.980469-17.121094-9.289063-26.441407-6.019531zm1.117188 31.394531-10.808594 30.988281-20.109375-20.15625zm-62.273438 62.449219 10.484375-30.054688 19.507813 19.546875zm0 0"/></svg>