<svg height="512pt" viewBox="0 0 512 512" width="512pt" xmlns="http://www.w3.org/2000/svg"><path d="m239.847656 226.855469h-29.980468c0 8.269531-6.722657 14.992187-14.988282 14.992187s-14.992187-6.722656-14.992187-14.992187h-29.980469c0 24.800781 20.171875 44.972656 44.972656 44.972656 24.796875 0 44.96875-20.171875 44.96875-44.972656zm0 0"/><path d="m254.839844 331.792969h-14.992188v-10.101563c36.265625-17.207031 59.964844-54.070312 59.964844-94.835937 0-10.488281 0-107.679688 0-121.921875 0-57.859375-47.074219-104.933594-104.933594-104.933594-57.863281 0-104.933594 47.074219-104.933594 104.933594v14.992187h-59.964843v173.101563l34.375 34.371094 21.199219-21.199219-25.59375-25.589844v-38.761719h31.058593c5.011719 34.632813 27.132813 64.773438 58.886719 79.84375v10.101563h-14.992188c-74.390624 0-134.914062 60.519531-134.914062 134.914062v44.972657h389.753906v-44.972657c0-74.394531-60.523437-134.914062-134.914062-134.914062zm-59.960938-301.8125c41.328125 0 74.953125 33.625 74.953125 74.953125v3.792968c-18.058593-8.933593-44.796875-18.78125-74.953125-18.78125-30.164062 0-56.898437 9.847657-74.953125 18.785157v-3.796875c0-41.328125 33.621094-74.953125 74.953125-74.953125zm60.164063 104.933593c-14.9375 7.210938-36.519531 14.992188-60.164063 14.992188-23.679687 0-45.292968-7.800781-60.230468-15.019531 14.878906-7.203125 36.421874-14.960938 60.230468-14.960938 23.644532 0 45.230469 7.777344 60.164063 14.988281zm-165.097657 76.953126h-29.984374v-61.960938h29.984374zm29.980469 14.988281v-65.75c18.054688 8.933593 44.792969 18.78125 74.953125 18.78125 30.15625 0 56.894532-9.847657 74.953125-18.78125v65.75c0 31.722656-20.082031 60.132812-49.96875 70.695312l-9.996093 3.53125v90.671875h-29.980469c0-10.71875 0-80.554687 0-90.671875l-9.996094-3.53125c-29.886719-10.5625-49.964844-38.972656-49.964844-70.695312zm239.847657 254.839843h-29.980469v-59.960937h-29.980469v59.960937h-209.867188v-59.960937h-29.984374v59.960937h-29.980469v-14.988281c0-57.859375 47.074219-104.933593 104.933593-104.933593h14.992188v59.960937h89.941406v-59.960937h14.992188c57.859375 0 104.933594 47.074218 104.933594 104.933593zm0 0"/><path d="m481.695312 149.90625h30.304688l-17.320312-119.925781h-55.945313l-17.324219 119.925781h30.304688v121.921875h-29.980469v149.90625h89.945313v-149.90625h-29.984376zm-17-89.945312h4.019532l8.660156 59.964843h-21.339844zm17 331.792968h-29.980468v-89.945312h29.980468zm0 0"/></svg>