<?xml version="1.0" encoding="iso-8859-1"?>
<!-- Generator: Adobe Illustrator 19.0.0, SVG Export Plug-In . SVG Version: 6.00 Build 0)  -->
<svg version="1.1" id="Capa_1" xmlns="http://www.w3.org/2000/svg" xmlns:xlink="http://www.w3.org/1999/xlink" x="0px" y="0px"
	 viewBox="0 0 512 512" style="enable-background:new 0 0 512 512;" xml:space="preserve">
<g>
	<g>
		<path d="M502.933,151.676L360.322,9.067c-12.091-12.09-31.763-12.089-43.853,0l-19.308,19.308
			c-0.001,0.001-0.003,0.003-0.004,0.004c-0.001,0.001-0.003,0.003-0.004,0.004L159.005,166.531c-3.905,3.905-3.905,10.237,0,14.144
			l25.253,25.253c3.241,3.241,8.27,3.863,12.205,1.511l30.271-18.105l11.183,11.183l-21.197,21.197
			c-3.905,3.905-3.905,10.237,0,14.144c1.953,1.953,4.512,2.929,7.071,2.929c2.559,0,5.119-0.976,7.071-2.929l21.197-21.197
			l22.629,22.629c0.003,0.003,0.006,0.007,0.009,0.01s0.007,0.006,0.01,0.009l22.629,22.629L166.431,390.845
			c-3.905,3.905-3.905,10.237,0,14.144l16.341,16.341c0.197,0.196,0.197,0.516,0,0.712l-69.819,69.819
			c-0.196,0.197-0.516,0.197-0.712,0l-92.101-92.102c-0.197-0.196-0.197-0.516,0-0.712l69.819-69.819
			c0.04-0.041,0.147-0.148,0.356-0.148c0.209,0,0.316,0.107,0.356,0.148l16.341,16.341c3.905,3.905,10.237,3.905,14.144,0
			l48.206-48.206c3.905-3.905,3.905-10.237,0-14.144c-3.905-3.904-10.237-3.904-14.144,0l-41.135,41.135l-9.269-9.269
			c-7.995-7.994-21.003-7.994-28.998,0l-69.818,69.82c-7.994,7.994-7.994,21.003,0,28.998l92.102,92.102
			c3.997,3.997,9.248,5.996,14.499,5.996s10.501-1.999,14.5-5.996l69.819-69.819c3.873-3.873,6.005-9.021,6.005-14.499
			c0-5.477-2.133-10.625-6.005-14.5l-9.269-9.269l123.835-123.835l11.184,11.184l-18.105,30.271
			c-2.353,3.934-1.73,8.963,1.511,12.205l25.253,25.253c1.953,1.953,4.512,2.929,7.071,2.929s5.119-0.976,7.071-2.929
			L502.933,195.53C515.022,183.44,515.022,163.767,502.933,151.676z M249.695,184.01l-14.332-14.332
			c-3.241-3.241-8.27-3.864-12.205-1.511l-30.271,18.105l-12.669-12.669l124.01-124.01l39.941,39.941
			c-24.841-2.305-50.492,6.026-69.47,25.004C255.721,133.518,247.39,159.169,249.695,184.01z M288.843,223.157
			c-26.047-26.046-26.047-68.428,0-94.475c13.023-13.024,30.13-19.536,47.237-19.536s34.215,6.512,47.237,19.536
			c26.047,26.046,26.047,68.428,0,94.475C357.271,249.204,314.889,249.204,288.843,223.157z M338.396,331.781l-12.669-12.669
			l18.105-30.271c2.353-3.934,1.73-8.963-1.511-12.205l-14.332-14.332c2.691,0.25,5.39,0.38,8.09,0.38
			c22.229,0,44.458-8.461,61.381-25.384c18.978-18.979,27.309-44.63,25.004-69.471l39.941,39.941L338.396,331.781z M488.789,181.387
			l-12.241,12.241L318.372,35.45l12.241-12.241c4.291-4.292,11.276-4.292,15.567,0l142.61,142.61
			C493.081,170.111,493.081,177.095,488.789,181.387z"/>
	</g>
</g>
<g>
	<g>
		<path d="M366.92,145.08c-8.237-8.237-19.19-12.775-30.839-12.775c-11.65,0-22.602,4.537-30.839,12.774
			c-8.237,8.237-12.775,19.19-12.775,30.839s4.537,22.602,12.774,30.839c8.237,8.237,19.19,12.775,30.839,12.775
			c11.65,0,22.602-4.536,30.839-12.774c8.237-8.237,12.775-19.19,12.775-30.839S375.157,153.318,366.92,145.08z M352.777,192.616
			c-4.459,4.459-10.39,6.916-16.697,6.916s-12.237-2.456-16.697-6.916c-4.46-4.46-6.916-10.389-6.916-16.697
			s2.456-12.237,6.916-16.697c4.459-4.459,10.39-6.916,16.697-6.916s12.237,2.456,16.697,6.916
			c4.459,4.459,6.916,10.39,6.916,16.697C359.693,182.227,357.237,188.156,352.777,192.616z"/>
	</g>
</g>
<g>
	<g>
		<path d="M126.353,385.645c-13.728-13.728-36.066-13.729-49.795,0c-13.729,13.729-13.729,36.067,0,49.795
			c6.864,6.864,15.881,10.296,24.897,10.296c9.017,0,18.034-3.432,24.898-10.296C140.082,421.712,140.082,399.374,126.353,385.645z
			 M112.21,421.298c-5.93,5.931-15.58,5.93-21.509,0c-5.93-5.93-5.93-15.58,0-21.509c2.965-2.965,6.859-4.448,10.755-4.448
			c3.895,0,7.789,1.482,10.755,4.448C118.141,405.718,118.141,415.368,112.21,421.298z"/>
	</g>
</g>
<g>
	<g>
		<path d="M202.36,250.216c-1.86-1.86-4.44-2.93-7.07-2.93s-5.21,1.07-7.07,2.93c-1.86,1.86-2.93,4.44-2.93,7.07
			c0,2.63,1.07,5.21,2.93,7.07c1.86,1.86,4.44,2.93,7.07,2.93s5.21-1.07,7.07-2.93c1.86-1.86,2.93-4.44,2.93-7.07
			C205.29,254.656,204.22,252.076,202.36,250.216z"/>
	</g>
</g>
<g>
</g>
<g>
</g>
<g>
</g>
<g>
</g>
<g>
</g>
<g>
</g>
<g>
</g>
<g>
</g>
<g>
</g>
<g>
</g>
<g>
</g>
<g>
</g>
<g>
</g>
<g>
</g>
<g>
</g>
</svg>
