<svg height="512pt" viewBox="0 -76 512 512" width="512pt" xmlns="http://www.w3.org/2000/svg"><path d="m512 0h-233.5l-84.121094 112.164062-82.164062-82.164062h-112.214844v30h91v64.152344l-91 30v145.847656h122.507812c6.96875 34.191406 37.273438 60 73.492188 60s66.523438-25.808594 73.492188-60h242.507812zm-30 120h-91v-90h91zm-188.5-90h67.5v90h-135zm-133.714844 90h-38.785156v-38.785156zm36.214844 210c-24.8125 0-45-20.1875-45-45s20.1875-45 45-45 45 20.1875 45 45-20.1875 45-45 45zm73.492188-60c-6.96875-34.191406-37.273438-60-73.492188-60s-66.523438 25.808594-73.492188 60h-92.507812v-30h76v-30h-76v-34.152344l78.40625-25.847656h373.59375v120zm0 0"/><path d="m301 180h60v30h-60zm0 0"/><path d="m181 270h30v30h-30zm0 0"/></svg>