<?xml version="1.0" encoding="iso-8859-1"?>
<!-- Generator: Adobe Illustrator 21.0.0, SVG Export Plug-In . SVG Version: 6.00 Build 0)  -->
<svg xmlns="http://www.w3.org/2000/svg" xmlns:xlink="http://www.w3.org/1999/xlink" version="1.1" id="Capa_1" x="0px" y="0px" viewBox="0 0 512 512" style="enable-background:new 0 0 512 512;" xml:space="preserve" width="512" height="512">
<g>
	<path d="M497,83.5h-15V72c0-8.284-6.716-15-15-15s-15,6.716-15,15v11.5h-15c-8.284,0-15,6.716-15,15v114c0,8.284,6.716,15,15,15h15   v161.51H272v-30h74.999c8.284,0,15-6.716,15-15V227.5H377c8.284,0,15-6.716,15-15v-114c0-8.284-6.716-15-15-15h-15.001V72   c0-8.284-6.716-15-15-15s-15,6.716-15,15v11.5H317c-8.284,0-15,6.716-15,15v114c0,8.284,6.716,15,15,15h14.999v101.51H272V104.889   C272,81.791,253.209,63,230.111,63H41.889C18.791,63,0,81.791,0,104.889v308.223C0,436.209,18.791,455,41.889,455h188.223   c21.095,0,38.589-15.677,41.465-35.99H467c8.284,0,15-6.716,15-15V227.5h15c8.284,0,15-6.716,15-15v-114   C512,90.216,505.284,83.5,497,83.5z M332,113.5h30v84h-30V113.5z M242,413.111c0,6.556-5.333,11.889-11.889,11.889H41.889   C35.333,425,30,419.667,30,413.111V104.889C30,98.333,35.333,93,41.889,93h188.223C236.667,93,242,98.333,242,104.889V413.111z    M482,197.5h-30v-84h30V197.5z"/>
	<path d="M75,213.001h122c8.284,0,15-6.716,15-15V138c0-8.284-6.716-15-15-15H75c-8.284,0-15,6.716-15,15v60.001   C60,206.285,66.716,213.001,75,213.001z M90,153h92v30.001H90V153z"/>
	<path d="M136.25,243C94.206,243,60,277.206,60,319.25c0,42.045,34.206,76.251,76.25,76.251s76.25-34.206,76.25-76.251   C212.5,277.206,178.294,243,136.25,243z M90,319.25c0-25.502,20.748-46.25,46.25-46.25c7.42,0,14.431,1.766,20.652,4.885   l-62.017,62.018C91.766,333.681,90,326.67,90,319.25z M136.25,365.501c-7.156,0-13.936-1.635-19.99-4.548l61.692-61.693   c2.914,6.053,4.548,12.834,4.548,19.99C182.5,344.753,161.752,365.501,136.25,365.501z"/>
</g>















</svg>
