<?xml version="1.0" encoding="iso-8859-1"?>
<!-- Generator: Adobe Illustrator 21.0.0, SVG Export Plug-In . SVG Version: 6.00 Build 0)  -->
<svg xmlns="http://www.w3.org/2000/svg" xmlns:xlink="http://www.w3.org/1999/xlink" version="1.1" id="Capa_1" x="0px" y="0px" viewBox="0 0 512 512" style="enable-background:new 0 0 512 512;" xml:space="preserve" width="512" height="512">
<g>
	<path d="M512,151.5c0-57.897-47.103-105-105-105c-1.348,0-345.323,0.001-345.323,0.001c-0.185,0-0.365,0.021-0.548,0.028   C60.752,46.521,60.379,46.5,60,46.5c-33.084,0-60,26.916-60,60c0,11.766,3.418,22.743,9.294,32.016   c0.056,0.099,0.1,0.202,0.158,0.3l161.492,271.343c13.6,32.471,45.706,55.342,83.055,55.342c29.144,0,55.092-13.928,71.55-35.473   c0.145-0.172,0.302-0.328,0.44-0.508c0,0,156.26-203.394,165.17-215.3C504.245,196.706,512,174.992,512,151.5z M482,151.5   c0,41.355-33.645,75-75,75s-75-33.645-75-75s33.645-75,75-75S482,110.145,482,151.5z M302,151.5c0,57.897,47.103,105,105,105   c5.02,0,9.956-0.362,14.79-1.047l-79.347,103.364C334.598,317.135,297.927,285.5,254,285.5c-39.814,0-73.667,25.99-85.5,61.892   L60.828,166.479C93.53,166.033,120,139.306,120,106.5c0-10.924-2.949-21.167-8.072-29.999h221.667   C314.112,95.573,302,122.147,302,151.5z M60,76.5c16.542,0,30,13.458,30,30s-13.458,30-30,30s-30-13.458-30-30S43.458,76.5,60,76.5   z M254,435.5c-33.084,0-60-26.916-60-60s26.916-60,60-60s60,26.916,60,60S287.084,435.5,254,435.5z"/>
	<path d="M254,360.5c-8.262,0-15,6.738-15,15c0,8.262,6.738,15,15,15c8.262,0,15-6.739,15-15C269,367.238,262.262,360.5,254,360.5z"/>
	<path d="M362,151.5c0,24.813,20.187,45,45,45s45-20.187,45-45s-20.187-45-45-45S362,126.687,362,151.5z M422,151.5   c0,8.271-6.729,15-15,15s-15-6.729-15-15s6.729-15,15-15S422,143.229,422,151.5z"/>
</g>















</svg>
