<svg height="512pt" viewBox="0 0 512 512" width="512pt" xmlns="http://www.w3.org/2000/svg"><path d="m512 30v-30h-512v30h241v34.578125c-17.460938 6.195313-30 22.867187-30 42.421875 0 6.9375 1.582031 13.515625 4.398438 19.390625l-70.613282 70.609375 45 45h-33.054687l-30 60h-65.730469v30h30v120h30v60h90v-60h90v60h90v-60h30v-120h30v-30h-65.730469l-30-60h-33.058593l45-45-70.609376-70.609375c2.816407-5.875 4.398438-12.453125 4.398438-19.390625 0-19.554688-12.539062-36.226562-30-42.421875v-34.578125zm-256 62c8.269531 0 15 6.730469 15 15s-6.730469 15-15 15-15-6.730469-15-15 6.730469-15 15-15zm-75 390h-30v-30h30zm180 0h-30v-30h30zm30-120h-30v30h30v30c-7.238281 0-263.257812 0-270 0v-30h30v-30h-30v-30h11.460938l60 30h127.078124l60-30h11.460938zm-35.125-51.707031-43.414062 21.707031h-112.921876l-43.414062-21.707031 19.144531-38.292969h161.460938zm-76.089844-68.292969h-47.570312l-45-45 49.394531-49.398438c5.875 2.816407 12.453125 4.398438 19.390625 4.398438s13.515625-1.582031 19.390625-4.398438l49.394531 49.398438zm0 0"/></svg>