<svg height="512pt" viewBox="0 -46 512 512" width="512pt" xmlns="http://www.w3.org/2000/svg"><path d="m512 30v-30h-512v30h60v90c-13.230469 0-24.449219 3.234375-34.394531 13.179688l-12.425781 12.425781c-8.5 8.5-13.179688 19.800781-13.179688 31.820312v137.574219c0 24.8125 20.1875 45 45 45h60c24.8125 0 45-20.1875 45-45v-137.574219c0-12.019531-4.679688-23.320312-13.179688-31.820312l-12.425781-12.425781c-9.996093-9.996094-21.246093-13.179688-34.394531-13.179688v-90h151v90c-13.230469 0-24.449219 3.234375-34.394531 13.179688l-12.425781 12.425781c-8.5 8.5-13.179688 19.800781-13.179688 31.820312v137.574219c0 24.8125 20.1875 45 45 45h60c24.8125 0 45-20.1875 45-45v-137.574219c0-12.019531-4.683594-23.320312-13.179688-31.820312l-12.429687-12.425781c-9.992187-9.996094-21.242187-13.179688-34.390625-13.179688v-90h151v90c-13.230469 0-24.449219 3.234375-34.394531 13.179688l-12.425781 12.425781c-8.5 8.5-13.179688 19.800781-13.179688 31.820312v197.574219c0 24.8125 20.1875 45 45 45h60c24.8125 0 45-20.1875 45-45v-197.574219c0-12.019531-4.683594-23.320312-13.179688-31.820312l-12.429687-12.425781c-9.992187-9.996094-21.242187-13.179688-34.390625-13.179688v-90zm-408.820312 124.394531 12.425781 12.425781c2.835937 2.832032 4.394531 6.601563 4.394531 10.605469v17.828125l-36.089844 16.039063 12.183594 27.414062 23.90625-10.625v27.171875l-36.09375 16.039063 12.1875 27.414062 23.90625-10.625v26.917969c0 8.269531-6.730469 15-15 15h-60c-8.269531 0-15-6.730469-15-15v-26.917969l23.90625 10.625 12.1875-27.414062-36.09375-16.039063v-27.171875l23.90625 10.625 12.1875-27.414062-36.09375-16.039063v-17.828125c0-4.003906 1.5625-7.773437 4.394531-10.605469l12.425781-12.425781c2.832032-2.835937 6.601563-4.394531 10.605469-4.394531h35.148438c4.003906 0 7.773437 1.558594 10.605469 4.394531zm181 0 12.425781 12.425781c2.835937 2.832032 4.394531 6.601563 4.394531 10.605469v17.828125l-36.089844 16.039063 12.183594 27.414062 23.90625-10.625v27.171875l-36.09375 16.039063 12.1875 27.414062 23.90625-10.625v26.917969c0 8.269531-6.730469 15-15 15h-60c-8.269531 0-15-6.730469-15-15v-26.917969l23.90625 10.625 12.1875-27.414062-36.09375-16.039063v-27.171875l23.90625 10.625 12.1875-27.414062-36.09375-16.039063v-17.828125c0-4.003906 1.5625-7.773437 4.394531-10.605469l12.425781-12.425781c2.832032-2.835937 6.601563-4.394531 10.605469-4.394531h35.148438c4.003906 0 7.773437 1.558594 10.605469 4.394531zm181 0 12.425781 12.425781c2.835937 2.832032 4.394531 6.601563 4.394531 10.605469v17.828125l-36.089844 16.039063 12.183594 27.414062 23.90625-10.625v27.171875l-36.09375 16.039063 12.1875 27.414062 23.90625-10.625v27.171875l-36.09375 16.039063 12.1875 27.414062 23.90625-10.625v26.917969c0 8.269531-6.730469 15-15 15h-60c-8.269531 0-15-6.730469-15-15v-26.917969l23.90625 10.625 12.1875-27.414062-36.09375-16.039063v-27.171875l23.90625 10.625 12.1875-27.414062-36.09375-16.039063v-27.171875l23.90625 10.625 12.1875-27.414062-36.09375-16.039063v-17.828125c0-4.003906 1.5625-7.773437 4.394531-10.605469l12.425781-12.425781c2.832032-2.835937 6.601563-4.394531 10.605469-4.394531h35.148438c4.003906 0 7.773437 1.558594 10.605469 4.394531zm0 0"/></svg>