<svg height="512pt" viewBox="-21 0 512 512" width="512pt" xmlns="http://www.w3.org/2000/svg"><path d="m76.199219 176.90625h177.289062c8.800781 0 15.960938-7.160156 15.960938-15.960938v-85.476562c0-8.800781-7.160157-15.960938-15.960938-15.960938h-177.289062c-8.800781 0-15.960938 7.160157-15.960938 15.960938v85.476562c0 8.800782 7.160157 15.960938 15.960938 15.960938zm14.039062-87.398438h149.210938v57.398438h-59.605469v-16.046875c0-8.28125-6.714844-15-15-15s-15 6.71875-15 15v16.046875h-59.605469zm0 0"/><path d="m75.238281 226.660156h24.847657c8.28125 0 15-6.714844 15-15s-6.71875-15-15-15h-24.847657c-8.285156 0-15 6.714844-15 15s6.714844 15 15 15zm0 0"/><path d="m152.421875 196.660156c-8.285156 0-15 6.714844-15 15s6.714844 15 15 15h24.84375c8.285156 0 15-6.714844 15-15s-6.714844-15-15-15zm0 0"/><path d="m229.601562 196.660156c-8.285156 0-15 6.714844-15 15s6.714844 15 15 15h24.847657c8.285156 0 15-6.714844 15-15s-6.714844-15-15-15zm0 0"/><path d="m164.84375 248.101562c-58.507812 0-106.105469 47.644532-106.105469 106.203126 0 58.558593 47.597657 106.199218 106.105469 106.199218 58.503906 0 106.105469-47.640625 106.105469-106.199218 0-58.558594-47.597657-106.203126-106.105469-106.203126zm0 182.402344c-41.964844 0-76.105469-34.183594-76.105469-76.199218 0-42.019532 34.140625-76.203126 76.105469-76.203126 15.578125 0 30.074219 4.710938 42.148438 12.785157l-21.273438 21.296875c-6.292969-3.136719-13.382812-4.902344-20.875-4.902344-25.910156 0-46.988281 21.097656-46.988281 47.023438 0 25.925781 21.078125 47.019531 46.988281 47.019531s46.988281-21.09375 46.988281-47.019531c0-7.503907-1.765625-14.605469-4.902343-20.90625l21.261718-21.285157c8.058594 12.085938 12.757813 26.601563 12.757813 42.191407 0 42.015624-34.140625 76.199218-76.105469 76.199218zm16.988281-76.199218c0 9.386718-7.621093 17.019531-16.988281 17.019531s-16.988281-7.636719-16.988281-17.019531c0-9.386719 7.621093-17.023438 16.988281-17.023438s16.988281 7.636719 16.988281 17.023438zm0 0"/><path d="m437.25 84.40625h-7.523438v-69.332031c0-8.285157-6.714843-15.0000002-15-15.0000002-8.285156 0-15 6.7148432-15 15.0000002v69.332031h-7.523437c-18.058594 0-32.75 14.691406-32.75 32.75v195.855469c0 18.058593 14.691406 32.75 32.75 32.75h7.523437v29.496093c0 14.023438-11.390624 25.433594-25.390624 25.433594h-44.648438v-327.15625c0-40.546875-32.988281-73.535156-73.535156-73.535156h-182.617188c-40.546875 0-73.535156 32.988281-73.535156 73.535156v364.929688c0 40.546875 32.988281 73.535156 73.535156 73.535156h182.617188c40.546875 0 73.535156-32.988281 73.535156-73.535156v-7.773438h44.648438c30.542968 0 55.390624-24.867187 55.390624-55.433594v-29.496093h7.523438c18.058594 0 32.75-14.691407 32.75-32.75v-195.855469c0-18.054688-14.691406-32.75-32.75-32.75zm-137.5625 354.058594c0 24.003906-19.53125 43.535156-43.535156 43.535156h-182.617188c-24.007812 0-43.535156-19.53125-43.535156-43.535156v-364.929688c0-24.003906 19.527344-43.535156 43.535156-43.535156h182.617188c24.003906 0 43.535156 19.53125 43.535156 43.535156zm92.511719-324.058594h45.050781c1.515625 0 2.75 1.234375 2.75 2.75v27.007812h-50.550781v-27.007812c0-1.515625 1.234375-2.75 2.75-2.75zm45.050781 201.355469h-45.050781c-1.515625 0-2.75-1.234375-2.75-2.75v-138.847657h50.550781v138.847657c0 1.515625-1.234375 2.75-2.75 2.75zm0 0"/></svg>