<svg id="Capa_1" enable-background="new 0 0 512 512" height="512" viewBox="0 0 512 512" width="512" xmlns="http://www.w3.org/2000/svg"><path id="XMLID_583_" d="m485.843 205.805v-87.545h26.157v-30h-26.157v-87.545h-123.84v87.545h-212.006v-87.545h-123.84v87.545h-26.157v30h26.157v87.545h123.84v-87.545h92.212v122.74h-25.326v30h25.326v122.74h-92.212v-87.545h-123.84v87.545h-26.157v30h26.157v87.545h123.84v-87.545h212.006v87.545h123.84v-87.545h26.157v-30h-26.157v-87.545h-123.84v87.545h-89.794v-122.74h27.169v-30h-27.169v-122.74h89.794v87.545zm-365.846-30h-63.84v-145.09h63.84zm0 305.48h-63.84v-145.09h63.84zm272.006-145.09h63.84v145.09h-63.84zm0-305.48h63.84v145.09h-63.84z"/></svg>