<?xml version="1.0" encoding="iso-8859-1"?>
<!-- Generator: Adobe Illustrator 17.1.0, SVG Export Plug-In . SVG Version: 6.00 Build 0)  -->
<!DOCTYPE svg PUBLIC "-//W3C//DTD SVG 1.1//EN" "http://www.w3.org/Graphics/SVG/1.1/DTD/svg11.dtd">
<svg version="1.1" id="Capa_1" xmlns="http://www.w3.org/2000/svg" xmlns:xlink="http://www.w3.org/1999/xlink" x="0px" y="0px"
	 viewBox="0 0 258.103 258.103" style="enable-background:new 0 0 258.103 258.103;" xml:space="preserve">
<g>
	<path d="M248.904,71.976c-0.973,0-1.972,0.14-2.968,0.414l-11.278,3.106l-11.712-28.53c-3.318-8.082-13.125-14.657-21.863-14.657
		H91.474c-8.737,0-18.544,6.575-21.864,14.657L57.915,75.457L46.777,72.39c-0.997-0.274-1.995-0.414-2.968-0.414
		c-5.33,0-9.199,4.072-9.199,9.683v6.65c0,0.272,0.023,0.54,0.041,0.808c-4.642,2.927-9.001,6.375-12.976,10.351
		C7.698,113.443,0,132.027,0,151.793c0,19.768,7.698,38.351,21.674,52.326c13.978,13.977,32.561,21.676,52.327,21.676
		s38.35-7.698,52.328-21.676c8.147-8.146,14.143-17.865,17.742-28.465h68.936v14.154c0,6.549,5.328,11.877,11.878,11.877h15.511
		c6.549,0,11.877-5.328,11.877-11.877v-56.68c0-8.118-2.508-20.831-5.59-28.34l-1.89-4.604h1.433
		c6.549,0,11.877-5.328,11.877-11.877v-6.65C258.103,76.048,254.234,71.976,248.904,71.976z M84.147,50.58
		c1.984-4.835,7.884-8.79,13.11-8.79h98.041c5.227,0,11.126,3.955,13.11,8.79l17.717,43.154c1.984,4.835-0.667,8.79-5.894,8.79
		h-91.024c-0.931-1.04-1.884-2.064-2.879-3.059c-13.978-13.978-32.562-21.675-52.328-21.675c-0.346,0-0.689,0.021-1.035,0.025
		L84.147,50.58z M74.002,203.646c-13.85,0-26.871-5.395-36.665-15.189c-9.793-9.792-15.186-22.813-15.186-36.663
		s5.394-26.871,15.187-36.665c9.794-9.793,22.815-15.187,36.665-15.187c13.85,0,26.871,5.394,36.665,15.187
		c9.793,9.794,15.187,22.814,15.187,36.665s-5.394,26.871-15.187,36.664C100.873,198.251,87.851,203.646,74.002,203.646z
		 M229.413,148.319c0,2.613-2.138,4.751-4.751,4.751h-33.653c-2.613,0-4.751-2.138-4.751-4.751v-16.152
		c0-2.613,2.138-4.751,4.751-4.751h33.653c2.613,0,4.751,2.138,4.751,4.751V148.319z"/>
	<path d="M103.233,134.124H93.94v-9.172c0-2.992-2.435-5.428-5.427-5.428H58.908c-2.993,0-5.427,2.436-5.427,5.428v9.172h-9.293
		c-2.287,0-4.148,1.86-4.148,4.148v40.137c0,2.287,1.861,4.148,4.148,4.148h59.045c2.288,0,4.148-1.86,4.148-4.148v-40.137
		C107.381,135.985,105.521,134.124,103.233,134.124z M66.572,165.34h-5.869c-0.647,0-1.173-0.526-1.173-1.173v-9.583
		c0-0.647,0.526-1.174,1.173-1.174h5.869c0.647,0,1.174-0.526,1.174-1.173v-5.869c0-0.647,0.526-1.174,1.173-1.174h9.583
		c0.647,0,1.173,0.526,1.173,1.174v5.869c0,0.646,0.526,1.173,1.174,1.173h5.869c0.647,0,1.173,0.526,1.173,1.174v9.583
		c0,0.646-0.526,1.173-1.173,1.173h-5.869c-0.647,0-1.174,0.526-1.174,1.174v5.869c0,0.647-0.526,1.175-1.173,1.175h-9.583
		c-0.647,0-1.173-0.527-1.173-1.175v-5.869C67.746,165.866,67.22,165.34,66.572,165.34z M58.468,124.952
		c0-0.234,0.206-0.439,0.44-0.439h29.605c0.234,0,0.44,0.205,0.44,0.439v9.172H58.468V124.952z"/>
</g>
<g>
</g>
<g>
</g>
<g>
</g>
<g>
</g>
<g>
</g>
<g>
</g>
<g>
</g>
<g>
</g>
<g>
</g>
<g>
</g>
<g>
</g>
<g>
</g>
<g>
</g>
<g>
</g>
<g>
</g>
</svg>
