<?xml version="1.0" encoding="iso-8859-1"?>
<!-- Generator: Adobe Illustrator 17.1.0, SVG Export Plug-In . SVG Version: 6.00 Build 0)  -->
<!DOCTYPE svg PUBLIC "-//W3C//DTD SVG 1.1//EN" "http://www.w3.org/Graphics/SVG/1.1/DTD/svg11.dtd">
<svg version="1.1" id="Capa_1" xmlns="http://www.w3.org/2000/svg" xmlns:xlink="http://www.w3.org/1999/xlink" x="0px" y="0px"
	 viewBox="0 0 297.262 297.262" style="enable-background:new 0 0 297.262 297.262;" xml:space="preserve">
<path d="M293.229,151.231l-2.13-2.992c-2.044-2.872-4.949-7.79-6.476-10.964l-10.504-21.829c-1.795-3.732-6.446-6.655-10.587-6.655
	h-72.626c-4.075,0-8.999,2.683-11.209,6.107l-19.33,29.954c-1.747,2.707-5.874,5.608-9.012,6.336l-16.941,3.925
	c-4.091,0.949-7.42,5.138-7.42,9.337v4.924H97.464v-19.987c0-5.354-2.432-12.966-5.537-17.327l-2.923-4.108
	c-2.804-3.939-6.792-10.692-8.891-15.053L65.691,82.926c-2.465-5.123-8.85-9.137-14.536-9.137H10.851C4.868,73.789,0,78.656,0,84.64
	v106.11c0,5.614,4.286,10.245,9.757,10.795c3.659,12.648,15.336,21.928,29.147,21.928c13.791,0,25.454-9.252,29.13-21.872h18.58
	c5.983,0,10.851-4.867,10.851-10.851v-9.376h29.531v12.604c0,4.357,3.545,7.903,7.903,7.903h12.624
	c2.678,9.192,11.172,15.931,21.216,15.931c10.044,0,18.539-6.738,21.217-15.931h40.98c2.678,9.192,11.172,15.931,21.217,15.931
	c10.044,0,18.539-6.738,21.216-15.931h15.991c4.357,0,7.903-3.546,7.903-7.903v-30.126
	C297.262,159.952,295.49,154.409,293.229,151.231z M38.904,208.201c-8.324,0-15.072-6.749-15.072-15.072
	c0-8.324,6.749-15.071,15.072-15.071c8.322,0,15.071,6.747,15.071,15.071C53.975,201.452,47.226,208.201,38.904,208.201z
	 M58.162,132.012H14.158c-3.606,0-6.555-2.95-6.555-6.556v-26.72c0-3.605,2.95-6.556,6.555-6.556h30.955
	c3.605,0,7.474,2.804,8.596,6.229l8.967,27.372C63.798,129.208,61.767,132.012,58.162,132.012z M168.737,206.688
	c-6.062,0-10.977-4.915-10.977-10.979c0-6.063,4.915-10.976,10.977-10.976c6.063,0,10.978,4.913,10.978,10.976
	C179.715,201.773,174.8,206.688,168.737,206.688z M231.373,151.197h-55.378c-2.888,0-4.019-2.017-2.514-4.48l14.005-22.94
	c1.505-2.464,5.098-4.48,7.986-4.48h35.901V151.197z M252.152,206.688c-6.063,0-10.978-4.915-10.978-10.979
	c0-6.063,4.915-10.976,10.978-10.976c6.061,0,10.977,4.913,10.977,10.976C263.128,201.773,258.213,206.688,252.152,206.688z
	 M268.16,151.197h-24.154v-31.9h13.703c2.888,0,5.985,2.245,6.884,4.989l7.182,21.922
	C272.674,148.952,271.047,151.197,268.16,151.197z"/>
<g>
</g>
<g>
</g>
<g>
</g>
<g>
</g>
<g>
</g>
<g>
</g>
<g>
</g>
<g>
</g>
<g>
</g>
<g>
</g>
<g>
</g>
<g>
</g>
<g>
</g>
<g>
</g>
<g>
</g>
</svg>
