<?xml version="1.0" encoding="iso-8859-1"?>
<!-- Generator: Adobe Illustrator 17.1.0, SVG Export Plug-In . SVG Version: 6.00 Build 0)  -->
<!DOCTYPE svg PUBLIC "-//W3C//DTD SVG 1.1//EN" "http://www.w3.org/Graphics/SVG/1.1/DTD/svg11.dtd">
<svg version="1.1" id="Capa_1" xmlns="http://www.w3.org/2000/svg" xmlns:xlink="http://www.w3.org/1999/xlink" x="0px" y="0px"
	 viewBox="0 0 285.509 285.509" style="enable-background:new 0 0 285.509 285.509;" xml:space="preserve">
<g>
	<path d="M282.196,152.248l-2.719-1.895c-2.473-1.725-4.346-5.718-4.09-8.722l2.756-32.378c0.34-3.988-1.979-8.886-5.279-11.15
		l-58.386-40.067c-1.945-1.335-4.81-2.131-7.665-2.131c-1.745,0-3.376,0.296-4.715,0.857l-32.066,13.416
		c-1.436,0.601-3.47,0.944-5.58,0.944c-1.973,0-3.806-0.292-5.161-0.823l-15.785-6.19c-0.983-0.386-2.052-0.581-3.176-0.581
		c-3.159,0-6.275,1.567-7.94,3.993l-16.291,23.74c-1.161,1.691-1.592,3.74-1.214,5.769c0.377,2.028,1.517,3.785,3.208,4.945
		l10.146,6.963c-1.128,3.407-1.396,7.06-0.721,10.687c1.053,5.659,4.247,10.568,8.992,13.825c3.606,2.475,7.816,3.783,12.174,3.783
		c5.05,0,9.859-1.769,13.667-4.887l38.376,26.335c-2.916,8.866,0.186,18.966,8.26,24.507c3.606,2.475,7.815,3.782,12.173,3.782
		c5.05,0,9.86-1.77,13.668-4.888l18.276,12.542c1.283,0.88,2.786,1.346,4.345,1.346c2.552,0,4.933-1.248,6.368-3.339l20.339-29.637
		C286.556,159.496,285.677,154.675,282.196,152.248z M157.527,121.739c-3.345,4.874-10.008,6.115-14.882,2.77
		c-4.873-3.344-6.112-10.007-2.768-14.881c3.345-4.875,10.007-6.114,14.881-2.771C159.631,110.204,160.873,116.864,157.527,121.739z
		 M179.095,83.901c-2.321-1.593-2.119-3.838,0.451-4.989l23.915-10.715c2.569-1.151,6.571-0.789,8.892,0.804l21.309,14.623
		l-17.6,25.646L179.095,83.901z M230.003,171.477c-3.345,4.873-10.008,6.113-14.882,2.77c-4.873-3.346-6.113-10.01-2.769-14.883
		c3.345-4.875,10.008-6.114,14.882-2.769C232.107,159.94,233.348,166.602,230.003,171.477z M266.059,111.323l-2.684,24.949
		c-0.301,2.8-2.447,3.786-4.769,2.193l-32.388-22.227l17.599-25.646l18.569,12.743C264.707,104.929,266.36,108.523,266.059,111.323z
		"/>
	<path d="M251.657,222.629L54.4,87.664c-3.831-2.621-10.723-4.753-15.362-4.753H9.345C4.192,82.912,0,87.104,0,92.257v128
		c0,5.153,4.192,9.346,9.345,9.346h240.154c3.548,0,4.675-1.237,4.996-2.275S254.585,224.632,251.657,222.629z"/>
</g>
<g>
</g>
<g>
</g>
<g>
</g>
<g>
</g>
<g>
</g>
<g>
</g>
<g>
</g>
<g>
</g>
<g>
</g>
<g>
</g>
<g>
</g>
<g>
</g>
<g>
</g>
<g>
</g>
<g>
</g>
</svg>
