<?xml version="1.0" encoding="iso-8859-1"?>
<!-- Generator: Adobe Illustrator 17.1.0, SVG Export Plug-In . SVG Version: 6.00 Build 0)  -->
<!DOCTYPE svg PUBLIC "-//W3C//DTD SVG 1.1//EN" "http://www.w3.org/Graphics/SVG/1.1/DTD/svg11.dtd">
<svg version="1.1" id="Capa_1" xmlns="http://www.w3.org/2000/svg" xmlns:xlink="http://www.w3.org/1999/xlink" x="0px" y="0px"
	 viewBox="0 0 341.949 341.949" style="enable-background:new 0 0 341.949 341.949;" xml:space="preserve">
<path d="M330.846,129.769h-1.398c-6.122,0-11.103,4.98-11.103,11.103v8.244h-64.257v-8.244c0-6.122-4.98-11.103-11.103-11.103
	h-1.397c-6.122,0-11.103,4.98-11.103,11.103v51.012h-19.543v-20.197c0-5.044-2.292-12.215-5.216-16.324l-2.755-3.87
	c-2.642-3.712-6.399-10.074-8.376-14.183l-13.587-28.238c-2.322-4.827-8.338-8.608-13.694-8.608H82.672
	c-5.272,0-11.641,3.47-14.5,7.9L43.169,147.11c-2.26,3.502-7.599,7.255-11.658,8.195l-21.913,5.079
	C4.306,161.61,0,167.028,0,172.461v38.196c0,5.637,4.586,10.223,10.223,10.223h16.329c3.464,11.89,14.452,20.606,27.444,20.606
	c12.993,0,23.981-8.717,27.445-20.606h43.705c3.464,11.89,14.453,20.606,27.445,20.606c12.992,0,23.98-8.717,27.444-20.606h20.684
	c5.637,0,10.223-4.586,10.223-10.223v-6.686h19.543v5.806c0,6.122,4.98,11.103,11.103,11.103h17.184
	c3.464,11.89,14.453,20.606,27.446,20.606c12.992,0,23.98-8.717,27.444-20.606h17.185c6.122,0,11.103-4.981,11.103-11.103v-68.905
	C341.949,134.75,336.968,129.769,330.846,129.769z M53.996,227.099c-7.841,0-14.2-6.359-14.2-14.202
	c0-7.843,6.358-14.199,14.2-14.199c7.842,0,14.2,6.356,14.2,14.199C68.196,220.74,61.838,227.099,53.996,227.099z M125.713,155.317
	H63.385c-3.735,0-5.199-2.608-3.252-5.796l18.116-29.672c1.947-3.188,6.595-5.796,10.33-5.796h37.135V155.317z M142.055,114.053
	h17.725c3.735,0,7.743,2.904,8.905,6.454l9.291,28.356c1.163,3.55-0.942,6.454-4.677,6.454h-31.244V114.053z M152.591,227.099
	c-7.843,0-14.201-6.359-14.201-14.202c0-7.843,6.358-14.199,14.201-14.199c7.841,0,14.199,6.356,14.199,14.199
	C166.79,220.74,160.433,227.099,152.591,227.099z M286.217,227.099c-7.842,0-14.201-6.359-14.201-14.202
	c0-7.843,6.358-14.199,14.201-14.199c7.841,0,14.199,6.356,14.199,14.199C300.417,220.74,294.058,227.099,286.217,227.099z
	 M318.345,182.536c0,4.133-3.362,7.495-7.495,7.495h-7.497c-4.778-3.59-10.713-5.72-17.136-5.72c-6.423,0-12.358,2.13-17.137,5.72
	h-7.497c-4.133,0-7.495-3.362-7.495-7.495v-21.332h64.257V182.536z"/>
<g>
</g>
<g>
</g>
<g>
</g>
<g>
</g>
<g>
</g>
<g>
</g>
<g>
</g>
<g>
</g>
<g>
</g>
<g>
</g>
<g>
</g>
<g>
</g>
<g>
</g>
<g>
</g>
<g>
</g>
</svg>
