<?xml version="1.0" encoding="iso-8859-1"?>
<!-- Generator: Adobe Illustrator 17.1.0, SVG Export Plug-In . SVG Version: 6.00 Build 0)  -->
<!DOCTYPE svg PUBLIC "-//W3C//DTD SVG 1.1//EN" "http://www.w3.org/Graphics/SVG/1.1/DTD/svg11.dtd">
<svg version="1.1" id="Capa_1" xmlns="http://www.w3.org/2000/svg" xmlns:xlink="http://www.w3.org/1999/xlink" x="0px" y="0px"
	 viewBox="0 0 254.533 254.533" style="enable-background:new 0 0 254.533 254.533;" xml:space="preserve">
<g>
	<path d="M127.267,0.001C57.092,0.001,0,57.092,0,127.266s57.092,127.266,127.267,127.266s127.267-57.091,127.267-127.266
		S197.441,0.001,127.267,0.001z M127.269,226.337c-54.627,0-99.069-44.443-99.069-99.071s44.442-99.071,99.069-99.071
		c54.628,0,99.071,44.443,99.071,99.071S181.896,226.337,127.269,226.337z"/>
	<path d="M150.079,80.158c-1.033,0-2.033,0.544-2.972,1.617l-35.436,40.515c-1.559,1.782-2.872,4.905-3.056,7.265l-3.164,40.73
		c-0.107,1.383,0.184,2.458,0.867,3.197c0.532,0.576,1.257,0.893,2.039,0.893c1.033,0,2.033-0.544,2.972-1.617l35.435-40.515
		c1.559-1.782,2.872-4.905,3.056-7.265l3.164-40.73c0.107-1.383-0.184-2.458-0.867-3.197
		C151.586,80.475,150.861,80.158,150.079,80.158z"/>
	<path d="M84.975,98.169h-1.041c-2.751,0-4.989,2.238-4.989,4.99v19.727c0,4.017,0.146,8.659,0.298,12.401
		c-1.922-3.436-3.604-6.274-3.73-6.488c-0.799-1.345-2.102-3.469-2.905-4.736l-14.273-22.533c-1.215-1.917-3.842-3.362-6.11-3.362
		h-2.08c-2.751,0-4.989,2.238-4.989,4.99v48.216c0,2.751,2.238,4.99,4.989,4.99h1.043c2.751,0,4.989-2.238,4.989-4.99v-20.203
		c0-4.405-0.108-9.22-0.218-12.964c2.199,3.904,4.216,7.241,4.358,7.476c0.787,1.299,2.09,3.417,2.896,4.705l14.137,22.594
		c1.205,1.928,3.829,3.382,6.104,3.382h1.523c2.751,0,4.989-2.238,4.989-4.99v-48.216C89.964,100.407,87.726,98.169,84.975,98.169z"
		/>
	<path d="M194.236,121.63c-7.856-3.045-9.239-5.092-9.239-8.268c0-2.676,2.061-5.801,7.871-5.801c4.216,0,6.743,1.143,6.754,1.147
		c0.69,0.33,1.434,0.497,2.213,0.497c1.88,0,3.627-0.985,4.558-2.572c0.286-0.487,1.659-3.033,0.64-5.332
		c-1.451-3.282-8.373-3.971-13.924-3.971c-11.365,0-19.613,7.078-19.613,16.829c0,7.925,5.128,13.596,15.623,17.316
		c7.298,2.805,8.682,5.179,8.682,8.58c0,4.335-3.362,6.923-8.994,6.923c-3.68,0-6.911-1.37-10.035-2.694
		c-0.519-0.22-1.032-0.438-1.543-0.647c-0.371-0.152-0.756-0.23-1.142-0.23c-2.078,0-3.374,1.917-3.556,5.26
		c-0.135,2.479,1.5,5.045,3.803,5.97c0.26,0.105,6.444,2.565,11.992,2.565c14.543,0,21.053-8.892,21.053-17.706
		C209.378,128.9,201.722,124.518,194.236,121.63z"/>
</g>
<g>
</g>
<g>
</g>
<g>
</g>
<g>
</g>
<g>
</g>
<g>
</g>
<g>
</g>
<g>
</g>
<g>
</g>
<g>
</g>
<g>
</g>
<g>
</g>
<g>
</g>
<g>
</g>
<g>
</g>
</svg>
