<?xml version="1.0" encoding="iso-8859-1"?>
<!-- Generator: Adobe Illustrator 17.1.0, SVG Export Plug-In . SVG Version: 6.00 Build 0)  -->
<!DOCTYPE svg PUBLIC "-//W3C//DTD SVG 1.1//EN" "http://www.w3.org/Graphics/SVG/1.1/DTD/svg11.dtd">
<svg version="1.1" id="Capa_1" xmlns="http://www.w3.org/2000/svg" xmlns:xlink="http://www.w3.org/1999/xlink" x="0px" y="0px"
	 viewBox="0 0 225.091 225.091" style="enable-background:new 0 0 225.091 225.091;" xml:space="preserve">
<g>
	<path d="M29.592,116.947l2.32-10.59l99.848,21.877l-2.319,10.589c-1.073,4.9,2.04,9.761,6.939,10.834l11.604,2.542
		c0.638,0.14,1.29,0.21,1.939,0.21c4.246,0,7.987-3.007,8.895-7.149l9.29-42.401c1.331-6.072,1.538-15.995,0.462-22.119l-0.66-3.757
		l1.072,0.235c0.638,0.14,1.29,0.21,1.939,0.21c4.246,0,7.987-3.007,8.895-7.149l1.09-4.974c0.522-2.387,0.056-4.638-1.313-6.34
		c-1.441-1.792-3.666-2.722-6.271-2.59l-8.947,0.475l-4.086-23.265c-1.158-6.591-7.418-13.118-13.954-14.551L64.328,1.068
		c-1.031-0.226-2.127-0.34-3.258-0.34c-5.98,0-12.355,3.176-15.502,7.724l-13.42,19.397l-7.83-4.12
		c-1.226-0.645-2.487-0.972-3.751-0.972c-3.388,0-6.085,2.321-6.872,5.912l-1.09,4.974c-1.073,4.9,2.04,9.761,6.939,10.834
		l0.954,0.209l-2.169,3.136c-3.537,5.111-7.497,14.212-8.828,20.286l-9.29,42.401c-1.073,4.9,2.04,9.761,6.939,10.834l11.606,2.543
		c0.638,0.14,1.29,0.21,1.939,0.21C24.943,124.096,28.684,121.089,29.592,116.947z M151.162,98.388l-2.648,12.083
		c-0.428,1.955-2.378,3.204-4.333,2.776l-25.177-5.518c-1.955-0.428-3.204-2.378-2.775-4.333l2.646-12.083
		c0.429-1.955,2.379-3.204,4.334-2.775l25.177,5.516C150.341,94.483,151.59,96.433,151.162,98.388z M35.524,42.92l20.328-29.383
		c2.277-3.291,7.34-5.283,11.25-4.427l73.35,16.07c3.91,0.856,7.676,4.783,8.368,8.726l6.182,35.19
		c0.692,3.942-1.94,6.467-5.85,5.61L38.493,50.462C34.583,49.606,33.247,46.212,35.524,42.92z M23.877,83.165l2.649-12.083
		c0.428-1.955,2.378-3.204,4.333-2.775l25.179,5.516c1.955,0.429,3.204,2.379,2.775,4.334l-2.646,12.082
		c-0.429,1.955-2.379,3.204-4.334,2.776l-25.179-5.517C24.698,87.07,23.449,85.12,23.877,83.165z"/>
	<path d="M179.479,148.249c-12.294,0-19.009,5.738-23.925,9.94c-4.073,3.481-6.341,5.42-11.661,5.42
		c-0.073,0-0.146-0.001-0.22-0.001c-5.478-0.054-7.712-2.042-11.77-5.65c-4.884-4.343-11.572-10.291-24.113-10.414
		c-0.131-0.002-0.261-0.002-0.391-0.002c-12.293,0-19.008,5.738-23.924,9.941c-4.071,3.481-6.339,5.42-11.658,5.42
		c-0.073,0-0.146-0.001-0.22-0.001c-5.477-0.054-7.712-2.042-11.77-5.65c-4.883-4.343-11.571-10.291-24.112-10.414
		c-0.032-0.001-0.063-0.001-0.095-0.001c-5.163,0-9.373,4.16-9.424,9.334c-0.052,5.206,4.127,9.468,9.333,9.518
		c5.477,0.054,7.712,2.042,11.77,5.65c4.883,4.343,11.571,10.291,24.112,10.414c0.131,0.002,0.261,0.002,0.391,0.002
		c12.293,0,19.008-5.738,23.924-9.941c4.071-3.48,6.339-5.419,11.658-5.419c0.073,0,0.146,0.001,0.22,0.001
		c5.478,0.054,7.712,2.042,11.77,5.65c4.884,4.343,11.572,10.291,24.113,10.414c0.131,0.002,0.261,0.002,0.391,0.002
		c12.294,0,19.009-5.738,23.925-9.94c4.073-3.481,6.341-5.42,11.661-5.42c0.073,0,0.146,0.001,0.22,0.001
		c5.479,0.054,7.714,2.042,11.772,5.65c4.884,4.344,11.573,10.291,24.115,10.414c0.032,0.001,0.063,0.001,0.095,0.001
		c5.162-0.001,9.373-4.16,9.424-9.334c0.052-5.206-4.127-9.468-9.333-9.519c-5.479-0.054-7.714-2.042-11.773-5.651
		c-4.884-4.343-11.573-10.29-24.115-10.413C179.739,148.249,179.609,148.249,179.479,148.249z"/>
	<path d="M215.758,205.51c-5.479-0.054-7.714-2.042-11.773-5.651c-4.884-4.343-11.573-10.29-24.115-10.413
		c-0.131-0.002-0.261-0.002-0.391-0.002c-12.294,0-19.009,5.738-23.925,9.94c-4.073,3.482-6.341,5.42-11.661,5.42
		c-0.073,0-0.146-0.001-0.22-0.001c-5.478-0.054-7.712-2.042-11.77-5.65c-4.884-4.343-11.572-10.291-24.113-10.414
		c-0.131-0.002-0.261-0.002-0.391-0.002c-12.293,0-19.008,5.738-23.924,9.94c-4.071,3.481-6.339,5.42-11.658,5.42
		c-0.073,0-0.146-0.001-0.22-0.001c-5.477-0.054-7.712-2.042-11.77-5.65c-4.883-4.343-11.571-10.291-24.112-10.414
		c-0.032-0.001-0.063-0.001-0.095-0.001c-5.163,0-9.373,4.16-9.424,9.334c-0.052,5.206,4.127,9.468,9.333,9.519
		c5.477,0.054,7.712,2.042,11.77,5.65c4.883,4.343,11.571,10.291,24.112,10.414c0.131,0.002,0.261,0.002,0.391,0.002
		c12.293,0,19.008-5.738,23.924-9.941c4.071-3.48,6.339-5.419,11.658-5.419c0.073,0,0.146,0.001,0.22,0.001
		c5.478,0.054,7.712,2.042,11.77,5.65c4.884,4.343,11.572,10.291,24.113,10.414c0.131,0.002,0.261,0.002,0.391,0.002
		c12.294,0,19.009-5.738,23.925-9.94c4.073-3.482,6.341-5.42,11.661-5.42c0.073,0,0.146,0.001,0.22,0.001
		c5.479,0.054,7.714,2.042,11.772,5.65c4.884,4.344,11.573,10.291,24.115,10.414c0.032,0.001,0.063,0.001,0.095,0.001
		c5.162-0.001,9.373-4.16,9.424-9.334C225.142,209.823,220.964,205.561,215.758,205.51z"/>
</g>
<g>
</g>
<g>
</g>
<g>
</g>
<g>
</g>
<g>
</g>
<g>
</g>
<g>
</g>
<g>
</g>
<g>
</g>
<g>
</g>
<g>
</g>
<g>
</g>
<g>
</g>
<g>
</g>
<g>
</g>
</svg>
