<?xml version="1.0" encoding="iso-8859-1"?>
<!-- Generator: Adobe Illustrator 17.1.0, SVG Export Plug-In . SVG Version: 6.00 Build 0)  -->
<!DOCTYPE svg PUBLIC "-//W3C//DTD SVG 1.1//EN" "http://www.w3.org/Graphics/SVG/1.1/DTD/svg11.dtd">
<svg version="1.1" id="Capa_1" xmlns="http://www.w3.org/2000/svg" xmlns:xlink="http://www.w3.org/1999/xlink" x="0px" y="0px"
	 viewBox="0 0 278.002 278.002" style="enable-background:new 0 0 278.002 278.002;" xml:space="preserve">
<g>
	<path d="M200.234,112.118c-0.581,0-1.177,0.083-1.772,0.247l-6.733,1.855l-6.993-17.037c-1.982-4.826-7.839-8.753-13.056-8.753
		h-65.451c-5.218,0-11.074,3.927-13.056,8.753l-6.984,17.014l-6.648-1.831c-0.596-0.164-1.191-0.247-1.772-0.247
		c-3.184,0-5.493,2.431-5.493,5.781v3.972c0,3.911,3.181,7.093,7.092,7.093h0.759l-1.128,2.748
		c-1.841,4.485-3.339,12.077-3.339,16.923l0.001,33.845c0,3.911,3.181,7.093,7.092,7.093h9.264c3.911,0,7.093-3.182,7.093-7.093
		v-8.451H178.8v8.451c0,3.911,3.181,7.093,7.092,7.093h9.264c3.911,0,7.093-3.182,7.093-7.093v-33.845
		c0-4.849-1.498-12.44-3.339-16.923l-1.128-2.748h0.855c3.911,0,7.093-3.182,7.093-7.093v-3.972
		C205.729,114.549,203.418,112.118,200.234,112.118z M91.274,125.11l10.58-25.769c1.185-2.887,4.708-5.249,7.828-5.249h58.543
		c3.12,0,6.644,2.362,7.828,5.249l10.58,25.769c1.185,2.887-0.399,5.249-3.52,5.249h-88.32
		C91.674,130.359,90.09,127.997,91.274,125.11z M114.892,157.704c0,1.561-1.276,2.837-2.837,2.837H91.957
		c-1.561,0-2.837-1.276-2.837-2.837v-9.645c0-1.561,1.276-2.837,2.837-2.837h20.098c1.561,0,2.837,1.276,2.837,2.837V157.704z
		 M188.599,157.704c0,1.561-1.276,2.837-2.837,2.837h-20.098c-1.56,0-2.837-1.276-2.837-2.837v-9.645
		c0-1.561,1.276-2.837,2.837-2.837h20.098c1.561,0,2.837,1.276,2.837,2.837V157.704z"/>
	<path d="M271.238,122.635L155.368,6.765C151.006,2.402,145.193,0,139.001,0c-6.192,0-12.005,2.402-16.366,6.764L6.764,122.635
		C2.402,126.996,0,132.809,0,139.001c0,6.192,2.402,12.005,6.764,16.366l115.87,115.87c4.362,4.362,10.175,6.765,16.367,6.765
		c6.192,0,12.005-2.402,16.366-6.764l115.871-115.871c4.361-4.361,6.764-10.174,6.764-16.366
		C278.002,132.809,275.6,126.996,271.238,122.635z M256.359,140.488L140.487,256.36c-0.496,0.496-1.082,0.6-1.486,0.6
		c-0.404,0-0.99-0.104-1.487-0.602L21.643,140.488c-0.496-0.496-0.601-1.083-0.601-1.487c0-0.404,0.104-0.991,0.601-1.487
		L137.515,21.642c0.496-0.496,1.082-0.601,1.486-0.601c0.404,0,0.99,0.104,1.487,0.602l115.871,115.871
		c0.496,0.496,0.601,1.083,0.601,1.487C256.96,139.405,256.855,139.992,256.359,140.488z"/>
</g>
<g>
</g>
<g>
</g>
<g>
</g>
<g>
</g>
<g>
</g>
<g>
</g>
<g>
</g>
<g>
</g>
<g>
</g>
<g>
</g>
<g>
</g>
<g>
</g>
<g>
</g>
<g>
</g>
<g>
</g>
</svg>
