<?xml version="1.0" encoding="iso-8859-1"?>
<!-- Generator: Adobe Illustrator 17.1.0, SVG Export Plug-In . SVG Version: 6.00 Build 0)  -->
<!DOCTYPE svg PUBLIC "-//W3C//DTD SVG 1.1//EN" "http://www.w3.org/Graphics/SVG/1.1/DTD/svg11.dtd">
<svg version="1.1" id="Capa_1" xmlns="http://www.w3.org/2000/svg" xmlns:xlink="http://www.w3.org/1999/xlink" x="0px" y="0px"
	 viewBox="0 0 254.616 254.616" style="enable-background:new 0 0 254.616 254.616;" xml:space="preserve">
<g>
	<path d="M57.284,157.044c1.437,2.063,3.806,3.294,6.337,3.294c1.579,0,3.097-0.476,4.39-1.376l10.104-7.038
		c3.79,3.058,8.557,4.792,13.548,4.792c4.413,0,8.666-1.338,12.3-3.869c4.723-3.289,7.881-8.221,8.895-13.887
		c0.649-3.632,0.356-7.283-0.797-10.683l38.181-26.597c3.791,3.059,8.558,4.793,13.549,4.793c4.413,0,8.666-1.338,12.3-3.868
		c8.034-5.598,11.065-15.719,8.087-24.564l18.192-12.673c1.684-1.172,2.811-2.936,3.174-4.967c0.363-2.031-0.082-4.077-1.255-5.76
		l-20.546-29.495c-1.444-2.073-3.829-3.311-6.38-3.311c-1.568,0-3.078,0.467-4.364,1.35l-2.733,1.875
		c-1.401,0.961-3.518,1.534-5.661,1.534c-1.482,0-2.882-0.279-3.943-0.786l-29.318-14.014c-1.43-0.684-3.183-1.044-5.07-1.044
		c-2.725,0-5.357,0.745-7.226,2.046L60.939,53.272c-3.261,2.271-5.705,7.161-5.563,11.132l1.228,34.737
		c0.111,3.14-1.573,7.761-3.68,10.092l-11.365,12.582c-2.745,3.038-3.074,8.244-0.733,11.604L57.284,157.044z M97.762,143.95
		c-4.849,3.378-11.521,2.186-14.899-2.666c-3.379-4.851-2.186-11.52,2.663-14.9c4.853-3.377,11.521-2.187,14.901,2.665
		C103.805,133.899,102.612,140.572,97.762,143.95z M157.654,76.141c4.85-3.378,11.521-2.186,14.9,2.666
		c3.378,4.85,2.185,11.522-2.664,14.9c-4.852,3.378-11.524,2.185-14.902-2.665C151.609,86.191,152.802,79.52,157.654,76.141z
		 M120.24,24.447c2.31-1.609,6.256-1.887,8.769-0.616l22.394,11.322c2.513,1.271,2.679,3.626,0.368,5.235l-32.231,22.453
		L101.761,37.32L120.24,24.447z M70.447,59.132L91.654,44.36l17.777,25.521L72.644,95.509c-2.311,1.609-4.339,0.627-4.509-2.184
		l-1.579-26.158C66.386,64.357,68.138,60.742,70.447,59.132z"/>
	<path d="M245.27,97.174h-29.692c-4.64,0-11.531,2.132-15.362,4.753L2.948,236.892c-2.928,2.003-3.16,3.66-2.839,4.698
		c0.321,1.038,1.448,2.275,4.996,2.275H245.27c5.153,0,9.346-4.192,9.346-9.346v-128C254.616,101.367,250.424,97.174,245.27,97.174z
		"/>
</g>
<g>
</g>
<g>
</g>
<g>
</g>
<g>
</g>
<g>
</g>
<g>
</g>
<g>
</g>
<g>
</g>
<g>
</g>
<g>
</g>
<g>
</g>
<g>
</g>
<g>
</g>
<g>
</g>
<g>
</g>
</svg>
