<?xml version="1.0" encoding="iso-8859-1"?>
<!-- Generator: Adobe Illustrator 17.1.0, SVG Export Plug-In . SVG Version: 6.00 Build 0)  -->
<!DOCTYPE svg PUBLIC "-//W3C//DTD SVG 1.1//EN" "http://www.w3.org/Graphics/SVG/1.1/DTD/svg11.dtd">
<svg version="1.1" id="Capa_1" xmlns="http://www.w3.org/2000/svg" xmlns:xlink="http://www.w3.org/1999/xlink" x="0px" y="0px"
	 viewBox="0 0 249.947 249.947" style="enable-background:new 0 0 249.947 249.947;" xml:space="preserve">
<path d="M145.417,249.947h-41.156c-2.602,0-4.711-2.109-4.711-4.711c0-2.602,2.109-4.711,4.711-4.711h41.156
	c2.602,0,4.711,2.109,4.711,4.711C150.128,247.838,148.019,249.947,145.417,249.947z"/>
<path d="M223.877,198.28c-2.602,0-4.711-2.109-4.711-4.711v-22.3c0-2.602,2.109-4.711,4.711-4.711c2.602,0,4.711,2.109,4.711,4.711
	v22.3C228.588,196.171,226.479,198.28,223.877,198.28z"/>
<path d="M222.294,178.652h-11.3c-0.846-1.529-2.194-2.874-4-3.889l-73.531-41.35c-1.413-0.795-3.073-1.371-4.856-1.712v-10.511
	h7.382c1.898,0,3.524-1.13,4.271-2.748h39.785v11.693c0,5.412,4.402,9.814,9.814,9.814h12.816c5.412,0,9.814-4.402,9.814-9.814
	V83.306c0-6.707-2.072-17.211-4.62-23.416l-1.562-3.804h1.186c5.412,0,9.814-4.402,9.814-9.814v-5.494
	c0-4.637-3.197-8.002-7.602-8.002c-0.804,0-1.629,0.115-2.452,0.342l-9.321,2.567l-9.677-23.572C185.515,5.434,177.41,0,170.191,0
	H79.625c-7.219,0-15.323,5.434-18.064,12.112l-9.664,23.539l-9.201-2.533c-0.823-0.227-1.648-0.342-2.452-0.342
	c-4.404,0-7.602,3.365-7.602,8.001v5.494c0,5.412,4.402,9.814,9.814,9.814h1.052l-1.562,3.804c-2.548,6.205-4.62,16.709-4.62,23.416
	v46.831c0,5.412,4.402,9.814,9.814,9.814h12.818c5.412,0,9.814-4.402,9.814-9.814v-11.693h39.646
	c0.745,1.618,2.372,2.748,4.271,2.748h7.381v10.512c-1.782,0.34-3.441,0.916-4.854,1.711l-73.533,41.35
	c-1.806,1.015-3.154,2.359-4,3.889h-7.9v-7.383c0-2.602-2.109-4.711-4.711-4.711c-2.601,0-4.711,2.109-4.711,4.711v22.3
	c0,2.602,2.109,4.711,4.711,4.711c2.602,0,4.711-2.109,4.711-4.711v-7.38h7.9c0.846,1.529,2.194,2.874,4,3.889l73.533,41.348
	c1.413,0.795,3.072,1.371,4.854,1.711v12.1c0,2.082,1.687,3.768,3.769,3.768c2.082,0,3.769-1.686,3.769-3.768v-12.099
	c1.783-0.341,3.443-0.917,4.856-1.712l73.531-41.348c1.806-1.015,3.154-2.359,4-3.889h11.3c2.082,0,3.768-1.686,3.768-3.769
	C226.063,180.339,224.376,178.652,222.294,178.652z M193.603,82.511v13.345c0,2.159-1.767,3.926-3.926,3.926h-27.809
	c-2.159,0-3.926-1.767-3.926-3.926V82.511c0-2.159,1.767-3.926,3.926-3.926h27.809C191.836,78.585,193.603,80.352,193.603,82.511z
	 M58.936,50.755l14.639-35.657c1.64-3.994,6.515-7.263,10.833-7.263h81.004c4.318,0,9.193,3.269,10.834,7.263l14.639,35.657
	c1.641,3.994-0.551,7.263-4.869,7.263H63.806C59.487,58.018,57.296,54.749,58.936,50.755z M91.613,95.855
	c0,2.159-1.767,3.926-3.926,3.926H59.88c-2.159,0-3.926-1.767-3.926-3.926V82.511c0-2.159,1.767-3.926,3.926-3.926h27.808
	c2.159,0,3.926,1.767,3.926,3.926V95.855z M128.844,141.627l65.841,37.025h-66.078v-37.131
	C128.683,141.559,128.775,141.588,128.844,141.627z M120.834,141.627c0.069-0.039,0.16-0.068,0.235-0.104v37.13H54.991
	L120.834,141.627z M120.834,223.213l-65.843-37.023h66.078v37.128C120.994,223.281,120.903,223.252,120.834,223.213z
	 M128.844,223.213c-0.069,0.039-0.161,0.068-0.237,0.105v-37.129h66.078L128.844,223.213z"/>
<g>
</g>
<g>
</g>
<g>
</g>
<g>
</g>
<g>
</g>
<g>
</g>
<g>
</g>
<g>
</g>
<g>
</g>
<g>
</g>
<g>
</g>
<g>
</g>
<g>
</g>
<g>
</g>
<g>
</g>
</svg>
