<?xml version="1.0" encoding="iso-8859-1"?>
<!-- Generator: Adobe Illustrator 17.1.0, SVG Export Plug-In . SVG Version: 6.00 Build 0)  -->
<!DOCTYPE svg PUBLIC "-//W3C//DTD SVG 1.1//EN" "http://www.w3.org/Graphics/SVG/1.1/DTD/svg11.dtd">
<svg version="1.1" id="Capa_1" xmlns="http://www.w3.org/2000/svg" xmlns:xlink="http://www.w3.org/1999/xlink" x="0px" y="0px"
	 viewBox="0 0 268.612 268.612" style="enable-background:new 0 0 268.612 268.612;" xml:space="preserve">
<g>
	<path d="M254.473,27.571H14.138C6.342,27.571,0,33.914,0,41.71v185.191c0,7.797,6.342,14.14,14.138,14.14h240.335
		c7.796,0,14.139-6.343,14.139-14.14V41.71C268.612,33.914,262.27,27.571,254.473,27.571z M18.488,144.146
		c-5.58,0-10.12-4.541-10.12-10.121c0-5.58,4.539-10.121,10.12-10.121c5.58,0,10.121,4.541,10.121,10.121
		C28.608,139.605,24.068,144.146,18.488,144.146z M230.88,201.539c0,4.076-3.315,7.394-7.391,7.394H45.124
		c-4.076,0-7.392-3.317-7.392-7.394V67.074c0-4.076,3.316-7.393,7.392-7.393h178.365c4.076,0,7.391,3.316,7.391,7.393V201.539z
		 M258.378,151.923c0,4.65-3.783,8.434-8.433,8.434c-4.65,0-8.434-3.783-8.434-8.434V116.69c0-4.65,3.784-8.434,8.434-8.434
		c4.65,0,8.433,3.783,8.433,8.434V151.923z"/>
	<path d="M200.82,105.106c-0.631,0-1.279,0.091-1.925,0.268l-7.315,2.015l-7.597-18.505c-2.152-5.242-8.513-9.508-14.181-9.508
		H98.709c-5.667,0-12.029,4.266-14.181,9.508l-7.586,18.479l-7.224-1.989c-0.646-0.178-1.294-0.268-1.925-0.268
		c-3.457,0-5.966,2.642-5.966,6.28v4.312c0,4.248,3.456,7.704,7.704,7.704h0.827l-1.227,2.987c-2,4.871-3.626,13.116-3.626,18.381
		v36.761c0,4.248,3.456,7.704,7.704,7.704h10.063c4.248,0,7.704-3.456,7.704-7.704v-9.18h86.563v9.18
		c0,4.248,3.456,7.704,7.704,7.704h10.061c4.248,0,7.704-3.456,7.704-7.704V144.77c0-5.265-1.626-13.51-3.626-18.381l-1.226-2.987
		h0.93c4.248,0,7.704-3.456,7.704-7.704v-4.312C206.786,107.748,204.277,105.106,200.82,105.106z M82.465,119.218l11.491-27.99
		c1.287-3.136,5.114-5.701,8.504-5.701h63.591c3.39,0,7.216,2.565,8.503,5.701l11.491,27.99c1.287,3.136-0.433,5.701-3.823,5.701
		H86.288C82.898,124.92,81.178,122.354,82.465,119.218z M108.117,154.622c0,1.694-1.387,3.081-3.082,3.081H83.206
		c-1.695,0-3.081-1.387-3.081-3.081v-10.477c0-1.694,1.387-3.081,3.081-3.081h21.829c1.695,0,3.082,1.387,3.082,3.081V154.622z
		 M188.178,154.622c0,1.694-1.387,3.081-3.082,3.081h-21.828c-1.695,0-3.081-1.387-3.081-3.081v-10.477
		c0-1.694,1.387-3.081,3.081-3.081h21.828c1.695,0,3.082,1.387,3.082,3.081V154.622z"/>
</g>
<g>
</g>
<g>
</g>
<g>
</g>
<g>
</g>
<g>
</g>
<g>
</g>
<g>
</g>
<g>
</g>
<g>
</g>
<g>
</g>
<g>
</g>
<g>
</g>
<g>
</g>
<g>
</g>
<g>
</g>
</svg>
