<?xml version="1.0" encoding="iso-8859-1"?>
<!-- Generator: Adobe Illustrator 17.1.0, SVG Export Plug-In . SVG Version: 6.00 Build 0)  -->
<!DOCTYPE svg PUBLIC "-//W3C//DTD SVG 1.1//EN" "http://www.w3.org/Graphics/SVG/1.1/DTD/svg11.dtd">
<svg version="1.1" id="Capa_1" xmlns="http://www.w3.org/2000/svg" xmlns:xlink="http://www.w3.org/1999/xlink" x="0px" y="0px"
	 viewBox="0 0 265.301 265.301" style="enable-background:new 0 0 265.301 265.301;" xml:space="preserve">
<g>
	<path d="M259.548,143.36l-3.038-4.271c-2.915-4.095-7.061-11.113-9.241-15.643L232.28,92.292
		c-2.563-5.324-9.198-9.495-15.107-9.495H113.534c-5.814,0-12.841,3.827-15.995,8.714l-27.583,42.746
		c-2.492,3.863-8.382,8.003-12.861,9.041l-24.174,5.602c-5.838,1.354-10.588,7.33-10.588,13.323v42.137
		c0,6.218,5.059,11.276,11.277,11.276h18.013c3.821,13.117,15.943,22.733,30.276,22.733c14.334,0,26.456-9.616,30.277-22.733h58.477
		c3.821,13.117,15.944,22.733,30.278,22.733c14.333,0,26.455-9.616,30.276-22.733h22.816c6.219,0,11.277-5.059,11.277-11.276
		v-42.992C265.301,155.803,262.774,147.894,259.548,143.36z M81.899,222.497c-8.65,0-15.665-7.015-15.665-15.666
		s7.015-15.664,15.665-15.664c8.651,0,15.665,7.013,15.665,15.664S90.55,222.497,81.899,222.497z M171.28,143.311H92.257
		c-4.121,0-5.735-2.877-3.588-6.395l19.984-32.732c2.147-3.518,7.275-6.395,11.396-6.395h51.23V143.311z M200.931,222.497
		c-8.652,0-15.666-7.015-15.666-15.666s7.014-15.664,15.666-15.664c8.65,0,15.664,7.013,15.664,15.664
		S209.582,222.497,200.931,222.497z M223.774,143.311h-34.466V97.789h19.554c4.12,0,8.541,3.204,9.823,7.119l10.249,31.283
		C230.216,140.106,227.895,143.311,223.774,143.311z"/>
	<path d="M30.762,140.411c-5.345-4.607-11.646-13.158-9.785-27.129c3.103-23.296,4.332-35.251,5.543-35.609
		c1.224-0.363,6.663,11.549,18.013,20.209c10.923,8.336,19.143,20.456,15.591,33.635c-0.332,1.237,1.169,2.134,2.096,1.25
		c7.2-6.857,14.137-18.386,10.071-36.032c-1.173-5.413-3.963-12.649-9.708-21.123c-7.332-10.725-13.666-14.865-17.086-16.435
		c-1.024-0.472-2.1,0.533-1.715,1.592C48.366,73.327,44.517,78,39.607,71.496c-1.961-2.6-4.096-7.465-5.92-13.619
		C30.65,47.63,24.549,37.962,15.454,31.335c-2.366-1.724-4.977-3.215-7.794-4.313c-1.018-0.397-2.028,0.604-1.642,1.63
		c2.563,6.796,8.01,26.839-2.404,55.802c-9.296,26.758,1.863,41.882,5.401,45.826c6.769,7.558,14.107,10.999,20.674,12.334
		C30.963,142.871,31.748,141.26,30.762,140.411z"/>
</g>
<g>
</g>
<g>
</g>
<g>
</g>
<g>
</g>
<g>
</g>
<g>
</g>
<g>
</g>
<g>
</g>
<g>
</g>
<g>
</g>
<g>
</g>
<g>
</g>
<g>
</g>
<g>
</g>
<g>
</g>
</svg>
