<?xml version="1.0" encoding="iso-8859-1"?>
<!-- Generator: Adobe Illustrator 17.1.0, SVG Export Plug-In . SVG Version: 6.00 Build 0)  -->
<!DOCTYPE svg PUBLIC "-//W3C//DTD SVG 1.1//EN" "http://www.w3.org/Graphics/SVG/1.1/DTD/svg11.dtd">
<svg version="1.1" id="Capa_1" xmlns="http://www.w3.org/2000/svg" xmlns:xlink="http://www.w3.org/1999/xlink" x="0px" y="0px"
	 viewBox="0 0 258.103 258.103" style="enable-background:new 0 0 258.103 258.103;" xml:space="preserve">
<g>
	<path d="M248.903,71.976c-0.973,0-1.971,0.14-2.968,0.414l-11.278,3.106l-11.713-28.531c-3.317-8.082-13.125-14.657-21.862-14.657
		H91.474c-8.736,0-18.545,6.575-21.863,14.657L57.915,75.457L46.777,72.39c-0.997-0.274-1.995-0.414-2.968-0.414
		c-5.331,0-9.199,4.072-9.199,9.683v6.649c0,0.272,0.023,0.539,0.041,0.808c-4.643,2.927-9.001,6.375-12.977,10.351
		C7.698,113.442,0,132.026,0,151.793c0,19.768,7.698,38.351,21.674,52.326c13.978,13.978,32.561,21.676,52.328,21.676
		c19.766,0,38.35-7.698,52.327-21.676c8.147-8.146,14.143-17.865,17.742-28.465h68.937v14.154c0,6.549,5.328,11.877,11.877,11.877
		h15.511c6.549,0,11.877-5.328,11.877-11.877v-56.68c0-8.118-2.507-20.831-5.59-28.34l-1.891-4.604h1.434
		c6.549,0,11.877-5.328,11.877-11.877v-6.649C258.103,76.048,254.234,71.976,248.903,71.976z M84.147,50.58
		c1.984-4.835,7.884-8.79,13.11-8.79h98.041c5.227,0,11.126,3.955,13.11,8.79l17.717,43.154c1.984,4.835-0.667,8.79-5.893,8.79
		h-91.024c-0.931-1.04-1.885-2.064-2.879-3.059c-13.979-13.978-32.561-21.675-52.327-21.675c-0.347,0-0.689,0.021-1.035,0.025
		L84.147,50.58z M74.002,203.646c-13.85,0-26.871-5.395-36.665-15.19c-9.794-9.792-15.187-22.813-15.187-36.663
		c0-13.851,5.393-26.871,15.187-36.665c9.794-9.793,22.815-15.187,36.665-15.187s26.871,5.394,36.665,15.187
		c9.793,9.794,15.187,22.814,15.187,36.665c0,13.851-5.393,26.871-15.187,36.664C100.872,198.251,87.852,203.646,74.002,203.646z
		 M229.413,148.318c0,2.613-2.138,4.751-4.751,4.751h-33.653c-2.613,0-4.751-2.138-4.751-4.751v-16.152
		c0-2.613,2.138-4.751,4.751-4.751h33.653c2.613,0,4.751,2.138,4.751,4.751V148.318z"/>
	<path d="M106.25,145.133l-4.044-0.472c-0.574-2.064-1.394-4.079-2.44-6.005l2.488-3.146c1.196-1.51,1.074-3.684-0.285-5.061
		l-5.337-5.336c-1.326-1.327-3.59-1.454-5.063-0.287l-3.037,2.407c-1.995-1.135-4.128-2.028-6.353-2.661l-0.459-3.945
		c-0.228-1.923-1.854-3.373-3.783-3.373h-7.568c-1.931,0-3.557,1.451-3.781,3.374l-0.459,3.943
		c-2.284,0.646-4.478,1.574-6.533,2.762l-3.161-2.507c-1.466-1.162-3.724-1.033-5.063,0.285l-5.349,5.35
		c-1.365,1.366-1.489,3.543-0.287,5.062l2.668,3.375c-1.033,1.928-1.838,3.965-2.396,6.066l-4.254,0.485
		c-1.923,0.225-3.373,1.85-3.373,3.78l-0.001,7.567c0.001,1.93,1.451,3.556,3.375,3.783l4.522,0.524
		c0.587,1.915,1.363,3.76,2.314,5.495l-2.854,3.601c-1.196,1.51-1.074,3.686,0.286,5.063l5.35,5.349
		c0.72,0.719,1.675,1.115,2.69,1.115c0.854,0,1.697-0.294,2.371-0.828l3.573-2.827c1.819,1.013,3.746,1.827,5.739,2.428l0.536,4.61
		c0.226,1.924,1.852,3.374,3.782,3.374h7.568c1.929,0,3.555-1.45,3.782-3.375l0.51-4.421c2.144-0.592,4.224-1.433,6.193-2.504
		l3.449,2.727c0.671,0.531,1.511,0.824,2.365,0.824c1.015,0,1.973-0.395,2.698-1.111l5.349-5.349
		c1.366-1.367,1.489-3.543,0.287-5.061l-2.676-3.396c1.093-1.951,1.948-3.995,2.547-6.085l4.109-0.471
		c1.924-0.228,3.375-1.854,3.375-3.784l-0.001-7.566C109.622,146.983,108.172,145.357,106.25,145.133z M91.18,152.87
		c0,9.473-7.706,17.179-17.179,17.179c-9.473,0-17.179-7.706-17.179-17.179c0-9.473,7.706-17.179,17.179-17.179
		C83.474,135.691,91.18,143.397,91.18,152.87z"/>
</g>
<g>
</g>
<g>
</g>
<g>
</g>
<g>
</g>
<g>
</g>
<g>
</g>
<g>
</g>
<g>
</g>
<g>
</g>
<g>
</g>
<g>
</g>
<g>
</g>
<g>
</g>
<g>
</g>
<g>
</g>
</svg>
