<?xml version="1.0" encoding="iso-8859-1"?>
<!-- Generator: Adobe Illustrator 19.0.0, SVG Export Plug-In . SVG Version: 6.00 Build 0)  -->
<svg version="1.1" id="Capa_1" xmlns="http://www.w3.org/2000/svg" xmlns:xlink="http://www.w3.org/1999/xlink" x="0px" y="0px"
	 viewBox="0 0 472 472" style="enable-background:new 0 0 472 472;" xml:space="preserve">
<g>
	<g>
		<path d="M464,72H8c-4.418,0-8,3.582-8,8v312c0,4.418,3.582,8,8,8h456c4.418,0,8-3.582,8-8V80C472,75.582,468.418,72,464,72z
			 M456,384H16V88h440V384z"/>
	</g>
</g>
<g>
	<g>
		<path d="M432,104H40c-4.418,0-8,3.582-8,8v248c0,4.418,3.582,8,8,8h392c4.418,0,8-3.582,8-8V112C440,107.582,436.418,104,432,104z
			 M424,352H48V120h376V352z"/>
	</g>
</g>
<g>
	<g>
		<path d="M92,136c-15.464,0-28,12.536-28,28s12.536,28,28,28s28-12.536,28-28S107.464,136,92,136z M92,176c-6.627,0-12-5.373-12-12
			c0-6.627,5.373-12,12-12s12,5.373,12,12C104,170.627,98.627,176,92,176z"/>
	</g>
</g>
<g>
	<g>
		<path d="M164,136c-15.464,0-28,12.536-28,28s12.536,28,28,28s28-12.536,28-28S179.464,136,164,136z M164,176
			c-6.627,0-12-5.373-12-12c0-6.627,5.373-12,12-12c6.627,0,12,5.373,12,12C176,170.627,170.627,176,164,176z"/>
	</g>
</g>
<g>
	<g>
		<path d="M236,136c-15.464,0-28,12.536-28,28s12.536,28,28,28s28-12.536,28-28S251.464,136,236,136z M236,176
			c-6.627,0-12-5.373-12-12c0-6.627,5.373-12,12-12c6.627,0,12,5.373,12,12C248,170.627,242.627,176,236,176z"/>
	</g>
</g>
<g>
	<g>
		<path d="M308,136c-15.464,0-28,12.536-28,28s12.536,28,28,28c15.464,0,28-12.536,28-28S323.464,136,308,136z M308,176
			c-6.627,0-12-5.373-12-12c0-6.627,5.373-12,12-12c6.627,0,12,5.373,12,12C320,170.627,314.627,176,308,176z"/>
	</g>
</g>
<g>
	<g>
		<path d="M380,136c-15.464,0-28,12.536-28,28s12.536,28,28,28c15.464,0,28-12.536,28-28S395.464,136,380,136z M380,176
			c-6.627,0-12-5.373-12-12c0-6.627,5.373-12,12-12c6.627,0,12,5.373,12,12C392,170.627,386.627,176,380,176z"/>
	</g>
</g>
<g>
	<g>
		<path d="M92,208c-15.464,0-28,12.536-28,28c0,15.464,12.536,28,28,28s28-12.536,28-28C120,220.536,107.464,208,92,208z M92,248
			c-6.627,0-12-5.373-12-12c0-6.627,5.373-12,12-12s12,5.373,12,12C104,242.627,98.627,248,92,248z"/>
	</g>
</g>
<g>
	<g>
		<path d="M164,208c-15.464,0-28,12.536-28,28c0,15.464,12.536,28,28,28s28-12.536,28-28C192,220.536,179.464,208,164,208z M164,248
			c-6.627,0-12-5.373-12-12c0-6.627,5.373-12,12-12c6.627,0,12,5.373,12,12C176,242.627,170.627,248,164,248z"/>
	</g>
</g>
<g>
	<g>
		<path d="M236,208c-15.464,0-28,12.536-28,28c0,15.464,12.536,28,28,28s28-12.536,28-28C264,220.536,251.464,208,236,208z M236,248
			c-6.627,0-12-5.373-12-12c0-6.627,5.373-12,12-12c6.627,0,12,5.373,12,12C248,242.627,242.627,248,236,248z"/>
	</g>
</g>
<g>
	<g>
		<path d="M308,208c-15.464,0-28,12.536-28,28c0,15.464,12.536,28,28,28c15.464,0,28-12.536,28-28C336,220.536,323.464,208,308,208z
			 M308,248c-6.627,0-12-5.373-12-12c0-6.627,5.373-12,12-12c6.627,0,12,5.373,12,12C320,242.627,314.627,248,308,248z"/>
	</g>
</g>
<g>
	<g>
		<path d="M380,208c-15.464,0-28,12.536-28,28c0,15.464,12.536,28,28,28c15.464,0,28-12.536,28-28C408,220.536,395.464,208,380,208z
			 M380,248c-6.627,0-12-5.373-12-12c0-6.627,5.373-12,12-12c6.627,0,12,5.373,12,12C392,242.627,386.627,248,380,248z"/>
	</g>
</g>
<g>
	<g>
		<path d="M92,280c-15.464,0-28,12.536-28,28c0,15.464,12.536,28,28,28s28-12.536,28-28C120,292.536,107.464,280,92,280z M92,320
			c-6.627,0-12-5.373-12-12c0-6.627,5.373-12,12-12s12,5.373,12,12C104,314.627,98.627,320,92,320z"/>
	</g>
</g>
<g>
	<g>
		<path d="M164,280c-15.464,0-28,12.536-28,28c0,15.464,12.536,28,28,28s28-12.536,28-28C192,292.536,179.464,280,164,280z M164,320
			c-6.627,0-12-5.373-12-12c0-6.627,5.373-12,12-12c6.627,0,12,5.373,12,12C176,314.627,170.627,320,164,320z"/>
	</g>
</g>
<g>
	<g>
		<path d="M236,280c-15.464,0-28,12.536-28,28c0,15.464,12.536,28,28,28s28-12.536,28-28C264,292.536,251.464,280,236,280z M236,320
			c-6.627,0-12-5.373-12-12c0-6.627,5.373-12,12-12c6.627,0,12,5.373,12,12C248,314.627,242.627,320,236,320z"/>
	</g>
</g>
<g>
	<g>
		<path d="M308,280c-15.464,0-28,12.536-28,28c0,15.464,12.536,28,28,28c15.464,0,28-12.536,28-28C336,292.536,323.464,280,308,280z
			 M308,320c-6.627,0-12-5.373-12-12c0-6.627,5.373-12,12-12c6.627,0,12,5.373,12,12C320,314.627,314.627,320,308,320z"/>
	</g>
</g>
<g>
	<g>
		<path d="M380,280c-15.464,0-28,12.536-28,28c0,15.464,12.536,28,28,28c15.464,0,28-12.536,28-28C408,292.536,395.464,280,380,280z
			 M380,320c-6.627,0-12-5.373-12-12c0-6.627,5.373-12,12-12c6.627,0,12,5.373,12,12C392,314.627,386.627,320,380,320z"/>
	</g>
</g>
<g>
</g>
<g>
</g>
<g>
</g>
<g>
</g>
<g>
</g>
<g>
</g>
<g>
</g>
<g>
</g>
<g>
</g>
<g>
</g>
<g>
</g>
<g>
</g>
<g>
</g>
<g>
</g>
<g>
</g>
</svg>
