<?xml version="1.0" encoding="iso-8859-1"?>
<!-- Generator: Adobe Illustrator 17.1.0, SVG Export Plug-In . SVG Version: 6.00 Build 0)  -->
<!DOCTYPE svg PUBLIC "-//W3C//DTD SVG 1.1//EN" "http://www.w3.org/Graphics/SVG/1.1/DTD/svg11.dtd">
<svg version="1.1" id="Capa_1" xmlns="http://www.w3.org/2000/svg" xmlns:xlink="http://www.w3.org/1999/xlink" x="0px" y="0px"
	 viewBox="0 0 259.245 259.245" style="enable-background:new 0 0 259.245 259.245;" xml:space="preserve">
<g>
	<path style="stroke:#000000;stroke-width:1.1422;stroke-miterlimit:10;" d="M249.475,72.547c-0.974,0-1.972,0.14-2.969,0.414
		l-11.278,3.106l-11.712-28.531c-3.318-8.082-13.127-14.657-21.863-14.657H92.045c-8.737,0-18.545,6.575-21.862,14.657
		L58.485,76.028l-11.137-3.067c-0.997-0.274-1.995-0.414-2.969-0.414c-5.33,0-9.198,4.072-9.198,9.683v6.649
		c0,0.272,0.022,0.539,0.041,0.808c-4.642,2.927-9.001,6.375-12.977,10.351C8.269,114.014,0.571,132.598,0.571,152.364
		c0,19.768,7.698,38.351,21.675,52.326c13.978,13.978,32.561,21.676,52.327,21.676c19.766,0,38.35-7.698,52.327-21.676
		c8.147-8.146,14.143-17.865,17.741-28.465h68.938v14.154c0,6.549,5.328,11.877,11.877,11.877h15.511
		c6.549,0,11.877-5.328,11.877-11.877V133.7c0-8.119-2.508-20.832-5.591-28.34l-1.891-4.604h1.435
		c6.549,0,11.877-5.328,11.877-11.877v-6.649C258.674,76.619,254.805,72.547,249.475,72.547z M84.719,51.151
		c1.984-4.835,7.884-8.79,13.11-8.79h98.041c5.227,0,11.126,3.955,13.11,8.79l17.717,43.154c1.984,4.835-0.667,8.79-5.894,8.79
		h-91.024c-0.931-1.04-1.884-2.064-2.879-3.059c-13.979-13.978-32.562-21.675-52.327-21.675c-0.347,0-0.689,0.021-1.035,0.025
		L84.719,51.151z M74.573,204.217c-13.85,0-26.871-5.395-36.665-15.188c-9.794-9.793-15.186-22.814-15.186-36.664
		s5.394-26.871,15.186-36.665c9.794-9.793,22.816-15.187,36.665-15.187s26.871,5.394,36.665,15.187
		c9.793,9.794,15.187,22.814,15.187,36.665s-5.393,26.871-15.187,36.664C101.443,198.822,88.423,204.217,74.573,204.217z
		 M229.984,148.89c0,2.613-2.138,4.751-4.751,4.751H191.58c-2.613,0-4.751-2.138-4.751-4.751v-16.152
		c0-2.613,2.138-4.751,4.751-4.751h33.653c2.613,0,4.751,2.138,4.751,4.751V148.89z"/>
	<path style="stroke:#000000;stroke-width:1.1422;stroke-miterlimit:10;" d="M107.877,168.792l-8.526-4.93l7.197-4.285
		c1.154-0.56,1.517-2.112,0.856-3.254c-0.669-1.168-2.115-1.415-3.213-0.776l-9.593,5.622l-15.249-8.875l15.249-8.78l9.593,5.607
		c0.299,0.22,0.688,0.35,1.116,0.35c0.811,0,1.538-0.384,2.097-1.116c0.643-1.159,0.298-2.692-0.856-3.253l-7.197-4.282l8.526-4.925
		c1.111-0.645,1.49-2.075,0.856-3.253c-0.606-1.135-2.11-1.527-3.258-0.862l-8.565,4.971l-0.129-8.57
		c-0.018-1.324-1.027-2.392-2.356-2.392c-1.326,0-2.364,1.151-2.355,2.392l0.085,11.315l-15.161,8.78v-17.82l9.553-5.443
		c1.114-0.634,1.602-2.101,0.941-3.252c-0.67-1.175-2.044-1.518-3.212-0.861l-7.282,4.113v-9.722c0-1.324-1.07-2.396-2.396-2.396
		c-1.329,0-2.355,1.071-2.355,2.396v9.812l-7.539-4.203c-1.175-0.648-2.514-0.281-3.17,0.861c-0.668,1.168-0.253,2.6,0.897,3.252
		l9.812,5.527v17.643l-15.51-8.946l0.09-11.057c0.129-1.24-0.986-2.392-2.314-2.392h-0.086c-1.239,0-2.343,1.067-2.356,2.392
		l-0.085,8.315l-8.352-4.796c-1.165-0.679-2.606-0.275-3.212,0.848c-0.641,1.188-0.309,2.589,0.855,3.263l8.437,4.88l-7.366,4.412
		c-1.154,0.561-1.517,2.111-0.811,3.253c0.449,0.74,1.111,1.116,2.012,1.116c0.468,0,0.861-0.117,1.24-0.35l9.637-5.693
		l15.465,8.866l-15.465,8.954l-9.637-5.701c-1.155-0.674-2.65-0.358-3.252,0.776c-0.64,1.178-0.295,2.597,0.811,3.254l7.366,4.367
		l-8.437,4.925c-1.16,0.681-1.539,2.102-0.855,3.262c0.476,0.803,1.115,1.195,2.01,1.195c0.217,0,0.643-0.125,1.202-0.343
		l8.352-4.802l0.085,8.32c0.013,1.322,1.116,2.344,2.356,2.344h0.086c1.328,0,2.324-1.104,2.314-2.436l-0.09-11.045l15.51-8.868
		v17.553l-9.812,5.528c-1.169,0.659-1.58,2.092-0.897,3.252c0.474,0.816,1.112,1.21,2.012,1.21c0.429,0,0.822-0.077,1.158-0.271
		l7.539-4.27v9.975c0,1.324,1.026,2.359,2.355,2.359c1.325,0,2.396-1.035,2.396-2.359v-9.813l7.282,4.108
		c0.334,0.193,0.727,0.271,1.115,0.271c0.941,0,1.637-0.386,2.097-1.21c0.652-1.151,0.231-2.593-0.941-3.252l-9.553-5.354v-17.816
		l15.161,8.781l-0.085,11.222c-0.009,1.332,1.029,2.436,2.355,2.436c1.329,0,2.339-1.021,2.356-2.344l0.129-8.615l8.565,5.012
		c0.331,0.191,0.772,0.26,1.247,0.26c0.895,0,1.557-0.373,2.011-1.117C109.433,170.899,108.988,169.427,107.877,168.792z"/>
</g>
<g>
</g>
<g>
</g>
<g>
</g>
<g>
</g>
<g>
</g>
<g>
</g>
<g>
</g>
<g>
</g>
<g>
</g>
<g>
</g>
<g>
</g>
<g>
</g>
<g>
</g>
<g>
</g>
<g>
</g>
</svg>
