<svg width="558.9849731445312px" height="248.01252441406248px" xmlns="http://www.w3.org/2000/svg" viewBox="-29.49248657226559 -49.00626220703124 558.9849731445312 248.01252441406248" style="background: rgba(0, 0, 0, 0);" preserveAspectRatio="xMidYMid"><defs><filter id="editing-jagged" x="-100%" y="-100%" width="300%" height="300%"><feTurbulence result="turb" baseFrequency="0" numOctaves="1" seed="1"></feTurbulence><feDisplacementMap in="SourceGraphic" in2="turb" scale="20"></feDisplacementMap></filter></defs><g filter="url(#editing-jagged)"><g transform="translate(46.49000358581543, 138.02000045776367)"><path d="M34.19-18.02L80.24-18.02L80.24-18.02Q92.81-18.02 99.58-24.79L99.58-24.79L99.58-24.79Q106.35-31.55 106.35-44.12L106.35-44.12L106.35-81.91L106.35-81.91Q106.35-88.07 104.59-92.90L104.59-92.90L104.59-92.90Q102.83-97.73 99.45-101.12L99.45-101.12L99.45-101.12Q96.06-104.50 91.23-106.26L91.23-106.26L91.23-106.26Q86.40-108.02 80.24-108.02L80.24-108.02L34.19-108.02L34.19-18.02ZM80.24 0L16.17 0L16.17-126.04L80.24-126.04L80.24-126.04Q90.35-126.04 98.48-122.92L98.48-122.92L98.48-122.92Q106.61-119.79 112.37-114.04L112.37-114.04L112.37-114.04Q118.13-108.28 121.25-100.11L121.25-100.11L121.25-100.11Q124.37-91.93 124.37-81.91L124.37-81.91L124.37-44.12L124.37-44.12Q124.37-34.10 121.25-25.93L121.25-25.93L121.25-25.93Q118.13-17.75 112.37-12.00L112.37-12.00L112.37-12.00Q106.61-6.24 98.48-3.12L98.48-3.12L98.48-3.12Q90.35 0 80.24 0L80.24 0ZM153.19-18.02L153.19-108.02L153.19-108.02Q153.19-111.71 154.60-115.00L154.60-115.00L154.60-115.00Q156.01-118.30 158.47-120.72L158.47-120.72L158.47-120.72Q160.93-123.13 164.22-124.58L164.22-124.58L164.22-124.58Q167.52-126.04 171.21-126.04L171.21-126.04L239.59-126.04L239.59-126.04Q243.28-126.04 246.58-124.58L246.58-124.58L246.58-124.58Q249.87-123.13 252.33-120.72L252.33-120.72L252.33-120.72Q254.79-118.30 256.20-115.00L256.20-115.00L256.20-115.00Q257.61-111.71 257.61-108.02L257.61-108.02L257.61-91.76L239.59-91.76L239.59-108.02L171.21-108.02L171.21-18.02L239.59-18.02L239.59-34.19L257.61-34.19L257.61-18.02L257.61-18.02Q257.61-14.33 256.20-11.03L256.20-11.03L256.20-11.03Q254.79-7.73 252.33-5.27L252.33-5.27L252.33-5.27Q249.87-2.81 246.58-1.41L246.58-1.41L246.58-1.41Q243.28 0 239.59 0L239.59 0L171.21 0L171.21 0Q167.52 0 164.22-1.41L164.22-1.41L164.22-1.41Q160.93-2.81 158.47-5.27L158.47-5.27L158.47-5.27Q156.01-7.73 154.60-11.03L154.60-11.03L154.60-11.03Q153.19-14.33 153.19-18.02L153.19-18.02ZM324.23-126.04L342.25-126.04L390.85 0L372.83 0L361.67-29.00L304.80-29.00L293.64 0L275.63 0L324.23-126.04ZM333.28-102.57L311.66-47.02L354.73-47.02L333.28-102.57Z" fill="#444"></path></g></g><style>text {
  font-size: 64px;
  font-family: Arial Black;
  dominant-baseline: central;
  text-anchor: middle;
}</style></svg>