<?xml version="1.0" encoding="iso-8859-1"?>
<!-- Generator: Adobe Illustrator 17.1.0, SVG Export Plug-In . SVG Version: 6.00 Build 0)  -->
<!DOCTYPE svg PUBLIC "-//W3C//DTD SVG 1.1//EN" "http://www.w3.org/Graphics/SVG/1.1/DTD/svg11.dtd">
<svg version="1.1" id="Capa_1" xmlns="http://www.w3.org/2000/svg" xmlns:xlink="http://www.w3.org/1999/xlink" x="0px" y="0px"
	 viewBox="0 0 259.097 259.097" style="enable-background:new 0 0 259.097 259.097;" xml:space="preserve">
<path d="M252.493,32.127h-1.601V19.834c0-3.167-2.568-5.735-5.735-5.735c-3.167,0-5.735,2.567-5.735,5.735v12.293h-10.648V19.834
	c0-3.167-2.568-5.735-5.735-5.735c-3.167,0-5.735,2.567-5.735,5.735v12.293h-0.798c-3.568,0-7.41,1.708-7.41,5.458v18.436
	c0,11.234,7.304,18.459,19.798,19.993v70.082c0,6.887-5.604,12.49-12.49,12.49h-15.743c-0.503-1.649-1.038-3.186-1.594-4.54
	l-1.775-4.324h1.347c6.147,0,11.148-5.001,11.148-11.148v-6.241c0-5.267-3.631-9.089-8.635-9.089c-0.913,0-1.85,0.131-2.785,0.389
	l-10.589,2.917l-10.994-26.78c-3.114-7.587-12.32-13.759-20.521-13.759H53.376c-8.201,0-17.407,6.172-20.521,13.759l-10.979,26.744
	l-10.455-2.881c-0.935-0.258-1.872-0.389-2.785-0.389c-5.004,0-8.635,3.822-8.635,9.089v6.241c0,6.148,5.001,11.148,11.148,11.148
	h1.198l-1.775,4.324c-2.894,7.049-5.247,18.981-5.247,26.601v53.202c0,6.147,5.001,11.148,11.148,11.148h14.563
	c6.147,0,11.149-5.001,11.149-11.148v-13.285h125.271v13.285c0,6.147,5.001,11.148,11.148,11.148h14.561
	c6.147,0,11.148-5.001,11.148-11.148v-53.202c0-3.319-0.447-7.457-1.191-11.652h13.28c12.626,0,22.898-10.272,22.898-22.898V76.014
	c12.493-1.534,19.796-8.758,19.796-19.993V37.585C259.097,33.268,254.777,32.127,252.493,32.127z M29.87,143.667l16.629-40.507
	c1.862-4.538,7.4-8.251,12.306-8.251h92.029c4.905,0,10.443,3.713,12.306,8.251l16.629,40.507c1.862,4.538-0.627,8.251-5.532,8.251
	H35.402C30.497,151.918,28.008,148.205,29.87,143.667z M66.993,194.903c0,2.453-2.007,4.46-4.459,4.46H30.942
	c-2.452,0-4.459-2.007-4.459-4.46v-15.159c0-2.453,2.007-4.46,4.459-4.46h31.592c2.452,0,4.459,2.007,4.459,4.46V194.903z
	 M182.856,194.903c0,2.453-2.007,4.46-4.459,4.46h-31.592c-2.452,0-4.459-2.007-4.459-4.46v-15.159c0-2.453,2.007-4.46,4.459-4.46
	h31.592c2.452,0,4.459,2.007,4.459,4.46V194.903z"/>
<g>
</g>
<g>
</g>
<g>
</g>
<g>
</g>
<g>
</g>
<g>
</g>
<g>
</g>
<g>
</g>
<g>
</g>
<g>
</g>
<g>
</g>
<g>
</g>
<g>
</g>
<g>
</g>
<g>
</g>
</svg>
