<svg width="504.83995361328124px" height="248.01252441406248px" xmlns="http://www.w3.org/2000/svg" viewBox="-2.4199768066406193 -49.00626220703124 504.83995361328124 248.01252441406248" style="background: rgba(0, 0, 0, 0);" preserveAspectRatio="xMidYMid"><defs><filter id="editing-jagged" x="-100%" y="-100%" width="300%" height="300%"><feTurbulence result="turb" baseFrequency="0" numOctaves="1" seed="1"></feTurbulence><feDisplacementMap in="SourceGraphic" in2="turb" scale="20"></feDisplacementMap></filter></defs><g filter="url(#editing-jagged)"><g transform="translate(70.00001335144043, 138.02000045776367)"><path d="M16.17 0L16.17-126.04L108.02-126.04L108.02-108.02L34.19-108.02L34.19-71.98L97.21-71.98L97.21-53.96L34.19-53.96L34.19-18.02L108.02-18.02L108.02 0L16.17 0ZM135-126.04L153.02-126.04L153.02-18.02L217.79-18.02L217.79 0L135 0L135-126.04ZM239.41-18.02L239.41-108.02L239.41-108.02Q239.41-111.71 240.82-115.00L240.82-115.00L240.82-115.00Q242.23-118.30 244.69-120.72L244.69-120.72L244.69-120.72Q247.15-123.13 250.44-124.58L250.44-124.58L250.44-124.58Q253.74-126.04 257.43-126.04L257.43-126.04L325.81-126.04L325.81-126.04Q329.50-126.04 332.80-124.58L332.80-124.58L332.80-124.58Q336.09-123.13 338.55-120.72L338.55-120.72L338.55-120.72Q341.02-118.30 342.42-115.00L342.42-115.00L342.42-115.00Q343.83-111.71 343.83-108.02L343.83-108.02L343.83-91.76L325.81-91.76L325.81-108.02L257.43-108.02L257.43-18.02L325.81-18.02L325.81-34.19L343.83-34.19L343.83-18.02L343.83-18.02Q343.83-14.33 342.42-11.03L342.42-11.03L342.42-11.03Q341.02-7.73 338.55-5.27L338.55-5.27L338.55-5.27Q336.09-2.81 332.80-1.41L332.80-1.41L332.80-1.41Q329.50 0 325.81 0L325.81 0L257.43 0L257.43 0Q253.74 0 250.44-1.41L250.44-1.41L250.44-1.41Q247.15-2.81 244.69-5.27L244.69-5.27L244.69-5.27Q242.23-7.73 240.82-11.03L240.82-11.03L240.82-11.03Q239.41-14.33 239.41-18.02L239.41-18.02Z" fill="#444"></path></g></g><style>text {
  font-size: 64px;
  font-family: Arial Black;
  dominant-baseline: central;
  text-anchor: middle;
}</style></svg>