<?xml version="1.0" encoding="iso-8859-1"?>
<!-- Generator: Adobe Illustrator 17.1.0, SVG Export Plug-In . SVG Version: 6.00 Build 0)  -->
<!DOCTYPE svg PUBLIC "-//W3C//DTD SVG 1.1//EN" "http://www.w3.org/Graphics/SVG/1.1/DTD/svg11.dtd">
<svg version="1.1" id="Capa_1" xmlns="http://www.w3.org/2000/svg" xmlns:xlink="http://www.w3.org/1999/xlink" x="0px" y="0px"
	 viewBox="0 0 268.611 268.611" style="enable-background:new 0 0 268.611 268.611;" xml:space="preserve">
<g>
	<path d="M254.473,27.57H14.138C6.342,27.57,0,33.913,0,41.71v185.192c0,7.797,6.342,14.14,14.138,14.14h240.335
		c7.796,0,14.139-6.343,14.139-14.14V41.71C268.611,33.913,262.269,27.57,254.473,27.57z M37.73,116.679l38.401,36.306
		c3.865,3.656,10.534,6.31,15.856,6.31H177.5c1.651,0,4.944,1.044,6.294,1.995l47.086,33.198v7.051c0,4.076-3.316,7.394-7.392,7.394
		H45.123c-4.076,0-7.393-3.317-7.393-7.394V116.679z M193.014,148.213c-4.042-2.85-10.566-4.919-15.514-4.919H91.988
		c-1.264,0-3.944-1.066-4.863-1.936l-36.03-34.064h77.211c7.72,0,14-6.28,14-14V59.682h81.183c4.075,0,7.392,3.316,7.392,7.392
		v107.837L193.014,148.213z M37.73,91.294v-24.22c0-4.076,3.316-7.392,7.393-7.392h81.183v31.612H37.73z M258.378,116.69v35.233
		c0,4.65-3.783,8.434-8.434,8.434c-4.65,0-8.435-3.783-8.435-8.434V116.69c0-4.65,3.784-8.434,8.435-8.434
		C254.595,108.256,258.378,112.039,258.378,116.69z M18.487,123.904c5.581,0,10.121,4.541,10.121,10.121
		c0,5.58-4.54,10.121-10.121,10.121c-5.58,0-10.12-4.541-10.12-10.121C8.367,128.445,12.907,123.904,18.487,123.904z"/>
	<path d="M185.598,77.822c-11.942,0-21.658,9.716-21.658,21.658c0,11.808,18.182,37.637,21.658,37.637
		c3.477,0,21.658-25.829,21.658-37.637C207.256,87.538,197.54,77.822,185.598,77.822z M185.598,88.729
		c5.929,0,10.752,4.823,10.752,10.752c0,5.928-4.823,10.751-10.752,10.751c-5.928,0-10.751-4.823-10.751-10.751
		C174.847,93.552,179.67,88.729,185.598,88.729z"/>
</g>
<g>
</g>
<g>
</g>
<g>
</g>
<g>
</g>
<g>
</g>
<g>
</g>
<g>
</g>
<g>
</g>
<g>
</g>
<g>
</g>
<g>
</g>
<g>
</g>
<g>
</g>
<g>
</g>
<g>
</g>
</svg>
