<svg id="Capa_1" enable-background="new 0 0 512 512" height="512" viewBox="0 0 512 512" width="512" xmlns="http://www.w3.org/2000/svg"><g><path d="m68.857 68.857h30v30h-30z"/><path d="m413.143 68.857h30v30h-30z"/><path d="m68.857 413.143h30v30h-30z"/><path d="m413.143 413.143h30v30h-30z"/><path d="m256 443.143c103.191 0 187.143-83.952 187.143-187.143s-83.952-187.143-187.143-187.143-187.143 83.952-187.143 187.143 83.952 187.143 187.143 187.143zm-131.944-101.886c20.168-48.431 55.743-74.331 103.83-74.234-27.798 41.535-28.916 100.414-1.708 143.269-42.681-8.233-79.266-33.785-102.122-69.035zm139.84 71.688c-32.045-41.913-36.412-85.696-12.406-127.087 22.137 44.838 72.354 75.217 123.115 73.119-27.22 31.307-66.599 51.774-110.709 53.968zm131.947-85.309c-52.103 6.763-92.299-11.144-116.24-52.801 49.825 3.315 101.493-25.199 124.922-70.169 13.851 37.972 10.592 87.139-8.682 122.97zm-7.899-156.893c-20.168 48.431-55.742 74.333-103.831 74.234 27.798-41.536 28.917-100.414 1.709-143.269 42.681 8.233 79.266 33.785 102.122 69.035zm-139.84-71.688c32.045 41.913 36.412 85.696 12.406 127.087-22.084-44.846-72.416-75.193-123.115-73.118 27.219-31.308 66.599-51.775 110.709-53.969zm-131.947 85.309c52.107-6.764 92.3 11.141 116.241 52.801-49.825-3.315-101.493 25.199-124.922 70.169-13.852-37.972-10.593-87.139 8.681-122.97z"/><path d="m0 0v512h512v-512zm482 482h-452v-452h452z"/></g></svg>