<svg height="502pt" viewBox="0 -25 502.624 502" width="502pt" xmlns="http://www.w3.org/2000/svg"><path d="m443.3125 45-37.464844 37.464844c-8.335937-15.519532-18.984375-29.914063-31.800781-42.722656l-25.773437-25.773438c-8.671876-8.679688-20.6875-13.65625-32.960938-13.65625s-24.289062 4.976562-32.96875 13.65625l-225.375 225.375c-8.808594 8.800781-13.65625 20.511719-13.65625 32.96875 0 8.09375 2.085938 15.871094 5.945312 22.742188l-49.257812 49.257812 59.3125 59.3125 48-48 71.03125 71.03125c8.679688 8.679688 20.695312 13.65625 32.96875 13.65625s24.289062-4.976562 32.96875-13.65625l19.03125-19.03125 44 44 59.3125-59.3125-44-44 51.429688-51.433594c31.519531-31.511718 49.839843-72.589844 52.679687-116.671875l75.890625-75.894531zm-384 336-36.6875-36.6875 36.6875-36.6875 36.6875 36.6875zm284.6875 11.3125-36.6875 36.6875-32.6875-32.6875 36.6875-36.6875zm18.742188-106.746094-129.773438 129.777344c-5.703125 5.695312-13.59375 8.96875-21.65625 8.96875-8.066406 0-15.953125-3.273438-21.65625-8.96875l-121.375-121.375c-5.785156-5.785156-8.96875-13.480469-8.96875-21.65625s3.183594-15.871094 8.96875-21.65625l225.375-225.375c5.703125-5.695312 13.589844-8.96875 21.65625-8.96875 8.0625 0 15.953125 3.273438 21.65625 8.96875l25.773438 25.773438c31.320312 31.320312 48.570312 72.960937 48.570312 117.257812s-17.25 85.933594-48.570312 117.253906zm50.394531-187.765625 30.175781-30.175781 36.6875 36.6875-53.214844 53.214844c-1.210937-20.792969-5.746094-40.933594-13.648437-59.726563zm0 0"/><path d="m67.3125 344.3125c0 4.417969-3.582031 8-8 8s-8-3.582031-8-8 3.582031-8 8-8 8 3.582031 8 8zm0 0"/><path d="m315.3125 392.3125c0 4.417969-3.582031 8-8 8s-8-3.582031-8-8 3.582031-8 8-8 8 3.582031 8 8zm0 0"/><path d="m451.3125 104.3125c0 4.417969-3.582031 8-8 8s-8-3.582031-8-8 3.582031-8 8-8 8 3.582031 8 8zm0 0"/><path d="m325.640625 36.574219c-5.457031-5.414063-15.183594-5.429688-20.671875.019531l-225.394531 225.390625c-2.710938 2.726563-4.261719 6.496094-4.261719 10.328125s1.550781 7.597656 4.28125 10.34375l121.390625 121.390625c2.726563 2.714844 6.496094 4.265625 10.328125 4.265625s7.597656-1.550781 10.34375-4.28125l129.777344-129.773438c28.292968-28.296874 43.878906-65.921874 43.878906-105.945312s-15.585938-77.648438-43.878906-105.945312zm-10.328125 12.296875 14.0625 14.066406-37.503906 37.503906-14.488282-13.640625zm-104 342.882812-119.441406-119.441406 49.03125-49.03125c-.941406 5.628906-1.589844 11.304688-1.589844 17.03125 0 57.34375 46.65625 104 104 104 5.726562 0 11.398438-.648438 17.03125-1.59375zm108.945312-108.953125-34.457031 34.457031c-13.007812 7.199219-27.664062 11.054688-42.488281 11.054688-48.519531 0-88-39.480469-88-88 0-14.816406 3.847656-29.480469 11.054688-42.488281l34.449218-34.449219c13.007813-7.207031 27.664063-11.0625 42.496094-11.0625 48.519531 0 88 39.480469 88 88 0 14.816406-3.847656 29.480469-11.054688 42.488281zm25.605469-26.191406c.863281-5.386719 1.449219-10.816406 1.449219-16.296875 0-57.34375-46.65625-104-104-104-5.726562 0-11.402344.648438-17.03125 1.589844l39.78125-39.78125 109.128906 102.703125c-5.121094 20.582031-15.070312 39.617187-29.328125 55.785156zm33.449219-88.296875c0 4.625-.257812 9.207031-.710938 13.75l-25.617187-24.109375 22.199219-22.199219c2.625 10.535156 4.128906 21.421875 4.128906 32.558594zm-9.578125-49.726562-28.40625 28.398437-13.070313-12.304687 33.117188-33.128907c3.175781 5.496094 6.007812 11.160157 8.359375 17.035157zm-53.132813 5.125-13.074218-12.304688 37.136718-37.132812c4.265626 4.3125 8.089844 8.925781 11.6875 13.6875zm0 0"/><path d="m243.3125 168.3125c-39.703125 0-72 32.304688-72 72s32.296875 72 72 72 72-32.304688 72-72-32.296875-72-72-72zm0 128c-30.871094 0-56-25.121094-56-56s25.128906-56 56-56 56 25.121094 56 56-25.128906 56-56 56zm0 0"/><path d="m243.3125 216.3125c-13.234375 0-24 10.765625-24 24 0 13.230469 10.765625 24 24 24 13.230469 0 24-10.769531 24-24 0-13.234375-10.769531-24-24-24zm0 32c-4.417969 0-8-3.59375-8-8 0-4.410156 3.582031-8 8-8 4.414062 0 8 3.589844 8 8 0 4.40625-3.585938 8-8 8zm0 0"/><path d="m219.3125 360.3125c0 4.417969-3.582031 8-8 8s-8-3.582031-8-8 3.582031-8 8-8 8 3.582031 8 8zm0 0"/><path d="m131.3125 272.3125c0 4.417969-3.582031 8-8 8s-8-3.582031-8-8 3.582031-8 8-8 8 3.582031 8 8zm0 0"/></svg>