<?xml version="1.0" encoding="iso-8859-1"?>
<!-- Generator: Adobe Illustrator 17.1.0, SVG Export Plug-In . SVG Version: 6.00 Build 0)  -->
<!DOCTYPE svg PUBLIC "-//W3C//DTD SVG 1.1//EN" "http://www.w3.org/Graphics/SVG/1.1/DTD/svg11.dtd">
<svg version="1.1" id="Capa_1" xmlns="http://www.w3.org/2000/svg" xmlns:xlink="http://www.w3.org/1999/xlink" x="0px" y="0px"
	 viewBox="0 0 262.421 262.421" style="enable-background:new 0 0 262.421 262.421;" xml:space="preserve">
<g>
	<path d="M238.435,116.472c-6.603-6.602-15.381-10.238-24.719-10.238c-4.861,0-9.566,0.994-13.896,2.87
		c-0.465-0.692-0.999-1.353-1.61-1.964l-58.532-58.533c1.807-4.262,2.761-8.883,2.761-13.651c0-9.337-3.637-18.115-10.24-24.718
		C125.597,3.636,116.82,0,107.484,0c-3.116,0-6.217,0.414-9.221,1.232c-1.314,0.359-2.388,1.442-2.737,2.759
		c-0.357,1.347,0.046,2.727,1.099,3.778c0,0,12.327,12.422,16.453,16.548c0.43,0.431,0.428,1.461,0.367,1.831l-0.039,0.272
		c-0.445,4.853-1.332,10.748-2.015,12.46c-1.727,0.706-7.717,1.604-12.649,2.045l-0.208,0.027c-0.037,0.005-0.106,0.01-0.198,0.01
		c-0.497,0-1.229-0.14-1.893-0.805c-4.293-4.291-16.135-16.044-16.134-16.044c-1.063-1.065-2.155-1.289-2.883-1.289
		c-1.691,0-3.206,1.222-3.686,2.978c-3.259,12.067,0.198,25.047,9.023,33.872c6.602,6.603,15.381,10.239,24.719,10.239
		c4.77,0,9.391-0.954,13.653-2.762l16.901,16.9c-0.46,1.345-0.723,2.78-0.723,4.278v62.491c-0.075,0.323-0.33,0.958-0.504,1.254
		l-25.023,26.204H65.765l-25.023-26.205c-0.174-0.294-0.429-0.928-0.505-1.254V88.33c0-7.301-5.94-13.241-13.241-13.241
		c-7.301,0-13.24,5.94-13.24,13.241v62.767c0,6.514,3.141,14.352,7.638,19.06l28.879,30.243v54.578c0,4.105,3.338,7.443,7.442,7.443
		h62.121c4.104,0,7.442-3.339,7.442-7.443V200.4l28.881-30.244c4.496-4.71,7.636-12.548,7.636-19.06v-41.285l15.869,15.869
		c0.612,0.613,1.275,1.156,1.979,1.629c-5.508,12.771-3.063,28.18,7.354,38.598c6.601,6.602,15.378,10.237,24.716,10.238h0.001
		c3.116,0,6.217-0.415,9.226-1.234c1.315-0.362,2.388-1.448,2.735-2.765c0.354-1.345-0.051-2.723-1.102-3.77
		c0,0-12.326-12.422-16.453-16.549c-0.431-0.43-0.429-1.462-0.368-1.833l0.038-0.271c0.445-4.852,1.333-10.747,2.016-12.457
		c1.725-0.706,7.718-1.605,12.652-2.047l0.208-0.027c0.036-0.005,0.105-0.01,0.196-0.01c0.498,0,1.229,0.14,1.895,0.806
		c4.293,4.292,16.136,16.046,16.135,16.045c1.063,1.064,2.153,1.286,2.88,1.286c1.692,0,3.207-1.222,3.687-2.977
		C250.718,138.277,247.261,125.299,238.435,116.472z"/>
	<path d="M88.771,170.548c17.55,0,31.829-14.279,31.829-31.83s-14.278-31.83-31.829-31.83c-17.545,0-31.82,14.279-31.82,31.83
		S71.226,170.548,88.771,170.548z"/>
</g>
<g>
</g>
<g>
</g>
<g>
</g>
<g>
</g>
<g>
</g>
<g>
</g>
<g>
</g>
<g>
</g>
<g>
</g>
<g>
</g>
<g>
</g>
<g>
</g>
<g>
</g>
<g>
</g>
<g>
</g>
</svg>
