<svg xmlns:rdf="http://www.w3.org/1999/02/22-rdf-syntax-ns#" xmlns="http://www.w3.org/2000/svg" xmlns:cc="http://creativecommons.org/ns#" xmlns:dc="http://purl.org/dc/elements/1.1/" version="1.1" x="0px" y="0px" viewBox="0 0 100 125"><defs><style type="text/css">.fil0 {fill:black}</style></defs><g transform="translate(0,-952.36218)"><path style="baseline-shift:baseline;block-progression:tb;color:#000000;direction:ltr;text-indent:0;enable-background:accumulate;text-transform:none;" fill="#000" d="m39.369,959.02-0.71875,0.1875-0.03125,0-2.2188,0.65625-0.0625,0-2.1562,0.78125-0.0625,0-1.1875,0.5-0.625,0.71875,0.1875,0.96875,0.875,0.40625,0.40625-0.0625,1.125-0.46875,0.0625-0.0312,2.0625-0.71875,0.03125,0,2.125-0.625,0.03125,0,0.65625-0.15625,0.75-0.625-0.03125-1-0.8125-0.53125-0.40625,0zm14.406,0.96875c0.0796,2.7711-0.0645,5.5492-0.5,8.2812,7.9477,0.7115,15.539,4.1482,21.375,9.9688,6.7641,6.763,10.156,15.632,10.156,24.5,0,8.8675-3.363,17.738-10.125,24.5-13.525,13.522-35.507,13.53-49.031,0-5.8267-5.8317-9.2815-13.423-10-21.375-2.7142,0.4333-5.4688,0.6072-8.2187,0.5312,0.8486,10.07,5.1921,19.54,12.344,26.719,16.788,16.792,43.995,16.784,60.781,0l0.0625-0.062c16.72-16.79,16.676-43.919-0.09375-60.687-7.1906-7.1672-16.66-11.534-26.75-12.375zm-2.375,1.625-42.406,42.375c11.118-0.099,22.218-4.4624,30.094-12.312,7.8465-7.8688,12.205-18.952,12.312-30.062zm-24.125,2.4062-0.375,0.15625-1.1562,0.6875-0.03125,0.0312-1.9375,1.3125-0.03125,0.0312-1.8438,1.4062-0.0625,0.0625-0.46875,0.375-0.375,0.90625,0.46875,0.84375,0.96875,0.125,0.375-0.1875,0.4375-0.375,0.03125-0.0312,1.75-1.3438,0.0625-0.0312,1.8125-1.2188,0.03125-0.0312,1.125-0.6875,0.5-0.8125-0.34375-0.90625-0.9375-0.3125zm25.594,6.4375c-1.7907,8.5421-6.039,16.553-12.219,22.75-6.1971,6.1767-14.23,10.449-22.781,12.25,0.6313,7.5197,3.8362,14.707,9.3438,20.219,12.684,12.689,33.223,12.713,45.906,0.031,6.3414-6.341,9.5-14.66,9.5-22.969-0.0014-8.3084-3.1562-16.595-9.5-22.937-5.5177-5.5029-12.73-8.718-20.25-9.3438zm-36.031,2.0625-0.34375,0.28125-1.375,1.625-0.03125,0.0312-1.4062,1.8438-0.03125,0.0625-1.2188,1.75-0.125,0.96875,0.6875,0.71875,0.96875-0.15625,0.28125-0.28125,1.1875-1.7188,0.03125-0.0312,1.3438-1.7812,0.03125-0.0312,1.3438-1.5938,0.25-0.9375-0.625-0.75-0.96875,0zm-6.4688,10.938-0.9375,0.28125-0.25,0.3125-0.21875,0.46875,0,0.0312-0.875,2.125-0.03125,0.0625-0.75,2.1875-0.03125,0.0312-0.40625,1.4688,0.15625,0.9375,0.875,0.46875,0.875-0.4375,0.1875-0.375,0.40625-1.375,0.03125-0.0625,0.71875-2.0625,0.03125-0.0625,0.8125-2,0.03125-0.0625,0.1875-0.40625-0.03125-0.96875-0.78125-0.5625z"/></g><text x="0" y="115" fill="#000000" font-size="5px" font-weight="bold" font-family="'Helvetica Neue', Helvetica, Arial-Unicode, Arial, Sans-serif">Created by Artdabana@Design</text><text x="0" y="120" fill="#000000" font-size="5px" font-weight="bold" font-family="'Helvetica Neue', Helvetica, Arial-Unicode, Arial, Sans-serif">from the Noun Project</text></svg>