<svg xmlns="http://www.w3.org/2000/svg" xmlns:xlink="http://www.w3.org/1999/xlink" version="1.1" x="0px" y="0px" viewBox="0 0 100 125" enable-background="new 0 0 100 100" xml:space="preserve"><g><path fill="#000000" d="M33.2,14.491c-5.888,0-10.772,4.781-10.772,10.653v26.114c-2.288,0.923-3.935,3.188-3.935,5.788v15.042   c0,1.259,1.116,2.377,2.372,2.377h3.153v8.667c0,1.259,1.116,2.377,2.344,2.377h11.023c1.256,0,2.372-1.118,2.372-2.377v-8.667   h20.483v8.667c0,1.259,1.117,2.377,2.345,2.377h11.051c1.229,0,2.345-1.118,2.345-2.377v-8.667h3.153   c1.228,0,2.372-1.118,2.372-2.377V57.046c0-2.601-1.646-4.865-3.935-5.788V25.144c0-5.872-4.884-10.653-10.801-10.653H33.2   L33.2,14.491z M33.2,19.216h33.572c3.405,0,6.057,2.628,6.057,5.928v0.391H27.144v-0.391C27.144,21.845,29.795,19.216,33.2,19.216   L33.2,19.216z M27.144,30.26h20.623c-0.083,0.28-0.139,0.531-0.139,0.811v19.712H27.144V30.26L27.144,30.26z M52.232,30.26h20.596   v20.523H52.372V31.071C52.372,30.792,52.316,30.54,52.232,30.26L52.232,30.26z M24.744,55.536h50.512   c0.865,0,1.507,0.643,1.507,1.51v12.693H23.209V57.046C23.209,56.179,23.851,55.536,24.744,55.536L24.744,55.536z M31.888,59.479   c-1.758,0-3.153,1.397-3.153,3.159c0,1.733,1.395,3.132,3.153,3.132c1.73,0,3.153-1.398,3.153-3.132   C35.042,60.876,33.619,59.479,31.888,59.479L31.888,59.479z M68.111,59.479c-1.73,0-3.153,1.397-3.153,3.159   c0,1.733,1.423,3.132,3.153,3.132s3.153-1.398,3.153-3.132C71.265,60.876,69.842,59.479,68.111,59.479L68.111,59.479z    M28.735,74.465h6.307v6.318h-6.307V74.465L28.735,74.465z M64.958,74.465h6.307v6.318h-6.307V74.465L64.958,74.465z"/></g><text x="0" y="115" fill="#000000" font-size="5px" font-weight="bold" font-family="'Helvetica Neue', Helvetica, Arial-Unicode, Arial, Sans-serif">Created by romzicon</text><text x="0" y="120" fill="#000000" font-size="5px" font-weight="bold" font-family="'Helvetica Neue', Helvetica, Arial-Unicode, Arial, Sans-serif">from the Noun Project</text></svg>