<svg xmlns="http://www.w3.org/2000/svg" data-name="Layer 1" viewBox="0 0 96 120" x="0px" y="0px"><title>Artboard 107</title><path d="M92,94H82a2.0001,2.0001,0,0,1-2-2V4a2.0001,2.0001,0,0,1,2-2H92a2.0001,2.0001,0,0,1,2,2V92A2.0001,2.0001,0,0,1,92,94Zm-8-4h6V6H84Z"/><path d="M82,73H60.66992V69H80V27H60.66992V23H82a2.0001,2.0001,0,0,1,2,2V71A2.0001,2.0001,0,0,1,82,73Z"/><path d="M46.90039,64.919H27.09961a8.11658,8.11658,0,0,1-8.15332-8.061V29.189c0-4.99511,9.3584-7.27,18.05371-7.27s18.05371,2.2749,18.05371,7.27V56.85791A8.11658,8.11658,0,0,1,46.90039,64.919ZM37,25.919c-9.0918,0-13.74219,2.37744-14.06055,3.32324l.00684,27.61572a4.11268,4.11268,0,0,0,4.15332,4.061H46.90039a4.11268,4.11268,0,0,0,4.15332-4.061V29.22363C50.68164,28.26563,46.0332,25.919,37,25.919Z"/><path d="M47.70313,48.0542H26.29688a2.0001,2.0001,0,0,1-2-2V35.51367a2.0001,2.0001,0,0,1,2-2H47.70313a2.0001,2.0001,0,0,1,2,2V46.0542A2.0001,2.0001,0,0,1,47.70313,48.0542Zm-19.40625-4H45.70313V37.51367H28.29688Z"/><path d="M44.13477,37.51367H29.86523a2.0001,2.0001,0,0,1-2-2V33.99561a5.83944,5.83944,0,0,1,5.833-5.8335h6.60352a5.83944,5.83944,0,0,1,5.833,5.8335v1.51806A2.0001,2.0001,0,0,1,44.13477,37.51367Zm-12.20508-4H42.07031a1.83641,1.83641,0,0,0-1.76855-1.35156H33.69824A1.83641,1.83641,0,0,0,31.92969,33.51367Z"/><path d="M20.94629,72.29736a2,2,0,0,1-1.40332-3.4248l7.49121-7.37842a1.99984,1.99984,0,0,1,2.80664,2.84961l-7.49121,7.37842A1.99321,1.99321,0,0,1,20.94629,72.29736Z"/><path d="M53.05371,72.29736a1.99323,1.99323,0,0,1-1.40332-.57519l-7.49121-7.37842a1.99984,1.99984,0,0,1,2.80664-2.84961L54.457,68.87256a2,2,0,0,1-1.40332,3.4248Z"/><path d="M45.25,57.74493c3.86071,0,3.86711-6,0-6-3.86071,0-3.86711,6,0,6Z"/><path d="M29.08446,57.74493c3.86071,0,3.86711-6,0-6-3.86071,0-3.86711,6,0,6Z"/><path d="M37,83A35,35,0,1,1,72,48,35.03994,35.03994,0,0,1,37,83Zm0-66A31,31,0,1,0,68,48,31.035,31.035,0,0,0,37,17Z"/><text x="0" y="111" fill="#000000" font-size="5px" font-weight="bold" font-family="'Helvetica Neue', Helvetica, Arial-Unicode, Arial, Sans-serif">Created by Adi Kurniawan</text><text x="0" y="116" fill="#000000" font-size="5px" font-weight="bold" font-family="'Helvetica Neue', Helvetica, Arial-Unicode, Arial, Sans-serif">from the Noun Project</text></svg>