<?xml version="1.0" encoding="iso-8859-1"?>
<!-- Generator: Adobe Illustrator 17.1.0, SVG Export Plug-In . SVG Version: 6.00 Build 0)  -->
<!DOCTYPE svg PUBLIC "-//W3C//DTD SVG 1.1//EN" "http://www.w3.org/Graphics/SVG/1.1/DTD/svg11.dtd">
<svg version="1.1" id="Capa_1" xmlns="http://www.w3.org/2000/svg" xmlns:xlink="http://www.w3.org/1999/xlink" x="0px" y="0px"
	 viewBox="0 0 268.672 268.672" style="enable-background:new 0 0 268.672 268.672;" xml:space="preserve">
<g>
	<path d="M160.332,119.063c-0.728,0-1.475,0.103-2.22,0.309l-8.439,2.324l-8.763-21.345c-2.483-6.048-9.821-10.968-16.357-10.968
		H42.545c-6.537,0-13.875,4.92-16.358,10.968l-8.751,21.315l-8.333-2.295c-0.745-0.205-1.492-0.309-2.22-0.309
		c-3.988,0-6.883,3.046-6.883,7.244v4.976c0,4.9,3.986,8.887,8.887,8.887H9.84l-1.414,3.444c-2.306,5.618-4.183,15.13-4.183,21.204
		v42.405c0,4.9,3.986,8.887,8.887,8.887h11.607c4.9,0,8.887-3.986,8.887-8.887v-10.59h99.851v10.59c0,4.9,3.986,8.887,8.887,8.887
		h11.605c4.9,0,8.887-3.986,8.887-8.887v-42.405c0-6.074-1.877-15.586-4.183-21.204l-1.414-3.444h1.071
		c4.9,0,8.887-3.986,8.887-8.887v-4.976C167.215,122.109,164.32,119.063,160.332,119.063z M23.809,135.343l13.256-32.289
		c1.484-3.616,5.898-6.576,9.809-6.576h73.353c3.91,0,8.324,2.96,9.81,6.576l13.254,32.289c1.485,3.616-0.499,6.576-4.409,6.576
		H28.219C24.309,141.919,22.324,138.96,23.809,135.343z M53.398,176.181c0,1.955-1.6,3.555-3.555,3.555h-25.18
		c-1.955,0-3.555-1.6-3.555-3.555v-12.084c0-1.955,1.6-3.555,3.555-3.555h25.18c1.955,0,3.555,1.6,3.555,3.555V176.181z
		 M145.751,176.181c0,1.955-1.6,3.555-3.555,3.555h-25.181c-1.955,0-3.555-1.6-3.555-3.555v-12.084c0-1.955,1.6-3.555,3.555-3.555
		h25.181c1.955,0,3.555,1.6,3.555,3.555V176.181z"/>
	<path d="M268.656,145.229V66.118c0-7.475-6.081-13.556-13.555-13.556h-56.154c-2.139,0-3.873,1.734-3.873,3.873
		c0,2.139,1.734,3.873,3.873,3.873h56.154c3.203,0,5.809,2.606,5.809,5.81v75.562h-18.581v-26.671
		c0-13.021-17.964-11.015-23.206-8.434c-6.319,3.11-24.636,13.665-24.636,13.665c-3.226,1.789-4.39,5.854-2.6,9.078
		c1.219,2.2,3.496,3.439,5.845,3.439c1.096,0,2.207-0.268,3.232-0.838l15.081-8.366v18.126h-29.699
		c-2.042,0-3.704,1.662-3.704,3.704v65.056c0,2.042,1.662,3.704,3.704,3.704h78.621c2.042,0,3.704-1.662,3.704-3.704v-65.056
		C268.672,145.331,268.658,145.281,268.656,145.229z"/>
	<path d="M229.186,100.834c7.655,0,13.884-6.228,13.884-13.882s-6.229-13.881-13.884-13.881c-7.653,0-13.88,6.227-13.88,13.881
		S221.533,100.834,229.186,100.834z"/>
</g>
<g>
</g>
<g>
</g>
<g>
</g>
<g>
</g>
<g>
</g>
<g>
</g>
<g>
</g>
<g>
</g>
<g>
</g>
<g>
</g>
<g>
</g>
<g>
</g>
<g>
</g>
<g>
</g>
<g>
</g>
</svg>
