<?xml version="1.0" encoding="iso-8859-1"?>
<!-- Generator: Adobe Illustrator 17.1.0, SVG Export Plug-In . SVG Version: 6.00 Build 0)  -->
<!DOCTYPE svg PUBLIC "-//W3C//DTD SVG 1.1//EN" "http://www.w3.org/Graphics/SVG/1.1/DTD/svg11.dtd">
<svg version="1.1" id="Capa_1" xmlns="http://www.w3.org/2000/svg" xmlns:xlink="http://www.w3.org/1999/xlink" x="0px" y="0px"
	 viewBox="0 0 228.128 228.128" style="enable-background:new 0 0 228.128 228.128;" xml:space="preserve">
<path d="M224.318,52.029c-3.237-3.947-8.156-6.21-13.495-6.21h-26.307c-2.037-6.024-7.73-10.378-14.434-10.378H74.996v-8.478h6.468
	c5.859,0,10.626-4.767,10.626-10.625v-1.386c0-5.859-4.767-10.625-10.626-10.625H29.735c-5.859,0-10.626,4.766-10.626,10.625v1.386
	c0,5.859,4.767,10.625,10.626,10.625h5.542v8.478H15.245C6.839,35.441,0,42.28,0,50.686v157.871c0,8.406,6.839,15.245,15.245,15.245
	h154.838c8.406,0,15.245-6.839,15.245-15.245v-25.248h1.935c9.643,0,18.675-7.408,20.561-16.864l19.945-99.965
	C228.814,61.243,227.556,55.976,224.318,52.029z M154.892,182.763c3.634,3.938,3.387,10.076-0.552,13.709
	c-1.865,1.721-4.224,2.571-6.576,2.571c-2.613,0-5.22-1.05-7.132-3.123l-47.967-51.991L44.698,195.92
	c-1.913,2.072-4.52,3.123-7.133,3.123c-2.353,0-4.711-0.85-6.576-2.571c-3.938-3.633-4.186-9.771-0.553-13.709l49.027-53.141
	L30.435,76.48c-3.633-3.938-3.386-10.076,0.553-13.709c3.936-3.632,10.073-3.387,13.709,0.552l47.968,51.992l47.968-51.993
	c3.636-3.938,9.771-4.185,13.709-0.552c3.938,3.633,4.186,9.771,0.553,13.709l-49.029,53.143L154.892,182.763z M188.797,162.643
	c-0.118,0.472-1.054,1.239-1.534,1.262h-1.935V65.222h22.906L188.797,162.643z"/>
<g>
</g>
<g>
</g>
<g>
</g>
<g>
</g>
<g>
</g>
<g>
</g>
<g>
</g>
<g>
</g>
<g>
</g>
<g>
</g>
<g>
</g>
<g>
</g>
<g>
</g>
<g>
</g>
<g>
</g>
</svg>
