<?xml version="1.0" encoding="iso-8859-1"?>
<!-- Generator: Adobe Illustrator 17.1.0, SVG Export Plug-In . SVG Version: 6.00 Build 0)  -->
<!DOCTYPE svg PUBLIC "-//W3C//DTD SVG 1.1//EN" "http://www.w3.org/Graphics/SVG/1.1/DTD/svg11.dtd">
<svg version="1.1" id="Capa_1" xmlns="http://www.w3.org/2000/svg" xmlns:xlink="http://www.w3.org/1999/xlink" x="0px" y="0px"
	 viewBox="0 0 246.933 246.933" style="enable-background:new 0 0 246.933 246.933;" xml:space="preserve">
<g>
	<path d="M236.326,140.858l-4.568-0.033c-4.154-0.029-9.398-3.107-11.451-6.72l-22.118-38.947
		c-2.725-4.796-9.179-8.554-14.694-8.554H85.891c-5.477,0-12.094,3.605-15.063,8.208l-25.977,40.254
		c-2.348,3.638-7.895,7.537-12.111,8.515l-22.768,5.277C4.474,150.131,0,155.76,0,161.404v39.683
		c0,5.856,4.765,10.621,10.621,10.621h16.965c3.6,12.353,15.016,21.407,28.513,21.407c13.498,0,24.914-9.055,28.513-21.407h64.129
		c3.6,12.353,15.016,21.407,28.514,21.407c13.498,0,24.913-9.055,28.512-21.407h30.547c5.855,0,10.62-4.765,10.62-10.621v-49.546
		C246.933,145.692,242.174,140.9,236.326,140.858z M56.099,218.168c-8.147,0-14.752-6.606-14.752-14.753
		c0-8.148,6.604-14.753,14.752-14.753s14.752,6.605,14.752,14.753C70.851,211.562,64.246,218.168,56.099,218.168z M127.648,143.593
		H65.852c-3.881,0-5.401-2.71-3.379-6.021l18.822-30.828c2.022-3.312,6.852-6.021,10.732-6.021h35.621V143.593z M177.254,218.168
		c-8.148,0-14.753-6.606-14.753-14.753c0-8.148,6.605-14.753,14.753-14.753c8.146,0,14.752,6.605,14.752,14.753
		C192.006,211.562,185.4,218.168,177.254,218.168z M198.768,143.593h-54.142v-42.871h31.04c3.881,0,8.561,2.795,10.402,6.211
		l16.408,30.449C204.317,140.798,202.648,143.593,198.768,143.593z"/>
	<path d="M81.215,38.697c1.491,6.588,1.339,17.684-0.331,24.229l-2.676,10.492c-0.886,3.472-0.486,6.524,1.124,8.598
		c1.345,1.731,3.465,2.683,5.971,2.683c1.34,0,2.787-0.265,4.301-0.787l38.633-13.327c2.98-1.028,5.695-2.713,7.9-4.74
		c2.205,2.027,4.922,3.712,7.901,4.74l38.631,13.327c1.515,0.523,2.961,0.787,4.302,0.787h0.001c2.505,0,4.625-0.952,5.969-2.682
		c1.611-2.073,2.011-5.127,1.125-8.599l-2.676-10.492c-1.67-6.545-1.822-17.641-0.331-24.229l3.361-14.855
		c0.977-4.318-0.023-6.733-1.035-8c-2.024-2.535-5.809-2.731-10.099-0.358l-40.447,22.384c-2.494,1.38-4.787,3.267-6.702,5.388
		c-1.914-2.122-4.207-4.008-6.701-5.388L88.987,15.484c-4.289-2.373-8.073-2.177-10.099,0.358c-1.012,1.266-2.012,3.681-1.035,8
		L81.215,38.697z"/>
</g>
<g>
</g>
<g>
</g>
<g>
</g>
<g>
</g>
<g>
</g>
<g>
</g>
<g>
</g>
<g>
</g>
<g>
</g>
<g>
</g>
<g>
</g>
<g>
</g>
<g>
</g>
<g>
</g>
<g>
</g>
</svg>
