<?xml version="1.0" encoding="iso-8859-1"?>
<!-- Generator: Adobe Illustrator 17.1.0, SVG Export Plug-In . SVG Version: 6.00 Build 0)  -->
<!DOCTYPE svg PUBLIC "-//W3C//DTD SVG 1.1//EN" "http://www.w3.org/Graphics/SVG/1.1/DTD/svg11.dtd">
<svg version="1.1" id="Capa_1" xmlns="http://www.w3.org/2000/svg" xmlns:xlink="http://www.w3.org/1999/xlink" x="0px" y="0px"
	 viewBox="0 0 216.414 216.414" style="enable-background:new 0 0 216.414 216.414;" xml:space="preserve">
<g>
	<path d="M180.456,116.11c7.427,0,13.469-6.042,13.469-13.469V81.665c0-6.576-2.031-16.874-4.528-22.955l-1.53-3.729h1.161
		c5.305,0,9.62-4.315,9.62-9.62v-5.387c0-4.544-3.133-7.842-7.45-7.842c-0.788,0-1.598,0.113-2.404,0.335l-9.136,2.517l-9.487-23.11
		C167.481,5.326,159.537,0,152.459,0H63.68c-7.077,0-15.021,5.326-17.71,11.873l-9.475,23.078l-9.022-2.485
		c-0.807-0.222-1.616-0.335-2.404-0.335c-4.317,0-7.45,3.298-7.45,7.842v5.387c0,5.305,4.315,9.62,9.62,9.62h1.033l-1.531,3.729
		c-2.497,6.081-4.528,16.379-4.528,22.955v45.909c0,5.305,4.316,9.62,9.62,9.62h12.568c5.305,0,9.62-4.315,9.62-9.62V116.11h16.322
		c-0.168,0.665-0.262,1.354-0.262,2.062c0,5.395,5.161,9.783,11.505,9.783H93.84v64.114c0,1.659-1.349,3.009-3.008,3.009H85.85
		c-4.125,0-7.48,3.357-7.48,7.482v6.373c0,4.125,3.355,7.481,7.48,7.481h44.568c4.125,0,7.48-3.356,7.48-7.481v-6.373
		c0-4.125-3.355-7.482-7.48-7.482h-4.982c-1.659,0-3.008-1.35-3.008-3.009v-64.114h12.253c6.344,0,11.505-4.389,11.505-9.783
		c0-0.708-0.094-1.396-0.262-2.062H180.456z M175.411,80.885v13.083c0,2.117-1.731,3.849-3.848,3.849h-27.264
		c-2.116,0-3.848-1.731-3.848-3.849V80.885c0-2.117,1.732-3.849,3.848-3.849h27.264C173.679,77.036,175.411,78.768,175.411,80.885z
		 M43.396,49.755l14.348-34.954c1.607-3.916,6.386-7.12,10.619-7.12h79.414c4.233,0,9.012,3.204,10.619,7.12l14.35,34.954
		c1.607,3.916-0.54,7.12-4.775,7.12H48.169C43.936,56.875,41.789,53.671,43.396,49.755z M44.321,97.816
		c-2.116,0-3.848-1.731-3.848-3.849V80.885c0-2.117,1.731-3.849,3.848-3.849h27.258c2.116,0,3.848,1.731,3.848,3.849v13.083
		c0,2.117-1.731,3.849-3.848,3.849H44.321z"/>
	<path d="M172.793,137.563c-14.336,0-25.999,11.664-25.999,26.001c0,14.338,11.663,26.003,25.999,26.003
		c14.337,0,26.001-11.665,26.001-26.003C198.794,149.227,187.13,137.563,172.793,137.563z M172.793,176.48
		c-7.133,0-12.916-5.782-12.916-12.916c0-7.133,5.783-12.915,12.916-12.915c7.133,0,12.916,5.782,12.916,12.915
		C185.709,170.698,179.926,176.48,172.793,176.48z"/>
</g>
<g>
</g>
<g>
</g>
<g>
</g>
<g>
</g>
<g>
</g>
<g>
</g>
<g>
</g>
<g>
</g>
<g>
</g>
<g>
</g>
<g>
</g>
<g>
</g>
<g>
</g>
<g>
</g>
<g>
</g>
</svg>
