<?xml version="1.0" encoding="iso-8859-1"?>
<!-- Generator: Adobe Illustrator 17.1.0, SVG Export Plug-In . SVG Version: 6.00 Build 0)  -->
<!DOCTYPE svg PUBLIC "-//W3C//DTD SVG 1.1//EN" "http://www.w3.org/Graphics/SVG/1.1/DTD/svg11.dtd">
<svg version="1.1" id="Capa_1" xmlns="http://www.w3.org/2000/svg" xmlns:xlink="http://www.w3.org/1999/xlink" x="0px" y="0px"
	 viewBox="0 0 283.118 283.118" style="enable-background:new 0 0 283.118 283.118;" xml:space="preserve">
<g>
	<path d="M150.879,62.789c2.169,0,3.928-1.759,3.928-3.928V46.349c0-2.169-1.759-3.928-3.928-3.928
		c-2.169,0-3.928,1.759-3.928,3.928v12.513C146.951,61.03,148.71,62.789,150.879,62.789z"/>
	<path d="M117.247,62.377l9.824,6.617c0.674,0.454,1.436,0.671,2.191,0.671c1.263,0,2.503-0.607,3.261-1.733
		c1.212-1.799,0.736-4.24-1.063-5.451l-9.824-6.617c-1.801-1.214-4.24-0.736-5.451,1.063
		C114.973,58.725,115.448,61.166,117.247,62.377z"/>
	<path d="M172.496,69.665c0.754,0,1.518-0.217,2.19-0.671l9.824-6.617c1.799-1.211,2.274-3.652,1.063-5.451
		c-1.21-1.798-3.651-2.277-5.451-1.063l-9.824,6.617c-1.799,1.211-2.274,3.652-1.063,5.451
		C169.993,69.058,171.233,69.665,172.496,69.665z"/>
	<path d="M281.295,135.964c-1.913-2.186-5.132-2.893-8.534-1.824l-16.759,5.262c-0.85,0.266-1.779,0.401-2.765,0.401
		c-3.662,0-7.388-1.804-9.271-4.489l-22.107-31.505c-3.343-4.763-10.52-8.494-16.339-8.494h-29.606
		c-1.023-12.876-11.822-23.043-24.957-23.043c-13.135,0-23.934,10.167-24.957,23.043h-24.677c-5.777,0-13.119,3.543-16.713,8.066
		l-26.238,33.018c-2.912,3.665-9.228,7.634-13.792,8.668l-25.254,5.723c-5.842,1.324-11.182,6.991-12.155,12.902l-7.02,42.613
		c-0.501,3.039,0.252,5.925,2.119,8.125c1.868,2.201,4.594,3.413,7.675,3.413h29.137c3.842,13.187,16.028,22.854,30.438,22.854
		c14.41,0,26.598-9.667,30.439-22.854h68.463c3.841,13.187,16.027,22.854,30.438,22.854c14.41,0,26.597-9.667,30.438-22.854h32.609
		c6.114,0,11.747-4.931,12.556-10.991l8.555-64.082C283.379,140.064,282.767,137.646,281.295,135.964z M69.519,224.74
		c-8.697,0-15.748-7.052-15.748-15.749c0-8.698,7.051-15.75,15.748-15.75c8.699,0,15.749,7.052,15.749,15.75
		C85.268,217.689,78.219,224.74,69.519,224.74z M174.048,145.128H79.932c-4.143,0-5.408-2.642-2.812-5.869l18.502-23.003
		c2.597-3.229,8.11-5.869,12.253-5.869h66.173V145.128z M198.859,224.74c-8.697,0-15.75-7.052-15.75-15.749
		c0-8.698,7.053-15.75,15.75-15.75c8.697,0,15.748,7.052,15.748,15.75C214.607,217.689,207.557,224.74,198.859,224.74z
		 M221.826,145.128h-29.655v-34.741h4.993c4.143,0,9.494,2.764,11.893,6.142l15.941,22.458
		C227.396,142.364,225.969,145.128,221.826,145.128z"/>
</g>
<g>
</g>
<g>
</g>
<g>
</g>
<g>
</g>
<g>
</g>
<g>
</g>
<g>
</g>
<g>
</g>
<g>
</g>
<g>
</g>
<g>
</g>
<g>
</g>
<g>
</g>
<g>
</g>
<g>
</g>
</svg>
