<?xml version="1.0" encoding="iso-8859-1"?>
<!-- Generator: Adobe Illustrator 17.1.0, SVG Export Plug-In . SVG Version: 6.00 Build 0)  -->
<!DOCTYPE svg PUBLIC "-//W3C//DTD SVG 1.1//EN" "http://www.w3.org/Graphics/SVG/1.1/DTD/svg11.dtd">
<svg version="1.1" id="Capa_1" xmlns="http://www.w3.org/2000/svg" xmlns:xlink="http://www.w3.org/1999/xlink" x="0px" y="0px"
	 viewBox="0 0 283.118 283.118" style="enable-background:new 0 0 283.118 283.118;" xml:space="preserve">
<path d="M281.295,109.517c-1.913-2.185-5.132-2.892-8.534-1.824l-16.759,5.262c-0.85,0.266-1.779,0.401-2.765,0.401
	c-3.662,0-7.388-1.804-9.271-4.489l-22.106-31.505c-3.343-4.763-10.52-8.494-16.339-8.494H101.324
	c-5.777,0-13.119,3.543-16.714,8.066l-26.238,33.02c-2.911,3.664-9.227,7.633-13.791,8.667l-25.254,5.723
	c-5.842,1.324-11.182,6.991-12.155,12.902l-7.021,42.613c-0.501,3.039,0.252,5.925,2.119,8.125c1.868,2.201,4.594,3.413,7.675,3.413
	h29.138c3.841,13.186,16.027,22.854,30.437,22.854c14.41,0,26.598-9.667,30.438-22.854h68.463
	c3.842,13.186,16.029,22.854,30.439,22.854c14.409,0,26.597-9.667,30.438-22.854h32.608c6.114,0,11.747-4.931,12.556-10.991
	l8.555-64.082C283.379,113.617,282.766,111.199,281.295,109.517z M69.519,198.294c-8.697,0-15.748-7.052-15.748-15.749
	c0-8.698,7.051-15.75,15.748-15.75c8.699,0,15.749,7.052,15.749,15.75C85.268,191.242,78.219,198.294,69.519,198.294z
	 M174.048,118.681H79.932c-4.143,0-5.408-2.642-2.812-5.869l18.502-23.003c2.597-3.229,8.11-5.869,12.253-5.869h66.173V118.681z
	 M198.859,198.294c-8.697,0-15.75-7.052-15.75-15.749c0-8.698,7.053-15.75,15.75-15.75c8.697,0,15.748,7.052,15.748,15.75
	C214.607,191.242,207.557,198.294,198.859,198.294z M221.826,118.681h-29.655V83.94h4.993c4.143,0,9.494,2.764,11.893,6.142
	l15.941,22.458C227.396,115.918,225.969,118.681,221.826,118.681z"/>
<g>
</g>
<g>
</g>
<g>
</g>
<g>
</g>
<g>
</g>
<g>
</g>
<g>
</g>
<g>
</g>
<g>
</g>
<g>
</g>
<g>
</g>
<g>
</g>
<g>
</g>
<g>
</g>
<g>
</g>
</svg>
