<?xml version="1.0" encoding="iso-8859-1"?>
<!-- Generator: Adobe Illustrator 17.1.0, SVG Export Plug-In . SVG Version: 6.00 Build 0)  -->
<!DOCTYPE svg PUBLIC "-//W3C//DTD SVG 1.1//EN" "http://www.w3.org/Graphics/SVG/1.1/DTD/svg11.dtd">
<svg version="1.1" id="Capa_1" xmlns="http://www.w3.org/2000/svg" xmlns:xlink="http://www.w3.org/1999/xlink" x="0px" y="0px"
	 viewBox="0 0 297.713 297.713" style="enable-background:new 0 0 297.713 297.713;" xml:space="preserve">
<g>
	<path d="M87.151,98.506c0-24.028-19.548-43.576-43.576-43.576C19.548,54.93,0,74.478,0,98.506c0,22.485,17.12,41.045,39.01,43.335
		v94.228c0,2.521,2.044,4.565,4.565,4.565s4.565-2.044,4.565-4.565v-94.228C70.031,139.552,87.151,120.992,87.151,98.506z
		 M22.824,125.31L70.38,77.753c4.455,5.741,7.117,12.94,7.117,20.753c0,18.704-15.217,33.92-33.921,33.92
		C35.764,132.426,28.566,129.764,22.824,125.31z M16.771,119.257c-4.454-5.741-7.116-12.939-7.116-20.751
		c0-18.705,15.217-33.922,33.921-33.922c7.813,0,15.011,2.662,20.751,7.116L16.771,119.257z"/>
	<g>
		<path d="M287.297,98.088h-74.762c-5.743,0-10.416,4.672-10.416,10.416v32.564c0,5.744,4.673,10.416,10.416,10.416h74.762
			c5.743,0,10.416-4.672,10.416-10.416v-32.564C297.713,102.761,293.04,98.088,287.297,98.088z"/>
		<path d="M286.332,158.74h-85.415c-3.836,0-6.957-3.121-6.957-6.957v-46.552c0-5.928-4.822-10.75-10.75-10.75h-39.352
			c-5.544,0-12.241,3.649-15.248,8.307l-22.99,35.628c-2.421,3.75-7.985,8.271-12.151,9.873l-21.084,8.104
			c-5.316,2.044-9.481,8.105-9.481,13.8v40.17c0,5.928,4.822,10.75,10.75,10.75h11.187c3.642,12.503,15.197,21.669,28.86,21.669
			s25.218-9.166,28.861-21.669h64.294c3.644,12.503,15.199,21.669,28.862,21.669s25.218-9.166,28.86-21.669h21.753
			c5.928,0,10.75-4.822,10.75-10.75V169.49C297.082,163.562,292.26,158.74,286.332,158.74z M113.701,227.653
			c-8.247,0-14.934-6.687-14.934-14.934s6.687-14.933,14.934-14.933s14.934,6.686,14.934,14.933S121.948,227.653,113.701,227.653z
			 M175.778,145.822c0,3.928-3.214,7.099-7.141,7.046l-45.063-0.605c-3.928-0.053-5.467-2.839-3.42-6.191l19.05-31.203
			c2.047-3.353,6.936-6.096,10.863-6.096h18.568c3.928,0,7.142,3.214,7.142,7.142V145.822z M235.719,227.653
			c-8.247,0-14.933-6.687-14.933-14.934s6.686-14.933,14.933-14.933s14.933,6.686,14.933,14.933S243.966,227.653,235.719,227.653z"
			/>
	</g>
</g>
<g>
</g>
<g>
</g>
<g>
</g>
<g>
</g>
<g>
</g>
<g>
</g>
<g>
</g>
<g>
</g>
<g>
</g>
<g>
</g>
<g>
</g>
<g>
</g>
<g>
</g>
<g>
</g>
<g>
</g>
</svg>
