<?xml version="1.0" encoding="iso-8859-1"?>
<!-- Generator: Adobe Illustrator 17.1.0, SVG Export Plug-In . SVG Version: 6.00 Build 0)  -->
<!DOCTYPE svg PUBLIC "-//W3C//DTD SVG 1.1//EN" "http://www.w3.org/Graphics/SVG/1.1/DTD/svg11.dtd">
<svg version="1.1" id="Capa_1" xmlns="http://www.w3.org/2000/svg" xmlns:xlink="http://www.w3.org/1999/xlink" x="0px" y="0px"
	 viewBox="0 0 224.188 224.188" style="enable-background:new 0 0 224.188 224.188;" xml:space="preserve">
<path d="M187.386,141.803H170.34c-1.694-17.473-10.192-29.364-23.455-33.195c6.904-10.934,10.919-23.867,10.919-37.728
	C157.804,31.797,126.007,0,86.923,0S16.041,31.797,16.041,70.88c0,13.86,4.014,26.793,10.918,37.728
	c-14.884,4.299-23.771,18.749-23.771,39.847c0,25.408,12.879,41.192,33.612,41.192h17.047c2.082,21.479,14.439,34.54,33.296,34.54
	h100.242c20.733,0,33.612-15.784,33.612-41.192S208.119,141.803,187.386,141.803z M89.672,107.265V87.767
	c2.684-0.435,5.158-1.488,7.274-3.017l15.066,15.066c-3.785,3.286-8.216,5.841-13.076,7.45H89.672z M100.836,80.861
	c1.53-2.117,2.582-4.591,3.018-7.275h21.289c-0.597,8.508-3.98,16.255-9.245,22.338L100.836,80.861z M103.854,68.087
	c-0.435-2.685-1.488-5.159-3.018-7.276l15.021-15.021c5.27,6.069,8.663,13.802,9.279,22.297H103.854z M96.947,56.922
	c-2.117-1.529-4.59-2.582-7.275-3.017V32.664c8.49,0.605,16.22,3.985,22.293,9.24L96.947,56.922z M100.095,70.837
	c0,7.274-5.898,13.172-13.172,13.172c-7.274,0-13.172-5.897-13.172-13.172c0-7.275,5.897-13.173,13.172-13.173
	C94.198,57.664,100.095,63.562,100.095,70.837z M84.173,53.905c-2.685,0.435-5.159,1.488-7.275,3.018L61.879,41.905
	c6.073-5.255,13.803-8.635,22.294-9.241V53.905z M73.009,60.812c-1.529,2.117-2.581,4.59-3.017,7.275H48.709
	c0.616-8.495,4.009-16.228,9.279-22.296L73.009,60.812z M69.993,73.586c0.435,2.684,1.488,5.158,3.017,7.274L57.947,95.924
	c-5.265-6.083-8.647-13.83-9.245-22.338H69.993z M76.898,84.749c2.117,1.53,4.59,2.582,7.275,3.018v19.498h-9.266
	c-4.86-1.608-9.292-4.164-13.076-7.45L76.898,84.749z M86.923,20.538c27.803,0,50.342,22.539,50.342,50.342
	c0,14.312-5.982,27.219-15.57,36.385h-10.37c11.706-7.876,19.423-21.246,19.423-36.385c0-24.165-19.66-43.825-43.825-43.825
	S43.097,46.715,43.097,70.88c0,15.139,7.717,28.508,19.423,36.385H52.149c-9.588-9.166-15.57-22.073-15.57-36.385
	C36.579,43.077,59.119,20.538,86.923,20.538z"/>
<g>
</g>
<g>
</g>
<g>
</g>
<g>
</g>
<g>
</g>
<g>
</g>
<g>
</g>
<g>
</g>
<g>
</g>
<g>
</g>
<g>
</g>
<g>
</g>
<g>
</g>
<g>
</g>
<g>
</g>
</svg>
