<svg id="Capa_1" enable-background="new 0 0 512.697 512.697" height="512" viewBox="0 0 512.697 512.697" width="512" xmlns="http://www.w3.org/2000/svg"><g id="XMLID_953_"><path id="XMLID_1184_" d="m473.034 18.349h-433.37c-21.871 0-39.664 17.793-39.664 39.663v143.29c0 21.87 17.793 39.663 39.664 39.663h433.37c21.871 0 39.664-17.793 39.664-39.663v-143.29c-.001-21.87-17.794-39.663-39.664-39.663zm-433.37 30h6.817l38.577 39.949 21.581-20.84-18.453-19.109h49.295l38.577 39.949 21.581-20.84-18.453-19.109h49.295l38.577 39.949 21.581-20.84-18.453-19.109h49.295l38.577 39.949 21.581-20.84-18.453-19.109h49.295l38.577 39.949 21.581-20.84-18.453-19.109h20.848c5.329 0 9.664 4.335 9.664 9.663v56.646h-452.698v-56.646c0-5.328 4.335-9.663 9.664-9.663zm433.37 162.616h-20.848l18.453-19.109-21.581-20.84-38.577 39.949h-49.295l18.453-19.109-21.581-20.84-38.577 39.949h-49.295l18.453-19.109-21.581-20.84-38.577 39.949h-49.295l18.453-19.109-21.581-20.84-38.577 39.949h-49.295l18.453-19.109-21.581-20.84-38.577 39.949h-6.817c-5.329 0-9.664-4.335-9.664-9.663v-56.645h452.697v56.645c0 5.328-4.335 9.663-9.663 9.663z"/><path id="XMLID_1193_" d="m473.034 271.732h-433.37c-21.871 0-39.664 17.793-39.664 39.664v143.29c0 21.87 17.793 39.663 39.664 39.663h433.37c21.871 0 39.664-17.793 39.664-39.663v-143.29c-.001-21.871-17.794-39.664-39.664-39.664zm9.663 39.664v56.645h-33.421l-21.359-66.308h45.117c5.328-.001 9.663 4.334 9.663 9.663zm-200.337 56.644-21.359-66.308h51.94l21.359 66.308zm-31.518 0h-51.94l-21.359-66.308h51.941zm-83.459 0h-51.94l-21.359-66.308h51.941zm-1.346 30-25.819 66.309h-51.265l25.819-66.309zm32.193 0h51.265l-25.819 66.309h-51.265zm83.459 0h51.264l-25.819 66.309h-51.265zm83.458 0h51.264l-25.819 66.309h-51.265zm.671-30-21.359-66.308h51.94l21.359 66.308zm-326.154-66.308h22.903l21.359 66.308h-53.926v-56.645c0-5.328 4.335-9.663 9.664-9.663zm-9.664 152.954v-56.646h52.579l-25.819 66.309h-17.096c-5.329 0-9.664-4.335-9.664-9.663zm443.034 9.663h-50.248l25.819-66.309h34.092v56.646c0 5.328-4.335 9.663-9.663 9.663z"/></g></svg>