<?xml version="1.0" encoding="iso-8859-1"?>
<!-- Generator: Adobe Illustrator 17.1.0, SVG Export Plug-In . SVG Version: 6.00 Build 0)  -->
<!DOCTYPE svg PUBLIC "-//W3C//DTD SVG 1.1//EN" "http://www.w3.org/Graphics/SVG/1.1/DTD/svg11.dtd">
<svg version="1.1" id="Capa_1" xmlns="http://www.w3.org/2000/svg" xmlns:xlink="http://www.w3.org/1999/xlink" x="0px" y="0px"
	 viewBox="0 0 276.565 276.565" style="enable-background:new 0 0 276.565 276.565;" xml:space="preserve">
<path d="M264.036,38.405H133.244h-5.232h-42.75c-3.945,0-7.155,3.21-7.155,7.155v27.68c0,3.945,3.21,7.155,7.155,7.155h30.221v9.352
	H69.647c-6.223,0-12.923,4.521-15.253,10.29l-9.419,23.322c-1.785,4.42-7.052,9.599-11.501,11.309l-23.091,8.877
	C4.56,145.783,0,152.422,0,158.659v43.994c0,6.492,5.282,11.773,11.774,11.773h12.25c3.99,13.694,16.646,23.733,31.61,23.733
	c14.964,0,27.619-10.039,31.609-23.733h90.427c3.99,13.694,16.646,23.733,31.61,23.733c14.964,0,27.619-10.039,31.609-23.733h23.823
	c6.492,0,11.773-5.281,11.773-11.773v-34.096c0.049-0.449,0.078-0.904,0.078-1.366V50.934
	C276.565,44.026,270.944,38.405,264.036,38.405z M55.634,221.589c-9.032,0-16.356-7.323-16.356-16.355s7.323-16.354,16.356-16.354
	s16.355,7.322,16.355,16.354S64.666,221.589,55.634,221.589z M103.611,131.966c0,4.302-3.519,7.753-7.82,7.67l-29.345-0.569
	c-4.301-0.083-6.814-3.524-5.584-7.646l5.529-18.526c1.229-4.122,5.756-7.495,10.059-7.495h19.339c4.303,0,7.822,3.52,7.822,7.821
	V131.966z M98.897,68.401c-1.313,0-2.389-1.075-2.389-2.389V52.788c0-1.313,1.075-2.389,2.389-2.389h68.174
	c1.313,0,2.389,1.075,2.389,2.389v13.225c0,1.313-1.075,2.389-2.389,2.389H98.897z M183.434,135.122c0,2.75-2.25,5-5,5h-35.19
	c-2.75,0-5-2.25-5-5v-36.06c0-2.75,2.25-5,5-5h35.19c2.75,0,5,2.25,5,5V135.122z M209.281,221.589
	c-9.032,0-16.354-7.323-16.354-16.355s7.322-16.354,16.354-16.354c9.032,0,16.355,7.322,16.355,16.354
	S218.313,221.589,209.281,221.589z M251.767,135.122c0,2.75-2.25,5-5,5h-35.19c-2.75,0-5-2.25-5-5v-36.06c0-2.75,2.25-5,5-5h35.19
	c2.75,0,5,2.25,5,5V135.122z"/>
<g>
</g>
<g>
</g>
<g>
</g>
<g>
</g>
<g>
</g>
<g>
</g>
<g>
</g>
<g>
</g>
<g>
</g>
<g>
</g>
<g>
</g>
<g>
</g>
<g>
</g>
<g>
</g>
<g>
</g>
</svg>
