<?xml version="1.0" encoding="iso-8859-1"?>
<!-- Generator: Adobe Illustrator 17.1.0, SVG Export Plug-In . SVG Version: 6.00 Build 0)  -->
<!DOCTYPE svg PUBLIC "-//W3C//DTD SVG 1.1//EN" "http://www.w3.org/Graphics/SVG/1.1/DTD/svg11.dtd">
<svg version="1.1" id="Capa_1" xmlns="http://www.w3.org/2000/svg" xmlns:xlink="http://www.w3.org/1999/xlink" x="0px" y="0px"
	 viewBox="0 0 257.167 257.167" style="enable-background:new 0 0 257.167 257.167;" xml:space="preserve">
<g>
	<path d="M245.759,51.322h-81.881c-6.29,0-11.408,5.118-11.408,11.408v35.665c0,6.29,5.118,11.408,11.408,11.408h81.881
		c6.29,0,11.408-5.118,11.408-11.408V62.73C257.167,56.44,252.049,51.322,245.759,51.322z"/>
	<path d="M244.702,117.749h-93.548c-4.201,0-7.619-3.418-7.619-7.619V59.145c0-6.492-5.281-11.773-11.773-11.773h-43.1
		c-6.072,0-13.407,3.996-16.699,9.099l-25.18,39.02c-2.65,4.106-8.745,9.059-13.309,10.813l-23.092,8.876
		C4.56,117.418,0,124.058,0,130.294v43.994c0,6.492,5.281,11.773,11.773,11.773h12.251c3.99,13.694,16.646,23.733,31.609,23.733
		c14.964,0,27.62-10.039,31.61-23.733h70.414c3.99,13.694,16.646,23.733,31.611,23.733c14.964,0,27.619-10.039,31.609-23.733h23.823
		c6.492,0,11.773-5.281,11.773-11.773v-44.766C256.476,123.03,251.194,117.749,244.702,117.749z M55.634,193.224
		c-9.032,0-16.355-7.323-16.355-16.355c0-9.032,7.323-16.354,16.355-16.354c9.032,0,16.355,7.322,16.355,16.354
		C71.989,185.9,64.666,193.224,55.634,193.224z M123.622,103.601c0,4.303-3.52,7.775-7.821,7.718l-49.354-0.663
		c-4.302-0.058-5.987-3.108-3.745-6.78L83.566,69.7c2.242-3.672,7.596-6.676,11.898-6.676h20.336c4.302,0,7.821,3.52,7.821,7.822
		V103.601z M189.27,193.224c-9.032,0-16.355-7.323-16.355-16.355c0-9.032,7.322-16.354,16.355-16.354
		c9.032,0,16.354,7.322,16.354,16.354C205.624,185.9,198.302,193.224,189.27,193.224z"/>
</g>
<g>
</g>
<g>
</g>
<g>
</g>
<g>
</g>
<g>
</g>
<g>
</g>
<g>
</g>
<g>
</g>
<g>
</g>
<g>
</g>
<g>
</g>
<g>
</g>
<g>
</g>
<g>
</g>
<g>
</g>
</svg>
