<?xml version="1.0" encoding="iso-8859-1"?>
<!-- Generator: Adobe Illustrator 17.1.0, SVG Export Plug-In . SVG Version: 6.00 Build 0)  -->
<!DOCTYPE svg PUBLIC "-//W3C//DTD SVG 1.1//EN" "http://www.w3.org/Graphics/SVG/1.1/DTD/svg11.dtd">
<svg version="1.1" id="Capa_1" xmlns="http://www.w3.org/2000/svg" xmlns:xlink="http://www.w3.org/1999/xlink" x="0px" y="0px"
	 viewBox="0 0 266.48 266.48" style="enable-background:new 0 0 266.48 266.48;" xml:space="preserve">
<path d="M254.706,142.417h-15.414c1.443-1.704,2.547-3.704,3.188-5.903h16.587c3.179,0,5.764-2.585,5.764-5.764V103.86
	c0-3.175-2.582-5.775-5.757-5.798l-2.48-0.017c-2.255-0.017-5.1-1.687-6.213-3.647l-12.006-21.139
	c-1.479-2.604-4.981-4.643-7.976-4.643h-52.973c-2.973,0-6.563,1.956-8.176,4.454l-14.098,21.848
	c-1.274,1.975-4.285,4.092-6.574,4.622l-12.355,2.864c-2.984,0.691-5.412,3.746-5.412,6.81v21.537c0,3.179,2.585,5.764,5.764,5.764
	h9.214c0.641,2.199,1.744,4.199,3.188,5.903h-17.834c-4.202,0-7.62-3.418-7.62-7.619V63.802c0-6.492-5.282-11.773-11.774-11.773
	H88.661c-6.073,0-13.408,3.996-16.7,9.099l-25.18,39.02c-2.65,4.107-8.745,9.06-13.309,10.813l-23.09,8.876
	C4.561,122.075,0,128.713,0,134.951v43.994c0,6.492,5.282,11.774,11.774,11.774h12.25c3.989,13.694,16.644,23.733,31.609,23.733
	c14.963,0,27.619-10.039,31.607-23.733h70.418c3.989,13.694,16.645,23.733,31.609,23.733c14.963,0,27.619-10.039,31.607-23.733
	h33.83c6.492,0,11.774-5.281,11.774-11.774v-24.754C266.48,147.699,261.198,142.417,254.706,142.417z M55.634,197.88
	c-9.033,0-16.355-7.323-16.355-16.355c0-9.032,7.322-16.355,16.355-16.355c9.031,0,16.356,7.322,16.356,16.355
	C71.989,190.557,64.665,197.88,55.634,197.88z M103.61,108.257c0,4.303-3.52,7.754-7.82,7.671l-29.346-0.569
	c-4.301-0.083-5.986-3.155-3.744-6.827l20.865-34.175c2.242-3.672,7.596-6.676,11.898-6.676h0.324c4.303,0,7.822,3.52,7.822,7.822
	V108.257z M219.007,132.014c0-4.422,3.584-8.006,8.006-8.006c4.422,0,8.006,3.584,8.006,8.006c0,4.422-3.584,8.008-8.006,8.008
	C222.591,140.022,219.007,136.436,219.007,132.014z M209.303,76.278h16.847c2.107,0,4.648,1.517,5.646,3.371l8.906,16.526
	c0.999,1.854,0.092,3.371-2.014,3.371h-29.386V76.278z M164.716,96.278l10.215-16.731c1.098-1.798,3.72-3.269,5.826-3.269h19.333
	v23.269h-33.54C164.443,99.546,163.618,98.076,164.716,96.278z M161.255,124.008c4.424,0,8.008,3.584,8.008,8.006
	c0,4.422-3.584,8.008-8.008,8.008c-4.42,0-8.006-3.586-8.006-8.008C153.249,127.592,156.835,124.008,161.255,124.008z
	 M189.269,197.88c-9.033,0-16.355-7.323-16.355-16.355c0-9.032,7.322-16.355,16.355-16.355c9.031,0,16.354,7.322,16.354,16.355
	C205.622,190.557,198.3,197.88,189.269,197.88z M173.536,142.417c1.443-1.704,2.547-3.704,3.188-5.903h34.82
	c0.641,2.199,1.744,4.199,3.188,5.903H173.536z"/>
<g>
</g>
<g>
</g>
<g>
</g>
<g>
</g>
<g>
</g>
<g>
</g>
<g>
</g>
<g>
</g>
<g>
</g>
<g>
</g>
<g>
</g>
<g>
</g>
<g>
</g>
<g>
</g>
<g>
</g>
</svg>
