<?xml version="1.0" encoding="iso-8859-1"?>
<!-- Generator: Adobe Illustrator 19.0.0, SVG Export Plug-In . SVG Version: 6.00 Build 0)  -->
<svg xmlns="http://www.w3.org/2000/svg" xmlns:xlink="http://www.w3.org/1999/xlink" version="1.1" id="Layer_1" x="0px" y="0px" viewBox="0 0 512 512" style="enable-background:new 0 0 512 512;" xml:space="preserve" width="512" height="512">
<g>
	<rect x="22.667" y="284.234" transform="matrix(-0.2588 -0.9659 0.9659 -0.2588 -256.1111 431.9471)" width="30" height="60"/>
	<rect x="458.833" y="167.282" transform="matrix(0.2547 0.967 -0.967 0.2547 544.3799 -310.8131)" width="30" height="60.966"/>
	<rect x="7.667" y="182.766" transform="matrix(-0.9659 -0.2588 0.2588 -0.9659 22.8648 398.5417)" width="60" height="30"/>
	<rect x="458.833" y="283.751" transform="matrix(-0.2547 0.967 -0.967 -0.2547 898.3976 -63.9274)" width="30" height="60.967"/>
	<rect y="241" width="60" height="30"/>
	<rect x="451" y="241" width="61" height="30"/>
	<path d="M171.375,166.882L90,146.862v218.275l81.43-20.033C212.392,334.864,241,298.223,241,256S212.392,177.136,171.375,166.882z    M164.208,315.986L120,326.862V185.137L164.153,196C191.736,202.896,211,227.568,211,256S191.736,309.104,164.208,315.986z"/>
	<path d="M421,365.212V146.788l-80.43,20.107C299.608,177.136,271,213.777,271,256s28.608,78.864,69.57,89.104L421,365.212z    M301,256c0-28.431,19.264-53.104,46.847-60L391,185.212v141.577L347.847,316C320.264,309.104,301,284.431,301,256z"/>
</g>















</svg>
