<svg id="Capa_1" enable-background="new 0 0 507.542 507.542" height="512" viewBox="0 0 507.542 507.542" width="512" xmlns="http://www.w3.org/2000/svg"><g><path d="m349.244 222.798c0-2.258 1.715-4.244 4.335-4.244h18.692c12.371 0 22.214 4.605 22.214 19.324 0 10.114-4.605 15.893-10.926 18.332l11.017 19.956c.361.542.452 1.174.452 1.626 0 3.521-4.696 7.314-8.85 7.314-1.806 0-3.521-.723-4.515-2.619l-12.371-24.02h-5.96v21.763c0 2.89-3.522 4.335-7.043 4.335-3.522 0-7.044-1.445-7.044-4.335v-57.432zm14.087 8.037v16.796h8.94c5.057 0 8.127-2.077 8.127-8.398s-3.07-8.398-8.127-8.398z"/><path d="m130.874 283.564c-3.07 0-6.14-1.445-6.14-4.335v-57.432c0-2.98 3.521-4.244 7.044-4.244 3.521 0 7.043 1.264 7.043 4.244v49.485h20.589c2.709 0 4.064 3.07 4.064 6.141 0 3.07-1.355 6.141-4.064 6.141z"/><g><path d="m501.493 239.258-76.323-75.657c-5.967-5.915-14.492-7.581-22.247-4.35-7.756 3.232-12.574 10.46-12.574 18.862 0 2.997-2.438 5.435-5.435 5.435h-87.644c-11.268 0-20.435 9.167-20.435 20.435v99.576c0 11.268 9.167 20.435 20.435 20.435h37.097c4.142 0 7.5-3.358 7.5-7.5s-3.358-7.5-7.5-7.5h-5.313v-110.446h55.859c11.267 0 20.435-9.167 20.435-20.435 0-3.27 2.338-4.598 3.344-5.017 1.004-.418 3.595-1.145 5.917 1.157l76.323 75.657c1.038 1.028 1.609 2.399 1.609 3.86 0 1.46-.571 2.831-1.608 3.859l-76.324 75.658c-2.321 2.302-4.911 1.575-5.916 1.157-1.005-.419-3.344-1.747-3.344-5.017 0-11.268-9.167-20.435-20.435-20.435h-20.546c-4.142 0-7.5 3.358-7.5 7.5s3.358 7.5 7.5 7.5h20.546c2.996 0 5.435 2.438 5.435 5.435 0 8.402 4.818 15.63 12.574 18.862 2.617 1.091 5.322 1.624 7.986 1.624 5.231 0 10.308-2.054 14.261-5.973l76.323-75.658c3.9-3.866 6.049-9.02 6.049-14.512 0-5.491-2.148-10.645-6.049-14.512zm-187.438 69.735h-16.785c-2.997 0-5.435-2.438-5.435-5.435v-99.576c0-2.997 2.438-5.435 5.435-5.435h16.785z"/><path d="m210.271 183.548h-45.804c-4.142 0-7.5 3.358-7.5 7.5s3.358 7.5 7.5 7.5h14.018v110.445h-55.858c-11.268 0-20.435 9.167-20.435 20.435 0 3.27-2.338 4.598-3.344 5.017-1.005.419-3.594 1.146-5.917-1.157l-76.323-75.657c-1.038-1.028-1.609-2.399-1.609-3.86 0-1.46.571-2.831 1.609-3.859l76.323-75.658c2.322-2.302 4.911-1.575 5.916-1.157 1.006.419 3.344 1.747 3.344 5.017 0 11.268 9.167 20.435 20.435 20.435h11.84c4.142 0 7.5-3.358 7.5-7.5s-3.358-7.5-7.5-7.5h-11.84c-2.997 0-5.435-2.438-5.435-5.435 0-8.402-4.818-15.63-12.574-18.862s-16.281-1.565-22.247 4.35l-76.321 75.656c-3.901 3.866-6.049 9.02-6.049 14.512 0 5.493 2.148 10.646 6.049 14.514l76.323 75.657c3.954 3.919 9.029 5.974 14.261 5.974 2.664 0 5.369-.533 7.986-1.624 7.756-3.232 12.574-10.46 12.574-18.863 0-2.997 2.438-5.435 5.435-5.435h87.643c8.451 0 15.72-5.156 18.826-12.488 1.035-2.444 1.608-5.129 1.608-7.946v-99.576c0-2.817-.573-5.502-1.608-7.946-3.106-7.333-10.375-12.489-18.826-12.489zm-16.785 125.445v-110.445h16.785c1.873 0 3.528.952 4.506 2.399.587.867.93 1.913.93 3.036v99.576c0 1.124-.343 2.169-.93 3.037-.978 1.446-2.632 2.398-4.506 2.398h-16.785z"/></g></g></svg>