<svg height="512" viewBox="0 0 64 64" width="512" xmlns="http://www.w3.org/2000/svg"><g id="outline"><path d="m57 5h-50a5.006 5.006 0 0 0 -5 5v44a5.006 5.006 0 0 0 5 5h50a5.006 5.006 0 0 0 5-5v-44a5.006 5.006 0 0 0 -5-5zm-53 5a3 3 0 0 1 3-3h50a3 3 0 0 1 3 3v13h-2v-13a1 1 0 0 0 -1-1h-50a1 1 0 0 0 -1 1v13h-2zm52 13h-48v-12h48zm4 31a3 3 0 0 1 -3 3h-50a3 3 0 0 1 -3-3v-25h2v25a1 1 0 0 0 1 1h50a1 1 0 0 0 1-1v-25h2zm-37-25h18v2h-18zm-1 4h20a1 1 0 0 0 1-1v-3h13v24h-48v-24h13v3a1 1 0 0 0 1 1zm38-6h-56v-2h56z"/><path d="m22.136 40.5h12.728v2h-12.728z" transform="matrix(.707 -.707 .707 .707 -20.997 32.308)"/><path d="m23.101 42h19.799v2h-19.799z" transform="matrix(.707 -.707 .707 .707 -20.74 35.929)"/><path d="m12 15h3v-2h-5v6h2z"/><path d="m54 42h-2v7h-4v2h6z"/><path d="m44 49h2v2h-2z"/></g></svg>